<svg xmlns="http://www.w3.org/2000/svg" width="255" height="289"><g transform="matrix(-.390731 .920505 -.920505 -.390731 253.355787 68.602547)" stroke="#1a1a1a" fill="none" opacity=".88" stroke-width=".85"><path d="M76.11.074c16-.8 31.9 4.9 45.1 16.8 12 10.8 22.4 23.3 34.8 33.6 19.1 15.9 39.2 30.7 59 45.7 12.3 9.3 21.3 20.7 23 36.2 2.7 24.9-20.6 44.6-47.2 38.2-20.1-4.8-39.8-12.2-58.9-20.5-35.5-15.4-70.2-32.6-101.3-56-7.9-5.9-15.4-12.8-21.6-20.4-15.8-19.6-9.1-38.6 6.8-51.9 16.8-14.1 36.3-21.6 60.3-21.7z" opacity=".88"/><path d="M74.91 13.174c15.8.2 29.8 5.7 41.3 16.3 26.6 24.6 52.8 49.7 82.1 71.3 7.3 5.4 12.9 13.9 17.4 22 7.4 13.2.2 27.5-14.1 32-9.6 3.1-19 2.1-27.9-1.1-47.8-17.2-94.1-37.7-134.7-69-3.9-3-7.4-6.7-10.4-10.6-14.6-19.8-10.7-38.2 10.4-50.8 10.8-6.4 23.8-10.1 35.9-10.1z" opacity=".88"/><path d="M73.51 27.474c-3.7.7-9.3.9-14.2 3-18.3 8-27.2 20.2-12.9 40 4.3 6 10.5 10.9 16.6 15.3 25.7 18.8 55.3 29.9 84.1 42.4 8 3.4 16.4 6.2 24.9 8.1 4.6 1 9.9.2 14.5-1 6.1-1.7 8.5-6.7 5.3-12.2-3.7-6.5-8-12.9-13.2-18.1-6.9-7.1-15.2-12.8-22.5-19.6l-44.4-41.9c-10.2-9.1-22.3-15.1-38.2-16z" opacity=".88"/><path d="M81.41 42.774c4.3 1.8 11 3.7 16.7 7.1 15.9 9.6 26.3 24.2 34.6 40.4 2.6 5-1.8 10.6-7.9 9.4-20.3-4.1-39.6-11-55.4-25.2-1.7-1.6-3.1-3.5-4.5-5.4-3.7-5.3-5.9-11.2-2.7-17.3 3.4-6.4 9.9-8.2 19.2-9z" opacity=".88"/></g></svg>