<svg xmlns="http://www.w3.org/2000/svg" width="252" height="175"  xmlns:v="https://vecta.io/nano"><g transform="matrix(-.069756 .997564 -.997564 -.069756 251.379445 17.397579)" stroke="#1a1a1a" fill="none" opacity=".88"><g opacity=".88" stroke-width=".85"><path d="M35.51 130.474c-3.238-.183-9.3.9-14.2 3-18.3 8-27.2 20.2-12.9 40 4.3 6 10.5 10.9 16.6 15.3 25.7 18.8 55.3 29.9 84.1 42.4 8 3.4 16.4 6.2 24.9 8.1 4.6 1 9.9.2 14.5-1 6.1-1.7 8.5-6.7 5.3-12.2-3.7-6.5-8-12.9-13.2-18.1-6.9-7.1-15.2-12.8-22.5-19.6l-44.4-41.9c-10.2-9.1-22.3-15.1-38.2-16z"/><path d="M43.41 145.774c6.187-.433 11 3.7 16.7 7.1 15.9 9.6 26.3 24.2 34.6 40.4 2.6 5-1.8 10.6-7.9 9.4-20.3-4.1-39.6-11-55.4-25.2-1.7-1.6-3.1-3.5-4.5-5.4-3.7-5.3-5.9-11.2-2.7-17.3 3.4-6.4 9.9-8.2 19.2-9z"/></g><path d="M51.61 53.852c-6.92 2.39-16.488-3.023-21.15-5.955-14.197-8.93-16.12-11.252-25.69-21.358-2.965-3.132-1.995-8.65-.183-11.135 1.235-1.694 5.23-5.284 10.342-5.64C31.284 8.62 35.4 9.447 50.53 20c1.644 1.203 3.124 2.74 4.604 4.28 3.972 4.326 6.93 9.48 5.81 15.77-1.206 6.61-2.414 11.413-9.335 13.802z" opacity=".88" stroke-width=".85"/></g></svg>