<svg xmlns="http://www.w3.org/2000/svg" viewBox="0 0 1196 1079"><path d="M651.59,429.22a.45.45,0,0,1-.7-.5c3.5-9.24,25.73-62.82,69.85-59.45,54,4.13,33.78,70.69-10.52,52.32C678.35,408.38,666.14,418.78,651.59,429.22Z" style="fill:#6f8ebf"/><path d="M476.86,772.57a2,2,0,0,1-1.89,2.25c-6.35.18-12.81.29-19.32.29-125.94,0-282.62-35.17-368.16-190.73C10.71,444.79,27.64,280.88,9.34,99.56a2,2,0,0,1,2.6-2.13C142.39,140.56,311,239.66,412.58,384.67,491.11,496.76,457.72,631.6,476.86,772.57Z" style="fill:#7ea84e"/><path d="M456.78,488.6h0a229.74,229.74,0,0,1-179.3-80.75,246.07,246.07,0,0,1-31-45.76c-.63-1.2-6.17-11.84-10.43-22.62-9.41-23.82-19.47-92.91-7.92-101.1,4.42-3.13,51,1.83,86.89,35.42a.49.49,0,0,0,.79-.58,195.08,195.08,0,0,1-23.63-66.62c-3-19.08-2.44-74.69,11.46-82.84,5.35-4.13,30.84-2.32,42.91,2.07,24.55,8.92,39.38,26.79,46.22,36.54a.48.48,0,0,0,.86-.4c-3.17-15.77-5.21-44.06,3.94-75.93C409.9,43.2,467.65,8.68,503.8,2.23c13.81-2.46,58.58,78.65,49.68,129.35-5.59,31.81-17.28,53.08-21.62,60.15a.5.5,0,0,0,.72.67c8.3-6.44,26-13.42,43.17-14.83,19.51-1.61,48.83,7.5,54.89,13.91a.54.54,0,0,1,.09.12c5.52,10.1-6.05,52.18-18.75,74.44a193.82,193.82,0,0,1-49,56.61.48.48,0,0,0,.33.86,116.59,116.59,0,0,1,53.07,9.81c13.44,6,30.45,17.59,35.23,23.75a.54.54,0,0,1,.07.13c2.83,6.3-15.48,36.85-29.77,55.91C560,495.84,456.86,488.61,456.78,488.6Z" style="fill:#efc02b"/><ellipse cx="505.73" cy="589.63" rx="201.79" ry="186.9" style="fill:#e35244"/><path d="M299.36,444.7a1,1,0,0,0,.48-1.81c-21-9.41-87.51-43.4-45.65-80.47,33.54-29.7,61.88,31.88,71.38,56.19a1,1,0,0,0,1.83-.47c-3.63-25.92-6.59-92,37-83.41,46.94,9.29,12.52,68.52-.67,89.77a1,1,0,0,0,1.46,1.19c18.27-17.45,72.21-56.46,83-.34,5.81,30.34-51,38.74-71.55,37.89a.94.94,0,0,0-.37,1.83c20,7.47,76.6,33.67,45.06,67.78-31,33.57-62.07-17.62-71.55-36.38a1,1,0,0,0-1.79.58c3.57,21.59,2.49,85.4-42.4,71.25-40.5-12.76-11.87-61.9,2.55-80.27a1,1,0,0,0-1.31-1.35c-18,13.32-63.8,44.07-77.37,6.5C213.31,448.69,278.37,442.74,299.36,444.7Z" style="fill:#fff"/><circle cx="337.61" cy="457.23" r="10.89" style="fill:#6f8ebf"/><path d="M342,475.82a19.1,19.1,0,1,1,14.22-14.23A19.13,19.13,0,0,1,342,475.82Zm-4.38-21.3a2.71,2.71,0,1,0,2.71,2.71A2.71,2.71,0,0,0,337.61,454.52Z" style="fill:#6f8ebf"/><path d="M79.28,395.63a26.65,26.65,0,0,1-24.09-19.86h0l9.66-2.52h0A16.62,16.62,0,1,0,97,364.88h0l9.66-2.51h0a26.64,26.64,0,0,1-27.39,33.26Z" style="fill:#09302b"/><path d="M133.37,492.5c-23-1.4-41.34-11.29-46.12-22.66h0l9.2-3.87h0c4,9.64,29.22,20.65,57.94,15.28,28.46-5.33,50.89-27.07,51.93-42.95h0l10,.65h0c-1.44,22-29.5,46.39-60,52.11A93.57,93.57,0,0,1,133.37,492.5Z" style="fill:#09302b"/><path d="M168.71,371.42a26.62,26.62,0,0,1-24.08-19.86h0l9.65-2.51h0a16.62,16.62,0,1,0,32.16-8.38h0l9.65-2.51h0a26.63,26.63,0,0,1-27.38,33.26Z" style="fill:#09302b"/><path d="M492.88,590.24a26.54,26.54,0,0,1-25.9-21h0l9.72-2.08h0a16.55,16.55,0,1,0,32.37-6.93h0l9.71-2.08h0a26.52,26.52,0,0,1-20.35,31.45A27.06,27.06,0,0,1,492.88,590.24Z" style="fill:#09302b"/><path d="M550.56,684c-27.21,1.21-50.16-9.75-55.59-22.62h0l9.16-3.86h0c4,9.6,29.13,20.57,57.72,15.19,28.34-5.32,50.68-27,51.7-42.81h0l9.92.65h0c-1.43,22-29.36,46.22-59.79,51.94A94.25,94.25,0,0,1,550.56,684Z" style="fill:#09302b"/><path d="M587.14,568.87a26.49,26.49,0,0,1-25.84-21h0l9.72-2.08h0a16.55,16.55,0,0,0,32.37-6.92h0l9.71-2.08h0a26.55,26.55,0,0,1-26,32Z" style="fill:#09302b"/><path d="M438.85,226.82l-9.54-2.13h0a16.28,16.28,0,0,0-31.77-7.13h0L388,215.43h0a26.06,26.06,0,0,1,50.86,11.39Z" style="fill:#09302b"/><path d="M444,335a82.5,82.5,0,0,1-16.3-3c-31.39-9.16-52-33.23-50.9-49.1h0l9.76.69h0c-.73,10.23,16.41,31,43.88,39,27.24,7.92,56.46-1.13,64.4-14.55h0l8.42,5h0C494.25,328.29,468.93,337,444,335Z" style="fill:#09302b"/><path d="M525.71,245.2l-9.54-2.13h0a16.28,16.28,0,1,0-31.77-7.13h0l-9.54-2.13h0a26.06,26.06,0,1,1,50.85,11.39Z" style="fill:#09302b"/><path d="M195.72,1054.65l-24.61-4.58,15.35-82.21q3.09-16.5,11.78-28.2a48.26,48.26,0,0,1,21.93-16.72q13.23-5.07,30.3-1.88a64.73,64.73,0,0,1,12.61,3.67,50.9,50.9,0,0,1,10.77,5.9L269.31,955a38.72,38.72,0,0,0-9.94-6.49A48,48,0,0,0,248.31,945q-14.25-2.65-24.37,5t-13,23.31Z" style="fill:#09302b"/><path d="M348.71,1075.42q-20.74-.89-37-11.51a75.32,75.32,0,0,1-25.31-27.54,73,73,0,0,1,3.05-73,73.31,73.31,0,0,1,65.32-33.12q21,.88,37.24,11.25a73,73,0,0,1,22.13,100.28,73.49,73.49,0,0,1-27.55,25.32A72.07,72.07,0,0,1,348.71,1075.42Zm1-23.58a47,47,0,0,0,25.14-5.63,49.6,49.6,0,0,0,18.08-17,48.78,48.78,0,0,0,7.43-24.45A48.27,48.27,0,0,0,395,980a49.5,49.5,0,0,0-16.59-18.48,49.36,49.36,0,0,0-49.59-2.08,49,49,0,0,0-18.23,17,50.53,50.53,0,0,0-2,49.17,48.75,48.75,0,0,0,16.7,18.49A47.2,47.2,0,0,0,349.71,1051.84Z" style="fill:#09302b"/><path d="M517.33,1070.43a28.88,28.88,0,0,1-12.79-.4,26.59,26.59,0,0,1-11.13-6.22,33.16,33.16,0,0,1-8.2-12.38L436.87,940.57l23.22-4.25L505.94,1043a11.43,11.43,0,0,0,2.91,4.1,4.91,4.91,0,0,0,4,.7,5.08,5.08,0,0,0,3.39-2.06,8.05,8.05,0,0,0,1.24-4.28l6.13-96q.92-12.32,6.57-19.41c3.75-4.75,9.1-7.74,16-9s12.94-.39,18.11,2.6,9.42,8.27,12.73,15.75l39.51,87.92a11.59,11.59,0,0,0,3,3.62,4.71,4.71,0,0,0,3.93.88,4.61,4.61,0,0,0,3.48-2.23,12.32,12.32,0,0,0,1.25-5l4.52-115.92,22.66-4.16-5.1,120.64a34,34,0,0,1-3.12,14.46,25.35,25.35,0,0,1-8.06,9.72,28.16,28.16,0,0,1-11.54,4.87q-10.35,1.88-18-2.77t-12.89-15.87L557,942.87a9.33,9.33,0,0,0-3.1-3.5,5.58,5.58,0,0,0-4-.7,5.11,5.11,0,0,0-3.38,2.06,10.15,10.15,0,0,0-1.47,4.62l-6,96.82c-.43,8.16-2.49,14.62-6.15,19.33S524,1069.19,517.33,1070.43Z" style="fill:#09302b"/><path d="M772.23,789.35l9.64,22.19L649.6,869,640,846.84Zm-78,33.9,23.46-10.2,76,174.79L770.2,998Z" style="fill:#09302b"/><path d="M870.9,948.83,849.07,961.1l-41-72.88c-5.5-9.75-8.5-19.47-9.07-29.17a48.31,48.31,0,0,1,6.08-26.91q6.92-12.36,22-20.86a63.17,63.17,0,0,1,12-5.31,51.12,51.12,0,0,1,12.05-2.38l12.13,21.58a38.13,38.13,0,0,0-11.78,1.4A48.33,48.33,0,0,0,840.82,831q-12.65,7.14-15.49,19.48t5,26.26Z" style="fill:#09302b"/><path d="M864.63,754.36a16.32,16.32,0,0,1-8.06,2.89,15.66,15.66,0,0,1-8.51-1.47,18.7,18.7,0,0,1-10-14.2,14.85,14.85,0,0,1,1.57-8.41,17.61,17.61,0,0,1,5.51-6.49,16.9,16.9,0,0,1,8.2-3.16,15.34,15.34,0,0,1,8.22,1.53,18.75,18.75,0,0,1,10,14.18,16.32,16.32,0,0,1-1.26,8.36A15.7,15.7,0,0,1,864.63,754.36Zm6.62,31.17,20.47-14.41,79.9,113.51L951.15,899Z" style="fill:#09302b"/><path d="M1074.34,802.36a74.7,74.7,0,0,1-33.2,20,71.5,71.5,0,0,1-37.21.58q-18.63-4.63-33.37-19.24l-94.78-93.89L893.39,692l79,78.27-3.14,15.3a53.92,53.92,0,0,1-15-26.88,64.5,64.5,0,0,1,17.42-59.62q14.61-14.76,32.89-19.66a69.17,69.17,0,0,1,36.62,0q18.3,4.95,33.06,19.56a70.55,70.55,0,0,1,19.06,32.47,74.36,74.36,0,0,1,.39,37.22Q1089.15,787.41,1074.34,802.36Zm-16.78-16.61a46.37,46.37,0,0,0,12.56-22.17,50.16,50.16,0,0,0-.43-25.05,49.48,49.48,0,0,0-35-34.63,50.48,50.48,0,0,0-25-.18,46.54,46.54,0,0,0-22.09,12.78A47.09,47.09,0,0,0,975,738.78a49.74,49.74,0,0,0,.33,25.15,49.59,49.59,0,0,0,34.94,34.63,49.84,49.84,0,0,0,25.15.07A46.88,46.88,0,0,0,1057.56,785.75Z" style="fill:#09302b"/><path d="M1185.4,652.16q-10.26,18-26.75,27.81a68.52,68.52,0,0,1-35.51,9.77q-19,0-37.52-10.5a77.16,77.16,0,0,1-27.36-25.53,67.21,67.21,0,0,1-10.81-34.26q-.77-18.59,9.51-36.62t25.61-26.69a62.45,62.45,0,0,1,33-8q17.67.52,34.74,10.24l9.39,5.33-58.27,102.65-7.37-10.07q12.8,8.6,26.5,9.48a46.91,46.91,0,0,0,25.64-5.38q11.92-6.32,19.37-19.43a52.82,52.82,0,0,0,7.13-24.09,41.62,41.62,0,0,0-6.63-24L1184.56,581q10.73,16.88,10.75,35.22T1185.4,652.16Zm-95.44.43,43-75.7a43.56,43.56,0,0,0-21.65-5.09,39.11,39.11,0,0,0-19.68,6.16,45.7,45.7,0,0,0-15,16.34,44.4,44.4,0,0,0-6.16,21.52,40.73,40.73,0,0,0,5.1,20.41A51,51,0,0,0,1090,652.59Z" style="fill:#09302b"/><path d="M148.59,985.7l-20.25,49.16-9.52-2.25c-1.3-.3-13.73-3.42-48.46-17.92l-.29-.12c-30.44-12.78-52.61-33-62.47-57.08-8.95-21.84-8-46,2.83-71.83,12-28.55,31.33-48.94,56-58.9,22.36-9.06,47.36-8.64,70.36,1.19,44.85,19.16,55.52,58.9,55.94,60.58l-11.09,2.85-11.09,2.91s0,0,0,0c-.52-1.88-9-30.78-42.76-45.21-17.36-7.46-36.09-7.78-52.76-1-18.85,7.65-33.88,23.73-43.44,46.54-8.4,20-9.33,38.26-2.77,54.27,7.54,18.39,25.34,34.23,50.14,44.63l.24.1c17.19,7.18,28.64,11.43,35.69,13.85l12.48-30.31c5.78-14.84,3.57-22.51,2.76-24.52-1.68-4.12-7.07-10.29-13.72-13.6s-13-5.19-18.61-5.4L107,911.6a75.43,75.43,0,0,1,19.64,6.84c10.9,5.44,20.59,15.42,24.68,25.43,2.61,6.37,5.72,20.23-2.64,41.63Z" style="fill:#09302b"/><path d="M1193.75,1078.68H1.51V1H1193.75ZM3.83,1076.37H1191.44V3.35H3.83Z" style="fill:#999;opacity:0"/><path d="M1454.19,1340.28H-350.94v-1602H1454.19ZM-348.5,1338H1451.76V-259.4H-348.5Z" style="fill:#e35244;opacity:0"/><line x1="613.69" y1="0.47" x2="611.66" y2="-259.4" style="fill:none;stroke:#e35244;stroke-miterlimit:10;stroke-width:0.25px;opacity:0"/><line x1="612.68" y1="1338.56" x2="610.65" y2="1078.68" style="fill:none;stroke:#e35244;stroke-miterlimit:10;stroke-width:0.25px;opacity:0.8"/><line x1="1191.44" y1="498.27" x2="1454.19" y2="498.27" style="fill:none;stroke:#e35244;stroke-miterlimit:10;stroke-width:0.25px;opacity:0"/><text transform="translate(-257.39 644.05)" style="opacity:0;font-size:167.7096710205078px;fill:#e35244;font-family:SourceSansPro-Light, Source Sans Pro;font-weight:300">a/4</text></svg>