<svg width="67px" height="18px" viewBox="0 0 67 18" version="1.1" xmlns="http://www.w3.org/2000/svg" xmlns:xlink="http://www.w3.org/1999/xlink">
    <g id="Final-with-comments" stroke="none" stroke-width="1" fill="none" fill-rule="evenodd">
        <g id="1.60" transform="translate(-119.000000, -31.000000)" fill="#222323" fill-rule="nonzero" stroke="#222322" stroke-width="0.3">
            <g id="Header">
                <g id="NOCT-Logo" transform="translate(120.000000, 32.000000)">
                    <path d="M1.992,16.272 L1.992,3.504 L11.328,16.272 L13.248,16.272 L13.248,0.264 L11.256,0.264 L11.256,12.768 L2.04,0.264 L-3.55271368e-14,0.264 L-3.55271368e-14,16.272 L1.992,16.272 Z M25.1768889,16.56 C29.9048889,16.56 33.1448889,13.008 33.1448889,8.28 C33.1448889,3.552 29.9048889,0 25.1768889,0 C20.4488889,0 17.2328889,3.552 17.2328889,8.28 C17.2328889,13.008 20.4488889,16.56 25.1768889,16.56 Z M25.1768889,14.784 C21.5768889,14.784 19.2968889,12 19.2968889,8.28 C19.2968889,4.536 21.5768889,1.776 25.1768889,1.776 C28.7528889,1.776 31.0808889,4.536 31.0808889,8.28 C31.0808889,12 28.7528889,14.784 25.1768889,14.784 Z M44.7137778,16.56 C47.5457778,16.56 49.4657778,15.216 50.8097778,13.368 L49.1297778,12.456 C48.2177778,13.8 46.5377778,14.784 44.7137778,14.784 C41.2097778,14.784 38.5457778,12.072 38.5457778,8.28 C38.5457778,4.44 41.2097778,1.776 44.7137778,1.776 C46.5377778,1.776 48.2177778,2.736 49.1297778,4.104 L50.7857778,3.168 C49.5137778,1.344 47.5457778,0 44.7137778,0 C40.1057778,0 36.4817778,3.36 36.4817778,8.28 C36.4817778,13.2 40.1057778,16.56 44.7137778,16.56 Z M60.1946667,16.272 L60.1946667,2.04 L65.2826667,2.04 L65.2826667,0.264 L53.1386667,0.264 L53.1386667,2.04 L58.2026667,2.04 L58.2026667,16.272 L60.1946667,16.272 Z" id="NOCT"></path>
                </g>
            </g>
        </g>
    </g>
</svg>