<svg width="140" height="52" viewBox="0 0 140 52" fill="none" xmlns="http://www.w3.org/2000/svg">
<g clip-path="url(#clip0_48_5224)">
<g clip-path="url(#clip1_48_5224)">
<path d="M47.5462 41.2197C44.4151 41.2197 40.9361 40.35 38.5877 37.0449C30.76 25.7381 43.3714 15.1272 52.6777 7.38641C53.4605 6.69061 54.1563 6.16876 54.9391 5.47296C57.2004 3.38555 59.2008 2.1679 61.0273 1.73303C63.4626 1.55908 65.2891 2.42883 66.6807 4.16833C69.29 7.47338 69.29 13.2137 68.3332 16.1709C67.9853 17.3016 67.6374 18.6062 67.3765 19.7369C64.9412 28.3474 62.5059 37.2189 53.0256 40.5239C51.2861 40.8718 49.4596 41.2197 47.5462 41.2197ZM61.4622 2.08093C61.2882 2.08093 61.1143 2.08093 60.9403 2.08093C59.2008 2.5158 57.2004 3.73345 55.026 5.73388C54.3302 6.34271 53.6344 6.95153 52.8517 7.64733C43.7193 15.3881 31.1949 25.9121 38.8487 36.871C42.5016 41.9155 49.1117 41.1327 52.6777 40.089C61.8971 36.871 64.3324 28.0865 66.7677 19.5629C67.1156 18.4322 67.4635 17.1276 67.7244 15.9969C68.5942 13.1268 68.6811 7.56036 66.1589 4.34228C65.0282 2.8637 63.4626 2.08093 61.4622 2.08093Z" fill="white"/>
<path d="M48.242 35.6534C46.1546 35.6534 44.0672 34.6967 42.5886 32.9572C41.1101 31.3047 40.5012 29.2173 41.0231 27.3908C42.2407 21.3026 48.0681 17.6496 52.7647 14.6924L53.2866 14.3445C53.3736 14.2576 53.4605 14.1706 53.5475 14.1706C54.2433 13.5618 54.9391 13.2139 55.8089 12.779C56.7656 12.2571 57.9832 12.1702 59.0269 12.5181C59.3748 12.605 59.7227 12.779 59.9837 12.9529C61.4622 13.8227 62.419 15.3013 62.419 16.9538C62.5059 21.3895 61.4622 25.9992 59.3748 29.3043C56.8526 33.2181 53.2866 35.4795 48.8509 35.6534C48.6769 35.6534 48.503 35.6534 48.242 35.6534ZM53.8084 14.4315C53.7215 14.5185 53.6345 14.6055 53.4605 14.6924L52.9387 15.0403C48.329 17.9105 42.5017 21.5635 41.371 27.4778C40.9361 29.2173 41.458 31.1307 42.8496 32.6963C44.4151 34.5228 46.6765 35.4795 48.8509 35.3055C55.461 34.8707 62.419 29.0433 62.0711 16.9538C62.0711 15.3882 61.2013 13.9966 59.8097 13.2139C59.4618 13.0399 59.1139 12.866 58.853 12.779C57.8963 12.4311 56.7656 12.5181 55.8958 13.0399C55.2 13.4748 54.5042 13.9097 53.8084 14.4315Z" fill="white"/>
<path d="M49.2857 31.7396C47.8072 31.7396 46.3286 31.3048 45.6328 30.609C43.8063 28.6085 44.2412 26.3472 46.9374 23.651C51.5471 19.0413 55.1131 16.9539 56.9395 17.8236C57.9832 18.4325 58.3312 19.998 57.8093 22.2594C57.0265 25.5644 55.2 28.5216 52.6778 30.7829C51.982 31.4787 50.6773 31.7396 49.2857 31.7396ZM55.9828 17.9976C54.1563 17.9976 51.0252 20.085 47.1983 23.9119C43.3714 27.6518 45.2849 29.7392 45.8937 30.348C47.0244 31.5657 50.9383 31.7396 52.5038 30.609C55.1131 28.4346 56.8526 25.5644 57.5484 22.3463C57.9833 20.2589 57.7223 18.6934 56.7656 18.2585C56.5917 18.0846 56.3307 17.9976 55.9828 17.9976Z" fill="white"/>
<path d="M69.9858 35.6534C69.9858 26.7819 76.5089 20.6937 84.7715 20.6937C89.2073 20.6067 93.2081 22.7811 95.7304 26.434L92.7733 28.0866C90.9468 25.4773 87.9896 23.9118 84.8585 23.9118C78.5963 23.9118 73.7257 28.6954 73.7257 35.5664C73.7257 42.4375 78.5093 47.2211 84.8585 47.2211C87.9896 47.2211 91.0338 45.6555 92.7733 43.0463L95.7304 44.6988C93.2951 48.3518 89.2073 50.5261 84.7715 50.4392C76.4219 50.5261 69.9858 44.4379 69.9858 35.6534Z" fill="white"/>
<path d="M21.0188 50.0043L4.2326 27.0429V50.0043H0.666626V21.2156H4.31958L20.9318 43.6551V21.2156H24.4978V50.0043H21.0188Z" fill="white"/>
<path d="M109.994 50.0043V24.4337H100.862V21.2156H122.693V24.4337H113.56V50.0913L109.994 50.0043Z" fill="white"/>
<path d="M34.326 35.6533C34.326 27.2167 40.1533 20.6936 48.5899 20.6936C57.0265 20.6936 62.9408 27.1298 62.9408 35.6533C62.9408 44.1769 57.1135 50.613 48.5899 50.613C40.0663 50.613 34.326 44.0899 34.326 35.6533ZM59.2009 35.6533C59.2009 28.9562 55.0261 23.9987 48.5899 23.9987C42.1537 23.9987 38.0659 28.9562 38.0659 35.6533C38.0659 42.3504 42.2407 47.308 48.6769 47.308C55.113 47.308 59.2878 42.2634 59.2009 35.6533Z" fill="white"/>
<path d="M131.825 20.0848C128.346 20.0848 125.476 17.2147 125.476 13.7357C125.476 10.2567 128.346 7.38647 131.825 7.38647C135.304 7.38647 138.174 10.2567 138.174 13.7357C138.174 17.2147 135.304 20.0848 131.825 20.0848ZM131.825 8.6911C129.042 8.6911 126.78 10.9525 126.78 13.7357C126.78 16.5189 129.042 18.7802 131.825 18.7802C134.608 18.7802 136.87 16.5189 136.87 13.7357C136.87 10.9525 134.608 8.6911 131.825 8.6911Z" fill="white"/>
<path d="M131.477 13.2139C131.825 13.2139 132.086 13.127 132.26 13.04C132.434 12.953 132.521 12.6921 132.521 12.3442C132.521 12.0833 132.434 11.8223 132.26 11.7354C132.086 11.6484 131.825 11.5614 131.477 11.5614H130.781V13.3009H131.477M130.694 14.4316V16.9539H128.955V10.3438H131.564C132.434 10.3438 133.043 10.5177 133.478 10.7786C133.912 11.0396 134.086 11.5614 134.086 12.1702C134.086 12.6051 133.999 12.953 133.738 13.2139C133.565 13.4749 133.217 13.7358 132.782 13.8228C133.043 13.9097 133.217 13.9967 133.391 14.1707C133.565 14.3446 133.738 14.6055 133.912 15.0404L134.869 16.9539H133.043L132.26 15.3013C132.086 14.9534 131.912 14.7795 131.738 14.6055C131.564 14.5186 131.303 14.4316 131.042 14.4316H130.694Z" fill="white"/>
</g>
</g>
<defs>
<clipPath id="clip0_48_5224">
<rect width="138.667" height="52" fill="white" transform="translate(0.666687)"/>
</clipPath>
<clipPath id="clip1_48_5224">
<rect width="137.508" height="48.88" fill="white" transform="translate(0.666626 1.7334)"/>
</clipPath>
</defs>
</svg>
