<svg width="1440" height="900" viewBox="0 0 1440 900" fill="none" xmlns="http://www.w3.org/2000/svg">
<g clip-path="url(#clip0)">
<rect width="1440" height="900" fill="white"/>
<path d="M252 866.5C188 866.5 186.5 833 126.5 836.5C66.5 840 62.5 861 31.5 871C0.5 881 -1.5 896.5 -1.5 896.5V906H1441.5C1441.5 906 1400 839.5 1382.5 825C1365 810.5 1296.5 775.5 1203 775C1109.5 774.5 1046.5 840 952.5 821.5C858.5 803 840 728.5 758 732C676 735.5 616 791.5 534 796.5C452 801.5 421 739 363.5 775C306 811 316 866.5 252 866.5Z" fill="#1A1A1A"/>
</g>
<defs>
<clipPath id="clip0">
<rect width="1440" height="900" fill="white"/>
</clipPath>
</defs>
</svg>
