<svg width="1440" height="900" viewBox="0 0 1440 900" fill="none" xmlns="http://www.w3.org/2000/svg">
<g clip-path="url(#clip0)">
<rect width="1440" height="900" fill="white"/>
<path d="M233.338 779.414C166.854 779.414 165.296 672.057 102.967 683.274C40.6389 694.49 36.4837 761.789 4.28066 793.836C-27.9224 825.883 -30 875.555 -30 875.555V906H1469C1469 906 1425.89 692.887 1407.71 646.419C1389.53 599.951 1318.37 487.787 1221.24 486.184C1124.12 484.582 1058.67 694.49 961.023 635.203C863.375 575.916 844.157 337.166 758.975 348.382C673.792 359.599 611.464 539.062 526.282 555.086C441.099 571.109 408.896 370.815 349.165 486.184C289.433 601.554 299.822 779.414 233.338 779.414Z" fill="#1A1A1A"/>
</g>
<defs>
<clipPath id="clip0">
<rect width="1440" height="900" fill="white"/>
</clipPath>
</defs>
</svg>
