<svg width="1440" height="900" viewBox="0 0 1440 900" fill="none" xmlns="http://www.w3.org/2000/svg">
<g clip-path="url(#clip0)">
<path d="M-103 49C-169.484 49 1.82848 543.869 -60.5 555.085C-122.828 566.302 -82.297 728.453 -114.5 760.5C-146.703 792.547 -30 875.556 -30 875.556V906.001H1469C1469 906.001 1487.18 578.968 1469 532.5C1450.82 486.031 1599.63 119.602 1502.5 118C1405.37 116.398 1498.65 -79.7131 1401 -139C1303.35 -198.287 1094.68 -40.7165 1009.5 -29.5C924.318 -18.2836 876.182 -203.023 791 -187C705.818 -170.977 146.731 -277.369 87 -162C27.2685 -46.6308 -36.5163 49 -103 49Z" fill="#1A1A1A"/>
</g>
<defs>
<clipPath id="clip0">
<rect width="1440" height="900" fill="white"/>
</clipPath>
</defs>
</svg>
