<svg width="1440" height="900" viewBox="0 0 1440 900" fill="none" xmlns="http://www.w3.org/2000/svg">
<g clip-path="url(#clip0)">
<rect width="1440" height="900" fill="white"/>
<path d="M54.5 373.5C-11.9837 373.5 1.82848 543.869 -60.5 555.085C-122.828 566.302 -82.297 728.453 -114.5 760.5C-146.703 792.547 -30 875.555 -30 875.555V906H1469C1469 906 1487.18 578.968 1469 532.5C1450.82 486.032 1454.13 246.602 1357 245C1259.87 243.398 1345.15 152.787 1247.5 93.5C1149.85 34.2131 1094.68 -40.7164 1009.5 -29.5C924.318 -18.2836 844.157 98.4765 758.975 114.5C673.792 130.523 403.731 71.6309 344 187C284.269 302.369 120.984 373.5 54.5 373.5Z" fill="#1A1A1A"/>
</g>
<defs>
<clipPath id="clip0">
<rect width="1440" height="900" fill="white"/>
</clipPath>
</defs>
</svg>
