<?xml version="1.0" encoding="utf-8"?>
<!-- Generator: Adobe Illustrator 24.1.3, SVG Export Plug-In . SVG Version: 6.00 Build 0)  -->
<svg version="1.1" xmlns="http://www.w3.org/2000/svg" xmlns:xlink="http://www.w3.org/1999/xlink" x="0px" y="0px"
	 viewBox="0 0 2250 1421.05" style="enable-background:new 0 0 2250 1421.05;" xml:space="preserve">
<style type="text/css">
	.st0{fill:#222323;}
	.st1{fill:#F4F4F4;}
	.st2{fill:none;stroke:#F4F4F4;stroke-width:2;stroke-linecap:round;stroke-linejoin:round;stroke-miterlimit:10;}
	.st3{fill:#222323;stroke:#F4F4F5;stroke-width:2;stroke-linecap:round;stroke-linejoin:round;stroke-miterlimit:10;}
	.st4{fill:none;stroke:#222323;stroke-width:2;stroke-linecap:round;stroke-linejoin:round;stroke-miterlimit:10;}
	.st5{fill:#F4F4F5;stroke:#222323;stroke-miterlimit:10;}
	.st6{fill:#FFFFFF;}
	.st7{opacity:0;clip-path:url(#SVGID_2_);}
	.st8{opacity:0;}
	.st9{clip-path:url(#SVGID_4_);}
	.st10{clip-path:url(#SVGID_2_);}
	.st11{clip-path:url(#SVGID_8_);}
	.st12{clip-path:url(#SVGID_12_);fill:#B1A9D3;}
	.st13{clip-path:url(#SVGID_14_);fill:#9DD3D9;}
	.st14{clip-path:url(#SVGID_16_);fill:#BEDCCE;}
	.st15{clip-path:url(#SVGID_18_);fill:#EAD4C8;}
	.st16{clip-path:url(#SVGID_20_);fill:#BDC3D2;}
	.st17{clip-path:url(#SVGID_22_);fill:#D1A5CB;}
	.st18{clip-path:url(#SVGID_24_);fill:#EEC5C4;}
	.st19{clip-path:url(#SVGID_26_);}
	.st20{fill:#333333;}
	.st21{clip-path:url(#SVGID_28_);fill:#222323;}
	.st22{clip-path:url(#SVGID_30_);fill:#404040;}
	.st23{clip-path:url(#SVGID_32_);fill:#FDFEFF;}
	.st24{clip-path:url(#SVGID_34_);fill:none;stroke:#F3F3F3;stroke-width:2;stroke-miterlimit:10;}
	.st25{clip-path:url(#SVGID_36_);}
	.st26{fill:#1A1A1A;}
	.st27{fill:none;stroke:#F4F4F5;stroke-width:2;stroke-linecap:round;stroke-linejoin:round;stroke-miterlimit:10;}
	.st28{fill:#222323;stroke:#F4F4F4;stroke-width:2;stroke-miterlimit:10;}
	.st29{fill:#F4F4F5;}
	.st30{fill:none;stroke:#F4F4F4;stroke-width:2;stroke-miterlimit:10;}
	.st31{fill:none;stroke:url(#SVGID_37_);stroke-width:2;stroke-linecap:round;stroke-linejoin:round;stroke-miterlimit:10;}
	.st32{fill:none;stroke:url(#SVGID_38_);stroke-width:2;stroke-linecap:round;stroke-linejoin:round;stroke-miterlimit:10;}
	.st33{fill:none;stroke:#222323;stroke-width:2;stroke-miterlimit:10;}
	.st34{clip-path:url(#SVGID_40_);}
	.st35{fill:none;stroke:url(#SVGID_41_);stroke-width:2;stroke-linecap:round;stroke-linejoin:round;stroke-miterlimit:10;}
	.st36{fill:none;stroke:url(#SVGID_42_);stroke-width:2;stroke-linecap:round;stroke-linejoin:round;stroke-miterlimit:10;}
	.st37{fill:#E2E2E2;}
	.st38{fill:#F4F4F4;stroke:#222323;stroke-width:2;stroke-miterlimit:10;}
	.st39{fill:none;stroke:#222323;stroke-linecap:round;stroke-linejoin:round;stroke-miterlimit:10;}
	.st40{fill:none;stroke:#F4F4F4;stroke-linecap:round;stroke-linejoin:round;stroke-miterlimit:10;}
	.st41{fill:none;stroke:url(#SVGID_43_);stroke-width:2;stroke-linecap:round;stroke-linejoin:round;stroke-miterlimit:10;}
	.st42{fill:none;stroke:url(#SVGID_44_);stroke-width:2;stroke-linecap:round;stroke-linejoin:round;stroke-miterlimit:10;}
	.st43{fill:#F4F4F5;stroke:#222323;stroke-width:2;stroke-linecap:round;stroke-linejoin:round;stroke-miterlimit:10;}
	.st44{fill:none;stroke:#FFFFFF;stroke-width:2;stroke-linecap:round;stroke-linejoin:round;stroke-miterlimit:10;}
	.st45{clip-path:url(#SVGID_46_);}
	.st46{fill:none;stroke:url(#SVGID_47_);stroke-width:2;stroke-linecap:round;stroke-linejoin:round;stroke-miterlimit:10;}
	.st47{fill:none;stroke:url(#SVGID_48_);stroke-width:2;stroke-linecap:round;stroke-linejoin:round;stroke-miterlimit:10;}
</style>
<g id="BG">
	<rect x="-29.18" y="-27.75" class="st1" width="2297.75" height="1465.33"/>
</g>
<g id="Layer_2">
	<path class="st37" d="M506.44,880.25c0,0-27.51,123.64-35.88,131.25s-8.37,7.61-8.37,7.61l17.51-148.45
		C479.69,870.66,473.7,877.2,506.44,880.25z"/>
	<path class="st37" d="M629.84,387.17l-10.85-3.75c0,0-4.04,9.8-13.84,14.42s-17.88,7.5-17.88,7.5s20.76-2.88,34.02,16.15
		c13.26,19.03,47.84,70.18,43.83,58.24C663.55,475.06,645.41,394.09,629.84,387.17z"/>
	<path class="st37" d="M579.48,563.77c1.7,4.13-0.1,12.08-0.03,16.72c0.1,6.3,0.4,12.61,1.15,18.87
		c2.34,19.61,10.65,40.06,21.95,56.22c8.96,12.81,24.77,27.33,41.52,26.97c6.8-0.15,13.65-1.55,20.3-2.87
		c1.57-0.31,15.86-2.24,16.21-3.65c0,0,3.8-15.2,3.8-15.2c-1.18,4.7-24.22,0.73-27.91,0.03c-15.18-2.89-31.79-9.92-42.41-21.4
		c-8.3-8.97-12.94-20.63-17.41-32C590.92,592.88,585.2,578.33,579.48,563.77z"/>
	<g>
		<path class="st0" d="M454.05,1121.43c0,0,92.03-80.4,134.3-55.23c42.24,25.15,71.42,75.42,71.46,75.49
			c-1.24-2.15,2.74-8.97,3.4-11.32c1.46-5.22,2.07-10.71,1.85-16.12c-0.2-5.11,1.74-8.87,6.48-4.53
			c6.39,5.86,14.92,18.65,14.92,18.65s13.32-3.2,19.18-1.6c5.86,1.6,8.53,3.73,8.53,3.73l19.77-21.48c0,0,5.26-4.15,5.54,5.26
			c0.28,9.41,27.41,93.86-24.37,107.71c-51.78,13.84-45.69,122.18-45.69,122.18s-7.2,8.31-13.01,2.77L636.22,1257
			c0,0-37.93-15.29-37.93-15.29c-5.71-8.49-12.68-17.16-20.86-23.36c-22.85-17.29-43.09,14.21-51.35,32.25
			c-10.1,22.08-18.55,47.25-17.3,71.82c0.59,11.51,10.05,46.88-9,48.92c-15.85,1.7-15.85-100.77-21.51-123.98
			c-5.66-23.21-14.15-80.39-27.74-92.28C450.53,1155.1,431.56,1133.26,454.05,1121.43z"/>
		<path class="st38" d="M557.05,874.54c10.94,43.35,21.28,97.03,31.01,140.67c2.22,9.94,4.41,19.98,4.34,30.17
			c-0.06,8.68-1.76,17.25-2.97,25.84c-8.94,63.25,8.44,126.88,14.2,190.5c1.25,13.76,1.93,27.8-1.18,41.26
			c-2.24,9.68-6.42,19.01-6.84,28.93s4.45,21.16,14.05,23.69c9.17,2.41,14.19-4.97,23.43-7.12c13.66-3.18,31.52,3.86,44.89,8.08
			c9.77,3.09,20.99,5.06,30.5,2.38c5.37-1.52,16.66-4.9,12.55-8.67c-12.96-11.88-39.72-22.87-51.7-35.95
			c-12.07-13.17-17.86-30.88-21.48-48.37c-8.92-43.08-6.62-87.61-3.5-131.49c5.85-82.38,25.68-167.88,25.81-255.99"/>
		<path class="st4" d="M525.08,1242.92c1.56,35.66,3.42,71.3,5.59,106.92c0.41,6.82,1.77,15.01,8.09,17.6
			c5.54-4.33,6.52-12.19,7.02-19.21c3.21-45.71,3.92-91.6,2.13-137.39"/>
		<path class="st4" d="M690.8,1229.73c-3.12,31.52-5.06,66.55-4.37,98.21"/>
		<path class="st39" d="M738.84,1183.83c12.37-5.34,25.32-9.32,38.54-11.86"/>
		<path class="st39" d="M739.54,1190.14c7.02-1.36,14.16-2.07,21.3-2.13"/>
		<path class="st39" d="M738.97,1196.08c8.72-0.37,17.53,1.81,25.07,6.22"/>
		<path class="st2" d="M549.72,1220.42c5.29-6.66,5.83-15.92,4.83-24.36c-1.11-9.4-4.51-19.52-12.75-24.16"/>
		<path class="st40" d="M697.86,1185.91c-8.79-4.07-28.53-8.84-38.22-8.85"/>
		<path class="st40" d="M696.44,1189.96c-7.73-0.83-25.16,2.04-32.63,4.18"/>
		<g>
			<path class="st1" d="M708.36,1186.76c1,1.83,2.1,3.64,3.63,5.06c0.93,0.87,2.34,1.58,3.44,0.93c0.47-0.27,0.78-0.74,1.05-1.21
				c1.02-1.72,1.77-3.6,2.23-5.55c0.08-0.36,0.15-0.75-0.01-1.08c-0.27-0.55-1-0.63-1.61-0.63c-2.69,0-5.39,0.24-8.04,0.74
				C709.06,1185.02,707.37,1184.94,708.36,1186.76z"/>
		</g>
		<g>
			<path class="st1" d="M701.91,1174.19c-6.72,2.26-14.45,1.3-20.41-2.54c-5.96-3.84-10.03-10.49-10.74-17.54
				c-0.04-0.39-0.06-0.82,0.15-1.15c0.23-0.36,0.67-0.5,1.09-0.61c4.89-1.24,10.04,0.13,14.77,1.86c4.34,1.58,8.65,3.51,12.09,6.6
				c3.44,3.08,5.93,7.49,5.79,12.11L701.91,1174.19z"/>
		</g>
		<g>
			<path class="st1" d="M723.03,1172.94c6.72,2.26,14.45,1.3,20.41-2.54c5.96-3.84,10.03-10.49,10.74-17.54
				c0.04-0.39,0.06-0.82-0.15-1.15c-0.23-0.36-0.67-0.5-1.09-0.61c-4.89-1.24-10.04,0.13-14.77,1.86c-4.34,1.58-8.65,3.51-12.09,6.6
				c-3.44,3.08-5.93,7.49-5.79,12.11L723.03,1172.94z"/>
		</g>
		<circle class="st0" cx="694.34" cy="1164.4" r="3.76"/>
		<circle class="st0" cx="741.16" cy="1158.97" r="3.76"/>
		<path class="st40" d="M714.29,1188.04c-1.24,8.28,3.62,17.1,11.29,20.47c4.17,1.83,9.04,2.11,13.33,0.56"/>
		<path class="st40" d="M714.35,1191.48c-0.2,4.34-0.67,8.77-2.51,12.71c-1.84,3.94-5.28,7.35-9.55,8.14
			c-2.05,0.38-4.16,0.15-6.21-0.25c-3.15-0.62-6.67-2.08-7.52-5.18"/>
		<path class="st37" d="M603.73,886.99c0,0,14.99,128.15,4.89,168.58c-10.11,40.43-14.03,130.03-14.03,130.03
			s-9.96-64.69-3.9-113.63c1.44-11.63,5.52-18.33,2.6-34.26c-9.32-50.96-24.83-120.48-24.83-120.48l-7.92-33.09
			c0,0,7.16,2.71,21.6,3.18C596.59,887.79,603.73,886.99,603.73,886.99z"/>
		<path class="st0" d="M538.01,999.64c0,0,50.32-9.62,102.86,20.72c14.51,8.38,32.46,15.2,49.37,10.72
			c7.18-1.91,23.09-8.97,22.9-18.02c-0.33-16.07-52.15-14.16-51.55-20.08c0,0,2.22-22.94,2.22-22.94s55.5,8.14,69.56,25.9
			c10.7,13.51,5.62,32.25-5.47,43.81c-15.2,15.84-40.66,20.31-61.66,18.36c-30.15-2.79-53.6-31.27-90.45-32.38
			c-36.85-1.12-51.93,5.58-51.93,5.58L538.01,999.64z"/>
	</g>
	<ellipse class="st0" cx="1646.5" cy="700.54" rx="251.3" ry="666.93"/>
	<linearGradient id="SVGID_2_" gradientUnits="userSpaceOnUse" x1="1412.5842" y1="250.2318" x2="1678.4414" y2="250.2318">
		<stop  offset="9.765625e-04" style="stop-color:#B1A9D3"/>
		<stop  offset="0.2029" style="stop-color:#9DD3D9"/>
		<stop  offset="0.3606" style="stop-color:#BEDCCE"/>
		<stop  offset="0.507" style="stop-color:#EAD4C8"/>
		<stop  offset="0.661" style="stop-color:#BDC3D2"/>
		<stop  offset="0.8236" style="stop-color:#D1A5CB"/>
		<stop  offset="0.9995" style="stop-color:#EEC5C5"/>
	</linearGradient>
	
		<path style="fill:none;stroke:url(#SVGID_2_);stroke-width:2;stroke-linecap:round;stroke-linejoin:round;stroke-miterlimit:10;" d="
		M1670.67,31.72c7.12,25.87,8.65,53.26,4.47,79.76c-1.73,10.95-4.64,22.19-11.87,30.59c-7.23,8.4-19.82,13.06-29.79,8.22
		c-8.68-4.21-13.97-14.57-23.43-16.46c-12.14-2.43-21.59,10.29-26.43,21.68c-11.54,27.13-16.63,56.49-21.9,85.5
		c-7.02,38.63-14.53,77.17-22.53,115.6c-4.75,22.82-9.74,45.81-19.48,66.99c-8.44,18.36-21.66,36.06-40.81,42.52
		c-13.97,4.71-29.62,2.76-43.11-3.18c-13.49-5.94-20.2-11.68-22.22-13.49"/>
	<linearGradient id="SVGID_4_" gradientUnits="userSpaceOnUse" x1="1410.2144" y1="273.6471" x2="1683.3196" y2="273.6471">
		<stop  offset="9.765625e-04" style="stop-color:#B1A9D3"/>
		<stop  offset="0.2029" style="stop-color:#9DD3D9"/>
		<stop  offset="0.3606" style="stop-color:#BEDCCE"/>
		<stop  offset="0.507" style="stop-color:#EAD4C8"/>
		<stop  offset="0.661" style="stop-color:#BDC3D2"/>
		<stop  offset="0.8236" style="stop-color:#D1A5CB"/>
		<stop  offset="0.9995" style="stop-color:#EEC5C5"/>
	</linearGradient>
	
		<path style="fill:none;stroke:url(#SVGID_4_);stroke-width:2;stroke-linecap:round;stroke-linejoin:round;stroke-miterlimit:10;" d="
		M1675.55,55.13c7.12,25.87,8.65,53.26,4.47,79.76c-1.73,10.95-4.64,22.19-11.87,30.59c-7.23,8.4-19.82,13.06-29.79,8.22
		c-8.68-4.21-13.97-14.57-23.43-16.46c-12.14-2.43-21.59,10.29-26.43,21.68c-11.54,27.13-16.63,56.49-21.9,85.5
		c-7.02,38.63-14.53,77.17-22.53,115.6c-4.75,22.82-9.74,45.81-19.48,66.99c-8.44,18.36-21.66,36.06-40.81,42.52
		c-13.97,4.71-29.62,2.76-43.11-3.18c-13.49-5.94-19.32-9.37-29.47-20.07"/>
	<path class="st0" d="M668.75,919.96c0,0,27.41-16.66,37.08-1.07c9.67,15.59-38.69,28.48-38.69,28.48"/>
	<path class="st33" d="M532.75,524.12c0,0-0.26,43.8,4.67,78.26s4.92,34.46,4.92,34.46l2.19,13.13c0,0,56.89,35.56,96.83,31.18
		s41.58-10.39,41.58-10.39l31.18-114.33C714.11,556.43,606.31,479.78,532.75,524.12z"/>
	<path class="st38" d="M644.6,552.14c11.89-6.67,23.51-14.57,37.67-9.26c8.48,3.18,15.2,10.19,23.89,12.76
		c21.86,6.46,38.63-14.39,49.92-29.69c5.19-7.03-3.73-18.67-7.26-25.35c-4.7-8.92-9.94-17.57-15.67-25.87
		c-6.18-8.95-13.25-17.22-20.64-25.19c-6.72-7.25-14.04-17.51-22.61-22.58c-0.61-0.36-1.34-0.7-2-0.44
		c-0.77,0.3-1.03,1.24-1.17,2.05c-2.11,12.32,1.26,25.07-0.74,37.41c-2.26,13.99-13.59,19.96-25.19,10.73
		c-9.4-7.47-15.94-17.9-21.95-28.3s-11.8-21.13-20.19-29.73c-16.83-17.26-38.48-16.82-57.97-4c-17.77,11.69-31.03,29.02-42.69,46.81
		c-8.37,12.76-16.1,25.93-23.55,39.24c-1.94,3.47-20.75,33-18.49,35.36c14.81,15.49,40.1-12.52,56.79-11.97
		c12.4,0.41,19.22,10.22,25.98,19.2c6.35,8.43,12.69,12.58,22.86,15.62c20.54,6.14,43.58,3.96,62.38-6.46
		C644.18,552.38,644.39,552.26,644.6,552.14z"/>
	<g>
		<path class="st1" d="M465.5,747.92c0,0,78.68,29.95,134.19,29.55c55.51-0.4,103.44-10.38,103.44-10.38l19.97,67.9
			c0,0,5.97,18.71,3.03,25.03c-2.94,6.33-10.08,11.25-13.46,13.61c-3.38,2.35-2.51,4.17-11.95,6.86c-8.82,2.51-8.23,2.94-8.23,2.94
			l-22.13,3.92c0,0-32,4.09-41.33,0.98s-14.35-4.78-17.1-7.91c-2.75-3.12,1.69,3.62-9.42,5.24c-11.11,1.62-35.46,0.53-40.77-1.81
			c-5.31-2.34-5.31-2.34-5.31-2.34l-5.15-3.59l-3.12-5.78l-1.09-5.78l-3.31,7.56c0,0-2.46,11.01-37.12,6.48
			s-32.81-14.19-32.81-14.19l0.03-8.29c0,0-5.78,5.62-7.49,5.62c-1.72,0-8.27,1.25-13.74-2.19c-5.46-3.43-5.46-3.43-5.46-3.43
			s-11.39-11.71-16.08-12.33c-4.68-0.62-4.68-0.62-4.68-0.62s-21.85-5.15-20.92-17.64s4.84-17.48,11.71-24.97
			c6.87-7.49,29.97-33.4,29.97-33.4L465.5,747.92z"/>
		<g>
			<g>
				<g>
					<path class="st0" d="M612.15,878.13c4.34,8.14,14.19,11.53,22.86,12.29c4.06,0.35,8.19,0.19,12.26,0.06
						c4.48-0.14,8.95-0.41,13.41-0.81c9.58-0.86,19.15-2.28,28.47-4.68c8.25-2.12,16.61-5.01,23.72-9.8
						c3.94-2.65,7.66-5.91,10.57-9.67c3.42-4.41,5.24-9.54,4.87-15.16c-0.39-5.97-2.36-11.84-3.94-17.58
						c-1.49-5.42-3.04-10.82-4.62-16.21c-6.72-22.97-13.95-45.79-20.26-68.88c-6.23-22.8-11.7-45.94-14.27-69.46
						c-0.3-2.73-0.55-5.47-0.77-8.2c-0.1-1.27-2.1-1.29-2,0c1.78,22.66,6.48,45.01,12.13,66.99c5.85,22.72,12.81,45.13,19.53,67.59
						c3.22,10.77,6.4,21.55,9.33,32.4c1.58,5.84,3.74,12.16,2.64,18.27c-0.93,5.22-4.22,9.55-7.99,13.12
						c-6.21,5.89-13.72,9.69-21.79,12.4c-8.88,2.98-18.15,4.78-27.42,5.98c-8.68,1.12-17.43,1.71-26.18,1.81
						c-8.63,0.09-18.05-0.65-24.9-6.56c-1.61-1.39-2.94-3.01-3.94-4.89C613.27,875.99,611.55,877,612.15,878.13L612.15,878.13z"/>
				</g>
			</g>
			<g>
				<g>
					<path class="st0" d="M543.57,649.71c-16.04,23.2-33.5,45.38-51.7,66.91c-18.13,21.46-36.98,42.31-55.9,63.08
						c-4.73,5.2-9.46,10.39-14.19,15.58c-4.51,4.96-9.38,9.8-12.94,15.52c-3.23,5.18-5.19,11.36-4.1,17.49
						c0.97,5.49,4.69,9.73,9.43,12.43c2.39,1.36,4.97,2.37,7.58,3.21c2.47,0.8,5.06,1.29,7.51,2.16c5.05,1.79,9.23,5.57,13.3,8.93
						c3.98,3.3,8.11,6.76,13.05,8.51c2.74,0.97,5.99,1.74,8.9,1.31c3.03-0.45,5.37-2.42,7.27-4.71c3.53-4.25,6.57-8.97,9.53-13.63
						c3.27-5.15,6.36-10.4,9.38-15.7c6.11-10.73,11.86-21.66,17.81-32.48c1.27-2.31,2.55-4.62,3.86-6.91
						c0.64-1.12-1.09-2.13-1.73-1.01c-11.59,20.4-21.75,41.72-35.01,61.13c-1.52,2.23-3.07,4.45-4.75,6.57
						c-1.94,2.45-4.23,4.72-7.53,4.85c-5.59,0.24-10.88-2.76-15.19-6c-4.22-3.18-8.05-6.87-12.48-9.79
						c-2.02-1.33-4.18-2.49-6.5-3.22c-2.51-0.79-5.09-1.34-7.59-2.18c-4.93-1.66-10.05-4.14-12.91-8.7
						c-3.37-5.39-2.6-12.33,0.02-17.85c2.78-5.87,7.34-10.63,11.66-15.39c4.62-5.09,9.25-10.17,13.88-15.25
						c18.4-20.21,36.78-40.45,54.53-61.23c17.7-20.72,34.77-41.99,50.6-64.19c2-2.8,3.97-5.62,5.93-8.44
						C546.03,649.66,544.29,648.66,543.57,649.71L543.57,649.71z"/>
				</g>
			</g>
			<g>
				<g>
					<path class="st0" d="M473.56,855.07c-1.21,3.87-2.11,8.88-0.16,12.65c2.08,4.02,6.77,6.03,10.71,7.72
						c9.79,4.22,20.33,6.59,30.99,7c5.29,0.21,10.59-0.09,15.82-0.84c2.58-0.37,5.19-0.82,7.71-1.5c2.38-0.64,4.14-1.86,5.28-4.08
						c1.24-2.41,2.15-5.03,3.16-7.55c1.06-2.65,2.08-5.31,3.08-7.98c2.02-5.41,3.92-10.88,5.68-16.38
						c4-12.44,7.33-25.08,10.01-37.87c0.26-1.26-1.66-1.79-1.93-0.53c-4.45,21.23-10.72,42.08-18.77,62.22
						c-0.96,2.41-1.82,4.95-3.05,7.24c-1.3,2.43-3.57,2.93-6.08,3.47c-5,1.08-10.09,1.68-15.2,1.82c-10.1,0.28-20.21-1.25-29.78-4.5
						c-2.69-0.92-5.34-1.97-7.92-3.16c-2.18-1.01-4.43-2.1-6.19-3.77c-3.69-3.51-2.82-9.03-1.44-13.44
						C475.87,854.37,473.94,853.84,473.56,855.07L473.56,855.07z"/>
				</g>
			</g>
			<g>
				<g>
					<path class="st0" d="M547.31,862.27c-1.13,4.07-1.17,8.36,0.72,12.22c1.96,4,5.75,7,9.71,8.88c8.83,4.19,19.05,3.43,28.57,4.07
						c4.55,0.31,9.15,0.58,13.69,0.01c4.02-0.5,8.19-1.71,11.02-4.79c3.42-3.72,4.31-8.77,5-13.6c0.86-6.01,1.35-12.07,1.62-18.14
						c0.61-13.83,0.18-27.69,1.01-41.52c0.08-1.29-1.92-1.28-2,0c-0.69,11.46-0.51,22.94-0.78,34.41
						c-0.13,5.72-0.38,11.45-0.9,17.15c-0.28,3.02-0.64,6.04-1.1,9.04c-0.35,2.28-0.75,4.56-1.58,6.73
						c-1.6,4.15-4.63,6.87-8.89,8.04c-4.02,1.11-8.29,1.1-12.42,0.93c-3.95-0.16-7.88-0.56-11.83-0.67
						c-4.95-0.13-9.95-0.3-14.79-1.47c-4.99-1.21-10.08-3.64-13.23-7.86c-2.84-3.81-3.11-8.44-1.88-12.91
						C549.58,861.56,547.65,861.03,547.31,862.27L547.31,862.27z"/>
				</g>
			</g>
		</g>
	</g>
	<g>
		<path class="st29" d="M921.97,595.24c8.93-3.3,31.43-13.76,39.28-19.14c5.97-4.1,11.25-9.54,14.39-15.99
			c1.19-2.44-1.25-5.06-3.8-4.13c-43.46,15.94-88.14,28.72-133.68,37.17c-46.27,8.59-92.84,11.63-139.84,11.57
			c-12.69-0.01-25.57-1.15-35.43-10.12c-3.42-3.11-6.05-6.99-8.42-10.97c-17.57-29.54-21.49-65.25-36.06-96.38
			c-3.07-6.56-6.71-13.03-12.06-17.92c-5.35-4.88-12.69-8.02-19.85-6.9c-9.46,1.49-16.55,10.11-19.03,19.35s-1.21,19.05,0.41,28.48
			c4.91,28.71,12.26,56.99,23.17,84.03c3.24,8.04,6.62,16.03,10.17,23.94c3.28,7.29,6.25,14.83,11.71,20.81
			c6.66,7.3,15.21,12.84,24.41,16.36c16.93,6.47,35.54,6.81,53.64,5.95c70.48-3.33,139.2-23.39,204.99-48.88"/>
		<g>
			<path class="st0" d="M922.24,596.2c11.03-4.11,21.84-9.31,32.19-14.91c5.32-2.88,10.37-6.08,14.65-10.41
				c2.6-2.63,4.9-5.59,6.68-8.83c1.31-2.4,1.88-5.4-1.11-6.86c-1.3-0.63-2.49-0.37-3.8,0.08c-2.33,0.81-4.64,1.69-6.97,2.52
				c-4.29,1.53-8.59,3.03-12.9,4.5c-8.87,3.02-17.78,5.9-26.74,8.63c-17.91,5.47-36.01,10.35-54.26,14.57
				c-37.05,8.57-74.64,14.05-112.59,16.47c-19.13,1.22-38.3,1.75-57.47,1.75c-7.89,0-15.92-0.2-23.51-2.6
				c-8.35-2.64-14.73-8.03-19.44-15.34c-18.32-28.42-22.31-63.22-35.41-93.92c-5.73-13.41-14.57-29.85-31.15-30.64
				c-6.94-0.33-13.34,3.12-17.72,8.37c-4.81,5.76-7.04,12.93-7.51,20.34c-0.56,8.95,1.2,17.93,2.81,26.69
				c1.65,9,3.55,17.95,5.74,26.83c4.41,17.9,10.01,35.49,16.94,52.57c3.44,8.48,7.09,16.86,10.8,25.22
				c3.3,7.45,6.78,14.62,12.61,20.45c11.78,11.77,27.71,17.65,43.96,19.81c17.69,2.35,35.87,1.05,53.57-0.59
				c18.12-1.68,36.14-4.4,53.99-7.96c35.9-7.16,71.05-17.72,105.47-30.1c8.43-3.03,16.82-6.18,25.17-9.41
				c1.19-0.46,0.67-2.39-0.53-1.93c-33.18,12.84-66.95,24.28-101.48,32.93c-34.42,8.63-69.62,14.49-105.11,15.99
				c-17.3,0.73-35.15,0.27-51.52-6c-7.49-2.87-14.51-7.09-20.41-12.53c-6.06-5.58-9.84-12.35-13.17-19.79
				c-7.31-16.36-14.37-32.84-19.98-49.87c-5.6-17-9.96-34.4-13.35-51.98c-3.03-15.74-7.96-35.61,3.39-49.26
				c4.84-5.82,12.04-8.99,19.59-7.34c8.1,1.77,14.32,7.71,18.68,14.49c4.43,6.89,7.61,14.64,10.49,22.28
				c2.85,7.57,5.29,15.29,7.64,23.03c4.67,15.4,8.99,30.97,15.49,45.74c3.2,7.27,6.83,14.64,11.64,21
				c4.45,5.88,10.36,10.16,17.34,12.54c7.06,2.41,14.63,2.9,22.04,2.96c9.1,0.07,18.21-0.07,27.31-0.3
				c36.64-0.92,73.27-4.04,109.38-10.45c35.51-6.3,70.54-15.35,104.85-26.45c8.54-2.76,17.04-5.65,25.49-8.67
				c2.08-0.74,4.16-1.49,6.24-2.25c1.07-0.39,2.44-1.2,3.59-0.58c1.46,0.78,1.07,2.26,0.47,3.44c-1.8,3.54-4.33,6.7-7.15,9.47
				c-4.24,4.17-9.22,7.19-14.42,9.98c-5.49,2.94-11.11,5.66-16.77,8.26c-4.7,2.16-9.44,4.29-14.29,6.1
				C920.51,594.72,921.03,596.65,922.24,596.2L922.24,596.2z"/>
		</g>
	</g>
	<g>
		<g>
			<path class="st0" d="M975.09,560.64c-1.41,10.54-10.02,17.98-18.33,23.56c-3.28,2.2-6.58,4.26-10.14,5.99
				c-3.78,1.84-7.65,3.49-11.55,5.07c-3.79,1.53-7.6,3-11.46,4.34c-1.21,0.42-0.69,2.35,0.53,1.93c7.72-2.68,15.38-5.74,22.76-9.26
				c3.75-1.79,7.23-3.9,10.68-6.22c4.46-2.99,8.84-6.26,12.36-10.35c3.71-4.31,6.39-9.39,7.15-15.06
				C977.25,559.36,975.25,559.38,975.09,560.64L975.09,560.64z"/>
		</g>
	</g>
	<g>
		<g>
			<path class="st0" d="M973.12,567.6c-1.05,9.16-9.14,16.19-16.23,21.19c-6.98,4.92-14.81,8.78-22.65,12.14
				c-4.11,1.76-8.31,3.38-12.64,4.52c-1.24,0.33-0.72,2.26,0.53,1.93c8.46-2.23,16.62-6.02,24.35-10.06
				c7.88-4.13,15.57-9,21.62-15.62c3.64-3.99,6.4-8.66,7.02-14.1C975.27,566.32,973.26,566.33,973.12,567.6L973.12,567.6z"/>
		</g>
	</g>
	<g>
		<g>
			<path class="st0" d="M913.69,604.41c3.73,0.65,7.28,2.2,10.19,4.65c1.6,1.35,2.55,2.99,1.2,4.92c-1.12,1.6-3.19,2.21-5.01,2.59
				c-4.22,0.88-8.69,0.71-12.97,0.31c-4.49-0.42-8.93-1.27-13.33-2.26c-1.25-0.28-1.79,1.65-0.53,1.93
				c7.96,1.78,16.38,3.31,24.56,2.38c3.16-0.36,6.92-1.02,8.89-3.8c0.83-1.16,1.24-2.64,0.97-4.06c-0.31-1.65-1.6-2.82-2.86-3.82
				c-3.08-2.46-6.72-4.1-10.6-4.78C912.96,602.26,912.42,604.18,913.69,604.41L913.69,604.41z"/>
		</g>
	</g>
	<path class="st43" d="M479.92,872.19c-8.66,48.13-14.59,100-18.46,148.75"/>
	<path class="st43" d="M473.19,1009.19c-48.73,43.99-75.83,106.69-97.61,168.62c-7.99,22.73-16.96,47.56-37.7,59.83
		c-4.69,2.78-9.99,4.91-13.48,9.1c-5.68,6.84-4.75,17.18-1.01,25.24s12.51,12.44,16.89,20.18c6.59,11.64,2.75,29.21,6.72,41.98
		c3.31,10.63,11.85,19.57,19.71,27.14c2.25,2.16,6,0.87,6.44-2.21c2.78-19.4-2.34-39.48-2.25-59.29
		c0.21-44.69,26.57-84.5,51.93-121.3c28.51-41.36,57.02-82.72,85.53-124.07c6.63-9.62,13.28-19.26,18.78-29.57
		c7.42-13.9,12.67-28.84,17.89-43.7c6.08-17.31,16.12-43.8,22.19-61.11"/>
	<path class="st38" d="M586.12,404.99c9.22-3.23,22.62-4.44,32.12-21.01"/>
	<path class="st38" d="M668.71,396.27c3.2,10.41,9.88,24.07,18.79,30.32"/>
	<path class="st33" d="M591.77,349.27c29.68,18.29,73.44,31.79,108.2,29.1"/>
	<path class="st33" d="M593.43,358.77c3.67,12.51,10.27,19.31,22.19,23.83c11.62,4.41,23.63,7.8,35.83,10.19
		c10.47,2.05,22.41,5.41,32.32-0.11c8.24-4.6,14.26-12.39,20.56-19.21c24.79-26.79,41.76-61.21,48.65-97.32
		c6.84-35.86,6.28-78.99-15.71-109.84c-6.96-9.76-15.99-18.09-26.59-23.75c-19.39-10.36-44.08-11.16-63.22-0.34
		c-7.9,4.47-14.7,10.69-20.67,17.52c-22.45,25.65-33.57,59.69-36.89,93.62c-1.89,19.36-0.69,38.39-0.25,57.79
		C589.94,324.49,588.95,343.5,593.43,358.77z"/>
	
		<ellipse transform="matrix(0.2482 -0.9687 0.9687 0.2482 152.5291 891.8862)" class="st0" cx="650.84" cy="347.68" rx="13.66" ry="63.02"/>
	<path class="st0" d="M537.43,660.74c0,0,42.26,30.56,78.68,33.81c36.41,3.25,68.33-15.97,68.33-15.97l-0.65-5.88
		c0,0-0.41-1.63-4.49,0.27c-4.08,1.91-4.08,1.91-4.08,1.91s-34.04,12.54-66.54,3.33c-32.5-9.21-45.3-18.17-45.3-18.17
		s-18.71-11.41-19.64-9.63C540.67,656.21,537.43,660.74,537.43,660.74z"/>
	<g>
		<circle class="st33" cx="666.67" cy="177.17" r="16.66"/>
		<circle class="st0" cx="670.82" cy="174.77" r="12.51"/>
		<circle class="st1" cx="672.52" cy="173.07" r="5.18"/>
	</g>
	<g>
		<circle class="st33" cx="623.64" cy="236.07" r="8.97"/>
		<circle class="st0" cx="625.88" cy="234.78" r="6.74"/>
		<circle class="st1" cx="626.79" cy="233.86" r="2.79"/>
	</g>
	<g>
		<circle class="st33" cx="706.36" cy="161.29" r="8.97"/>
		<circle class="st0" cx="705.07" cy="159.06" r="6.74"/>
		<circle class="st1" cx="704.15" cy="158.14" r="2.79"/>
	</g>
	<g>
		<circle class="st33" cx="703.85" cy="325.47" r="8.97"/>
		<circle class="st0" cx="702.56" cy="323.23" r="6.74"/>
		<circle class="st1" cx="701.65" cy="322.32" r="2.79"/>
	</g>
	<g>
		<circle class="st33" cx="712.32" cy="236.08" r="16.66"/>
		<circle class="st0" cx="716.95" cy="237.32" r="12.51"/>
		<circle class="st1" cx="719.35" cy="237.32" r="5.18"/>
	</g>
	<g>
		<circle class="st33" cx="671.38" cy="266.16" r="7.19"/>
		<circle class="st0" cx="672.42" cy="267.95" r="5.4"/>
		<circle class="st1" cx="673.15" cy="268.68" r="2.24"/>
	</g>
	<g>
		<circle class="st33" cx="636.78" cy="306.68" r="16.66"/>
		<circle class="st0" cx="639.17" cy="310.83" r="12.51"/>
		<circle class="st1" cx="640.87" cy="312.53" r="5.18"/>
	</g>
	<circle class="st0" cx="625.35" cy="175.78" r="2.16"/>
	<circle class="st0" cx="649.62" cy="211.92" r="2.16"/>
	<circle class="st0" cx="600" cy="307.93" r="2.16"/>
	<circle class="st0" cx="737.54" cy="224.32" r="2.16"/>
	<circle class="st0" cx="742.79" cy="280.08" r="2.16"/>
	<circle class="st0" cx="689" cy="310.08" r="2.16"/>
	<circle class="st0" cx="711.65" cy="351.08" r="2.16"/>
	<circle class="st0" cx="674.97" cy="149.35" r="2.16"/>
	<g>
		<path class="st1" d="M1563.01,137.27c2.45-5.63,1.86-12.33-0.9-17.8c-2.77-5.48-7.56-9.78-12.99-12.62
			c-0.35-0.18-0.72-0.36-1.11-0.35c-0.99,0.04-1.48,1.2-1.68,2.17c-2.46,11.89,4.56,25.04,15.81,29.62"/>
	</g>
	<g>
		<path class="st1" d="M1449.12,376.09c6.08-0.83,11.51-4.79,14.76-10c3.25-5.21,4.45-11.53,4.06-17.66
			c-0.02-0.39-0.06-0.8-0.28-1.13c-0.54-0.83-1.79-0.64-2.72-0.31c-11.44,4.06-19.05,16.88-17.14,28.87"/>
	</g>
	<g>
		<path class="st1" d="M1480.24,278.14c6.09-0.75,11.56-4.65,14.88-9.82s4.59-11.48,4.27-17.61c-0.02-0.39-0.05-0.8-0.26-1.13
			c-0.53-0.83-1.78-0.67-2.72-0.35c-11.49,3.92-19.26,16.65-17.49,28.66"/>
	</g>
	<g>
		<path class="st1" d="M1615.91,193.46c-5.63-2.45-12.33-1.86-17.8,0.9c-5.48,2.77-9.78,7.56-12.62,12.99
			c-0.18,0.35-0.36,0.72-0.35,1.11c0.04,0.99,1.2,1.48,2.17,1.68c11.89,2.46,25.04-4.56,29.62-15.81"/>
	</g>
	<g>
		<path class="st1" d="M1545.24,383.65c-1.18,6.02,0.83,12.44,4.71,17.19s9.48,7.93,15.4,9.54c0.38,0.1,0.78,0.2,1.16,0.1
			c0.96-0.25,1.19-1.49,1.18-2.48c-0.15-12.14-9.83-23.48-21.8-25.53"/>
	</g>
	<g>
		<path class="st44" d="M1677.82,33.54c3.17,16.25,3.7,33.02,1.56,49.44c-1.24,9.46-3.45,19.03-8.66,27.02s-13.9,14.19-23.44,14.37
			c-9.3,0.18-17.7-5.14-26.57-7.95c-13.82-4.37-29.51-2.38-41.8,5.31c-18.44,11.53-27.45,33.7-30.99,55.15s-2.8,43.52-7.43,64.77
			c-3.79,17.38-12.98,35.68-29.86,41.27c-15.06,4.99-32.24-2.18-42.55-14.24s-14.79-28.09-16.72-43.85"/>
		<path class="st44" d="M1706.52,44.62c0.96,11.8,1.84,23.98-1.94,35.2s-13.44,21.33-25.26,21.83c-10.54,0.45-20.05-6.52-30.54-7.58
			c-18.5-1.87-33.63,14.64-42.19,31.14c-16,30.84-20.77,66.19-23.1,100.85c-2.33,34.66-2.49,69.72-10.25,103.58
			c-5.29,23.07-15.19,46.76-34.94,59.81c-21.65,14.31-51.55,12.28-73.8-1.09s-37.39-36.43-45.81-60.98"/>
	</g>
	<path class="st44" d="M1765.55,1234.66c-19.04-23.19-20.09-56.28-23.93-86.04c-4.74-36.74-8.9-75.61,5.93-109.55
		c3.42-7.83,8.52-15.83,16.67-18.4c8.9-2.81,18.83,2.09,24.48,9.52c5.66,7.42,7.88,16.85,9.46,26.05
		c4.26,24.84,4.76,50.31,1.61,75.31c-3.82,30.27-12.28,60.94-23.27,89.39C1775.71,1222.93,1769.64,1239.65,1765.55,1234.66z"/>
	<path class="st44" d="M1767.05,1235.85c-8.97-4.83-29.34-12.17-38.31-17.01c-17.75-9.57-35.76-19.33-50.1-33.51
		c-14.33-14.18-24.74-33.65-23.41-53.77c0.35-5.36,2.26-11.33,7.86-13.2c33.6-11.2,61.14,25.24,80.69,46.12"/>
	<path class="st44" d="M1800.65,1070.11c2.95-9.11,7.86-17.59,13.85-25.05c6.94-8.65,18.08-14.47,26.08-3.19
		c3.59,5.06,4.46,11.56,4.52,17.77c0.18,17.15-2.48,40.45-12.27,54.53"/>
	<path class="st44" d="M1798.94,1138.41c6.69-11.42,24.17-24.36,37.86-23.97c7.31,0.2,14.82,4.96,16.33,12.11"/>
	<path class="st44" d="M1728.41,1146.99c5.69-74.76-13.71-160.67-27.24-234.41c-2.65-14.44-5.39-29.06-4.42-43.71
		c0.97-14.65,6.07-29.6,16.89-39.53c10.82-9.93,28.03-13.54,40.66-6.05c11.29,6.7,16.67,20.37,17.93,33.44"/>
	<path class="st44" d="M1776.24,1020.86c14.1-65.56-5.33-136.78-5.2-203.84c0.05-27.08,5.67-57.88,28.62-72.26
		c22.68-14.2,55.27-4.64,70.82,17.14c6.54,9.16,10.52,19.89,13.77,30.66c6.94,22.98,10.91,46.85,11.79,70.84"/>
	<path class="st44" d="M1814.13,739.75c41.18,91.98,49.02,199.63,21.06,296.45"/>
	<path class="st44" d="M1718.45,825.97c23.38,61.45,38.59,129.99,42.58,195.61"/>
	<path class="st6" d="M1764.18,1020.67c3.09-0.61,8.57,54.34,8.87,58.85c2.49,37.21-0.69,74.34-0.43,111.56
		c0.09,12.79,2.3,26.41-2.42,38.54c-1.64,4.26-2.59,8.77-5.86,5.15c-17.91-19.9-32.14-120.25-25.78-159.66
		c2.24-13.9,5.08-28.6,11.73-41.17C1753.24,1028.4,1757.56,1021.99,1764.18,1020.67z"/>
	<path class="st6" d="M1747.2,1208.89l-89.71-85.59c0,0-19.59,38.67,48.98,83.01c68.57,44.34,62.9,21.14,62.9,21.14L1747.2,1208.89z
		"/>
	<path class="st6" d="M1842.86,1115.52l-54.93,73.78l10.83-46.4c0,0,1.55-9.8,9.8-15.98S1828.42,1111.91,1842.86,1115.52z"/>
	<path class="st44" d="M1566.57,1217.98c-10.64-31.07-21.75-65.37-30.21-97.1c-4.21-15.79-8.18-32.05-6.47-48.3
		c0.31-2.95,2.28-6.83,5.05-5.76c1.07,0.41,1.72,1.49,2.27,2.49c10.65,19.38,16.05,41.12,21.34,62.59
		c6.59,26.74,14.17,57.35,20.76,84.09"/>
	<path class="st44" d="M1586.42,1214.01c-10.92-40.87-17.67-88.61-18.77-130.9c-0.37-14.17-0.18-28.41,1.82-42.45
		c1.3-9.17,3.9-19.07,11.42-24.48c0.81-0.58,1.76-1.12,2.74-0.96c1.39,0.22,2.18,1.69,2.71,3c6.9,17.28,5.11,36.62,3.68,55.18
		c-3.51,45.5-3.37,94.14,13.27,136.64"/>
	<path class="st44" d="M1604.12,1210.04c-4.12-37.32-0.27-78.51,9.71-114.71c1.04-3.77,2.63-8.03,6.32-9.28
		c3.46,4.29,3.15,10.39,2.68,15.89c-3.05,35.19-6.1,70.38-9.16,105.57"/>
	<path class="st44" d="M1553.5,1221.45c-56.74-100.7-86.44-218.62-83.92-334.18"/>
	<path class="st44" d="M1469.23,889.88c-6.27-6.7-9.93-15.57-11.37-24.63c-1.44-9.07-0.78-18.35,0.74-27.41
		c0.35-2.06,0.76-4.15,1.81-5.95c1.05-1.8,2.88-3.28,4.96-3.37c3.94-0.17,6.34,4.23,7.36,8.04c4.61,17.22,0.72,35.43-3.17,52.82"/>
	<path class="st44" d="M1469.54,927.44c-6.77-1.67-12.78-5.8-17.45-10.98c-4.68-5.18-8.1-11.37-10.88-17.77
		c-0.63-1.45-1.24-2.96-1.31-4.54s0.48-3.28,1.77-4.2c2.44-1.74,5.8,0.07,8.02,2.07c10.07,9.06,15.14,22.27,19.87,34.97"/>
	<path class="st44" d="M1473.53,961.64c6.77-1.67,12.78-5.8,17.45-10.98c4.68-5.18,8.1-11.37,10.88-17.77
		c0.63-1.45,1.24-2.96,1.31-4.54c0.08-1.58-0.48-3.28-1.77-4.2c-2.44-1.74-5.8,0.07-8.02,2.07c-10.07,9.06-15.14,22.27-19.87,34.97"
		/>
	<path class="st6" d="M1488.07,1056.76c8.91,0.53,15.88-1.89,20.63-5.92s7.4-9.6,9.06-15.62c0.38-1.37,0.71-2.8,0.26-4.5
		c-0.45-1.7-1.81-3.75-3.94-5.2c-4.02-2.75-8.09-1.94-10.52-0.53c-10.95,6.39-13.47,19.06-15.67,31.28"/>
	<path class="st6" d="M1473.38,976.35c-8.77,0.68-17.69-1.19-25.52-5.16c-4.44-2.25-19.92-11.23-15.06-17.99
		c1.5-2.1,4.66-1.89,7.15-1.22c13.48,3.67,23.73,14.2,33.25,23.83"/>
	<path class="st44" d="M1482.97,1033.85c-10.4,1.63-20.02-0.05-27.62-4.56c-4.31-2.56-18.9-12.95-10.79-22.18
		c2.51-2.86,6.09-2.87,8.72-2.2c14.24,3.64,22.21,16.49,29.67,28.25"/>
	<path class="st44" d="M1499.45,1095.88c-7.6,0.64-14.79-1.06-20.63-4.68c-3.31-2.06-14.61-10.26-9.09-16.48
		c1.71-1.93,4.35-1.75,6.33-1.13c10.7,3.34,17.24,12.98,23.34,21.8"/>
	<path class="st44" d="M1514.08,1136.67c4.77-2.92,8.28-7.06,10.16-11.75c1.06-2.66,4.17-12.43-1.8-13.7
		c-1.85-0.39-3.34,0.86-4.24,2.08c-4.87,6.63-4.54,15.17-4.31,23.04"/>
	<path class="st44" d="M1536.99,1190.14c-7.6,0.64-14.79-1.06-20.63-4.68c-3.31-2.06-14.61-10.26-9.09-16.48
		c1.71-1.93,4.36-1.75,6.33-1.13c10.7,3.34,17.24,12.98,23.34,21.8"/>
	<path class="st44" d="M1490.49,1228.06c14.57-9.88,34.36-9.41,50.6-2.61c16.24,6.8,29.53,19.09,41.55,31.95
		s23.22,26.64,36.99,37.62c21.16,16.88,47.63,26.38,74.5,29.66c26.87,3.27,54.21,0.56,80.68-5.1"/>
	<path class="st44" d="M1542.75,1226.08c24.93,0.08,53,9.53,74.74,21.75s42.52,26.47,65.82,35.33
		c47.94,18.23,101.32,11.93,151.99,3.99"/>
	<path class="st44" d="M1543.41,1225.59c41.25-16.96,89.45-10.28,129.89,8.55c23.76,11.07,47.96,32.47,51.24,58.47"/>
	<path class="st44" d="M1576.99,1216.82c36.58-11.46,82.57-14.28,119.1-2.66c14.26,4.54,27.92,10.76,41.54,16.96
		c18.89,8.61,37.79,17.21,56.68,25.82"/>
	<path class="st44" d="M1515.09,1294.87c13.15-6.75,26.57-13.6,41.16-15.99c17.81-2.91,40.65,2.36,56.76,10.5"/>
	<path class="st44" d="M1573.53,1347.99c17.65-7.13,37.63-8.31,55.99-3.3c18.36,5.01,34.98,16.17,46.57,31.27"/>
	<path class="st44" d="M1495.83,1259.69c3.76-5.04,7.66-10.2,13.02-13.47c3.57-2.18,7.63-3.41,11.67-4.52
		c12.52-3.44,30.98-5.83,43.4-2.05"/>
	<g>
		<path class="st44" d="M1398.42,597.26c30.09-17.01,66.07-16.68,99.94-9.81c33.87,6.87,66.96,18.61,101.46,20.63
			c24.39,1.43,49.05-2.12,72.05-10.37c37.72-13.52,69.78-38.98,104.66-58.69s76.41-33.97,114.74-22.27"/>
		<path class="st44" d="M1395.51,641.97c39.27-10.24,79.49-5.49,116.55,11.04c27.62,12.32,52.21,31.59,81.3,39.85
			c18.11,5.14,37.3,5.76,56.02,3.71c12.56-1.37,25.09-3.96,36.67-9.02c16.99-7.42,31.27-19.83,47.32-29.1
			c50.24-29.02,118.3-23.23,162.91,13.86"/>
		<path class="st44" d="M1886,521.32c-26.89-9.11-57.31,1.36-79.08,19.58s-36.6,43.19-50.97,67.67
			c-14.37,24.48-23.99,46.45-45.64,64.81"/>
		<path class="st44" d="M1888.85,545.63c-22.31-7.34-47.33,0.6-66.18,14.61s-32.82,33.42-46.93,52.19s-27.5,36.92-47.58,49.08"/>
		<path class="st44" d="M1460.4,582.87c25.4,2.64,50.08,11.99,70.86,26.84c24.58,17.56,43.26,42.21,66.99,60.9
			s62.35,28.19,90.01,16.04"/>
		<path class="st44" d="M1492.95,586.48c25.13,4.44,57.83,18.41,77.74,34.39c22.88,18.36,41.93,44.12,70.37,51.34
			c22.14,5.62,45.98-1.64,64.92-14.4c18.94-12.76,37.96-35.51,52.36-53.23"/>
		<path class="st44" d="M1505.39,594.75c31.41,24.16,33.75,40.87,39.79,58.37c2.99,8.66,5.56,18.08,12.46,24.12"/>
		<path class="st44" d="M1891.19,573.39c-22.61-6.86-51.43-1.45-69.95,13.21c-4.8,3.8-9.47,9.09-8.91,15.19
			c0.53,5.75,5.72,10.12,11.21,11.88c5.5,1.76,11.39,1.54,17.15,1.97c21.44,1.62,41.93,13.1,54.51,30.54
			c2.25,3.11,4.76,6.73,8.58,7.13"/>
		<path class="st44" d="M1890.05,572.59c-14.68-4.45-33.75-0.68-45.78,8.84c-3.12,2.47-6.15,5.9-5.78,9.86
			c0.35,3.73,3.71,6.57,7.28,7.71s7.4,1,11.13,1.28c13.92,1.05,17.65,7.06,25.81,18.38c1.46,2.02,9.65,18.39,12.13,18.65"/>
		<path class="st0" d="M1398.24,596.1c-21.56,12.07-45.97,22.93-70.38,26.81c-24.4,3.88-50.08,1.89-72.63-8.21
			c-10.99-4.92-21.59-11.82-33.61-12.6l-2.16,7.76c21,23.3,49.46,39.79,80.12,46.4c30.67,6.62,67.86-1,96.61-13.57"/>
		<g>
			<path class="st38" d="M1217.2,604.94c0,0-13.28-6.54-23.56,2.06c-10.28,8.6-16.08,10.28-16.08,10.28s20.19,12.72,33.66,4.11
				s13.46-8.6,13.46-8.6S1235.33,607.56,1217.2,604.94z"/>
			<path class="st38" d="M1228.01,606.46c0,0-0.05,1.61-1.48,2.02c-0.48,0.13-0.96,0.25-1.45,0.36c-6.34,1.37-13.03,0.22-18.84-2.75
				c-12.79-6.53-22.55-18.74-26.1-32.66c-4.64-18.19,1.05-37.23,6.71-55.13c5.89,11.06,8.35,23.5,11.14,35.77
				c0.47,2.05,0.94,4.1,1.45,6.13c3.51,14.2,8.91,28.79,20.2,38.1c3.08,2.54,6.63,4.73,8.69,8.15"/>
			<path class="st38" d="M1224.86,514.25c0,0,7.29,15.71,4.49,28.42c-2.8,12.72-13.46,25.8-13.46,36.46
				c0,10.66,7.48,25.43,7.48,25.43s-37.02-16.64-20.38-58.34S1224.86,514.25,1224.86,514.25z"/>
			<path class="st38" d="M1222.84,553.56c3.05-3.09,6.6-5.74,10.41-8.61c5.69-4.29,11.3-8.79,17.23-12.74
				c4.49-2.99,5.42-2.99,5.42-2.99s-3.55,24.31-14.59,40.02c-11.03,15.71-20.19,23.19-18.14,31.04c0.49,1.85-0.71,1.26-1.7,0.55
				c-2.21-1.6-3.77-4.86-4.9-7.23c-4.38-9.21-4.75-19.96-0.87-29.41C1217.49,559.85,1219.94,556.5,1222.84,553.56z"/>
			<path class="st38" d="M1267.12,565.68c0,0-0.37,35.34-30.85,40.2c-5.59,0.89-15.12,1.39-15.56-6.39
				c-0.34-5.98,3.83-12.26,7.28-16.79c5.71-7.52,13.19-9.88,21.91-12.43C1255.6,568.61,1261.35,567.08,1267.12,565.68z"/>
		</g>
		<g>
			<defs>
				<path id="SVGID_45_" d="M1398.45,642.7c-28.74,12.57-65.94,20.19-96.61,13.57c-30.67-6.62-59.12-23.1-80.12-46.4l2.16-7.76
					c12.02,0.78,22.62,7.68,33.61,12.6c22.55,10.1,48.23,12.09,72.63,8.21c24.4-3.88,48.81-14.75,70.38-26.81L1398.45,642.7z"/>
			</defs>
			<clipPath id="SVGID_6_">
				<use xlink:href="#SVGID_45_"  style="overflow:visible;"/>
			</clipPath>
			<g style="clip-path:url(#SVGID_6_);">
				<path class="st44" d="M1397.37,596.19c-24.39,8.65-37.77,38.89-60.74,50.8c-14.78,7.67-23.07,11.57-39.69,10.45"/>
				<path class="st44" d="M1359.25,658.72c3.36-10.57,6.26-23.05,11.17-33s17.93-22.58,26.7-29.37"/>
				<path class="st44" d="M1370.67,609.45c-8.99,8.54-21.26,17.73-36.61,24.31c-8.83,3.79-18.1,7.93-27.59,9.41
					c-9.49,1.48-19.74,0.01-27.52-5.62c-10.24-7.4-15-16.67-24.93-25.92"/>
				<path class="st44" d="M1271.76,619.43c1.51,4.83,5.59,10.63,10.31,12.46s10.25,1.41,14.63-1.13c3.13-1.81,16.29-7.71,19.9-7.66"
					/>
			</g>
		</g>
	</g>
	<linearGradient id="SVGID_8_" gradientUnits="userSpaceOnUse" x1="1517.2994" y1="1075.9537" x2="1561.7832" y2="1075.9537">
		<stop  offset="9.765625e-04" style="stop-color:#B1A9D3"/>
		<stop  offset="0.2029" style="stop-color:#9DD3D9"/>
		<stop  offset="0.3606" style="stop-color:#BEDCCE"/>
		<stop  offset="0.507" style="stop-color:#EAD4C8"/>
		<stop  offset="0.661" style="stop-color:#BDC3D2"/>
		<stop  offset="0.8236" style="stop-color:#D1A5CB"/>
		<stop  offset="0.9995" style="stop-color:#EEC5C5"/>
	</linearGradient>
	
		<path style="fill:none;stroke:url(#SVGID_8_);stroke-width:2;stroke-linecap:round;stroke-linejoin:round;stroke-miterlimit:10;" d="
		M1560.78,1216.36c-46.08-84.95-55.24-189.12-24.71-280.8"/>
	<linearGradient id="SVGID_10_" gradientUnits="userSpaceOnUse" x1="1531.663" y1="927.0334" x2="1556.5309" y2="927.0334">
		<stop  offset="9.765625e-04" style="stop-color:#B1A9D3"/>
		<stop  offset="0.2029" style="stop-color:#9DD3D9"/>
		<stop  offset="0.3606" style="stop-color:#BEDCCE"/>
		<stop  offset="0.507" style="stop-color:#EAD4C8"/>
		<stop  offset="0.661" style="stop-color:#BDC3D2"/>
		<stop  offset="0.8236" style="stop-color:#D1A5CB"/>
		<stop  offset="0.9995" style="stop-color:#EEC5C5"/>
	</linearGradient>
	
		<circle style="fill:none;stroke:url(#SVGID_10_);stroke-width:2;stroke-linecap:round;stroke-linejoin:round;stroke-miterlimit:10;" cx="1544.1" cy="927.03" r="11.43"/>
</g>
<g id="Layer_4">
</g>
</svg>
