<?xml version="1.0" encoding="utf-8"?>
<!-- Generator: Adobe Illustrator 24.2.3, SVG Export Plug-In . SVG Version: 6.00 Build 0)  -->
<svg version="1.1" id="Layer_1" xmlns="http://www.w3.org/2000/svg" xmlns:xlink="http://www.w3.org/1999/xlink" x="0px" y="0px"
	 viewBox="0 0 344.34 380" style="enable-background:new 0 0 344.34 380;" xml:space="preserve">
<style type="text/css">
	.st0{display:none;}
	.st1{display:inline;fill:#222323;}
	.st2{fill:#FCFCFC;}
	.st3{fill:none;stroke:#E9E9E9;stroke-width:0.5162;stroke-linecap:round;stroke-linejoin:round;stroke-miterlimit:10;}
	.st4{fill:#212323;stroke:#FFFFFF;stroke-width:0.5162;stroke-linecap:round;stroke-linejoin:round;stroke-miterlimit:10;}
	.st5{fill:none;stroke:#FCFCFC;stroke-width:0.5162;stroke-miterlimit:10;}
	.st6{fill:none;stroke:#E9E9E9;stroke-width:0.5162;stroke-miterlimit:10;}
	.st7{fill:none;stroke:#FCFCFC;stroke-width:0.5162;stroke-linecap:round;stroke-linejoin:round;stroke-miterlimit:10;}
	.st8{fill:#E9E9E9;}
	.st9{fill:#B0A8D3;}
	.st10{fill:#B0A8D3;stroke:#B0A8D3;stroke-width:0.2581;stroke-miterlimit:10;}
	.st11{fill:none;stroke:url(#SVGID_1_);stroke-width:0.5162;stroke-linecap:round;stroke-linejoin:round;stroke-miterlimit:10;}
	.st12{fill:none;stroke:url(#SVGID_2_);stroke-width:0.5162;stroke-linecap:round;stroke-linejoin:round;stroke-miterlimit:10;}
	.st13{fill:none;stroke:url(#SVGID_3_);stroke-width:0.5162;stroke-linecap:round;stroke-linejoin:round;stroke-miterlimit:10;}
	.st14{fill:none;stroke:url(#SVGID_4_);stroke-width:0.5162;stroke-linecap:round;stroke-linejoin:round;stroke-miterlimit:10;}
	.st15{fill:none;stroke:url(#SVGID_5_);stroke-width:0.5162;stroke-linecap:round;stroke-linejoin:round;stroke-miterlimit:10;}
	.st16{fill:none;stroke:url(#SVGID_6_);stroke-width:0.5162;stroke-linecap:round;stroke-linejoin:round;stroke-miterlimit:10;}
	.st17{fill:none;stroke:url(#SVGID_7_);stroke-width:0.5162;stroke-linecap:round;stroke-linejoin:round;stroke-miterlimit:10;}
	.st18{fill:none;stroke:url(#SVGID_8_);stroke-width:0.5162;stroke-linecap:round;stroke-linejoin:round;stroke-miterlimit:10;}
	.st19{fill:none;stroke:url(#SVGID_9_);stroke-width:0.5162;stroke-linecap:round;stroke-linejoin:round;stroke-miterlimit:10;}
	.st20{fill:none;stroke:url(#SVGID_10_);stroke-width:0.5162;stroke-linecap:round;stroke-linejoin:round;stroke-miterlimit:10;}
	.st21{fill:none;stroke:#212323;stroke-width:0.5162;stroke-linecap:round;stroke-linejoin:round;stroke-miterlimit:10;}
	.st22{fill:none;stroke:#FFFFFF;stroke-width:0.5162;stroke-linecap:round;stroke-linejoin:round;stroke-miterlimit:10;}
	.st23{fill:#FCFCFC;stroke:#212323;stroke-width:0.5162;stroke-linecap:round;stroke-linejoin:round;stroke-miterlimit:10;}
	.st24{fill:#FFFFFF;stroke:#E9E9E9;stroke-width:0.2581;stroke-miterlimit:10;}
	.st25{fill:none;stroke:#E9E9E9;stroke-width:0.2581;stroke-miterlimit:10;}
	.st26{fill:none;stroke:#B0A8D3;stroke-width:1.2906;stroke-linecap:round;stroke-linejoin:round;stroke-miterlimit:10;}
</style>
<g id="blueprint" class="st0">
</g>
<g id="BG" class="st0">
	<rect x="-976.7" y="-836.38" class="st1" width="2297.75" height="2052.77"/>
</g>
<g id="Layer_2_2_">
	<ellipse class="st2" cx="157.92" cy="248.62" rx="95.55" ry="94.64"/>
	<g>
		<path class="st3" d="M230.03,113.17c0,0,0.74,9.15,7.29,13.34c6.55,4.2,21.5,1.11,21.5,1.11L230.03,113.17z"/>
		<g>
			<path class="st4" d="M187.73,166.38c-1.86-0.18-3.63-1.45-4.51-3.07s-1.16-3.51-1.18-5.35c-0.02-1.07,0.05-2.17,0.41-3.18
				c1.16-3.31,5.27-4.91,8.69-4.13c3.42,0.78,6.11,3.29,8.12,6.31c-0.46,1.71-1.04,3.12-1.67,4.27c-0.42,0.76-2.55-2.26-2.67-1.54
				c-0.37,2.29-0.04,4.87-0.08,4.92C192.6,167.49,188.89,166.49,187.73,166.38z"/>
			<path class="st4" d="M194.97,159.21c0.73,0.52,1.02,1.49,1.85,1.9c0.87,0.42,1.83-0.15,2.29-0.91c0.62-1.02,0.29-2.26,0.09-3.35"
				/>
			<path class="st4" d="M189.51,167.71c-1.29-0.34-1.53-0.8-2.11-1.99c-1.61-3.32-2.25-7.12-1.8-10.78"/>
			<path class="st4" d="M192.14,169.36c-2.29,0.41-3.24-2.93-3.6-4.88c-0.63-3.43-0.54-6.99,0.26-10.38"/>
			<path class="st4" d="M195.83,157.21c0.38-1.26-0.6,1.38-0.72,1.86c-0.29,1.22-0.36,2.3-0.43,3.57c-0.09,1.68,0.68,4.93,0,6.43
				c-1.74,3.83-3.49-1.5-3.72-3.58c-0.34-3.19,0.02-6.63,0.57-9.71"/>
		</g>
		<path class="st5" d="M196.21,153.14c6.7-19.65,15.69-43.03,23.98-62.06"/>
		<path class="st6" d="M198.15,155.48c3.3,1.38,6.5,4.74,6.7,8.31"/>
		<path class="st5" d="M222.34,143.5c1.14,8.1,2.84,16.47,4.91,24.38"/>
		<path class="st5" d="M227.25,167.87c12.04,3.53,25.16,4.34,37.51,2.15c3.57-0.63,7.81-1.51,10.55-3.88"/>
		<path class="st7" d="M249.25,82.49c4.16-0.93,8.25-2.42,11.73-4.9c3.47-2.47,6.3-6,7.41-10.12"/>
		<path class="st7" d="M279.57,57.02c0.44,1.87-0.35,3.87-1.61,5.33c-1.25,1.46-2.93,2.48-4.57,3.48c-1.21,0.74-2.49,1.49-3.91,1.58
			c-1.8,0.1-3.45-0.89-5.08-1.64c-2.65-1.22-5.57-1.88-8.49-1.92c-1.53-0.02-3.14,0.16-4.4,1.03"/>
		<path class="st7" d="M254.27,46.79c-1.82,4.64-6.39,8.06-11.35,8.5c-0.89,0.08-1.8,0.07-2.64,0.37c-0.84,0.3-1.62,1-1.68,1.89
			c-0.02,0.34,0.06,0.67,0.04,1.01c-0.08,1.1-1.18,1.79-1.86,2.66c-1.72,2.19-0.44,5.74,2.01,7.06c2.45,1.32,5.53,0.84,8.05-0.35
			c4.01-1.91,6.99-5.4,9.86-8.79"/>
		<path class="st8" d="M240.75,60.51c-0.12,0.35-0.44,0.59-0.7,0.86c-0.26,0.27-0.47,0.67-0.3,1c0.25,0.48,0.97,0.33,1.44,0.06
			c0.45-0.26,0.86-0.58,1.23-0.95c0.17-0.17,0.34-0.37,0.34-0.6c0-0.34-0.37-0.58-0.71-0.58c-0.34,0.01-0.97,0.06-1.26,0.23"/>
		<path class="st7" d="M257.68,50.33c-0.17,1.78,1.34,3.45,3.09,3.79c1.76,0.34,3.6-0.48,4.83-1.78"/>
		<path class="st8" d="M254.41,38.49c-0.74,1.72-1.5,3.52-1.44,5.4c0.07,1.88,1.22,3.86,3.06,4.24c1.59,0.33,3.2-0.6,4.28-1.82
			c0.98-1.1,1.76-2.51,3.13-3.04c1.82-0.7,3.92,0.45,5.8-0.06c1.21-0.33,2.17-1.33,2.68-2.48c0.51-1.15,0.64-2.43,0.64-3.69
			c0-1.13-0.1-2.28-0.52-3.34c-1.21-3.07-5.14-4.6-8.24-3.46c-3.1,1.14-5.07,4.55-4.88,7.85c0.05,0.81,0.2,1.62,0.04,2.41
			c-0.17,0.79-0.78,1.57-1.59,1.58c-0.55,0.01-1.05-0.34-1.44-0.74c-0.83-0.85-1.35-1.98-1.46-3.16"/>
		<path class="st7" d="M266.32,29.51c0.27-1.79,0.85-3.54,1.7-5.14c0.82,1.99,1.27,4.14,1.31,6.3"/>
		<path class="st7" d="M272.34,37.65c2.17-3.31,6.52-7.81,8.69-11.11c0.22,4.19,0.18,8.39-0.14,12.58
			c-0.11,1.48-0.28,3.03-1.11,4.26c-0.83,1.24-2.52,2.02-3.85,1.34"/>
		<path class="st7" d="M280.2,43.12c5.68,3.89,8.72,10.61,10.57,17.25c0.53,1.91,0.99,3.86,1.1,5.84c0.14,2.56-0.33,5.12-1,7.6
			c-2.83,10.31-9.58,19.49-18.58,25.25"/>
		<path class="st7" d="M281.59,33.05c2.92,1.22,5.63,2.92,7.99,5.02c-0.35,0.82-0.7,1.65-1.05,2.47c0.78-1.06,2.38-1.2,3.59-0.67
			c1.21,0.52,2.11,1.54,2.97,2.53c1.36,1.56,2.71,3.12,4.07,4.68c0.52,0.6,1.05,1.22,1.27,1.98c0.22,0.76,0.02,1.7-0.66,2.1
			c0.83-0.32,1.8,0.02,2.47,0.61c0.66,0.59,1.08,1.41,1.49,2.2c1.21,2.36,2.43,4.73,3.64,7.09c0.52,1.02,1.06,2.07,1.14,3.21
			c0.08,1.14-0.41,2.41-1.44,2.89c0.68,0.48,1.28,1.06,1.78,1.73c-0.69,0.45-1.39,0.89-2.08,1.34c1.81,1.3,1.76,3.96,1.45,6.17
			c-0.47,3.4-1.12,6.77-1.93,10.1c-0.48-0.27-0.96-0.53-1.44-0.8c1.09,2.38,0.17,5.16-0.86,7.57c-2.1,4.89-4.65,9.59-7.59,14.03"/>
		<path class="st7" d="M271.29,68.49c2.84-0.63,5.49-2.06,7.57-4.09"/>
		<path class="st7" d="M273.64,69.47c1.07-0.24,2.07-0.77,2.88-1.51"/>
		<g>
			<path class="st8" d="M273.56,38.59c1.4-2.07,2.87-4.09,4.4-6.06c0.26,2.41,0.08,4.87-0.54,7.21c-0.18,0.66-0.4,1.34-0.87,1.84
				c-0.47,0.5-1.25,0.77-1.86,0.46c-0.44-0.22-0.71-0.69-0.88-1.16c-0.26-0.7-0.36-1.47-0.29-2.21"/>
		</g>
		<g>
			<path class="st5" d="M227.23,167.65c-0.96,3.83-2.27,9.06-2.9,12.96"/>
			<path class="st5" d="M227.44,183.57c1-1.81,2.73-4.64,3.95-6.76c0.23-0.39,0.81-0.32,0.94,0.12c1.14,4.08,2.41,8.12,3.81,12.12
				c0.53,1.52,2.63,1.63,3.32,0.18c1.64-3.44,3.41-7.51,5.31-10.93c0.21-0.37,0.76-0.34,0.92,0.05l0,0l4.87,13.17
				c0.61,1.65,2.99,1.53,3.43-0.18c1.09-4.26,2.28-8.48,3.83-12.59c0.16-0.42,0.74-0.45,0.94-0.05c2.55,5.15,5.2,10.25,7.96,15.29
				c0.68,1.25,2.49,1.25,3.16,0c2.44-4.54,4.7-9.18,6.75-13.91"/>
		</g>
		<path class="st6" d="M252.92,258.01l8.78,86.12c0,0,11.43,4.06,17.69,2.95c6.26-1.11,10.32-3.32,10.32-3.32l-4.06-67.45"/>
		<path class="st6" d="M260.22,329.76c-6.41,2.12-13.09,2.76-19.72,1.25c-6.18-1.41-7.1-3.42-6.59-9.45
			c0.54-6.36,0.93-11.93,1.46-18.28"/>
		<path class="st7" d="M253.68,253.99c4.26,0.53,8.22-1.53,8.7-5.79"/>
		<path class="st7" d="M279.49,344.23c2.69,0.06,5.39-0.82,7.53-2.45"/>
		<path class="st7" d="M281.57,341.67c1.33-0.07,2.63-0.47,3.77-1.16"/>
		<path class="st3" d="M267.65,345.84c-6.16,1.37-12.23,3.75-18.07,6.15c-1.22,0.5-2.59,1.2-2.87,2.49
			c-0.15,0.69,0.06,1.42,0.41,2.04c0.9,1.61,2.63,2.61,4.42,3.03c1.79,0.42,3.66,0.31,5.5,0.17c6.04-0.47,12.04-1.37,17.95-2.71
			c2.03-0.46,4.26-1.13,5.34-2.91c1.16-1.92,0.71-4.91,0.05-7.06"/>
		<path class="st3" d="M248.13,358.1c3.17,4.56,10.56,4.26,15.54,3.58c3.97-0.54,7.91-1.3,11.79-2.28c1.65-0.41,2.42-0.62,3.68-1.77
			c1.25-1.15,2.24-4.87,1.93-6.8"/>
		<path class="st3" d="M239.62,330.8c-4.24,1.22-8.23,3.16-12.23,5.03c-1.12,0.52-2.37,1.27-2.49,2.5c-0.09,0.9,0.52,1.75,1.3,2.21
			c0.77,0.46,1.7,0.6,2.59,0.7c5.05,0.55,10.14,0.07,15.2-0.4c2.39-0.23,4.79-0.45,7.18-0.68c2.28-0.22,4.91-0.64,6.06-2.63
			c0.42-0.73,0.58-1.57,0.66-2.41c0.16-1.53,0.12-3.07-0.12-4.58"/>
		<path class="st3" d="M225.32,337.3c0.65,1.57,3.38,1.85,5.07,1.7c6.89-0.63,13.78-1.26,20.66-1.88c2.38-0.22,5.54-0.5,6.82-2.52"
			/>
		<line class="st6" x1="204.82" y1="163.68" x2="204.88" y2="165.96"/>
		<path class="st3" d="M264.83,151.84c0.09-0.07,0.21,0.01,0.18,0.11c-0.51,1.51-3.66,7.19-17.04,7.79
			c-15.45,0.7-15.59,9.13-15.59,9.13l-4.97-1.1c0,0-2.84-12.2-3.72-16.99c-0.89-4.8-0.52-3.88-0.52-3.88s8.23,6.27,17.54,8.13
			c9.31,1.86,12.9,1.32,14.01,1.03C255.81,155.76,261.03,155.17,264.83,151.84z"/>
		<path class="st3" d="M206.65,134.04c0,0,9.72,8.15,11.61,9.48c1.88,1.33,3.03,2.25,3.03,2.25l-1.95,4.89
			C219.33,150.66,212.11,147.86,206.65,134.04z"/>
		<path class="st6" d="M229.97,111.33c0,4.04-0.79,8.03-1.7,11.96c-3.66,15.78-9.69,32.03-17.27,46.35"/>
		<g>
			<path class="st7" d="M165.59,100.49c-0.7,1.59-1.32,4.11-1.53,5.84c-0.06,0.48-0.04,1.08,0.39,1.29
				c0.51,0.26,1.05-0.27,1.39-0.73c0.43-0.6,0.86-1.21,1.29-1.81c0.29-0.41,0.6-0.84,1.03-1.11c0.95-0.6,2.18-0.3,3.26,0.01
				c1.23,0.36,2.46,0.72,3.69,1.08"/>
			<path class="st7" d="M171.17,93.38c-0.27-0.8-0.55-1.64-0.82-2.44c-0.12-0.35-0.25-0.72-0.53-0.97
				c-0.41-0.37-1.03-0.37-1.58-0.35c-1.68,0.06-3.36,0.13-5.04,0.19c-0.32,0.01-0.66,0.01-0.91-0.19c-0.29-0.23-0.33-0.69-0.17-1.03
				c0.15-0.34,0.45-0.59,0.75-0.81c1.73-1.26,3.84-1.86,5.9-2.44c0.87-0.24,1.83-0.48,2.63-0.06c0.46,0.24,0.79,0.66,1.1,1.06
				c2.07,2.66,3.43,4.23,5.5,6.89l0.77,0.94c5.23,5.36,12.5,7.69,18.92,11.73"/>
			<path class="st7" d="M175.09,99.45c-0.5-0.9-1-1.81-1.45-2.75c-0.2-0.42-0.4-0.83-0.58-1.26c-0.18-0.42-0.28-0.87-0.52-1.26
				c-0.54-0.86-2-0.58-2.83-0.43c-1.45,0.26-2.86,0.65-4.23,1.18c-0.44,0.17-0.88,0.36-1.23,0.66c-0.44,0.38-0.72,0.92-0.97,1.45
				c-1.03,2.14-1.88,4.37-2.54,6.65c-0.05,0.18-0.1,0.36-0.06,0.54c0.08,0.36,0.5,0.56,0.86,0.51c0.36-0.05,0.68-0.28,0.96-0.51
				c1.39-1.19,2.38-2.76,3.48-4.23c0.2-0.27,0.42-0.54,0.72-0.67c0.36-0.15,0.76-0.08,1.14,0.01c1.91,0.42,3.78,1.02,5.57,1.8"/>
			<path class="st7" d="M167.07,105.22c-0.12,0.3-0.46,1.81-0.49,2.14c-0.07,0.87,1.02,1.31,1.58,0.64l0.47-0.57
				c0.37-0.44,0.76-0.91,1.29-1.13c1.23-0.51,2.53,0.46,3.59,1.27c1.06,0.8,2.2,1.48,3.39,2.05c0.68,0.32,1.44,0.61,2.18,0.46
				c0.51-0.1,0.95-0.39,1.38-0.68c1.32-0.89,2.65-1.78,3.97-2.67"/>
			<path class="st7" d="M183.69,107.31c2.58,2.74,5.04,5.07,7.89,7.53"/>
		</g>
		<path class="st9" d="M335.39,251.98c-0.81-1.87-2.63-3.8-3.43-5.08c-2.15-3.44-4.14-6.97-5.99-10.58
			c-3.8-7.43-6.96-15.19-9.54-23.13c-5.11-15.74-7.94-32.18-8.97-48.68c-0.72-11.48-0.6-23.02-2.01-34.44
			c-1.26-10.2-4.41-21.23-13.01-26.86c-4.76-3.12-10.57-4.13-16.22-4.87c-4.13-0.54-8.49-0.85-12.48-2.07
			c-2.79-0.85-5.47-2.32-7.32-4.58c-3.03-3.72-3.66-8.6-8.79-10.11c-4.73-1.39-8.55,0.21-13.34-0.47c-1.21-0.14-3.63,0.23-4.84,0.33
			c-2.67,0.23-5.11,1.8-6.8,3.88c-1.69,2.08-2.71,5.26-3.38,7.85c1.21-4.66,7.02-0.08,7.44,2.74c0.26,1.68,0.01,3.39-0.05,5.1
			c-0.28,8.27,4.23,16.34,10.95,21.18c4.48,3.23,9.84,5.07,15.31,5.68c5.03,0.55,9.56-0.86,14.55-0.66
			c6.85,0.27,13.76,1.41,20.46,2.84c-3.43,11.99-10.89,22.54-12.83,35c-2.07,13.32-0.7,27.03,0.29,40.39
			c1.15,15.61,2.66,31.2,4.61,46.72c2.07,16.71,3.23,35.03,13.77,48.17c0.27,0.34,0.65,0.04,0.65,0.04
			c12.77-6.2,24.32-14.89,33.82-25.44c1.43-1.58,3.63-5.98-0.11-6.52c-1.25-0.18-2.5,0.29-3.76,0.33c-1.26,0.04-2.77-0.64-2.84-1.9
			c-0.03-0.48,0.16-0.94,0.38-1.37c2.01-3.89,6.4-5.78,10.28-7.82c1.32-0.69,2.69-1.51,3.36-2.85
			C335.95,253.93,335.81,252.96,335.39,251.98z"/>
		<path class="st4" d="M266.07,150.9c-0.97,0.53-1.94,1.06-2.89,1.63c-0.07,0.04-0.15,0.09-0.22,0.13
			c-6.9,4.48-15.09,3.84-23.07,1.8c-7.97-2.04-15.13-6.45-21.74-11.35c-10.3-7.65-19.58-16.66-27.53-26.73l8.7-12.44
			c7.4,7.96,15.31,15.44,23.67,22.39c4.17,3.46,8.55,6.85,13.64,8.72c10.1,3.71,22.37,0.43,29.27-7.83
			c3.38-4.05,5.52-9.08,9.2-12.86l1.71-1.03l0.75-0.45c3.36-2.2,7.99-0.53,10.51,2.6c2.52,3.13,2.9,7.6,1.78,11.45
			s-3.56,7.2-6.23,10.19c-1.19,1.33-2.43,2.61-3.73,3.83c-1.3,1.23-2.66,2.41-4.06,3.52s-2.85,2.17-4.34,3.17
			c-1.49,1-3.03,1.91-4.59,2.79C266.63,150.6,266.35,150.75,266.07,150.9z"/>
		<path class="st7" d="M254.3,153.23c0.63-2.91,4.81-4.28,7.04-2.3"/>
		<g>
			<ellipse class="st10" cx="163.4" cy="88.8" rx="1.23" ry="0.94"/>
			<g>
				<g>
					<path class="st9" d="M161.53,104.99c0.27-0.11,0.47-0.26,0.64-0.5c0.11-0.15,0.17-0.34,0.23-0.52
						c0.02-0.07,0.05-0.14,0.07-0.22c0.01-0.03,0.02-0.07,0.04-0.1c0.04-0.12-0.07,0.15-0.01,0.02c0.02-0.03,0.03-0.06,0.05-0.09
						c0.08-0.12-0.1,0.1-0.02,0.02c0.01-0.01,0.02-0.02,0.03-0.03c0.05-0.05-0.13,0.09-0.07,0.05c0.02-0.01,0.03-0.02,0.05-0.03
						c0.1-0.06-0.05,0.01-0.06,0.02c0.04-0.05,0.19-0.06,0.25-0.08c0.12-0.04,0.25-0.08,0.36-0.14c0.28-0.15,0.48-0.43,0.54-0.74
						c0.01-0.06,0.02-0.11,0.03-0.17c0.01-0.03,0.04-0.11-0.01-0.01c-0.06,0.13,0.05-0.05-0.04,0.05c-0.09,0.11,0.07-0.04-0.05,0.04
						c-0.06,0.05-0.12,0.07-0.2,0.08c-0.02,0-0.04,0.01-0.06,0.01c-0.14,0.01-0.25-0.04-0.33-0.15c-0.09-0.1-0.11-0.12-0.07-0.06
						c-0.04-0.11-0.05-0.13-0.04-0.09c0.02,0.07-0.01-0.16-0.01-0.08c0,0.02,0,0.05,0,0.07c0,0.08,0.03-0.14,0.01-0.06
						c-0.01,0.02-0.01,0.05-0.02,0.07c-0.01,0.03-0.02,0.05-0.03,0.07c-0.03,0.08,0.06-0.12,0.02-0.05
						c-0.03,0.06-0.06,0.11-0.1,0.17c-0.03,0.05-0.07,0.1-0.1,0.14c-0.06,0.09,0.02-0.03,0.03-0.04c-0.03,0.03-0.05,0.06-0.07,0.09
						c-0.08,0.1-0.17,0.19-0.25,0.28c-0.09,0.09-0.18,0.18-0.28,0.26c-0.05,0.04-0.11,0.08-0.15,0.13c0.01-0.01,0.12-0.09,0.04-0.03
						c-0.03,0.02-0.06,0.05-0.1,0.07c-0.14,0.1-0.25,0.21-0.3,0.38c-0.04,0.15-0.02,0.36,0.06,0.5c0.18,0.27,0.59,0.44,0.88,0.23
						c0.49-0.35,0.91-0.76,1.26-1.24c0.2-0.28,0.34-0.59,0.37-0.93c0.04-0.42-0.17-0.89-0.6-1.01c-0.49-0.13-0.96,0.19-1.1,0.65
						c-0.03,0.1-0.05,0.22-0.07,0.33c-0.02,0.12,0.06-0.1,0.02-0.03c-0.04,0.07,0.12-0.12,0.04-0.05c-0.07,0.06,0.06-0.05,0.06-0.05
						c0,0.01-0.06,0.03-0.07,0.04c0.13-0.09,0.12-0.05,0.06-0.03c-0.02,0.01-0.05,0.02-0.07,0.02c-0.04,0.01-0.09,0.03-0.13,0.04
						c-0.14,0.04-0.28,0.09-0.41,0.17c-0.21,0.14-0.39,0.33-0.5,0.56c-0.1,0.22-0.17,0.44-0.25,0.67c-0.01,0.02-0.01,0.03-0.02,0.05
						c-0.04,0.1,0.08-0.16,0.02-0.05c-0.02,0.04-0.04,0.08-0.07,0.12c-0.04,0.06-0.03-0.02,0.06-0.07
						c-0.01,0.01-0.04,0.04-0.05,0.05c-0.06,0.07,0.13-0.08,0.07-0.05c-0.05,0.02-0.15,0.06,0.06-0.02c-0.16,0.06-0.3,0.14-0.38,0.3
						c-0.08,0.14-0.12,0.34-0.06,0.5C160.83,104.84,161.19,105.12,161.53,104.99L161.53,104.99z"/>
				</g>
			</g>
			<g>
				<g>
					<path class="st9" d="M164.27,89.46c0.12-0.1,0.25-0.2,0.37-0.3c0.06-0.05,0.12-0.1,0.18-0.14c0.03-0.03,0.06-0.05,0.1-0.08
						c-0.03,0.02-0.05,0.04-0.08,0.06c0.02-0.01,0.04-0.02,0.06-0.03c-0.05,0.02-0.1,0.04-0.15,0.06c0.02-0.01,0.04-0.01,0.06-0.02
						c-0.06,0.01-0.11,0.02-0.17,0.02c0.01,0,0.02,0,0.03,0c-0.06-0.01-0.11-0.02-0.17-0.02c0.01,0,0.02,0.01,0.02,0.01
						c-0.05-0.02-0.1-0.04-0.15-0.06c0.06,0.03,0.03,0.01-0.07-0.06c-0.07-0.1-0.09-0.13-0.06-0.08c0.01,0.03,0.03,0.05,0.04,0.08
						c0.02,0.05,0.04,0.1,0.07,0.14c0.13,0.2,0.33,0.35,0.57,0.42c0.26,0.07,0.52,0.01,0.78,0.04c-0.06-0.01-0.11-0.02-0.17-0.02
						c0.04,0.01,0.09,0.02,0.13,0.03c-0.05-0.02-0.1-0.04-0.15-0.06c0,0,0.06,0.03,0.05,0.03c-0.03-0.03-0.06-0.05-0.1-0.07
						c0.04,0.04,0.02,0.02-0.06-0.08c0.08-0.29,0.15-0.59,0.23-0.88c-0.05,0.03-0.11,0.05-0.17,0.07c0.05-0.02,0.1-0.04,0.15-0.06
						c-0.22,0.09-0.44,0.15-0.67,0.18c0.06-0.01,0.11-0.02,0.17-0.02c-0.24,0.03-0.49,0.03-0.73,0c0.06,0.01,0.11,0.02,0.17,0.02
						c-0.1-0.02-0.19-0.03-0.29-0.06c-0.33-0.08-0.71,0.11-0.79,0.45c-0.07,0.33,0.1,0.71,0.45,0.8c0.8,0.2,1.62,0.1,2.35-0.26
						c0.29-0.14,0.43-0.62,0.23-0.88c-0.1-0.14-0.2-0.26-0.36-0.34c-0.17-0.09-0.33-0.11-0.51-0.12c-0.17-0.01-0.33,0.02-0.5,0
						c0.06,0.01,0.11,0.02,0.17,0.02c-0.04-0.01-0.07-0.02-0.11-0.03c0.05,0.02,0.1,0.04,0.15,0.06c-0.08-0.04-0.05-0.07,0.04,0.05
						c-0.01-0.01-0.02-0.02-0.02-0.02c-0.03-0.04-0.01-0.01,0.07,0.08c-0.02-0.05-0.05-0.11-0.08-0.17
						c-0.17-0.33-0.53-0.5-0.89-0.42c-0.26,0.06-0.45,0.25-0.65,0.41c-0.15,0.12-0.3,0.24-0.46,0.36c-0.12,0.1-0.19,0.31-0.19,0.46
						c0,0.16,0.07,0.35,0.19,0.46c0.12,0.11,0.28,0.2,0.46,0.19C163.99,89.64,164.13,89.57,164.27,89.46L164.27,89.46z"/>
				</g>
			</g>
		</g>
		<g>
			
				<linearGradient id="SVGID_1_" gradientUnits="userSpaceOnUse" x1="266.0663" y1="360.4507" x2="279.4433" y2="360.4507" gradientTransform="matrix(1 0 0 -1 0 380)">
				<stop  offset="9.765625e-04" style="stop-color:#B1A9D3"/>
				<stop  offset="0.2029" style="stop-color:#9DD3D9"/>
				<stop  offset="0.3606" style="stop-color:#BEDCCE"/>
				<stop  offset="0.507" style="stop-color:#EAD4C8"/>
				<stop  offset="0.661" style="stop-color:#BDC3D2"/>
				<stop  offset="0.8236" style="stop-color:#D1A5CB"/>
				<stop  offset="0.9995" style="stop-color:#EEC5C5"/>
			</linearGradient>
			<path class="st11" d="M273.85,35.64c-2.89-9.28-4.74-21.44-7.51-31.65c-0.13-0.49,0.55-0.75,0.78-0.29
				c4.34,8.81,7.95,17.78,12.06,25.7"/>
			
				<linearGradient id="SVGID_2_" gradientUnits="userSpaceOnUse" x1="268.7907" y1="366.2797" x2="271.2754" y2="366.2797" gradientTransform="matrix(1 0 0 -1 0 380)">
				<stop  offset="9.765625e-04" style="stop-color:#B1A9D3"/>
				<stop  offset="0.2029" style="stop-color:#9DD3D9"/>
				<stop  offset="0.3606" style="stop-color:#BEDCCE"/>
				<stop  offset="0.507" style="stop-color:#EAD4C8"/>
				<stop  offset="0.661" style="stop-color:#BDC3D2"/>
				<stop  offset="0.8236" style="stop-color:#D1A5CB"/>
				<stop  offset="0.9995" style="stop-color:#EEC5C5"/>
			</linearGradient>
			<path class="st12" d="M269.05,15.39c0.9-0.08,2.05-2.59,1.96-3.33"/>
			
				<linearGradient id="SVGID_3_" gradientUnits="userSpaceOnUse" x1="268.2925" y1="369.1229" x2="270.1504" y2="369.1229" gradientTransform="matrix(1 0 0 -1 0 380)">
				<stop  offset="9.765625e-04" style="stop-color:#B1A9D3"/>
				<stop  offset="0.2029" style="stop-color:#9DD3D9"/>
				<stop  offset="0.3606" style="stop-color:#BEDCCE"/>
				<stop  offset="0.507" style="stop-color:#EAD4C8"/>
				<stop  offset="0.661" style="stop-color:#BDC3D2"/>
				<stop  offset="0.8236" style="stop-color:#D1A5CB"/>
				<stop  offset="0.9995" style="stop-color:#EEC5C5"/>
			</linearGradient>
			<path class="st13" d="M268.55,12.26c0.72-0.06,1.4-2.2,1.34-2.77"/>
			
				<linearGradient id="SVGID_4_" gradientUnits="userSpaceOnUse" x1="267.4768" y1="371.4331" x2="269.176" y2="371.4331" gradientTransform="matrix(1 0 0 -1 0 380)">
				<stop  offset="9.765625e-04" style="stop-color:#B1A9D3"/>
				<stop  offset="0.2029" style="stop-color:#9DD3D9"/>
				<stop  offset="0.3606" style="stop-color:#BEDCCE"/>
				<stop  offset="0.507" style="stop-color:#EAD4C8"/>
				<stop  offset="0.661" style="stop-color:#BDC3D2"/>
				<stop  offset="0.8236" style="stop-color:#D1A5CB"/>
				<stop  offset="0.9995" style="stop-color:#EEC5C5"/>
			</linearGradient>
			<path class="st14" d="M267.73,9.59c0.64-0.07,1.25-1.61,1.18-2.05"/>
			
				<linearGradient id="SVGID_5_" gradientUnits="userSpaceOnUse" x1="267.0019" y1="373.4167" x2="268.3571" y2="373.4167" gradientTransform="matrix(1 0 0 -1 0 380)">
				<stop  offset="9.765625e-04" style="stop-color:#B1A9D3"/>
				<stop  offset="0.2029" style="stop-color:#9DD3D9"/>
				<stop  offset="0.3606" style="stop-color:#BEDCCE"/>
				<stop  offset="0.507" style="stop-color:#EAD4C8"/>
				<stop  offset="0.661" style="stop-color:#BDC3D2"/>
				<stop  offset="0.8236" style="stop-color:#D1A5CB"/>
				<stop  offset="0.9995" style="stop-color:#EEC5C5"/>
			</linearGradient>
			<path class="st15" d="M267.26,7.29c0.39-0.08,0.69-0.79,0.84-1.41"/>
			
				<linearGradient id="SVGID_6_" gradientUnits="userSpaceOnUse" x1="266.5941" y1="375.1526" x2="267.6214" y2="375.1526" gradientTransform="matrix(1 0 0 -1 0 380)">
				<stop  offset="9.765625e-04" style="stop-color:#B1A9D3"/>
				<stop  offset="0.2029" style="stop-color:#9DD3D9"/>
				<stop  offset="0.3606" style="stop-color:#BEDCCE"/>
				<stop  offset="0.507" style="stop-color:#EAD4C8"/>
				<stop  offset="0.661" style="stop-color:#BDC3D2"/>
				<stop  offset="0.8236" style="stop-color:#D1A5CB"/>
				<stop  offset="0.9995" style="stop-color:#EEC5C5"/>
			</linearGradient>
			<path class="st16" d="M266.85,5.29c0.25-0.09,0.42-0.46,0.51-0.88"/>
			
				<linearGradient id="SVGID_7_" gradientUnits="userSpaceOnUse" x1="269.4334" y1="363.6042" x2="272.417" y2="363.6042" gradientTransform="matrix(1 0 0 -1 0 380)">
				<stop  offset="9.765625e-04" style="stop-color:#B1A9D3"/>
				<stop  offset="0.2029" style="stop-color:#9DD3D9"/>
				<stop  offset="0.3606" style="stop-color:#BEDCCE"/>
				<stop  offset="0.507" style="stop-color:#EAD4C8"/>
				<stop  offset="0.661" style="stop-color:#BDC3D2"/>
				<stop  offset="0.8236" style="stop-color:#D1A5CB"/>
				<stop  offset="0.9995" style="stop-color:#EEC5C5"/>
			</linearGradient>
			<path class="st17" d="M269.69,18.33c0.9-0.08,2.7-2.73,2.44-3.87"/>
			
				<linearGradient id="SVGID_8_" gradientUnits="userSpaceOnUse" x1="270.1406" y1="360.2926" x2="273.7885" y2="360.2926" gradientTransform="matrix(1 0 0 -1 0 380)">
				<stop  offset="9.765625e-04" style="stop-color:#B1A9D3"/>
				<stop  offset="0.2029" style="stop-color:#9DD3D9"/>
				<stop  offset="0.3606" style="stop-color:#BEDCCE"/>
				<stop  offset="0.507" style="stop-color:#EAD4C8"/>
				<stop  offset="0.661" style="stop-color:#BDC3D2"/>
				<stop  offset="0.8236" style="stop-color:#D1A5CB"/>
				<stop  offset="0.9995" style="stop-color:#EEC5C5"/>
			</linearGradient>
			<path class="st18" d="M270.4,21.84c1.23-0.08,3.17-2.92,3.13-4.26"/>
			
				<linearGradient id="SVGID_9_" gradientUnits="userSpaceOnUse" x1="271.2041" y1="356.5808" x2="275.4874" y2="356.5808" gradientTransform="matrix(1 0 0 -1 0 380)">
				<stop  offset="9.765625e-04" style="stop-color:#B1A9D3"/>
				<stop  offset="0.2029" style="stop-color:#9DD3D9"/>
				<stop  offset="0.3606" style="stop-color:#BEDCCE"/>
				<stop  offset="0.507" style="stop-color:#EAD4C8"/>
				<stop  offset="0.661" style="stop-color:#BDC3D2"/>
				<stop  offset="0.8236" style="stop-color:#D1A5CB"/>
				<stop  offset="0.9995" style="stop-color:#EEC5C5"/>
			</linearGradient>
			<path class="st19" d="M271.46,25.63c1.21-0.08,3.83-2.39,3.77-4.42"/>
			
				<linearGradient id="SVGID_10_" gradientUnits="userSpaceOnUse" x1="272.203" y1="352.0727" x2="277.2502" y2="352.0727" gradientTransform="matrix(1 0 0 -1 0 380)">
				<stop  offset="9.765625e-04" style="stop-color:#B1A9D3"/>
				<stop  offset="0.2029" style="stop-color:#9DD3D9"/>
				<stop  offset="0.3606" style="stop-color:#BEDCCE"/>
				<stop  offset="0.507" style="stop-color:#EAD4C8"/>
				<stop  offset="0.661" style="stop-color:#BDC3D2"/>
				<stop  offset="0.8236" style="stop-color:#D1A5CB"/>
				<stop  offset="0.9995" style="stop-color:#EEC5C5"/>
			</linearGradient>
			<path class="st20" d="M272.46,30.79c1.21-0.08,4.59-3.7,4.53-5.73"/>
		</g>
	</g>
	<g>
		<path class="st21" d="M56.77,140.09l12.05,60.9c0,0,5.19-0.2,6.35-0.55c1.16-0.35,2.67-0.93,2.67-0.93s-5.91-10.9-9.86-22.27
			c-3.94-11.37-9.28-30.96-9.28-30.96L56.77,140.09z"/>
		<g>
			<path class="st22" d="M194.86,161.07c34.13,14.35,58.51,48.1,58.51,87.08c0,39.53-24.46,73.79-59.36,87.79"/>
			<path class="st22" d="M143.86,154.97c4.64-0.71,9.37-1.08,14.17-1.08c7.64,0,16.81,1.35,23.93,3.03"/>
			<path class="st22" d="M89.46,182.66c11.75-11.8,27.02-20.89,43.86-25.48"/>
		</g>
		<path class="st21" d="M83.61,334.06c2.84,5.2,9.27,6.3,14.59,7.06"/>
		<circle class="st21" cx="243.07" cy="221.5" r="1.32"/>
		<circle class="st21" cx="184.06" cy="282.61" r="1.32"/>
		<circle class="st21" cx="88.98" cy="229.67" r="1.32"/>
		<circle class="st21" cx="104.71" cy="240.28" r="0.72"/>
		<circle class="st21" cx="92.41" cy="298.94" r="0.72"/>
		<circle class="st21" cx="98.73" cy="296.04" r="0.72"/>
		<circle class="st21" cx="98.2" cy="305.34" r="0.72"/>
		<circle class="st21" cx="110.24" cy="291.83" r="0.72"/>
		<circle class="st21" cx="124.8" cy="309.21" r="0.72"/>
		<circle class="st21" cx="162.2" cy="290.25" r="0.72"/>
		<circle class="st21" cx="205.33" cy="319.22" r="0.72"/>
		<circle class="st21" cx="154.76" cy="299.47" r="0.72"/>
		<circle class="st21" cx="164.84" cy="301.38" r="0.72"/>
		<circle class="st21" cx="102.41" cy="261.01" r="0.72"/>
		<circle class="st21" cx="157.91" cy="238.88" r="0.72"/>
		<circle class="st21" cx="160.02" cy="245.74" r="0.72"/>
		<circle class="st21" cx="167.13" cy="249.42" r="0.72"/>
		<circle class="st21" cx="195.92" cy="275.42" r="0.72"/>
		<circle class="st21" cx="243.33" cy="234.15" r="0.72"/>
		<circle class="st21" cx="247.81" cy="242.05" r="0.72"/>
		<circle class="st21" cx="246.49" cy="252.06" r="0.72"/>
		<circle class="st21" cx="240.17" cy="245.74" r="0.72"/>
		<circle class="st21" cx="242.01" cy="270.76" r="0.72"/>
		<circle class="st21" cx="239.38" cy="258.11" r="0.72"/>
		<circle class="st21" cx="224.37" cy="266.81" r="0.72"/>
		<circle class="st21" cx="234.9" cy="267.33" r="0.72"/>
		<circle class="st21" cx="227.45" cy="289.19" r="0.72"/>
		<circle class="st21" cx="233.85" cy="292.88" r="0.72"/>
		<circle class="st21" cx="221.2" cy="303.68" r="0.72"/>
		<circle class="st21" cx="220.68" cy="310.27" r="0.72"/>
		<circle class="st21" cx="232.27" cy="299.54" r="0.72"/>
		<circle class="st21" cx="216.99" cy="319.22" r="0.72"/>
		<circle class="st21" cx="193.29" cy="330.73" r="0.72"/>
		<circle class="st21" cx="221.13" cy="283.13" r="0.72"/>
		<circle class="st21" cx="228.24" cy="284.19" r="0.72"/>
		<circle class="st21" cx="230.95" cy="257.51" r="0.72"/>
		<circle class="st21" cx="235.43" cy="283.85" r="0.72"/>
		<circle class="st21" cx="163.78" cy="315.61" r="0.72"/>
		<circle class="st21" cx="170.9" cy="315.8" r="0.72"/>
		<circle class="st21" cx="89.24" cy="237.04" r="0.72"/>
		<circle class="st21" cx="86.35" cy="223.68" r="0.72"/>
		<circle class="st23" cx="145.68" cy="268.19" r="8.76"/>
		<circle class="st23" cx="194.01" cy="313.69" r="8.76"/>
		<circle class="st23" cx="193.48" cy="195.69" r="5.93"/>
		<path class="st21" d="M94.81,313.89c-1.66-0.99-3.1-2.34-4.22-3.91"/>
		<path class="st21" d="M140.02,264.41c-0.97,2-0.85,4.49,0.31,6.38c1.16,1.89,3.32,3.14,5.54,3.19"/>
		<path class="st21" d="M196.72,188.29c2.76,1.1,4.58,4.19,4.2,7.14"/>
		<path class="st21" d="M206.96,224.91c-1.14,1.37-0.88,3.69,0.54,4.77"/>
		<path class="st21" d="M209.88,229.94c0.53-0.17,1.06-0.33,1.59-0.5"/>
		<path class="st21" d="M212.51,226.24c0.37-0.33,0.37-0.99,0-1.31"/>
		<path class="st21" d="M209.6,224.1c0.41-0.2,0.93-0.17,1.31,0.09"/>
		<path class="st21" d="M223.28,238.32c1.65-1.55,3.67-2.72,5.84-3.36"/>
		<path class="st21" d="M225.96,240.21c0.58-0.72,1.44-1.22,2.35-1.37"/>
		<path class="st21" d="M214.23,192.21c-0.32,0.63-0.06,1.43,0.42,1.95c0.49,0.51,1.15,0.81,1.8,1.09c0.45,0.19,0.96,0.39,1.42,0.21
			c0.49-0.2,0.73-0.79,0.66-1.31c-0.07-0.52-0.38-0.98-0.72-1.38c-0.45-0.52-1-0.99-1.66-1.15c-0.67-0.17-1.46,0.05-1.81,0.64"/>
		<path class="st21" d="M105.3,283.68c1.58,1.39,3.49,2.41,5.53,2.95"/>
		<path class="st21" d="M64.43,288.11c2.44,12.26,12.2,47.11,12.2,47.11s-1.88,0.43-3.96,0.6c-2.56,0.21-5.42,0.16-5.57,0.18
			c-0.27,0.03-1.15-0.06-1.15-0.06l-2.2-47.74C63.73,287.77,64.35,287.69,64.43,288.11z"/>
		<path class="st21" d="M250.13,331.48l4.35-50.13c-0.01-0.34,0.49-0.36,0.53-0.03l4.96,48.24l-2.19,0.69
			c-0.01,0-0.02,0.01-0.03,0.01l-2.58,0.58L250.13,331.48z"/>
	</g>
	<g>
		<path class="st4" d="M97.9,341.05c7.72-2.05,15.26-4.8,22.48-8.21l29.11-4.15l23.69,15.39c-23.15,9.13-48.23,18.72-71.77,26.8"/>
		<path class="st4" d="M102.12,345.41c0.07,0.15,0.14,0.31,0.2,0.47c0.51,1.38,0.89,2.84,1.31,4.25c0.91,3.05,1.71,6.16,1.98,9.34
			c0.14,1.59,0.14,3.2-0.07,4.78c-0.22,1.68-0.67,3.38-1.69,4.73s-2.68,2.32-4.36,2.12c-2.42-0.29-3.96-2.68-4.95-4.91
			c-2.04-4.65-3.16-9.7-3.28-14.77c-0.04-1.95,0.07-3.95,0.76-5.77c0.7-1.82,2.06-3.47,3.91-4.12c1.33-0.47,2.87,0.46,3.88,1.25
			C100.74,343.47,101.61,344.35,102.12,345.41z"/>
		<path class="st4" d="M176.48,325.55c9.75,8.1,22.25,13.48,34.86,14.74c1.99,0.2,4.4,0.59,5.13,2.45c0.3,0.76,0.23,1.61,0.11,2.42
			c-0.36,2.46-1.14,4.86-2.29,7.06c-0.58,1.1-1.24,2.16-1.99,3.15c-0.6,0.79-1.44,1.35-2.27,1.86c-1,0.62-1.73,0.37-2.8,0.18
			c-2.16-0.39-4.31-0.85-6.44-1.37c-4.26-1.05-8.46-2.38-12.55-3.96c-5.32-2.06-10.47-4.56-15.38-7.48
			c-3.45-2.05-6.82-4.32-10.63-5.55c-3.27-1.06-6.73-1.31-10.15-1.6c-19.61-1.67-39.59-4.65-57.09-13.65"/>
		<path class="st3" d="M195.72,343.65c3.35-3.5,7.44-6.3,11.92-8.15"/>
		<path class="st8" d="M205.62,335.74c-0.32-1.73,1.7-3.4,3.45-3.59c1.75-0.19,3.53,0.33,5.27,0.05c-0.47,0.74-0.94,1.48-1.4,2.21
			c-0.61,0.97-1.24,1.95-2.11,2.7c-0.87,0.75-2.04,1.24-3.17,1.03s-2.13-1.25-2.03-2.39"/>
		<path class="st3" d="M149.2,354.24c5.61,5.43,11.06,11.03,16.34,16.78"/>
		<path class="st3" d="M165.2,370.47c0.2-1.92,0.6-3.86,1.57-5.53c0.97-1.67,2.58-3.04,4.49-3.36c1.07-0.18,2.17-0.02,3.25-0.14
			c3.63-0.41,6.21-3.8,9.67-4.97c4.01-1.35,8.42,0.55,11.75,3.15c2.3,1.79,4.49,4.71,3.33,7.39c-0.95,2.19-3.68,2.97-6.07,2.99
			c-2.39,0.02-4.87-0.43-7.11,0.4c-2.02,0.75-3.54,2.44-5.37,3.59c-4.07,2.55-9.8,2.05-13.36-1.17"/>
		<path class="st3" d="M169.8,368.97c1-3.04,3.89-5.37,7.08-5.7c1.41-0.15,2.89,0.06,4.23-0.4c1.5-0.52,2.61-1.79,3.98-2.6
			c2.75-1.63,6.59-1.07,8.77,1.27c1.09,1.17,1.74,3.05,0.81,4.35c-0.26,0.36-0.61,0.64-1,0.86c-3.09,1.74-7.21-0.83-10.44,0.63
			c-2.01,0.91-3.12,3.15-5.02,4.27c-1.44,0.85-3.3,0.95-4.83,0.27"/>
		<path class="st3" d="M173.43,367.24c-0.75,0.54-0.76,1.75-0.16,2.45c0.6,0.7,1.62,0.92,2.53,0.76c0.91-0.16,1.72-0.63,2.49-1.14"
			/>
		<path class="st8" d="M187.77,361.55c-0.66-0.01-1.34,0-1.92,0.32c-0.57,0.32-0.96,1.07-0.65,1.65c0.28,0.52,0.95,0.66,1.54,0.74
			c1.02,0.14,2.03,0.29,3.05,0.44c0.66,0.1,1.55,0.05,1.72-0.59c0.06-0.23,0.01-0.48-0.08-0.7c-0.59-1.57-2.59-2.45-4.15-1.83"/>
		<path class="st3" d="M105.81,362.95c5.64-1.89,11.27-3.8,16.92-5.66c0.38-0.12,0.65,0.36,0.36,0.62c-1.13,1-2.55,1.65-3.92,2.27
			c-4.58,2.04-9.16,4.09-13.73,6.14"/>
		<path class="st3" d="M130.51,354.47c4.02-1.19,7.92-2.75,11.65-4.67"/>
		<path class="st8" d="M123.43,345c0.93,2.04,2.35,3.9,4.22,5.17c1.3,0.89,4.09,2.19,4.97,0.14c0.39-0.9-0.05-1.74-0.62-2.46
			c-0.92-1.15-2.09-2.2-3.5-2.69c-1.63-0.56-3.48-0.42-5.17-0.33C123.33,344.83,123.43,345,123.43,345z"/>
		<path class="st4" d="M175.48,328.32c0.82-1.63,1.53-3.89,0.13-5.05c-0.87-0.72-2.13-0.6-3.25-0.47
			c-9.16,1.08-18.93,0.5-27.92-1.58l-5.25-1.09c-5.04-3.32-11.24-5.82-17.12-7.2c-5.02-1.17-13.36-2.65-17.58-5.61l-9.72,16.38"/>
		<path class="st4" d="M102.3,306.54c-1.28,0.29-2.35,1.53-3.28,2.39c-1.3,1.21-2.5,2.54-3.47,4.03c-1.53,2.35-2.49,5.14-2.31,7.94
			c0.07,1.12,0.47,2.41,1.53,2.79c0.72,0.26,1.52,0,2.2-0.33c3.83-1.84,6.16-5.83,7.63-9.82c0.44-1.21,0.83-2.46,0.77-3.74
			c-0.06-1.41-0.82-3.27-2.44-3.32C102.72,306.47,102.51,306.5,102.3,306.54z"/>
		<path class="st4" d="M139.82,324.32c-0.31-4.24-1.78-8.39-4.19-11.89c-0.17-0.24-0.34-0.53-0.23-0.8c0.1-0.24,0.37-0.35,0.61-0.42
			c0.66-0.21,1.34-0.42,2.03-0.37c1.64,0.13,2.78,1.66,3.56,3.12c1.69,3.14,2.79,6.6,3.24,10.13"/>
	</g>
	<g>
		<g>
			<path class="st3" d="M123.16,114.64c-1.31-2.43-4.01-3.71-6.57-4.75c-3.06-1.25-6.17-2.39-9.31-3.43
				c-1.39-0.46-3.22-0.77-4.08,0.43c-0.66,0.92-0.3,2.2,0.12,3.26c2.33,5.91,5.67,11.42,9.83,16.22"/>
			<path class="st3" d="M77.63,108.42c-1.81,4.24-1.38,9.76-0.03,14.16c2.44,7.93,6.97,15.21,13.01,20.9
				c0.53,0.5,1.15,1.02,1.88,0.99c0.84-0.03,1.47-0.79,1.85-1.55c1.46-2.91,0.88-6.39,1.52-9.58c0.12-0.61,0.31-1.25,0.77-1.68
				c1.25-1.16,3.21,0.02,4.46,1.17c2.2,2.03,4.4,4.06,6.59,6.09l1.98,1.83c2.51,2.54,5.1,5.01,7.75,7.42
				c2.23,2.02,3.49,3.68,6.13,5.12s5.58,2.98,8.56,2.58"/>
			<path class="st3" d="M120.71,146.59c0.55-1.17,1.73-2.03,3.02-2.19"/>
			<path class="st3" d="M123.69,105.52c2.51-1.23,5.36-1.73,8.13-1.44c0.49,0.05,1.01,0.14,1.34,0.5c0.42,0.44,0.4,1.13,0.33,1.73
				c-0.31,2.64-1.21,5.21-2.62,7.47"/>
			<path class="st8" d="M120.09,119.23c-1.23,1.57-2.7,2.97-4.31,4.16c-0.25,0.19-0.53,0.38-0.85,0.39
				c-0.53,0.02-0.94-0.46-1.24-0.9c-1.55-2.25-2.84-4.68-3.82-7.24c-0.27-0.7-0.43-1.67,0.22-2.05c0.24-0.14,0.52-0.14,0.8-0.13
				c1.56,0.09,2.99,0.84,4.36,1.57c1.48,0.79,2.97,1.58,4.45,2.36C119.72,117.41,121.19,117.84,120.09,119.23z"/>
			<path class="st3" d="M127.32,131.65c-0.17,1.08,0.36,2.24,1.29,2.82c0.93,0.58,2.2,0.54,3.1-0.09"/>
			<path class="st4" d="M57.44,130.72c1.24-2.89,4.59-4.51,7.72-4.27c3.13,0.25,5.97,2.09,8,4.49c2.03,2.39,3.35,5.3,4.49,8.23
				c5.93,15.25,7.59,31.87,13.08,47.29c0.8,2.25,1.73,4.54,3.43,6.21c1.45,1.42,3.36,2.3,5.33,2.83c7.09,1.91,14.59-0.4,21.4-3.14
				c4.55-1.83,9.03-3.86,13.4-6.09c2.56,4.85,3.42,10.57,2.4,15.96l-3.05,1.82c-9.77,5.44-20.17,10.42-31.32,11.21
				c-5.44,0.38-11.38-0.45-15.31-4.24l-2.86-2.33c-2.35-2.21-4.07-5-5.65-7.81c-11.03-19.59-16.57-41.71-21.99-63.54"/>
			<path class="st3" d="M38.41,191.79c1.85-6.27,3.71-12.61,4.04-19.14c0.34-6.63-0.93-13.26-0.84-19.9
				c0.05-4.03,0.6-8.04,1.47-11.98c0.77-3.46,1.81-6.88,3.31-10.1c5.07-10.87,15.6-18.92,27.33-21.43l5.28-1.26
				c6.53-4.11,13.41-7.64,20.55-10.56c3.51-1.43,7.17-2.73,10.96-2.73c3.79,0,7.77,1.53,9.83,4.71c0.84,1.3,1.32,2.79,1.98,4.18
				c1.89,3.98,5.19,7.06,8.16,10.31c2.97,3.25,5.76,7.01,6.23,11.38c0.29,2.72-0.35,5.46-0.22,8.19c0.34,7.44,6.17,13.62,7.24,20.99
				c0.19,1.3,0.2,2.7-0.46,3.83c-1.07,1.8-3.59,2.27-5.58,1.63c-1.99-0.64-3.58-2.13-5.1-3.57c-3.67-3.49-7.33-6.99-11-10.48"/>
			<path class="st3" d="M101.5,133.46c0.62,14.68-4.77,32.98-13.12,45.07"/>
			<path class="st5" d="M65.74,336.2c9.24,0.37,18.29-1.57,26.74-5.32l0.89-0.43c-7.54-43.41-4.72-88.14-16.34-130.65
				c0,0-13.83,3.46-24.9-1.42c-11.06-4.88-13.73-6.86-13.73-6.86c-12.27,16.42-9.97,33.38-9.45,50.98
				c1.03,34.53,3.48,69.01,7.34,103.34c0.11,0.97,0.25,2,0.88,2.73c0.99,1.14,2.75,1.11,4.26,0.96c6.81-0.69,13.57-1.88,20.2-3.56
				c1.1-0.28,2.25-0.6,3.07-1.39c1.41-1.37,1.37-3.61,1.22-5.57c-3.11-42.64-3.75-85.46-1.92-128.17"/>
			<path class="st3" d="M91.26,349c-2.67,0.13-5.33,0.37-7.94,0.96c-1.61,0.37-3.2,0.87-4.85,0.96c-1.65,0.09-3.41-0.3-4.57-1.47
				c-1.23-1.25-1.55-3.11-1.74-4.84c-0.29-2.77-0.39-5.56-0.3-8.34"/>
			<path class="st3" d="M56.99,347.23c1.23,3,4.61,4.75,7.81,5.26c3.21,0.5,6.5,0.19,9.7,0.74c0.52,0.09,1.04,0.21,1.47,0.5
				c0.93,0.65,1.15,2.01,0.75,3.07c-0.41,1.06-1.3,1.86-2.24,2.5c-6.57,4.47-15.48,2.49-23.17,4.5c-1.68,0.44-3.32,1.07-5.06,1.19
				c-1.73,0.11-3.63-0.41-4.62-1.84c-0.93-1.34-0.84-3.11-0.7-4.72c0.29-3.13,0.52-5.83,1.01-8.94"/>
			<path class="st2" d="M38.7,190.51c-2.92-1.2-5.55-3.51-7.5-5.99c-7.23-9.23-11.38-20.72-12.41-32.4s1.01-23.54,5.22-34.49
				c-6.11,8.43-10.18,18.33-11.77,28.62c-0.85,5.5-0.97,11.3,1.11,16.46c-2.72-2.75-4.93-6-6.51-9.53
				c-0.1,7.08,2.82,14.15,7.87,19.11c-2.84-0.94-5.54-2.28-8.01-3.97c6.37,11.75,18.24,20.71,31.25,23.78"/>
			<path class="st2" d="M97.87,131.03c-0.14,1.92-0.27,3.85-0.41,5.77c-0.12,1.72-0.57,3.53-0.57,5.24
				c-0.56,3.29-1.68,7.63-4.63,9.63c-0.51,0.35-1.15,0.55-1.76,0.43c-0.75-0.15-1.32-0.74-1.78-1.34c-2.13-2.75-3.7-5.9-5.52-8.85
				c-3.04-4.91-5.33-10.2-7.88-15.37c-1.01-2.05-2.44-4.43-4.94-4.73c-1.58-0.19-8.29,1.58-9.99,2.19c-0.97,0.35-1.79-0.78-1.16-1.6
				c2.01-2.6,3.91-5.36,6.3-7.64c2.47-2.37,5.42-4.08,8.62-5.27c1.14-0.42,2.3-0.81,3.48-1.07c0,0-2.43,7.96,0.79,15.69
				c1.54,3.69,3.35,7.4,5.54,10.75c2.18,3.33,4.66,6.69,7.81,9.17c0.62,0.49,1.32,0.61,1.95,0.02c0.34-0.32,0.56-0.75,0.74-1.18
				c1.18-2.86,1.09-6.06,1.39-9.13c0.06-0.63,0.15-1.28,0.47-1.83c0.32-0.55,0.92-0.98,1.55-0.91
				C97.87,131.01,97.87,131.02,97.87,131.03z"/>
			<g>
				<circle class="st24" cx="90.03" cy="157.58" r="1.5"/>
				<g>
					<line class="st25" x1="89.92" y1="156.92" x2="90.16" y2="158.24"/>
					<line class="st25" x1="89.39" y1="157.74" x2="90.69" y2="157.42"/>
				</g>
			</g>
			<g>
				<circle class="st24" cx="88.09" cy="166.65" r="1.5"/>
				<g>
					<line class="st25" x1="87.97" y1="165.99" x2="88.22" y2="167.31"/>
					<line class="st25" x1="87.44" y1="166.81" x2="88.75" y2="166.49"/>
				</g>
			</g>
			<path class="st21" d="M55.53,271.59c1.54,2.09,4.55,2.94,6.95,1.96"/>
			<path class="st21" d="M80.88,267.98c1.38,1.73,3.78,2.57,5.93,2.09"/>
			<path class="st21" d="M56.49,135.4c-0.11-0.98,0.04-1.98,0.44-2.88"/>
			<path class="st4" d="M136.49,133.47c0.34,7.44,6.17,13.62,7.24,20.99c0.19,1.3,0.2,2.7-0.46,3.83c-1.07,1.8-3.59,2.27-5.58,1.63
				c-1.99-0.64-3.58-2.13-5.1-3.57c-3.67-3.49-7.33-6.99-11-10.48"/>
			<path class="st4" d="M142.74,159.09c-2.6-0.73-3.91-2.79-4.02-4.71c-0.1-1.63,2.04-2.99,3.53-3.65c0,0,0.94-0.23,1.31,2.55
				c0.37,2.79,0.46,4.11,0.09,4.57C143.29,158.32,142.74,159.09,142.74,159.09z"/>
			<path class="st26" d="M127.54,120.88c1.72-1.38,3.67-2.47,5.75-3.2"/>
			<path class="st26" d="M129.44,122.77c1.2-1.54,2.87-2.72,4.72-3.33"/>
		</g>
		<path class="st3" d="M122.07,102.54c1.07-5.54-0.37-11.27-2.43-16.52c-2.06-5.25-4.74-10.27-6.35-15.68
			c-3.21-10.82-2.15-23.22-8.63-32.45c-1.15-1.64-2.52-3.14-3.43-4.92c-1.42-2.78-1.61-6.01-1.76-9.12"/>
		<path class="st3" d="M96.21,46.47c1.11,4.34,3.62,8.32,7.06,11.19c1.02,0.85,2.13,1.62,2.99,2.64c1.23,1.47,1.85,3.34,2.71,5.05
			s2.12,3.41,3.97,3.92"/>
		<path class="st3" d="M119.24,84.99c-0.77-3.98,1.49-8,1.08-12.03c-0.16-1.57-0.72-3.06-1.01-4.61c-0.29-1.55-0.3-3.25,0.55-4.57"
			/>
		<path class="st3" d="M50.72,50.21c3.24,1.63,6.48,3.27,9.71,4.9c2.1,1.06,4.21,2.13,5.99,3.66c2.08,1.78,3.62,4.11,5.1,6.41
			c2.57,4,5.16,8.16,9.06,10.88c2.91,2.03,6.38,3.13,9.29,5.16c2.75,1.92,4.87,4.57,6.95,7.19c4.96,6.24,9.92,12.48,14.88,18.71
			l1.01,1.29"/>
		<path class="st3" d="M64.65,47.52c2.05,2.58,4.15,5.23,5.18,8.36c1.06,3.24,0.92,6.8,2.11,9.99"/>
		<path class="st3" d="M71.54,77.5c2.41,2.1,5.13,4.31,8.32,4.26c1.46-0.02,2.86-0.53,4.31-0.65c3.49-0.28,6.72,1.7,9.67,3.6"/>
		<path class="st3" d="M102.58,82.95c1.08,0.89,1.32,2.45,1.18,3.84c-0.14,1.39-0.59,2.75-0.58,4.14c0.02,1.73,0.73,3.54,0.06,5.13"
			/>
		<path class="st8" d="M104.08,96.91c1.78,1.77,3.57,3.54,5.35,5.31c1.07,1.06,2.14,2.13,3.21,3.19c0.62,0.62,1.33,1.16,1.91,1.82
			c0.27,0.31,1.31,1.71,0.87,2.16c-0.26,0.26-3.49-1.22-3.49-1.22L104.08,96.91z"/>
		<path class="st8" d="M123.15,105.05c0,0,0.52-4.25,0.13-5.82c-0.22-0.88-0.61-2.78-0.9-4.27c-0.05-0.24-0.41-0.21-0.41,0.04v7.96
			L123.15,105.05z"/>
		<path class="st3" d="M81.31,113.27c1.13-0.59,2.26-1.18,3.38-1.78c0.21-0.11,0.43-0.22,0.59-0.4c0.2-0.22,0.29-0.51,0.4-0.78
			c0.69-1.8,2.05-3.32,3.76-4.21c-0.41,0.86-0.53,1.86-0.35,2.8c0.85-1.28,2-2.35,3.33-3.1c-0.14,0.63-0.25,1.27-0.31,1.91
			c1.73-1.17,3.55-2.22,5.43-3.13"/>
		<g>
			<path class="st8" d="M100.07,30.57c0.24-0.68-0.09-1.48-0.67-1.92c-0.58-0.44-1.34-0.56-2.06-0.48c0.01,0.67,0.21,1.36,0.65,1.86
				c0.44,0.51,1.38,0.71,2.04,0.57"/>
		</g>
		<g>
			<path class="st9" d="M69.28,53.87c-0.17-0.7-0.88-1.19-1.6-1.25c-0.72-0.06-1.43,0.26-2,0.71c0.37,0.56,0.91,1.03,1.56,1.21
				s1.55-0.15,2.02-0.62"/>
		</g>
		<g>
			<path class="st9" d="M110.13,50.91c0.7,0.16,1.46-0.25,1.83-0.87c0.37-0.62,0.41-1.4,0.26-2.1c-0.67,0.08-1.33,0.35-1.78,0.85
				c-0.45,0.49-0.55,1.45-0.35,2.09"/>
		</g>
		<g>
			<path class="st9" d="M82.52,77.03c0.58-0.44,0.74-1.28,0.51-1.96c-0.23-0.68-0.81-1.21-1.45-1.55c-0.37,0.56-0.58,1.24-0.49,1.91
				c0.09,0.67,0.76,1.36,1.38,1.61"/>
		</g>
		<g>
			<path class="st9" d="M103.79,88.02c0.08-0.72-0.42-1.42-1.08-1.72c-0.66-0.3-1.43-0.25-2.12-0.01c0.16,0.65,0.5,1.28,1.05,1.67
				c0.54,0.39,1.5,0.38,2.11,0.1"/>
		</g>
		<g>
			<path class="st21" d="M135.9,189.5c0.21-0.94,0.85-5.11,2.18-4.99c0.45,0.04,0.71,0.54,0.78,0.99c0.18,1.12-0.23,2.24-0.64,3.29
				c1.84-1.35,3.49-2.96,4.89-4.77c0.49-0.63,1.11-1.68,1.92-1.93c0.13-0.04,0.29-0.02,0.37,0.09c0.05,0.06,0.06,0.15,0.07,0.23
				c0.25,1.71-0.22,3.43-1.13,4.89c-0.9,1.46-2.18,2.64-3.53,3.7"/>
			<path class="st21" d="M145.17,185.9c0.44-0.47,0.96-0.88,1.43-1.32c0.08-0.07,0.46-0.38,0.57-0.37c0.11,0.01,0.2,0.1,0.23,0.21
				c0.03,0.11,0.02,0.22,0.01,0.33c-0.45,3.34-2.7,6.66-5.53,8.5"/>
			<path class="st21" d="M146.14,188.62c0.47-0.76,1.3-1.58,1.95-2.19c0.17-0.16,0.38-0.33,0.6-0.27c0.38,0.1,0.34,0.64,0.21,1
				c-1.17,3.2-3.33,6.04-6.1,8.02"/>
			<path class="st21" d="M146.86,191.06c0.25-0.6,1.66-1.79,2.29-1.95c0.93-0.24,1.04,0.49,0.79,1.22
				c-0.86,2.52-2.94,4.72-4.99,6.34c-2.11,1.67-4.72,2.77-7.41,2.82"/>
		</g>
	</g>
</g>
</svg>
