<?xml version="1.0" encoding="UTF-8"?>
<svg width="83px" height="34px" viewBox="0 0 83 34" version="1.1" xmlns="http://www.w3.org/2000/svg" xmlns:xlink="http://www.w3.org/1999/xlink">
    <title>BAZ logo</title>
    <g id="Assets" stroke="none" stroke-width="1" fill="none" fill-rule="evenodd" opacity="0.6">
        <g id="Artboard" transform="translate(-483.000000, -526.000000)" fill="#1A1A1A" fill-rule="nonzero">
            <g id="BAZ-logo" transform="translate(483.000000, 526.000000)">
                <path d="M17.05279,0.0106001559 C7.63545853,0.0106001559 0.00265951185,7.61886204 0.00265951185,17 C0.00265951185,26.383788 7.63545853,33.9893998 17.05279,33.9893998 C26.4701215,33.9893998 34.1029205,26.383788 34.1029205,17 C34.1029205,7.61886204 26.4701215,0.0106001559 17.05279,0.0106001559 M24.4834661,20.6385035 C24.4834661,23.3044427 22.2973474,24.9262666 18.5713713,24.9262666 L11.6007907,24.9262666 L11.6007907,22.371629 L11.5981312,22.371629 L11.5981312,19.6420889 L11.6007907,19.6420889 L14.7363552,19.6420889 L14.7363552,21.4573655 L18.0820211,21.4573655 C19.4197556,21.4573655 20.1564403,20.945908 20.1564403,20.0342946 L20.1564403,19.989244 C20.1564403,19.1438815 19.4889029,18.5900234 18.0368094,18.5900234 L17.5687353,18.5847233 L8.42533355,18.5847233 L8.42533355,15.571629 L17.4570358,15.571629 C18.7734942,15.571629 19.5314551,15.1290725 19.5314551,14.214809 L19.5314551,14.1697584 C19.5314551,13.3031956 18.839982,12.8367888 17.5687353,12.8367888 L14.7363552,12.8367888 L14.7363552,14.4374123 L11.6007907,14.4374123 L11.5981312,14.4374123 L11.5981312,11.7078722 L11.6007907,11.7078722 L11.6007907,9.3705378 L18.5261596,9.3705378 C20.4888793,9.3705378 21.8718255,9.86079501 22.7866976,10.7485581 C23.4116829,11.3925175 23.7893335,12.2140296 23.7893335,13.2819953 L23.7893335,13.327046 C23.7893335,15.1264224 22.762762,16.1943882 21.3798158,16.793297 C23.2760477,17.4160561 24.4808066,18.4840218 24.4808066,20.5934528 L24.4808066,20.6385035 L24.4834661,20.6385035 Z" id="Shape"></path>
                <path d="M41.0362679,9.72034295 L48.4749226,9.72034295 C50.2993477,9.72034295 51.5838919,10.1734996 52.4322762,11.0003118 C53.0120498,11.5992206 53.3657649,12.3624318 53.3657649,13.3535464 L53.3657649,13.393297 C53.3657649,15.0654716 52.4136596,16.0565861 51.1291154,16.6130943 C52.8897122,17.1908028 54.0093667,18.1819174 54.0093667,20.1429462 L54.0093667,20.1853468 C54.0093667,22.6631333 51.9774997,24.1710055 48.5174748,24.1710055 L41.0362679,24.1710055 L41.0362679,9.72034295 Z M49.4084112,14.1803585 C49.4084112,13.3747467 48.7674689,12.9427903 47.5839861,12.9427903 L44.9537289,12.9427903 L44.9537289,15.4815277 L47.4802651,15.4815277 C48.7036406,15.4815277 49.4084112,15.0681216 49.4084112,14.2227592 L49.4084112,14.1803585 Z M48.020146,18.2879189 L44.9537289,18.2879189 L44.9537289,20.9512081 L48.0626982,20.9512081 C49.3046903,20.9512081 49.9881848,20.4768511 49.9881848,19.6288387 L49.9881848,19.586438 C49.9881848,18.8046765 49.365859,18.2879189 48.020146,18.2879189" id="Shape"></path>
                <polygon id="Path" points="70.0169686 21.2612627 77.288074 13.0858924 70.2643032 13.0858924 70.2643032 9.72034295 82.8198586 9.72034295 82.8198586 12.6115355 75.5460937 20.7869057 82.8198586 20.7869057 82.8198586 24.1736555 70.0169686 24.1736555"></polygon>
                <path d="M68.8547619,21.2983632 L68.8547619,21.2983632 L63.9133889,9.85549493 L60.0358206,9.85549493 L53.8790506,24.4174591 L58.0863984,24.4174591 L59.123608,21.6428683 L64.7404971,21.6428683 L65.7777067,24.4174591 L68.8574214,24.4174591 L68.8547619,21.2983632 Z M60.3070908,18.5237724 L61.9453501,14.4347623 L63.5623333,18.5237724 L60.3070908,18.5237724 Z" id="Shape"></path>
            </g>
        </g>
    </g>
</svg>