<?xml version="1.0" encoding="UTF-8"?>
<svg width="99px" height="45px" viewBox="0 0 99 45" version="1.1" xmlns="http://www.w3.org/2000/svg" xmlns:xlink="http://www.w3.org/1999/xlink">
    <title>logo_Burgeon</title>
    <defs>
        <path d="M0.0209385404,0.781568389 C0.0757008767,0.590589666 0.178782922,0.553677812 0.283475624,0.553677812 C0.355955186,0.553677812 0.430045406,0.571331307 0.494471684,0.571331307 C4.11522851,0.564911854 7.73437468,0.534419453 11.3551315,0.584170213 C13.0495426,0.609848024 14.4733634,1.34487538 15.6072659,2.63037082 C16.7766028,3.95117325 16.7685495,6.91375076 14.1882771,7.77235258 C13.5327397,7.99382371 12.8610958,8.17356839 12.0283861,8.42553191 C13.1171902,8.65823708 14.0094942,8.8973617 14.8454251,9.32265046 C16.3594427,10.0929848 17.2469146,11.2837933 17.2904024,12.9977872 C17.3306688,14.6604255 16.3594427,15.7629666 15.0403146,16.5926809 C14.1029123,17.1704316 13.0624279,17.4336292 11.9575172,17.4336292 L0.744123512,17.4336292 C0.6023857,17.4336292 0.462258545,17.4384438 0.318910076,17.4304195 C0.177172265,17.4288146 0.00483197086,17.4207903 -0.000172259095,17.2394407 C-0.00644262781,17.0548815 0.16911898,17.0436474 0.310856792,17.0404377 C0.803717819,17.0356231 1.29657885,17.0356231 1.79105053,17.0324134 C2.1437844,17.0324134 2.49007565,16.9601945 2.83636689,16.9280973 C3.45646982,16.8751368 3.63364208,16.5268815 3.63364208,15.9844377 C3.63364208,15.2542249 3.63364208,14.5208024 3.63364208,13.7905897 C3.63364208,9.91484498 3.63364208,6.03749544 3.63364208,2.16335562 C3.63364208,1.2742614 3.42586734,1.056 2.5255101,0.983781155 C1.69924308,0.913167173 0.868144097,0.850577508 0.0209385404,0.781568389 Z M6.86623059,7.68568997 C6.85978796,8.05159878 6.94837409,8.23776292 7.33493176,8.23776292 C7.34781701,8.23776292 7.36070227,8.23776292 7.37519818,8.23776292 C7.7263214,8.2297386 8.07744461,8.23615805 8.43017849,8.24257751 C8.99390842,8.25220669 9.55924901,8.26183587 10.1197576,8.21208511 C11.334193,8.10455927 12.4052798,7.70334347 12.8772023,6.39217021 C13.2154403,5.44369605 13.1526247,4.47435866 13.0366574,3.52427964 C12.8610958,2.08632219 12.0670419,1.1651307 10.5836268,0.929215805 C9.55280638,0.770334347 8.52037528,0.837738602 7.4943868,0.871440729 C7.00313643,0.892303951 6.87106256,1.29512462 6.87267321,1.7412766 C6.87750518,2.71061398 6.87267321,3.6783465 6.87267321,4.64447416 C6.87267321,5.66035258 6.8807265,6.67302128 6.86623059,7.68568997 Z M7.62001804,17.001921 C8.37219484,17.072535 9.12759295,17.1752462 9.88621237,17.1752462 C10.1117043,17.1752462 10.3371963,17.1672219 10.5626883,17.1447538 C12.0203328,17.0115502 13.1735632,16.4225653 13.6954161,14.9412766 C13.9917769,14.0955137 13.9933876,13.2176535 13.9160761,12.3510274 C13.766285,10.6354286 13.0398787,8.9455076 10.6818769,8.60688146 C10.0553314,8.51861398 9.4287858,8.52503343 8.80224024,8.53145289 C8.3512563,8.53626748 7.90027235,8.54108207 7.45089906,8.5089848 C6.96931263,8.47688754 6.85334533,8.6791003 6.86461993,9.12685714 C6.88716913,10.2582857 6.87267321,11.3913191 6.87267321,12.5275623 C6.87267321,13.7055319 6.88716913,14.8883161 6.86623059,16.0678906 C6.85656664,16.6215684 7.12554636,16.9521702 7.62001804,17.001921 Z" id="path-1"></path>
        <path d="M7.99046914,2.71542857 C7.958256,1.42190881 8.41568257,0.903537994 9.4996547,0.903537994 C9.52381456,0.903537994 9.55119572,0.905142857 9.57696624,0.905142857 C10.3549135,0.921191489 10.667381,1.24858359 10.6689916,1.96114286 C10.6689916,2.59345897 10.2856553,2.80530091 9.77346638,2.81974468 C9.15336346,2.83579331 8.84089601,2.34951976 8.91015426,1.53103951 C8.33353907,1.73164742 8.32226447,2.24199392 8.2836087,2.66888754 C8.23689965,3.11022492 8.13059629,3.60612766 8.69432623,3.90623708 C9.49160142,4.32510638 10.0601633,4.97828571 10.3420283,5.85293617 C10.7897909,7.24274772 10.3420283,8.53626748 9.13081426,9.39326444 C7.53465322,10.5166687 5.79675437,10.677155 3.96543742,10.1154529 C3.08279741,9.85065046 2.01815316,10.1892766 1.67347257,10.8504802 C1.3207387,11.5213131 1.46408717,11.9369726 2.1888828,12.1295562 C3.03125638,12.3510274 3.90262179,12.3510274 4.76915523,12.3911489 C5.15410225,12.4088024 5.54065991,12.4071976 5.92721758,12.4039878 C6.82596416,12.4007781 7.7263214,12.3943587 8.61862535,12.636693 C9.7654131,12.9512462 10.6399998,13.5225775 10.939582,14.7390638 C11.3084225,16.2460304 10.9379714,17.5684377 9.74769587,18.5570334 C8.85861324,19.2952705 7.78430505,19.6162432 6.61013613,19.6387112 C4.97370867,19.6643891 3.37271566,19.5857508 1.89252192,18.7720851 C1.38355432,18.4928389 0.971226142,18.1060669 0.626545554,17.6615198 C0.0885861324,16.9650091 0.328574018,16.0117204 1.14517709,15.5655684 C1.65092338,15.2911368 2.19371477,15.0841094 2.81059638,14.8032584 C1.48663637,14.185386 0.439709348,13.43431 0.652316066,11.8214225 C0.819824389,10.5648146 1.5864971,9.88274772 2.83475624,9.67893009 C1.07108687,8.03394529 0.819824389,6.16106991 2.26297302,4.65249848 C3.62397814,3.2289848 5.31999991,2.63679027 7.26567351,3.27231611 C7.89382972,3.47292401 8.00979702,3.33490578 7.99046914,2.71542857 Z M5.65662722,10.1266869 C5.74199203,10.1331064 5.8257462,10.1363161 5.90627904,10.1363161 C6.99830446,10.1363161 7.71021483,9.54572644 7.9695306,8.36133739 C8.235289,7.12880243 8.24656359,5.88824316 7.84551001,4.67175684 C7.5539811,3.80834043 6.8581773,3.32688146 5.91433233,3.31725228 C5.05585217,3.30922796 4.3439418,3.81315502 4.03469566,4.6428693 C3.76893727,5.36345289 3.69323639,6.10329483 3.75444135,6.91696049 C3.75444135,7.24274772 3.73511347,7.61989058 3.75444135,7.99542857 C3.83819552,9.28092401 4.52111406,10.0384195 5.65662722,10.1266869 Z M3.73833479,19.0721945 C4.50500749,19.2984802 5.28617612,19.3739088 6.06895539,19.3739088 C6.45390241,19.3739088 6.84046007,19.3562553 7.22540709,19.3289726 C7.95664534,19.277617 8.63795323,18.9775076 9.19362988,18.4719757 C9.81695412,17.9070638 10.0843232,17.1752462 9.91037223,16.3631854 C9.73964259,15.5607538 9.19362988,15.1033678 8.36092024,14.9204134 C7.84067804,14.8096778 7.32526782,14.8160973 6.80824694,14.8225167 C6.60208285,14.8257264 6.3943081,14.8289362 6.18814401,14.8225167 C5.60186488,14.8225167 5.01236443,14.8128875 4.42769596,14.8273313 C4.19898267,14.8401702 3.96704807,14.9155988 3.73994544,14.9733739 C2.6189282,15.2702736 2.1888828,15.8191368 2.1888828,16.9264924 C2.1888828,18.1108815 2.66724791,18.7528267 3.73833479,19.0721945 Z" id="path-3"></path>
        <path d="M7.89544038,0.482528875 C7.18191935,0.529069909 6.65362387,0.805106383 6.23968503,1.38767173 C5.84185276,1.94134954 5.56804108,2.55119757 5.2716802,3.1738845 C5.2716802,2.47095441 5.25718429,1.76962918 5.27812283,1.07311854 C5.29261874,0.660668693 5.19597933,0.447221884 4.73372078,0.495367781 C3.47257639,0.612522796 2.21304265,0.69918541 0.953508916,0.813130699 C0.795664534,0.825969605 0.555676648,0.842018237 0.594332415,1.19990274 C0.914853149,1.19990274 1.24020585,1.18706383 1.56555856,1.20311246 C2.59798966,1.23841945 2.74778076,1.39569605 2.75100207,2.41317933 C2.75422339,4.82528875 2.75100207,7.23739818 2.75100207,9.6495076 C2.75100207,11.2238784 2.75100207,11.2238784 1.17739023,11.2928875 C1.13551315,11.2944924 1.08719344,11.2912827 1.04048439,11.2896778 C0.860090812,11.275234 0.66036935,11.264 0.665201321,11.4934954 C0.674865263,11.7165714 0.877808039,11.7021277 1.05659096,11.6876839 C1.10491067,11.6844742 1.15161972,11.6796596 1.19188614,11.6796596 C2.91045711,11.6876839 4.62580677,11.6957082 6.34276708,11.674845 C6.41363598,11.6732401 6.50061146,11.686079 6.59080825,11.6973131 C6.85334533,11.7342249 7.13843161,11.7711368 7.15131687,11.4581884 C7.15614884,11.2479514 6.90166504,11.2672097 6.65201321,11.2864681 C6.54570985,11.2928875 6.43779584,11.3025167 6.35243102,11.2896778 C5.85795933,11.2238784 5.27651217,11.2463465 5.28778677,10.5466261 C5.3167786,8.49400608 5.09772925,6.4333617 5.43435656,4.39197568 C5.62119276,3.27017629 5.94654547,2.1660304 6.77764445,1.33150152 C7.75048125,0.355744681 8.91820754,0.713629179 9.26933076,2.04566565 C9.3611382,2.39392097 9.38046609,2.74057143 9.38046609,3.0952462 C9.38690872,5.31798176 9.38690872,7.53911246 9.38690872,9.76184802 C9.38690872,11.2238784 9.38690872,11.2206687 7.95664534,11.2928875 C7.91476826,11.2944924 7.86644855,11.2912827 7.81651819,11.2896778 C7.63773527,11.275234 7.43962446,11.2607903 7.4492884,11.4934954 C7.45734169,11.780766 7.78108373,11.6780547 7.97275191,11.6780547 C9.66716303,11.6876839 11.3631848,11.6973131 13.0527639,11.6700304 C13.1300755,11.6700304 13.2267149,11.6844742 13.324965,11.6989179 C13.6084406,11.7422492 13.9160761,11.7855805 13.9273507,11.4581884 C13.9354039,11.2270881 13.6422644,11.252766 13.3636207,11.2784438 C13.2573174,11.2896778 13.1526247,11.299307 13.0688705,11.2928875 C12.042882,11.2383222 11.9091975,11.1067234 11.9091975,10.0587477 C11.9091975,7.83601216 11.8979229,5.61488146 11.9124188,3.39375076 C11.9172508,2.82562918 11.7722917,2.32651672 11.4517709,1.86271125 C10.6899302,0.75856535 9.62528594,0.46487538 8.4333998,0.46487538 C8.25783819,0.46487538 8.07744461,0.471294833 7.89544038,0.482528875 Z" id="path-5"></path>
        <path d="M5.74360269,0.463270517 C5.74521335,0.463270517 5.746824,0.463270517 5.74843466,0.463270517 C7.87128052,0.463270517 9.90715091,1.83061398 10.6706023,3.96508207 C11.6482711,6.67890578 10.7930122,9.91431003 7.86805921,11.3715258 C5.5712624,12.5206079 2.61409623,11.6347234 1.29013622,9.40235866 C0.69741446,8.40252888 0.378504384,7.34171429 0.45420526,6.21670517 C0.291528908,3.41461398 2.21948528,1.2929848 4.35682705,0.662273556 C4.81586429,0.527465046 5.28134415,0.463270517 5.74360269,0.463270517 Z M3.53700267,9.86134954 C3.88973654,11.1195623 4.43091727,11.5512705 5.54065991,11.568924 C5.56965174,11.568924 5.59864356,11.568924 5.62602473,11.568924 C6.86461993,11.568924 7.44123512,11.1628936 7.82457147,9.93035866 C8.5155433,7.75095441 8.37863746,5.51537994 8.11287907,3.28782979 C8.05972739,2.85130699 7.93409615,2.40355015 7.75370257,2.00393921 C7.39613672,1.20953191 6.7760338,0.773009119 5.87245525,0.761667942 C4.94954881,0.755355623 4.22153187,1.03620669 3.81081435,1.93332523 C3.19876471,3.2830152 3.13594909,4.71134347 3.11984252,6.74631003 C3.10856792,7.40590881 3.19554339,8.65288754 3.53700267,9.86134954 Z" id="path-7"></path>
        <path d="M4.5758764,0.675112462 C5.03813495,0.525860182 5.5148894,0.455246201 5.98842255,0.455246201 C8.11448972,0.455246201 10.2131757,1.88357447 10.9331394,3.97792097 C11.9784558,7.00790274 10.8397213,10.0186261 8.14026024,11.3779453 C5.60991816,12.648997 2.2597517,11.3602918 1.18544352,8.71868693 C0.853648185,7.8953921 0.653926722,7.0576535 0.740902198,6.26164134 C0.549234021,3.48683283 2.45303054,1.35878419 4.5758764,0.675112462 Z M5.77259452,11.568924 C5.81286094,11.5705289 5.85151671,11.5705289 5.89178313,11.5705289 C7.13359964,11.5705289 7.76497717,11.1388207 8.11771104,9.90789058 C8.79096564,7.52787842 8.71687542,5.10613982 8.24817425,2.70847416 C7.97919454,1.33150152 7.25762023,0.779428571 6.1172751,0.768194529 C4.84002414,0.755355623 4.22475318,1.2496535 3.80115041,2.67958663 C3.4532485,3.87039514 3.39204354,5.09490578 3.42264602,6.36595745 C3.38721157,7.50380547 3.4645231,8.67856535 3.77054792,9.82604255 C4.09267931,11.0200608 4.71922487,11.5464559 5.77259452,11.568924 Z" id="path-9"></path>
        <path d="M3.17943682,1.06509422 C3.82208895,0.678322188 4.60647888,0.472899696 5.40375407,0.472899696 C6.93387818,0.472899696 8.51232199,1.23681459 9.22101105,2.95883283 C9.58824083,3.8415076 9.73803193,4.76109422 9.82500741,5.70154407 C9.8701058,6.18139818 9.67521631,6.30978723 9.22101105,6.30336778 C8.36897352,6.2937386 7.51693599,6.29534347 6.66489847,6.29694833 C5.72910678,6.29855319 4.79492575,6.30015805 3.86235537,6.28731915 C3.35499843,6.27768997 3.14722368,6.4028693 3.16655157,6.95333739 C3.19554339,7.80231003 3.23903113,8.64486322 3.46291245,9.46976292 C4.03952764,11.5753435 5.79031174,12.0118663 7.54753848,11.0393191 C8.79418696,10.3508328 9.394962,9.22421884 9.55763835,7.83440729 C9.57535558,7.68675988 9.48193748,7.49738602 9.69132288,7.40751368 C9.9860731,8.24204255 9.59951543,9.45371429 8.85217061,10.3508328 C6.67456241,12.953921 2.05358761,12.1771672 0.779557965,8.6416535 C-0.281864967,5.70154407 0.779557965,2.50305167 3.17943682,1.06509422 Z M3.06669084,5.30674772 C3.00709653,5.75771429 3.20198602,5.89894225 3.58532237,5.89894225 C3.6143142,5.89894225 3.64491668,5.89733739 3.67551916,5.89573252 C4.02825304,5.87647416 4.38259757,5.88128875 4.73855275,5.88449848 C4.92538896,5.88610334 5.11222517,5.88770821 5.30067203,5.88610334 C5.8853405,5.88610334 6.47484095,5.87647416 7.06273073,5.88931307 C7.39774738,5.89733739 7.58136227,5.82030395 7.58136227,5.42229787 C7.59263687,4.25716717 7.47022694,3.10968997 7.06273073,2.02319757 C6.57148036,0.707209726 5.53260663,0.408705167 4.36326968,1.18706383 C3.89456851,1.50161702 3.67068719,2.0087538 3.49190427,2.52070517 C3.18104748,3.42103343 3.19554339,4.37592705 3.06669084,5.30674772 Z" id="path-11"></path>
        <path d="M6.89844373,1.02015805 C6.24129569,1.54976292 5.94332415,2.32009726 5.51327875,3.23968389 C5.51327875,2.42601824 5.47301232,1.81617021 5.52294269,1.21595137 C5.57609437,0.588449848 5.32161057,0.427963526 4.75143801,0.513021277 C3.66102325,0.681531915 2.56094455,0.760170213 1.4592552,0.785848024 C1.13068118,0.792267477 0.806939133,0.813130699 0.525074166,1.19990274 C0.958340886,1.19990274 1.38999695,1.18706383 1.8184317,1.20632219 C2.82348164,1.24483891 3.09729332,1.53531915 3.10051463,2.54638298 C3.10373595,4.72418237 3.12628514,6.89877204 3.09568266,9.0733617 C3.07313346,10.9398176 3.55955186,11.3233799 1.06142293,11.2928875 C0.885861324,11.2928875 0.608828328,11.2335076 0.616881613,11.4934954 C0.626545554,11.7518784 0.901967893,11.6796596 1.07914016,11.6796596 C2.30001813,11.6876839 3.52411741,11.6828693 4.74660604,11.6828693 C5.73554941,11.6828693 6.72449277,11.6876839 7.71021483,11.6796596 C7.8648379,11.6796596 8.08871921,11.7005228 8.06133804,11.4581884 C8.04362082,11.2928875 7.85517395,11.2928875 7.71665746,11.2928875 C7.29305468,11.2848632 6.8694519,11.2848632 6.44423846,11.2768389 C5.81608225,11.2656049 5.50039349,10.9494468 5.5148894,10.3091064 C5.55193451,8.28216413 5.38603685,6.24719757 5.65501656,4.22667477 C5.79997568,3.10166565 6.22841043,2.07936778 7.05306679,1.27693617 C7.66350578,0.673507599 8.11448972,0.65424924 8.72170739,1.14694225 C8.53487119,1.2929848 8.34320301,1.42458359 8.18213732,1.58025532 C7.71987877,2.02801216 7.60230081,2.94117933 7.93248549,3.48683283 C8.2836087,4.07100304 8.84411732,4.11433435 9.42073251,4.01483283 C10.0166756,3.90891185 10.4499423,3.28462006 10.4354464,2.57045593 C10.4161185,1.72790274 10.0666059,1.06027964 9.27255207,0.704 C8.9423674,0.556352584 8.62023601,0.482528875 8.30293659,0.482528875 C7.81168622,0.482528875 7.34298504,0.662273556 6.89844373,1.02015805 Z" id="path-13"></path>
        <path d="M4.55601163,0.482528875 C3.22238768,0.562772036 1.88715306,0.599683891 0.555139763,0.651039514 C0.481049543,0.652644377 0.411791294,0.651039514 0.340922388,0.660668693 C0.216901803,0.673507599 0.0977131884,0.718443769 0.0977131884,0.859671733 C0.0977131884,0.999294833 0.226565745,1.04262614 0.347365016,1.04583587 C0.795127649,1.05225532 1.24127962,1.04583587 1.68904226,1.05706991 C2.46698956,1.07793313 2.7311373,1.34915502 2.73919059,2.14356231 C2.75207585,3.15944073 2.70858811,4.17371429 2.74563322,5.19119757 C2.82133409,7.15073556 2.67637497,9.05089362 1.4667716,10.7039027 L1.47321423,10.7135319 C2.25438285,10.4278663 2.27532139,9.57568389 2.74080125,8.9337386 L2.74080125,11.2383222 C2.74563322,11.4565836 2.73274796,11.6780547 3.06454329,11.6459574 C4.23065893,11.5368267 5.3951639,11.4646079 6.55322625,11.3073313 C6.63698041,11.2977021 6.74650509,11.3025167 6.86086173,11.3073313 C7.13628407,11.3201702 7.42781298,11.3330091 7.40043181,11.1099331 C7.36016538,10.7729119 7.04930859,10.8130334 6.7497264,10.8515502 C6.64020173,10.8659939 6.53067705,10.8820426 6.44048027,10.8756231 C5.3838893,10.8322918 5.267922,10.747234 5.26470069,9.68641945 C5.26309003,6.85544073 5.24859412,4.02446201 5.27436463,1.18706383 C5.2791966,0.663878419 5.13584813,0.477714286 4.68325353,0.477714286 C4.64298711,0.477714286 4.59949937,0.479319149 4.55601163,0.482528875 Z" id="path-15"></path>
        <path d="M4.35790083,0.480924012 C3.23527293,0.580425532 2.10942372,0.599683891 0.988406483,0.651039514 C0.893377723,0.657458967 0.795127649,0.660668693 0.708152173,0.687951368 C0.600238157,0.718443769 0.479438886,0.768194529 0.506820054,0.919051672 C0.530979908,1.04102128 0.638893924,1.04102128 0.729090714,1.04744073 C1.08021393,1.05225532 1.43616912,1.0747234 1.78407102,1.04904559 C2.45410431,1.0008997 2.70697745,1.28817021 2.70375614,1.95739818 C2.67798563,4.10951976 2.69409219,6.25522188 2.69409219,8.40413374 C2.69570285,10.2737994 3.54935104,11.3185653 5.35167617,11.650772 C6.33256625,11.8369362 7.41009575,11.4806565 7.77732554,10.8515502 L7.76766159,10.8483404 C7.66135823,10.8916717 7.5502229,10.9205593 7.45197283,10.9799392 C6.23914815,11.710152 5.29852449,11.2190638 5.22282361,9.8196231 C5.21477032,9.58370821 5.21477032,9.34779331 5.21477032,9.11187842 C5.21477032,6.512 5.18899981,3.91693617 5.23248755,1.31866261 C5.24215149,0.687951368 5.06336857,0.472899696 4.549569,0.472899696 C4.4899747,0.472899696 4.42554842,0.474504559 4.35790083,0.480924012 Z" id="path-17"></path>
        <path d="M0.411791294,1.11377508 C0.539033193,3.07331307 2.0578827,4.54497264 3.90369557,4.67175684 C4.328909,4.7343465 4.64781908,4.59632827 4.61560594,3.95277812 C4.53185178,2.23717933 2.8583792,0.507136778 1.16557875,0.420474164 C1.13819758,0.418869301 1.11081641,0.417264438 1.0850459,0.417264438 C0.643725895,0.417264438 0.381188812,0.624291793 0.411791294,1.11377508 Z" id="path-19"></path>
        <path d="M3.99550301,0.927610942 C3.58639615,0.995015198 3.15312943,1.06402432 2.7762357,1.23093009 C1.47482488,1.81189058 0.745197283,2.85505167 0.521315967,4.24646809 C0.447225747,4.71027356 0.530979908,5.17728875 1.12531232,5.13716717 C2.9260268,5.00877812 4.61077397,3.70723404 4.73640521,1.55832219 C4.79922083,1.14105775 4.60433134,0.909957447 4.20972039,0.909957447 C4.14368345,0.909957447 4.07281455,0.914772036 3.99550301,0.927610942 Z" id="path-21"></path>
        <path d="M1.33630838,0.449361702 C0.173414065,1.75893009 0.155696839,3.98006079 1.28959933,5.32172644 C1.67132503,5.77269301 2.0240589,5.77269301 2.37357146,5.3104924 C2.93085877,4.58348936 3.33996563,3.8051307 3.23527293,2.84381763 C3.333523,1.95151368 3.00011702,1.17636474 2.48792811,0.487878419 C2.26243613,0.181349544 2.09653847,0.0337021277 1.92258751,0.0337021277 C1.75507919,0.0337021277 1.57790693,0.176534954 1.33630838,0.449361702 Z" id="path-23"></path>
        <path d="M3.89564228,0.553677812 C2.1851246,0.566516717 0.374746184,2.38161702 0.374746184,4.08758663 C0.374746184,4.54818237 0.568025018,4.80817021 1.05605407,4.76323404 C3.01139161,4.57867477 4.35790083,3.27231611 4.62688054,1.34968997 C4.70741338,0.770334347 4.48836404,0.550468085 3.99711367,0.550468085 C3.96490053,0.550468085 3.93107673,0.552072948 3.89564228,0.553677812 Z" id="path-25"></path>
        <path d="M0.542254507,1.5358541 C0.63567261,3.32367173 2.10942372,4.96063222 4.09375309,5.11148936 C4.59627806,5.14679635 4.78311426,4.77446809 4.72029864,4.30103343 C4.48514273,2.44099696 3.19017454,1.09130699 1.37174284,0.808851064 C1.28798868,0.794407295 1.2122878,0.787987842 1.14302955,0.787987842 C0.729090714,0.787987842 0.542254507,1.02711246 0.542254507,1.5358541 Z" id="path-27"></path>
        <path d="M3.95040462,0.238589666 C2.11747701,0.22575076 0.33447976,2.01677812 0.355418301,3.77570821 C0.358639615,4.21383587 0.510041368,4.48024316 0.951361373,4.4481459 C2.99850636,4.30210334 4.40944185,2.74057143 4.58500346,0.946334347 C4.63010185,0.493762918 4.48192141,0.228960486 4.09375309,0.228960486 C4.04865469,0.228960486 4.00033498,0.232170213 3.95040462,0.238589666 Z" id="path-29"></path>
        <path d="M3.96651119,0.598079027 C2.29787058,0.598079027 0.529369252,2.32651672 0.498766769,4.08063222 C0.429508521,4.54764742 0.603459471,4.86220061 1.18329597,4.80924012 C3.01139161,4.64072948 4.44809762,3.2525228 4.70419207,1.41495441 C4.77506098,0.885349544 4.57050754,0.610917933 4.01322024,0.598079027 C3.99711367,0.598079027 3.9810071,0.598079027 3.96651119,0.598079027 Z" id="path-31"></path>
        <path d="M0.527758595,1.00571429 C0.379578155,2.80316109 2.05144007,4.6792462 3.83926929,4.7097386 C4.55762229,4.72418237 4.65748302,4.6182614 4.62204857,3.89928267 C4.53668375,2.18047416 2.88253906,0.535489362 1.16557875,0.46487538 C1.14625086,0.46487538 1.12853364,0.463270517 1.10920575,0.463270517 C0.758082539,0.463270517 0.559971734,0.586844985 0.527758595,1.00571429 Z" id="path-33"></path>
        <path d="M0.38763144,0.721653495 C0.332869103,2.46132523 2.03211219,4.29247416 3.76840038,4.35345897 C4.30152783,4.37592705 4.5946674,4.24593313 4.48836404,3.70830395 C4.48836404,1.90443769 2.82777672,0.169580547 1.0963205,0.102176292 C1.06571802,0.100571429 1.03672619,0.100571429 1.00773437,0.100571429 C0.611512756,0.100571429 0.398906038,0.236984802 0.38763144,0.721653495 Z" id="path-35"></path>
        <path d="M0.861701469,0.22575076 C0.410717523,0.22575076 0.183614893,0.424753799 0.178782922,0.878930091 C0.170729637,1.46631003 0.177172265,2.05529483 0.177172265,2.64427964 L0.165897666,2.64427964 C0.165897666,3.23326444 0.161065695,3.8238541 0.170729637,4.40962918 C0.177172265,4.84133739 0.425213435,5.04034043 0.843984243,5.05317933 C1.24825914,5.06441337 1.52529213,4.91997568 1.58488644,4.4786383 C1.73950951,3.28462006 1.71696031,2.08418237 1.7024644,0.885349544 C1.69763243,0.362164134 1.35617315,0.240194529 0.897135922,0.22575076 C0.885861324,0.22575076 0.874586725,0.22575076 0.861701469,0.22575076 Z" id="path-37"></path>
    </defs>
    <g id="Assets" stroke="none" stroke-width="1" fill="none" fill-rule="evenodd" opacity="0.6">
        <g id="Artboard" transform="translate(-710.000000, -521.000000)">
            <g id="logo_Burgeon" transform="translate(710.000000, 521.000000)">
                <g id="Fill-1-Clipped" transform="translate(0.000000, 20.863222)">
                    <mask id="mask-2" fill="white">
                        <use xlink:href="#path-1"></use>
                    </mask>
                    <g id="path-1"></g>
                    <polygon id="Fill-1" fill="#1A1A1A" fill-rule="nonzero" mask="url(#mask-2)" points="-8.05328476 25.4595502 25.3452978 25.4595502 25.3452978 -7.4706383 -8.05328476 -7.4706383"></polygon>
                </g>
                <g id="Fill-4-Clipped" transform="translate(51.541022, 24.072948)">
                    <mask id="mask-4" fill="white">
                        <use xlink:href="#path-3"></use>
                    </mask>
                    <g id="path-3"></g>
                    <polygon id="Fill-4" fill="#1A1A1A" fill-rule="nonzero" mask="url(#mask-4)" points="-7.71343614 27.6662371 19.1297726 27.6662371 19.1297726 -7.12077812 -7.71343614 -7.12077812"></polygon>
                </g>
                <g id="Fill-7-Clipped" transform="translate(83.754162, 26.613982)">
                    <mask id="mask-6" fill="white">
                        <use xlink:href="#path-5"></use>
                    </mask>
                    <g id="path-5"></g>
                    <polygon id="Fill-7" fill="#1A1A1A" fill-rule="nonzero" mask="url(#mask-6)" points="-7.46378432 19.7521216 21.9806354 19.7521216 21.9806354 -7.55944073 -7.46378432 -7.55944073"></polygon>
                </g>
                <g id="Fill-10-Clipped" transform="translate(17.717226, 26.613982)">
                    <mask id="mask-8" fill="white">
                        <use xlink:href="#path-7"></use>
                    </mask>
                    <g id="path-7"></g>
                    <polygon id="Fill-10" fill="#1A1A1A" fill-rule="nonzero" mask="url(#mask-8)" points="-7.61196475 19.899769 19.1104447 19.899769 19.1104447 -7.56104559 -7.61196475 -7.56104559"></polygon>
                </g>
                <g id="Fill-13-Clipped" transform="translate(72.479563, 26.613982)">
                    <mask id="mask-10" fill="white">
                        <use xlink:href="#path-9"></use>
                    </mask>
                    <g id="path-9"></g>
                    <polygon id="Fill-13" fill="#1A1A1A" fill-rule="nonzero" mask="url(#mask-10)" points="-7.3333211 19.8965593 19.3697605 19.8965593 19.3697605 -7.56906991 -7.3333211 -7.56906991"></polygon>
                </g>
                <g id="Fill-16-Clipped" transform="translate(62.815621, 26.613982)">
                    <mask id="mask-12" fill="white">
                        <use xlink:href="#path-11"></use>
                    </mask>
                    <g id="path-11"></g>
                    <polygon id="Fill-16" fill="#1A1A1A" fill-rule="nonzero" mask="url(#mask-12)" points="-7.68444432 19.9174225 17.8847348 19.9174225 17.8847348 -7.55141641 -7.68444432 -7.55141641"></polygon>
                </g>
                <g id="Fill-19-Clipped" transform="translate(41.877081, 26.613982)">
                    <mask id="mask-14" fill="white">
                        <use xlink:href="#path-13"></use>
                    </mask>
                    <g id="path-13"></g>
                    <polygon id="Fill-19" fill="#1A1A1A" fill-rule="nonzero" mask="url(#mask-14)" points="-7.52821059 19.7136049 18.4887312 19.7136049 18.4887312 -7.54178723 -7.52821059 -7.54178723"></polygon>
                </g>
                <g id="Fill-22-Clipped" transform="translate(34.763346, 26.613982)">
                    <mask id="mask-16" fill="white">
                        <use xlink:href="#path-15"></use>
                    </mask>
                    <g id="path-15"></g>
                    <polygon id="Fill-22" fill="#1A1A1A" fill-rule="nonzero" mask="url(#mask-16)" points="-7.95557157 19.6718784 15.4553272 19.6718784 15.4553272 -7.54660182 -7.95557157 -7.54660182"></polygon>
                </g>
                <g id="Fill-25-Clipped" transform="translate(28.320718, 26.613982)">
                    <mask id="mask-18" fill="white">
                        <use xlink:href="#path-17"></use>
                    </mask>
                    <g id="path-17"></g>
                    <polygon id="Fill-25" fill="#1A1A1A" fill-rule="nonzero" mask="url(#mask-18)" points="-7.54968602 19.7248389 15.8306103 19.7248389 15.8306103 -7.55141641 -7.54968602 -7.55141641"></polygon>
                </g>
                <g id="Fill-28-Clipped" transform="translate(41.205974, 11.234043)">
                    <mask id="mask-20" fill="white">
                        <use xlink:href="#path-19"></use>
                    </mask>
                    <g id="path-19"></g>
                    <polygon id="Fill-28" fill="#1A1A1A" fill-rule="nonzero" mask="url(#mask-20)" points="-7.64310412 12.7089119 12.672112 12.7089119 12.672112 -7.60705167 -7.64310412 -7.60705167"></polygon>
                </g>
                <g id="Fill-31-Clipped" transform="translate(46.037945, 3.209726)">
                    <mask id="mask-22" fill="white">
                        <use xlink:href="#path-21"></use>
                    </mask>
                    <g id="path-21"></g>
                    <polygon id="Fill-31" fill="#1A1A1A" fill-rule="nonzero" mask="url(#mask-22)" points="-7.55451799 13.164693 12.8025752 13.164693 12.8025752 -7.11596353 -7.55451799 -7.11596353"></polygon>
                </g>
                <g id="Fill-34-Clipped" transform="translate(44.427288, 0.000000)">
                    <mask id="mask-24" fill="white">
                        <use xlink:href="#path-23"></use>
                    </mask>
                    <g id="path-23"></g>
                    <polygon id="Fill-34" fill="#1A1A1A" fill-rule="nonzero" mask="url(#mask-24)" points="-7.6028377 13.6830638 11.3046643 13.6830638 11.3046643 -7.99061398 -7.6028377 -7.99061398"></polygon>
                </g>
                <g id="Fill-37-Clipped" transform="translate(46.037945, 11.234043)">
                    <mask id="mask-26" fill="white">
                        <use xlink:href="#path-25"></use>
                    </mask>
                    <g id="path-25"></g>
                    <polygon id="Fill-37" fill="#1A1A1A" fill-rule="nonzero" mask="url(#mask-26)" points="-7.67853858 12.7923647 12.6962719 12.7923647 12.6962719 -7.47384802 -7.67853858 -7.47384802"></polygon>
                </g>
                <g id="Fill-40-Clipped" transform="translate(41.205974, 3.209726)">
                    <mask id="mask-28" fill="white">
                        <use xlink:href="#path-27"></use>
                    </mask>
                    <g id="path-27"></g>
                    <polygon id="Fill-40" fill="#1A1A1A" fill-rule="nonzero" mask="url(#mask-28)" points="-7.51103025 13.1374103 12.784858 13.1374103 12.784858 -7.23632827 -7.51103025 -7.23632827"></polygon>
                </g>
                <g id="Fill-43-Clipped" transform="translate(46.037945, 15.379939)">
                    <mask id="mask-30" fill="white">
                        <use xlink:href="#path-29"></use>
                    </mask>
                    <g id="path-29"></g>
                    <polygon id="Fill-43" fill="#1A1A1A" fill-rule="nonzero" mask="url(#mask-30)" points="-7.69786646 12.4740669 12.6463415 12.4740669 12.6463415 -7.79696049 -7.69786646 -7.79696049"></polygon>
                </g>
                <g id="Fill-46-Clipped" transform="translate(46.037945, 7.355623)">
                    <mask id="mask-32" fill="white">
                        <use xlink:href="#path-31"></use>
                    </mask>
                    <g id="path-31"></g>
                    <polygon id="Fill-46" fill="#1A1A1A" fill-rule="nonzero" mask="url(#mask-32)" points="-7.5690139 12.8383708 12.7719727 12.8383708 12.7719727 -7.42784195 -7.5690139 -7.42784195"></polygon>
                </g>
                <g id="Fill-49-Clipped" transform="translate(41.205974, 7.355623)">
                    <mask id="mask-34" fill="white">
                        <use xlink:href="#path-33"></use>
                    </mask>
                    <g id="path-33"></g>
                    <polygon id="Fill-49" fill="#1A1A1A" fill-rule="nonzero" mask="url(#mask-34)" points="-7.53519011 12.7356596 12.6801653 12.7356596 12.6801653 -7.56104559 -7.53519011 -7.56104559"></polygon>
                </g>
                <g id="Fill-52-Clipped" transform="translate(41.205974, 15.379939)">
                    <mask id="mask-36" fill="white">
                        <use xlink:href="#path-35"></use>
                    </mask>
                    <g id="path-35"></g>
                    <polygon id="Fill-52" fill="#1A1A1A" fill-rule="nonzero" mask="url(#mask-36)" points="-7.66726398 12.3809848 12.5625873 12.3809848 12.5625873 -7.92374468 -7.66726398 -7.92374468"></polygon>
                </g>
                <g id="Fill-55-Clipped" transform="translate(45.098395, 20.194529)">
                    <mask id="mask-38" fill="white">
                        <use xlink:href="#path-37"></use>
                    </mask>
                    <g id="path-37"></g>
                    <polygon id="Fill-55" fill="#1A1A1A" fill-rule="nonzero" mask="url(#mask-38)" points="-7.88899775 13.0774954 9.7654131 13.0774954 9.7654131 -7.79856535 -7.88899775 -7.79856535"></polygon>
                </g>
            </g>
        </g>
    </g>
</svg>