<?xml version="1.0" encoding="UTF-8"?>
<svg width="61px" height="76px" viewBox="0 0 61 76" version="1.1" xmlns="http://www.w3.org/2000/svg" xmlns:xlink="http://www.w3.org/1999/xlink">
    <title>logo_multisensor_Diagnostics</title>
    <defs>
        <linearGradient x1="-1.11022302e-14%" y1="50%" x2="100%" y2="50%" id="linearGradient-1">
            <stop stop-color="#3F3F3F" offset="0%"></stop>
            <stop stop-color="#D0D0D0" offset="100%"></stop>
        </linearGradient>
    </defs>
    <g id="Assets" stroke="none" stroke-width="1" fill="none" fill-rule="evenodd" opacity="0.6">
        <g id="Artboard" transform="translate(-457.000000, -383.000000)">
            <g id="logo_multisensor_Diagnostics" transform="translate(457.000000, 383.000000)">
                <g id="Multisensor-Diagnost" transform="translate(0.610195, 51.190058)" fill="#222323" fill-rule="nonzero">
                    <path d="M1.13152655,7.83906796 L1.13152655,1.0271068 L3.33533742,7.83906796 L4.52018198,7.83906796 L6.72399285,1.0271068 L6.72399285,7.83906796 L7.84959517,7.83906796 L7.84959517,-4.08941489e-13 L5.96569233,-4.08941489e-13 L3.9277597,6.51681553 L1.88982706,-4.08941489e-13 L0.00592422057,-4.08941489e-13 L0.00592422057,7.83906796 L1.13152655,7.83906796 Z M11.6114766,7.96893204 C12.6067461,7.96893204 13.1162292,7.55572816 13.4361373,7.01266019 L13.4361373,7.83906796 L14.4432551,7.83906796 L14.4432551,2.05421359 L13.4361373,2.05421359 L13.4361373,5.20636893 C13.4361373,6.42236893 12.8911088,7.09530097 11.9787785,7.09530097 C11.4574468,7.09530097 11.0782966,6.94182524 10.8887215,6.55223301 C10.7583886,6.29250485 10.6991463,5.91471845 10.6991463,5.32442718 L10.6991463,2.05421359 L9.69202846,2.05421359 L9.69202846,5.64318447 C9.69202846,6.36333981 9.81051292,6.91821359 10.0948756,7.296 C10.4029352,7.70920388 10.9005699,7.96893204 11.6114766,7.96893204 Z M17.1861703,7.83906796 L17.1861703,-4.08941489e-13 L16.1790524,-4.08941489e-13 L16.1790524,7.83906796 L17.1861703,7.83906796 Z M21.327202,7.83906796 L21.327202,6.98904854 L20.8295673,6.98904854 C20.2489935,6.98904854 20.2134481,6.83557282 20.2134481,6.2216699 L20.2134481,2.88062136 L21.327202,2.88062136 L21.327202,2.05421359 L20.2134481,2.05421359 L20.2134481,0.460427184 L19.2063302,0.460427184 L19.2063302,2.05421359 L18.270303,2.05421359 L18.270303,2.88062136 L19.2063302,2.88062136 L19.2063302,6.36333981 C19.2063302,7.59114563 19.466996,7.83906796 20.6044468,7.83906796 L21.327202,7.83906796 Z M23.6554215,1.20419417 L23.6554215,-4.08941489e-13 L22.6483037,-4.08941489e-13 L22.6483037,1.20419417 L23.6554215,1.20419417 Z M23.6554215,7.83906796 L23.6554215,2.05421359 L22.6483037,2.05421359 L22.6483037,7.83906796 L23.6554215,7.83906796 Z M27.4409999,7.98073786 C28.8035711,7.98073786 29.8580828,7.33141748 29.8580828,6.1744466 C29.8580828,5.02928155 28.8391165,4.63968932 27.7490595,4.41537864 L27.0500012,4.27370874 C26.433882,4.14384466 26.0902771,3.95495146 26.0902771,3.5063301 C26.0902771,3.02229126 26.7063963,2.79798058 27.3343639,2.79798058 C28.0689675,2.79798058 28.6258445,3.04590291 28.7798743,3.71883495 L29.8225375,3.62438835 C29.597417,2.63269903 28.7443289,1.95976699 27.4409999,1.95976699 C26.1969131,1.95976699 25.0831592,2.55005825 25.0831592,3.56535922 C25.0831592,4.66330097 25.9717927,5.02928155 26.8130323,5.19456311 L27.5713328,5.34803883 C28.2466942,5.48970874 28.8391165,5.74943689 28.8391165,6.28069903 C28.8391165,6.78834951 28.2703911,7.14252427 27.4646968,7.14252427 C26.5879118,7.14252427 26.1376709,6.70570874 25.9836411,6.00916505 L24.9291294,6.10361165 C25.0357655,7.01266019 25.8888535,7.98073786 27.4409999,7.98073786 Z M33.6436612,7.98073786 C35.10102,7.98073786 36.0133503,7.16613592 36.2858645,6.20986408 L35.2550497,6.08 C35.0062324,6.70570874 34.544143,7.09530097 33.6199643,7.09530097 C32.6365433,7.09530097 31.9019397,6.39875728 31.9019397,5.26539806 L36.3806521,5.26539806 C36.5228334,3.40007767 35.4801702,1.95976699 33.6555096,1.95976699 C32.0085757,1.95976699 30.8355796,3.16396117 30.8355796,4.97025243 C30.8355796,6.65848544 31.7479099,7.98073786 33.6436612,7.98073786 Z M35.314292,4.42718447 L31.9137881,4.42718447 C31.9611819,3.4118835 32.6483917,2.80978641 33.6555096,2.80978641 C34.7337181,2.80978641 35.2905951,3.648 35.314292,4.42718447 Z M38.6733263,7.83906796 L38.6733263,4.75774757 C38.6733263,3.49452427 39.2657486,2.83339806 40.2373211,2.83339806 C40.7468043,2.83339806 41.1022576,2.97506796 41.3155296,3.32924272 C41.457711,3.57716505 41.5288017,3.94314563 41.5288017,4.55704854 L41.5288017,7.83906796 L42.5359195,7.83906796 L42.5359195,4.28551456 C42.5359195,3.6007767 42.441132,3.11673786 42.2160115,2.75075728 C41.9079519,2.25491262 41.3629234,1.95976699 40.580926,1.95976699 C39.5856566,1.95976699 39.0050828,2.34935922 38.6733263,2.85700971 L38.6733263,2.05421359 L37.6662084,2.05421359 L37.6662084,7.83906796 L38.6733263,7.83906796 Z M46.2267103,7.98073786 C47.5892816,7.98073786 48.6437932,7.33141748 48.6437932,6.1744466 C48.6437932,5.02928155 47.6248269,4.63968932 46.5347699,4.41537864 L45.8357116,4.27370874 C45.2195925,4.14384466 44.8759875,3.95495146 44.8759875,3.5063301 C44.8759875,3.02229126 45.4921067,2.79798058 46.1200743,2.79798058 C46.8546779,2.79798058 47.4115549,3.04590291 47.5655847,3.71883495 L48.6082479,3.62438835 C48.3831274,2.63269903 47.5300393,1.95976699 46.2267103,1.95976699 C44.9826235,1.95976699 43.8688697,2.55005825 43.8688697,3.56535922 C43.8688697,4.66330097 44.7575031,5.02928155 45.5987427,5.19456311 L46.3570432,5.34803883 C47.0324046,5.48970874 47.6248269,5.74943689 47.6248269,6.28069903 C47.6248269,6.78834951 47.0561015,7.14252427 46.2504072,7.14252427 C45.3736223,7.14252427 44.9233813,6.70570874 44.7693515,6.00916505 L43.7148399,6.10361165 C43.8214759,7.01266019 44.674564,7.98073786 46.2267103,7.98073786 Z M52.3582809,7.98073786 C53.7800944,7.98073786 55.0952718,7.04807767 55.0952718,4.97025243 C55.0952718,2.89242718 53.7800944,1.95976699 52.3582809,1.95976699 C50.9364674,1.95976699 49.62129,2.89242718 49.62129,4.97025243 C49.62129,7.04807767 50.9364674,7.98073786 52.3582809,7.98073786 Z M52.3582809,7.1071068 C51.4104053,7.1071068 50.6876501,6.48139806 50.6876501,4.97025243 C50.6876501,3.4591068 51.4104053,2.83339806 52.3582809,2.83339806 C53.3061565,2.83339806 54.0289117,3.4591068 54.0289117,4.97025243 C54.0289117,6.48139806 53.3061565,7.1071068 52.3582809,7.1071068 Z M57.4471883,7.83906796 L57.4471883,4.864 C57.4471883,3.56535922 57.9092776,3.05770874 58.8334564,3.05770874 C58.9993346,3.05770874 59.1770613,3.06951456 59.3903333,3.09312621 L59.3903333,2.03060194 C59.2836973,2.01879612 59.1889098,2.01879612 59.0941222,2.01879612 C58.3239732,2.04240777 57.7197025,2.42019417 57.4234914,3.08132039 L57.4234914,2.05421359 L56.4400704,2.05421359 L56.4400704,7.83906796 L57.4471883,7.83906796 Z" id="Multisensor"></path>
                    <path d="M1.82466061,21.8584854 C4.36022796,21.8584854 6.41000904,20.9730485 6.41000904,17.9389515 C6.41000904,14.9048544 4.36022796,14.0194175 1.82466061,14.0194175 L4.52511947e-13,14.0194175 L4.52511947e-13,21.8584854 L1.82466061,21.8584854 Z M1.90242967,20.8664221 L1.12560233,20.8667961 L1.12560233,15.0111068 L1.78911528,15.0111068 C3.44789766,15.0111068 5.26070982,15.2354175 5.26070982,17.9389515 C5.26070982,20.5810415 3.52936184,20.8553196 1.90242967,20.8664221 L1.90242967,20.8664221 Z M8.91595528,15.2236117 L8.91595528,14.0194175 L7.90883741,14.0194175 L7.90883741,15.2236117 L8.91595528,15.2236117 Z M8.91595528,21.8584854 L8.91595528,16.0736311 L7.90883741,16.0736311 L7.90883741,21.8584854 L8.91595528,21.8584854 Z M12.3816256,22.0001553 C13.4124404,22.0001553 13.9811658,21.6223689 14.3366191,21.0438835 L14.3721645,21.8584854 L15.343737,21.8584854 C15.2726463,21.0911068 15.2134041,20.536233 15.2252525,19.6271845 L15.2489494,18.1632621 C15.2726463,16.6048932 14.5972849,15.9673786 12.950351,15.9673786 C11.647022,15.9673786 10.5925103,16.6285049 10.5214197,17.8208932 L11.5048406,17.8563107 C11.5640829,17.2187961 11.9906269,16.7819806 12.9029572,16.7819806 C13.6731062,16.7819806 14.2418316,17.0299029 14.2418316,17.9743689 L14.2418316,18.1868738 L13.1162292,18.304932 C12.3697772,18.3875728 11.6707189,18.5056311 11.1138419,18.8125825 C10.6517526,19.0723107 10.3318445,19.4973204 10.3318445,20.1230291 C10.3318445,21.1147184 11.0309028,22.0001553 12.3816256,22.0001553 Z M12.5712007,21.1265243 C11.8839909,21.1265243 11.3982046,20.7723495 11.3982046,20.1584466 C11.3982046,19.5091262 11.96693,19.2375922 13.1043808,19.1313398 L14.3129222,19.0132816 L14.3129222,19.3556505 C14.3129222,20.6897087 13.3887435,21.1265243 12.5712007,21.1265243 Z M19.2122545,23.9717282 C20.0890394,23.9717282 20.8236431,23.6883883 21.2620355,23.1925437 C21.593792,22.8265631 21.7715187,22.3307184 21.7715187,21.1265243 L21.7715187,16.0736311 L20.7880977,16.0736311 L20.7644008,16.8292039 C20.4444928,16.3333592 19.8876159,15.9791845 19.0463762,15.9791845 C17.5653205,15.9791845 16.5108089,17.0417087 16.5108089,18.8598058 C16.5108089,20.7015146 17.5297752,21.7640388 18.9278918,21.7640388 C19.8994643,21.7640388 20.397099,21.3862524 20.7644008,20.8313786 L20.7644008,21.350835 C20.7644008,22.1536311 20.6459164,22.425165 20.4326444,22.6612816 C20.1719786,22.9446214 19.757283,23.0980971 19.2241029,23.0980971 C18.2999242,23.0980971 17.9800161,22.696699 17.8378348,22.1654369 L16.7714747,22.2008544 C16.9610498,23.3578252 17.8615317,23.9717282 19.2122545,23.9717282 Z M19.1885576,20.8904078 C18.1221975,20.8904078 17.577169,20.1584466 17.577169,18.8598058 C17.577169,17.5729709 18.1340459,16.8528155 19.1885576,16.8528155 C20.1127363,16.8528155 20.8117946,17.4076893 20.8117946,18.8598058 C20.8117946,20.3119223 20.077191,20.8904078 19.1885576,20.8904078 Z M24.5144339,21.8584854 L24.5144339,18.777165 C24.5144339,17.5139417 25.1068561,16.8528155 26.0784287,16.8528155 C26.5879118,16.8528155 26.9433652,16.9944854 27.1566372,17.3486602 C27.2988186,17.5965825 27.3699092,17.9625631 27.3699092,18.576466 L27.3699092,21.8584854 L28.3770271,21.8584854 L28.3770271,18.304932 C28.3770271,17.6201942 28.2822395,17.1361553 28.0571191,16.7701748 C27.7490595,16.2743301 27.204031,15.9791845 26.4220336,15.9791845 C25.4267642,15.9791845 24.8461903,16.3687767 24.5144339,16.8764272 L24.5144339,16.0736311 L23.507316,16.0736311 L23.507316,21.8584854 L24.5144339,21.8584854 Z M32.364029,22.0001553 C33.7858425,22.0001553 35.10102,21.0674951 35.10102,18.9896699 C35.10102,16.9118447 33.7858425,15.9791845 32.364029,15.9791845 C30.9422156,15.9791845 29.6270381,16.9118447 29.6270381,18.9896699 C29.6270381,21.0674951 30.9422156,22.0001553 32.364029,22.0001553 Z M32.364029,21.1265243 C31.4161534,21.1265243 30.6933982,20.5008155 30.6933982,18.9896699 C30.6933982,17.4785243 31.4161534,16.8528155 32.364029,16.8528155 C33.3119047,16.8528155 34.0346599,17.4785243 34.0346599,18.9896699 C34.0346599,20.5008155 33.3119047,21.1265243 32.364029,21.1265243 Z M44.5975491,21.8584854 L44.5975491,21.008466 L44.0999144,21.008466 C43.5534919,21.008466 43.4898629,20.8725152 43.4842679,20.3447061 L43.4837952,16.9000388 L44.5975491,16.9000388 L44.5975491,16.0736311 L43.4837952,16.0736311 L43.4837952,14.4798447 L42.4766773,14.4798447 L42.4766773,16.0736311 L41.5406501,16.0736311 L41.5406501,16.9000388 L42.4766773,16.9000388 L42.4766773,20.3827573 C42.4766773,21.6105631 42.7373431,21.8584854 43.8747939,21.8584854 L44.5975491,21.8584854 Z M38.4955996,22.0001553 C39.8581708,22.0001553 40.9126825,21.350835 40.9126825,20.1938641 C40.9126825,19.048699 39.8937162,18.6591068 38.8036592,18.4347961 L38.1046009,18.2931262 C37.4884817,18.1632621 37.1448768,17.9743689 37.1448768,17.5257476 C37.1448768,17.0417087 37.760996,16.8173981 38.3889636,16.8173981 C39.1235672,16.8173981 39.6804442,17.0653204 39.834474,17.7382524 L40.8771372,17.6438058 C40.6520167,16.6521165 39.7989286,15.9791845 38.4955996,15.9791845 C37.2515128,15.9791845 36.1377589,16.5694757 36.1377589,17.5847767 C36.1377589,18.6827184 37.0263924,19.048699 37.867632,19.2139806 L38.6259325,19.3674563 C39.3012939,19.5091262 39.8937162,19.7688544 39.8937162,20.3001165 C39.8937162,20.807767 39.3249908,21.1619417 38.5192965,21.1619417 C37.6425115,21.1619417 37.1922706,20.7251262 37.0382408,20.0285825 L35.9837291,20.1230291 C36.0903652,21.0320777 36.9434532,22.0001553 38.4955996,22.0001553 Z M46.9257686,15.2236117 L46.9257686,14.0194175 L45.9186507,14.0194175 L45.9186507,15.2236117 L46.9257686,15.2236117 Z M46.9257686,21.8584854 L46.9257686,16.0736311 L45.9186507,16.0736311 L45.9186507,21.8584854 L46.9257686,21.8584854 Z M50.9957097,22.0001553 C52.3819778,22.0001553 53.4009441,21.1029126 53.5905192,20.0876117 L52.5597045,19.9577476 C52.4175231,20.5952621 51.8724946,21.1147184 51.0194066,21.1147184 C50.1070763,21.1147184 49.3369273,20.4063689 49.3369273,18.9660583 C49.3369273,17.5493592 50.0952278,16.8646214 51.0194066,16.8646214 C51.801404,16.8646214 52.3701294,17.3132427 52.5123107,18.0333981 L53.531277,17.8917282 C53.4009441,16.9944854 52.5360076,15.9791845 51.0904972,15.9791845 C49.301382,15.9791845 48.2705672,17.2778252 48.2705672,18.9778641 C48.2705672,20.7133204 49.2658366,22.0001553 50.9957097,22.0001553 Z M56.8666144,22.0001553 C58.2291857,22.0001553 59.2836973,21.350835 59.2836973,20.1938641 C59.2836973,19.048699 58.264731,18.6591068 57.174674,18.4347961 L56.4756157,18.2931262 C55.8594966,18.1632621 55.5158916,17.9743689 55.5158916,17.5257476 C55.5158916,17.0417087 56.1320108,16.8173981 56.7599784,16.8173981 C57.4945821,16.8173981 58.051459,17.0653204 58.2054888,17.7382524 L59.248152,17.6438058 C59.0230315,16.6521165 58.1699434,15.9791845 56.8666144,15.9791845 C55.6225277,15.9791845 54.5087738,16.5694757 54.5087738,17.5847767 C54.5087738,18.6827184 55.3974072,19.048699 56.2386468,19.2139806 L56.9969473,19.3674563 C57.6723087,19.5091262 58.264731,19.7688544 58.264731,20.3001165 C58.264731,20.807767 57.6960056,21.1619417 56.8903113,21.1619417 C56.0135264,21.1619417 55.5632854,20.7251262 55.4092556,20.0285825 L54.354744,20.1230291 C54.46138,21.0320777 55.3144681,22.0001553 56.8666144,22.0001553 Z" id="Diagnosics"></path>
                </g>
                <g id="Group-2" transform="translate(5.924223, 0.000000)" fill="url(#linearGradient-1)">
                    <path d="M14.200276,12.3198945 L14.1996222,17.1158945 L19.013707,17.116011 L19.013707,23.0189236 L14.1996222,23.0188945 L14.200276,27.8150401 L8.27605321,27.8150401 L8.27562221,23.0188945 L3.46262221,23.0189236 L3.46262221,17.116011 L8.27562221,17.1158945 L8.27605321,12.3198945 L14.200276,12.3198945 Z" id="Combined-Shape-Copy-7" style="mix-blend-mode: multiply;" transform="translate(11.238165, 20.067467) rotate(-45.000000) translate(-11.238165, -20.067467) "></path>
                    <path d="M15.1808209,22.5048544 L15.1801671,27.3008544 L19.9942519,27.3009709 L19.9942519,33.2038835 L15.1801671,33.2038544 L15.1808209,38 L9.25659809,38 L9.25616708,33.2038544 L4.44316708,33.2038835 L4.44316708,27.3009709 L9.25616708,27.3008544 L9.25659809,22.5048544 L15.1808209,22.5048544 Z" id="Combined-Shape-Copy-6" style="mix-blend-mode: multiply;" transform="translate(12.218709, 30.252427) rotate(-90.000000) translate(-12.218709, -30.252427) "></path>
                    <path d="M23.1020244,29.0158527 L23.1013707,33.8118527 L27.9154555,33.8119692 L27.9154555,39.7148818 L23.1013707,39.7148527 L23.1020244,44.5109983 L17.1778017,44.5109983 L17.1773707,39.7148527 L12.3643707,39.7148818 L12.3643707,33.8119692 L17.1773707,33.8118527 L17.1778017,29.0158527 L23.1020244,29.0158527 Z" id="Combined-Shape-Copy-5" style="mix-blend-mode: multiply;" transform="translate(20.139913, 36.763426) rotate(-135.000000) translate(-20.139913, -36.763426) "></path>
                    <path d="M33.3237531,28.038835 L33.3230993,32.834835 L38.1371841,32.8349515 L38.1371841,38.7378641 L33.3230993,38.737835 L33.3237531,43.5339806 L27.3995303,43.5339806 L27.3990993,38.737835 L22.5860993,38.7378641 L22.5860993,32.8349515 L27.3990993,32.834835 L27.3995303,28.038835 L33.3237531,28.038835 Z" id="Combined-Shape-Copy-4" style="mix-blend-mode: multiply;" transform="translate(30.361642, 35.786408) rotate(-180.000000) translate(-30.361642, -35.786408) "></path>
                    <path d="M39.8582568,20.1461249 L39.8576031,24.9421249 L44.6716878,24.9422414 L44.6716878,30.845154 L39.8576031,30.8451249 L39.8582568,35.6412705 L33.9340341,35.6412705 L33.9336031,30.8451249 L29.1206031,30.845154 L29.1206031,24.9422414 L33.9336031,24.9421249 L33.9340341,20.1461249 L39.8582568,20.1461249 Z" id="Combined-Shape-Copy-3" style="mix-blend-mode: multiply;" transform="translate(36.896145, 27.893698) rotate(-225.000000) translate(-36.896145, -27.893698) "></path>
                    <path d="M38.877712,9.96116505 L38.8770582,14.757165 L43.691143,14.7572816 L43.691143,20.6601942 L38.8770582,20.660165 L38.877712,25.4563107 L32.9534892,25.4563107 L32.9530582,20.660165 L28.1400582,20.6601942 L28.1400582,14.7572816 L32.9530582,14.757165 L32.9534892,9.96116505 L38.877712,9.96116505 Z" id="Combined-Shape-Copy-2" style="mix-blend-mode: multiply;" transform="translate(35.915601, 17.708738) rotate(-270.000000) translate(-35.915601, -17.708738) "></path>
                    <path d="M30.9565084,3.45016673 L30.9558546,8.24616673 L35.7699394,8.24628324 L35.7699394,14.1491959 L30.9558546,14.1491667 L30.9565084,18.9453124 L25.0322856,18.9453124 L25.0318546,14.1491667 L20.2188546,14.1491959 L20.2188546,8.24628324 L25.0318546,8.24616673 L25.0322856,3.45016673 L30.9565084,3.45016673 Z" id="Combined-Shape-Copy" style="mix-blend-mode: multiply;" transform="translate(27.994397, 11.197740) rotate(-315.000000) translate(-27.994397, -11.197740) "></path>
                    <path d="M20.7347797,4.42718447 L20.7341259,9.22318447 L25.5482107,9.22330097 L25.5482107,15.1262136 L20.7341259,15.1261845 L20.7347797,19.9223301 L14.8105569,19.9223301 L14.8101259,15.1261845 L9.99712593,15.1262136 L9.99712593,9.22330097 L14.8101259,9.22318447 L14.8105569,4.42718447 L20.7347797,4.42718447 Z" id="Combined-Shape" style="mix-blend-mode: multiply;"></path>
                </g>
            </g>
        </g>
    </g>
</svg>