<?xml version="1.0" encoding="UTF-8"?>
<svg width="76px" height="18px" viewBox="0 0 76 18" version="1.1" xmlns="http://www.w3.org/2000/svg" xmlns:xlink="http://www.w3.org/1999/xlink">
    <title>OPSO</title>
    <g id="Assets" stroke="none" stroke-width="1" fill="none" fill-rule="evenodd" opacity="0.6">
        <g id="Artboard" transform="translate(-997.000000, -420.000000)" fill="#1A1A1A" fill-rule="nonzero">
            <g id="OPSO" transform="translate(997.000000, 420.000000)">
                <path d="M31.1899661,0.0881135335 L21.6852702,0.0868549367 C20.477254,0.0868549367 19.4961242,1.09499092 19.4961242,2.33219151 C19.4961242,3.57190929 20.477254,4.57878667 21.6852702,4.57878667 L31.1899661,4.57626947 C31.7541158,4.57626947 32.2140204,5.04824325 32.2140204,5.62845634 C32.2140204,6.20741084 31.7541158,6.67938461 31.1899661,6.67938461 L22.1721559,6.67938461 C20.6268764,6.67938461 19.3698037,7.97070483 19.3698037,9.55527817 L19.3698037,15.7211435 C19.3734829,16.9545683 20.3546128,17.9589285 21.5564969,17.9589285 C22.7583811,17.9589285 23.739511,16.9558269 23.7431902,15.7198849 L23.7431902,11.1687992 L31.1899661,11.1687992 C34.166469,11.1687992 36.587407,8.68307063 36.587407,5.62845634 C36.587407,2.57384208 34.166469,0.0881135335 31.1899661,0.0881135335" id="Fill-4"></path>
                <path d="M50.5582315,6.67256063 L44.1398133,6.67256063 C43.574276,6.67256063 43.1154671,6.20098537 43.1154671,5.62251972 C43.1154671,5.04279653 43.574276,4.57122127 44.1398133,4.57122127 L53.6619392,4.57122127 L54.2716398,4.56996374 L54.2716398,4.47816375 C55.1745366,4.20150627 55.8345345,3.34386806 55.8345345,2.3290381 C55.8345345,1.31546568 55.1745366,0.457827475 54.2716398,0.181169989 L53.9539085,0.0868549367 L44.1398133,0.0868549367 C41.1624621,0.0868549367 38.7396074,2.5692271 38.7396074,5.62251972 C38.7396074,8.67455483 41.1624621,11.1569269 44.1398133,11.1569269 L50.5582315,11.1569269 C51.122542,11.1569269 51.5825777,11.6272447 51.5825777,12.2069679 L51.5825777,12.4169761 C51.5825777,12.9966993 51.122542,13.467017 50.5582315,13.467017 L41.1035775,13.467017 L40.4656614,13.5676197 C39.5627646,13.8442772 38.9039935,14.7031729 38.9039935,15.7154878 C38.9039935,16.9529013 39.8841762,17.9589285 41.0900832,17.9589285 C41.1195254,17.9589285 41.147741,17.9564135 41.1759565,17.9538984 L50.5582315,17.9538984 C53.5355827,17.9538984 55.9572107,15.4702687 55.9572107,12.4169761 L55.9572107,12.2069679 C55.9572107,9.1561903 53.5355827,6.67256063 50.5582315,6.67256063" id="Fill-6"></path>
                <path d="M9.07630363,13.440084 L8.85869982,13.440084 C6.44403956,13.440084 4.47942351,11.4581785 4.47942351,9.02351536 C4.47942351,6.58760499 6.44403956,4.60569942 8.85869982,4.60569942 L9.07630363,4.60569942 C11.4909638,4.60569942 13.4555799,6.58760499 13.4555799,9.02351536 C13.4555799,11.4581785 11.4909638,13.440084 9.07630363,13.440084 M9.07630363,0.0868549367 L8.85869982,0.0868549367 C3.97374196,0.0868549367 0,4.09556765 0,9.02351536 C0,13.9502158 3.97374196,17.9589285 8.85869982,17.9589285 L9.07630363,17.9589285 C13.9600251,17.9589285 17.9350034,13.9502158 17.9350034,9.02351536 C17.9350034,4.09556765 13.9600251,0.0868549367 9.07630363,0.0868549367" id="Fill-8"></path>
                <path d="M65.7509144,13.440084 L65.5333106,13.440084 C63.1186504,13.440084 61.1540343,11.4581785 61.1540343,9.02351536 C61.1540343,6.58760499 63.1186504,4.60569942 65.5333106,4.60569942 L65.7509144,4.60569942 C68.1655747,4.60569942 70.1301907,6.58760499 70.1301907,9.02351536 C70.1301907,11.4581785 68.1655747,13.440084 65.7509144,13.440084 M65.7509144,0.0868549367 L65.5333106,0.0868549367 C60.6483527,0.0868549367 56.6746108,4.09556765 56.6746108,9.02351536 C56.6746108,13.9502158 60.6483527,17.9589285 65.5333106,17.9589285 L65.7509144,17.9589285 C70.6358722,17.9589285 74.6096142,13.9502158 74.6096142,9.02351536 C74.6096142,4.09556765 70.6358722,0.0868549367 65.7509144,0.0868549367" id="Fill-10"></path>
            </g>
        </g>
    </g>
</svg>