<?xml version="1.0" encoding="UTF-8"?>
<svg width="172px" height="27px" viewBox="0 0 172 27" version="1.1" xmlns="http://www.w3.org/2000/svg" xmlns:xlink="http://www.w3.org/1999/xlink">
    <title>Shareconomy</title>
    <defs>
        <polygon id="path-1" points="155.219639 0.344924022 166.802568 0.344924022 166.802568 15.5790723 155.219639 15.5790723"></polygon>
        <polygon id="path-3" points="-3.40556247 3.79549703 20.1682891 3.79549703 20.1682891 21.3872924 -3.40556247 21.3872924"></polygon>
        <polygon id="path-5" points="5.38189581 -4.33799601 20.1682672 -4.33799601 20.1682672 7.81149106 5.38189581 7.81149106"></polygon>
    </defs>
    <g id="Assets" stroke="none" stroke-width="1" fill="none" fill-rule="evenodd" opacity="0.6">
        <g id="Artboard" transform="translate(-1251.000000, -416.000000)">
            <g id="Group-13" transform="translate(1255.000000, 421.000000)">
                <path d="M1.14935355,7.49292047 C0.584312804,7.49292047 0.126407341,7.94906591 0.126407341,8.51188766 C0.126407341,9.07426604 0.584312804,9.53076618 1.14935355,9.53076618 C1.71332651,9.53076618 2.17123197,9.07426604 2.17123197,8.51188766 C2.17123197,7.94906591 1.71332651,7.49292047 1.14935355,7.49292047" id="Fill-1" fill="#1A1A1A"></path>
                <path d="M36.8446176,12.7617402 C37.3136623,12.4692823 37.5484614,12.0096795 37.5484614,11.3831151 C37.5484614,10.868103 37.3803656,10.4466628 37.0442661,10.1193448 C36.7080743,9.79230209 36.2912483,9.49993596 35.7942491,9.24206298 C35.2971577,8.98455694 34.7578117,8.73750894 34.1766724,8.50046028 C33.5953485,8.2638703 33.0562793,7.96783469 32.5592801,7.61281212 C32.0619119,7.25769782 31.6455471,6.81570848 31.3092631,6.28638542 C30.9731637,5.75733758 30.8050678,5.0820608 30.8050678,4.26027988 C30.8050678,3.48051455 30.9591403,2.82615383 31.2672853,2.29673904 C31.5752458,1.7676912 31.9711291,1.33955416 32.4541971,1.01214446 C32.9372652,0.685101708 33.4834384,0.448144784 34.0927167,0.30191585 C34.7019027,0.155778653 35.307583,0.0825724494 35.9097574,0.0825724494 C36.2177178,0.0825724494 36.5993933,0.103488508 37.0546913,0.145228887 C37.5097127,0.187061004 37.9475738,0.2706335 38.3676289,0.395946375 C38.7878686,0.521259251 39.1482322,0.69198199 39.4494578,0.907655907 C39.7504066,1.12369677 39.90125,1.40578835 39.90125,1.75365542 C39.90125,1.8789683 39.8801227,2.02198643 39.8381449,2.1818842 C39.796167,2.3421489 39.7295561,2.49883587 39.6384964,2.65185335 C39.5473446,2.80532951 39.4318363,2.93385319 39.2919717,3.03834174 C39.1518303,3.14273856 38.9907461,3.19493697 38.8087191,3.19493697 C38.6408078,3.19493697 38.4795391,3.15319659 38.3256511,3.06962409 C38.1713941,2.98605159 37.9895516,2.89569055 37.7794779,2.79808228 C37.5694042,2.70084096 37.3136623,2.61011297 37.0127135,2.52654047 C36.7114879,2.44296798 36.3436514,2.4012276 35.9097574,2.4012276 C35.153695,2.4012276 34.568773,2.54415399 34.1558218,2.82945637 C33.7425938,3.11494222 33.5361182,3.50831089 33.5361182,4.00956239 C33.5361182,4.44136891 33.7040296,4.79281374 34.0403136,5.06444728 C34.3763208,5.33598909 34.7929624,5.58340404 35.2900538,5.80595824 C35.7870529,6.02887939 36.3263989,6.26225857 36.9077228,6.50572882 C37.4886776,6.74947429 38.0279314,7.06284822 38.5252995,7.44566713 C39.0221142,7.82885299 39.4390325,8.30928017 39.775132,8.88694867 C40.1111392,9.46498413 40.2793273,10.2064951 40.2793273,11.1115733 C40.2793273,11.8635423 40.1533016,12.5214807 39.90125,13.0853887 C39.6491062,13.6493884 39.3024892,14.1193575 38.8613068,14.4953879 C38.4202166,14.8714182 37.8949862,15.1569958 37.2857078,15.3518454 C36.6767063,15.546695 36.0076441,15.6443033 35.2796285,15.6443033 C34.5933139,15.6443033 33.952483,15.5676111 33.3575048,15.4145019 C32.7619731,15.2613926 32.2473525,15.0593876 31.8134585,14.8087618 C31.3791955,14.5581361 31.0394979,14.279714 30.7946425,13.9732203 C30.5496027,13.6670936 30.4269905,13.3606 30.4269905,13.0541063 C30.4269905,12.9151246 30.4585431,12.7584377 30.5216482,12.5841372 C30.5845688,12.4102036 30.6719381,12.2499389 30.7842173,12.10371 C30.8960352,11.9574811 31.0220609,11.8357459 31.1622023,11.7381377 C31.3020669,11.6408963 31.4565085,11.5920005 31.6244198,11.5920005 C31.8344935,11.5920005 32.0410614,11.6754812 32.2441234,11.8426262 C32.4470009,12.0096795 32.6780174,12.194438 32.9372652,12.3961679 C33.1964207,12.598173 33.5045657,12.7825645 33.8617002,12.9497095 C34.2188347,13.1167628 34.6632462,13.2003353 35.1956728,13.2003353 C35.8258017,13.2003353 36.3752039,13.0541063 36.8446176,12.7617402 Z" id="Fill-3" fill="#1A1A1A"></path>
                <path d="M49.8576455,8.64273539 L45.2006747,8.64273539 L45.2006747,14.6070516 C45.2006747,14.8843258 45.0589622,15.095339 44.7763552,15.2408212 C44.4932937,15.3863035 44.1863255,15.4590446 43.855269,15.4590446 C43.5103049,15.4590446 43.1997917,15.3863035 42.9239112,15.2408212 C42.647849,15.095339 42.5100451,14.8843258 42.5100451,14.6070516 L42.5100451,1.09910618 C42.5100451,0.808141664 42.647849,0.597128504 42.9239112,0.465245279 C43.1997917,0.333727128 43.5103049,0.26783115 43.855269,0.26783115 C44.1863255,0.26783115 44.4932937,0.333727128 44.7763552,0.465245279 C45.0589622,0.597128504 45.2006747,0.808141664 45.2006747,1.09910618 L45.2006747,6.52302058 L49.8576455,6.52302058 L49.8576455,1.09910618 C49.8576455,0.808141664 49.9952676,0.597128504 50.2715116,0.465245279 C50.5473921,0.333727128 50.8579053,0.26783115 51.2028694,0.26783115 C51.5339259,0.26783115 51.8408941,0.333727128 52.1239556,0.465245279 C52.4065626,0.597128504 52.5482751,0.808141664 52.5482751,1.09910618 L52.5482751,14.6070516 C52.5482751,14.8843258 52.4065626,15.095339 52.1239556,15.2408212 C51.8408941,15.3863035 51.5339259,15.4590446 51.2028694,15.4590446 C50.8579053,15.4590446 50.5473921,15.3863035 50.2715116,15.2408212 C49.9952676,15.095339 49.8576455,14.8843258 49.8576455,14.6070516 L49.8576455,8.64273539 Z" id="Fill-5" fill="#1A1A1A"></path>
                <path d="M62.2674867,10.0136746 L60.4382994,3.60848343 L58.6090197,10.0136746 L62.2674867,10.0136746 Z M56.3172028,15.4590446 C56.1349212,15.4590446 55.9421127,15.4313724 55.7390544,15.3755699 C55.5356266,15.320134 55.3500208,15.2436232 55.1817751,15.1461292 C55.0136217,15.04891 54.8733554,14.9306161 54.7613455,14.7914306 C54.6489662,14.6525199 54.5930997,14.4993151 54.5930997,14.3324574 C54.5930997,14.3046936 54.6069509,14.2352383 54.635115,14.1237249 L58.6930502,1.00061045 C58.7910242,0.680731153 59.0084878,0.447716817 59.3448869,0.30165907 C59.6811936,0.155601323 60.0457568,0.0825724494 60.4382994,0.0825724494 C60.8446931,0.0825724494 61.2161818,0.155601323 61.5525809,0.30165907 C61.8888877,0.447716817 62.1060742,0.680731153 62.2043253,1.00061045 L66.2623528,14.1237249 C66.2903322,14.2352383 66.3043681,14.3046936 66.3043681,14.3324574 C66.3043681,14.4993151 66.2482246,14.6489464 66.1362147,14.7809848 C66.0239278,14.9133897 65.8839385,15.0313171 65.7156928,15.1356834 C65.5475394,15.2400496 65.3614718,15.320134 65.1585981,15.3755699 C64.9551704,15.4313724 64.7623619,15.4590446 64.5803574,15.4590446 C64.3417477,15.4590446 64.1421059,15.4173531 63.9810628,15.3338784 C63.8198351,15.2504038 63.7110571,15.1115848 63.6550983,14.9165968 L62.856162,12.1417744 L58.0413982,12.1417744 L57.2422772,14.9165968 C57.1862261,15.1115848 57.0774481,15.2504038 56.916405,15.3338784 C56.7551772,15.4173531 56.5553508,15.4590446 56.3172028,15.4590446 L56.3172028,15.4590446 Z" id="Fill-7" fill="#1A1A1A"></path>
                <path d="M70.6849388,2.64949926 L70.6849388,7.09949433 L72.9758504,7.09949433 C73.6558891,7.09949433 74.197359,6.93598804 74.6002601,6.60851671 C75.002704,6.28141239 75.2042003,5.70693829 75.2042003,4.88491092 C75.2042003,4.06334231 75.002704,3.48519804 74.6002601,3.15084513 C74.197359,2.81658397 73.6558891,2.64949926 72.9758504,2.64949926 L70.6849388,2.64949926 Z M67.9774064,1.10343817 C67.9774064,0.880842078 68.0572549,0.685680539 68.2170434,0.518504082 C68.3765575,0.351327624 68.5883893,0.26783115 68.8522645,0.26783115 L72.9758504,0.26783115 C73.6558891,0.26783115 74.2945857,0.340867626 74.8917575,0.487215842 C75.4886549,0.633380549 76.0127466,0.873685238 76.4641239,1.2079464 C76.915044,1.54220756 77.2691031,1.98813378 77.5262098,2.54499104 C77.7830422,3.10221531 77.9115498,3.79853921 77.9115498,4.63423798 C77.9115498,5.83227476 77.6512418,6.76881159 77.1305343,7.44421548 C76.6099184,8.11989465 75.9607947,8.57591385 75.1833464,8.81264012 L77.9115498,13.8894093 C77.9531662,13.9451959 77.9808799,14.0042857 77.9947825,14.0670457 C78.0085022,14.129714 78.0156364,14.1819222 78.0156364,14.2236704 C78.0156364,14.3907551 77.9635016,14.56151 77.8595065,14.735568 C77.7554199,14.9098096 77.6231622,15.0628559 77.4636481,15.1950739 C77.3039511,15.327659 77.1234001,15.4354704 76.9221782,15.5189668 C76.7208648,15.6025551 76.5231185,15.6443033 76.3287565,15.6443033 C76.1342114,15.6443033 75.9572276,15.5885166 75.797622,15.4772186 C75.637925,15.3658288 75.5025575,15.2056257 75.3916111,14.9966092 L72.4341976,9.23048951 L70.6849388,9.23048951 L70.6849388,14.6832681 C70.6849388,14.9620178 70.5459128,15.1742457 70.268318,15.3205021 C69.9905403,15.4666668 69.6780975,15.5398868 69.3311726,15.5398868 C68.9980589,15.5398868 68.6888174,15.4666668 68.4043627,15.3205021 C68.1198167,15.1742457 67.9774064,14.9620178 67.9774064,14.6832681 L67.9774064,1.10343817 Z" id="Fill-9" fill="#1A1A1A"></path>
                <path d="M82.9610311,6.79317584 L86.1350937,6.79317584 C86.4135315,6.79317584 86.6259366,6.90424981 86.7721257,7.12566759 C86.918223,7.34754173 86.9913175,7.59688773 86.9913175,7.87379687 C86.9913175,8.10954384 86.9215246,8.34136625 86.7824891,8.56999427 C86.6430868,8.79862228 86.4274718,8.91289065 86.1350937,8.91289065 L82.9610311,8.91289065 L82.9610311,13.0899838 L88.8707727,13.0899838 C89.1491188,13.0899838 89.3615239,13.2113711 89.5077129,13.4535982 C89.6539019,13.6961903 89.7269047,13.9767502 89.7269047,14.2952778 C89.7269047,14.572552 89.6571119,14.8355883 89.5180764,15.0850256 C89.3789492,15.3343716 89.1632424,15.4590446 88.8707727,15.4590446 L81.436685,15.4590446 C81.1301833,15.4590446 80.8552305,15.3863035 80.6118267,15.2408212 C80.3680561,15.095339 80.2463542,14.8843258 80.2463542,14.6070516 L80.2463542,1.11991543 C80.2463542,0.842915027 80.3680561,0.631536792 80.6118267,0.486054535 C80.8552305,0.340572278 81.1301833,0.26783115 81.436685,0.26783115 L88.8707727,0.26783115 C89.1632424,0.26783115 89.3789492,0.39250415 89.5180764,0.641850151 C89.6571119,0.891287421 89.7269047,1.15459753 89.7269047,1.43159794 C89.7269047,1.75039939 89.6539019,2.03105055 89.5077129,2.27327759 C89.3615239,2.51577844 89.1491188,2.63689197 88.8707727,2.63689197 L82.9610311,2.63689197 L82.9610311,6.79317584 Z" id="Fill-11" fill="#1A1A1A"></path>
                <path d="M98.521414,4.71175365 C98.5072061,4.54489695 98.4794362,4.34670309 98.4374583,4.11717205 C98.395296,3.88764101 98.3008228,3.66168351 98.1538542,3.43911628 C98.0066089,3.21673232 97.7930293,3.02898418 97.5130233,2.87578023 C97.2326483,2.72285116 96.8407321,2.64624919 96.3367213,2.64624919 C95.6224522,2.64624919 95.0762791,2.84123603 94.6981095,3.23047669 C94.3200322,3.61999224 94.1309935,4.22501957 94.1309935,5.04555867 L94.1309935,10.8664841 C94.1309935,11.6872981 94.3232612,12.2924171 94.7087193,12.6815661 C95.0936237,13.0711733 95.6504067,13.2657936 96.3785146,13.2657936 C96.8546632,13.2657936 97.2326483,13.1895582 97.5130233,13.0362626 C97.7930293,12.8834252 98.0030108,12.6955854 98.1431522,12.4730182 C98.2830168,12.2506342 98.3775823,12.0107491 98.4268486,11.7531795 C98.4756536,11.4959765 98.5072061,11.2559997 98.521414,11.0334325 C98.5493685,10.7136467 98.6893254,10.4909879 98.9414692,10.3657308 C99.1935207,10.2405654 99.5014812,10.1779827 99.8658119,10.1779827 C100.341684,10.1779827 100.691991,10.2686039 100.91618,10.449205 C101.140001,10.6301725 101.25228,10.9847774 101.25228,11.5132944 C101.25228,12.1392131 101.129575,12.7096963 100.884628,13.2241024 C100.639404,13.738875 100.292879,14.1733804 99.8447769,14.5279853 C99.3963982,14.8826817 98.8643407,15.1574776 98.2482352,15.3520979 C97.6317606,15.5467182 96.9596539,15.6443033 96.2317306,15.6443033 C95.5730937,15.6443033 94.950161,15.557164 94.36201,15.3834351 C93.773859,15.2097062 93.2590539,14.9349104 92.8179637,14.5593224 C92.3767812,14.1837345 92.0303487,13.6935185 91.7782049,13.0883996 C91.5261534,12.4834639 91.3999431,11.7427338 91.3999431,10.8664841 L91.3999431,5.04555867 C91.3999431,4.16930904 91.5293824,3.42867056 91.7886302,2.82355161 C92.0476011,2.21852428 92.3979085,1.72830829 92.8389987,1.35272037 C93.2800889,0.977224086 93.7948018,0.70270313 94.3831373,0.528607732 C94.9712883,0.354878849 95.5941287,0.26783115 96.2525811,0.26783115 C96.9805967,0.26783115 97.6528879,0.361751036 98.2693625,0.549499179 C98.8853757,0.737247323 99.4141119,1.00168907 99.8552021,1.34227465 C100.296477,1.68331837 100.639404,2.10059755 100.884628,2.5941122 C101.129575,3.08799335 101.25228,3.6340115 101.25228,4.23189175 C101.25228,4.77433636 101.140001,5.13260637 100.91618,5.30642688 C100.691991,5.48043065 100.348972,5.56711183 99.8867547,5.56711183 C99.494654,5.56711183 99.1726702,5.50452912 98.9205264,5.37945532 C98.6684748,5.25419826 98.5350683,5.03190593 98.521414,4.71175365" id="Fill-13" fill="#1A1A1A"></path>
                <path d="M110.41855,5.04555867 C110.41855,4.21109193 110.222129,3.60276596 109.830209,3.22003097 C109.43792,2.8376625 108.898753,2.64634082 108.212801,2.64634082 C107.51218,2.64634082 106.973383,2.8376625 106.59521,3.22003097 C106.216944,3.60276596 106.027904,4.21109193 106.027904,5.04555867 L106.027904,10.8664841 C106.027904,11.7010425 106.216944,12.3096434 106.59521,12.6920118 C106.973383,13.0748385 107.51218,13.2657936 108.212801,13.2657936 C108.898753,13.2657936 109.43792,13.0748385 109.830209,12.6920118 C110.222129,12.3096434 110.41855,11.7010425 110.41855,10.8664841 L110.41855,5.04555867 Z M108.212801,15.6443033 C107.51218,15.6443033 106.864793,15.557164 106.269532,15.3834351 C105.67418,15.2097062 105.15614,14.9349104 104.715046,14.5593224 C104.273952,14.1837345 103.927239,13.6935185 103.675093,13.0883996 C103.423039,12.4834639 103.297105,11.7427338 103.297105,10.8664841 L103.297105,5.04555867 C103.297105,4.16930904 103.423039,3.42867056 103.675093,2.82364323 C103.927239,2.21861591 104.273952,1.72830829 104.715046,1.35272037 C105.15614,0.977224086 105.67418,0.70270313 106.269532,0.528607732 C106.864793,0.354878849 107.51218,0.26783115 108.212801,0.26783115 C108.898753,0.26783115 109.543188,0.354878849 110.145369,0.528607732 C110.747456,0.70270313 111.272507,0.977224086 111.720982,1.35272037 C112.168996,1.72830829 112.519307,2.21861591 112.771361,2.82364323 C113.023322,3.42867056 113.149441,4.16930904 113.149441,5.04555867 L113.149441,10.8664841 C113.149441,11.7427338 113.023322,12.4834639 112.771361,13.0883996 C112.519307,13.6935185 112.168996,14.1837345 111.720982,14.5593224 C111.272507,14.9349104 110.747456,15.2097062 110.145369,15.3834351 C109.543188,15.557164 108.898753,15.6443033 108.212801,15.6443033 L108.212801,15.6443033 Z" id="Fill-15" fill="#1A1A1A"></path>
                <path d="M124.630663,15.4590446 C124.313241,15.4590446 124.02009,15.3967081 123.751118,15.2720351 C123.481964,15.1472708 123.257624,14.925853 123.078461,14.6070516 L118.628468,6.25286532 L118.628468,14.6070516 C118.628468,14.8843258 118.486756,15.095339 118.204149,15.2408212 C117.921269,15.3863035 117.614301,15.4590446 117.283063,15.4590446 C116.938098,15.4590446 116.627585,15.3863035 116.351705,15.2408212 C116.075643,15.095339 115.937839,14.8843258 115.937839,14.6070516 L115.937839,1.11991543 C115.937839,0.828950921 116.075643,0.614287014 116.351705,0.475649907 C116.627585,0.337286606 116.938098,0.26783115 117.283063,0.26783115 C117.5314,0.26783115 117.745196,0.285354734 117.924905,0.319854291 C118.103977,0.354536385 118.266233,0.423718035 118.411127,0.527581779 C118.556021,0.631536792 118.697279,0.77692778 118.835447,0.963937281 C118.973251,1.15103805 119.125235,1.39718965 119.290854,1.70175319 L123.285439,9.45320117 L123.285439,1.09910618 C123.285439,0.808141664 123.423061,0.597128504 123.699305,0.465245279 C123.975186,0.333727128 124.285699,0.26783115 124.630663,0.26783115 C124.961992,0.26783115 125.268778,0.333727128 125.551749,0.465245279 C125.834356,0.597128504 125.976069,0.808141664 125.976069,1.09910618 L125.976069,14.6070516 C125.976069,14.8843258 125.834356,15.095339 125.551749,15.2408212 C125.268778,15.3863035 124.961992,15.4590446 124.630663,15.4590446" id="Fill-17" fill="#1A1A1A"></path>
                <path d="M135.885937,5.04555867 C135.885937,4.21109193 135.689517,3.60276596 135.297601,3.22003097 C134.905316,2.8376625 134.366155,2.64634082 133.680209,2.64634082 C132.979594,2.64634082 132.440802,2.8376625 132.062632,3.22003097 C131.68437,3.60276596 131.495332,4.21109193 131.495332,5.04555867 L131.495332,10.8664841 C131.495332,11.7010425 131.68437,12.3096434 132.062632,12.6920118 C132.440802,13.0748385 132.979594,13.2657936 133.680209,13.2657936 C134.366155,13.2657936 134.905316,13.0748385 135.297601,12.6920118 C135.689517,12.3096434 135.885937,11.7010425 135.885937,10.8664841 L135.885937,5.04555867 Z M133.680209,15.6443033 C132.979594,15.6443033 132.332121,15.557164 131.736958,15.3834351 C131.141611,15.2097062 130.623577,14.9349104 130.182486,14.5593224 C129.741304,14.1837345 129.394687,13.6935185 129.142543,13.0883996 C128.890492,12.4834639 128.764466,11.7427338 128.764466,10.8664841 L128.764466,5.04555867 C128.764466,4.16930904 128.890492,3.42867056 129.142543,2.82364323 C129.394687,2.21861591 129.741304,1.72830829 130.182486,1.35272037 C130.623577,0.977224086 131.141611,0.70270313 131.736958,0.528607732 C132.332121,0.354878849 132.979594,0.26783115 133.680209,0.26783115 C134.366155,0.26783115 135.010584,0.354878849 135.612758,0.528607732 C136.214748,0.70270313 136.739886,0.977224086 137.188357,1.35272037 C137.636366,1.72830829 137.986674,2.21861591 138.238725,2.82364323 C138.490592,3.42867056 138.616803,4.16930904 138.616803,5.04555867 L138.616803,10.8664841 C138.616803,11.7427338 138.490592,12.4834639 138.238725,13.0883996 C137.986674,13.6935185 137.636366,14.1837345 137.188357,14.5593224 C136.739886,14.9349104 136.214748,15.2097062 135.612758,15.3834351 C135.010584,15.557164 134.366155,15.6443033 133.680209,15.6443033 L133.680209,15.6443033 Z" id="Fill-19" fill="#1A1A1A"></path>
                <path d="M148.14766,9.99351168 C148.03612,10.2013304 147.897267,10.343527 147.730185,10.4194626 C147.563378,10.4958544 147.396388,10.5338222 147.229489,10.5338222 C147.062499,10.5338222 146.8989,10.4958544 146.739058,10.4194626 C146.579034,10.343527 146.443297,10.2013304 146.332123,9.99351168 L143.932211,5.50473605 L143.932211,14.6069603 C143.932211,14.8842345 143.789325,15.095339 143.504379,15.2408212 C143.219249,15.3862122 142.909648,15.4590446 142.575667,15.4590446 C142.227847,15.4590446 141.914763,15.3862122 141.636599,15.2408212 C141.358251,15.095339 141.219307,14.8842345 141.219307,14.6069603 L141.219307,1.61860744 C141.219307,1.11982417 141.358251,0.77008263 141.636599,0.569109023 C141.914763,0.368500491 142.227847,0.26783115 142.575667,0.26783115 C142.826061,0.26783115 143.041627,0.285263466 143.222823,0.319763022 C143.403378,0.354536385 143.573851,0.423626766 143.734059,0.527581779 C143.893717,0.631445523 144.050167,0.77692778 144.203593,0.963937281 C144.356469,1.15103805 144.516493,1.39709838 144.683484,1.70166192 L147.250294,6.35672907 L149.817288,1.70166192 C149.984095,1.39709838 150.143936,1.15103805 150.297179,0.963937281 C150.450054,0.77692778 150.606505,0.631445523 150.766713,0.527581779 C150.926554,0.423626766 151.100601,0.354536385 151.288397,0.319763022 C151.476284,0.285263466 151.695424,0.26783115 151.945818,0.26783115 C152.293454,0.26783115 152.606355,0.368500491 152.884977,0.569109023 C153.163142,0.77008263 153.302361,1.11982417 153.302361,1.61860744 L153.302361,14.6069603 C153.302361,14.8842345 153.159567,15.095339 152.874529,15.2408212 C152.589216,15.3862122 152.279707,15.4590446 151.945818,15.4590446 C151.597906,15.4590446 151.284914,15.3862122 151.00675,15.2408212 C150.728219,15.095339 150.589366,14.8842345 150.589366,14.6069603 L150.589366,5.6709363 L148.14766,9.99351168 Z" id="Fill-21" fill="#1A1A1A"></path>
                <mask id="mask-2" fill="white">
                    <use xlink:href="#path-1"></use>
                </mask>
                <g id="Clip-24"></g>
                <path d="M159.657112,9.47287383 C159.657112,9.36185204 159.636251,9.27160679 159.594529,9.20195503 L155.282221,1.74116261 C155.240408,1.64414439 155.219639,1.55362456 155.219639,1.47024381 C155.219639,1.30357384 155.278653,1.15081591 155.396772,1.01178697 C155.514525,0.873032619 155.663935,0.754871752 155.844545,0.657487429 C156.02488,0.560469212 156.219671,0.483952958 156.428004,0.428213246 C156.636245,0.372931168 156.83067,0.344924022 157.01128,0.344924022 C157.233245,0.344924022 157.403516,0.386568634 157.521635,0.469949385 C157.639388,0.553238609 157.747168,0.692267544 157.84461,0.886761612 L161.011135,6.90957931 L164.198613,0.886761612 C164.295597,0.706362644 164.399809,0.570903246 164.510975,0.480291893 C164.62214,0.390138172 164.78866,0.344924022 165.011174,0.344924022 C165.191235,0.344924022 165.386026,0.372931168 165.59445,0.428213246 C165.802783,0.483952958 165.997025,0.560469212 166.177726,0.657487429 C166.35797,0.754871752 166.50738,0.873032619 166.625682,1.01178697 C166.743435,1.15081591 166.802632,1.30357384 166.802632,1.47024381 C166.802632,1.49825096 166.799064,1.53641756 166.792202,1.58483514 C166.785065,1.63371036 166.767956,1.685789 166.740233,1.74116261 L162.448602,9.20195503 C162.392974,9.28533578 162.365342,9.37585561 162.365342,9.47287383 L162.365342,14.7245797 C162.365342,15.0026376 162.226271,15.2143387 161.948586,15.3602321 C161.670718,15.506034 161.358173,15.5790723 161.011135,15.5790723 C160.677822,15.5790723 160.368571,15.506034 160.084024,15.3602321 C159.799202,15.2143387 159.657112,15.0026376 159.657112,14.7245797 L159.657112,9.47287383 Z" id="Fill-23" fill="#1A1A1A" mask="url(#mask-2)"></path>
                <mask id="mask-4" fill="white">
                    <use xlink:href="#path-3"></use>
                </mask>
                <g id="Clip-27"></g>
                <path d="M15.4450275,19.0297549 C14.2809855,19.0297549 13.3377464,18.0894998 13.3377464,16.9301163 C13.3377464,15.770368 14.2809855,14.8308424 15.4450275,14.8308424 C16.6085205,14.8308424 17.5516681,15.770368 17.5516681,16.9301163 C17.5516681,18.0894998 16.6085205,19.0297549 15.4450275,19.0297549 M1.17967958,11.1779728 C-0.284958129,11.1779728 -1.47242555,9.99533596 -1.47242555,8.53612133 C-1.47242555,7.07681551 -0.284958129,5.89390511 1.17967958,5.89390511 C2.64358523,5.89390511 3.83004609,7.07681551 3.83004609,8.53612133 C3.83004609,9.99533596 2.64358523,11.1779728 1.17967958,11.1779728 M20.1543603,16.2754667 C19.9132431,13.246151 17.0268838,11.2339632 13.6420938,12.167835 C12.8889117,12.3565973 11.7199284,12.4408564 10.56522,11.9705921 C10.3689406,11.8907101 10.185289,11.7966937 10.0147227,11.6888165 C9.44729679,11.3318095 6.53467539,8.7920903 6.21760869,8.17309587 C6.16206483,8.06521867 6.13058692,7.94065379 6.1103642,7.82019244 C5.66720286,5.22803927 3.32219033,3.499542 0.702295163,3.83767272 C-1.92135173,4.17580344 -3.81258828,6.76266763 -3.33026256,9.35263226 C-2.85379321,11.9108629 -0.644391897,13.5691443 1.95207785,13.2876422 C2.57157037,13.2202532 3.1763305,13.011794 3.79609754,12.9545269 C4.70328348,12.8702678 5.54293833,12.9642842 6.26766222,13.3175524 C6.43301274,13.3984375 6.59204937,13.4924539 6.74541266,13.6013342 C7.12031086,13.8679723 9.94096919,16.25732 10.2288456,16.7127205 C10.4705118,17.0939838 10.6656931,17.5230305 10.7919707,17.9561807 C11.4472419,20.197619 13.6981867,21.6961363 16.0787949,21.3331108 C18.8300005,20.9135479 20.3304169,18.4873596 20.1543603,16.2754667" id="Fill-26" fill="#1A1A1A" mask="url(#mask-4)"></path>
                <mask id="mask-6" fill="white">
                    <use xlink:href="#path-5"></use>
                </mask>
                <g id="Clip-30"></g>
                <path d="M15.4297647,2.50612705 C14.2619885,2.50612705 13.3157236,1.56601103 13.3157236,0.405625189 C13.3157236,-0.754578161 14.2619885,-1.69542415 15.4297647,-1.69542415 C16.5969901,-1.69542415 17.5431633,-0.754578161 17.5431633,0.405625189 C17.5431633,1.56601103 16.5969901,2.50612705 15.4297647,2.50612705 M16.0479398,-4.29586735 C13.4189975,-4.63411932 11.0664624,-2.90462704 10.6223384,-0.310479875 C10.6015,-0.189942823 10.5698293,-0.0656646502 10.5140155,0.0426453283 C10.1961152,0.66175502 7.27341596,3.20297903 6.70490423,3.56057533 C6.53369893,3.66815533 6.34954997,3.76268704 6.15181474,3.84252801 C5.8941347,3.94737061 5.63645467,4.0194556 5.38189581,4.07392995 C6.39829528,5.03986882 7.08339186,6.34734454 7.2500072,7.81149106 C8.20260631,6.93342288 9.71674042,5.66390584 9.98525275,5.47356497 C10.1385572,5.36498125 10.2988384,5.27090577 10.4647194,5.19033483 C11.1910337,4.8365709 12.0333821,4.74240418 12.9440291,4.82680749 C13.5653253,4.88438423 14.1720254,5.09306572 14.7934134,5.16013213 C17.3980289,5.44208481 19.6145178,3.78276134 20.0926993,1.22228425 C20.5765722,-1.36894302 18.6791769,-3.95715914 16.0479398,-4.29586735" id="Fill-29" fill="#1A1A1A" mask="url(#mask-6)"></path>
            </g>
        </g>
    </g>
</svg>