<?xml version="1.0" encoding="UTF-8"?>
<svg width="131px" height="32px" viewBox="0 0 131 32" version="1.1" xmlns="http://www.w3.org/2000/svg" xmlns:xlink="http://www.w3.org/1999/xlink">
    <title>soulskill</title>
    <g id="Assets" stroke="none" stroke-width="1" fill="none" fill-rule="evenodd" opacity="0.6">
        <g id="Artboard" transform="translate(-1537.000000, -413.000000)" fill-rule="nonzero">
            <g id="soulskill" transform="translate(1537.000000, 413.000000)">
                <path d="M20.3475526,31.3735385 L20.3629922,31.3569231 C20.3531109,31.36 20.3463175,31.3618462 20.3364361,31.3649231 L20.3475526,31.3735385 Z" id="Shape" fill="#E05B26"></path>
                <path d="M28.9795295,25.2972308 C28.9857054,25.2886154 28.9924988,25.2806154 28.9986746,25.2713846 L28.9980571,25.2707692 C30.8625443,22.6664615 31.9624621,19.4806154 31.9624621,16.0375385 C31.9624621,7.24307692 24.8083646,0.113230769 15.981231,0.113230769 C7.15409748,0.113846154 0,7.24369231 0,16.0381538 C0,24.8326154 7.15409748,31.9624615 15.981231,31.9624615 C16.3153442,31.9624615 16.6463694,31.9489231 16.9761595,31.9286154 L16.9761595,31.9286154 C16.9804826,31.928 16.9848057,31.9273846 16.9891288,31.9273846 C17.2830989,31.9089231 17.5739812,31.8824615 17.8630107,31.8486154 C17.895125,31.8443077 17.9266218,31.84 17.9575011,31.8363077 C18.2242975,31.8030769 18.4886236,31.7649231 18.7504794,31.7193846 C18.7875345,31.712 18.8233544,31.7064615 18.8591743,31.6990769 C19.124118,31.6510769 19.3865913,31.5969231 19.6453592,31.5366154 C19.6712977,31.5304615 19.6972363,31.5243077 19.7225572,31.5187692 C21.1751157,31.1716923 22.5498585,30.6270769 23.8177593,29.9150769 C23.8264054,29.9095385 23.834434,29.9046154 23.8436978,29.9003077 C24.0857909,29.7636923 24.3235609,29.6209231 24.5576254,29.4726154 C24.573065,29.4615385 24.5891222,29.4523077 24.6039442,29.4424615 C24.8373911,29.2929231 25.0671325,29.1384615 25.2919332,28.9766154 C25.2999618,28.9710769 25.3073728,28.9655385 25.3154014,28.96 C26.4968403,28.1107692 27.5566151,27.1058462 28.4656993,25.9729231 C28.4687872,25.9692308 28.4718752,25.9649231 28.4749631,25.9612308 C28.6497395,25.7446154 28.8171048,25.5236923 28.9795295,25.2972308 Z" id="Shape" fill="#1A1A1A"></path>
                <path d="M20.5945864,10.7409231 C20.4142517,9.76 20.2215654,8.704 20.0152922,7.54892308 L15.531012,19.8246154 L15.531012,19.8246154 C17.7388762,25.0603077 20.8027123,25.6621538 21.7297065,24.2270769 C23.0148996,22.2326154 22.560975,21.4030769 20.5945864,10.7409231 Z" id="Shape" fill="#DCDCDC"></path>
                <path d="M17.5122227,9.62338462 C18.2835856,8.98769231 19.1117663,8.30276923 20.0152922,7.54953846 L15.531012,19.8252308 L15.531012,19.8252308 C10.462497,22.4215385 7.72598061,20.9206154 7.94275273,19.2264615 C8.24598666,16.8756923 9.12789716,16.5310769 17.5122227,9.62338462 Z" id="Shape" fill="#FCFCFC"></path>
                <path d="M40.4493067,23.2953846 C40.0769033,23.064 39.7749045,22.6467692 39.7749045,22.0916923 C39.7749045,21.3033846 40.3807548,20.7009231 41.1712628,20.7009231 C41.4263252,20.7009231 41.6820051,20.7698462 41.8685156,20.8867692 C43.05366,21.6270769 44.2388044,21.9993846 45.2386735,21.9993846 C46.2626284,21.9993846 46.7276695,21.6276923 46.7276695,21.0726154 L46.7276695,21.0258462 C46.7276695,20.2615385 45.5184393,20.0061538 44.1467844,19.5895385 C42.4027261,19.08 40.4276912,18.2695385 40.4276912,15.8596923 L40.4276912,15.8135385 C40.4276912,13.2886154 42.4737483,11.8756923 44.9854639,11.8756923 C46.2873318,11.8756923 47.6342834,12.2227692 48.8435136,12.8246154 C49.3567262,13.08 49.6815756,13.5427692 49.6815756,14.1458462 C49.6815756,14.9329231 49.0528747,15.5353846 48.2629843,15.5353846 C48.0079219,15.5353846 47.8448796,15.4892308 47.6126679,15.3729231 C46.6127988,14.8861538 45.6586309,14.5864615 44.9144417,14.5864615 C44.0541467,14.5864615 43.6125739,14.9569231 43.6125739,15.4436923 L43.6125739,15.4898462 C43.6125739,16.184 44.7989535,16.5083077 46.1471402,16.9723077 C47.8911985,17.5513846 49.9144049,18.3852308 49.9144049,20.656 L49.9144049,20.7015385 C49.9144049,23.4584615 47.8448796,24.7101538 45.1472711,24.7101538 C43.6107211,24.7095385 41.9605356,24.2689231 40.4493067,23.2953846 Z" id="Shape" fill="#1A1A1A"></path>
                <path d="M50.9130388,18.3384615 L50.9130388,18.2929231 C50.9130388,14.7255385 53.7965403,11.8289231 57.6786757,11.8289231 C61.5385781,11.8289231 64.3979938,14.6793846 64.3979938,18.2461538 L64.3979938,18.2929231 C64.3979938,21.8590769 61.5151099,24.7556923 57.6329745,24.7556923 C53.7724545,24.7556923 50.9130388,21.9070769 50.9130388,18.3384615 Z M60.9111124,18.3384615 L60.9111124,18.2929231 C60.9111124,16.4615385 59.5851587,14.864 57.6323569,14.864 C55.6091505,14.864 54.3999203,16.4153846 54.3999203,18.2461538 L54.3999203,18.2929231 C54.3999203,20.1230769 55.7258739,21.7206154 57.6786757,21.7206154 C59.7018822,21.7206154 60.9111124,20.1686154 60.9111124,18.3384615 Z" id="Shape" fill="#1A1A1A"></path>
                <path d="M77.3487383,22.8566154 C77.3487383,23.8289231 76.560083,24.6172308 75.5818294,24.6172308 C74.6066636,24.6172308 73.8161556,23.8289231 73.8161556,22.8566154 L73.8161556,22.7169231 C73.002797,23.7593846 71.9572266,24.7095385 70.1662319,24.7095385 C67.4920916,24.7095385 65.9345438,22.9489231 65.9345438,20.0990769 L65.9345438,13.6812308 C65.9345438,12.7089231 66.7244342,11.9212308 67.7014527,11.9212308 C68.6784712,11.9212308 69.4683616,12.7095385 69.4683616,13.6812308 L69.4683616,18.9870769 C69.4683616,20.6553846 70.258252,21.5126154 71.6070563,21.5126154 C72.955243,21.5126154 73.815538,20.6553846 73.815538,18.9870769 L73.815538,13.6812308 C73.815538,12.7089231 74.6060461,11.9212308 75.5812118,11.9212308 C76.5594655,11.9212308 77.3481207,12.7095385 77.3481207,13.6812308 L77.3481207,22.8566154 L77.3487383,22.8566154 Z" id="Shape" fill="#1A1A1A"></path>
                <path d="M80.6769005,9.18769231 C80.6769005,8.21538462 81.466791,7.42707692 82.4438094,7.42707692 C83.4202104,7.42707692 84.2088656,8.21538462 84.2088656,9.18769231 L84.2088656,22.8566154 C84.2088656,23.8289231 83.4202104,24.6172308 82.4438094,24.6172308 C81.466791,24.6172308 80.6769005,23.8289231 80.6769005,22.8566154 L80.6769005,9.18769231 Z" id="Shape" fill="#1A1A1A"></path>
                <path d="M87.2109433,23.2953846 C86.8373047,23.064 86.5359236,22.6467692 86.5359236,22.0916923 C86.5359236,21.3033846 87.1405387,20.7009231 87.9310467,20.7009231 C88.186109,20.7009231 88.4424065,20.7698462 88.6282994,20.8867692 C89.8134439,21.6270769 90.9998235,21.9993846 91.9996926,21.9993846 C93.0217947,21.9993846 93.4868358,21.6276923 93.4868358,21.0726154 L93.4868358,21.0258462 C93.4868358,20.2615385 92.2788407,20.0061538 90.9065682,19.5895385 C89.1625099,19.08 87.1868575,18.2695385 87.1868575,15.8596923 L87.1868575,15.8135385 C87.1868575,13.2886154 89.2316794,11.8756923 91.7427775,11.8756923 C93.0458805,11.8756923 94.3940672,12.2227692 95.6026799,12.8246154 C96.1140397,13.08 96.4395067,13.5427692 96.4395067,14.1458462 C96.4395067,14.9329231 95.8108058,15.5353846 95.0209154,15.5353846 C94.7652354,15.5353846 94.6028108,15.4892308 94.3693639,15.3729231 C93.3707299,14.8861538 92.416562,14.5864615 91.673608,14.5864615 C90.813313,14.5864615 90.3723577,14.9569231 90.3723577,15.4436923 L90.3723577,15.4898462 C90.3723577,16.184 91.5568846,16.5083077 92.906924,16.9723077 C94.6503647,17.5513846 96.6717184,18.3852308 96.6717184,20.656 L96.6717184,20.7015385 C96.6717184,23.4584615 94.6034283,24.7101538 91.9070549,24.7101538 C90.3723577,24.7095385 88.7209371,24.2689231 87.2109433,23.2953846 Z" id="Shape" fill="#1A1A1A"></path>
                <path d="M98.2792906,9.18769231 C98.2792906,8.21538462 99.0679458,7.42707692 100.044964,7.42707692 C101.021365,7.42707692 101.811256,8.21538462 101.811256,9.18769231 L101.811256,16.88 L106.228837,12.7095385 C106.739579,12.2227692 107.158919,11.9212308 107.787002,11.9212308 C108.739935,11.9212308 109.343315,12.6861538 109.343315,13.4966154 C109.343315,14.0996923 109.019083,14.5618462 108.530574,15.0252308 L105.740327,17.4110769 L109.065402,21.8824615 C109.367401,22.2996923 109.507592,22.624 109.507592,23.0172308 C109.507592,23.9673846 108.740552,24.6172308 107.856172,24.6172308 C107.158919,24.6172308 106.739579,24.3852308 106.322092,23.8061538 L103.230465,19.5655385 L101.811256,20.8406154 L101.811256,22.856 C101.811256,23.8283077 101.021365,24.6166154 100.044964,24.6166154 C99.0679458,24.6166154 98.2792906,23.8283077 98.2792906,22.856 L98.2792906,9.18769231 Z" id="Shape" fill="#1A1A1A"></path>
                <path d="M111.904437,9.09476923 C111.904437,8.07630769 112.764732,7.45107692 113.880707,7.45107692 C114.996065,7.45107692 115.856977,8.07630769 115.856977,9.09476923 L115.856977,9.14153846 C115.856977,10.1612308 114.995447,10.8104615 113.880707,10.8104615 C112.764115,10.8104615 111.904437,10.1612308 111.904437,9.14153846 L111.904437,9.09476923 Z M112.114416,13.6812308 C112.114416,12.7089231 112.904306,11.9212308 113.880707,11.9212308 C114.857726,11.9212308 115.647616,12.7095385 115.647616,13.6812308 L115.647616,22.856 C115.647616,23.8283077 114.857726,24.6166154 113.880707,24.6166154 C112.904306,24.6166154 112.114416,23.8283077 112.114416,22.856 L112.114416,13.6812308 Z" id="Shape" fill="#1A1A1A"></path>
                <path d="M119.135733,9.18769231 C119.135733,8.21538462 119.925623,7.42707692 120.902642,7.42707692 C121.878425,7.42707692 122.669551,8.21538462 122.669551,9.18769231 L122.669551,22.8566154 C122.669551,23.8289231 121.878425,24.6172308 120.902642,24.6172308 C119.925623,24.6172308 119.135733,23.8289231 119.135733,22.8566154 L119.135733,9.18769231 Z" id="Shape" fill="#1A1A1A"></path>
                <path d="M126.157667,9.18769231 C126.157667,8.21538462 126.948793,7.42707692 127.925194,7.42707692 C128.900977,7.42707692 129.692103,8.21538462 129.692103,9.18769231 L129.692103,22.8566154 C129.692103,23.8289231 128.900977,24.6172308 127.925194,24.6172308 C126.948793,24.6172308 126.157667,23.8289231 126.157667,22.8566154 L126.157667,9.18769231 Z" id="Shape" fill="#1A1A1A"></path>
            </g>
        </g>
    </g>
</svg>