<?xml version="1.0" encoding="UTF-8"?>
<svg width="125px" height="20px" viewBox="0 0 125 20" version="1.1" xmlns="http://www.w3.org/2000/svg" xmlns:xlink="http://www.w3.org/1999/xlink">
    <title>truCSR</title>
    <g id="Assets" stroke="none" stroke-width="1" fill="none" fill-rule="evenodd" opacity="0.6">
        <g id="Artboard" transform="translate(-1549.000000, -523.000000)" fill-rule="nonzero">
            <g id="truCSR" transform="translate(1549.000000, 523.000000)">
                <path d="M0,20 L0,13.587552 L0,13.587552 C7.52041666,13.5755393 13.6179919,7.50344608 13.6445733,0 L20.0714924,0 C20.044877,11.0449408 11.0698917,19.9879583 0,20 L0,20 Z" id="Path" fill="#585858"></path>
                <ellipse id="Oval" fill="#585858" cx="4.01429848" cy="4" rx="4.01429848" ry="4"></ellipse>
                <path d="M34.1215371,20 L34.1215371,13.587552 L34.1215371,13.587552 C26.5978953,13.5731306 20.4989833,7.50173928 20.4723947,0 L14.0500447,0 C14.0766549,11.0398171 23.0495212,19.980723 34.1215371,20 L34.1215371,20 Z" id="Path" fill="#222323"></path>
                <ellipse id="Oval" fill="#222323" cx="30.1072386" cy="4" rx="4.01429848" ry="4"></ellipse>
                <path d="M41.6768325,18.8866329 C40.9785666,18.14549 40.6308944,17.057211 40.6338161,15.621796 L40.6338161,10.050042 L39.1394102,10.050042 L39.1394102,6.63141063 L40.6162864,6.63141063 L40.6162864,2.43941277 L44.7971169,2 L44.7971169,6.63141063 L47.9699904,6.63141063 L47.9699904,10.050042 L44.8365587,10.050042 L44.8365587,14.8440354 C44.8163744,15.2238049 44.8901424,15.6026874 45.0512974,15.9469614 C45.2118234,16.2176783 45.5145254,16.370291 45.826986,16.3380388 C46.2848196,16.3363295 46.7356041,16.224839 47.1417126,16.0128733 L48.1715818,19.0887628 C47.6665109,19.3760622 47.1296721,19.6031691 46.5719978,19.7654584 C45.8989097,19.9348161 45.2059916,20.0116842 44.5122595,19.9939531 C43.4516154,20.0550436 42.4168503,19.6509364 41.6768325,18.8866329 L41.6768325,18.8866329 Z" id="Path" fill="#222323"></path>
                <path d="M58.207328,6.01388002 L58.207328,10.7402874 C57.9569739,10.7402874 57.6332401,10.7127014 57.2404432,10.7127014 C56.674195,10.6944137 56.113272,10.8338757 55.6131415,11.1172966 C55.181349,11.3690145 54.830849,11.7535662 54.6074087,12.220738 C54.3828611,12.7213191 54.2705593,13.2706192 54.2793585,13.8253257 L54.2793585,20 L50.178731,20 L50.178731,6.25755667 L54.2966243,6.25755667 L54.2966243,8.0966257 L54.3484217,8.0966257 C54.6573729,7.65856931 55.0236798,7.26994529 55.4361671,6.94260988 C55.8233973,6.64120634 56.2512649,6.4040336 56.7052034,6.23916598 C57.1486576,6.07909548 57.6139279,5.99831074 58.0821509,6 C58.124246,5.99929393 58.1662767,6.00392521 58.207328,6.01388002 L58.207328,6.01388002 Z" id="Path" fill="#222323"></path>
                <path d="M73.2609473,6 L73.2609473,19.736599 L68.9437025,19.736599 L68.9437025,18.192438 L68.8760341,18.192438 C67.955303,19.3671003 66.5481974,20.0353677 65.0730693,19.9985549 C61.8340079,19.9985549 60.2144772,18.0484389 60.2144772,14.1482068 L60.2144772,6 L64.5181883,6 L64.5181883,13.0590218 C64.5181883,14.1528025 64.6805925,14.9340745 64.9963784,15.3936462 C65.375588,15.8817134 65.9714815,16.1411381 66.5798193,16.0830038 C67.2427911,16.0920902 67.8706201,15.7799715 68.2715296,15.2419875 C68.7654282,14.5302596 69.0028721,13.6665956 68.9437025,12.7970659 L68.9437025,6 L73.2609473,6 Z" id="Path" fill="#222323"></path>
                <path d="M81.2643328,19.6148922 C80.2791975,19.3655421 79.3424535,18.970686 78.4891155,18.4450835 C77.6459375,17.9302066 76.8973413,17.2900013 76.2725754,16.5494812 C75.6187881,15.7555767 75.1190756,14.8595168 74.796396,13.9024688 C74.433656,12.8256921 74.2543006,11.7017819 74.2649715,10.5723566 C74.2599497,9.54867044 74.4020387,8.52903612 74.6873859,7.54110056 C74.9625692,6.60724814 75.394995,5.72081476 75.9682554,4.91543512 C76.5310457,4.12560281 77.2258461,3.42638563 78.0258223,2.8447884 C78.8788996,2.23649443 79.8400781,1.77536461 80.8646288,1.48285787 C82.0125209,1.15330067 83.207262,0.990608693 84.4074594,1.00041853 C85.3414274,1.00058471 86.2708423,1.12271783 87.1690503,1.36331538 C88.133297,1.63215494 89.0511877,2.03047114 89.8943046,2.54593217 C90.8164362,3.09633799 91.6384424,3.78249856 92.3288651,4.57815452 L88.9268393,7.30201558 C88.3657711,6.68417371 87.6882612,6.16891966 86.9283195,5.78211818 C86.1550405,5.37233562 85.2815275,5.15897628 84.3938331,5.16305885 C83.9218555,5.16210143 83.4516969,5.21806001 82.9948692,5.32956447 C82.555837,5.43684826 82.1330709,5.59608816 81.7367102,5.80346506 C81.3430713,6.01640326 80.9836717,6.28090956 80.6693189,6.58903 C80.3395426,6.90516776 80.0582548,7.26296822 79.8335743,7.6521043 C79.5934542,8.07311531 79.4147083,8.5225878 79.3021497,8.98841858 C79.1721402,9.50744823 79.1081034,10.0391437 79.1113819,10.5723566 C79.0980531,11.4940958 79.3175404,12.4056592 79.7518167,13.232177 C80.1707202,14.0182208 80.8159454,14.6779577 81.6140738,15.1363181 C82.4516743,15.6123306 83.4151838,15.8565033 84.3938331,15.840765 C85.2678773,15.838637 86.1288414,15.6410755 86.9056091,15.2643994 C87.6881772,14.8933151 88.3773168,14.3692827 88.9268393,13.7274245 L92.3288651,16.4640937 C91.4051585,17.5390566 90.2444919,18.4130042 88.9268393,19.0257185 C87.5168956,19.6855872 85.9596493,20.0193214 84.3847489,19.9991359 C83.3309613,20.0035154 82.28136,19.874269 81.2643328,19.6148922 Z" id="Path" fill="#585858"></path>
                <path d="M96.6745451,19.250395 C95.4192401,18.7346329 94.2831108,17.9831924 93.3324397,17.0399127 L95.9849043,13.8668698 C96.6195993,14.5500031 97.3831872,15.1107854 98.2350785,15.5194076 C98.939449,15.8673139 99.716069,16.0580083 100.507357,16.077352 C100.934647,16.0887464 101.359995,16.0177926 101.758436,15.8686553 C102.047658,15.7649666 102.295301,15.5755875 102.46576,15.3277473 C102.60322,15.0957638 102.673454,14.8324562 102.669115,14.5653651 C102.684798,14.0998581 102.463666,13.6562773 102.076731,13.3770712 C101.372601,12.9510436 100.608943,12.6240515 99.8088742,12.4059923 C99.3667968,12.252664 98.9247193,12.107854 98.5622158,11.9800805 C98.1997123,11.8523069 97.8062634,11.6691648 97.381869,11.4604681 C97.0015669,11.2649352 96.6366165,11.0428688 96.2899378,10.7960456 C95.9601861,10.5644312 95.652467,10.3050229 95.3704167,10.0208861 C95.0727843,9.74856245 94.8181036,9.43575455 94.6144643,9.09239841 C94.4182785,8.71774759 94.2698417,8.32161307 94.1723868,7.91262271 C94.052791,7.44727867 93.9933964,6.96946956 93.9955558,6.49007727 C93.9863245,5.5109686 94.276951,4.5509719 94.8310822,3.73016877 C95.398264,2.89104641 96.1850892,2.2108554 97.1122018,1.7581971 C98.0915844,1.2713728 99.1754903,1.0117637 100.277476,1 C102.735458,0.990785657 105.110656,1.85516998 106.948425,3.42777138 L104.375534,6.65618288 C102.850367,5.46788894 101.528555,4.87587153 100.423362,4.87587153 C99.9649408,4.85205873 99.5129567,4.98813879 99.1501788,5.25919215 C98.8338131,5.52240914 98.6569098,5.908623 98.6683144,6.31119431 C98.665405,6.7242936 98.8822876,7.11005065 99.2430151,7.33338265 C99.9368104,7.7544325 100.678455,8.09740447 101.453402,8.35557098 C102.569227,8.74603143 103.660115,9.1997092 104.720355,9.71422965 C105.769539,10.2166712 106.597497,11.0642081 107.054523,12.1035949 C107.282492,12.7315267 107.393248,13.3933894 107.381661,14.0585301 C107.389087,14.8398892 107.238948,15.6152023 106.939583,16.3414174 C106.686063,16.9793207 106.297658,17.5594784 105.799024,18.0450646 C105.314592,18.4935177 104.763264,18.8696416 104.163337,19.1609535 C103.573712,19.4582136 102.944503,19.6760443 102.293349,19.8083395 C101.66688,19.9359047 101.028304,20 100.387996,20 C99.1107623,19.9904614 97.8483271,19.7356236 96.6745451,19.250395 L96.6745451,19.250395 Z" id="Path" fill="#585858"></path>
                <path d="M119.198287,20 L115.320244,13.8699669 L113.756799,13.8699669 L113.756799,20 L109.389634,20 L109.389634,1.001276 L116.770143,1.001276 C117.798183,0.983678901 118.821247,1.14821258 119.792222,1.48730005 C120.598741,1.77188097 121.326224,2.24463165 121.914664,2.8665575 C122.456984,3.46594828 122.870272,4.17097247 123.128736,4.93763297 C123.413578,5.78357658 123.552407,6.67203777 123.53925,7.56479001 C123.583418,8.81142991 123.268022,10.0443863 122.630879,11.1158306 C122.004263,12.0885131 121.087199,12.8378763 120.01058,13.2569636 L120.01058,13.3226425 L124.443253,20 L119.198287,20 Z M113.752432,9.95550292 L115.809367,9.95550292 C116.618614,10.0006246 117.418332,9.76224817 118.071559,9.28119927 C118.621543,8.83568017 118.927868,8.15480119 118.896953,7.44656794 C118.918541,6.7586299 118.62978,6.097566 118.110863,5.64696537 C117.479176,5.15164381 116.688378,4.9055276 115.887976,4.95514735 L113.752432,4.95514735 L113.752432,9.95550292 Z" id="Shape" fill="#585858"></path>
            </g>
        </g>
    </g>
</svg>