<svg xmlns="http://www.w3.org/2000/svg" xmlns:xlink="http://www.w3.org/1999/xlink" viewBox="0 0 2250 1421.05" xmlns:v="https://vecta.io/nano"><style><![CDATA[.N{fill:none}.O{stroke-width:2}.P{fill:#222323}.Q{stroke-linejoin:round}.R{fill:#f4f4f4}.S{stroke-miterlimit:10}.T{stroke-linecap:round}.U{stroke:#222323}.V{stroke:#fff}]]></style><path d="M-29.18-27.75h2297.75v1465.33H-29.18z" class="R"/><path d="M506.44 880.25s-27.5 123.64-35.88 131.25l-8.37 7.6 17.5-148.45c-.01 0-6 6.54 26.74 9.6zm123.4-493.08L619 383.42s-4.04 9.8-13.84 14.42-17.88 7.5-17.88 7.5 20.76-2.88 34.02 16.15 47.84 70.18 43.83 58.24c-1.57-4.67-19.7-85.64-35.28-92.56zm-50.36 176.6c1.7 4.13-.1 12.08-.03 16.72.1 6.3.4 12.6 1.15 18.87 2.34 19.6 10.65 40.06 21.95 56.22 8.96 12.8 24.77 27.33 41.52 26.97 6.8-.15 13.65-1.55 20.3-2.87 1.57-.3 15.86-2.24 16.2-3.65l3.8-15.2c-1.18 4.7-24.22.73-27.9.03-15.18-2.9-31.8-9.92-42.4-21.4-8.3-8.97-12.94-20.63-17.4-32l-17.17-43.7z" fill="#e2e2e2"/><path d="M454.05 1121.43s92.03-80.4 134.3-55.23c42.24 25.15 71.42 75.42 71.46 75.5-1.24-2.15 2.74-8.97 3.4-11.32 1.46-5.22 2.07-10.7 1.85-16.12-.2-5.1 1.74-8.87 6.48-4.53 6.4 5.86 14.92 18.65 14.92 18.65s13.32-3.2 19.18-1.6 8.53 3.73 8.53 3.73l19.77-21.48s5.26-4.15 5.54 5.26 27.4 93.86-24.37 107.7c-51.78 13.84-45.7 122.18-45.7 122.18s-7.2 8.3-13 2.77l-20.2-89.94-37.93-15.3c-5.7-8.5-12.68-17.16-20.86-23.36-22.85-17.3-43.1 14.2-51.35 32.25-10.1 22.08-18.55 47.25-17.3 71.82.6 11.5 10.05 46.88-9 48.92-15.85 1.7-15.85-100.77-21.5-123.98s-14.15-80.4-27.74-92.28c0 .02-18.97-21.82 3.52-33.65z" class="P"/><g class="U S"><g class="O"><path d="M557.05 874.54c10.94 43.35 21.28 97.03 31 140.67 2.22 9.94 4.4 19.98 4.34 30.17-.06 8.68-1.76 17.25-2.97 25.84-8.94 63.25 8.44 126.88 14.2 190.5 1.25 13.76 1.93 27.8-1.18 41.26-2.24 9.68-6.42 19-6.84 28.93s4.45 21.16 14.05 23.7c9.17 2.4 14.2-4.97 23.43-7.12 13.66-3.18 31.52 3.86 44.9 8.08 9.77 3.1 21 5.06 30.5 2.38 5.37-1.52 16.66-4.9 12.55-8.67-12.96-11.88-39.72-22.87-51.7-35.95-12.07-13.17-17.86-30.88-21.48-48.37-8.92-43.08-6.62-87.6-3.5-131.5 5.85-82.38 25.68-167.88 25.8-256" class="R"/><path d="M525.08 1242.92l5.6 106.92c.4 6.82 1.77 15 8.1 17.6 5.54-4.33 6.52-12.2 7.02-19.2a1259.48 1259.48 0 0 0 2.13-137.39m142.87 18.88c-3.12 31.52-5.06 66.55-4.37 98.2" class="N Q T"/></g><path d="M738.84 1183.83c12.37-5.34 25.32-9.32 38.54-11.86m-37.84 18.17c7.02-1.36 14.16-2.07 21.3-2.13m-21.87 8.07c8.72-.37 17.53 1.8 25.07 6.22" class="N Q T"/></g><g stroke="#f4f4f4" class="N Q S T"><path d="M549.72 1220.42c5.3-6.66 5.83-15.92 4.83-24.36-1.1-9.4-4.5-19.52-12.75-24.16" class="O"/><path d="M697.86 1185.9c-8.8-4.07-28.53-8.84-38.22-8.85m36.8 12.9c-7.73-.83-25.16 2.04-32.63 4.18"/></g><path d="M708.36 1186.76c1 1.83 2.1 3.64 3.63 5.06.93.87 2.34 1.58 3.44.93.47-.27.78-.74 1.05-1.2 1.02-1.72 1.77-3.6 2.23-5.55.08-.36.15-.75-.01-1.08-.27-.55-1-.63-1.6-.63a43.26 43.26 0 0 0-8.04.74c.01 0-1.68-.08-.7 1.74zm-6.46-12.56c-6.72 2.26-14.45 1.3-20.4-2.54s-10.03-10.5-10.74-17.54c-.04-.4-.06-.82.15-1.15.23-.36.67-.5 1.1-.6 4.9-1.24 10.04.13 14.77 1.86 4.34 1.58 8.65 3.5 12.1 6.6 3.44 3.08 5.93 7.5 5.8 12.1l-2.74 1.27zm21.13-1.26c6.72 2.26 14.45 1.3 20.4-2.54s10.03-10.5 10.74-17.54c.04-.4.06-.82-.15-1.15-.23-.36-.67-.5-1.1-.6-4.9-1.24-10.04.13-14.77 1.86-4.34 1.58-8.65 3.5-12.1 6.6-3.44 3.08-5.93 7.5-5.8 12.1l2.74 1.27z" class="R"/><g class="P"><circle cx="694.34" cy="1164.4" r="3.76"/><circle cx="741.16" cy="1158.97" r="3.76"/></g><g stroke="#f4f4f4" class="N Q S T"><path d="M714.3 1188.04c-1.24 8.28 3.62 17.1 11.3 20.47 4.17 1.83 9.04 2.1 13.33.56"/><path d="M714.35 1191.48c-.2 4.34-.67 8.77-2.5 12.7s-5.28 7.35-9.55 8.14c-2.05.38-4.16.15-6.2-.25-3.15-.62-6.67-2.08-7.52-5.18"/></g><path d="M603.73 887s15 128.15 4.9 168.58C598.5 1096 594.6 1185.6 594.6 1185.6s-9.96-64.7-3.9-113.63c1.44-11.63 5.52-18.33 2.6-34.26-9.32-50.96-24.83-120.48-24.83-120.48l-7.92-33.1s7.16 2.7 21.6 3.18c14.45.47 21.6-.33 21.6-.33z" fill="#e2e2e2"/><g class="P"><path d="M538 999.64s50.32-9.62 102.86 20.72c14.5 8.38 32.46 15.2 49.37 10.72 7.18-1.9 23.1-8.97 22.9-18.02C712.8 997 661 998.9 661.6 992.98l2.22-22.94s55.5 8.14 69.56 25.9c10.7 13.5 5.62 32.25-5.47 43.8-15.2 15.84-40.66 20.3-61.66 18.36-30.15-2.8-53.6-31.27-90.45-32.38-36.85-1.12-51.93 5.58-51.93 5.58L538 999.64z"/><ellipse cx="1646.5" cy="700.54" rx="251.3" ry="666.93"/></g><linearGradient id="A" gradientUnits="userSpaceOnUse" x1="1412.584" y1="250.232" x2="1678.441" y2="250.232"><stop offset=".001" stop-color="#b1a9d3"/><stop offset=".203" stop-color="#9dd3d9"/><stop offset=".361" stop-color="#bedcce"/><stop offset=".507" stop-color="#ead4c8"/><stop offset=".661" stop-color="#bdc3d2"/><stop offset=".824" stop-color="#d1a5cb"/><stop offset="1" stop-color="#eec5c5"/></linearGradient><path d="M1670.67 31.72c7.12 25.87 8.65 53.26 4.47 79.76-1.73 10.95-4.64 22.2-11.87 30.6s-19.82 13.06-29.8 8.22c-8.68-4.2-13.97-14.57-23.43-16.46-12.14-2.43-21.6 10.3-26.43 21.68-11.54 27.13-16.63 56.5-21.9 85.5l-22.53 115.6c-4.75 22.82-9.74 45.8-19.48 67-8.44 18.36-21.66 36.06-40.8 42.52-13.97 4.7-29.62 2.76-43.1-3.18s-20.2-11.68-22.22-13.5" stroke="url(#A)" class="N O Q S T"/><linearGradient id="B" gradientUnits="userSpaceOnUse" x1="1410.214" y1="273.647" x2="1683.32" y2="273.647"><stop offset=".001" stop-color="#b1a9d3"/><stop offset=".203" stop-color="#9dd3d9"/><stop offset=".361" stop-color="#bedcce"/><stop offset=".507" stop-color="#ead4c8"/><stop offset=".661" stop-color="#bdc3d2"/><stop offset=".824" stop-color="#d1a5cb"/><stop offset="1" stop-color="#eec5c5"/></linearGradient><path d="M1675.55 55.13c7.12 25.87 8.65 53.26 4.47 79.76-1.73 10.95-4.64 22.2-11.87 30.6s-19.82 13.06-29.8 8.22c-8.68-4.2-13.97-14.57-23.43-16.46-12.14-2.43-21.6 10.3-26.43 21.68-11.54 27.13-16.63 56.5-21.9 85.5l-22.53 115.6c-4.75 22.82-9.74 45.8-19.48 67-8.44 18.36-21.66 36.06-40.8 42.52-13.97 4.7-29.62 2.76-43.1-3.18s-19.32-9.37-29.47-20.07" stroke="url(#B)" class="N O Q S T"/><path d="M668.75 919.96s27.4-16.66 37.08-1.07-38.7 28.48-38.7 28.48" class="P"/><g class="O S U"><path d="M532.75 524.12s-.26 43.8 4.67 78.26l4.92 34.46 2.2 13.13s56.9 35.56 96.83 31.18 41.58-10.4 41.58-10.4l31.18-114.33c-.01 0-107.8-76.65-181.37-32.3z" class="N"/><path d="M644.6 552.14c11.9-6.67 23.5-14.57 37.67-9.26 8.48 3.18 15.2 10.2 23.9 12.76 21.86 6.46 38.63-14.4 49.92-29.7 5.2-7.03-3.73-18.67-7.26-25.35-4.7-8.92-9.94-17.57-15.67-25.87-6.18-8.95-13.25-17.22-20.64-25.2-6.72-7.25-14.04-17.5-22.6-22.58-.6-.36-1.34-.7-2-.44-.77.3-1.03 1.24-1.17 2.05-2.1 12.32 1.26 25.07-.74 37.4-2.26 14-13.6 19.96-25.2 10.73-9.4-7.47-15.94-17.9-21.95-28.3s-11.8-21.13-20.2-29.73c-16.83-17.26-38.48-16.82-57.97-4-17.77 11.7-31.03 29.02-42.7 46.8-8.37 12.76-16.1 25.93-23.55 39.24-1.94 3.47-20.75 33-18.5 35.36 14.8 15.5 40.1-12.52 56.8-11.97 12.4.4 19.22 10.22 25.98 19.2 6.35 8.43 12.7 12.58 22.86 15.62 20.54 6.14 43.58 3.96 62.38-6.46a9.71 9.71 0 0 0 .63-.34z" class="R"/></g><path d="M465.5 747.92s78.68 29.95 134.2 29.55 103.44-10.38 103.44-10.38L723.1 835s5.97 18.7 3.03 25.03c-2.94 6.33-10.08 11.25-13.46 13.6-3.38 2.35-2.5 4.17-11.95 6.86-8.82 2.5-8.23 2.94-8.23 2.94l-22.13 3.92s-32 4.1-41.33.98-14.35-4.78-17.1-7.9c-2.75-3.12 1.7 3.62-9.42 5.24s-35.46.53-40.77-1.8l-5.3-2.34-5.15-3.6-3.12-5.78-1.1-5.78-3.3 7.56s-2.46 11-37.12 6.48-32.8-14.2-32.8-14.2l.03-8.3s-5.78 5.62-7.5 5.62c-1.72 0-8.27 1.25-13.74-2.2l-5.46-3.43s-11.4-11.7-16.08-12.33l-4.68-.62s-21.85-5.15-20.92-17.64 4.84-17.48 11.7-24.97l29.97-33.4 18.33-21.04z" class="R"/><g class="P"><path d="M612.15 878.13c4.34 8.14 14.2 11.53 22.86 12.3 4.06.35 8.2.2 12.26.06a230.79 230.79 0 0 0 13.41-.81c9.58-.86 19.15-2.28 28.47-4.68 8.25-2.12 16.6-5 23.72-9.8 3.94-2.65 7.66-5.9 10.57-9.67 3.42-4.4 5.24-9.54 4.87-15.16-.4-5.97-2.36-11.84-3.94-17.58l-4.62-16.2-20.26-68.88c-6.23-22.8-11.7-45.94-14.27-69.46-.3-2.73-.55-5.47-.77-8.2-.1-1.27-2.1-1.3-2 0 1.78 22.66 6.48 45 12.13 67 5.85 22.72 12.8 45.13 19.53 67.6l9.33 32.4c1.58 5.84 3.74 12.16 2.64 18.27-.93 5.22-4.22 9.55-8 13.12-6.2 5.9-13.72 9.7-21.8 12.4-8.88 2.98-18.15 4.78-27.42 5.98-8.68 1.12-17.43 1.7-26.18 1.8-8.63.1-18.05-.65-24.9-6.56-1.6-1.4-2.94-3-3.94-4.9-.6-1.15-2.3-.14-1.7 1h0zM543.57 649.7c-16.04 23.2-33.5 45.38-51.7 66.9-18.13 21.46-36.98 42.3-55.9 63.08l-14.2 15.58c-4.5 4.96-9.38 9.8-12.94 15.52-3.23 5.18-5.2 11.36-4.1 17.5.97 5.5 4.7 9.73 9.43 12.43 2.4 1.36 4.97 2.37 7.58 3.2 2.47.8 5.06 1.3 7.5 2.16 5.05 1.8 9.23 5.57 13.3 8.93 3.98 3.3 8.1 6.76 13.05 8.5 2.74.97 6 1.74 8.9 1.3 3.03-.45 5.37-2.42 7.27-4.7 3.53-4.25 6.57-8.97 9.53-13.63 3.27-5.15 6.36-10.4 9.38-15.7l17.8-32.48 3.86-6.9c.64-1.12-1.1-2.13-1.73-1-11.6 20.4-21.75 41.72-35 61.13-1.52 2.23-3.07 4.45-4.75 6.57-1.94 2.45-4.23 4.72-7.53 4.85-5.6.24-10.88-2.76-15.2-6-4.22-3.18-8.05-6.87-12.48-9.8-2.02-1.33-4.18-2.5-6.5-3.22-2.5-.8-5.1-1.34-7.6-2.18-4.93-1.66-10.05-4.14-12.9-8.7-3.37-5.4-2.6-12.33.02-17.85 2.78-5.87 7.34-10.63 11.66-15.4l13.88-15.25 54.53-61.23c17.7-20.72 34.77-42 50.6-64.2l5.93-8.44c.74-1.05-1-2.05-1.72-1h0z"/><path d="M473.56 855.07c-1.2 3.87-2.1 8.88-.16 12.65 2.08 4.02 6.77 6.03 10.7 7.72 9.8 4.22 20.33 6.6 31 7 5.3.2 10.6-.1 15.82-.84 2.58-.37 5.2-.82 7.7-1.5 2.38-.64 4.14-1.86 5.28-4.08 1.24-2.4 2.15-5.03 3.16-7.55l3.08-7.98c2.02-5.4 3.92-10.88 5.68-16.38 4-12.44 7.33-25.08 10-37.87.26-1.26-1.66-1.8-1.93-.53-4.45 21.23-10.72 42.08-18.77 62.22-.96 2.4-1.82 4.95-3.05 7.24-1.3 2.43-3.57 2.93-6.08 3.47-5 1.08-10.1 1.68-15.2 1.82-10.1.28-20.2-1.25-29.78-4.5a83.19 83.19 0 0 1-7.92-3.16c-2.18-1-4.43-2.1-6.2-3.77-3.7-3.5-2.82-9.03-1.44-13.44.4-1.22-1.54-1.75-1.92-.52h0z"/><path d="M547.3 862.27c-1.13 4.07-1.17 8.36.72 12.22 1.96 4 5.75 7 9.7 8.88 8.83 4.2 19.05 3.43 28.57 4.07 4.55.3 9.15.58 13.7.01 4.02-.5 8.2-1.7 11.02-4.8 3.42-3.72 4.3-8.77 5-13.6.86-6 1.35-12.07 1.62-18.14.6-13.83.18-27.7 1-41.52.08-1.3-1.92-1.28-2 0-.7 11.46-.5 22.94-.78 34.4-.13 5.72-.38 11.45-.9 17.15a152.68 152.68 0 0 1-1.1 9.04c-.35 2.28-.75 4.56-1.58 6.73-1.6 4.15-4.63 6.87-8.9 8.04-4.02 1.1-8.3 1.1-12.42.93-3.95-.16-7.88-.56-11.83-.67-4.95-.13-9.95-.3-14.8-1.47-5-1.2-10.08-3.64-13.23-7.86-2.84-3.8-3.1-8.44-1.88-12.9.33-1.23-1.6-1.76-1.94-.52h0z"/></g><path d="M921.97 595.24c8.93-3.3 31.43-13.76 39.28-19.14 5.97-4.1 11.25-9.54 14.4-16 1.2-2.44-1.25-5.06-3.8-4.13-43.46 15.94-88.14 28.72-133.68 37.17-46.27 8.6-92.84 11.63-139.84 11.57-12.7-.01-25.57-1.15-35.43-10.12-3.42-3.1-6.05-7-8.42-10.97-17.57-29.54-21.5-65.25-36.06-96.38-3.07-6.56-6.7-13.03-12.06-17.92-5.35-4.88-12.7-8.02-19.85-6.9-9.46 1.5-16.55 10.1-19.03 19.35s-1.2 19.05.4 28.48c4.9 28.7 12.26 57 23.17 84.03 3.24 8.04 6.62 16.03 10.17 23.94 3.28 7.3 6.25 14.83 11.7 20.8 6.66 7.3 15.2 12.84 24.4 16.36 16.93 6.47 35.54 6.8 53.64 5.95 70.48-3.33 139.2-23.4 205-48.88" fill="#f4f4f5"/><g class="P"><path d="M922.24 596.2c11.03-4.1 21.84-9.3 32.2-14.9 5.32-2.88 10.37-6.08 14.65-10.4 2.6-2.63 4.9-5.6 6.68-8.83 1.3-2.4 1.88-5.4-1.1-6.86-1.3-.63-2.5-.37-3.8.08l-6.97 2.52-12.9 4.5a866.81 866.81 0 0 1-26.74 8.63c-17.9 5.47-36 10.35-54.26 14.57-37.05 8.57-74.64 14.05-112.6 16.47-19.13 1.22-38.3 1.75-57.47 1.75-7.9 0-15.92-.2-23.5-2.6-8.35-2.64-14.73-8.03-19.44-15.34-18.32-28.42-22.3-63.22-35.4-93.92-5.73-13.4-14.57-29.85-31.15-30.64-6.94-.33-13.34 3.12-17.72 8.37-4.8 5.76-7.04 12.93-7.5 20.34-.56 8.95 1.2 17.93 2.8 26.7 1.65 9 3.55 17.95 5.74 26.83 4.4 17.9 10 35.5 16.94 52.57 3.44 8.48 7.1 16.86 10.8 25.22 3.3 7.45 6.78 14.62 12.6 20.45 11.78 11.77 27.7 17.65 43.96 19.8 17.7 2.35 35.87 1.05 53.57-.6 18.12-1.68 36.14-4.4 54-7.96 35.9-7.16 71.05-17.72 105.47-30.1l25.17-9.4c1.2-.46.67-2.4-.53-1.93-33.18 12.84-66.95 24.28-101.48 32.93-34.42 8.63-69.62 14.5-105.1 16-17.3.73-35.15.27-51.52-6-7.5-2.87-14.5-7.1-20.4-12.53-6.06-5.58-9.84-12.35-13.17-19.8-7.3-16.36-14.37-32.84-19.98-49.87-5.6-17-9.96-34.4-13.35-51.98-3.03-15.74-7.96-35.6 3.4-49.26 4.84-5.82 12.04-9 19.6-7.34 8.1 1.77 14.32 7.7 18.68 14.5 4.43 6.9 7.6 14.64 10.5 22.28 2.85 7.57 5.3 15.3 7.64 23.03 4.67 15.4 9 30.97 15.5 45.74 3.2 7.27 6.83 14.64 11.64 21a36.15 36.15 0 0 0 17.34 12.54c7.06 2.4 14.63 2.9 22.04 2.96 9.1.07 18.2-.07 27.3-.3 36.64-.92 73.27-4.04 109.38-10.45 35.5-6.3 70.54-15.35 104.85-26.45 8.54-2.76 17.04-5.65 25.5-8.67l6.24-2.25c1.07-.4 2.44-1.2 3.6-.58 1.46.78 1.07 2.26.47 3.44-1.8 3.54-4.33 6.7-7.15 9.47-4.24 4.17-9.22 7.2-14.42 9.98-5.5 2.94-11.1 5.66-16.77 8.26-4.7 2.16-9.44 4.3-14.3 6.1-1.18.48-.66 2.4.55 1.96h0z"/><path d="M975.1 560.64c-1.4 10.54-10.02 17.98-18.33 23.56-3.28 2.2-6.58 4.26-10.14 6-3.78 1.84-7.65 3.5-11.55 5.07-3.8 1.53-7.6 3-11.46 4.34-1.2.42-.7 2.35.53 1.93 7.72-2.68 15.38-5.74 22.76-9.26 3.75-1.8 7.23-3.9 10.68-6.22 4.46-3 8.84-6.26 12.36-10.35 3.7-4.3 6.4-9.4 7.15-15.06.16-1.28-1.84-1.26-2 0h0z"/><path d="M973.12 567.6c-1.05 9.16-9.14 16.2-16.23 21.2-6.98 4.92-14.8 8.78-22.65 12.14-4.1 1.76-8.3 3.38-12.64 4.52-1.24.33-.72 2.26.53 1.93 8.46-2.23 16.62-6.02 24.35-10.06 7.88-4.13 15.57-9 21.62-15.62 3.64-4 6.4-8.66 7.02-14.1.15-1.28-1.86-1.27-2 0h0z"/><path d="M913.7 604.4c3.73.65 7.28 2.2 10.2 4.65 1.6 1.35 2.55 3 1.2 4.92-1.12 1.6-3.2 2.2-5 2.6-4.22.88-8.7.7-12.97.3-4.5-.42-8.93-1.27-13.33-2.26-1.25-.28-1.8 1.65-.53 1.93 7.96 1.78 16.38 3.3 24.56 2.38 3.16-.36 6.92-1.02 8.9-3.8.83-1.16 1.24-2.64.97-4.06-.3-1.65-1.6-2.82-2.86-3.82a23.46 23.46 0 0 0-10.6-4.78c-1.24-.2-1.78 1.7-.5 1.94h0z"/></g><g class="O S U"><g fill="#f4f4f5" class="Q T"><path d="M479.92 872.2c-8.66 48.13-14.6 100-18.46 148.75"/><path d="M473.2 1009.2c-48.73 44-75.83 106.7-97.6 168.62-8 22.73-16.96 47.56-37.7 59.83-4.7 2.78-10 4.9-13.48 9.1-5.68 6.84-4.75 17.18-1 25.24s12.5 12.44 16.9 20.18c6.6 11.64 2.75 29.2 6.72 41.98 3.3 10.63 11.85 19.57 19.7 27.14 2.25 2.16 6 .87 6.44-2.2 2.78-19.4-2.34-39.48-2.25-59.3.2-44.7 26.57-84.5 51.93-121.3l85.53-124.07c6.63-9.62 13.28-19.26 18.78-29.57 7.42-13.9 12.67-28.84 17.9-43.7l22.2-61.1"/></g><path d="M586.12 405c9.22-3.23 22.62-4.44 32.12-21m50.46 12.27c3.2 10.4 9.88 24.07 18.8 30.32" class="R"/><g class="N"><path d="M591.77 349.27c29.68 18.3 73.44 31.8 108.2 29.1"/><path d="M593.43 358.77c3.67 12.5 10.27 19.3 22.2 23.83 11.62 4.4 23.63 7.8 35.83 10.2 10.47 2.05 22.4 5.4 32.32-.1 8.24-4.6 14.26-12.4 20.56-19.2 24.8-26.8 41.76-61.2 48.65-97.32 6.84-35.86 6.28-79-15.7-109.84-6.96-9.76-16-18.1-26.6-23.75-19.4-10.36-44.08-11.16-63.22-.34-7.9 4.47-14.7 10.7-20.67 17.52-22.45 25.65-33.57 59.7-36.9 93.62-1.9 19.36-.7 38.4-.25 57.8.3 13.34-.7 32.35 3.78 47.62z"/></g></g><g class="P"><ellipse transform="matrix(.2482 -.9687 .9687 .2482 152.5291 891.8862)" cx="650.84" cy="347.68" rx="13.66" ry="63.02"/><path d="M537.43 660.74s42.26 30.56 78.68 33.8c36.4 3.25 68.33-15.97 68.33-15.97l-.65-5.88s-.4-1.63-4.5.27l-4.08 1.9s-34.04 12.54-66.54 3.33-45.3-18.17-45.3-18.17-18.7-11.4-19.64-9.63c-3.07 5.8-6.3 10.33-6.3 10.33z"/></g><circle cx="666.67" cy="177.17" r="16.66" class="N O U"/><circle cx="670.82" cy="174.77" r="12.51" class="P"/><circle cx="672.52" cy="173.07" r="5.18" class="R"/><circle cx="623.64" cy="236.07" r="8.97" class="N O U"/><circle cx="625.88" cy="234.78" r="6.74" class="P"/><circle cx="626.79" cy="233.86" r="2.79" class="R"/><circle cx="706.36" cy="161.29" r="8.97" class="N O U"/><circle cx="705.07" cy="159.06" r="6.74" class="P"/><circle cx="704.15" cy="158.14" r="2.79" class="R"/><circle cx="703.85" cy="325.47" r="8.97" class="N O U"/><circle cx="702.56" cy="323.23" r="6.74" class="P"/><circle cx="701.65" cy="322.32" r="2.79" class="R"/><circle cx="712.32" cy="236.08" r="16.66" class="N O U"/><circle cx="716.95" cy="237.32" r="12.51" class="P"/><circle cx="719.35" cy="237.32" r="5.18" class="R"/><circle cx="671.38" cy="266.16" r="7.19" class="N O U"/><circle cx="672.42" cy="267.95" r="5.4" class="P"/><circle cx="673.15" cy="268.68" r="2.24" class="R"/><circle cx="636.78" cy="306.68" r="16.66" class="N O U"/><circle cx="639.17" cy="310.83" r="12.51" class="P"/><circle cx="640.87" cy="312.53" r="5.18" class="R"/><g class="P"><circle cx="625.35" cy="175.78" r="2.16"/><circle cx="649.62" cy="211.92" r="2.16"/><circle cx="600" cy="307.93" r="2.16"/><circle cx="737.54" cy="224.32" r="2.16"/><circle cx="742.79" cy="280.08" r="2.16"/><circle cx="689" cy="310.08" r="2.16"/><circle cx="711.65" cy="351.08" r="2.16"/><circle cx="674.97" cy="149.35" r="2.16"/></g><g class="R"><path d="M1563 137.27c2.45-5.63 1.86-12.33-.9-17.8-2.77-5.48-7.56-9.78-13-12.62-.35-.18-.72-.36-1.1-.35-1 .04-1.48 1.2-1.68 2.17-2.46 11.9 4.56 25.04 15.8 29.62m-113 237.8c6.08-.83 11.5-4.8 14.76-10s4.45-11.53 4.06-17.66c-.02-.4-.06-.8-.28-1.13-.54-.83-1.8-.64-2.72-.3-11.44 4.06-19.05 16.88-17.14 28.87"/><path d="M1480.24 278.14c6.1-.75 11.56-4.65 14.88-9.82s4.6-11.48 4.27-17.6c-.02-.4-.05-.8-.26-1.13-.53-.83-1.78-.67-2.72-.35-11.5 3.92-19.26 16.65-17.5 28.66m137-84.44c-5.63-2.45-12.33-1.86-17.8.9-5.48 2.77-9.78 7.56-12.62 13-.18.35-.36.72-.35 1.1.04 1 1.2 1.48 2.17 1.68 11.9 2.46 25.04-4.56 29.62-15.8m-71.68 189.3c-1.18 6.02.83 12.44 4.7 17.2s9.48 7.93 15.4 9.54c.38.1.78.2 1.16.1.96-.25 1.2-1.5 1.18-2.48-.15-12.14-9.83-23.48-21.8-25.53"/></g><g class="N O S Q V"><g class="T"><path d="M1677.82 33.54a154.51 154.51 0 0 1 1.56 49.44c-1.24 9.46-3.45 19.03-8.66 27.02s-13.9 14.2-23.44 14.37c-9.3.18-17.7-5.14-26.57-7.95-13.82-4.37-29.5-2.38-41.8 5.3-18.44 11.53-27.45 33.7-31 55.15s-2.8 43.52-7.43 64.77c-3.8 17.38-12.98 35.68-29.86 41.27-15.06 5-32.24-2.18-42.55-14.24s-14.8-28.1-16.72-43.85"/><path d="M1706.52 44.62c.96 11.8 1.84 23.98-1.94 35.2s-13.44 21.33-25.26 21.83c-10.54.45-20.05-6.52-30.54-7.58-18.5-1.87-33.63 14.64-42.2 31.14-16 30.84-20.77 66.2-23.1 100.85s-2.5 69.72-10.25 103.58c-5.3 23.07-15.2 46.76-34.94 59.8-21.65 14.3-51.55 12.28-73.8-1.1s-37.4-36.43-45.8-60.98"/></g><path d="M1765.55 1234.66c-19.04-23.2-20.1-56.28-23.93-86.04-4.74-36.74-8.9-75.6 5.93-109.55 3.42-7.83 8.52-15.83 16.67-18.4 8.9-2.8 18.83 2.1 24.48 9.52 5.66 7.42 7.88 16.85 9.46 26.05 4.26 24.84 4.76 50.3 1.6 75.3-3.82 30.27-12.28 60.94-23.27 89.4-.8 2-6.86 18.7-10.95 13.72z"/><path d="M1767.05 1235.85c-8.97-4.83-29.34-12.17-38.3-17-17.75-9.57-35.76-19.33-50.1-33.5-14.33-14.18-24.74-33.65-23.4-53.77.35-5.36 2.26-11.33 7.86-13.2 33.6-11.2 61.14 25.24 80.7 46.12m56.84-94.4c2.95-9.1 7.86-17.6 13.85-25.05 6.94-8.65 18.08-14.47 26.08-3.2 3.6 5.06 4.46 11.56 4.52 17.77.18 17.15-2.48 40.45-12.27 54.53m-33.9 24.25c6.7-11.42 24.17-24.36 37.86-23.97 7.3.2 14.82 4.96 16.33 12.1M1728.4 1147c5.7-74.76-13.7-160.67-27.24-234.4-2.65-14.44-5.4-29.06-4.42-43.7s6.07-29.6 16.9-39.53 28.03-13.54 40.66-6.05c11.3 6.7 16.67 20.37 17.93 33.44m4 164.1c14.1-65.56-5.33-136.78-5.2-203.84.05-27.08 5.67-57.88 28.62-72.26 22.68-14.2 55.27-4.64 70.82 17.14 6.54 9.16 10.52 19.9 13.77 30.66 6.94 22.98 10.9 46.85 11.8 70.84m-81.92-123.65c41.18 91.98 49.02 199.63 21.06 296.45m-116.74-210.23c23.38 61.45 38.6 130 42.58 195.6" class="T"/></g><g fill="#fff"><path d="M1764.18 1020.67c3.1-.6 8.57 54.34 8.87 58.85 2.5 37.2-.7 74.34-.43 111.56.1 12.8 2.3 26.4-2.42 38.54-1.64 4.26-2.6 8.77-5.86 5.15-17.9-19.9-32.14-120.25-25.78-159.66 2.24-13.9 5.08-28.6 11.73-41.17 2.95-5.54 7.27-11.95 13.9-13.27z"/><path d="M1747.2 1208.9l-89.7-85.6s-19.6 38.67 48.98 83 62.9 21.14 62.9 21.14l-22.17-18.56zm95.66-93.38l-54.93 73.78 10.83-46.4s1.55-9.8 9.8-15.98 19.86-15 34.3-11.4z"/></g><path d="M1566.57 1217.98c-10.64-31.07-21.75-65.37-30.2-97.1-4.2-15.8-8.18-32.05-6.47-48.3.3-2.95 2.28-6.83 5.05-5.76 1.07.4 1.72 1.5 2.27 2.5 10.65 19.38 16.05 41.12 21.34 62.6l20.76 84.1m7.1-2.02c-10.92-40.87-17.67-88.6-18.77-130.9-.37-14.17-.18-28.4 1.82-42.45 1.3-9.17 3.9-19.07 11.42-24.48.8-.58 1.76-1.12 2.74-.96 1.4.22 2.18 1.7 2.7 3 6.9 17.28 5.1 36.62 3.68 55.18-3.5 45.5-3.37 94.14 13.27 136.64m.84.01c-4.12-37.32-.27-78.5 9.7-114.7 1.04-3.77 2.63-8.03 6.32-9.28 3.46 4.3 3.15 10.4 2.68 15.9l-9.16 105.57m-60.16 13.92c-56.74-100.7-86.44-218.62-83.92-334.18m-.35 2.6c-6.27-6.7-9.93-15.57-11.37-24.63-1.44-9.07-.78-18.35.74-27.4.35-2.06.76-4.15 1.8-5.95s2.88-3.28 4.96-3.37c3.94-.17 6.34 4.23 7.36 8.04 4.6 17.22.72 35.43-3.17 52.82m-.01 38.05c-6.77-1.67-12.78-5.8-17.45-10.98-4.68-5.18-8.1-11.37-10.88-17.77-.63-1.45-1.24-2.96-1.3-4.54s.48-3.28 1.77-4.2c2.44-1.74 5.8.07 8.02 2.07 10.07 9.06 15.14 22.27 19.87 34.97m3.96 34.65c6.77-1.67 12.78-5.8 17.45-10.98 4.68-5.18 8.1-11.37 10.88-17.77.63-1.45 1.24-2.96 1.3-4.54.08-1.58-.48-3.28-1.77-4.2-2.44-1.74-5.8.07-8.02 2.07-10.07 9.06-15.14 22.27-19.87 34.97" class="N O Q S T V"/><path d="M1488.07 1056.76c8.9.53 15.88-1.9 20.63-5.92s7.4-9.6 9.06-15.62c.38-1.37.7-2.8.26-4.5s-1.8-3.75-3.94-5.2c-4.02-2.75-8.1-1.94-10.52-.53-10.95 6.4-13.47 19.06-15.67 31.28m-14.5-79.92c-8.77.68-17.7-1.2-25.52-5.16-4.44-2.25-19.92-11.23-15.06-18 1.5-2.1 4.66-1.9 7.15-1.22 13.48 3.67 23.73 14.2 33.25 23.83" fill="#fff"/><g class="N O Q S T V"><path d="M1482.97 1033.85c-10.4 1.63-20.02-.05-27.62-4.56-4.3-2.56-18.9-12.95-10.8-22.18 2.5-2.86 6.1-2.87 8.72-2.2 14.24 3.64 22.2 16.5 29.67 28.25m16.5 62.72c-7.6.64-14.8-1.06-20.63-4.68-3.3-2.06-14.6-10.26-9.1-16.48 1.7-1.93 4.35-1.75 6.33-1.13 10.7 3.34 17.24 12.98 23.34 21.8m14.7 41.28c4.77-2.92 8.28-7.06 10.16-11.75 1.06-2.66 4.17-12.43-1.8-13.7-1.85-.4-3.34.86-4.24 2.08-4.87 6.63-4.54 15.17-4.3 23.04m23.1 53.8c-7.6.64-14.8-1.06-20.63-4.68-3.3-2.06-14.6-10.26-9.1-16.48 1.7-1.93 4.36-1.75 6.33-1.13 10.7 3.34 17.24 12.98 23.34 21.8m-46.44 38.4c14.57-9.88 34.36-9.4 50.6-2.6s29.53 19.1 41.55 31.95 23.22 26.64 37 37.62c21.16 16.88 47.63 26.38 74.5 29.66 26.87 3.27 54.2.56 80.68-5.1m-232.08-93.5c24.93.08 53 9.53 74.74 21.75s42.52 26.47 65.82 35.33c47.94 18.23 101.32 11.93 152 4m-291.9-61.56c41.25-16.96 89.45-10.28 129.9 8.55 23.76 11.07 47.96 32.47 51.24 58.47m-147.54-75.8c36.58-11.46 82.57-14.28 119.1-2.66 14.26 4.54 27.92 10.76 41.54 16.96l56.68 25.82"/><path d="M1515.1 1294.87c13.15-6.75 26.57-13.6 41.16-16 17.8-2.9 40.65 2.36 56.76 10.5m-39.5 58.63c17.65-7.13 37.63-8.3 56-3.3s34.98 16.17 46.57 31.27m-180.27-116.27c3.76-5.04 7.66-10.2 13.02-13.47 3.57-2.18 7.63-3.4 11.67-4.52 12.52-3.44 30.98-5.83 43.4-2.05m-165.5-642.4c30.1-17 66.07-16.68 99.94-9.8s66.96 18.6 101.46 20.63a182.42 182.42 0 0 0 72.05-10.37c37.72-13.52 69.78-38.98 104.66-58.7s76.4-33.97 114.74-22.27M1395.5 641.97c39.27-10.24 79.5-5.5 116.55 11.04 27.62 12.32 52.2 31.6 81.3 39.85 18.1 5.14 37.3 5.76 56.02 3.7 12.56-1.37 25.1-3.96 36.67-9.02 17-7.42 31.27-19.83 47.32-29.1 50.24-29.02 118.3-23.23 162.9 13.86M1886 521.32c-26.9-9.1-57.3 1.36-79.08 19.58s-36.6 43.2-50.97 67.67-24 46.45-45.64 64.8"/><path d="M1888.85 545.63c-22.3-7.34-47.33.6-66.18 14.6s-32.82 33.42-46.93 52.2-27.5 36.92-47.58 49.08m-267.76-78.64c25.4 2.64 50.08 12 70.86 26.84 24.58 17.56 43.26 42.2 67 60.9s62.35 28.2 90 16.04"/><path d="M1492.95 586.48c25.13 4.44 57.83 18.4 77.74 34.4 22.88 18.36 41.93 44.12 70.37 51.34 22.14 5.62 45.98-1.64 64.92-14.4s37.96-35.5 52.36-53.23m-252.94-9.84c31.4 24.16 33.75 40.87 39.8 58.37 3 8.66 5.56 18.08 12.46 24.12M1891.2 573.4c-22.6-6.86-51.43-1.45-69.95 13.2-4.8 3.8-9.47 9.1-8.9 15.2.53 5.75 5.72 10.12 11.2 11.88 5.5 1.76 11.4 1.54 17.15 1.97 21.44 1.62 41.93 13.1 54.5 30.54 2.25 3.1 4.76 6.73 8.58 7.13"/><path d="M1890.05 572.6c-14.68-4.45-33.75-.68-45.78 8.84-3.12 2.47-6.15 5.9-5.78 9.86.35 3.73 3.7 6.57 7.28 7.7s7.4 1 11.13 1.28c13.92 1.05 17.65 7.06 25.8 18.38 1.46 2.02 9.65 18.4 12.13 18.65"/></g><path d="M1398.24 596.1c-21.56 12.07-45.97 22.93-70.38 26.8-24.4 3.88-50.08 1.9-72.63-8.2-11-4.92-21.6-11.82-33.6-12.6l-2.16 7.76c21 23.3 49.46 39.8 80.12 46.4 30.67 6.62 67.86-1 96.6-13.57" class="P"/><g class="O R S U"><path d="M1217.2 604.94s-13.28-6.54-23.56 2.06-16.08 10.28-16.08 10.28 20.2 12.72 33.66 4.1l13.46-8.6s10.65-5.23-7.48-7.85z"/><path d="M1228 606.46s-.05 1.6-1.48 2.02l-1.45.36c-6.34 1.37-13.03.22-18.84-2.75-12.8-6.53-22.55-18.74-26.1-32.66-4.64-18.2 1.05-37.23 6.7-55.13 5.9 11.06 8.35 23.5 11.14 35.77l1.45 6.13c3.5 14.2 8.9 28.8 20.2 38.1 3.08 2.54 6.63 4.73 8.7 8.15"/><path d="M1224.86 514.25s7.3 15.7 4.5 28.42c-2.8 12.72-13.46 25.8-13.46 36.46s7.48 25.43 7.48 25.43-37.02-16.64-20.38-58.34 21.87-31.97 21.87-31.97z"/><path d="M1222.84 553.56c3.05-3.1 6.6-5.74 10.4-8.6 5.7-4.3 11.3-8.8 17.23-12.74 4.5-3 5.42-3 5.42-3s-3.55 24.3-14.6 40.02c-11.03 15.7-20.2 23.2-18.14 31.04.5 1.85-.7 1.26-1.7.55-2.2-1.6-3.77-4.86-4.9-7.23-4.38-9.2-4.75-19.96-.87-29.4 1.8-4.34 4.24-7.7 7.14-10.63z"/><path d="M1267.12 565.68s-.37 35.34-30.85 40.2c-5.6.9-15.12 1.4-15.56-6.4-.34-5.98 3.83-12.26 7.28-16.8 5.7-7.52 13.2-9.88 21.9-12.43 5.7-1.66 11.45-3.2 17.22-4.6z"/></g><defs><path id="C" d="M1398.45 642.7c-28.74 12.57-65.94 20.2-96.6 13.57s-59.12-23.1-80.12-46.4l2.16-7.76c12.02.78 22.62 7.68 33.6 12.6 22.55 10.1 48.23 12.1 72.63 8.2s48.8-14.75 70.38-26.8l-2.05 46.6z"/></defs><clipPath id="D"><use xlink:href="#C"/></clipPath><g clip-path="url(#D)" class="N O Q S T V"><path d="M1397.37 596.2c-24.4 8.65-37.77 38.9-60.74 50.8-14.78 7.67-23.07 11.57-39.7 10.45m62.32 1.27c3.36-10.57 6.26-23.05 11.17-33s17.93-22.58 26.7-29.37m-26.45 13.1c-9 8.54-21.26 17.73-36.6 24.3-8.83 3.8-18.1 7.93-27.6 9.4s-19.74.01-27.52-5.62c-10.24-7.4-15-16.67-24.93-25.92m17.74 7.82c1.5 4.83 5.6 10.63 10.3 12.46a17.2 17.2 0 0 0 14.63-1.13c3.13-1.8 16.3-7.7 19.9-7.66"/></g><linearGradient id="E" gradientUnits="userSpaceOnUse" x1="1517.299" y1="1075.954" x2="1561.783" y2="1075.954"><stop offset=".001" stop-color="#b1a9d3"/><stop offset=".203" stop-color="#9dd3d9"/><stop offset=".361" stop-color="#bedcce"/><stop offset=".507" stop-color="#ead4c8"/><stop offset=".661" stop-color="#bdc3d2"/><stop offset=".824" stop-color="#d1a5cb"/><stop offset="1" stop-color="#eec5c5"/></linearGradient><path d="M1560.78 1216.36c-46.08-84.95-55.24-189.12-24.7-280.8" stroke="url(#E)" class="N O Q S T"/><linearGradient id="F" gradientUnits="userSpaceOnUse" x1="1531.663" y1="927.033" x2="1556.531" y2="927.033"><stop offset=".001" stop-color="#b1a9d3"/><stop offset=".203" stop-color="#9dd3d9"/><stop offset=".361" stop-color="#bedcce"/><stop offset=".507" stop-color="#ead4c8"/><stop offset=".661" stop-color="#bdc3d2"/><stop offset=".824" stop-color="#d1a5cb"/><stop offset="1" stop-color="#eec5c5"/></linearGradient><circle cx="1544.1" cy="927.03" r="11.43" stroke="url(#F)" class="N O Q"/></svg>