<svg xmlns="http://www.w3.org/2000/svg" xmlns:xlink="http://www.w3.org/1999/xlink" width="360.116" height="320" xmlns:v="https://vecta.io/nano"><style><![CDATA[.L{fill:#222323}.M{fill:#fcfdff}.N{fill:#222423}.O{fill:#bedcce}]]></style><path d="M65.834 147.068l-.14-.646 15.672-32.208 1.072 2.87.568 2.796z" fill="#e8e7e7"/><g class="L"><path d="M87.095 129.865c-.934 1-1.988 1.85-3.24 2.277-.356-.005-3.104-.07-4.93-.966-.713-.35-1.434-.804-2.068-1.24l-.238.418c.64.438 1.366.892 2.096 1.25 2.045 1.005 5.052 1.016 5.18 1.016a.24.24 0 0 0 .076-.012c1.246-.416 2.293-1.205 3.22-2.157l-.097-.585zm20.892-21.485c-.236-1.368-1.054-2.835-1.698-3.823a1.17 1.17 0 0 0-1.012-.536 1.18 1.18 0 0 0-.998.582l-4 5.994-.507.73-2.404 3.687-.8 1.248.194.578 1.018-1.567 2.402-3.684.5-.718 4-6.024a.71.71 0 0 1 .597-.349.7.7 0 0 1 .603.319c.62.95 1.406 2.356 1.628 3.644.392 2.272-.05 5.944-.082 6.195-.193.95-.27 1.086-.594 1.656l-.323.58-2.234 4.087-4.857 8.195.117.685.3-.466 4.847-8.183 2.237-4.092.318-.57c.337-.594.44-.774.652-1.824.02-.16.5-3.972.08-6.344z"/><path d="M90.673 140.266c-1.493 1.235-3.253 2.198-5.338 2.906-2.372.806-5.065-.24-7.44-1.163l-.978-.375-5.156-2.13-.584-.278-.218.425.605.287 5.187 2.143.972.373c1.82.707 3.822 1.485 5.77 1.485.675 0 1.344-.093 1.996-.315 2.092-.7 3.866-1.673 5.38-2.902l-.196-.456zm15.777-35.3l1.472-5.37c.264-1 .387-2.105.9-3.012s1.3-1.66 2.073-2.35c.868-.773 1.798-1.477 2.76-2.128.253-.17.015-.585-.24-.412a28.34 28.34 0 0 0-2.462 1.859c-.84.713-1.66 1.487-2.292 2.396-.65.936-.835 2.042-1.107 3.128l-.763 2.778-.8 2.986c-.07.3.4.426.46.127h0zm1.665 5.57l5.494-2.086c.284-.108.16-.57-.127-.46l-5.494 2.086c-.284.108-.16.57.127.46h0zm2.947-9.05c.1-1.04.195-2.147.516-3.146.153-.475.444-.92.727-1.325.292-.42.648-.918 1.122-1.148.276-.134.035-.546-.24-.412-.493.24-.863.728-1.18 1.158-.338.462-.662.967-.86 1.508-.192.53-.267 1.1-.35 1.663l-.213 1.702c-.03.306.448.304.478 0h0z"/><path d="M109.446 105.787c.688-.313 1.42-.532 2.075-.915a3.9 3.9 0 0 0 1.39-1.356c.34-.573.528-1.268.414-1.933-.052-.305-.2-.615-.48-.768-.257-.14-.566-.113-.837-.03-.376.114-.73.297-1.105.418l-1.166.417c-.28.125-.037.536.24.412.375-.167.773-.276 1.162-.405l.995-.382c.145-.044.324-.1.47-.017.164.08.226.28.256.448.064.35.004.725-.108 1.06-.228.683-.73 1.262-1.333 1.643-.687.434-1.476.663-2.2.998-.28.127-.037.54.24.412h0zM326.98 66.372h-54.43l.008.056c.006.15-.027.288-.082.42h54.505c1.345 0 2.627.258 3.817.706l.024-.494c-1.202-.435-2.5-.7-3.84-.7zm0 132.692H190.466a10.91 10.91 0 0 1-10.897-10.897v-44.52l-.477-.035v44.555a11.39 11.39 0 0 0 11.375 11.375H326.98a11.22 11.22 0 0 0 3.981-.738l.05-.52a10.79 10.79 0 0 1-4.03.781z"/></g><g class="N"><circle cx="316.783" cy="71.894" r="1.589"/><circle cx="322.209" cy="71.894" r="1.589"/><circle cx="327.634" cy="71.894" r="1.589"/></g><path d="M331.092 76.606h-58.82c-.132 0-.24.107-.24.24s.107.24.24.24h58.82v-.477z" class="L"/><path d="M192.04 179.973h20.044V183H192.04zm52.47 0h20.044V183H244.5z" class="O"/><path d="M218.665 179.973h20.044V183h-20.044z" class="M"/><path d="M238.71 183.25h-20.044c-.132 0-.24-.107-.24-.24v-3.037c0-.132.107-.24.24-.24h20.044c.132 0 .24.107.24.24V183c0 .132-.107.24-.24.24zm-19.805-.477h19.566v-2.56h-19.566v2.56z" class="L"/><path d="M292.665 131.448l-.604 4.488c-5.087-.682-9.636-3.057-13.063-6.54a22.57 22.57 0 0 1-2.297-2.72 22.52 22.52 0 0 1-4.226-13.174l.003-.22h4.53c-.003.072-.003.148-.003.22 0 3.917 1.244 7.548 3.36 10.5.55.777 1.166 1.506 1.835 2.183a18.04 18.04 0 0 0 10.465 5.254z" class="M"/><path d="M292.06 136.175a.25.25 0 0 1-.032-.002c-4.976-.667-9.664-3.014-13.2-6.61-.84-.848-1.62-1.773-2.32-2.748-2.794-3.896-4.27-8.5-4.27-13.313l.003-.23c.005-.128.1-.23.238-.23h4.53a.24.24 0 0 1 .172.073c.045.047.07.1.066.175s-.003.14-.003.21c0 3.748 1.147 7.334 3.316 10.37.537.756 1.145 1.48 1.8 2.154 2.763 2.817 6.43 4.658 10.327 5.185a.24.24 0 0 1 .205.268l-.604 4.488c-.016.12-.12.207-.236.207zm-19.347-22.654c.004 4.706 1.45 9.207 4.182 13.016a22.37 22.37 0 0 0 2.272 2.691c3.408 3.463 7.905 5.743 12.688 6.438l.54-4.015a18.39 18.39 0 0 1-10.368-5.29c-.682-.69-1.308-1.435-1.86-2.212-2.224-3.113-3.4-6.788-3.405-10.63h-4.052z" class="L"/><path d="M317.468 117.088c-.755 4.76-2.998 9.026-6.24 12.308-.824.844-1.72 1.618-2.67 2.32-3.76 2.784-8.41 4.427-13.444 4.427v-4.53c4.037 0 7.765-1.32 10.774-3.555.763-.562 1.478-1.186 2.138-1.862a18.03 18.03 0 0 0 4.975-9.867l4.466.76z" class="N"/><path d="M317.75 113.282h-4.53a17.98 17.98 0 0 0-3.569-10.577l3.664-2.664a22.51 22.51 0 0 1 4.435 13.241z" class="M"/><path d="M317.75 113.52h-4.53c-.13 0-.237-.105-.24-.236-.043-3.793-1.26-7.402-3.522-10.437-.038-.05-.054-.115-.045-.18s.044-.12.096-.157l3.664-2.664c.106-.077.254-.054.332.05 2.888 3.898 4.438 8.525 4.482 13.38 0 .064-.024.125-.07.17a.24.24 0 0 1-.169.071zm-4.295-.477h4.053a22.19 22.19 0 0 0-4.245-12.669l-3.277 2.384a18.15 18.15 0 0 1 3.469 10.286z" class="L"/><path d="M311.006 97.388l-3.202 3.202c-2.73-2.69-6.312-4.513-10.3-5.04l.604-4.488a22.54 22.54 0 0 1 12.899 6.325z" class="M"/><path d="M307.804 100.83c-.06 0-.12-.023-.167-.07-2.786-2.743-6.3-4.463-10.165-4.973-.063-.008-.12-.04-.158-.092s-.055-.114-.047-.177l.604-4.488a.24.24 0 0 1 .268-.205c4.957.654 9.464 2.865 13.035 6.392a.24.24 0 0 1 .071.169c0 .064-.025.125-.07.17l-3.202 3.202c-.047.047-.108.07-.17.07zm-10.033-5.482c3.796.55 7.255 2.243 10.03 4.908l2.865-2.865a22.14 22.14 0 0 0-12.354-6.058l-.54 4.015z" class="L"/><path d="M295.115 90.865l-.003 4.53a18.02 18.02 0 0 0-10.565 3.402l-2.67-3.66c3.722-2.687 8.294-4.27 13.235-4.27h.003z" class="M"/><path d="M284.547 99.036c-.074 0-.146-.034-.193-.098l-2.67-3.66c-.038-.05-.053-.115-.043-.178a.24.24 0 0 1 .096-.156c3.912-2.823 8.537-4.316 13.375-4.316.132 0 .24.107.24.24v4.53c0 .132-.107.24-.24.24-3.773 0-7.378 1.16-10.43 3.357-.042.03-.09.045-.14.045zM282.21 95.2l2.39 3.276a18.2 18.2 0 0 1 10.276-3.308v-4.052a22.23 22.23 0 0 0-12.665 4.085z" class="L"/><path d="M282.422 100.6c-2.61 2.56-4.446 5.908-5.125 9.66l-4.468-.76c.84-4.697 3.132-8.892 6.392-12.102l3.202 3.202z" class="M"/><path d="M277.297 110.49a.24.24 0 0 1-.04-.003l-4.47-.76c-.063-.01-.12-.046-.155-.098a.24.24 0 0 1-.04-.179 22.69 22.69 0 0 1 6.46-12.23c.093-.092.243-.09.336.001l3.202 3.202c.045.045.07.106.07.17s-.026.125-.072.17c-2.65 2.6-4.4 5.896-5.058 9.533a.24.24 0 0 1-.235.196zm-4.2-1.194l4 .68a18.17 18.17 0 0 1 4.979-9.387l-2.864-2.864a22.21 22.21 0 0 0-6.113 11.57z" class="L"/><path d="M290.27 112.67c0-.277.052-.534.156-.773a2.02 2.02 0 0 1 1.055-1.055c.238-.104.496-.156.772-.156s.534.052.773.156.448.246.63.427.323.4.427.628.156.496.156.773-.052.534-.156.773a2.02 2.02 0 0 1-.427.629c-.18.18-.4.323-.63.427s-.496.156-.773.156-.534-.052-.772-.156a2.02 2.02 0 0 1-1.055-1.055c-.104-.238-.156-.496-.156-.773zm.623 0a1.31 1.31 0 0 0 .11.536c.073.165.17.3.294.432a1.33 1.33 0 0 0 .432.288c.165.07.34.104.525.104s.36-.035.525-.104.31-.165.432-.288a1.41 1.41 0 0 0 .294-.432c.073-.165.1-.344.1-.536s-.037-.37-.1-.536-.17-.31-.294-.433a1.34 1.34 0 0 0-.432-.288 1.35 1.35 0 0 0-.525-.104c-.184 0-.36.035-.525.104s-.3.165-.432.288a1.41 1.41 0 0 0-.294.433 1.31 1.31 0 0 0-.11.536zm6.02-2.237l.53.323-5.27 8.626-.52-.323 5.26-8.626zm-2.087 6.712c0-.277.052-.534.156-.773a2.02 2.02 0 0 1 1.055-1.055c.238-.104.496-.156.773-.156s.534.052.772.156a2.03 2.03 0 0 1 1.055 1.055 1.91 1.91 0 0 1 .156.773 1.91 1.91 0 0 1-.156.773c-.104.238-.246.448-.427.63a2.03 2.03 0 0 1-.629.427c-.238.104-.496.156-.772.156s-.534-.052-.773-.156-.448-.246-.628-.427-.323-.4-.427-.63-.156-.496-.156-.773zm.623 0a1.31 1.31 0 0 0 .11.536c.073.165.17.3.294.433a1.33 1.33 0 0 0 .433.288c.165.07.34.104.525.104a1.35 1.35 0 0 0 .525-.104c.165-.07.31-.165.432-.288s.22-.267.294-.433.1-.344.1-.536-.037-.37-.1-.536a1.42 1.42 0 0 0-.294-.432c-.123-.123-.267-.22-.432-.288s-.34-.104-.525-.104-.36.034-.525.104-.3.165-.433.288a1.41 1.41 0 0 0-.294.432 1.31 1.31 0 0 0-.11.536z"/><linearGradient id="A" gradientUnits="userSpaceOnUse" x1="199.312" y1="166.259" x2="321.375" y2="166.259"><stop offset="0" stop-color="#b0a8d3"/><stop offset=".001" stop-color="#b0a8d3"/><stop offset=".203" stop-color="#9cd2d8"/><stop offset=".361" stop-color="#bedcce"/><stop offset=".507" stop-color="#e9d3c7"/><stop offset=".661" stop-color="#bcc3d2"/><stop offset=".824" stop-color="#d0a4ca"/><stop offset="1" stop-color="#eec4c5"/></linearGradient><path d="M293.676 171.927a13.85 13.85 0 0 1-.573-.012c-2.673.056-5.01-1.24-7.262-2.502-2.663-1.5-5.177-2.898-8.185-2.146l-1.96.65-.095.046c-1.54.75-2.997 1.46-4.685 1.46-2.013-.167-4.114-.227-6.442-.185l-2.132.065-7.61 1.182-2.5.347c-1.212.38-2.602.334-3.947.29l-1.24-.028c-2.183-.095-4.28-.958-6.31-1.793-3.198-1.317-6.218-2.56-9.33-.862-1.005.503-1.913.86-2.785 1.095-.912.247-1.81.367-2.743.367-6.89.505-12.87-.642-18.8-3.607-1.612-.88-3.173.21-4.826 1.36-.884.616-1.8 1.254-2.768 1.627l-.172-.445c.915-.353 1.805-.973 2.666-1.573 1.7-1.184 3.456-2.41 5.32-1.392 5.842 2.92 11.742 4.05 18.562 3.553.908-.001 1.765-.116 2.636-.35.84-.227 1.72-.573 2.69-1.057 3.306-1.803 6.573-.458 9.734.843 2 .82 4.048 1.667 6.137 1.758.4-.005.83.014 1.245.028 1.312.044 2.668.09 3.807-.274l.042-.01 2.512-.35 7.646-1.187 2.156-.065c2.345-.043 4.462.018 6.47.185 1.558-.001 2.902-.655 4.457-1.412l.13-.062c.77-.277 1.408-.49 2-.666 3.2-.802 5.916.72 8.543 2.2 2.197 1.23 4.47 2.505 7.033 2.44.74.03 1.46.002 2.223-.088 5.44-.644 9.433-3.88 11.868-9.62.034-.39.44-.55.8-.7.26-.1.527-.206.7-.38l.07-.07h.1c.534 0 1.045.256 1.54.502l.035.017.027.028c.788.788 1.547 1.667 2.28 2.517 2.372 2.747 4.824 5.588 8.627 5.76l-.02.477c-4.008-.182-6.53-3.102-8.966-5.926-.72-.834-1.463-1.695-2.23-2.464-.42-.21-.818-.404-1.2-.43-.234.198-.525.312-.785.413-.233.09-.498.194-.498.3v.048l-.02.044c-2.505 5.933-6.633 9.28-12.268 9.946-.587.07-1.15.104-1.7.104z" fill="url(#A)"/><linearGradient id="B" gradientUnits="userSpaceOnUse" x1="198.514" y1="161.295" x2="321.404" y2="161.295"><stop offset="0" stop-color="#b0a8d3"/><stop offset=".001" stop-color="#b0a8d3"/><stop offset=".203" stop-color="#9cd2d8"/><stop offset=".361" stop-color="#bedcce"/><stop offset=".507" stop-color="#e9d3c7"/><stop offset=".661" stop-color="#bcc3d2"/><stop offset=".824" stop-color="#d0a4ca"/><stop offset="1" stop-color="#eec4c5"/></linearGradient><path d="M295.187 169.973a8.36 8.36 0 0 1-1.159-.083l-.05-.013c-1.853-.694-3.626-1.745-5.34-2.763-2.896-1.718-5.9-3.494-9.262-3.494h-.07c-.776.006-1.564.106-2.34.298-3.072 1.524-6.044.65-8.917-.194-1.726-.507-3.356-.986-5-.986-.566 0-1.142.1-1.76.336-.51.184-1.046.44-1.734.832-2.114 1.777-4.452 2.985-7.146 3.694-.94.248-1.79.39-2.593.435-4.485.135-7.967-2.47-11.334-4.988-1.64-1.226-3.334-2.494-5.124-3.43-1.036-.345-2.938-.976-3.67-.447-.2.143-.295.373-.295.704.14 1.813-.146 3.566-.786 4.792-.256.5-.57.905-.934 1.23l-.06.04c-1.744.788-3.574 1.174-5.443 1.174-5.247 0-10.8-3.04-15.634-8.753-.46-.53-.878-.767-1.28-.723-.946.1-1.838 1.728-2.782 3.45-1.023 1.867-2.182 3.983-3.748 4.706l-.2-.434c1.422-.657 2.542-2.7 3.53-4.502 1.05-1.915 1.955-3.568 3.15-3.696.57-.062 1.123.23 1.693.887 6.4 7.563 14.054 10.353 20.483 7.47.3-.285.58-.645.803-1.072.6-1.15.867-2.808.733-4.552-.001-.507.165-.874.493-1.1.934-.673 2.927-.01 4.117.388l.035.015c1.83.955 3.546 2.238 5.206 3.48 3.453 2.582 6.71 5.024 11.027 4.893.766-.043 1.583-.18 2.49-.42 2.63-.692 4.913-1.874 6.977-3.612l.036-.025c.722-.41 1.285-.682 1.827-.877.67-.245 1.3-.364 1.923-.364 1.723 0 3.462.51 5.144 1.006 2.792.82 5.68 1.67 8.593.213l.05-.018c.822-.206 1.656-.313 2.478-.32 3.543-.028 6.606 1.798 9.578 3.56 1.69 1.002 3.435 2.038 5.24 2.717.827.113 1.625.097 2.372-.048 4.627-.903 6.694-6.474 8.355-10.95l.528-1.408c.356-.845.66-1.505.96-2.086a13.89 13.89 0 0 1 1.147-1.879l.023-.027c.3-.3 1.405-.604 1.77-.24 1.517 1.6 2.626 3.615 3.7 5.563 2.04 3.706 3.97 7.206 8.43 7.95l-.078.47c-4.7-.78-6.765-4.547-8.77-8.19-1.058-1.922-2.153-3.91-3.623-5.46-.138-.1-.88.056-1.08.233-.375.512-.734 1.1-1.094 1.798-.293.57-.592 1.22-.94 2.045l-.523 1.396c-1.703 4.59-3.822 10.3-8.71 11.253-.45.087-.918.13-1.397.13z" fill="url(#B)"/><linearGradient id="C" gradientUnits="userSpaceOnUse" x1="198.358" y1="157.459" x2="321.366" y2="157.459"><stop offset="0" stop-color="#b0a8d3"/><stop offset=".001" stop-color="#b0a8d3"/><stop offset=".203" stop-color="#9cd2d8"/><stop offset=".361" stop-color="#bedcce"/><stop offset=".507" stop-color="#e9d3c7"/><stop offset=".661" stop-color="#bcc3d2"/><stop offset=".824" stop-color="#d0a4ca"/><stop offset="1" stop-color="#eec4c5"/></linearGradient><path d="M295.567 166.715a7.24 7.24 0 0 1-1.563-.178l-.044-.01-.037-.025c-5.104-3.398-10.483-5.01-16-4.8-.512.02-1.036.055-1.543.09l-.89.057c-3.09.112-5.423-1.6-7.672-3.25-1.3-.953-2.642-1.938-4.11-2.552-.428.015-1.067.228-1.5.443-1.108.816-2.098 1.91-3.056 2.97l-.155.172c-.5.552-1.042 1.137-1.617 1.672-1.6 1.47-3.5 2.416-5.8 2.892-.784.16-1.5.23-2.218.212-1.63-.008-3.013-.343-4.1-.996-1.745-1.1-3.45-2.327-5.097-3.515-4.544-3.276-8.837-6.37-13.654-6.715-.538-.036-.9.07-1.107.323-.536.66-.06 2.358.4 4 .2.75.428 1.525.57 2.256.14.718.19 1.304.152 1.795l-.004.05-.024.044c-1.816 3.372-7.622 2.667-10.327 1.54-3.105-1.13-4.5-4.117-5.85-7.007-.998-2.138-1.94-4.158-3.52-5.44-.493-.37-.945-.494-1.374-.375-1.3.362-2.308 2.85-3.375 5.487-.97 2.4-1.976 4.88-3.363 6.172l-.325-.35c1.31-1.22 2.294-3.65 3.245-6.002 1.113-2.748 2.163-5.343 3.7-5.768.573-.16 1.177-.005 1.795.458 1.67 1.357 2.68 3.522 3.658 5.615 1.308 2.802 2.66 5.7 5.59 6.764 1.23.512 3.278 1.01 5.364.88 1.49-.092 3.444-.542 4.345-2.158.027-.437-.02-.967-.148-1.616-.14-.712-.354-1.478-.56-2.22-.516-1.84-1.003-3.578-.312-4.43.306-.377.815-.545 1.5-.498 4.954.354 9.3 3.487 13.9 6.804 1.642 1.184 3.34 2.408 5.068 3.496 1.008.605 2.308.917 3.857.925.687.02 1.356-.046 2.114-.202 2.224-.458 4.05-1.366 5.582-2.775.56-.522 1.094-1.098 1.587-1.642l.155-.172c.98-1.082 1.99-2.2 3.144-3.046l.034-.02c.484-.242 1.247-.503 1.778-.503h.047l.044.018c1.54.635 2.922 1.648 4.257 2.628 2.283 1.675 4.44 3.253 7.368 3.16l.88-.057 1.557-.1c5.6-.225 11.066 1.406 16.245 4.845.797.172 1.532.203 2.243.096 3.774-.567 5.516-4.945 7.053-8.808.43-1.078.834-2.096 1.265-2.988l.175-.508.714-2.02c.615-1.64 1.325-3.207 2.347-3.57.41-.146.84-.1 1.28.167 2.11 1.37 3.235 3.918 4.426 6.616 1.543 3.493 3.14 7.105 7.013 8.21l.702.02-.002.477s-.256-.001-.748-.02l-.055-.01c-4.1-1.158-5.755-4.883-7.347-8.485-1.162-2.63-2.26-5.115-4.24-6.402-.307-.178-.594-.22-.868-.123-.846.3-1.545 1.916-2.06 3.29-.238.633-.467 1.3-.71 2.007l-.2.548c-.426.88-.83 1.894-1.258 2.97-1.585 3.982-3.38 8.496-7.426 9.104-.29.044-.59.065-.897.065z" fill="url(#C)"/><path d="M270.793 13.14c-1.653-1.688-4.758-2.475-9.77-2.475H118.608c-3.02 0-5.476 2.457-5.476 5.477V132.46c0 2.087.575 4.038 1.56 5.72l.273-.468c-.862-1.56-1.356-3.35-1.356-5.253V16.142c0-2.756 2.242-5 5-5h142.413c4.877 0 7.873.74 9.43 2.33 1.603 1.638 1.55 4.066 1.49 6.877l-.024 1.69v110.42c0 6.008-4.89 10.897-10.897 10.897H124.506a10.91 10.91 0 0 1-2.197-.223c-.053.152-.112.3-.178.447.767.164 1.56.254 2.375.254h136.515a11.39 11.39 0 0 0 11.375-11.374l.024-112.1c.063-2.92.117-5.44-1.627-7.22z" class="L"/><path d="M208.963 33.052h48.21v43.142h-48.21z" class="O"/><g class="L"><path d="M201.932 43.213h-79.708a.24.24 0 0 1-.239-.239v-6.95a.24.24 0 0 1 .239-.239h79.708a.24.24 0 0 1 .239.239v6.95a.24.24 0 0 1-.239.239zm-79.47-.477h79.23v-6.472h-79.23v6.472zm40.22 64.74h-40.458a.24.24 0 0 1-.239-.239v-6.95a.24.24 0 0 1 .239-.239h40.458a.24.24 0 0 1 .239.239v6.95a.24.24 0 0 1-.239.239zm-40.22-.477h39.98v-6.472h-39.98v6.472z"/><use xlink:href="#E"/></g><path d="M216.716 100.287h40.458v6.95h-40.458zm-94.492 18.2h40.458v6.95h-40.458z" class="N"/><g class="L"><use xlink:href="#E" y="18.198"/><path d="M257.174 125.673h-40.458a.24.24 0 0 1-.239-.239v-6.95a.24.24 0 0 1 .239-.239h40.458c.132 0 .24.107.24.24v6.95c0 .132-.107.24-.24.24zm-40.22-.477h39.98v-6.472h-39.98v6.472z"/><use xlink:href="#F"/><use xlink:href="#G"/><use xlink:href="#F" y="14.626"/><use xlink:href="#G" y="14.747"/></g><g class="M"><path d="M251.354 70.478h-36.988a.24.24 0 0 1-.239-.239V39.5a.24.24 0 0 1 .239-.239h36.988c.132 0 .24.107.24.24v30.74c0 .132-.107.24-.24.24zM214.604 70h36.51V39.74h-36.51V70z"/><path d="M251.354 70.478c-.054 0-.108-.018-.152-.055l-36.988-30.74c-.1-.084-.115-.235-.03-.336a.24.24 0 0 1 .336-.031l36.988 30.74c.1.084.115.235.03.336a.24.24 0 0 1-.184.086z"/><path d="M214.27 70.362c-.07 0-.137-.03-.185-.087-.084-.102-.07-.252.033-.336l37.18-30.506c.102-.084.252-.07.336.033a.24.24 0 0 1-.033.336l-37.18 30.506c-.044.037-.098.054-.15.054z"/></g><circle cx="246.355" cy="298.431" r="8.064" class="O"/><g class="L"><path d="M340.348 238.7c-5.442 0-9.87-4.428-9.87-9.87V34.87c0-5.442 4.428-9.87 9.87-9.87s9.87 4.428 9.87 9.87v193.96c0 5.442-4.428 9.87-9.87 9.87zm0-213.222c-5.18 0-9.392 4.213-9.392 9.392v193.96c0 5.18 4.214 9.393 9.392 9.393s9.392-4.214 9.392-9.393V34.87c0-5.18-4.213-9.392-9.392-9.392z"/><path d="M349.98 40.26h-19.262c-.132 0-.24-.107-.24-.24s.107-.24.24-.24h19.262c.132 0 .24.107.24.24s-.107.24-.24.24z"/></g><g class="N"><circle cx="335.014" cy="34.85" r="1.589"/><circle cx="340.439" cy="34.85" r="1.589"/><circle cx="345.865" cy="34.85" r="1.589"/><path d="M336.95 48.257v8.84l2.28-2.852h3.565z"/></g><path d="M337.168 68.335c-.062 0-.124-.024-.17-.072a.24.24 0 0 1 .005-.338l6.76-6.578c.095-.092.246-.1.337.005a.24.24 0 0 1-.005.337l-6.76 6.578c-.046.045-.106.068-.166.068z" class="L"/><path d="M336.602 74.066h4.563v4.563h-4.563z" class="N"/><path d="M338.884 76.347h4.563V80.9h-4.563z" class="M"/><path d="M343.447 81.15h-4.563c-.132 0-.24-.107-.24-.24v-4.563c0-.132.107-.24.24-.24h4.563c.132 0 .24.107.24.24V80.9c0 .132-.107.24-.24.24zm-4.324-.477h4.086v-4.085h-4.086v4.085z" class="L"/><path d="M336.213 89.323h8.67V96.3h-8.67z" class="M"/><path d="M344.884 96.548h-8.67c-.132 0-.24-.107-.24-.24v-6.987c0-.132.107-.24.24-.24h8.67c.132 0 .24.107.24.24V96.3c0 .132-.107.24-.24.24zm-8.432-.477h8.194v-6.51h-8.194v6.51z" class="L"/><path d="M339.874 89.323s2.82 5.99-3.66 6.987" class="M"/><path d="M336.212 96.548a.24.24 0 0 1-.236-.202c-.02-.13.07-.252.2-.272 1.823-.28 3.05-.99 3.645-2.112 1.034-1.945-.152-4.512-.164-4.537-.056-.12-.005-.26.114-.318s.262-.005.317.114c.054.114 1.3 2.81.154 4.965-.67 1.26-2.015 2.055-3.994 2.36-.012.002-.024.003-.037.003z" class="L"/><path d="M343.447 89.323s2.15 4.705-.65 6.987" class="M"/><g class="L"><path d="M342.797 96.548c-.07 0-.138-.03-.185-.088a.24.24 0 0 1 .034-.336c2.622-2.137.604-6.657.584-6.703a.24.24 0 0 1 .118-.316.24.24 0 0 1 .316.118c.023.05.555 1.226.745 2.707.256 1.998-.25 3.577-1.46 4.564-.044.036-.098.054-.15.054z"/><use xlink:href="#H"/><use xlink:href="#H" y="2.31"/><path d="M341.86 108.287c-.048 0-.095-.014-.135-.042l-2.048-1.4c-.11-.074-.137-.223-.062-.332l1.414-2.067c.074-.11.223-.137.332-.062l2.048 1.4c.052.036.088.09.1.153s-.002.127-.038.18l-1.414 2.068c-.036.052-.09.088-.153.1-.015.003-.03.004-.044.004zm-1.716-1.702l1.654 1.13 1.145-1.674-1.654-1.13-1.145 1.673z"/><path d="M336.856 114.02c-.157 0-.316-.046-.456-.142h0a.8.8 0 0 1-.249-1.056l3.667-6.602c.033-.06.088-.1.154-.116s.134-.003.2.035l2.048 1.4a.24.24 0 0 1 .05.348l-4.78 5.835a.8.8 0 0 1-.622.296zm-.187-.536c.142.097.33.07.44-.063l4.616-5.634-1.617-1.106-3.54 6.373c-.083.15-.04.334.102.43h0z"/><path d="M342.357 109.248l-3.843-2.63a.67.67 0 0 1-.175-.935l.04-.06a.67.67 0 0 1 .935-.175l3.843 2.63a.67.67 0 0 1 .175.935l-.04.06c-.2.307-.63.385-.935.175zm-.813 17.27h-4.956a.24.24 0 0 1-.24-.24v-4.956a.24.24 0 0 1 .24-.24h4.956a.24.24 0 0 1 .24.24v4.956a.24.24 0 0 1-.24.24zm-4.718-.477h4.48v-4.48h-4.48v4.48z"/><circle cx="340.606" cy="125.162" r="2.37"/></g><circle cx="342.156" cy="127.168" r="2.007" class="M"/><path d="M342.156 129.414a2.25 2.25 0 0 1-2.245-2.245 2.25 2.25 0 0 1 2.245-2.245 2.25 2.25 0 0 1 2.245 2.245 2.25 2.25 0 0 1-2.245 2.245zm0-4.013a1.77 1.77 0 0 0-1.768 1.768 1.77 1.77 0 0 0 1.768 1.768 1.77 1.77 0 0 0 1.768-1.768 1.77 1.77 0 0 0-1.768-1.768z" class="L"/><path d="M342.018 137.65h-4.29l-2.144 3.714 2.144 3.715h4.29l2.144-3.715z" class="M"/><path d="M342.018 145.32h-4.3a.24.24 0 0 1-.207-.119l-2.144-3.714a.24.24 0 0 1 0-.24l2.144-3.714a.24.24 0 0 1 .207-.119h4.3a.24.24 0 0 1 .207.119l2.144 3.714a.24.24 0 0 1 0 .24l-2.144 3.714c-.043.074-.12.12-.207.12zm-4.15-.477h4.014l2.007-3.476-2.007-3.476h-4.014l-2.007 3.476 2.007 3.476zm5.155 15.684l-4.2-4.2 1.184-1.184 4.2 4.2c.3.3.3.813 0 1.123l-.06.06c-.3.3-.813.3-1.123 0z" class="L"/><circle cx="338.938" cy="155.258" r="2.665" class="M"/><path d="M338.94 158.162a2.91 2.91 0 0 1-2.904-2.904 2.91 2.91 0 0 1 2.904-2.904 2.91 2.91 0 0 1 2.904 2.904 2.91 2.91 0 0 1-2.904 2.904zm0-5.33a2.43 2.43 0 0 0-2.427 2.427 2.43 2.43 0 0 0 2.427 2.427 2.43 2.43 0 0 0 2.426-2.427 2.43 2.43 0 0 0-2.426-2.427z" class="L"/><path d="M337.144 169.815h6.788v5.49h-6.788z" class="M"/><g class="L"><path d="M343.932 175.545h-6.788c-.132 0-.24-.107-.24-.24v-5.49c0-.132.107-.24.24-.24h6.788c.132 0 .24.107.24.24v5.49c0 .132-.107.24-.24.24zm-6.55-.477h6.3v-5.014h-6.3v5.014z"/><path d="M337.144 171.09c-.132 0-.24-.107-.24-.24v-3.707c0-.132.107-.24.24-.24s.24.107.24.24v3.707c0 .132-.107.24-.24.24z"/><path d="M338.998 170.054h-3.707c-.132 0-.24-.107-.24-.24s.107-.24.24-.24h3.707c.132 0 .24.107.24.24s-.107.24-.24.24z"/></g><path d="M342.083 169.815v2.033h1.785" class="M"/><g class="L"><path d="M343.868 172.087h-1.785a.24.24 0 0 1-.24-.24v-2.033a.24.24 0 1 1 .48 0v1.794h1.546a.24.24 0 1 1 0 .48zm-1.728 18.217a.24.24 0 0 1-.24-.24v-3.408a2.82 2.82 0 0 0-2.817-2.817h-2.713a.24.24 0 1 1 0-.48h2.713a3.3 3.3 0 0 1 3.295 3.295v3.408a.24.24 0 0 1-.24.24z"/><path d="M337.954 185.554l.326-.35-1.724-1.602L338.28 182l-.326-.35-2.1 1.952zm2.236 2.93l.35-.326 1.602 1.724 1.603-1.724.35.326-1.953 2.1zm-.744 40.013h-4.432a.24.24 0 0 1-.24-.24v-4.432a.24.24 0 0 1 .24-.24h4.432a.24.24 0 0 1 .24.24v4.432a.24.24 0 0 1-.24.24zm-4.193-.477h3.955v-3.955h-3.955v3.955zm6.4-4.194h4.432v4.432h-4.432zm-6.522-26.117h8.916v8.916h-8.916z"/><path d="M338.693 201.454h7.254v7.254h-7.254z"/></g><path d="M346.902 209.663h-9.164V200.5h9.164v9.164zm-7.254-1.9h5.345v-5.345h-5.345v5.345z" fill="#fcfcfc"/><path d="M272.158 16.108H113.37v-.463c0-4.686 3.798-8.484 8.484-8.484h141.82c4.685 0 8.484 3.798 8.484 8.484v.463zm37.8 157.676a.24.24 0 0 1-.24-.24v-28.55a.24.24 0 1 1 .48 0v28.55a.24.24 0 0 1-.24.24z" class="L"/><path d="M309.23 143.46h1.535v1.535h-1.535z" class="M"/><path d="M310.764 145.235h-1.535a.24.24 0 0 1-.24-.24v-1.535a.24.24 0 0 1 .24-.24h1.535a.24.24 0 0 1 .24.24v1.535a.24.24 0 0 1-.24.24zm-1.296-.477h1.057V143.7h-1.057v1.057zm-19.838 29.026a.24.24 0 0 1-.24-.24v-17.5a.24.24 0 1 1 .48 0v17.5a.24.24 0 0 1-.24.24z" class="L"/><path d="M288.9 155.287h1.535v1.535H288.9z" class="M"/><path d="M290.435 157.06H288.9a.24.24 0 0 1-.24-.24v-1.535a.24.24 0 0 1 .24-.24h1.535a.24.24 0 0 1 .24.24v1.535a.24.24 0 0 1-.24.24zm-1.296-.477h1.058v-1.058h-1.058v1.058zm33.07 18.097H192.04a.24.24 0 1 1 0-.48H322.2a.24.24 0 1 1 0 .48z" class="L"/><g fill="#fff"><circle cx="251.139" cy="11.863" r="1.589"/><circle cx="256.564" cy="11.863" r="1.589"/><circle cx="261.99" cy="11.863" r="1.589"/></g><path d="M275.444 271.958c-3.635 5.96-5.08 13.15-4.26 20.068.738 6.206 3.358 14.822 10.792 15.46 3.48.3 6.847-2.23 7.16-5.765.117-1.31-1.93-1.303-2.046 0-.23 2.6-3.084 4.063-5.447 3.674-2.99-.493-5.077-2.925-6.3-5.534-2.488-5.27-2.888-11.79-1.77-17.447.66-3.338 1.874-6.518 3.646-9.423.687-1.127-1.082-2.157-1.767-1.033" class="M"/><g class="L"><path d="M282.543 307.75a6.76 6.76 0 0 1-.586-.025c-8.34-.716-10.477-11.197-11.01-15.67-.846-7.114.68-14.295 4.292-20.22h0c.426-.7 1.202-.728 1.747-.395.526.32.84 1 .428 1.677-1.735 2.846-2.952 6-3.615 9.346-1.204 6.088-.566 12.393 1.75 17.3.84 1.778 2.752 4.844 6.133 5.4a4.99 4.99 0 0 0 3.745-.955c.59-.457 1.315-1.262 1.426-2.504.042-.477.313-.865.742-1.065.446-.207.972-.173 1.34.086.322.226.478.59.44 1.02-.3 3.37-3.362 6.006-6.833 6.006zm-6.895-35.668c-3.558 5.835-5.06 12.908-4.226 19.916.518 4.357 2.586 14.565 10.576 15.25 3.446.293 6.61-2.245 6.903-5.548.023-.26-.06-.462-.238-.588-.225-.158-.58-.175-.865-.044a.79.79 0 0 0-.468.674c-.1 1.12-.656 2.1-1.61 2.84-1.133.878-2.71 1.28-4.115 1.05-3.595-.592-5.607-3.805-6.487-5.668-2.36-4.996-3.01-11.4-1.787-17.596.675-3.41 1.91-6.608 3.676-9.5.263-.43.054-.823-.27-1.02-.333-.203-.815-.215-1.09.236h0z"/><path d="M283.208 289.792c-1.34-7.235-1.807-14.917 1.488-21.494 1.093-2.18 2.57-4.154 4.348-5.823 11.08-10.395 19.75-15.71 15.95-23.196-3.346-6.595-13.153-11.924-15.486-13.128-.333-.172-.624-.413-.853-.7-.723-.936-1.87-2.9 1.198-2.93 4.03-.04 10.176 3.07 14.2 2.57s5.094 3.958 5.094 3.958l2.688.503c.49.092 1.78.5 2.283.813 1.963 1.22 2.48 1.75 3.047 3.027s.002 3.253.002 3.253l-3.92-1.546-3.054-1.08s6.52 20.463 6.262 24.933-1.833 5.732-4.355 9.227-1.11 8.795-.394 18.343l1.232 15.045-3.522.305s-.87-18.427-2.027-22.586c-1.146-4.116-1.9-6.015-1.917-6.054.158.397-.033.864-.196 1.177-.244.47-.646 1.023-.86 1.513-.48 1.103-1.204 2.087-2.018 2.964-1.175 1.267-2.817 2.096-3.818 3.505-.437.616-.437.616-1.225 1.924l2.387-1.616c2.16-1.205 4.75-1.726 6.966-.35 5.595 3.478-6.8 13.964-7.728 17.317s.544 3.552 2.67 3.34 10.24-2.49 12.853-1.753 4.6 4.28 4.6 4.28l-22.692.475s-3.223 0-3.223-1.146v-1.533c0 .494-1.273 1.447-1.613 1.688-1.183.842-2.498.946-3.63-.05-2.303-2.024-2.698-5.996-3.37-8.853-.48-2.037-.957-4.156-1.358-6.315"/></g><path d="M312.785 240.5c-1.655.725-3.407 1.14-5.445 1.14a14.76 14.76 0 0 1-1.381-.064c-.015-.817-.283-1.654-.834-2.527l1.156.045c1.992 0 3.704-.395 5.33-1.09l1.173 2.498" class="M"/><path d="M307.34 241.88c-.47 0-.943-.022-1.403-.065-.12-.01-.214-.112-.216-.233-.015-.79-.276-1.578-.798-2.404a.24.24 0 0 1 .221-.365l1.137.044a12.9 12.9 0 0 0 5.238-1.072c.117-.05.254.001.31.117l1.174 2.5a.24.24 0 0 1 .006.185c-.023.06-.068.108-.127.134-1.78.78-3.593 1.16-5.54 1.16zm-1.15-.523l1.15.045a13.05 13.05 0 0 0 5.125-1.024l-.97-2.067c-1.68.687-3.388 1.022-5.214 1.022-.242 0-.484-.006-.722-.017.376.7.583 1.362.63 2.04z" class="L"/><path d="M315.795 243.414c-.534.534-1.647.288-2.485-.55s-1.085-1.95-.55-2.485 1.647-.288 2.485.55 1.085 1.95.55 2.485" class="M"/><path d="M315.043 243.935c-.136 0-.28-.016-.427-.05-.513-.113-1.037-.417-1.474-.854s-.74-.96-.854-1.473c-.122-.552-.014-1.03.304-1.35.637-.637 1.877-.395 2.822.55.437.437.74.96.854 1.474.122.552.014 1.03-.303 1.35h0c-.232.233-.55.353-.92.353zm-1.53-3.6c-.236 0-.44.068-.585.212-.2.2-.26.52-.175.908.094.425.352.865.726 1.24s.814.63 1.24.726c.386.085.71.024.908-.175h0c.2-.2.26-.52.175-.908-.094-.426-.352-.866-.726-1.24-.488-.488-1.088-.763-1.562-.763z" class="L"/><g fill="#fdfdfd"><path d="M293.603 302.38c-.247.63-.573 1.27-.943 1.863-.084.135-.033.34.1.414.15.08.324.035.414-.108.398-.637.73-1.3 1.004-2.008.058-.148-.063-.338-.2-.372-.174-.04-.3.053-.372.2m10-74.206c.096-.037.136-.05.212-.124a.45.45 0 0 0 .082-.106.51.51 0 0 0 .066-.242c.004-.046-.006-.094-.017-.14a.52.52 0 0 0-.048-.115c-.042-.08-.093-.114-.163-.165-.037-.027-.087-.043-.127-.057-.1-.03-.194-.024-.284-.003a.46.46 0 0 0-.129.054c-.07.042-.125.094-.166.165a.44.44 0 0 0-.061.233 1.23 1.23 0 0 0 .019.145l.007.03a.89.89 0 0 0 .055.13.22.22 0 0 0 .014.027c.025.04.057.077.086.112.006.008.013.015.02.022l.1.07a.33.33 0 0 0 .166.053c.04.01.08.01.12 0a.33.33 0 0 0 .166-.053c.043-.022.087-.062.12-.1s.072-.083.097-.118.046-.094.06-.134c.002-.007.004-.013.005-.02.008-.043.018-.1.017-.136-.002-.1-.023-.157-.067-.254a.67.67 0 0 0-.088-.118c-.03-.032-.068-.056-.103-.08a.53.53 0 0 0-.27-.076.51.51 0 0 0-.248.067.38.38 0 0 0-.111.086.51.51 0 0 0-.125.216.93.93 0 0 0-.021.143l.017.137c.002.012.003.016.005.02a.8.8 0 0 0 .051.121.51.51 0 0 0 .198.196c.033.017.088.045.133.053.03.005.1.02.147.016.024-.002.104-.007.146-.023l.117-.05c.054-.035.095-.062.126-.096s.055-.066.08-.1c.028-.055.054-.1.062-.148l.016-.122c.001-.054-.01-.1-.017-.143l-.054-.135a1.01 1.01 0 0 0-.088-.117l-.112-.1c-.055-.028-.096-.046-.137-.06a.88.88 0 0 0-.148-.021.49.49 0 0 0-.149.02.47.47 0 0 0-.2.116c-.058.056-.1.12-.116.2-.013.063-.02.108-.022.152-.001.008 0 .016 0 .023l.02.138.006.02a1.03 1.03 0 0 0 .052.123l.012.02c.057.077.087.123.17.173l.107.045.12.016c.043-.003.087-.004.127-.017a.47.47 0 0 0 .12-.052.49.49 0 0 0 .169-.17c.022-.038.04-.08.05-.12l.017-.122c.001-.04-.014-.12-.016-.127a.48.48 0 0 0-.22-.288.52.52 0 0 0-.12-.051l-.122-.016a.47.47 0 0 0-.246.064c-.04.02-.075.047-.103.08-.044.04-.075.1-.093.144a.34.34 0 0 0-.038.173c-.002.062.01.12.038.172.018.056.05.104.093.144l.1.07c.07.04.145.06.226.06l.12-.016c.076-.02.142-.06.197-.115l-.085.064-.1.04-.1.014-.108-.016-.097-.042-.084-.066-.063-.083-.043-.102-.013-.1.016-.1.042-.096.064-.08.085-.064.1-.04.1-.014.3.13.06.08a.19.19 0 0 1-.02-.034l.045.107c-.005-.012-.008-.025-.01-.038l.016.12c-.001-.013-.001-.026 0-.04l-.016.12c.001-.008.003-.016.006-.024l-.312.312c-.022.001-.062.007-.1.012.008-.001.016-.001.024 0l-.12-.016c.01.001.02.004.03.008l-.107-.045c.01.004.018.01.026.015l-.1-.07c.01.007.017.015.024.024l-.07-.1c.005.007.01.015.014.023l-.045-.107c.003.008.006.017.007.026l-.016-.12c.001.008.001.016 0 .024l.016-.12a.09.09 0 0 1-.006.022l.045-.107c-.004.008-.007.015-.012.022l.07-.1c-.006.008-.014.015-.022.022l.1-.07a.12.12 0 0 1-.027.016l.107-.045c-.01.004-.02.007-.032.01l.12-.016c-.01.001-.018.001-.027 0l.12.016c-.008-.001-.016-.004-.024-.007l.107.045c-.007-.003-.013-.007-.02-.01l.1.07c.01.017.034.048.058.078-.005-.006-.01-.013-.012-.02l.045.107c-.003-.01-.006-.018-.007-.027l.016.12c-.001-.008-.001-.017 0-.025l-.016.12c.001-.007.003-.014.006-.02l-.045.107c-.015.016-.038.046-.062.076-.02.013-.05.037-.08.06l-.094.038c-.026.001-.065.007-.105.012a1.33 1.33 0 0 0-.101-.016 1.43 1.43 0 0 0-.092-.04.09.09 0 0 1 .019.011l-.1-.07c.006.005.01.01.016.016l-.07-.1a.1.1 0 0 1 .011.02l-.045-.107c0-.02-.005-.06-.01-.1.001.008.001.016 0 .024l.016-.12a.09.09 0 0 1-.007.026l.045-.107c-.004.01-.01.018-.016.027l.07-.1c-.008.01-.017.02-.027.028l.1-.07c-.008.006-.017.012-.027.017l.542.07a.23.23 0 0 1-.023-.025l.07.1a.25.25 0 0 1-.03-.052l.045.107c-.007-.018-.012-.036-.015-.055l.016.12a.23.23 0 0 1-.002-.026l-.222.386-.092.037c-.02 0-.06.006-.1.01.008-.001.016-.001.024 0l-.12-.016c-.016-.01-.052-.025-.088-.04l-.143-.15-.04-.1-.013-.108.016-.105.04-.093.063-.078.082-.062.097-.04a.34.34 0 0 0-.155.081c-.05.03-.087.073-.115.125s-.05.107-.053.166a.34.34 0 0 0 .008.179l.045.107c.04.067.093.12.16.16l.107.045a.45.45 0 0 0 .238 0m2.04 46.632a.24.24 0 0 1-.236-.202 13.81 13.81 0 0 0-3.318-7.017.24.24 0 0 1 .019-.337.24.24 0 0 1 .337.019c1.802 2.014 3.02 4.593 3.434 7.263a.24.24 0 0 1-.2.272c-.012.002-.024.003-.036.003zm7.13-10.602c-.054 0-.108-.018-.152-.055a.24.24 0 0 1-.03-.336 6.06 6.06 0 0 0 1.353-3.259c.012-.13.127-.23.26-.215s.228.13.215.26a6.54 6.54 0 0 1-1.461 3.519c-.047.057-.115.086-.184.086z"/><path d="M289.2 225.3a2.41 2.41 0 0 1-1.645-.672c-.408-.393-.623-.9-.603-1.4.005-.132.107-.24.248-.23a.24.24 0 0 1 .23.248c-.014.372.15.74.457 1.037a1.93 1.93 0 0 0 1.443.534c.863-.067 1.735-.682 2.33-1.646.337-.544.572-1.14.7-1.767a.24.24 0 0 1 .282-.186.24.24 0 0 1 .187.282 5.86 5.86 0 0 1-.761 1.923c-.686 1.1-1.67 1.8-2.7 1.87l-.165.006zm10.595 7.526a5.02 5.02 0 0 1-1.914-.374.24.24 0 0 1-.13-.312.24.24 0 0 1 .312-.13 4.67 4.67 0 0 0 4.582-.624.24.24 0 0 1 .335.042.24.24 0 0 1-.041.335c-.895.698-2.02 1.062-3.144 1.062zm11.315 1.94c-.025 0-.05-.004-.075-.012-1.306-.43-1.78-1.034-1.955-2.487a.24.24 0 0 1 .209-.266c.132-.016.25.078.265.2.152 1.27.503 1.72 1.63 2.1a.24.24 0 0 1 .152.301.24.24 0 0 1-.227.164z"/></g><path d="M318.658 305.235l4.98-.307c.076-.007.162-.02.208-.08s.033-.15.017-.224c-.13-.62-.268-1.26-.653-1.764-1.073-1.402-3.013-1.02-4.513-1.356-.675-.15-1.335-.45-1.806-.954-.947-1.014-.85-2.427-1.08-3.698l-.743-4.11-1.315-7.64c-.816-5.002-2.106-10.023-2.64-15.064" class="M"/><path d="M318.658 305.474c-.127 0-.233-.1-.238-.228s.096-.243.228-.25l4.968-.306c.015-.007.014-.012.012-.02-.117-.562-.25-1.198-.6-1.667-.7-.913-1.8-1-2.965-1.092l-1.4-.176c-.803-.18-1.47-.534-1.93-1.024-.773-.828-.896-1.882-1.015-2.902l-.126-.917-.743-4.112-1.316-7.643-1.075-5.745-1.568-9.332c-.014-.13.08-.248.212-.262s.25.08.262.212c.33 3.1.956 6.246 1.562 9.3l1.078 5.762 1.314 7.636.743 4.1.13.947c.115.986.224 1.918.9 2.632.392.42.975.726 1.684.885.416.093.867.128 1.344.166 1.22.096 2.478.195 3.307 1.277.425.555.57 1.248.697 1.86.018.086.054.263-.06.415s-.3.17-.378.176l-5 .308zm-17.688-70.946s-.213 2.033.43 4.613c0 0 1.418-1.08 1.472-2.692l-1.9-1.92z" class="L"/><path d="M93.663 57.48c-2.693-3.16-6.382-.17-9.256 1.11-7.773 3.464-15.454 7.134-23.04 10.985C44.348 78.212 13.65 106.34 13.65 106.34s1.246-.597 2.608-.92 6.337.157 7.46 5.626-3.344 8.032-3.344 8.032 10.916-5.155 22.696-11.754c.43-1.357 1.047-2.59 1.793-3.72.03-.104.072-.205.137-.296 1.17-1.63 2.465-3.1 4.076-4.317.778-.583 1.62-1.07 2.5-1.48 2.263-1.55 4.765-2.497 7.384-2.258l.862-.14c.63-.086 1.183.103 1.48.674.05.02.1.032.152.052C68.7 90.567 75.268 84.317 81.6 78.004c2.924-2.914 5.794-5.882 8.617-8.894 3.2-3.412 7.62-6.732 3.446-11.63z" class="O"/><path d="M92.504 56.532l4.6-3.095 3.095 4.6-4.6 3.095z" class="M"/><path d="M95.605 61.36c-.015 0-.03-.001-.046-.004-.062-.012-.117-.048-.152-.1l-3.095-4.6c-.035-.052-.05-.117-.036-.18s.048-.117.1-.152l4.59-3.095c.11-.074.258-.045.33.065l3.095 4.6c.074.11.045.258-.064.33l-4.6 3.095a.24.24 0 0 1-.133.041zm-2.764-4.765l2.828 4.195 4.195-2.828-2.828-4.195-4.195 2.828z" class="L"/><path d="M97.1 53.435c.108-.37 2.67-10.22 2.67-10.22l22.185-1.714-10.026 18.287-11.735-1.762-2.873-4.26" class="M"/><path d="M111.93 60.026c-.012 0-.024-.001-.035-.003L100.16 58.26c-.066-.01-.125-.047-.162-.103l-2.873-4.26c-.046-.07-.052-.153-.023-.225-.022.002-.046-.003-.07-.01a.24.24 0 0 1-.162-.296 3327.63 3327.63 0 0 0 2.668-10.212c.026-.1.11-.17.213-.178l22.185-1.714c.088-.006.172.035.22.108a.24.24 0 0 1 .009.244L112.14 59.902c-.042.077-.123.124-.21.124zm-11.595-2.22l11.466 1.722 9.734-17.754L99.96 43.44l-2.63 10.062c-.002.008-.005.016-.008.024.07.002.153.036.2.105l2.814 4.173z" class="L"/><path d="M121.956 41.5l-13.344 8.673" class="M"/><g class="L"><path d="M108.612 50.413c-.078 0-.155-.038-.2-.11-.072-.11-.04-.258.07-.33l13.344-8.673c.11-.072.258-.04.33.07s.04.258-.07.33l-13.344 8.673c-.04.026-.085.04-.13.04z"/><circle cx="108.623" cy="50.143" r="1.201"/><path d="M17.052 120.24c-3.904 0-7.08-3.388-7.08-7.553s3.176-7.553 7.08-7.553 7.08 3.388 7.08 7.553-3.176 7.553-7.08 7.553zm0-14.63c-3.64 0-6.602 3.174-6.602 7.076s2.962 7.076 6.602 7.076 6.602-3.174 6.602-7.076-2.962-7.076-6.602-7.076z"/><ellipse transform="matrix(.6785 -.7346 .7346 .6785 -80.5468 47.9261)" cx="14.485" cy="115.993" rx="3.018" ry="4.285"/><path d="M37.528 294.09c-.034 0-.068-.007-.1-.023-.12-.056-.17-.198-.115-.317l.28-.55c.312-.594.665-1.268.67-1.795.008-.64-.32-1.395-.963-1.597-.372-.118-.78-.025-1.057.073a3.09 3.09 0 0 0-2.01 2.719c-.006.132-.12.238-.25.228s-.234-.117-.228-.25c.06-1.4 1.017-2.684 2.328-3.148.502-.178.96-.204 1.36-.078.905.285 1.307 1.266 1.297 2.058-.008.64-.39 1.37-.726 2.01l-.27.532c-.04.087-.126.137-.216.137z"/></g><path d="M33.993 291.838c-.034-.462-.462-.86-.925-.86s-.893.397-.928.86c0 0-.323-1.397-1.225-1.16" class="M"/><g class="L"><path d="M33.993 292.076a.24.24 0 0 1-.238-.221.72.72 0 0 0-.688-.64c-.342 0-.663.298-.7.638a.24.24 0 0 1-.22.22c-.118.01-.224-.07-.25-.184-.046-.195-.234-.742-.553-.935a.46.46 0 0 0-.378-.049.24.24 0 0 1-.292-.17.24.24 0 0 1 .17-.292c.263-.07.52-.034.747.102.25.15.43.408.552.65.22-.275.556-.457.913-.457.6.001 1.122.497 1.165 1.083.01.132-.1.246-.22.255zm-13.02 20.55c-.937 0-2.04-.2-2.887-.994-1.256-1.163-1.356-3.093-1.32-4.443a27.47 27.47 0 0 1 1.169-7.257.24.24 0 0 1 .298-.16c.128.037.198.17.16.298a26.99 26.99 0 0 0-1.148 7.131c-.032 1.257.054 3.048 1.17 4.08.823.762 2.18 1.038 3.726.76a8.89 8.89 0 0 0 4.588-2.369c.955-.935 1.695-2.086 2.4-3.2l8.192-12.748a.24.24 0 0 1 .33-.072.24.24 0 0 1 .072.33L29.53 306.73c-.73 1.136-1.485 2.3-2.478 3.283a9.37 9.37 0 0 1-4.837 2.498 7.13 7.13 0 0 1-1.248.115zm57.434-22.248c-.554 0-1.145-.133-1.607-.562-.642-.596-.765-1.526-.8-2.358-.127-3.008.366-6.088 1.426-8.906a.24.24 0 0 1 .308-.14.24.24 0 0 1 .14.308 22.28 22.28 0 0 0-1.396 8.717c.03.734.132 1.55.648 2.028.678.63 1.774.44 2.367.27 2.93-.838 4.982-3.422 7-6.223l8.65-12.017c.327-.454.697-.968.806-1.533.092-.477-.06-1.107-.52-1.335-.22-.1-.65-.014-.963.2-.204.147-.315.318-.295.456a.24.24 0 0 1-.204.27c-.13.02-.25-.073-.27-.204-.045-.32.133-.653.5-.9.385-.278 1.004-.474 1.454-.252.68.336.905 1.187.776 1.853s-.532 1.228-.887 1.72l-8.65 12.017c-2.068 2.872-4.178 5.523-7.255 6.403-.314.1-.752.183-1.216.183z"/><path d="M93.33 270.48c-.058 0-.115-.02-.16-.062-.097-.09-.104-.24-.015-.337.35-.383.547-.716.623-1.05.074-.326.018-.762-.274-1.003-.342-.282-.885-.195-1.245.037-.423.272-.727.738-.996 1.15-.072.11-.22.142-.33.07s-.14-.22-.07-.33c.295-.45.63-.963 1.137-1.3.5-.316 1.264-.452 1.807-.003.395.325.566.905.436 1.477-.095.417-.33.82-.736 1.265-.047.052-.112.078-.177.078z"/></g><path d="M91.947 267.996c.283-.44-.242-1.307-.763-1.334" class="M"/><path d="M91.947 268.235c-.044 0-.09-.012-.13-.038a.24.24 0 0 1-.071-.33c.07-.1.05-.312-.055-.517-.13-.252-.347-.44-.52-.45a.24.24 0 0 1-.226-.251c.007-.132.116-.238.25-.226.348.018.71.297.92.71.186.364.198.735.03.993-.045.07-.122.11-.2.11z" class="L"/><path d="M32.363 151.284s4.603-4.934 17.044-6.197S66.452 147 66.452 147s27.053 24.638 33.4 34.072 7.196 9.722 3.673 31.724-10.99 49.983-12.98 55.88l-2.463 7.308s-4.932 3.543-9.766 2.553-3.325-2.783-3.325-2.783l12.66-74.487-18.6-13.813L28.444 299.12s-4.903 1.835-11.75.466-9.524-2.748-9.524-2.748l35.246-102.014s2.086-4.044-.382-7.18S32.2 174.62 31 166.63s1.373-15.346 1.373-15.346z" class="N"/><path d="M106.286 169.2c-5.26 0-7.995-5.17-8.026-5.23-.005-.01-.01-.02-.013-.03l-15.03-43.004L66.18 147.68c-.05.08-.146.123-.24.107s-10.03-1.648-17.3-1.535c-7.2.1-16.03 5.717-16.12 5.774a.24.24 0 0 1-.267-.006c-.08-.056-.117-.155-.094-.25l9.956-41.797.407-1.575C44.9 99.233 53.743 93.4 63.1 94.836c.134.008 15.45 1.095 23.166 4.145 7.8 3.083 12.2 23.615 12.393 24.487 2.387 12.198 6.343 30.65 7.458 31.507.23.177.45.228.67.156.813-.265 1.498-2.042 1.693-2.705l7.83-19.277a.24.24 0 0 1 .099-.115c.068-.04 1.693-.985 3.922.07 2.187 1.035 4.017 4.504 4.094 4.65.03.06.035.128.013.2l-5.932 16.724c-.054.226-.77 3.167-2.257 6.296-2.05 4.32-4.635 7.04-7.472 7.866-.883.257-1.713.37-2.488.37zm-7.595-5.434c.087.162.945 1.716 2.524 3.032 2.205 1.837 4.703 2.367 7.426 1.574 6.56-1.9 9.373-13.706 9.4-13.825.002-.01.004-.017.008-.026l5.9-16.636c-.303-.553-1.972-3.472-3.826-4.35-1.773-.84-3.096-.283-3.406-.127l-7.8 19.175c-.07.246-.798 2.6-1.995 3.002-.258.084-.66.113-1.108-.23-1.617-1.24-7.024-28.667-7.636-31.8a90.24 90.24 0 0 0-3.2-10.974c-2.7-7.382-5.788-11.934-8.9-13.164-7.646-3.023-22.9-4.104-23.043-4.115a17.84 17.84 0 0 0-20.05 13.208l-.405 1.568-9.822 41.235c1.98-1.186 9.52-5.45 15.875-5.546 6.795-.105 15.918 1.308 17.218 1.516l17.217-27.026c.05-.077.137-.12.23-.1s.168.072.198.158l15.185 43.45zm7.71-4.992a3.68 3.68 0 0 1-3.249-2.029l.43-.2a3.24 3.24 0 0 0 2.821 1.761h.026a3.24 3.24 0 0 0 2.814-1.813l.433.2a3.68 3.68 0 0 1-3.243 2.089h-.032zm15.43-21.804c.2.216.377.453.5.732.06.122.106.25.147.4l.057.232.032.2c.014.128.1.24.24.24.118 0 .253-.1.24-.24a3.19 3.19 0 0 0-.887-1.893c-.215-.22-.553.118-.338.338h0z" class="L"/><g fill="#fff"><path d="M70.62 189.643l-2.037-1.645c-4.458-3.58-9.067-7.282-12.063-11.917l.4-.26c2.953 4.57 7.532 8.248 11.96 11.804l2.04 1.647-.302.37z"/><use xlink:href="#I"/><use xlink:href="#I" x="52.273" y="-31.144"/></g><g class="L"><path d="M83.46 120.955a.24.24 0 0 1-.23-.174 92.14 92.14 0 0 0-2.995-8.854c-.05-.123.01-.26.134-.3a.24.24 0 0 1 .31.134c1.15 2.902 2.162 5.896 3 8.9a.24.24 0 0 1-.165.295.25.25 0 0 1-.065.01zm36.048 11.605c-.217-.78-.396-1.572-.53-2.37l-.157-1.188c-.013-.223-.064-.978.256-.992.615-.026 1.195.56 1.48 1.042.375.638.486 1.395.574 2.118.036.3.514.305.477 0-.152-1.258-.435-2.7-1.638-3.37-.467-.264-1.245-.484-1.496.155-.258.655-.105 1.413 0 2.084a23.13 23.13 0 0 0 .575 2.648c.082.296.543.17.46-.127h0z"/><path d="M121.5 131.434a9.72 9.72 0 0 0 4.14-4.813c.114-.285-.348-.4-.46-.127a9.2 9.2 0 0 1-3.921 4.528c-.266.154-.026.567.24.412h0zm5.406-3c.1.286.218.56.127.865-.103.345-.293.68-.45 1.003l-1.064 1.98c-.156.265.256.506.412.24l1.163-2.187c.158-.334.37-.7.433-1.058.06-.342-.04-.654-.162-.97-.1-.284-.57-.16-.46.127h0z"/><path d="M123.9 137.25c1.362-.843 2.555-1.993 3.253-3.452.695-1.453.835-3.062.552-4.637-.054-.302-.514-.174-.46.127.263 1.467.124 2.995-.54 4.342-.668 1.356-1.772 2.42-3.046 3.208-.26.16-.02.575.24.412h0zm1.32-5.095c.576-.86 1.1-1.75 1.57-2.677.407-.815.708-1.766.227-2.62-.15-.268-.563-.027-.412.24.458.812-.008 1.728-.395 2.465a25.37 25.37 0 0 1-1.403 2.35c-.172.256.242.495.412.24h0z"/><path d="M124.434 131.45c.733-1.087 1.387-2.226 1.948-3.41.42-.885.913-2.15-.108-2.835-.256-.172-.495.242-.24.412.923.62-.007 2.1-.356 2.78-.492.972-1.047 1.91-1.656 2.815-.172.255.24.495.412.24h0z"/></g><path d="M80.965 93.225s-1.38 1.712-3.327 3.37-3.755-.482-3.755-.482-.902.61-2.102.947-1.855-1.782-1.855-1.782l-1.033 2.187s-.732 2.5-3.662 2.1-2.336-3.405-2.336-3.405l-3.078-1.673s-2.693-2.4-3.483-5.17.04-4.8.938-5.943 2.005-.727 2.005-.727L57.78 76.1c-.183-1.074-.48-5.496-.06-6.623s.143-3.473.055-3.987.002-1.426.05-1.975 2.012-2.264 2.012-2.264-.118-1.115-.08-1.675-.032-.953 1.318-1.843 3.583-.18 3.583-.18l.728-4.273s1.17-5.64 1.78-6.634 2.165-1.367 4.412-.83 2.59 2.7 2.59 2.7L73.035 55.6l1.26.347s.9.6.682 2.346c-.11.924-.533 2.025.86 2.192 1.708.205 1.475 2.09.675 4.853-.15.516 3.192-4.4 6.95-.675.788.78.73 5.09.133 10.287l-.184 1.198s.758.32 2.397.628 1.317 1.486 1.188 1.896-.175 3-.248 3.427-.6 2.593-1.43 3.202-1.28.547-1.27 1.45-1.22 4.064-3.082 6.484" class="M"/><g class="L"><path d="M68.966 97.477c-.04 0-.078-.01-.114-.03a.24.24 0 0 1-.095-.324c2.3-4.223 3.266-8.987 2.623-13.07l-.13-.764c-.14-.792-.285-1.6-.28-2.437.005-.775.14-1.54.273-2.282.088-.494.18-1.006.228-1.508.154-1.573-.085-3.172-.316-4.72-.117-.786-.24-1.6-.633-2.284-.823-1.427-2.873-2.008-4.478-1.268-1.504.693-2.523 2.386-2.536 4.213-.004.563.08 1.14.163 1.7.08.545.163 1.108.168 1.675.008.837-.154 1.662-.3 2.46-.08.406-.16.825-.22 1.237-.45 3.22.505 6.538 1.348 9.466.037.127-.037.26-.163.295a.24.24 0 0 1-.295-.163c-.856-2.974-1.826-6.345-1.362-9.665.06-.425.143-.85.223-1.263.152-.774.308-1.575.3-2.364-.005-.534-.085-1.08-.163-1.6-.085-.576-.172-1.17-.168-1.772.014-2.008 1.145-3.874 2.814-4.643 1.82-.838 4.15-.168 5.1 1.463.44.763.574 1.66.692 2.452.235 1.576.478 3.205.318 4.836-.05.52-.144 1.042-.233 1.545-.128.722-.26 1.468-.266 2.202-.005.783.136 1.58.272 2.35l.132.773c.66 4.185-.316 9.06-2.675 13.373-.043.08-.125.124-.2.124zM66.643 72.4a2.4 2.4 0 0 1-.812-.129c-.4-.145-.764-.48-.928-.875-.128-.3-.127-.63.004-.907.23-.483.762-.745 1.63-.8.346-.022.693-.016 1.028-.01l.972-.008.174-.013.05-.004c.182-.017.388-.037.594.013.572.136.7.522.74.74.08.557-.342 1.203-.787 1.457-.437.25-.926.323-1.4.395l-.236.036c-.34.053-.684.106-1.028.106zm.455-2.25l-.532.015c-.678.043-1.08.216-1.228.528-.092.195-.048.4.006.52.112.27.366.5.647.6.5.174 1.058.086 1.607 0l.238-.036c.45-.068.875-.132 1.234-.337.328-.187.596-.66.55-.975-.01-.065-.038-.262-.38-.344-.13-.03-.28-.016-.438-.002l-.05.005-.2.014c-.34.02-.68.015-1.008.01l-.458-.005zm-.454 22.267c-.66 0-1.317-.12-1.934-.36-.273-.106-.588-.346-.677-.64-.05-.166-.022-.335.078-.475s.253-.212.385-.264c.96-.376 2-.53 3.038-.442.018.001.036.005.053.01l.253.08a1.52 1.52 0 0 1 .718.386c.28.245.456.705.227 1.076-.152.246-.416.35-.654.42a5.33 5.33 0 0 1-1.486.21zm.324-1.73a6.31 6.31 0 0 0-2.297.433c-.05.02-.142.056-.17.096-.013.018-.018.032-.01.062.034.113.2.262.392.333 1 .384 2.095.432 3.114.137.15-.044.314-.103.38-.212.083-.135-.003-.35-.135-.466a1.08 1.08 0 0 0-.535-.287l-.24-.077-.5-.02zm-4.33 5.693a.24.24 0 0 1-.085-.016c-3.657-1.4-6.395-4.912-6.815-8.762-.172-1.582.1-2.9.815-3.836.816-1.074 2.503-1.662 3.714-.825.676.467 1 1.24 1.152 1.805.12.45.18.914.24 1.362l.1.653a10.03 10.03 0 0 0 1.633 4.06c.075.1.048.257-.06.332a.24.24 0 0 1-.332-.06c-.874-1.265-1.466-2.737-1.712-4.254a21.05 21.05 0 0 1-.093-.668c-.058-.452-.113-.88-.226-1.3-.132-.5-.405-1.152-.962-1.536-.97-.67-2.394-.158-3.063.722-.796 1.046-.83 2.478-.72 3.495.4 3.677 3.017 7.04 6.5 8.368a.24.24 0 0 1 .138.308.24.24 0 0 1-.223.154z"/><path d="M59.277 82.887c-.105 0-.202-.07-.23-.177-1.05-3.922-2.243-8.368-1.644-12.713.037-.27.08-.537.125-.806.136-.835.277-1.7.193-2.535-.025-.247-.07-.5-.114-.746-.082-.462-.167-.94-.132-1.43.083-1.148.863-2.268 2.037-2.924 1.168-.653 2.532-.787 3.456-.83.585-.028 1.206-.024 1.778.19.667.25 1.15.775 1.264 1.37.074.394-.01.77-.094 1.134-.035.156-.07.304-.1.452-.085.597.035 1.197.162 1.833l.09.473c.124.692.23 1.706-.28 2.508-.07.11-.218.144-.33.073s-.144-.218-.073-.33c.42-.66.323-1.553.213-2.167l-.1-.463c-.13-.647-.263-1.316-.166-1.994.024-.167.06-.33.097-.5.075-.33.146-.643.09-.94-.097-.516-.56-.86-.962-1.012-.49-.184-1.054-.186-1.588-.16-.876.042-2.166.167-3.246.77-1.035.578-1.722 1.552-1.793 2.54-.03.43.045.858.126 1.31.045.254.092.517.12.782.1.9-.056 1.794-.197 2.66l-.123.794c-.586 4.25.593 8.646 1.632 12.524.034.127-.04.258-.17.292a.24.24 0 0 1-.062.008z"/><path d="M64.103 61.072a.23.23 0 0 1-.04-.003c-.13-.022-.217-.145-.195-.275L65.72 49.92c.26-1.533.62-3.102 1.854-3.96 1.448-1.008 3.342-.54 5.172.117.432.155.97.347 1.314.78.527.66.4 1.56.237 2.35l-2.26 11.074a.24.24 0 0 1-.282.186.24.24 0 0 1-.186-.282l2.26-11.074c.14-.685.256-1.457-.143-1.958-.242-.304-.626-.458-1.102-.63-1.7-.613-3.468-1.06-4.74-.175-1.082.753-1.412 2.215-1.656 3.65l-1.853 10.874a.24.24 0 0 1-.235.199z"/><path d="M76.15 72.567c-.01 0-.018-.001-.027-.001-.13-.015-.225-.133-.21-.264.08-.708.034-1.443-.01-2.154l-.05-.996c-.046-1.756.224-3.487.803-5.145l.055-.157c.272-.77.552-1.567.248-2.236-.417-.916-1.676-1.034-2.052-1.048-.33-.013-.672.005-1.002.022-.563.03-1.144.06-1.72-.052l-.225-.048c-.238-.053-.463-.104-.67-.07-.426.07-.78.492-1.054 1.254a12.47 12.47 0 0 0-.497 6.609.24.24 0 0 1-.188.28.24.24 0 0 1-.28-.188 12.95 12.95 0 0 1 .516-6.862c.336-.938.816-1.464 1.427-1.564.3-.05.58.014.852.075l.2.045c.518.1 1.045.072 1.604.044l1.045-.023c1.188.045 2.11.542 2.47 1.328.384.844.057 1.773-.232 2.592l-.055.156a13.93 13.93 0 0 0-.776 4.975l.048.98c.044.73.09 1.487.007 2.236-.013.122-.117.212-.237.212z"/><path d="M71.765 97.3c-.894 0-2.015-1.077-2.078-2.004-.01-.132.1-.245.222-.254s.245.1.254.222c.045.663.968 1.56 1.6 1.56.613-.01 1.234-.294 1.968-.893 2.05-1.672 3.552-4.328 4.466-7.897.4-1.518.66-3.094.923-4.618l.912-4.58.102-.396c.22-.847.45-1.723.42-2.588-.03-.853-.382-1.933-1.285-2.403-.362-.2-.774-.26-1.237-.33-1-.15-2.14-.264-3.015.27-.9.55-1.3 1.654-1.627 2.646a47.26 47.26 0 0 0-1.637 6.905c-.02.13-.142.22-.273.198a.24.24 0 0 1-.198-.273c.374-2.356.93-4.703 1.654-6.975.342-1.075.794-2.274 1.833-2.9 1-.618 2.252-.497 3.335-.335.488.073.96.157 1.387.38 1.084.565 1.507 1.822 1.54 2.8.032.935-.205 1.845-.434 2.725l-.102.393c-.38 1.494-.646 3.044-.904 4.542l-.93 4.655c-.94 3.67-2.497 6.4-4.627 8.148-.82.67-1.535.987-2.25 1zm9.343-12.84a.24.24 0 0 1-.135-.042c-.108-.075-.136-.224-.06-.332 1.773-2.568 2.072-5.866 2.335-8.776l.722-7.975c.05-.553.107-1.18-.107-1.7-.1-.27-.295-.532-.57-.804-.913-.906-2.27-1.355-3.544-1.172a4.26 4.26 0 0 0-3.07 2.124.24.24 0 0 1-.324.094.24.24 0 0 1-.094-.324 4.75 4.75 0 0 1 3.419-2.366 4.75 4.75 0 0 1 3.948 1.305c.32.32.542.634.675.963.258.635.195 1.324.14 1.932l-.722 7.975c-.256 2.82-.573 6.332-2.418 9.004-.046.067-.12.103-.197.103z"/><path d="M75.772 97.407c-.87 0-1.683-.355-2.15-.97-.08-.105-.06-.255.046-.334s.255-.06.334.046c.552.727 1.575.886 2.344.722.75-.16 1.492-.595 2.33-1.364 1.963-1.802 3.276-4.18 4.546-6.482.25-.453.508-.92.6-1.422.196-1.072-.504-2.276-1.562-2.684-1.03-.397-2.334-.06-3.103.802a.24.24 0 0 1-.337.019.24.24 0 0 1-.019-.337c.91-1.02 2.404-1.403 3.63-.93 1.282.495 2.1 1.907 1.86 3.216-.106.577-.396 1.103-.652 1.566C82.352 91.587 81.02 94 79 95.856c-.904.83-1.715 1.3-2.553 1.48a3.21 3.21 0 0 1-.674.072z"/><path d="M84.117 86.383c-.08 0-.16-.04-.205-.116a.24.24 0 0 1 .083-.327 5.33 5.33 0 0 0 2.557-4.62l-.033-.573c-.035-.464-.07-.944.033-1.42.04-.182.098-.363.154-.538.138-.43.27-.837.103-1.17s-.6-.5-.96-.593a10.39 10.39 0 0 0-2.439-.389.24.24 0 0 1-.23-.248c.004-.132.118-.237.248-.23.863.034 1.72.17 2.55.407.454.13 1.006.34 1.255.838.253.506.08 1.05-.075 1.528l-.142.493c-.1.4-.057.834-.024 1.284l.034.6a5.8 5.8 0 0 1-2.8 5.04c-.038.023-.08.034-.122.034zM66.15 99.906c-.426 0-.894-.068-1.4-.204s-1.146-.352-1.562-.852c-.5-.614-.542-1.425-.53-2.272l.045-3.187c.008-.56.016-1.14.17-1.706a3.58 3.58 0 0 1 2.503-2.474l.23-.054c1.57-.323 2.932.1 3.653 1.107.513.724.553 1.656.52 2.557a28.47 28.47 0 0 1-.309 3.234c-.18 1.18-.573 2.826-1.882 3.52-.414.22-.887.33-1.428.33zm-.664-10.232a3.09 3.09 0 0 0-2.161 2.137c-.14.507-.147 1.056-.154 1.587l-.045 3.187c-.01.754.013 1.472.42 1.96.33.396.877.58 1.316.696 1.05.276 1.864.248 2.492-.086 1.12-.595 1.47-2.096 1.635-3.172a27.98 27.98 0 0 0 .304-3.18c.03-.76.022-1.624-.43-2.262-.876-1.234-2.502-1.052-3.16-.917l-.215.05zM59.84 61.5a.24.24 0 0 1-.234-.192c-.258-1.3-.112-2.307.434-3.024.46-.604 1.25-1.008 2.168-1.1.804-.088 1.596.04 2.36.163a.24.24 0 0 1 .198.274c-.02.13-.143.22-.274.198-.734-.12-1.494-.242-2.233-.16-.8.087-1.46.424-1.84.924-.46.604-.576 1.492-.346 2.64.026.13-.058.255-.187.28-.016.003-.03.004-.047.004zm14.715-.94a.21.21 0 0 1-.065-.01.24.24 0 0 1-.165-.295 14.16 14.16 0 0 0 .488-2.696c.024-.292.04-.598-.066-.853-.24-.584-1.018-.774-1.747-.883a.24.24 0 0 1-.201-.271.24.24 0 0 1 .271-.201c.86.128 1.786.368 2.118 1.173.145.353.128.74.1 1.074-.077.94-.247 1.878-.504 2.787a.24.24 0 0 1-.23.174z"/><path d="M62.238 64.833c-.43 0-.85-.116-1.225-.22l-1.215-.336c-.166-.046-.417-.115-.58-.316-.262-.326-.143-.793.123-1.055.246-.243.583-.34.83-.4l2.7-.663c.013-.003.025-.004.038-.005l.443-.02a.26.26 0 0 1 .035.001c.416.043.985.102 1.383.472.182.17.28.372.276.573-.006.303-.23.518-.364.646-.54.517-1.28 1.226-2.22 1.32-.076.008-.15.01-.226.01zm.713-2.527l-2.648.65c-.255.072-.478.144-.624.3-.1.1-.17.3-.086.417.06.075.187.115.334.155l1.214.336c.42.116.854.237 1.276.193.717-.073 1.3-.582 1.937-1.2.104-.1.215-.214.217-.3.001-.06-.045-.14-.123-.214-.257-.238-.646-.298-1.1-.345l-.406.018zm10.893.944a3.63 3.63 0 0 1-.158-.004c-.728-.033-1.414-.297-1.93-.742-.266-.23-.422-.462-.478-.714-.082-.365.087-.745.393-.884.286-.13.6-.028.812.046.7.23 1.244.318 1.743.27l.193-.004 1.127.014c.165.007.442.017.638.205.25.24.226.62.072.873-.142.232-.37.37-.573.475a4.05 4.05 0 0 1-1.838.463zm-1.87-1.928c-.04 0-.075.006-.105.02-.1.045-.157.203-.125.345.033.148.14.297.325.457.436.376 1.02.6 1.64.627.58.028 1.187-.115 1.757-.407.145-.074.304-.168.384-.3.058-.095.06-.225.004-.28s-.194-.068-.327-.073l-.547-.007c-.18.001-.36.001-.567-.007l-.153.003c-.566.05-1.18-.043-1.93-.295-.12-.04-.25-.084-.357-.084zm1.104-13.488a1.97 1.97 0 0 1-.29-.022c-.285-.042-.55-.135-.8-.224l-.4-.13c-.495-.142-1.008-.18-1.55-.22-.5-.036-.998-.073-1.492-.195-.235-.058-.564-.17-.72-.468-.067-.128-.07-.288-.007-.46.07-.2.247-.444.446-.53.12-.05.256.004.3.124a.24.24 0 0 1-.12.315c-.085.04-.217.262-.2.337.048.1.178.162.407.22.455.112.92.146 1.413.182.543.04 1.105.08 1.647.237l.426.14c.248.086.482.167.722.203.3.045.7.003.912-.25a.24.24 0 0 1 .336-.03.24.24 0 0 1 .03.336c-.237.282-.62.437-1.058.437zm-10.66 12.014c-.613 0-1.105-.156-1.464-.466-.077-.066-.182-.172-.215-.326s.016-.323.137-.47c.223-.27.566-.368.816-.44.785-.224 1.86-.53 2.82-.17a.24.24 0 0 1 .139.308.24.24 0 0 1-.308.139c-.75-.283-1.585-.085-2.52.18-.246.07-.46.14-.578.283-.03.035-.038.063-.04.07 0 0 .004.014.06.06.386.333.963.37 1.378.343.226-.015.45-.047.685-.08l.96-.094c.128.001.24.105.24.237s-.105.24-.237.24c-.295.002-.587.044-.897.1l-.722.085-.257.01zm10.44-2.1a1.87 1.87 0 0 1-.412-.043c-.13-.03-.2-.156-.18-.285s.156-.2.285-.18c.32.072.673.016 1.102-.1.13-.032.243-.064.322-.137.066-.06.1-.162.077-.2-.004-.008-.02-.025-.08-.056a2.11 2.11 0 0 0-1.131-.23.24.24 0 0 1-.256-.22.24.24 0 0 1 .22-.256 2.58 2.58 0 0 1 1.387.283.61.61 0 0 1 .29.272c.124.258-.001.577-.182.746-.162.15-.352.207-.533.252-.295.073-.603.135-.908.135zm9.26 8.63c-.05 0-.1-.001-.145-.002-.933-.03-1.822-.283-2.493-.5-.437-.142-.87-.33-1.074-.744a.5.5 0 0 1-.057-.282c.014-.108.07-.188.1-.24.276-.35.735-.427 1.104-.456.54-.04 1.083-.027 1.618.042l.132.018.086.002c.01 0 .018.001.027.002.494.07 1.555.513 1.885 1.26.03.067.12.273.023.47a.54.54 0 0 1-.249.232c-.318.164-.67.197-.965.197zm-3.3-1.468c.13.265.46.402.798.5.64.208 1.488.45 2.36.477.264.008.602-.001.876-.142l.033-.02a.44.44 0 0 0-.024-.067c-.253-.572-1.153-.922-1.503-.977h-.085c-.01 0-.02-.001-.03-.002l-.137-.02a7.47 7.47 0 0 0-1.52-.039c-.272.02-.604.07-.766.275zm.04 10.588c-.402 0-.797-.066-1.18-.13l-.787-.1-.408-.023-.747-.063c-.495-.084-.888-.287-1.138-.6-.33-.4-.364-.98-.08-1.35.192-.25.48-.366.7-.46a.24.24 0 0 1 .311.132.24.24 0 0 1-.132.311c-.187.075-.398.16-.5.307-.167.217-.096.554.07.755.22.268.584.378.85.423.222.037.448.047.687.057l.428.024c.28.023.557.07.826.115.454.076.882.148 1.313.116.28-.02.497-.083.666-.192.184-.118.306-.302.32-.48a.24.24 0 0 1 .256-.22c.132.01.23.124.22.256-.024.33-.225.647-.537.847-.238.153-.53.24-.9.266l-.246.01zm6.204 3.822c-.118 0-.243-.01-.376-.027-.47-.064-.94-.213-1.394-.443-.118-.06-.165-.203-.106-.32a.24.24 0 0 1 .321-.106 3.92 3.92 0 0 0 1.243.396c.355.05.627.02.832-.086.194-.1.366-.335.316-.55-.046-.2-.26-.37-.642-.506-.535-.192-1.095-.303-1.663-.33a.24.24 0 0 1-.227-.25c.006-.132.116-.232.25-.227a6.16 6.16 0 0 1 1.8.36c.552.198.86.476.947.85.106.463-.203.894-.56 1.08-.2.1-.454.163-.742.163z"/><path d="M82.336 87.546c-.26 0-.5-.07-.732-.13l-.882-.246c-.205-.057-.438-.122-.642-.265-.3-.2-.475-.568-.445-.9.034-.376.318-.695.67-.76a2.5 2.5 0 0 1 2.617.545c.3.305.564.793.352 1.244-.137.3-.454.5-.828.52l-.1.004zm-1.838-1.874c-.027.015-.056.025-.1.03-.147.018-.283.172-.298.336-.015.172.082.363.243.476.137.096.32.147.496.196l.882.246c.226.063.46.13.677.1.2-.016.37-.112.433-.246.1-.212-.056-.504-.256-.7-.532-.525-1.388-.708-2.1-.447zm-22.683-.01c-.04 0-.082-.001-.123-.003-.284-.013-.5-.077-.687-.195-.256-.17-.4-.457-.363-.73.04-.314.284-.518.5-.66.257-.177.544-.34.854-.487a2.4 2.4 0 0 1 .634-.194 2.63 2.63 0 0 1 1.055.039c.516.128.84.43.866.805.018.248-.106.505-.33.688-.177.144-.384.223-.567.292-.553.2-1.176.447-1.83.447zm1.244-1.83a2.21 2.21 0 0 0-.36.029 1.92 1.92 0 0 0-.509.155 5.56 5.56 0 0 0-.787.448c-.115.08-.27.2-.288.33-.012.092.05.203.154.27s.25.107.445.116c.6.027 1.217-.207 1.762-.414.156-.06.318-.12.435-.217.102-.083.16-.192.155-.284-.013-.188-.28-.32-.505-.376a2.09 2.09 0 0 0-.502-.06zm-.398-.206h0zm11.635-36.373a.24.24 0 0 1-.051-.005c-.13-.028-.2-.155-.183-.284l.714-3.722c.665-3.763 1.145-6.482 4.007-10.362.078-.106.227-.13.334-.05s.13.228.05.334c-2.796 3.8-3.268 6.463-3.92 10.162l-.717 3.74c-.024.112-.123.188-.233.188z"/><path d="M76.013 36.002c-.314 0-.625-.066-.892-.175-.67-.274-1.197-.792-1.66-1.253l-1.03-.66a.24.24 0 0 1-.042-.034c-.492-.505-.423-1.316-.102-1.857s.843-.894 1.304-1.208c.522-.355 1.113-.758 1.8-.9.665-.137 1.534.02 1.974.677.28.42.313.936.34 1.352l.085 1.34c.05.776.055 1.653-.516 2.232-.342.348-.804.486-1.26.486zm-3.3-2.475l1.026.66a.4.4 0 0 1 .04.032c.46.455.933.926 1.523 1.167.5.2 1.2.223 1.632-.204.432-.44.424-1.163.38-1.867l-.085-1.34c-.024-.377-.05-.804-.26-1.117-.315-.47-1-.577-1.48-.475-.594.122-1.12.48-1.628.827-.42.286-.896.6-1.162 1.058-.22.368-.285.93.016 1.26zm-5.01 38.677c-.118 0-.22-.087-.236-.207-1.52-11.382 3.138-24.12 11.87-32.454.096-.1.246-.088.337.008s.088.246-.008.337c-8.624 8.232-13.226 20.8-11.725 32.045a.24.24 0 0 1-.205.268c-.01.001-.02.002-.032.002z"/><path d="M79.634 43.5a.98.98 0 0 1-.369-.074c-.354-.144-.566-.474-.72-.715l-.87-1.36-.472-.5-.023-.028a1.48 1.48 0 0 0-.448-.416c-.2-.134-.4-.272-.52-.674-.23-.846.617-1.522 1.5-1.8a9.12 9.12 0 0 1 2.5-.396c.23-.004.494.001.74.112.492.225.76.805.754 1.634-.008 1-.225 2.035-.63 2.96-.282.646-.82 1.236-1.43 1.236zm-2.076-2.956l.477.494c.01.01.02.024.03.037l.883 1.38c.156.243.3.45.498.53.486.196.984-.455 1.183-.9.38-.868.583-1.827.6-2.773.003-.364-.055-1.004-.475-1.196-.154-.07-.347-.073-.532-.07a8.65 8.65 0 0 0-2.36.376c-.56.17-1.335.634-1.178 1.2.062.23.15.287.322.4.16.105.356.236.563.523zm-8.756 7.896a2.21 2.21 0 0 1-1.411-.506c-.086-.072-.097-.2-.025-.286s.2-.098.286-.025a1.8 1.8 0 0 0 1.618.349c.108-.03.22.033.25.14s-.033.22-.14.25a2.14 2.14 0 0 1-.576.078zm11.535 19.513c-.202 0-.398-.048-.568-.14-.098-.054-.134-.177-.08-.276s.178-.133.276-.08a.83.83 0 0 0 .635.052.83.83 0 0 0 .501-.395c.052-.1.175-.137.274-.086s.138.174.086.274c-.146.28-.417.497-.743.595-.126.038-.254.056-.38.056zm.98 1.23a1.16 1.16 0 0 1-.44-.087c-.103-.043-.152-.162-.1-.266s.162-.153.266-.1c.207.087.456.07.685-.044s.4-.305.445-.523c.027-.1.136-.175.246-.148s.175.137.148.246c-.083.333-.323.62-.657.787-.188.094-.4.142-.584.142zM80.03 70.38a1.11 1.11 0 0 1-.86-.4c-.07-.1-.053-.216.036-.285s.216-.053.285.036c.187.24.573.323.842.18.1-.053.222-.015.275.083s.016.222-.083.275a1.04 1.04 0 0 1-.493.12zm.97 1.243a1.22 1.22 0 0 1-.42-.073c-.105-.04-.16-.155-.12-.26s.156-.16.26-.12a.91.91 0 0 0 1.052-.373c.057-.096.18-.128.278-.07a.2.2 0 0 1 .07.278c-.23.388-.676.62-1.12.62zm.635 1.193c-.047 0-.095-.016-.133-.05-.085-.073-.093-.202-.02-.286.167-.192.395-.327.643-.38.1-.024.218.046.242.155s-.046.218-.155.242c-.163.035-.314.125-.423.25-.04.046-.097.07-.153.07zM57.28 87.096a.71.71 0 0 1-.47-.17c-.084-.074-.093-.202-.02-.286s.202-.093.286-.02c.078.07.203.087.328.05s.218-.124.244-.224c.03-.108.14-.173.248-.144s.173.14.144.248c-.064.24-.257.428-.518.508-.082.025-.164.037-.244.037zm.15 1.186a1.09 1.09 0 0 1-.314-.046c-.107-.032-.168-.146-.136-.253s.146-.168.253-.136a.75.75 0 0 0 .815-.293c.062-.093.188-.118.28-.056s.118.188.056.28a1.16 1.16 0 0 1-.955.502zm.32 1.218a1.18 1.18 0 0 1-.434-.082c-.104-.042-.154-.16-.113-.264s.16-.154.264-.113a.83.83 0 0 0 .915-.237c.07-.087.198-.1.285-.03s.1.198.03.285c-.23.283-.588.44-.947.44zm17.295-12.662a1.3 1.3 0 0 1-.519-.111c-.338-.147-.6-.416-.7-.74-.033-.107.027-.22.134-.254s.22.027.254.134c.065.2.234.387.463.487s.474.103.672.007c.1-.05.222-.006.27.095s.006.222-.095.27c-.152.073-.32.1-.5.1zm-.56 1.346a1.07 1.07 0 0 1-.604-.196c-.3-.206-.472-.524-.46-.85.004-.112.1-.193.2-.196.112.004.2.098.196.2-.007.187.1.375.284.5s.398.16.57.085c.103-.044.222.004.266.107s-.004.222-.107.266a.9.9 0 0 1-.355.072z"/><path d="M74.122 79.125a.95.95 0 0 1-.241-.032c-.297-.078-.523-.283-.603-.548-.032-.107.028-.22.135-.253s.22.028.253.135c.038.127.16.232.318.273s.315.01.4-.082c.08-.078.2-.075.287.006s.075.2-.006.287a.79.79 0 0 1-.553.214zm-5.8-29.518c-.37 0-.743-.143-1.002-.416-.077-.08-.074-.2.008-.287s.2-.074.287.008a1 1 0 0 0 1.217.146c.094-.06.22-.034.28.06s.034.22-.06.28a1.35 1.35 0 0 1-.73.21z"/><use xlink:href="#J"/><use xlink:href="#J" x="2.05" y="1.705"/><use xlink:href="#J" x="-1.25" y="3.267"/><use xlink:href="#J" x="0.45" y="5.443"/><use xlink:href="#J" x="0.45" y="12.767"/><path d="M52.297 60.745c-.277 0-.577-.084-.896-.252-.1-.052-.137-.175-.085-.274s.175-.137.274-.085c.396.208.74.258 1.02.148.407-.16.57-.613.572-.617.037-.105.152-.16.258-.125s.162.15.126.257c-.01.026-.222.63-.803.86-.147.058-.302.087-.465.087z"/><use xlink:href="#K"/><path d="M52.064 64.216a1.89 1.89 0 0 1-.888-.232c-.1-.052-.137-.175-.085-.274s.175-.137.274-.085c1.237.652 2.086-.617 2.122-.67.06-.094.187-.12.28-.06s.12.186.06.28c-.277.427-.926 1.04-1.763 1.04zm2.274 1.584c-.288 0-.587-.08-.894-.243-.1-.052-.137-.175-.085-.274s.175-.137.274-.085c.372.196.72.244 1.036.145.536-.17.822-.714.824-.72.05-.1.173-.14.273-.088s.14.172.1.272c-.014.028-.36.7-1.06.922a1.51 1.51 0 0 1-.457.07zm-.868 2.952a1.89 1.89 0 0 1-.888-.232c-.1-.052-.137-.175-.085-.274s.175-.137.274-.085c1.243.655 2.086-.617 2.12-.67.06-.094.187-.12.28-.06s.12.187.06.28c-.277.427-.926 1.04-1.763 1.04z"/><use xlink:href="#K" x="2.043" y="-2.7"/><path d="M57.494 62.58c-.28 0-.58-.083-.896-.25-.1-.052-.137-.175-.085-.274s.175-.137.274-.085c.4.205.734.254 1.027.147.447-.163.647-.645.65-.65.042-.103.16-.154.264-.112s.154.16.113.263c-.01.026-.264.65-.882.88a1.32 1.32 0 0 1-.464.082zm10.128 11.917c-.407 0-.803-.2-1.178-.564-.08-.08-.08-.208 0-.287s.208-.08.287 0c.3.3.626.46.937.444.474-.024.806-.424.8-.428.07-.087.198-.1.285-.03s.1.197.03.284c-.018.022-.443.543-1.1.58l-.072.002zm1.725 1.703c-.43 0-.888-.148-1.302-.563-.08-.08-.08-.208 0-.287s.208-.08.287 0c1 1 2.175.03 2.225-.013.086-.072.214-.06.285.027s.06.214-.026.285c-.305.254-.86.55-1.47.55z"/><use xlink:href="#J" x="5.197" y="9.808"/><path d="M67.56 79.94c-.366 0-.74-.2-1.115-.564-.08-.08-.08-.208 0-.287s.208-.08.287 0c.326.326.632.473.907.44.363-.044.58-.398.584-.4.058-.096.183-.127.278-.07s.127.18.07.277c-.013.02-.317.525-.878.596a1.17 1.17 0 0 1-.132.008zm.1 2c-.43 0-.888-.148-1.302-.563-.08-.08-.08-.208 0-.287s.208-.08.287 0c1 1 2.175.03 2.225-.013.087-.07.214-.06.285.027s.06.214-.026.285c-.305.254-.86.55-1.47.55z"/><use xlink:href="#J" x="7.248" y="19.307"/><use xlink:href="#J" x="4.75" y="20.997"/><path d="M76.843 81.692c-.582 0-1.223-.22-1.644-.94-.056-.097-.024-.22.073-.278s.22-.024.278.073c.708 1.213 2.096.58 2.155.553.1-.047.222-.004.27.098s.004.222-.098.27c-.252.118-.628.225-1.033.225z"/><use xlink:href="#L"/><path d="M75.896 87.072c-.582 0-1.223-.22-1.644-.94-.056-.097-.024-.22.073-.278s.22-.024.278.073c.708 1.213 2.096.58 2.155.553.1-.048.222-.004.27.098s.004.222-.098.27a2.53 2.53 0 0 1-1.033.225z"/><use xlink:href="#M"/><use xlink:href="#M" x="-0.313" y="5.123"/><use xlink:href="#L" x="-2.435" y="11.044"/><path d="M58.68 85.14c-1.243-2.638-2.612-5.222-4.3-7.598l-1.257-1.654c-.462-.572-.926-1.177-1.467-1.678-.402-.373-.984-.766-1.565-.678-.358.054-.585.347-.72.663-.352.825-.368 2.074.073 2.872.15.27.56.028.412-.24-.352-.636-.318-1.615-.106-2.3.085-.27.223-.563.546-.532.626.06 1.096.593 1.486 1.034 1.717 1.944 3.188 4.083 4.456 6.344l2.038 4c.13.278.543.036.412-.24h0zm-4.468-11.125a.24.24 0 0 1-.228-.168l-1.358-4.102c-1.62-4.758-3.457-10.15-2.984-12.28.346-1.558 3.147-3.452 6.377-3.657 1.557-.098 2.586.33 2.9 1.205.872 2.427 1.033 5.03 1.04 5.14.008.132-.093.245-.224.252a.24.24 0 0 1-.252-.224c-.002-.026-.164-2.647-1.013-5.007-.233-.648-1.117-.973-2.42-.9-2.394.15-5.578 1.65-5.94 3.284-.444 1.997 1.45 7.555 2.97 12.02l1.363 4.116c.04.126-.032.26-.158.298a.24.24 0 0 1-.07.011z"/><path d="M51.615 58.187c-.583 0-1.056-.094-1.2-.364-.13-.23-.048-.497.248-.798.15-.207 1.32-1.607 5.67-2.352 1.203-.206 1.542.148 1.614.48.18.828-1.358 2.1-3.103 2.548-.027.007-1.902.485-3.218.485zm5.347-3.097c-.15 0-.337.016-.56.054-4.354.746-5.36 2.154-5.368 2.168a.26.26 0 0 1-.03.037c-.177.176-.18.252-.18.253.186.23 2.058.12 3.89-.36 1.712-.45 2.843-1.587 2.757-1.985-.02-.093-.186-.166-.508-.166zm-6.126 2.1h0z"/></g><defs ><path id="E" d="M211.558 107.475H171.1a.24.24 0 0 1-.239-.239v-6.95a.24.24 0 0 1 .239-.239h40.458a.24.24 0 0 1 .239.239v6.95a.24.24 0 0 1-.239.239zm-40.22-.477h39.98v-6.472h-39.98v6.472z"/><path id="F" d="M201.932 52.517h-79.708a.24.24 0 0 1-.239-.239.24.24 0 0 1 .239-.239h79.708a.24.24 0 0 1 .239.239.24.24 0 0 1-.239.239z"/><path id="G" d="M201.932 59.77h-79.708a.24.24 0 0 1-.239-.239.24.24 0 0 1 .239-.239h79.708a.24.24 0 0 1 .239.239c0 .132-.107.24-.24.24z"/><path id="H" d="M344.884 93.055c-.11-.003-2.563-.09-4.58-1.47-1.813-1.242-3.926.336-3.947.352a.24.24 0 0 1-.334-.045.24.24 0 0 1 .045-.334c.024-.018 2.406-1.805 4.507-.367 1.898 1.3 4.292 1.386 4.316 1.387a.24.24 0 0 1 .231.246c-.004.13-.1.232-.238.232z"/><path id="I" d="M51.587 233.204a2 2 0 0 1-.592-.087c-.95-.293-1.618-1.1-2.154-1.75l.368-.304c.496.6 1.113 1.347 1.927 1.6.427.132.946.06 1.323-.183.188-.12.422-.34.466-.685l.474.06c-.053.413-.294.777-.68 1.026-.33.213-.733.325-1.13.325z"/><path id="J" d="M60.85 67.955c-.43 0-.888-.148-1.302-.563-.08-.08-.08-.208 0-.287s.208-.08.287 0c.99.99 2.175.03 2.225-.013.086-.07.214-.06.285.027s.06.214-.026.285c-.305.254-.86.55-1.47.55z"/><path id="K" d="M54.752 61.745a1.89 1.89 0 0 1-.888-.232c-.1-.052-.137-.175-.085-.274s.175-.137.274-.085c1.237.65 2.086-.617 2.122-.67.06-.094.187-.12.28-.06s.12.186.06.28c-.277.427-.926 1.04-1.763 1.04z"/><path id="L" d="M74.805 84.536c-.582 0-1.223-.22-1.644-.94-.056-.097-.024-.22.073-.278s.22-.024.278.073c.708 1.213 2.096.58 2.155.553.1-.047.222-.004.27.098s.004.222-.098.27a2.53 2.53 0 0 1-1.033.225z"/><path id="M" d="M74.688 89.122c-.582 0-1.223-.22-1.644-.94-.056-.097-.024-.22.073-.278s.22-.024.278.073c.705 1.207 2.097.58 2.156.553.1-.047.222-.003.27.098s.004.222-.098.27c-.252.118-.628.225-1.033.225z"/></defs></svg>