<svg xmlns="http://www.w3.org/2000/svg" xmlns:xlink="http://www.w3.org/1999/xlink" width="237.875" height="220" xmlns:v="https://vecta.io/nano"><style><![CDATA[.Ls{clip-path:url(#I)}.Lt{clip-path:url(#K)}.Lu{clip-path:url(#M)}.Lv{fill:#222323}.Lw{fill:#fff}.Lx{fill:#b1a9d3}.Ly{fill:#231f20}.Lz{fill:#e9d4c8}.MA{fill:#b1aad3}.MB{fill:#b0abd3}.MC{fill:#b0acd3}.MD{fill:#afadd4}.ME{fill:#afaed4}.MF{fill:#aeafd4}.MG{fill:#aeb0d4}.MH{fill:#adb1d4}.MI{fill:#adb2d4}.MJ{fill:#acb3d4}.MK{fill:#acb4d5}.ML{fill:#abb5d5}.MM{fill:#abb6d5}.MN{fill:#aab7d5}.MO{fill:#aab8d5}.MP{fill:#a9b9d5}.MQ{fill:#a9bad5}.MR{fill:#a8bbd6}.MS{fill:#a8bcd6}.MT{fill:#a7bdd6}.MU{fill:#a7bfd6}.MV{fill:#a6c0d6}.MW{fill:#a6c1d6}.MX{fill:#a5c2d7}.MY{fill:#a5c3d7}.MZ{fill:#a4c4d7}.Ma{fill:#a4c5d7}.Mb{fill:#a3c6d7}.Mc{fill:#a3c7d7}.Md{fill:#a2c8d7}.Me{fill:#a2c9d8}.Mf{fill:#a1cad8}.Mg{fill:#a1cbd8}.Mh{fill:#a0ccd8}.Mi{fill:#a0cdd8}.Mj{fill:#9fced8}.Mk{fill:#9fcfd8}.Ml{fill:#9ed0d9}.Mm{fill:#9ed1d9}.Mn{fill:#9dd2d9}.Mo{fill:#9dd3d9}.Mp{fill:#9ed3d9}.Mq{fill:#9fd4d8}.Mr{fill:#a0d4d8}.Ms{fill:#a1d4d8}.Mt{fill:#a2d4d7}.Mu{fill:#a3d5d7}.Mv{fill:#a4d5d7}.Mw{fill:#a5d5d6}.Mx{fill:#a6d6d6}.My{fill:#a7d6d6}.Mz{fill:#a8d6d5}.NA{fill:#a9d6d5}.NB{fill:#aad7d5}.NC{fill:#abd7d4}.ND{fill:#acd7d4}.NE{fill:#aed8d4}.NF{fill:#afd8d3}.NG{fill:#b0d8d3}.NH{fill:#b1d8d2}.NI{fill:#b2d9d2}.NJ{fill:#b3d9d2}.NK{fill:#b4d9d1}.NL{fill:#b5d9d1}.NM{fill:#b6dad1}.NN{fill:#b7dad0}.NO{fill:#b8dad0}.NP{fill:#b9dbd0}.NQ{fill:#badbcf}.NR{fill:#bbdbcf}.NS{fill:#bcdbcf}.NT{fill:#bddcce}.NU{fill:#bedcce}.NV{fill:#bfdcce}.NW{fill:#c0dcce}.NX{fill:#c1dbce}.NY{fill:#c2dbcd}.NZ{fill:#c3dbcd}.Na{fill:#c4dbcd}.Nb{fill:#c5dbcd}.Nc{fill:#c6dbcd}.Nd{fill:#c7dacd}.Ne{fill:#c8dacd}.Nf{fill:#c9dacc}.Ng{fill:#cadacc}.Nh{fill:#cbdacc}.Ni{fill:#ccd9cc}.Nj{fill:#cdd9cc}.Nk{fill:#ced9cc}.Nl{fill:#cfd9cc}.Nm{fill:#d0d9cb}.Nn{fill:#d1d8cb}.No{fill:#d2d8cb}.Np{fill:#d3d8cb}.Nq{fill:#d5d8cb}.Nr{fill:#d6d8cb}.Ns{fill:#d7d8cb}.Nt{fill:#d8d7cb}.Nu{fill:#d9d7ca}.Nv{fill:#dad7ca}.Nw{fill:#dbd7ca}.Nx{fill:#dcd7ca}.Ny{fill:#ddd6ca}.Nz{fill:#ded6ca}.OA{fill:#dfd6ca}.OB{fill:#e0d6c9}.OC{fill:#e1d6c9}.OD{fill:#e2d5c9}.OE{fill:#e3d5c9}.OF{fill:#e4d5c9}.OG{fill:#e5d5c9}.OH{fill:#e6d5c9}.OI{fill:#e7d5c8}.OJ{fill:#e8d4c8}.OK{fill:#ead4c8}.OL{fill:#e8d3c8}.OM{fill:#e7d3c9}.ON{fill:#e6d2c9}.OO{fill:#e5d2c9}.OP{fill:#e4d2c9}.OQ{fill:#e3d1ca}.OR{fill:#e2d1ca}.OS{fill:#e1d1ca}.OT{fill:#e0d0ca}.OU{fill:#dfd0cb}.OV{fill:#decfcb}.OW{fill:#ddcfcb}.OX{fill:#dccfcb}.OY{fill:#dbcecb}.OZ{fill:#dacecc}.Oa{fill:#d9cdcc}.Ob{fill:#d8cdcc}.Oc{fill:#d7cdcc}.Od{fill:#d6cccd}.Oe{fill:#d5cccd}.Of{fill:#d4cccd}.Og{fill:#d2cbcd}.Oh{fill:#d1cbcd}.Oi{fill:#d0cace}.Oj{fill:#cfcace}.Ok{fill:#cecace}.Ol{fill:#cdc9ce}.Om{fill:#ccc9cf}.On{fill:#cbc8cf}.Oo{fill:#cac8cf}.Op{fill:#c9c8cf}.Oq{fill:#c8c7d0}.Or{fill:#c7c7d0}.Os{fill:#c6c6d0}.Ot{fill:#c5c6d0}.Ou{fill:#c4c6d0}.Ov{fill:#c3c5d1}.Ow{fill:#c2c5d1}.Ox{fill:#c1c5d1}.Oy{fill:#c0c4d1}.Oz{fill:#bfc4d2}.PA{fill:#bec3d2}.PB{fill:#bdc3d2}.PC{fill:#bec2d2}.PD{fill:#bec1d2}.PE{fill:#bfc0d1}.PF{fill:#c0bfd1}.PG{fill:#c0bed1}.PH{fill:#c1bdd1}.PI{fill:#c2bcd0}.PJ{fill:#c3bbd0}.PK{fill:#c3bad0}.PL{fill:#c4b9d0}.PM{fill:#c5b8cf}.PN{fill:#c5b7cf}.PO{fill:#c6b6cf}.PP{fill:#c7b5cf}.PQ{fill:#c7b3ce}.PR{fill:#c8b2ce}.PS{fill:#c9b1ce}.PT{fill:#c9b0ce}.PU{fill:#caafcd}.PV{fill:#cbaecd}.PW{fill:#cbadcd}.PX{fill:#ccaccd}.PY{fill:#cdabcc}.PZ{fill:#ceaacc}.Pa{fill:#cea9cc}.Pb{fill:#cfa8cc}.Pc{fill:#d0a7cb}.Pd{fill:#d0a6cb}.Pe{fill:#d1a5cb}.Pf{fill:#d2a6cb}.Pg{fill:#d3a7cb}.Ph{fill:#d4a8ca}.Pi{fill:#d5a9ca}.Pj{fill:#d6aaca}.Pk{fill:#d7abca}.Pl{fill:#d8acca}.Pm{fill:#d8adc9}.Pn{fill:#d9aec9}.Po{fill:#daafc9}.Pp{fill:#dbb0c9}.Pq{fill:#dcb1c9}.Pr{fill:#ddb2c8}.Ps{fill:#deb3c8}.Pt{fill:#dfb4c8}.Pu{fill:#e0b6c8}.Pv{fill:#e1b7c8}.Pw{fill:#e2b8c8}.Px{fill:#e3b9c7}.Py{fill:#e4bac7}.Pz{fill:#e5bbc7}.QA{fill:#e6bcc7}.QB{fill:#e7bdc7}.QC{fill:#e7bec6}.QD{fill:#e8bfc6}.QE{fill:#e9c0c6}.QF{fill:#eac1c6}.QG{fill:#ebc2c6}.QH{fill:#ecc3c5}.QI{fill:#edc4c5}.QJ{fill:#eec5c5}]]></style><g fill="#eaeaea"><path d="M119.057 133.578l1.37 6.578 1.814-.886 2.876-1.314-7.758-15.877.072 3.2c.7 2.736 1.077 5.533 1.628 8.3zm7.228 17.862l-.36.138c3.04 1.125 6.398 1.132 6.398 1.132l-1.372-2.8-4.667 1.538zm6.177 13.973a.3.3 0 0 1 .014-.593c3.484-.208 8.537-.258 13.096.654 7.957 1.6 14.9 4.35 14.9 4.35l-4.26 2.997s-12.487-6.2-23.742-7.408zm68.4-8.096l-.23 1.354 5.284-1.948s-.975-.538-4.937-.446l-.116 1.04z"/><path d="M186.735 164.036c-.117.142-.303.216-.54.13l-.762-.256c-1.414-.053-3.303-.246-4.2-1.387a.66.66 0 0 1-.142-.32c-.108-.084-.2-.173-.306-.267-.487.36-1-.32-.764-.77l.153-.298a1.66 1.66 0 0 1-.032-.366c0-.01.002-.017.003-.025-.617.55-1.296 1.03-2 1.467l-6.498 5.1c-2.13 1.458-5.274 2.603-7.464 1.113a4.61 4.61 0 0 1-1.15-.613c-4.33 2.894-6.8 5.277-6.8 5.277l8.434 4.938s4.83-4.158 11.695-8.527c2.287-1.455 6.333-3.33 10.712-5.18l-.3-.015zM36.933 138.923l-7.7 10.036 6.635 12.572-2.803.34-12.23-22.245zm2.715 28.637v18.425H36.55l-1.957-9.62.17-9.145s-.478-1.374.588-.74 2.455.847 2.455.847l1.843.234zM54.304 50.173c-.556.258-1.123.5-1.72.648-.388.102-.763-.002-1.057-.223-.1.012-.188.002-.278-.007-2.434 4.744-4.97 11.216-6.8 19.747-8.02 37.348 1.512 66.905 1.512 66.905l6.44-4.057 2.227-3.047c-3.023-6.524-4.1-8.806-4.884-31.32-.093-2.675-.403-31.012 4.563-48.646z"/></g><path d="M134.006 197.668l.1 2.125 16.63-2.563.605-1.38z" class="Lx"/><path d="M110.87 156.85c-3.86 1.077-7.767 1.683-11.713 1.694-4.257.462-8.723.257-12.42-1.87-.142-.082-.25-.18-.34-.286-.514-.17-1.027-.347-1.53-.548-1.053-.422-2.115-.94-2.792-1.807-1.168.782-3.74 3.463-4.38 4.975-.46 1.088.844.966.797 1.935 5.344.058 10.312-.075 16.153-.425-.048.453-.077.228-.125.68 2.156.5 4.77.068 6.92-.458 7.4-1.81 14.977-3.693 21.238-7.82l.406-.215c-.096-.001-.19.013-.287.015-3.743 1.915-7.903 3.008-11.925 4.13z" fill="#eaeaea"/><path d="M51.734 50.627a4.74 4.74 0 0 1-.37-.017c-6.382 13.068-10.272 30.906-10.272 50.397 0 14.515 1.452 25.705 4.706 36.285.027.088.12.137.208.1s.138-.12.1-.208c-3.245-10.546-4.7-21.707-4.7-36.187 0-17.764 3.266-34.815 9.195-48a75.69 75.69 0 0 1 1.114-2.369zM104 52.945c-5.88-12.968-13.886-21.262-22.565-23.4l.072-.105 2.045-3.542a1.63 1.63 0 0 0-1.428-2.474h-9.86a1.63 1.63 0 0 0-1.428 2.474l2.004 3.47c-3.23.787-6.3 2.423-9.203 4.765.02.14.01.296-.027.46 3.023-2.504 6.222-4.186 9.518-4.95.05-.012.093-.046.114-.093s.02-.1-.004-.147l-2.113-3.672a1.3 1.3 0 0 1 1.139-1.974h9.86a1.3 1.3 0 0 1 1.139 1.974l-2.04 3.532-.2.295a.17.17 0 0 0-.018.155c.02.052.064.1.118.102 8.666 2 16.683 10.27 22.573 23.258 5.77 12.726 9.026 29.05 9.24 46.135a11.93 11.93 0 0 1 .33-.246c-.242-17.043-3.504-33.32-9.267-46.027zm7.592 68.14c-1.223 8.86-3.24 17.132-5.983 24.24-.033.086.01.183.096.216.02.008.04.01.06.01.067 0 .13-.04.156-.107 2.793-7.243 4.84-15.687 6.06-24.727-.123.128-.26.243-.388.366z" fill="#222423"/><g class="Lv"><path d="M165.704 81.846c-.022 0-.044-.004-.065-.013-.085-.036-.124-.134-.088-.22l.8-1.853c.778-2.603.922-5.637.374-7.92-.043-.18-.17-.456-.314-.427-.058.01-.117.07-.183.136-1.186 1.218-2.56 2.882-3.764 4.563-.054.075-.158.092-.233.038s-.092-.158-.038-.233c1.215-1.694 2.6-3.37 3.796-4.6.077-.08.193-.198.357-.23.314-.062.6.203.704.676.56 2.34.415 5.444-.38 8.102l-.8 1.88c-.027.063-.1.1-.153.1zm-19.45 25.77c-.044 0-.086-.017-.118-.05l-8.772-8.767-4.302-4.844c-.054-.06-.056-.15-.006-.214 2.66-3.357 5.16-6.9 7.43-10.53l.553-.9c1.12-1.8 2.28-3.68 3.7-5.303 1.828-2.07 4.27-3.62 6.534-4.14.1-.02.18.035.2.125s-.035.18-.125.2c-2.198.506-4.575 2.014-6.36 4.035-1.414 1.602-2.565 3.46-3.678 5.258l-.554.892a117.01 117.01 0 0 1-7.364 10.452l4.202 4.733 8.604 8.6 2.673-5.172.13-.346c.003-.008.006-.015.01-.022a15.73 15.73 0 0 1 3.945-4.628c.063-.05.15-.048.212.004s.076.14.037.208a5.99 5.99 0 0 0-.517 1.231c.318-.36.654-.703 1.005-1.027.052-.048.13-.058.2-.025a.17.17 0 0 1 .087.172l-.067.452a3.61 3.61 0 0 1 .613-.245 2.39 2.39 0 0 1 1.127-.051c.487.093.92.312 1.338.523l.235.118.735.357c.594.286 1.2.583 1.798.904 1.267.692 2.575 1.52 3.998 2.527l1.147.833c1.14.847 2.435 1.808 3.848 1.742.822-.038 1.694-.443 2.453-1.14.693-.636 1.234-1.433 1.756-2.205l.095-.2-.062-.072-8.735-11.742c-.055-.074-.04-.178.033-.234s.178-.04.234.033l8.728 11.733.127.146c.043.05.053.12.024.18l-.148.3c-.004.007-.008.015-.012.022-.536.8-1.1 1.608-1.814 2.274-.578.53-1.5 1.175-2.663 1.228-1.536.066-2.878-.927-4.063-1.808l-1.14-.83c-1.412-1-2.7-1.82-3.965-2.506-.582-.318-1.192-.612-1.783-.897l-.737-.358-.238-.12c-.416-.2-.8-.4-1.25-.493a2.06 2.06 0 0 0-.97.043c-.307.09-.716.28-.775.374-.018.085-.1.142-.187.13s-.154-.098-.14-.2l.06-.4a13.9 13.9 0 0 0-1.071 1.191c-.048.06-.13.08-.2.048s-.1-.106-.096-.18a6.32 6.32 0 0 1 .373-1.305 15.41 15.41 0 0 0-3.27 4.032l-.13.344-2.8 5.4c-.024.047-.07.08-.123.088-.01.001-.018.002-.026.002z"/><path d="M164.398 89.434c-.018 0-.035-.003-.053-.01-.087-.03-.135-.124-.105-.21l.04-.123c.59-1.763 1.326-3.958 1.34-5.797.017-2.027-.667-4.02-1.925-5.61-1.306-1.65-3.215-2.805-5.52-3.336-.065-.02-4.918-1.634-9.724-.06-.088.03-.182-.02-.2-.106s.02-.182.107-.2c4.818-1.58 9.674-.025 9.91.053 2.376.55 4.346 1.743 5.698 3.453a9.29 9.29 0 0 1 1.997 5.819c-.015 1.892-.76 4.115-1.358 5.9l-.04.122c-.024.07-.09.114-.158.114z"/></g><path d="M144.736 81.973c-1.422 1.363-2.597 2.982-3.453 4.755l-.526-.805c-.293.884-.502 1.796-.625 2.72l-.97-1.24a7.35 7.35 0 0 1-1.888 4.894" class="Lw"/><path d="M137.273 92.463c-.04 0-.08-.014-.112-.043-.068-.062-.073-.167-.01-.236a7.19 7.19 0 0 0 1.845-4.781c0-.07.045-.135.112-.158s.142-.001.186.055l.73.934c.128-.8.32-1.594.576-2.363.02-.06.073-.105.137-.113s.126.02.16.074l.366.56c.856-1.697 1.984-3.223 3.358-4.54.067-.064.172-.062.236.005s.062.172-.005.236c-1.416 1.357-2.566 2.94-3.418 4.707-.026.054-.08.1-.14.094s-.117-.025-.15-.075l-.334-.51a14.81 14.81 0 0 0-.513 2.356c-.01.067-.057.12-.12.14s-.134-.005-.175-.058l-.687-.878c-.107 1.67-.792 3.302-1.917 4.54-.033.036-.078.055-.124.055z" class="Ly"/><path d="M156.753 93.917l2.4-.67" class="Lw"/><path d="M156.753 94.084c-.073 0-.14-.048-.16-.122-.025-.09.027-.18.116-.206l2.4-.67c.088-.025.18.027.206.116s-.027.18-.116.206l-2.4.67c-.015.004-.03.006-.045.006z" class="Ly"/><path d="M157.95 93.626c.77 2.6 1.755 5.087 3.52 7.163" class="Lw"/><g class="Ly"><path d="M161.468 100.956c-.047 0-.094-.02-.127-.06-1.9-2.247-2.867-4.913-3.552-7.224-.026-.088.024-.18.113-.207s.18.024.207.113c.675 2.278 1.618 4.903 3.486 7.103.06.07.05.175-.02.235-.03.027-.07.04-.108.04zm.29-23.206a.25.25 0 0 1-.188-.415c1.77-2.027 2.212-4.692 2.68-7.514l.794-3.875c.646-2.252 1.798-4.38 3.33-6.15l1.383-1.47c.936-.954 1.903-1.94 2.557-3.107.876-1.564 1.166-3.4 1.446-5.178l.495-2.668c.624-2.568 1.88-4.97 3.634-6.946a.25.25 0 1 1 .374.332 15.8 15.8 0 0 0-3.522 6.732c-.208.857-.35 1.758-.488 2.628-.287 1.82-.584 3.703-1.504 5.345-.686 1.224-1.677 2.235-2.636 3.212l-1.362 1.447a15.83 15.83 0 0 0-3.228 5.96c-.352 1.227-.57 2.545-.78 3.82-.458 2.766-.932 5.627-2.797 7.76a.25.25 0 0 1-.189.086z"/><path d="M171.347 57.258a.25.25 0 0 1-.073-.49c1.172-.357 2.138-1.107 3.16-1.9l1.447-1.065c1.694-1.12 3.66-1.772 5.688-1.89.14-.01.256.097.264.235a.25.25 0 0 1-.235.264c-1.94.112-3.82.737-5.44 1.807-.483.32-.958.687-1.416 1.043-1.014.787-2.062 1.6-3.322 1.984-.024.008-.05.01-.073.01z"/><path d="M172.066 56.28c-.03 0-.06-.005-.1-.017a.25.25 0 0 1-.143-.324c.785-2.027.45-4.188.095-6.476-.315-2.03-.64-4.13-.107-6.127a.25.25 0 1 1 .483.13c-.507 1.894-.2 3.94.118 5.92.35 2.253.7 4.582-.122 6.734a.25.25 0 0 1-.233.16zm-16.102 20.906a.25.25 0 0 1-.25-.249c-.006-2.022.315-4.018.655-6.13.876-5.45 1.783-11.087-2.787-18.016-1.37-2.077-3.1-3.95-4.752-5.764l-2.374-2.65c-3.06-3.58-4.635-6.717-4.956-9.87a.25.25 0 0 1 .498-.051c.3 3.047 1.848 6.096 4.84 9.596.765.895 1.577 1.78 2.362 2.636 1.676 1.827 3.4 3.716 4.8 5.826 4.677 7.1 3.713 13.084 2.863 18.37-.336 2.093-.654 4.07-.65 6.05a.25.25 0 0 1-.25.251z"/><path d="M149.25 47.33a.25.25 0 0 1-.215-.122c-1.117-1.88-1.807-4.967-1.677-7.5l.017-.308c.07-1.276.143-2.596-.575-3.548a.25.25 0 1 1 .399-.301c.83 1.098.747 2.574.675 3.877l-.017.306c-.126 2.453.535 5.425 1.607 7.227a.25.25 0 0 1-.215.378zm7.9 17.933a.25.25 0 0 1-.24-.18c-.668-2.297-1.504-4.68-3.703-6.356-.587-.447-1.237-.833-1.866-1.206l-1.465-.914c-.764-.526-1.357-1.18-1.93-1.8l-.78-.833a.25.25 0 1 1 .355-.353l.795.85c.58.64 1.127 1.243 1.844 1.735l1.436.896 1.914 1.24c2.32 1.77 3.188 4.237 3.88 6.615a.25.25 0 0 1-.24.32z"/></g><g class="Lx"><path d="M148.333 55.066c-.277-.445-.876-.622-1.385-.497s-.928.502-1.212.942c.382.3.86.5 1.346.482s1.03-.456 1.25-.9m23.398-10.03c.174-.495-.062-1.072-.477-1.392s-.97-.4-1.493-.357c.004.487.146.984.465 1.352s1 .52 1.477.42"/><use xlink:href="#B"/><use xlink:href="#B" x="-16.999" y="-30.776"/></g><path d="M160.596 77.896c.204.303.558.52.908.672.112.05.244.001.3-.107a29.67 29.67 0 0 0 2.277-5.636c.177-.61.335-1.246.25-1.877-.782 2.487-1.65 4.74-3.515 6.562" class="Ly"/><path d="M150.664 80.7c-2.85-4.68-3.14-10.814-.75-15.743 3.896 3.686 6.186 9.013 6.18 14.375" fill="#fdfefe"/><path d="M150.664 80.868c-.056 0-.11-.028-.143-.08-2.865-4.705-3.162-10.947-.757-15.902.023-.048.068-.082.12-.09s.106.006.145.043c3.908 3.697 6.238 9.117 6.233 14.497 0 .092-.075.167-.167.167h0c-.092 0-.167-.075-.167-.167.005-5.213-2.22-10.464-5.963-14.095-2.25 4.822-1.927 10.83.84 15.376.048.08.023.18-.056.23-.027.017-.057.024-.087.024z" class="Ly"/><path d="M151.433 79.556c-.102-.175-.185-.363-.26-.54-.738-1.763-1.154-3.62-1.337-5.52-.138-1.435-.115-2.948.544-4.23 1.377.904 2.2 2.43 2.898 3.92.802 1.7 1.527 3.505 1.614 5.392.01.225.01.457-.068.668-.192.518-.78.756-1.314.9-.476.127-1.058.26-1.515.006-.243-.134-.422-.354-.564-.597zm19.807 19.24a2.23 2.23 0 0 0-1.302 1.423 2.23 2.23 0 0 0 .323 1.902c.2.263.433.48.675.696.14.124.4.462.6.462s.6-.43.73-.565c.307-.295 1.106-1.097 1.06-1.567-.024-.24-.456-.636-.596-.823l-1.168-1.56-.3.034z" class="Lv"/><path d="M156.77 87.947a2.41 2.41 0 0 1-1.015-.224c-.65-.302-1.168-.9-1.424-1.6-.03-.087.015-.182.1-.213s.182.015.213.102c.226.637.68 1.154 1.25 1.418.6.278 1.303.255 1.837-.06.55-.325.9-.975.826-1.58-.01-.092.057-.174.148-.183s.174.057.183.148c.08.742-.318 1.506-.988 1.902-.338.2-.732.3-1.133.3zm7.836.75c-.024 0-.047-.005-.07-.016-.677-.315-1.556-.932-1.804-1.633-.03-.087.015-.182.1-.213s.182.015.213.102c.2.566.964 1.132 1.63 1.442.084.04.12.138.08.222-.028.06-.1.096-.15.096z" class="Ly"/><g class="Lv"><path d="M140.98 140.143a.66.66 0 0 1-.159-.019c-.202-.05-.38-.19-.544-.425-.27-.39-.405-.84-.535-1.28l-.17-.54a4.79 4.79 0 0 0-1.517-2.107c-.072-.057-.084-.162-.027-.234s.162-.084.234-.027a5.13 5.13 0 0 1 1.623 2.256l.177.558c.128.43.248.838.488 1.183.117.167.23.263.35.292.202.05.41-.102.505-.27.097-.174.13-.407.1-.712-.053-.54-.253-1.07-.462-1.564-.353-.836-1.357-2.578-1.687-3.15-.046-.08-.02-.182.06-.228s.182-.02.228.06l1.705 3.187c.22.518.43 1.078.486 1.66.036.375-.01.672-.14.907-.135.24-.4.45-.716.45z"/><path d="M142.712 140.5c-.142 0-.257-.077-.35-.153-.345-.28-.587-.53-.805-.997-.04-.083-.003-.183.08-.222s.183-.003.222.08c.173.37.346.582.713.88.028.022.102.09.145.078.016-.001.063-.016.136-.126.254-.388.352-.916.3-1.614-.14-1.822-.99-3.544-1.81-5.21l-.185-.376c-.04-.083-.006-.183.076-.223s.183-.006.223.076l.185.375c.836 1.694 1.7 3.445 1.845 5.33.06.774-.056 1.37-.353 1.823-.042.065-.17.26-.392.276l-.027.001z"/><path d="M144.302 140.257c-.296 0-.595-.158-.782-.38-.212-.253-.257-.5-.305-.76l-.04-.208c-.02-.1.037-.18.127-.2s.18.037.2.127l.043.22c.045.244.077.42.232.605.178.212.515.35.75.198.164-.105.247-.327.313-.55.673-2.313.407-4.858-.73-6.982-.205-.382-.494-.86-.924-1.16-.42-.296-.94-.367-1.32-.18-.176.086-.326.224-.485.37l-.262.23c-.375.297-.772.385-1.092.244-.124-.055-.22-.138-.313-.218-.08-.068-.153-.13-.234-.167-.358-.156-.75.254-.9.582l-.147.36c-.132.348-.27.707-.573.957-.243.2-.538.28-.823.36l-.28.083c-.3.1-.626.312-.645.607a.17.17 0 0 1-.177.156c-.092-.006-.162-.085-.156-.177.025-.39.35-.728.872-.902l.297-.088c.263-.073.512-.142.7-.297.236-.194.35-.497.473-.818l.156-.382c.252-.544.82-.973 1.337-.747.126.055.223.138.317.22.078.067.152.13.232.166.295.13.648-.12.75-.2l.244-.213c.17-.155.344-.316.564-.423.488-.24 1.14-.158 1.658.207.487.342.804.862 1.026 1.276a9.7 9.7 0 0 1 .756 7.233c-.083.287-.196.575-.453.74a.74.74 0 0 1-.404.116z"/><path d="M139.2 144.223a4.86 4.86 0 0 1-.568-.033c-.092-.01-.157-.094-.146-.185s.095-.158.185-.146c1.8.2 3.707-.655 5.86-2.645 1.695-1.568 3.386-3.288 3.823-5.554.033-.17.058-.38-.04-.494-.135-.157-.446-.078-.7.048-.753.386-1.414 1-2.08 1.935-.053.075-.158.093-.233.04s-.093-.157-.04-.233c.688-.966 1.407-1.633 2.198-2.038.472-.24.87-.23 1.096.032.2.222.162.53.114.775-.456 2.365-2.2 4.13-3.924 5.736-2.006 1.855-3.83 2.764-5.556 2.765zm5.987-10.073c-.064 0-.125-.037-.153-.1-.038-.084 0-.183.084-.22 1.136-.508 2.356-.826 3.536-1.132l1.362-.366c1.4-.398 3.152-1.014 4.426-2.26.106-.104.276-.3.22-.445-.046-.12-.227-.17-.37-.2-.573-.087-1.164.01-1.736.103l-9.67 1.438c-.092.015-.177-.047-.192-.138s.047-.177.138-.192l9.67-1.438c.597-.097 1.215-.2 1.84-.103.336.05.55.186.632.4.096.247-.005.517-.298.804-1.328 1.298-3.14 1.933-4.568 2.342l-1.37.368c-1.167.303-2.373.617-3.484 1.114-.022.01-.045.014-.068.014z"/><path d="M152.08 145.73c-.045 0-.1-.018-.12-.053-2.996-3.2-3.913-8.753-3.492-12.85.01-.092.093-.156.183-.15s.158.1.15.183c-.543 5.298 1.113 9.858 3.084 12.227a16.69 16.69 0 0 1 .202-3.548c.026-.157.06-.322.177-.452.104-.117.244-.178.405-.178.312 0 .622.227.794.42.215.243.485.545.737.47.33-.097.27-.695.228-.948-.053-.323-.036-.764.17-1.034.103-.135.245-.216.4-.234.127-.014.244.016.347.042l3.07.776a33.6 33.6 0 0 1-1.513-4.284c-.012-.043-.006-.1.016-.13s.06-.067.104-.078l2.058-.516c-.57-1.186-1.444-2.114-2.8-3-.862-.552-2.7-.852-4.252-.398-.1.025-.18-.025-.207-.114s.025-.18.114-.207c1.482-.43 3.47-.237 4.525.438 1.494.956 2.425 1.978 3.02 3.315a.16.16 0 0 1-.003.14.18.18 0 0 1-.11.09l-2.087.523a33.17 33.17 0 0 0 1.587 4.386c.026.058.016.126-.025.175s-.107.07-.168.054l-3.4-.86c-.083-.02-.162-.04-.23-.033-.075.008-.132.04-.18.104-.132.174-.148.516-.105.778.12.73-.045 1.198-.462 1.322-.458.135-.818-.272-1.08-.57-.158-.178-.386-.307-.544-.308-.066 0-.116.02-.157.066-.056.063-.077.17-.096.284a16.36 16.36 0 0 0-.167 3.957c.006.07-.034.137-.1.166-.022.01-.045.015-.067.015zm-.452-15.022a.63.63 0 0 1-.29-.064c-.395-.202-.357-.756-.344-.938.006-.092.087-.16.178-.155s.16.086.155.178c-.024.347.03.55.163.618.098.05.242.024.37-.004a8.1 8.1 0 0 0 1.402-.45c.14-.06.284-.126.38-.23.085-.1.12-.214.087-.3s.007-.183.093-.217.182.007.217.093c.083.207.023.463-.152.65-.14.15-.33.24-.494.3a8.43 8.43 0 0 1-1.46.468 1.41 1.41 0 0 1-.304.04zm-8.054 7.482c.022.275.055.557.1.828.042.204.172.424.363.52s.435.064.583-.1c.14-.155.185-.362.207-.563.03-.292.028-.6.04-.883.003-.074-.054-.14-.123-.16-.4-.114-.82-.008-1.118.267-.158.146.078.38.236.236.214-.197.52-.26.794-.18l-.123-.16-.037.855a.96.96 0 0 1-.06.266c.007-.017-.017.034-.02.04s-.037.056-.02.036c-.033.04-.035.042-.072.06a.35.35 0 0 1-.03.01c-.018.004-.02.005-.048.002.02.002-.036-.01-.044-.013.014.006-.035-.022-.04-.026a.49.49 0 0 1-.138-.205c-.043-.125-.053-.265-.073-.395l-.05-.43c-.007-.1-.072-.167-.167-.167-.085 0-.174.076-.167.167h0zm-3.26.325a1.66 1.66 0 0 0 .213.671c.107.184.338.533.6.375.208-.13.27-.435.247-.66a1.73 1.73 0 0 0-.095-.397c-.04-.1-.076-.227-.157-.316a.31.31 0 0 0-.397-.055c-.123.073-.236.172-.348.26-.07.056-.06.177 0 .236.07.07.165.056.236 0l.208-.158.05-.036c.006-.004.037-.03.022-.017.007-.005.023 0 .01-.004-.006-.002-.02-.003-.028-.004-.02-.002.006-.002.006.004s-.012-.02 0 .003-.002-.01.012.017l.023.043c.013.027-.001-.008.008.02l.03.083a1.93 1.93 0 0 1 .079.276.74.74 0 0 1 .008.211.42.42 0 0 1-.073.19c-.013.012.042.013.042.013.036.002.013.008.004-.004.01.014-.015-.015-.02-.02l-.046-.05a1.23 1.23 0 0 1-.131-.188 1.32 1.32 0 0 1-.163-.494c-.01-.1-.07-.167-.167-.167-.083 0-.176.077-.167.167h0zm1.576.175c.06.273.158.537.3.782.12.22.4.473.645.278.1-.085.153-.228.182-.36a1.74 1.74 0 0 0 .042-.412 1.77 1.77 0 0 0-.06-.422c-.036-.13-.08-.303-.2-.37s-.32-.01-.452.042a1.33 1.33 0 0 0-.396.243c-.068.06-.06.175 0 .236.067.067.168.06.236 0a.96.96 0 0 1 .221-.144c.08-.038.166-.052.252-.075 0-.005-.016-.012-.032-.018-.01.006.005-.026 0 .005 0-.001.008.02.008.018a1.24 1.24 0 0 1 .051.154 1.35 1.35 0 0 1 .047.286c.005.093.002.187-.01.28a.8.8 0 0 1-.07.26l-.01.014c.03.001-.014-.007.006.002-.01-.005-.022-.01-.032-.018l-.012-.008c-.067-.054-.104-.13-.146-.2-.107-.206-.18-.424-.23-.65a.17.17 0 0 0-.205-.117c-.1.025-.136.117-.117.205h0zm-44.476 20.565c-3.37 0-6.492-.507-9.33-1.52-2.96-1.056-5.216-2.565-6.703-4.485-2-2.582-2.82-6.3-2.246-10.175.53-3.6 2.074-6.892 3.664-9.924a104.42 104.42 0 0 1 14.869-21.37c5.04-5.6 9.95-9.784 15.013-12.795 5.648-3.36 11.082-6.084 20.415-5.38.092.007.16.087.154.18s-.1.16-.18.154c-9.235-.695-14.62 2.004-20.22 5.335-5.032 2.994-9.918 7.158-14.935 12.732a104.03 104.03 0 0 0-14.82 21.302c-1.576 3.007-3.107 6.278-3.63 9.82-.56 3.795.234 7.4 2.18 9.922 1.448 1.868 3.652 3.34 6.552 4.375 4.643 1.657 10.063 1.942 16.1.85 5.38-.973 10.6-2.894 15.648-4.75 2.805-1.032 5.7-1.973 8.48-2.883l9.9-3.36c.285-.585.278-1.28.243-1.997-.133-2.76-.44-4.82-.995-6.674-.684-2.287-1.792-4.253-3.207-5.694l-1.12.6c-10.6 6.528-19.737 10.33-30.577 12.705-1.72.377-3.686.696-5.23-.3-1.16-.75-1.908-2.23-2.002-3.96-.186-3.4 1.868-6.5 3.9-9.05 4.528-5.702 10.405-11.092 16.995-15.588.076-.052.18-.032.232.044s.032.18-.044.232c-6.562 4.477-12.414 9.844-16.92 15.52-1.994 2.5-4 5.523-3.83 8.823.088 1.625.78 3.007 1.85 3.7 1.435.928 3.32.618 4.977.256 10.8-2.368 19.918-6.156 30.483-12.67l1.238-.653c.064-.034.143-.023.195.03 1.496 1.487 2.664 3.535 3.377 5.922.563 1.882.874 3.965 1.008 6.754.038.8.043 1.556-.3 2.227-.02.038-.054.066-.094.08l-1.48.502c-2.8 1.03-5.687 1.972-8.478 2.882l-8.47 2.88c-5.06 1.863-10.294 3.8-15.704 4.767-2.42.437-4.74.655-6.952.655z"/><path d="M120.314 140.386c-.08 0-.15-.057-.164-.14l-4.63-27.084c-.016-.09.046-.177.136-.192s.177.045.192.136l4.63 27.084c.016.09-.046.177-.136.192-.01.002-.02.002-.028.002z"/><path d="M116.772 119.518c-.1-.01-.176-.094-.166-.185.1-.802.13-1.828.273-6.864.002-.092.08-.16.17-.162s.165.08.162.17l-.275 6.9c-.01.085-.082.148-.166.148zm-20.357 28.68a.18.18 0 0 1-.07-.015c-2.053-.927-3.386-3.3-3.103-5.546.012-.1.096-.155.186-.144s.156.095.144.186c-.266 2.095.984 4.33 2.9 5.2.084.038.12.137.083.22-.028.062-.088.098-.152.098zm66.508 2.065c-.012 0-.024-.001-.036-.004a.16.16 0 0 1-.128-.198c2.934-13.53 3.657-24.347 2.278-34.045-.013-.1.05-.176.142-.2s.176.05.2.142c1.385 9.738.66 20.594-2.282 34.163-.017.078-.086.13-.163.13zm-23.077 6.588c-3.7 0-7.337-.24-10.857-1.06-1.764-.4-4.008-1.08-5.716-2.606l-.462-.405c-.045-.04-.065-.1-.053-.16s.055-.107.112-.125l3.945-1.283a.16.16 0 0 1 .14.018l.557.35c2.497 1.22 5.366 1.598 8.095 1.823 8.84.73 17.717.16 26.4-1.697a.16.16 0 0 1 .198.128c.018.1-.038.18-.128.198a90.79 90.79 0 0 1-26.487 1.704c-2.764-.228-5.674-.612-8.222-1.86l-.514-.323-3.592 1.168.243.213c1.653 1.478 3.845 2.13 5.57 2.53 5.403 1.26 11.085 1.14 16.916.892 5.537-.236 10.93-.567 16.038-2.016.088-.025.18.026.206.115s-.026.18-.115.206c-5.143 1.458-10.557 1.8-16.114 2.028-2.07.088-4.122.16-6.15.16zm57.194 5.34a2.47 2.47 0 0 1-.342-.023c-.1-.013-.155-.097-.142-.188s.097-.155.188-.142c1.063.147 2.584-.554 3.13-1.444.486-.792.715-1.794.72-3.154.02-4.876-2.503-9.398-5.315-13.986-7.994-13.044-16.935-26.803-25.173-38.744-.052-.076-.033-.18.042-.232s.18-.033.232.043c8.242 11.946 17.186 25.7 25.183 38.76 2.838 4.63 5.384 9.198 5.364 14.16-.006 1.424-.25 2.48-.77 3.327-.56.9-1.97 1.623-3.118 1.623zm-72.5-60.788s6.336-8.033 9.052-7.58 12.652 13.63 12.652 13.63-9.823-7.293-14.123-6.84l-7.58.792z"/><path d="M146.254 107.45s5.964-6.457 8.184-6.996l4.258-1.08s-2.52-1.8-3.66-1.5-1.32.48-1.32.48l.06-.84-1.26 1.32s.12-.9.3-1.2.24-.54.24-.54-3.42 2.82-4.02 4.558-2.7 5.578-2.7 5.578l-.086.22z"/><path d="M149.475 103.908c1.167-1.4-1.283-.583-1.283-.583l-1.937 4.126-4.13-5.176c-1.867-2.45-3.967 0-3.967 0s5.393 5.393 7.286 8.332c.323.502 1.077.43 1.306-.12l2.725-6.578z"/></g><circle cx="146.207" cy="115.245" r=".967" class="Lw"/><path d="M146.206 116.295c-.12 0-.242-.02-.362-.064a1.05 1.05 0 1 1 .725-1.971 1.05 1.05 0 0 1-.364 2.035zm.002-1.933c-.36 0-.698.22-.83.578-.168.457.067.966.524 1.134a.88.88 0 0 0 .675-.027c.214-.1.377-.275.458-.497h0c.168-.457-.067-.966-.524-1.134a.88.88 0 0 0-.304-.054z" class="Lv"/><path d="M146.45 114.882l-.475.726" class="Lw"/><path d="M145.907 115.572l.475-.726.14.09-.475.726z" class="Lv"/><path d="M145.835 115.03l.754.43" class="Lw"/><path d="M145.8 115.1l.083-.145.753.43-.083.145z" class="Lv"/><circle cx="146.207" cy="124.614" r=".967" class="Lw"/><path d="M146.208 125.664a1.05 1.05 0 0 1-.363-.065c-.263-.097-.473-.3-.59-.545s-.13-.54-.032-.803a1.05 1.05 0 0 1 1.971.725c-.097.263-.3.473-.545.59a1.05 1.05 0 0 1-.44.097zm0-1.934c-.36 0-.698.22-.83.578-.08.22-.072.46.027.675s.275.377.497.46a.88.88 0 0 0 .675-.027c.214-.1.377-.275.458-.497h0c.168-.457-.067-.966-.524-1.134a.88.88 0 0 0-.304-.054z" class="Lv"/><path d="M146.45 124.25l-.475.726" class="Lw"/><path d="M145.907 124.942l.475-.727.14.09-.475.727z" class="Lv"/><path d="M145.835 124.4l.754.43" class="Lw"/><path d="M145.796 124.48l.083-.145.753.43-.083.145z" class="Lv"/><circle cx="145.602" cy="149.017" r=".967" class="Lw"/><path d="M145.6 150.067a1.04 1.04 0 0 1-.362-.065c-.263-.097-.473-.3-.6-.545s-.13-.54-.032-.803.3-.473.545-.59a1.04 1.04 0 0 1 .803-.032 1.05 1.05 0 0 1 .623 1.348h0a1.05 1.05 0 0 1-.986.687zm.001-1.934a.88.88 0 0 0-.37.082c-.214.1-.377.275-.458.497-.168.457.067.966.524 1.134s.966-.067 1.134-.524h0c.168-.457-.067-.966-.524-1.134-.1-.037-.202-.055-.305-.055z" class="Lv"/><path d="M145.845 148.655l-.475.726" class="Lw"/><path d="M145.3 149.346l.475-.727.14.09-.475.727z" class="Lv"/><path d="M145.23 148.802l.753.43" class="Lw"/><g class="Lv"><path d="M145.2 148.86l.083-.145.754.43-.083.145zm50.43 35.425c-.083 0-.155-.062-.165-.146-.01-.1.054-.175.145-.186 7.593-.935 14.33-4.717 18.484-10.375 4.554-6.205 5.336-14.536 1.946-20.73-1.693-3.093-4.726-5.678-8.322-7.1-3.703-1.454-7.525-1.537-10.764-.232-.085.034-.183-.007-.217-.092s.007-.183.092-.217c3.318-1.337 7.23-1.254 11 .23 3.667 1.44 6.763 4.08 8.493 7.24 3.452 6.306 2.66 14.78-1.97 21.088-4.208 5.732-11.028 9.562-18.712 10.508-.007.001-.014.001-.02.001zm16.495-13.362a2.59 2.59 0 0 1-1.274-.331c-.8-.46-1.326-1.358-1.313-2.3.001-.1.076-.165.167-.165a.17.17 0 0 1 .167.17c-.01.8.448 1.6 1.144 1.994a2.32 2.32 0 0 0 2.3-.045c.078-.048.18-.024.23.054s.024.18-.054.23a2.6 2.6 0 0 1-1.364.382zm-47.487 7.003c-.045 0-.1-.018-.123-.055-.062-.068-.057-.174.01-.236 5.393-4.906 14.298-10.342 22.158-13.527.085-.035.183.006.217.092s-.006.183-.092.217c-7.827 3.172-16.692 8.583-22.06 13.465-.032.03-.072.043-.112.043z"/><path d="M200.718 158.537c-.073 0-.14-.048-.16-.122-.025-.1.028-.18.116-.205l7.572-2.136c.088-.024.18.027.205.116s-.028.18-.116.205l-7.572 2.136c-.015.004-.03.006-.045.006zM169.24 188.6c-.1 0-.163-.07-.167-.16-.004-.084.056-.157.137-.172.363-.376.125-4.956-.078-5.668-.552-1.94-2.137-3.1-3.615-4l-.855-.515c-3.662-2.207-7.448-4.488-11.414-6.34a67 67 0 0 0-12.395-4.353 69.11 69.11 0 0 0-26.145-1.27c-5.186.756-10.217 2.114-14.953 4.038-.086.035-.183-.006-.217-.092s.006-.183.092-.217a64.79 64.79 0 0 1 15.03-4.06c8.638-1.258 17.724-.817 26.273 1.276a67.27 67.27 0 0 1 12.457 4.375c3.982 1.86 7.776 4.146 11.445 6.357l.855.515c.915.55 1.87 1.207 2.616 2.083 1.518-1.44 3.03-2.44 4.495-2.97 1.656-.6 3.335-.53 4.605.195.845.482 1.48 1.23 2.096 1.95.46.54.936 1.098 1.5 1.533 1.897 1.487 4.522 1.496 7.274 1.368 2.7-.124 5.484-.1 7.47 1.522.035.03.057.07.06.116s-.012.1-.042.124c-1.844 2.054-4.66 3.27-8.865 3.826-3.67.485-7.433.47-11.072.456-2.156-.008-4.386-.017-6.572.078h-.001zm-.725-7.943a5.51 5.51 0 0 1 .938 1.852c.133.466.48 4.593.123 5.743 2.083-.08 4.197-.072 6.245-.065 3.63.014 7.38.03 11.027-.453 4.03-.533 6.75-1.675 8.54-3.588-1.888-1.448-4.542-1.456-7.106-1.337-2.815.13-5.508.12-7.495-1.44-.582-.456-1.068-1.027-1.54-1.58-.624-.732-1.214-1.424-2.008-1.878-1.185-.676-2.76-.74-4.326-.17-1.422.516-2.897 1.492-4.382 2.9-.005.005-.01.01-.017.014z"/><path d="M101.02 189.933c-4.17 0-8.235-.116-12.136-.397-.092-.006-.16-.086-.154-.178s.086-.164.178-.154c13.43.966 28.832-.023 43.727-.98l19.82-1.1c5.24-.183 11.182-.4 16.827 1.128.1.024.142.115.118.204s-.115.142-.204.118c-5.597-1.505-11.5-1.3-16.73-1.117-6.25.218-12.837.64-19.8 1.1-10.584.68-21.425 1.376-31.637 1.376zM77.5 159.617c-.014 0-.028-.002-.043-.006-.1-.024-.142-.115-.118-.204.705-2.657 2.813-4.478 4.457-5.537.078-.05.18-.027.23.05s.028.18-.05.23c-1.594 1.027-3.637 2.788-4.315 5.342-.02.075-.087.124-.16.124zm30.326 7.743c-.018 0-.037-.003-.055-.01a16.7 16.7 0 0 0-7.161-.855c-.093.01-.174-.058-.183-.15s.058-.173.15-.183c2.453-.246 4.98.055 7.305.873.087.03.133.126.102.213-.024.07-.1.112-.157.112zm-74.75-5.32c-.086 0-.16-.067-.166-.154s.062-.172.154-.18c10.737-.812 21.687-.735 32.276-.662 9.647.067 19.623.137 29.408-.466.094-.005.17.064.177.156s-.064.17-.156.177c-9.796.603-19.777.534-29.43.466-10.583-.073-21.525-.15-32.25.66z"/><path d="M40.156 167.495c-1.614 0-3.36-.086-4.88-.867-1.697-.87-3.042-2.908-2.356-4.813.03-.087.127-.132.214-.1s.132.127.1.213c-.48 1.33.223 3.392 2.194 4.403 1.67.856 3.66.84 5.417.826l11.236-.096 33.457-.758c1.802-.085 3.844-.182 5.617-1.03 1.732-.83 3.525-2.696 3.436-4.522-.004-.092.067-.17.16-.175s.17.066.175.16c.097 1.99-1.75 3.94-3.626 4.84-1.834.878-4.002.98-5.745 1.063-10.92.516-21.62.648-33.47.758l-11.927.1z"/><path d="M49.338 186.3c-.092 0-.167-.075-.167-.167V167.25c0-.092.075-.167.167-.167s.167.075.167.167v18.894c0 .092-.075.167-.167.167zM34.8 175.82c-.092 0-.166-.074-.167-.166l-.038-9.47c0-.092.074-.167.166-.167s.167.074.168.166l.038 9.47c0 .092-.074.167-.166.167zm54.88 13.717H59.095c-.092 0-.167-.075-.167-.167s.075-.167.167-.167H89.68c.93 0 1.807-.363 2.466-1.022a3.46 3.46 0 0 0 1.02-2.466v-21.75c0-.092.075-.167.167-.167s.167.075.167.167v21.75c0 1.02-.397 1.98-1.12 2.702s-1.68 1.12-2.7 1.12zM81.445 164.6h2.874v4.418h-2.874zm-21.138 0h2.874v4.418h-2.874zm-27.45-1.48c-.05 0-.1-.022-.132-.064-3.22-4.12-6.65-9.1-10.487-15.224l-1.96-3.127c-.5-.784-1.102-1.76-1.163-2.827-.06-1.058.6-2.28 1.708-2.414.066-.01.13.024.164.08a483.48 483.48 0 0 1 12.236 22.252c.042.082.01.182-.072.225s-.182.01-.225-.072c-3.932-7.612-8.14-15.264-12.17-22.138-.848.176-1.36 1.175-1.3 2.047.056.983.618 1.88 1.113 2.67l1.96 3.127c3.83 6.113 7.253 11.084 10.467 15.196.057.073.044.178-.03.234-.03.024-.067.035-.103.035z"/><path d="M20.844 139.794c-.087 0-.16-.068-.166-.155s.063-.172.155-.178c14.102-.946 28.626-.587 43.506-.1.092.003.164.08.16.172s-.08.17-.172.16c-14.87-.487-29.386-.846-43.473.1z"/><path d="M78.344 161.226c-.057 0-.113-.03-.144-.083a282.74 282.74 0 0 0-13.832-21.387c-.053-.075-.036-.18.04-.233s.18-.036.233.04a283.07 283.07 0 0 1 13.849 21.412c.046.08.02.182-.06.228-.026.016-.055.023-.084.023z"/><path d="M59.17 148.656c-.026 0-.052-.006-.077-.02-.082-.042-.114-.143-.07-.225a118.71 118.71 0 0 1 5.17-8.974c.05-.077.152-.1.23-.05s.1.153.05.23c-1.84 2.894-3.575 5.905-5.155 8.95-.03.057-.088.1-.148.1z"/><path d="M42.056 149.416c-4.876 0-10.12-.115-15.868-.344-.092-.004-.164-.08-.16-.173s.08-.164.173-.16c12.96.517 23.36.452 32.73-.202.092-.005.172.063.178.155s-.063.172-.155.178c-5.225.365-10.77.546-16.897.546z"/><path d="M67.146 161.32a.17.17 0 0 1-.14-.075l-7.992-12.53c-.05-.077-.03-.18.048-.23s.18-.03.23.048l7.992 12.53c.05.077.03.18-.048.23-.028.018-.06.027-.1.027zm-38.023 2.506c-4.542 0-9.103-2.262-11.398-5.972-3.088-5-2.515-12.026 1.303-16.015.064-.066.17-.07.236-.005s.07.17.005.236c-3.718 3.885-4.272 10.74-1.26 15.6 2.87 4.64 9.382 6.953 14.824 5.265.088-.027.18.022.2.1s-.022.18-.1.2c-1.233.382-2.52.564-3.808.564zM77.848 23.66c-.092 0-.167-.075-.167-.167v-6.6c0-.092.075-.167.167-.167s.167.075.167.167v6.6c0 .092-.075.167-.167.167zm-22.335 86.356c7.23.82 15.393 1.06 22.564-.172l-.066-3.15c-7.217.913-15.273.95-22.5.13l.002 3.2z"/><path d="M43.296 139.2c-.055 0-.1-.027-.14-.077-.05-.077-.027-.18.05-.23l7.877-5.068c2.662-1.713 4.25-4.625 4.25-7.8v-19.762a4.77 4.77 0 0 1 4.761-4.761H73.47a4.77 4.77 0 0 1 4.761 4.761v19.755c0 3.17 1.593 6.083 4.26 7.795.078.05.1.153.05.23s-.153.1-.23.05c-2.764-1.774-4.413-4.792-4.413-8.076v-19.755c0-2.442-1.986-4.428-4.428-4.428H60.095c-2.44 0-4.428 1.986-4.428 4.428v19.762c0 3.28-1.646 6.296-4.404 8.07l-7.877 5.068c-.028.018-.06.027-.1.027zm16.84-20.464c-.025 0-.05-.005-.074-.017-.083-.04-.117-.14-.076-.223a28.72 28.72 0 0 1 1.69-2.963c.05-.077.154-.1.23-.05s.1.154.048.23c-.612.94-1.174 1.924-1.67 2.928-.03.06-.088.093-.15.093zm8.08 3.038c-.038 0-.077-.013-.1-.04a4.4 4.4 0 0 0-2.43-1.037c-.092-.01-.16-.1-.15-.182s.1-.16.182-.15c.958.092 1.887.5 2.616 1.117.07.06.078.165.017.235-.033.038-.08.058-.126.058zm4.365-5.194c-.066 0-.13-.04-.155-.105-.034-.086.008-.183.093-.217a10.16 10.16 0 0 0 2.105-1.142c.075-.053.18-.035.232.04s.035.18-.04.232a10.49 10.49 0 0 1-2.174 1.179.16.16 0 0 1-.06.012zm2.216 11.047c-.078 0-.148-.055-.163-.135l-.523-2.68c-.018-.1.04-.178.132-.196s.178.04.196.132l.523 2.68c.018.1-.04.178-.132.196-.01.002-.022.003-.032.003zM64.453 129.7c-.06 0-.12-.033-.148-.1-.042-.082-.01-.182.072-.225l2.796-1.44c.082-.043.183-.01.225.072s.01.182-.072.225l-2.796 1.44a.16.16 0 0 1-.076.02zm-4.623 3.116c-.054 0-.106-.026-.14-.073l-1.873-2.776a.17.17 0 0 1 .045-.232c.075-.052.18-.03.23.045l1.873 2.776a.17.17 0 0 1-.045.232c-.028.02-.06.03-.093.03zm-6.235 4.1c-.025 0-.05-.006-.075-.018-.082-.042-.115-.142-.074-.224a15.13 15.13 0 0 1 1.508-2.395c.056-.073.16-.087.234-.03s.087.16.03.234a14.79 14.79 0 0 0-1.475 2.343c-.03.058-.088.1-.15.1zm14.075 1.746a11.55 11.55 0 0 1-.527-.012c-.092-.004-.163-.082-.16-.174s.084-.163.174-.16a11.18 11.18 0 0 0 2.88-.242.16.16 0 0 1 .198.128c.018.1-.038.18-.128.198a11.53 11.53 0 0 1-2.439.261zm5.416-2.405c-.008 0-.016 0-.024-.002-.1-.013-.154-.098-.14-.2a12.55 12.55 0 0 0 .096-2.749c-.007-.092.062-.172.154-.18s.172.062.18.154a12.92 12.92 0 0 1-.098 2.823c-.012.083-.084.143-.165.143zm.034 8.628c-.05 0-.1-.022-.132-.065-.056-.073-.043-.178.03-.234a5.76 5.76 0 0 1 2.199-1.049c.1-.02.18.035.2.124s-.035.18-.124.2c-.748.175-1.464.517-2.07.987-.03.024-.066.035-.102.035zm6.782-7.45c-.032 0-.064-.01-.092-.028l-2.148-1.42c-.077-.05-.098-.154-.047-.23s.154-.098.23-.047l2.148 1.42c.077.05.098.154.047.23-.032.05-.085.075-.14.075zM78 154.56a.18.18 0 0 1-.028-.002c-.1-.016-.152-.102-.136-.192l.45-2.645a.17.17 0 0 1 .192-.137c.1.013.152.102.136.192l-.45 2.645c-.014.08-.084.14-.164.14zm-2.36-4.04c-.007 0-.015 0-.022-.001a10.44 10.44 0 0 0-2.228-.054c-.093.006-.172-.06-.18-.153s.06-.172.153-.18c.765-.063 1.538-.044 2.3.056.1.012.156.096.144.187-.01.084-.083.145-.165.145z"/></g><g class="Lx"><circle cx="56.622" cy="71.878" r="1.388"/><circle cx="64.532" cy="78.401" r="1.388"/><circle cx="57.455" cy="87.004" r="1.388"/></g><g class="Lv"><path d="M64.14 101.823c-.1 0-.164-.072-.167-.162-.275-10.065-2.887-20.543-7.355-29.504-.04-.082-.008-.183.075-.224s.183-.007.224.075c4.49 9.003 7.113 19.53 7.4 29.644.002.092-.07.17-.162.17z"/><path d="M66.533 101.74c-.08 0-.152-.06-.165-.142-.878-5.77-4.185-11.235-8.63-14.258-.076-.052-.096-.156-.044-.232s.156-.096.232-.044c4.52 3.074 7.88 8.624 8.773 14.484.014.1-.05.176-.14.2a.21.21 0 0 1-.025.002zm.46 0c-.088 0-.162-.07-.166-.16l-.203-4.6c-.296-6-.603-12.203-2.036-18.142a.16.16 0 0 1 .123-.2c.09-.02.18.033.2.123 1.44 5.97 1.748 12.2 2.045 18.203l.203 4.6c.004.092-.066.17-.158.175z"/></g><path d="M175.683 134.02c-.106-.087-.048-.257.09-.263 1.98-.08 8.227-.018 8.758-4.844.47-4.266-13.205-3.716-13.205-3.716l.585 7.405-3.313.974v2.533s-1.754 1.95-.974 3.118 4.287-.585 3.118 3.313-2.338-.4-2.923.974.585 2.144-.78 2.533-.974-.585-1.95 2.144-3.702.974-3.702.974-2.338 5.846-2.728 9.16-.134 5.883-.134 5.883l2.516-2.782.18 1.748.628.923s1.988-3.313 3.287-3.73c1.402-.45 1.584-.45 2.487-2.433.523-1.146.565-2.734.726-3.735.125-.78.665-1.07.665-1.07s.443-2.03 1.338-2.405c1.807-.754 3.077 1.625 4.247-.324s1.064-2.49 1.99-2.794c2.374-.782 1.006-3.186-.242-4.197-1.637-1.327-2-1.185-1.122-2.818 1.117-2.1 2.23-3.638 1.452-5.197-.377-.753-.728-1.158-.99-1.374z" class="Lx"/><g class="Lv"><path d="M177.442 143.686c-1.055 0-2.57-.703-2.81-1.554-.183-.65.264-1.3.696-1.948.233-.345.453-.67.56-.97l.167-.454c.265-.712.54-1.447.572-2.2.05-1.117-.465-2.242-1.342-2.936-.057-.045-.078-.12-.053-.19s.093-.114.163-.108a20.71 20.71 0 0 0 5.022-.404c.62-.127 1.274-.29 1.842-.624.832-.488 1.267-1.444 1.688-2.37l.423-.887c.043-.082.143-.113.225-.07s.113.144.07.225l-.415.87c-.442.972-.9 1.978-1.823 2.52-.61.357-1.294.53-1.944.663a20.97 20.97 0 0 1-4.646.424c.746.76 1.168 1.834 1.122 2.9-.035.804-.32 1.565-.593 2.3l-.165.45c-.122.34-.354.683-.6 1.046-.39.575-.792 1.17-.65 1.67.223.793 1.974 1.483 2.833 1.274.32-.078.61-.284.893-.484l.062-.044c.808-.57 1.883-1.207 3.042-1.054.244.032.48.1.708.163.27.076.524.148.786.166 1.138.08 2.094-.86 2.896-1.746.062-.068.167-.073.236-.012s.073.167.012.236c-.855.943-1.878 1.942-3.166 1.855-.297-.02-.58-.1-.855-.177l-.66-.153c-1.046-.135-2.05.46-2.807.996l-.06.044c-.307.218-.625.443-1.007.536-.128.03-.27.046-.424.046z"/><path d="M183.064 142.235a.17.17 0 0 1-.046-.006c-.088-.026-.14-.118-.114-.207.212-.732.393-1.9.3-2.765-.01-.1.054-.175.145-.186s.175.054.186.145c.1.9-.078 2.134-.3 2.898-.02.073-.088.12-.16.12zm-11.747 14.19c-.428-.006-.834-.225-1.258-.67-.896-.94-1.325-2.142-1.146-3.2.2-1.256 1.36-2.238 2.5-2.148.375.03.737.16 1.087.284.516.184 1.004.357 1.466.197.383-.133.505-.535.647-1l.223-.623.173-.413c.215-.546.458-1.165 1.115-1.196.122-.006.494-.118.947-.285.14-.052.4-.332.504-.517.464-.815-.064-1.512-.675-2.32l-.7-1.033c-.045-.08-.016-.182.064-.227s.182-.016.227.064c.193.347.443.676.684.994.625.825 1.272 1.68.7 2.685-.104.183-.4.566-.678.665-.297.1-.827.295-1.047.306-.4.02-.584.385-.82.985l-.182.434c-.084.177-.146.38-.206.577-.154.506-.314 1.03-.857 1.217-.574.2-1.14-.003-1.687-.198-.33-.118-.67-.24-1-.266-1.083-.086-1.992.897-2.154 1.87-.16.966.235 2.06 1.06 2.926.36.377.687.563 1.005.567.375 0 .7-.228 1.026-.47l.552-.36c.496-.26 1.052-.3 1.6-.362l.455-.048c.564-.07 1.3-.274 1.605-.837.044-.08.145-.112.226-.067s.1.145.067.226c-.294.544-.936.893-1.856 1l-.465.05c-.53.05-1.03.097-1.466.326a4.34 4.34 0 0 0-.511.334c-.363.262-.74.534-1.2.534z"/><path d="M174.105 160.92c-.056 0-.1-.03-.143-.08-.048-.08-.023-.18.056-.23.34-.207.244-.708.082-1.342l-.025-.1c-.076-.303-.1-.615-.145-.916-.042-.38-.082-.737-.198-1.08-.182-.542-1.264-.96-1.86-.836a.16.16 0 0 1-.197-.13c-.017-.1.04-.18.13-.197.753-.16 2 .335 2.244 1.056.126.376.17.768.213 1.148l.137.872.025.097c.146.573.345 1.357-.232 1.7a.17.17 0 0 1-.087.024zm-7.13 8.42c-1.598 0-3.095-.757-4.15-1.47-.72-.488-1.4-1.05-2.058-1.592l-2.278-1.735c-.037-.024-.064-.062-.073-.105s-.001-.1.023-.126a17.25 17.25 0 0 1 2.487-3.005c.05-.048.124-.06.186-.03s.1.094.095.163a4.1 4.1 0 0 0 .583 2.397 7.49 7.49 0 0 1 3.722-3.839l.28-.125c.4-.175.78-.34 1.064-.628.397-.4.544-.96.698-1.554l.276-.902c.115-.287.195-.935.273-1.562.157-1.274.272-2.06.622-2.18.085-.03.22-.034.367.114.065.065.065.17 0 .236s-.17.065-.236 0a.23.23 0 0 0-.032-.027c-.175.15-.3 1.24-.4 1.9-.084.678-.163 1.318-.294 1.645-.1.272-.187.572-.263.862-.16.6-.324 1.24-.784 1.705-.33.332-.755.518-1.167.698l-.275.123a7.15 7.15 0 0 0-3.668 3.952c-.022.058-.073.1-.134.107a.17.17 0 0 1-.157-.067 4.44 4.44 0 0 1-.827-2.457 16.86 16.86 0 0 0-2.056 2.52c.764.506 1.477 1.095 2.168 1.666l2.033 1.573c1.246.843 3.128 1.75 5.014 1.3.9-.222 1.722-.742 2.54-1.3 3.663-2.495 7.3-5.452 11.086-9.04 2.958-2.796 5.917-5.9 7.523-9.733 1.362-3.242 1.274-6.436-.236-8.543-.52-.727-1.23-1.378-1.918-2.007-1.28-1.173-2.606-2.386-2.705-4.128-.036-.628.08-1.3.195-1.947.192-1.102.374-2.144-.133-2.977-.048-.08-.023-.18.056-.23s.18-.023.23.056c.572.94.37 2.093.177 3.208-.1.63-.224 1.28-.2 1.87.1 1.607 1.3 2.72 2.597 3.9.7.64 1.423 1.303 1.964 2.06 1.577 2.203 1.68 5.518.272 8.867-1.63 3.88-4.617 7.025-7.6 9.846-3.8 3.6-7.448 6.567-11.127 9.072-.846.576-1.685 1.113-2.65 1.35a4.74 4.74 0 0 1-1.13.134zm1.84-15.98h0z"/><path d="M166 165.745c-.364 0-.63-.322-.697-.635s.016-.628.083-.883l.635-2.412c.06-.222.104-.435.023-.593-.11-.21-.382-.252-.698-.3l-.43-.085c-.088-.026-.14-.12-.113-.207s.12-.14.207-.113c.116.035.247.054.384.075.355.054.758.114.945.476.136.263.076.555.003.832l-.635 2.412c-.06.232-.13.495-.08.728.04.186.2.386.386.37.084-.004.18-.047.282-.092.177-.08.397-.177.62-.06.082.042.113.143.07.225s-.143.113-.225.07c-.076-.04-.175.001-.33.07-.12.053-.253.113-.4.12l-.033.001z"/></g><path d="M158.525 164.207c-1.253.15-2.408.442-3.474 1.117 1.327 1.966 3.294 3.432 5.412 4.5s4.398 1.768 6.666 2.464c.568.174 1.323.284 1.634-.222.17-.277.12-.632.037-.946-.18-.677-.5-1.318-.91-1.878 0 0-2.567.086-4.972-1.51s-4.393-3.524-4.393-3.524z" class="Lw"/><path d="M167.964 172.6a3.05 3.05 0 0 1-.883-.153c-2.24-.687-4.557-1.396-6.693-2.474-2.415-1.218-4.257-2.75-5.475-4.556-.025-.037-.034-.083-.025-.127s.036-.083.074-.107c.965-.61 2.058-.963 3.543-1.142.05-.006.1.01.136.046.02.02 2.006 1.934 4.37 3.504 2.333 1.55 4.85 1.484 4.874 1.484.056-.002.106.023.14.066a5.67 5.67 0 0 1 .939 1.935c.078.295.157.727-.056 1.075-.14.226-.41.448-.942.448zm-12.676-7.226c1.186 1.695 2.952 3.142 5.25 4.3 2.11 1.065 4.413 1.77 6.64 2.453.52.16 1.2.262 1.443-.15.147-.24.08-.58.018-.816-.166-.625-.453-1.23-.833-1.752a9.49 9.49 0 0 1-4.981-1.54c-2.163-1.437-4.012-3.16-4.358-3.487-1.32.166-2.3.475-3.18.992z" class="Lv"/><path d="M180.92 152.104s2.037 1.43 4.624 1.706 4.35-.055 4.35-.055l-9.637 7.99-.325-.94.03-.952.96-7.75z" fill="#fdfeff"/><g class="Lv"><path d="M191.324 164.693c-.77 0-1.59-.06-2.474-.126l-1.127-.08c-.71-.045-2.433-.3-4.045-.758-2.143-.595-3.46-1.312-3.91-2.13-.24-.438-.233-.898.024-1.365.044-.08.145-.11.226-.066s.1.146.066.226c-.2.367-.21.708-.024 1.044.937 1.705 6.377 2.633 7.683 2.717l1.13.08c3.358.247 5.576.41 7.714-2.334 2.42-3.108 2.018-8-.877-10.66-1.424-1.313-3.47-2.193-5.916-2.545-.09-.013-.154-.098-.14-.19s.096-.154.19-.14c2.513.36 4.62 1.27 6.095 2.63 3.018 2.783 3.437 7.87.915 11.11-1.652 2.12-3.394 2.587-5.527 2.587z"/><path d="M188.635 162.442c-2.595 0-5.384-.59-7.9-1.673-.446-.192-.872-.392-1.196-.73-.393-.41-.532-.964-.356-1.41.238-.6.933-.816 1.475-.763.484.047.92.258 1.343.462l.178.085c2.775 1.316 6.05 1.55 8.984.643.088-.027.18.022.208.1s-.022.18-.1.208a12.89 12.89 0 0 1-9.225-.661l-.18-.087c-.396-.19-.805-.39-1.23-.43-.437-.04-.967.135-1.133.554-.146.368.04.795.287 1.055.28.294.658.47 1.087.655 2.597 1.12 5.49 1.703 8.143 1.642.094 0 .17.072.17.163s-.07.168-.163.17l-.383.004z"/><path d="M179.54 158.255c-.05 0-.098-.022-.13-.063-.548-.688-.833-1.324-.87-1.944-.043-.704.312-1.558 1.074-1.83.483-.172 1.076-.084 1.67.247.256.143.495.315.725.482l.606.41c.524.312 1.144.526 2 .695 2.216.433 4.526.304 6.68-.373.088-.028.18.022.21.11s-.02.18-.11.21a13.97 13.97 0 0 1-6.844.382c-.905-.177-1.557-.404-2.116-.736-.22-.13-.43-.282-.63-.428l-.692-.46c-.295-.165-.868-.413-1.395-.224-.6.214-.888.93-.853 1.495.034.55.295 1.124.8 1.757.057.072.046.177-.027.234-.03.024-.067.036-.104.036z"/><path d="M179.736 154.67c-.06 0-.117-.032-.147-.088-.235-.44-.478-1.102-.304-1.76.155-.587.746-1.158 1.43-1.06.3.043.55.202.79.354l.048.03c3.35 2.116 7.916 2.22 11.36.255.08-.046.182-.018.228.062s.018.182-.062.228c-3.547 2.022-8.25 1.916-11.702-.263l-.05-.03c-.22-.14-.43-.273-.66-.306-.487-.07-.94.364-1.058.814-.146.552.07 1.13.276 1.517.043.08.013.182-.07.226-.025.013-.052.02-.08.02z"/><path d="M190.538 153.444c-.072 0-.138-.047-.16-.12a3.35 3.35 0 0 0-2.011-2.149c-.087-.032-.13-.128-.1-.214s.128-.13.214-.1a3.69 3.69 0 0 1 2.215 2.366c.026.088-.024.18-.113.207-.016.005-.032.007-.047.007zM7.4 194.382c-.24 0-.5-.044-.743-.095-.395-.08-.803-.162-1.18-.358-.436-.228-.742-.585-.84-.98a.17.17 0 0 1 .11-.2c1.06-.342 2.174-.443 3.253-.54l5.14-.465c.092-.01.173.06.18.15s-.06.173-.15.18l-4.305.4c-.062.694-.2 1.442-.814 1.766a1.48 1.48 0 0 1-.654.15zm-2.387-1.365c.108.244.327.463.62.616.333.174.718.252 1.1.327.433.088.85.152 1.173-.022.45-.24.574-.828.633-1.44l-.498.045c-1.004.1-2.04.185-3.018.475z"/><path d="M17.43 194.032a102.56 102.56 0 0 1-2.809-.038l-1.285.01c-.09 0-.16-.067-.168-.155l-.357-5.82c-.007-.092.062-.172.154-.18l1.08-.082 2.765-.296c-.37-2.72.267-5.685 1.8-8.367 1.798-3.145 4.573-5.208 7.423-5.516 2.838-.307 5.88 1.13 7.75 3.666 1.645 2.23 2.43 5.232 2.206 8.453-.143 2.068-.7 3.712-1.653 4.886-1.812 2.232-4.863 2.784-7.9 3.048l-9.017.39zm-2.807-.372c3.922.107 7.9-.01 11.795-.35 2.954-.257 5.927-.8 7.66-2.926.91-1.12 1.44-2.702 1.58-4.7.218-3.142-.543-6.065-2.14-8.232-1.8-2.44-4.723-3.826-7.447-3.532-2.744.297-5.424 2.297-7.17 5.35-1.53 2.674-2.145 5.63-1.735 8.324.007.045-.005.09-.033.127s-.07.06-.114.064l-2.942.315-.92.07.334 5.5 1.132-.008z"/><path d="M32.517 191.98c1.992-.378 3.03-1.582 4.043-3.34 3.5-6.068-.23-15.752-8.163-14.74 0 0 5.487.87 7.086 7.5s-1.522 9.284-1.522 9.284l-1.443 1.304z"/><path d="M57.677 192.03h-24.83c-.092 0-.167-.075-.167-.167s.075-.167.167-.167h24.83a1.04 1.04 0 0 0 1.04-1.04v-3.14a1.04 1.04 0 0 0-1.038-1.04l-20.043-.033c-.092 0-.167-.075-.167-.167s.075-.167.167-.167l20.043.033c.756.001 1.37.617 1.37 1.374v3.14c0 .757-.616 1.373-1.373 1.373z"/><use xlink:href="#C"/><use xlink:href="#C" x="10.074"/><use xlink:href="#D"/><use xlink:href="#D" x="-4.03"/><use xlink:href="#D" x="10.076"/><use xlink:href="#D" x="12.09"/><use xlink:href="#D" x="14.106"/><use xlink:href="#D" x="16.12"/><use xlink:href="#D" x="2.016"/><use xlink:href="#D" x="4.03"/><use xlink:href="#D" x="6.046"/><path d="M26.467 189.538c-3.048 0-5.528-2.48-5.528-5.528s2.48-5.528 5.528-5.528 5.528 2.48 5.528 5.528-2.48 5.528-5.528 5.528zm0-10.723a5.2 5.2 0 0 0-5.195 5.195c0 2.864 2.33 5.195 5.195 5.195s5.195-2.33 5.195-5.195a5.2 5.2 0 0 0-5.195-5.195z"/><circle cx="26.467" cy="184.01" r="2.645"/><path d="M170.24 133.16c-.053 0-.105-.025-.137-.072-.82-1.2-2.475-3.428-4.33-5.034-.07-.06-.077-.166-.017-.235s.166-.077.235-.017c1.883 1.63 3.556 3.894 4.386 5.097.052.076.033.18-.043.232-.03.02-.062.03-.095.03z"/></g><defs><path id="A" d="M59.6 46.667c-.032 0-.065-.01-.094-.03-.076-.052-.096-.156-.044-.232 1.488-2.185 1.734-5.22 1.47-7.332-.23-1.836-.77-3.65-1.294-5.403l-.505-1.728c-1.4-5.003-1.723-9.255-.988-13 .92-4.69 3.654-8.6 7.313-10.484 1.275-.653 3.205-1.32 5.16-.792 1.5.405 2.898 1.494 4.278 3.33 1.25 1.664 2.558 4.054 3.252 5.946.032.087-.013.182-.1.214s-.182-.013-.214-.1c-.684-1.865-1.972-4.22-3.205-5.86-1.333-1.773-2.673-2.822-4.098-3.207-1.853-.5-3.698.14-4.92.767-3.57 1.828-6.237 5.66-7.138 10.25-.724 3.692-.403 7.893.982 12.845l.503 1.723c.526 1.767 1.07 3.593 1.305 5.456.273 2.172.016 5.3-1.524 7.562-.032.047-.085.073-.138.073z"/><path id="B" d="M164.725 69.63c.448.273 1.062.162 1.46-.178s.603-.865.66-1.386c-.477-.097-.993-.06-1.42.175s-.715.87-.717 1.358"/><path id="C" d="M38.966 191.958c-.092 0-.167-.075-.167-.167v-3.51c0-.092.075-.167.167-.167s.167.075.167.167v3.51c0 .092-.075.167-.167.167z"/><path id="D" d="M40.98 191.958c-.092 0-.167-.075-.167-.167v-2.306c0-.092.075-.167.167-.167s.167.075.167.167v2.306c0 .092-.075.167-.167.167z"/><path id="E" d="M112.697 204.236c.48-.096 8.906-3.16 8.906-3.16l-7.853-.48-1.053 3.64z"/><path id="F" d="M116.117 196.185c.537 0 .537-.834 0-.834s-.538.834 0 .834h0z"/><path id="G" d="M127.145 196.996c.537 0 .537-.834 0-.834s-.537.834 0 .834h0z"/><path id="H" d="M46.495 161.314c-.092 0-.167-.075-.167-.167v-9.715c0-.092.075-.167.167-.167s.167.075.167.167v9.715c0 .092-.075.167-.167.167z"/></defs><clipPath id="I"><use xlink:href="#A"/></clipPath><g class="Lx"><path d="M57.4 7.14h.373v39.526H57.4z" class="Ls"/><path d="M57.772 7.14h.098v39.526h-.098z" class="Ls"/></g><path d="M57.87 7.14h.098v39.526h-.098z" class="Ls MA"/><path d="M57.968 7.14h.098v39.526h-.098z" class="Ls MB"/><path d="M58.066 7.14h.098v39.526h-.098z" class="Ls MC"/><path d="M58.165 7.14h.098v39.526h-.098z" class="Ls MD"/><path d="M58.263 7.14h.098v39.526h-.098z" class="Ls ME"/><path d="M58.36 7.14h.098v39.526h-.098z" class="Ls MF"/><path d="M58.46 7.14h.098v39.526h-.098z" class="Ls MG"/><path d="M58.557 7.14h.098v39.526h-.098z" class="Ls MH"/><path d="M58.655 7.14h.098v39.526h-.098z" class="Ls MI"/><path d="M58.753 7.14h.098v39.526h-.098z" class="Ls MJ"/><path d="M58.85 7.14h.098v39.526h-.098z" class="Ls MK"/><path d="M58.95 7.14h.098v39.526h-.098z" class="Ls ML"/><path d="M59.047 7.14h.098v39.526h-.098z" class="Ls MM"/><path d="M59.145 7.14h.098v39.526h-.098z" class="Ls MN"/><path d="M59.243 7.14h.098v39.526h-.098z" class="Ls MO"/><path d="M59.34 7.14h.098v39.526h-.098z" class="Ls MP"/><path d="M59.44 7.14h.098v39.526h-.098z" class="Ls MQ"/><path d="M59.537 7.14h.098v39.526h-.098z" class="Ls MR"/><path d="M59.635 7.14h.098v39.526h-.098z" class="Ls MS"/><path d="M59.733 7.14h.098v39.526h-.098z" class="Ls MT"/><path d="M59.83 7.14h.098v39.526h-.098z" class="Ls MU"/><path d="M59.93 7.14h.098v39.526h-.098z" class="Ls MV"/><path d="M60.028 7.14h.098v39.526h-.098z" class="Ls MW"/><path d="M60.125 7.14h.098v39.526h-.098z" class="Ls MX"/><path d="M60.224 7.14h.098v39.526h-.098z" class="Ls MY"/><path d="M60.322 7.14h.098v39.526h-.098z" class="Ls MZ"/><path d="M60.42 7.14h.098v39.526h-.098z" class="Ls Ma"/><path d="M60.518 7.14h.098v39.526h-.098z" class="Ls Mb"/><path d="M60.616 7.14h.098v39.526h-.098z" class="Ls Mc"/><path d="M60.714 7.14h.098v39.526h-.098z" class="Ls Md"/><path d="M60.812 7.14h.098v39.526h-.098z" class="Ls Me"/><path d="M60.9 7.14h.098v39.526H60.9z" class="Ls Mf"/><path d="M61.008 7.14h.098v39.526h-.098z" class="Ls Mg"/><path d="M61.106 7.14h.098v39.526h-.098z" class="Ls Mh"/><path d="M61.204 7.14h.098v39.526h-.098z" class="Ls Mi"/><path d="M61.302 7.14h.098v39.526h-.098z" class="Ls Mj"/><path d="M61.4 7.14h.098v39.526H61.4z" class="Ls Mk"/><path d="M61.498 7.14h.098v39.526h-.098z" class="Ls Ml"/><path d="M61.596 7.14h.098v39.526h-.098z" class="Ls Mm"/><path d="M61.694 7.14h.098v39.526h-.098z" class="Ls Mn"/><g class="Mo"><path d="M61.792 7.14h.098v39.526h-.098z" class="Ls"/><path d="M61.9 7.14h.097v39.526H61.9z" class="Ls"/></g><path d="M61.988 7.14h.097v39.526h-.097z" class="Ls Mp"/><path d="M62.085 7.14h.097v39.526h-.097z" class="Ls Mq"/><path d="M62.183 7.14h.097v39.526h-.097z" class="Ls Mr"/><path d="M62.28 7.14h.097v39.526h-.097z" class="Ls Ms"/><path d="M62.378 7.14h.097v39.526h-.097z" class="Ls Mt"/><path d="M62.475 7.14h.097v39.526h-.097z" class="Ls Mu"/><path d="M62.573 7.14h.097v39.526h-.097z" class="Ls Mv"/><path d="M62.67 7.14h.097v39.526h-.097z" class="Ls Mw"/><path d="M62.768 7.14h.097v39.526h-.097z" class="Ls Mx"/><path d="M62.865 7.14h.097v39.526h-.097z" class="Ls My"/><path d="M62.962 7.14h.097v39.526h-.097z" class="Ls Mz"/><path d="M63.06 7.14h.097v39.526h-.097z" class="Ls NA"/><path d="M63.157 7.14h.097v39.526h-.097z" class="Ls NB"/><path d="M63.255 7.14h.097v39.526h-.097z" class="Ls NC"/><path d="M63.352 7.14h.097v39.526h-.097z" class="Ls ND"/><path d="M63.45 7.14h.097v39.526h-.097z" class="Ls NE"/><path d="M63.547 7.14h.097v39.526h-.097z" class="Ls NF"/><path d="M63.645 7.14h.097v39.526h-.097z" class="Ls NG"/><path d="M63.742 7.14h.097v39.526h-.097z" class="Ls NH"/><path d="M63.84 7.14h.097v39.526h-.097z" class="Ls NI"/><path d="M63.937 7.14h.097v39.526h-.097z" class="Ls NJ"/><path d="M64.034 7.14h.097v39.526h-.097z" class="Ls NK"/><path d="M64.132 7.14h.097v39.526h-.097z" class="Ls NL"/><path d="M64.23 7.14h.097v39.526h-.097z" class="Ls NM"/><path d="M64.327 7.14h.097v39.526h-.097z" class="Ls NN"/><path d="M64.424 7.14h.097v39.526h-.097z" class="Ls NO"/><path d="M64.522 7.14h.097v39.526h-.097z" class="Ls NP"/><path d="M64.62 7.14h.097v39.526h-.097z" class="Ls NQ"/><path d="M64.717 7.14h.097v39.526h-.097z" class="Ls NR"/><path d="M64.814 7.14h.097v39.526h-.097z" class="Ls NS"/><path d="M64.91 7.14h.097v39.526h-.097z" class="Ls NT"/><g class="NU"><path d="M65.01 7.14h.097v39.526h-.097z" class="Ls"/><path d="M65.106 7.14h.068v39.526h-.068z" class="Ls"/></g><path d="M65.174 7.14h.068v39.526h-.068z" class="Ls NV"/><path d="M65.242 7.14h.068v39.526h-.068z" class="Ls NW"/><path d="M65.3 7.14h.068v39.526H65.3z" class="Ls NX"/><path d="M65.378 7.14h.068v39.526h-.068z" class="Ls NY"/><path d="M65.446 7.14h.068v39.526h-.068z" class="Ls NZ"/><path d="M65.513 7.14h.068v39.526h-.068z" class="Ls Na"/><path d="M65.58 7.14h.068v39.526h-.068z" class="Ls Nb"/><path d="M65.65 7.14h.068v39.526h-.068z" class="Ls Nc"/><path d="M65.717 7.14h.068v39.526h-.068z" class="Ls Nd"/><path d="M65.785 7.14h.068v39.526h-.068z" class="Ls Ne"/><path d="M65.853 7.14h.068v39.526h-.068z" class="Ls Nf"/><path d="M65.92 7.14h.068v39.526h-.068z" class="Ls Ng"/><path d="M65.988 7.14h.068v39.526h-.068z" class="Ls Nh"/><path d="M66.056 7.14h.068v39.526h-.068z" class="Ls Ni"/><path d="M66.124 7.14h.068v39.526h-.068z" class="Ls Nj"/><path d="M66.192 7.14h.068v39.526h-.068z" class="Ls Nk"/><path d="M66.26 7.14h.068v39.526h-.068z" class="Ls Nl"/><path d="M66.328 7.14h.068v39.526h-.068z" class="Ls Nm"/><path d="M66.396 7.14h.068v39.526h-.068z" class="Ls Nn"/><path d="M66.463 7.14h.068v39.526h-.068z" class="Ls No"/><path d="M66.53 7.14h.068v39.526h-.068z" class="Ls Np"/><path d="M66.6 7.14h.068v39.526H66.6z" class="Ls Nq"/><path d="M66.667 7.14h.068v39.526h-.068z" class="Ls Nr"/><path d="M66.735 7.14h.068v39.526h-.068z" class="Ls Ns"/><path d="M66.802 7.14h.068v39.526h-.068z" class="Ls Nt"/><path d="M66.87 7.14h.068v39.526h-.068z" class="Ls Nu"/><path d="M66.938 7.14h.068v39.526h-.068z" class="Ls Nv"/><path d="M67.006 7.14h.068v39.526h-.068z" class="Ls Nw"/><path d="M67.074 7.14h.068v39.526h-.068z" class="Ls Nx"/><path d="M67.142 7.14h.068v39.526h-.068z" class="Ls Ny"/><path d="M67.2 7.14h.068v39.526H67.2z" class="Ls Nz"/><path d="M67.277 7.14h.068v39.526h-.068z" class="Ls OA"/><path d="M67.345 7.14h.068v39.526h-.068z" class="Ls OB"/><path d="M67.413 7.14h.068v39.526h-.068z" class="Ls OC"/><path d="M67.48 7.14h.068v39.526h-.068z" class="Ls OD"/><path d="M67.55 7.14h.068v39.526h-.068z" class="Ls OE"/><path d="M67.617 7.14h.068v39.526h-.068z" class="Ls OF"/><path d="M67.685 7.14h.068v39.526h-.068z" class="Ls OG"/><path d="M67.752 7.14h.068v39.526h-.068z" class="Ls OH"/><path d="M67.82 7.14h.068v39.526h-.068z" class="Ls OI"/><path d="M67.888 7.14h.068v39.526h-.068z" class="Ls OJ"/><path d="M67.956 7.14h.068v39.526h-.068z" class="Ls Lz"/><g class="OK"><path d="M68.024 7.14h.068v39.526h-.068z" class="Ls"/><path d="M68.09 7.14h.07v39.526h-.07z" class="Ls"/></g><path d="M68.16 7.14h.07v39.526h-.07z" class="Ls Lz"/><path d="M68.23 7.14h.07v39.526h-.07z" class="Ls OL"/><path d="M68.3 7.14h.07v39.526h-.07z" class="Ls OM"/><path d="M68.37 7.14h.07v39.526h-.07z" class="Ls ON"/><path d="M68.44 7.14h.07v39.526h-.07z" class="Ls OO"/><path d="M68.5 7.14h.07v39.526h-.07z" class="Ls OP"/><path d="M68.58 7.14h.07v39.526h-.07z" class="Ls OQ"/><path d="M68.65 7.14h.07v39.526h-.07z" class="Ls OR"/><path d="M68.72 7.14h.07v39.526h-.07z" class="Ls OS"/><path d="M68.8 7.14h.07v39.526h-.07z" class="Ls OT"/><path d="M68.86 7.14h.07v39.526h-.07z" class="Ls OU"/><path d="M68.93 7.14H69v39.526h-.07z" class="Ls OV"/><path d="M69 7.14h.07v39.526H69z" class="Ls OW"/><path d="M69.07 7.14h.07v39.526h-.07z" class="Ls OX"/><path d="M69.14 7.14h.07v39.526h-.07z" class="Ls OY"/><path d="M69.21 7.14h.07v39.526h-.07z" class="Ls OZ"/><path d="M69.28 7.14h.07v39.526h-.07z" class="Ls Oa"/><path d="M69.348 7.14h.07v39.526h-.07z" class="Ls Ob"/><path d="M69.418 7.14h.07v39.526h-.07z" class="Ls Oc"/><path d="M69.488 7.14h.07v39.526h-.07z" class="Ls Od"/><path d="M69.558 7.14h.07v39.526h-.07z" class="Ls Oe"/><path d="M69.628 7.14h.07v39.526h-.07z" class="Ls Of"/><path d="M69.697 7.14h.07v39.526h-.07z" class="Ls Og"/><path d="M69.767 7.14h.07v39.526h-.07z" class="Ls Oh"/><path d="M69.837 7.14h.07v39.526h-.07z" class="Ls Oi"/><path d="M69.907 7.14h.07v39.526h-.07z" class="Ls Oj"/><path d="M69.977 7.14h.07v39.526h-.07z" class="Ls Ok"/><path d="M70.047 7.14h.07v39.526h-.07z" class="Ls Ol"/><path d="M70.116 7.14h.07v39.526h-.07z" class="Ls Om"/><path d="M70.186 7.14h.07v39.526h-.07z" class="Ls On"/><path d="M70.256 7.14h.07v39.526h-.07z" class="Ls Oo"/><path d="M70.326 7.14h.07v39.526h-.07z" class="Ls Op"/><path d="M70.396 7.14h.07v39.526h-.07z" class="Ls Oq"/><path d="M70.465 7.14h.07v39.526h-.07z" class="Ls Or"/><path d="M70.535 7.14h.07v39.526h-.07z" class="Ls Os"/><path d="M70.605 7.14h.07v39.526h-.07z" class="Ls Ot"/><path d="M70.675 7.14h.07v39.526h-.07z" class="Ls Ou"/><path d="M70.745 7.14h.07v39.526h-.07z" class="Ls Ov"/><path d="M70.815 7.14h.07v39.526h-.07z" class="Ls Ow"/><path d="M70.884 7.14h.07v39.526h-.07z" class="Ls Ox"/><path d="M70.954 7.14h.07v39.526h-.07z" class="Ls Oy"/><path d="M71.024 7.14h.07v39.526h-.07z" class="Ls Oz"/><path d="M71.094 7.14h.07v39.526h-.07z" class="Ls PA"/><g class="PB"><path d="M71.164 7.14h.07v39.526h-.07z" class="Ls"/><path d="M71.234 7.14h.11v39.526h-.11z" class="Ls"/></g><path d="M71.344 7.14h.11v39.526h-.11z" class="Ls PC"/><path d="M71.455 7.14h.11v39.526h-.11z" class="Ls PD"/><path d="M71.565 7.14h.11v39.526h-.11z" class="Ls PE"/><path d="M71.676 7.14h.11v39.526h-.11z" class="Ls PF"/><path d="M71.786 7.14h.11v39.526h-.11z" class="Ls PG"/><path d="M71.897 7.14h.11v39.526h-.11z" class="Ls PH"/><path d="M72.007 7.14h.11v39.526h-.11z" class="Ls PI"/><path d="M72.118 7.14h.11v39.526h-.11z" class="Ls PJ"/><path d="M72.228 7.14h.11v39.526h-.11z" class="Ls PK"/><path d="M72.34 7.14h.11v39.526h-.11z" class="Ls PL"/><path d="M72.45 7.14h.11v39.526h-.11z" class="Ls PM"/><path d="M72.56 7.14h.11v39.526h-.11z" class="Ls PN"/><path d="M72.67 7.14h.11v39.526h-.11z" class="Ls PO"/><path d="M72.78 7.14h.11v39.526h-.11z" class="Ls PP"/><path d="M72.892 7.14h.11v39.526h-.11z" class="Ls PQ"/><path d="M73.002 7.14h.11v39.526h-.11z" class="Ls PR"/><path d="M73.113 7.14h.11v39.526h-.11z" class="Ls PS"/><path d="M73.223 7.14h.11v39.526h-.11z" class="Ls PT"/><path d="M73.334 7.14h.11v39.526h-.11z" class="Ls PU"/><path d="M73.444 7.14h.11v39.526h-.11z" class="Ls PV"/><path d="M73.555 7.14h.11v39.526h-.11z" class="Ls PW"/><path d="M73.665 7.14h.11v39.526h-.11z" class="Ls PX"/><path d="M73.776 7.14h.11v39.526h-.11z" class="Ls PY"/><path d="M73.886 7.14h.11v39.526h-.11z" class="Ls PZ"/><path d="M73.997 7.14h.11v39.526h-.11z" class="Ls Pa"/><path d="M74.108 7.14h.11v39.526h-.11z" class="Ls Pb"/><path d="M74.218 7.14h.11v39.526h-.11z" class="Ls Pc"/><path d="M74.33 7.14h.11v39.526h-.11z" class="Ls Pd"/><g class="Pe"><path d="M74.44 7.14h.11v39.526h-.11z" class="Ls"/><path d="M74.55 7.14h.112v39.526h-.112z" class="Ls"/></g><path d="M74.662 7.14h.112v39.526h-.112z" class="Ls Pf"/><path d="M74.774 7.14h.112v39.526h-.112z" class="Ls Pg"/><path d="M74.886 7.14h.112v39.526h-.112z" class="Ls Ph"/><path d="M74.998 7.14h.112v39.526h-.112z" class="Ls Pi"/><path d="M75.1 7.14h.112v39.526H75.1z" class="Ls Pj"/><path d="M75.222 7.14h.112v39.526h-.112z" class="Ls Pk"/><path d="M75.334 7.14h.112v39.526h-.112z" class="Ls Pl"/><path d="M75.446 7.14h.112v39.526h-.112z" class="Ls Pm"/><path d="M75.56 7.14h.112v39.526h-.112z" class="Ls Pn"/><path d="M75.67 7.14h.112v39.526h-.112z" class="Ls Po"/><path d="M75.783 7.14h.112v39.526h-.112z" class="Ls Pp"/><path d="M75.895 7.14h.112v39.526h-.112z" class="Ls Pq"/><path d="M76.007 7.14h.112v39.526h-.112z" class="Ls Pr"/><path d="M76.12 7.14h.112v39.526h-.112z" class="Ls Ps"/><path d="M76.23 7.14h.112v39.526h-.112z" class="Ls Pt"/><path d="M76.343 7.14h.112v39.526h-.112z" class="Ls Pu"/><path d="M76.455 7.14h.112v39.526h-.112z" class="Ls Pv"/><path d="M76.567 7.14h.112v39.526h-.112z" class="Ls Pw"/><path d="M76.68 7.14h.112v39.526h-.112z" class="Ls Px"/><path d="M76.79 7.14h.112v39.526h-.112z" class="Ls Py"/><path d="M76.903 7.14h.112v39.526h-.112z" class="Ls Pz"/><path d="M77.016 7.14h.112v39.526h-.112z" class="Ls QA"/><path d="M77.128 7.14h.112v39.526h-.112z" class="Ls QB"/><path d="M77.24 7.14h.112v39.526h-.112z" class="Ls QC"/><path d="M77.352 7.14h.112v39.526h-.112z" class="Ls QD"/><path d="M77.464 7.14h.112v39.526h-.112z" class="Ls QE"/><path d="M77.576 7.14h.112v39.526h-.112z" class="Ls QF"/><path d="M77.688 7.14h.112v39.526h-.112z" class="Ls QG"/><path d="M77.8 7.14h.112v39.526H77.8z" class="Ls QH"/><path d="M77.912 7.14h.112v39.526h-.112z" class="Ls QI"/><g class="QJ"><path d="M78.024 7.14h.112v39.526h-.112z" class="Ls"/><path d="M78.136 7.14h.032v39.526h-.032z" class="Ls"/></g><defs><path id="J" d="M61.084 39.446c-.066 0-.127-.04-.154-.103l-2.226-6.103c-1.417-3.422-2.883-6.96-3.162-10.746a17.98 17.98 0 0 1 3.402-11.808c2.8-3.817 5.82-5.99 9.47-6.836.1-.02.18.035.2.125s-.035.18-.125.2c-3.57.828-6.518 2.96-9.278 6.71a17.64 17.64 0 0 0-3.338 11.586c.275 3.733 1.73 7.246 3.137 10.643.415 1.002.772 2.05 1.117 3.06s.7 2.05 1.11 3.04c.035.085-.005.183-.1.218-.02.01-.042.013-.064.013z"/></defs><clipPath id="K"><use xlink:href="#J"/></clipPath><g class="Lx"><path d="M55.236 3.83h.273v35.616h-.273z" class="Lt"/><path d="M55.51 3.83h.063v35.616h-.063z" class="Lt"/></g><path d="M55.572 3.83h.063v35.616h-.063z" class="Lt MA"/><path d="M55.635 3.83h.063v35.616h-.063z" class="Lt MB"/><path d="M55.698 3.83h.063v35.616h-.063z" class="Lt MC"/><path d="M55.76 3.83h.063v35.616h-.063z" class="Lt MD"/><path d="M55.824 3.83h.063v35.616h-.063z" class="Lt ME"/><path d="M55.887 3.83h.063v35.616h-.063z" class="Lt MF"/><path d="M55.95 3.83h.063v35.616h-.063z" class="Lt MG"/><path d="M56.014 3.83h.063v35.616h-.063z" class="Lt MH"/><path d="M56.077 3.83h.063v35.616h-.063z" class="Lt MI"/><path d="M56.14 3.83h.063v35.616h-.063z" class="Lt MJ"/><path d="M56.203 3.83h.063v35.616h-.063z" class="Lt MK"/><path d="M56.266 3.83h.063v35.616h-.063z" class="Lt ML"/><path d="M56.33 3.83h.063v35.616h-.063z" class="Lt MM"/><path d="M56.392 3.83h.063v35.616h-.063z" class="Lt MN"/><path d="M56.455 3.83h.063v35.616h-.063z" class="Lt MO"/><path d="M56.518 3.83h.063v35.616h-.063z" class="Lt MP"/><path d="M56.58 3.83h.063v35.616h-.063z" class="Lt MQ"/><path d="M56.645 3.83h.063v35.616h-.063z" class="Lt MR"/><path d="M56.708 3.83h.063v35.616h-.063z" class="Lt MS"/><path d="M56.77 3.83h.063v35.616h-.063z" class="Lt MT"/><path d="M56.834 3.83h.063v35.616h-.063z" class="Lt MU"/><path d="M56.897 3.83h.063v35.616h-.063z" class="Lt MV"/><path d="M56.96 3.83h.063v35.616h-.063z" class="Lt MW"/><path d="M57.023 3.83h.063v35.616h-.063z" class="Lt MX"/><path d="M57.086 3.83h.063v35.616h-.063z" class="Lt MY"/><path d="M57.15 3.83h.063v35.616h-.063z" class="Lt MZ"/><path d="M57.212 3.83h.063v35.616h-.063z" class="Lt Ma"/><path d="M57.275 3.83h.063v35.616h-.063z" class="Lt Mb"/><path d="M57.34 3.83h.063v35.616h-.063z" class="Lt Mc"/><path d="M57.402 3.83h.063v35.616h-.063z" class="Lt Md"/><path d="M57.465 3.83h.063v35.616h-.063z" class="Lt Me"/><path d="M57.528 3.83h.063v35.616h-.063z" class="Lt Mf"/><path d="M57.59 3.83h.063v35.616h-.063z" class="Lt Mg"/><path d="M57.654 3.83h.063v35.616h-.063z" class="Lt Mh"/><path d="M57.717 3.83h.063v35.616h-.063z" class="Lt Mi"/><path d="M57.78 3.83h.063v35.616h-.063z" class="Lt Mj"/><path d="M57.843 3.83h.063v35.616h-.063z" class="Lt Mk"/><path d="M57.906 3.83h.063v35.616h-.063z" class="Lt Ml"/><path d="M57.97 3.83h.063v35.616h-.063z" class="Lt Mm"/><path d="M58.033 3.83h.063v35.616h-.063z" class="Lt Mn"/><g class="Mo"><path d="M58.096 3.83h.063v35.616h-.063z" class="Lt"/><path d="M58.16 3.83h.063v35.616h-.063z" class="Lt"/></g><path d="M58.22 3.83h.063v35.616h-.063z" class="Lt Mp"/><path d="M58.284 3.83h.063v35.616h-.063z" class="Lt Mq"/><path d="M58.347 3.83h.063v35.616h-.063z" class="Lt Mr"/><path d="M58.4 3.83h.063v35.616H58.4z" class="Lt Ms"/><path d="M58.472 3.83h.063v35.616h-.063z" class="Lt Mt"/><path d="M58.535 3.83h.063v35.616h-.063z" class="Lt Mu"/><path d="M58.598 3.83h.063v35.616h-.063z" class="Lt Mv"/><path d="M58.66 3.83h.063v35.616h-.063z" class="Lt Mw"/><path d="M58.723 3.83h.063v35.616h-.063z" class="Lt Mx"/><path d="M58.786 3.83h.063v35.616h-.063z" class="Lt My"/><path d="M58.848 3.83h.063v35.616h-.063z" class="Lt Mz"/><path d="M58.91 3.83h.063v35.616h-.063z" class="Lt NA"/><path d="M58.974 3.83h.063v35.616h-.063z" class="Lt NB"/><path d="M59.037 3.83h.063v35.616h-.063z" class="Lt NC"/><path d="M59.1 3.83h.063v35.616H59.1z" class="Lt ND"/><path d="M59.162 3.83h.063v35.616h-.063z" class="Lt NE"/><path d="M59.225 3.83h.063v35.616h-.063z" class="Lt NF"/><path d="M59.287 3.83h.063v35.616h-.063z" class="Lt NG"/><path d="M59.35 3.83h.063v35.616h-.063z" class="Lt NH"/><path d="M59.413 3.83h.063v35.616h-.063z" class="Lt NI"/><path d="M59.476 3.83h.063v35.616h-.063z" class="Lt NJ"/><path d="M59.538 3.83h.063v35.616h-.063z" class="Lt NK"/><path d="M59.6 3.83h.063v35.616H59.6z" class="Lt NL"/><path d="M59.664 3.83h.063v35.616h-.063z" class="Lt NM"/><path d="M59.727 3.83h.063v35.616h-.063z" class="Lt NN"/><path d="M59.79 3.83h.063v35.616h-.063z" class="Lt NO"/><path d="M59.852 3.83h.063v35.616h-.063z" class="Lt NP"/><path d="M59.915 3.83h.063v35.616h-.063z" class="Lt NQ"/><path d="M59.977 3.83h.063v35.616h-.063z" class="Lt NR"/><path d="M60.04 3.83h.063v35.616h-.063z" class="Lt NS"/><path d="M60.103 3.83h.063v35.616h-.063z" class="Lt NT"/><g class="NU"><path d="M60.165 3.83h.063v35.616h-.063z" class="Lt"/><path d="M60.228 3.83h.044v35.616h-.044z" class="Lt"/></g><path d="M60.272 3.83h.044v35.616h-.044z" class="Lt NV"/><path d="M60.315 3.83h.044v35.616h-.044z" class="Lt NW"/><path d="M60.36 3.83h.044v35.616h-.044z" class="Lt NX"/><path d="M60.403 3.83h.044v35.616h-.044z" class="Lt NY"/><path d="M60.446 3.83h.044v35.616h-.044z" class="Lt NZ"/><path d="M60.5 3.83h.044v35.616H60.5z" class="Lt Na"/><path d="M60.534 3.83h.044v35.616h-.044z" class="Lt Nb"/><path d="M60.577 3.83h.044v35.616h-.044z" class="Lt Nc"/><path d="M60.62 3.83h.044v35.616h-.044z" class="Lt Nd"/><path d="M60.665 3.83h.044v35.616h-.044z" class="Lt Ne"/><path d="M60.708 3.83h.044v35.616h-.044z" class="Lt Nf"/><path d="M60.752 3.83h.044v35.616h-.044z" class="Lt Ng"/><path d="M60.796 3.83h.044v35.616h-.044z" class="Lt Nh"/><path d="M60.84 3.83h.044v35.616h-.044z" class="Lt Ni"/><path d="M60.883 3.83h.044v35.616h-.044z" class="Lt Nj"/><path d="M60.927 3.83h.044v35.616h-.044z" class="Lt Nk"/><path d="M60.97 3.83h.044v35.616h-.044z" class="Lt Nl"/><path d="M61.014 3.83h.044v35.616h-.044z" class="Lt Nm"/><path d="M61.058 3.83h.044v35.616h-.044z" class="Lt Nn"/><path d="M61.1 3.83h.044v35.616H61.1z" class="Lt No"/><path d="M61.145 3.83h.044v35.616h-.044z" class="Lt Np"/><path d="M61.188 3.83h.044v35.616h-.044z" class="Lt Nq"/><path d="M61.232 3.83h.044v35.616h-.044z" class="Lt Nr"/><path d="M61.276 3.83h.044v35.616h-.044z" class="Lt Ns"/><path d="M61.32 3.83h.044v35.616h-.044z" class="Lt Nt"/><path d="M61.363 3.83h.044v35.616h-.044z" class="Lt Nu"/><path d="M61.407 3.83h.044v35.616h-.044z" class="Lt Nv"/><path d="M61.45 3.83h.044v35.616h-.044z" class="Lt Nw"/><path d="M61.494 3.83h.044v35.616h-.044z" class="Lt Nx"/><path d="M61.538 3.83h.044v35.616h-.044z" class="Lt Ny"/><path d="M61.58 3.83h.044v35.616h-.044z" class="Lt Nz"/><path d="M61.625 3.83h.044v35.616h-.044z" class="Lt OA"/><path d="M61.67 3.83h.044v35.616h-.044z" class="Lt OB"/><path d="M61.712 3.83h.044v35.616h-.044z" class="Lt OC"/><path d="M61.756 3.83h.044v35.616h-.044z" class="Lt OD"/><path d="M61.8 3.83h.044v35.616H61.8z" class="Lt OE"/><path d="M61.843 3.83h.044v35.616h-.044z" class="Lt OF"/><path d="M61.887 3.83h.044v35.616h-.044z" class="Lt OG"/><path d="M61.93 3.83h.044v35.616h-.044z" class="Lt OH"/><path d="M61.974 3.83h.044v35.616h-.044z" class="Lt OI"/><path d="M62.018 3.83h.044v35.616h-.044z" class="Lt OJ"/><path d="M62.062 3.83h.044v35.616h-.044z" class="Lt Lz"/><g class="OK"><path d="M62.105 3.83h.044v35.616h-.044z" class="Lt"/><path d="M62.15 3.83h.045v35.616h-.045z" class="Lt"/></g><path d="M62.194 3.83h.045v35.616h-.045z" class="Lt Lz"/><path d="M62.24 3.83h.045v35.616h-.045z" class="Lt OL"/><path d="M62.284 3.83h.045v35.616h-.045z" class="Lt OM"/><path d="M62.33 3.83h.045v35.616h-.045z" class="Lt ON"/><path d="M62.374 3.83h.045v35.616h-.045z" class="Lt OO"/><path d="M62.418 3.83h.045v35.616h-.045z" class="Lt OP"/><path d="M62.464 3.83h.045v35.616h-.045z" class="Lt OQ"/><path d="M62.508 3.83h.045v35.616h-.045z" class="Lt OR"/><path d="M62.553 3.83h.045v35.616h-.045z" class="Lt OS"/><path d="M62.598 3.83h.045v35.616h-.045z" class="Lt OT"/><path d="M62.643 3.83h.045v35.616h-.045z" class="Lt OU"/><path d="M62.688 3.83h.045v35.616h-.045z" class="Lt OV"/><path d="M62.733 3.83h.045v35.616h-.045z" class="Lt OW"/><path d="M62.778 3.83h.045v35.616h-.045z" class="Lt OX"/><path d="M62.823 3.83h.045v35.616h-.045z" class="Lt OY"/><path d="M62.868 3.83h.045v35.616h-.045z" class="Lt OZ"/><path d="M62.913 3.83h.045v35.616h-.045z" class="Lt Oa"/><path d="M62.958 3.83h.045v35.616h-.045z" class="Lt Ob"/><path d="M63.003 3.83h.045v35.616h-.045z" class="Lt Oc"/><path d="M63.048 3.83h.045v35.616h-.045z" class="Lt Od"/><path d="M63.092 3.83h.045v35.616h-.045z" class="Lt Oe"/><path d="M63.137 3.83h.045v35.616h-.045z" class="Lt Of"/><path d="M63.182 3.83h.045v35.616h-.045z" class="Lt Og"/><path d="M63.227 3.83h.045v35.616h-.045z" class="Lt Oh"/><path d="M63.272 3.83h.045v35.616h-.045z" class="Lt Oi"/><path d="M63.317 3.83h.045v35.616h-.045z" class="Lt Oj"/><path d="M63.362 3.83h.045v35.616h-.045z" class="Lt Ok"/><path d="M63.407 3.83h.045v35.616h-.045z" class="Lt Ol"/><path d="M63.452 3.83h.045v35.616h-.045z" class="Lt Om"/><path d="M63.497 3.83h.045v35.616h-.045z" class="Lt On"/><path d="M63.542 3.83h.045v35.616h-.045z" class="Lt Oo"/><path d="M63.587 3.83h.045v35.616h-.045z" class="Lt Op"/><path d="M63.632 3.83h.045v35.616h-.045z" class="Lt Oq"/><path d="M63.676 3.83h.045v35.616h-.045z" class="Lt Or"/><path d="M63.722 3.83h.045v35.616h-.045z" class="Lt Os"/><path d="M63.766 3.83h.045v35.616h-.045z" class="Lt Ot"/><path d="M63.81 3.83h.045v35.616h-.045z" class="Lt Ou"/><path d="M63.856 3.83h.045v35.616h-.045z" class="Lt Ov"/><path d="M63.9 3.83h.045v35.616H63.9z" class="Lt Ow"/><path d="M63.946 3.83h.045v35.616h-.045z" class="Lt Ox"/><path d="M63.99 3.83h.045v35.616h-.045z" class="Lt Oy"/><path d="M64.036 3.83h.045v35.616h-.045z" class="Lt Oz"/><path d="M64.08 3.83h.045v35.616h-.045z" class="Lt PA"/><g class="PB"><path d="M64.126 3.83h.045v35.616h-.045z" class="Lt"/><path d="M64.17 3.83h.07v35.616h-.07z" class="Lt"/></g><path d="M64.242 3.83h.07v35.616h-.07z" class="Lt PC"/><path d="M64.313 3.83h.07v35.616h-.07z" class="Lt PD"/><path d="M64.384 3.83h.07v35.616h-.07z" class="Lt PE"/><path d="M64.455 3.83h.07v35.616h-.07z" class="Lt PF"/><path d="M64.526 3.83h.07v35.616h-.07z" class="Lt PG"/><path d="M64.598 3.83h.07v35.616h-.07z" class="Lt PH"/><path d="M64.67 3.83h.07v35.616h-.07z" class="Lt PI"/><path d="M64.74 3.83h.07v35.616h-.07z" class="Lt PJ"/><path d="M64.81 3.83h.07v35.616h-.07z" class="Lt PK"/><path d="M64.882 3.83h.07v35.616h-.07z" class="Lt PL"/><path d="M64.953 3.83h.07v35.616h-.07z" class="Lt PM"/><path d="M65.024 3.83h.07v35.616h-.07z" class="Lt PN"/><path d="M65.095 3.83h.07v35.616h-.07z" class="Lt PO"/><path d="M65.167 3.83h.07v35.616h-.07z" class="Lt PP"/><path d="M65.238 3.83h.07v35.616h-.07z" class="Lt PQ"/><path d="M65.31 3.83h.07v35.616h-.07z" class="Lt PR"/><path d="M65.38 3.83h.07v35.616h-.07z" class="Lt PS"/><path d="M65.45 3.83h.07v35.616h-.07z" class="Lt PT"/><path d="M65.522 3.83h.07v35.616h-.07z" class="Lt PU"/><path d="M65.593 3.83h.07v35.616h-.07z" class="Lt PV"/><path d="M65.664 3.83h.07v35.616h-.07z" class="Lt PW"/><path d="M65.736 3.83h.07v35.616h-.07z" class="Lt PX"/><path d="M65.807 3.83h.07v35.616h-.07z" class="Lt PY"/><path d="M65.878 3.83h.07v35.616h-.07z" class="Lt PZ"/><path d="M65.95 3.83h.07v35.616h-.07z" class="Lt Pa"/><path d="M66.02 3.83h.07v35.616h-.07z" class="Lt Pb"/><path d="M66.09 3.83h.07v35.616h-.07z" class="Lt Pc"/><path d="M66.162 3.83h.07v35.616h-.07z" class="Lt Pd"/><g class="Pe"><path d="M66.233 3.83h.07v35.616h-.07z" class="Lt"/><path d="M66.305 3.83h.072v35.616h-.072z" class="Lt"/></g><path d="M66.377 3.83h.072v35.616h-.072z" class="Lt Pf"/><path d="M66.45 3.83h.072v35.616h-.072z" class="Lt Pg"/><path d="M66.52 3.83h.072v35.616h-.072z" class="Lt Ph"/><path d="M66.593 3.83h.072v35.616h-.072z" class="Lt Pi"/><path d="M66.665 3.83h.072v35.616h-.072z" class="Lt Pj"/><path d="M66.737 3.83h.072v35.616h-.072z" class="Lt Pk"/><path d="M66.8 3.83h.072v35.616H66.8z" class="Lt Pl"/><path d="M66.882 3.83h.072v35.616h-.072z" class="Lt Pm"/><path d="M66.954 3.83h.072v35.616h-.072z" class="Lt Pn"/><path d="M67.026 3.83h.072v35.616h-.072z" class="Lt Po"/><path d="M67.098 3.83h.072v35.616h-.072z" class="Lt Pp"/><path d="M67.17 3.83h.072v35.616h-.072z" class="Lt Pq"/><path d="M67.242 3.83h.072v35.616h-.072z" class="Lt Pr"/><path d="M67.314 3.83h.072v35.616h-.072z" class="Lt Ps"/><path d="M67.386 3.83h.072v35.616h-.072z" class="Lt Pt"/><path d="M67.46 3.83h.072v35.616h-.072z" class="Lt Pu"/><path d="M67.53 3.83h.072v35.616h-.072z" class="Lt Pv"/><path d="M67.603 3.83h.072v35.616h-.072z" class="Lt Pw"/><path d="M67.675 3.83h.072v35.616h-.072z" class="Lt Px"/><path d="M67.747 3.83h.072v35.616h-.072z" class="Lt Py"/><path d="M67.82 3.83h.072v35.616h-.072z" class="Lt Pz"/><path d="M67.89 3.83h.072v35.616h-.072z" class="Lt QA"/><path d="M67.963 3.83h.072v35.616h-.072z" class="Lt QB"/><path d="M68.035 3.83h.072v35.616h-.072z" class="Lt QC"/><path d="M68.108 3.83h.072v35.616h-.072z" class="Lt QD"/><path d="M68.18 3.83h.072v35.616h-.072z" class="Lt QE"/><path d="M68.252 3.83h.072v35.616h-.072z" class="Lt QF"/><path d="M68.324 3.83h.072v35.616h-.072z" class="Lt QG"/><path d="M68.396 3.83h.072v35.616h-.072z" class="Lt QH"/><path d="M68.468 3.83h.072v35.616h-.072z" class="Lt QI"/><g class="QJ"><path d="M68.54 3.83h.072v35.616h-.072z" class="Lt"/><path d="M68.613 3.83h.023l-.023 35.616z" class="Lt"/></g><defs><path id="L" d="M48.53 50.91c-.21 0-.376-.04-.48-.076-.087-.03-.134-.125-.104-.212s.124-.134.212-.104c1.154.395 2.3-1.048 2.988-2.532 2.03-4.38 1.53-9.428.866-13.336l-.545-2.998c-.656-3.487-1.333-7.093-1.205-10.656a.17.17 0 0 1 .173-.161c.092.003.164.08.16.173-.127 3.526.547 7.113 1.2 10.583l.546 3.004c.67 3.956 1.175 9.07-.892 13.532-1.095 2.364-2.243 2.783-2.92 2.783z"/></defs><clipPath id="M"><use xlink:href="#L"/></clipPath><g class="Lx"><path d="M47.918 20.832h.026v30.08h-.026z" class="Lu"/><path d="M47.944 20.832h.024v30.08h-.024z" class="Lu"/></g><path d="M47.968 20.832h.024v30.08h-.024z" class="Lu MA"/><path d="M47.992 20.832h.024v30.08h-.024z" class="Lu MB"/><path d="M48.016 20.832h.024v30.08h-.024z" class="Lu MC"/><path d="M48.04 20.832h.024v30.08h-.024z" class="Lu MD"/><path d="M48.064 20.832h.024v30.08h-.024z" class="Lu ME"/><path d="M48.088 20.832h.024v30.08h-.024z" class="Lu MF"/><path d="M48.112 20.832h.024v30.08h-.024z" class="Lu MG"/><path d="M48.136 20.832h.024v30.08h-.024z" class="Lu MH"/><path d="M48.16 20.832h.024v30.08h-.024z" class="Lu MI"/><path d="M48.184 20.832h.024v30.08h-.024z" class="Lu MJ"/><path d="M48.208 20.832h.024v30.08h-.024z" class="Lu MK"/><path d="M48.232 20.832h.024v30.08h-.024z" class="Lu ML"/><path d="M48.256 20.832h.024v30.08h-.024z" class="Lu MM"/><path d="M48.28 20.832h.024v30.08h-.024z" class="Lu MN"/><path d="M48.304 20.832h.024v30.08h-.024z" class="Lu MO"/><path d="M48.328 20.832h.024v30.08h-.024z" class="Lu MP"/><path d="M48.352 20.832h.024v30.08h-.024z" class="Lu MQ"/><path d="M48.376 20.832h.024v30.08h-.024z" class="Lu MR"/><path d="M48.4 20.832h.024v30.08H48.4z" class="Lu MS"/><path d="M48.424 20.832h.024v30.08h-.024z" class="Lu MT"/><path d="M48.448 20.832h.024v30.08h-.024z" class="Lu MU"/><path d="M48.472 20.832h.024v30.08h-.024z" class="Lu MV"/><path d="M48.496 20.832h.024v30.08h-.024z" class="Lu MW"/><path d="M48.52 20.832h.024v30.08h-.024z" class="Lu MX"/><path d="M48.544 20.832h.024v30.08h-.024z" class="Lu MY"/><path d="M48.568 20.832h.024v30.08h-.024z" class="Lu MZ"/><path d="M48.592 20.832h.024v30.08h-.024z" class="Lu Ma"/><path d="M48.616 20.832h.024v30.08h-.024z" class="Lu Mb"/><path d="M48.64 20.832h.024v30.08h-.024z" class="Lu Mc"/><path d="M48.664 20.832h.024v30.08h-.024z" class="Lu Md"/><path d="M48.688 20.832h.024v30.08h-.024z" class="Lu Me"/><path d="M48.712 20.832h.024v30.08h-.024z" class="Lu Mf"/><path d="M48.736 20.832h.024v30.08h-.024z" class="Lu Mg"/><path d="M48.76 20.832h.024v30.08h-.024z" class="Lu Mh"/><path d="M48.784 20.832h.024v30.08h-.024z" class="Lu Mi"/><path d="M48.807 20.832h.024v30.08h-.024z" class="Lu Mj"/><path d="M48.832 20.832h.024v30.08h-.024z" class="Lu Mk"/><path d="M48.855 20.832h.024v30.08h-.024z" class="Lu Ml"/><path d="M48.88 20.832h.024v30.08h-.024z" class="Lu Mm"/><path d="M48.903 20.832h.024v30.08h-.024z" class="Lu Mn"/><g class="Mo"><path d="M48.928 20.832h.024v30.08h-.024z" class="Lu"/><path d="M48.95 20.832h.024v30.08h-.024z" class="Lu"/></g><path d="M48.975 20.832H49v30.08h-.024z" class="Lu Mp"/><path d="M49 20.832h.024v30.08H49z" class="Lu Mq"/><path d="M49.023 20.832h.024v30.08h-.024z" class="Lu Mr"/><path d="M49.047 20.832h.024v30.08h-.024z" class="Lu Ms"/><path d="M49.07 20.832h.024v30.08h-.024z" class="Lu Mt"/><path d="M49.095 20.832h.024v30.08h-.024z" class="Lu Mu"/><path d="M49.118 20.832h.024v30.08h-.024z" class="Lu Mv"/><path d="M49.142 20.832h.024v30.08h-.024z" class="Lu Mw"/><path d="M49.166 20.832h.024v30.08h-.024z" class="Lu Mx"/><path d="M49.2 20.832h.024v30.08H49.2z" class="Lu My"/><path d="M49.214 20.832h.024v30.08h-.024z" class="Lu Mz"/><path d="M49.238 20.832h.024v30.08h-.024z" class="Lu NA"/><path d="M49.26 20.832h.024v30.08h-.024z" class="Lu NB"/><path d="M49.285 20.832h.024v30.08h-.024z" class="Lu NC"/><path d="M49.31 20.832h.024v30.08h-.024z" class="Lu ND"/><path d="M49.333 20.832h.024v30.08h-.024z" class="Lu NE"/><path d="M49.357 20.832h.024v30.08h-.024z" class="Lu NF"/><path d="M49.38 20.832h.024v30.08h-.024z" class="Lu NG"/><path d="M49.404 20.832h.024v30.08h-.024z" class="Lu NH"/><path d="M49.428 20.832h.024v30.08h-.024z" class="Lu NI"/><path d="M49.452 20.832h.024v30.08h-.024z" class="Lu NJ"/><path d="M49.476 20.832h.024v30.08h-.024z" class="Lu NK"/><path d="M49.5 20.832h.024v30.08H49.5z" class="Lu NL"/><path d="M49.524 20.832h.024v30.08h-.024z" class="Lu NM"/><path d="M49.548 20.832h.024v30.08h-.024z" class="Lu NN"/><path d="M49.57 20.832h.024v30.08h-.024z" class="Lu NO"/><path d="M49.595 20.832h.024v30.08h-.024z" class="Lu NP"/><path d="M49.62 20.832h.024v30.08h-.024z" class="Lu NQ"/><path d="M49.643 20.832h.024v30.08h-.024z" class="Lu NR"/><path d="M49.667 20.832h.024v30.08h-.024z" class="Lu NS"/><path d="M49.69 20.832h.024v30.08h-.024z" class="Lu NT"/><g class="NU"><path d="M49.715 20.832h.024v30.08h-.024z" class="Lu"/><path d="M49.738 20.832h.017l-.017 30.08z" class="Lu"/></g><path d="M49.755 20.832h.017l-.017 30.08z" class="Lu NV"/><path d="M49.77 20.832h.017l-.017 30.08z" class="Lu NW"/><path d="M49.788 20.832h.017l-.017 30.08z" class="Lu NX"/><path d="M49.805 20.832h.017l-.017 30.08z" class="Lu NY"/><path d="M49.82 20.832h.017l-.017 30.08z" class="Lu NZ"/><path d="M49.838 20.832h.017l-.017 30.08z" class="Lu Na"/><path d="M49.854 20.832h.017l-.017 30.08z" class="Lu Nb"/><path d="M49.87 20.832h.017l-.017 30.08z" class="Lu Nc"/><path d="M49.888 20.832h.017l-.017 30.08z" class="Lu Nd"/><path d="M49.904 20.832h.017l-.017 30.08z" class="Lu Ne"/><path d="M49.92 20.832h.017l-.017 30.08z" class="Lu Nf"/><path d="M49.938 20.832h.017l-.017 30.08z" class="Lu Ng"/><path d="M49.954 20.832h.017l-.017 30.08z" class="Lu Nh"/><path d="M49.97 20.832h.017l-.017 30.08z" class="Lu Ni"/><path d="M49.987 20.832h.017l-.017 30.08z" class="Lu Nj"/><path d="M50.004 20.832h.017l-.017 30.08z" class="Lu Nk"/><path d="M50.02 20.832h.017l-.017 30.08z" class="Lu Nl"/><path d="M50.037 20.832h.017l-.017 30.08z" class="Lu Nm"/><path d="M50.054 20.832h.017l-.017 30.08z" class="Lu Nn"/><path d="M50.07 20.832h.017l-.017 30.08z" class="Lu No"/><path d="M50.087 20.832h.017l-.017 30.08z" class="Lu Np"/><path d="M50.104 20.832h.017l-.017 30.08z" class="Lu Nq"/><path d="M50.12 20.832h.017l-.017 30.08z" class="Lu Nr"/><path d="M50.137 20.832h.017l-.017 30.08z" class="Lu Ns"/><path d="M50.153 20.832h.017l-.017 30.08z" class="Lu Nt"/><path d="M50.17 20.832h.017l-.017 30.08z" class="Lu Nu"/><path d="M50.187 20.832h.017l-.017 30.08z" class="Lu Nv"/><path d="M50.203 20.832h.017l-.017 30.08z" class="Lu Nw"/><path d="M50.22 20.832h.017l-.017 30.08z" class="Lu Nx"/><path d="M50.236 20.832h.017l-.017 30.08z" class="Lu Ny"/><path d="M50.253 20.832h.017l-.017 30.08z" class="Lu Nz"/><path d="M50.27 20.832h.017l-.017 30.08z" class="Lu OA"/><path d="M50.286 20.832h.017l-.017 30.08z" class="Lu OB"/><path d="M50.303 20.832h.017l-.017 30.08z" class="Lu OC"/><path d="M50.32 20.832h.017l-.017 30.08z" class="Lu OD"/><path d="M50.336 20.832h.017l-.017 30.08z" class="Lu OE"/><path d="M50.352 20.832h.017l-.017 30.08z" class="Lu OF"/><path d="M50.37 20.832h.017l-.017 30.08z" class="Lu OG"/><path d="M50.386 20.832h.017l-.017 30.08z" class="Lu OH"/><path d="M50.402 20.832h.017l-.017 30.08z" class="Lu OI"/><path d="M50.42 20.832h.017l-.017 30.08z" class="Lu OJ"/><path d="M50.435 20.832h.017l-.017 30.08z" class="Lu Lz"/><g class="OK"><path d="M50.452 20.832h.017l-.017 30.08z" class="Lu"/><path d="M50.47 20.832h.017l-.017 30.08z" class="Lu"/></g><path d="M50.486 20.832h.017l-.017 30.08z" class="Lu Lz"/><path d="M50.503 20.832h.017l-.017 30.08z" class="Lu OL"/><path d="M50.52 20.832h.017l-.017 30.08z" class="Lu OM"/><path d="M50.537 20.832h.017l-.017 30.08z" class="Lu ON"/><path d="M50.554 20.832h.017l-.017 30.08z" class="Lu OO"/><path d="M50.57 20.832h.017l-.017 30.08z" class="Lu OP"/><path d="M50.588 20.832h.017l-.017 30.08z" class="Lu OQ"/><path d="M50.605 20.832h.017l-.017 30.08z" class="Lu OR"/><path d="M50.622 20.832h.017l-.017 30.08z" class="Lu OS"/><path d="M50.64 20.832h.017l-.017 30.08z" class="Lu OT"/><path d="M50.657 20.832h.017l-.017 30.08z" class="Lu OU"/><path d="M50.674 20.832h.017l-.017 30.08z" class="Lu OV"/><path d="M50.69 20.832h.017l-.017 30.08z" class="Lu OW"/><path d="M50.708 20.832h.017l-.017 30.08z" class="Lu OX"/><path d="M50.725 20.832h.017l-.017 30.08z" class="Lu OY"/><path d="M50.742 20.832h.017l-.017 30.08z" class="Lu OZ"/><path d="M50.76 20.832h.017l-.017 30.08z" class="Lu Oa"/><path d="M50.776 20.832h.017l-.017 30.08z" class="Lu Ob"/><path d="M50.793 20.832h.017l-.017 30.08z" class="Lu Oc"/><path d="M50.8 20.832h.017l-.017 30.08z" class="Lu Od"/><path d="M50.827 20.832h.017l-.017 30.08z" class="Lu Oe"/><path d="M50.844 20.832h.017l-.017 30.08z" class="Lu Of"/><path d="M50.86 20.832h.017l-.017 30.08z" class="Lu Og"/><path d="M50.88 20.832h.017l-.017 30.08z" class="Lu Oh"/><path d="M50.896 20.832h.017l-.017 30.08z" class="Lu Oi"/><path d="M50.913 20.832h.017l-.017 30.08z" class="Lu Oj"/><path d="M50.93 20.832h.017l-.017 30.08z" class="Lu Ok"/><path d="M50.947 20.832h.017l-.017 30.08z" class="Lu Ol"/><path d="M50.964 20.832h.017l-.017 30.08z" class="Lu Om"/><path d="M50.98 20.832h.017l-.017 30.08z" class="Lu On"/><path d="M50.998 20.832h.017l-.017 30.08z" class="Lu Oo"/><path d="M51.015 20.832h.017l-.017 30.08z" class="Lu Op"/><path d="M51.032 20.832h.017l-.017 30.08z" class="Lu Oq"/><path d="M51.05 20.832h.017l-.017 30.08z" class="Lu Or"/><path d="M51.067 20.832h.017l-.017 30.08z" class="Lu Os"/><path d="M51.084 20.832h.017l-.017 30.08z" class="Lu Ot"/><path d="M51.1 20.832h.017l-.017 30.08z" class="Lu Ou"/><path d="M51.118 20.832h.017l-.017 30.08z" class="Lu Ov"/><path d="M51.135 20.832h.017l-.017 30.08z" class="Lu Ow"/><path d="M51.152 20.832h.017l-.017 30.08z" class="Lu Ox"/><path d="M51.17 20.832h.017l-.017 30.08z" class="Lu Oy"/><path d="M51.186 20.832h.017l-.017 30.08z" class="Lu Oz"/><path d="M51.203 20.832h.017l-.017 30.08z" class="Lu PA"/><g class="PB"><path d="M51.22 20.832h.017l-.017 30.08z" class="Lu"/><path d="M51.237 20.832h.027v30.08h-.027z" class="Lu"/></g><path d="M51.264 20.832h.027v30.08h-.027z" class="Lu PC"/><path d="M51.29 20.832h.027v30.08h-.027z" class="Lu PD"/><path d="M51.32 20.832h.027v30.08h-.027z" class="Lu PE"/><path d="M51.346 20.832h.027v30.08h-.027z" class="Lu PF"/><path d="M51.373 20.832h.027v30.08h-.027z" class="Lu PG"/><path d="M51.4 20.832h.027v30.08H51.4z" class="Lu PH"/><path d="M51.427 20.832h.027v30.08h-.027z" class="Lu PI"/><path d="M51.454 20.832h.027v30.08h-.027z" class="Lu PJ"/><path d="M51.48 20.832h.027v30.08h-.027z" class="Lu PK"/><path d="M51.508 20.832h.027v30.08h-.027z" class="Lu PL"/><path d="M51.535 20.832h.027v30.08h-.027z" class="Lu PM"/><path d="M51.562 20.832h.027v30.08h-.027z" class="Lu PN"/><path d="M51.59 20.832h.027v30.08h-.027z" class="Lu PO"/><path d="M51.616 20.832h.027v30.08h-.027z" class="Lu PP"/><path d="M51.643 20.832h.027v30.08h-.027z" class="Lu PQ"/><path d="M51.67 20.832h.027v30.08h-.027z" class="Lu PR"/><path d="M51.697 20.832h.027v30.08h-.027z" class="Lu PS"/><path d="M51.724 20.832h.027v30.08h-.027z" class="Lu PT"/><path d="M51.75 20.832h.027v30.08h-.027z" class="Lu PU"/><path d="M51.778 20.832h.027v30.08h-.027z" class="Lu PV"/><path d="M51.805 20.832h.027v30.08h-.027z" class="Lu PW"/><path d="M51.832 20.832h.027v30.08h-.027z" class="Lu PX"/><path d="M51.86 20.832h.027v30.08h-.027z" class="Lu PY"/><path d="M51.886 20.832h.027v30.08h-.027z" class="Lu PZ"/><path d="M51.914 20.832h.027v30.08h-.027z" class="Lu Pa"/><path d="M51.94 20.832h.027v30.08h-.027z" class="Lu Pb"/><path d="M51.968 20.832h.027v30.08h-.027z" class="Lu Pc"/><path d="M51.995 20.832h.027v30.08h-.027z" class="Lu Pd"/><g class="Pe"><path d="M52.022 20.832h.027v30.08h-.027z" class="Lu"/><path d="M52.05 20.832h.027v30.08h-.027z" class="Lu"/></g><path d="M52.076 20.832h.027v30.08h-.027z" class="Lu Pf"/><path d="M52.104 20.832h.027v30.08h-.027z" class="Lu Pg"/><path d="M52.13 20.832h.027v30.08h-.027z" class="Lu Ph"/><path d="M52.158 20.832h.027v30.08h-.027z" class="Lu Pi"/><path d="M52.186 20.832h.027v30.08h-.027z" class="Lu Pj"/><path d="M52.213 20.832h.027v30.08h-.027z" class="Lu Pk"/><path d="M52.24 20.832h.027v30.08h-.027z" class="Lu Pl"/><path d="M52.268 20.832h.027v30.08h-.027z" class="Lu Pm"/><path d="M52.296 20.832h.027v30.08h-.027z" class="Lu Pn"/><path d="M52.323 20.832h.027v30.08h-.027z" class="Lu Po"/><path d="M52.35 20.832h.027v30.08h-.027z" class="Lu Pp"/><path d="M52.378 20.832h.027v30.08h-.027z" class="Lu Pq"/><path d="M52.405 20.832h.027v30.08h-.027z" class="Lu Pr"/><path d="M52.433 20.832h.027v30.08h-.027z" class="Lu Ps"/><path d="M52.46 20.832h.027v30.08h-.027z" class="Lu Pt"/><path d="M52.487 20.832h.027v30.08h-.027z" class="Lu Pu"/><path d="M52.515 20.832h.027v30.08h-.027z" class="Lu Pv"/><path d="M52.542 20.832h.027v30.08h-.027z" class="Lu Pw"/><path d="M52.57 20.832h.027v30.08h-.027z" class="Lu Px"/><path d="M52.597 20.832h.027v30.08h-.027z" class="Lu Py"/><path d="M52.625 20.832h.027v30.08h-.027z" class="Lu Pz"/><path d="M52.652 20.832h.027v30.08h-.027z" class="Lu QA"/><path d="M52.68 20.832h.027v30.08h-.027z" class="Lu QB"/><path d="M52.707 20.832h.027v30.08h-.027z" class="Lu QC"/><path d="M52.734 20.832h.027v30.08h-.027z" class="Lu QD"/><path d="M52.762 20.832h.027v30.08h-.027z" class="Lu QE"/><path d="M52.79 20.832h.027v30.08h-.027z" class="Lu QF"/><path d="M52.817 20.832h.027v30.08h-.027z" class="Lu QG"/><path d="M52.844 20.832h.027v30.08h-.027z" class="Lu QH"/><path d="M52.87 20.832h.027v30.08h-.027z" class="Lu QI"/><g class="QJ"><path d="M52.9 20.832h.027v30.08H52.9z" class="Lu"/><path d="M52.926 20.832h.592v30.08h-.592z" class="Lu"/></g><path d="M50.197 51.01c-2.383 0-4.758-.677-6.775-1.965-.056-.036-.086-.102-.075-.17s.06-.12.126-.134c2.603-.6 5.998-3.218 7-8.56.576-3.07.273-6.265-.02-9.354l-.217-2.455c-.393-5.178-.043-9.28 1.104-12.908 1.435-4.543 4.172-8.17 7.706-10.217 3.98-2.303 9.003-2.33 12.502-.066 3.855 2.493 5.6 7.255 6.8 11.585a.17.17 0 0 1 .006.036c.002.035.012.34-.205.458-.232.127-.507-.07-.597-.135h0c-.487-.35-.967-.733-1.43-1.102-1.67-1.33-3.246-2.585-5.288-2.653-2.682-.092-5.322 1.267-6.722 3.458-1.888 2.956-1.393 6.677-.914 10.276l.28 2.264a32.56 32.56 0 0 1-.327 9.084c-.522 2.934-1.382 5.252-2.63 7.087-1.817 2.67-4.674 4.573-7.837 5.222a12.36 12.36 0 0 1-2.485.251zm-6.266-2.043c2.59 1.537 5.732 2.072 8.684 1.466 3.08-.632 5.86-2.484 7.63-5.083 1.222-1.795 2.066-4.07 2.58-6.957.528-2.968.636-5.993.323-8.99a81.6 81.6 0 0 0-.279-2.254c-.487-3.658-1-7.44.963-10.5 1.462-2.288 4.214-3.704 7.014-3.612 2.152.072 3.846 1.42 5.484 2.726.46.367.938.747 1.418 1.093.177.127.242.114.243.113.014-.01.03-.073.03-.132-1.24-4.477-2.908-8.95-6.654-11.373-3.396-2.196-8.28-2.166-12.154.075-3.462 2.003-6.145 5.565-7.555 10.028-1.133 3.587-1.48 7.648-1.09 12.782l.217 2.45c.295 3.112.6 6.33.016 9.447-.382 2.036-1.242 4.003-2.42 5.54-1.227 1.598-2.76 2.692-4.45 3.185z" class="Lv"/><path d="M134.006 197.668s7.853-4.98 8.427-4.597 8.906 2.777 8.906 2.777l-17.333 1.82z" class="Lw"/><path d="M134.006 197.835c-.07 0-.134-.044-.157-.112-.025-.073.003-.154.068-.196l4.003-2.445c4.16-2.447 4.45-2.253 4.606-2.15.406.27 5.52 1.796 8.86 2.756.077.022.127.095.12.175s-.07.143-.15.15l-17.333 1.82zm8.315-4.62c-.58 0-4.18 2.056-7.62 4.213l15.772-1.656-8.12-2.555c-.01-.002-.02-.002-.03-.002zm.036.004h0z" class="Lv"/><g class="Lx"><path d="M168.098 200.732l8.8.6.288-2.12zm.202 3.16l-.295 1.935-9-.882-.196-1.96zm-66.252 11.225c0-.42-2.484-5.044-2.484-5.044l1.95 4.127.535.917z"/><path d="M101.25 213.606l.797 1.5-7.705.662-1.414-1.72zm20.264-12.654l-.802-1.414-8.922 3.3.908 1.397"/><use xlink:href="#E"/></g><path d="M159.096 203.03c.287-.383 11.78-6.703 11.78-6.703l6.32 2.873-9.097 1.532.19 3.16-9.193-.862z" class="Lw"/><path d="M168.3 204.06l-9.21-.862c-.06-.006-.112-.043-.137-.1s-.017-.12.02-.168c.294-.392 9.908-5.69 11.832-6.75.046-.025.1-.028.15-.006l6.32 2.873c.067.03.106.1.096.173s-.065.13-.138.143l-8.95 1.507.182 3.01c.003.05-.016.096-.05.13s-.073.047-.116.047zm-8.733-1.153l8.554.802-.18-2.966c-.005-.085.055-.16.14-.175l8.56-1.442-5.748-2.612-11.325 6.393z" class="Lv"/><path d="M93.115 214.044c.096-.383 4.405-7.374 4.405-7.374l3.64 6.99-8.044.383z" class="Lw"/><path d="M93.115 214.2c-.05 0-.097-.022-.13-.06s-.046-.095-.033-.146c.097-.388 3.703-6.25 4.425-7.42.03-.05.09-.085.148-.08s.114.036.142.1l3.64 6.99c.026.05.025.11-.003.16s-.08.08-.137.084l-8.044.383zm4.393-7.203l-4.123 6.856 7.506-.357-3.383-6.5z" class="Lv"/><use xlink:href="#E" x="-0.907" y="-1.396" class="Lw"/><g class="Lv"><path d="M111.8 203.006c-.046 0-.1-.02-.123-.054-.04-.043-.054-.103-.037-.16l1.053-3.64c.022-.075.092-.123.17-.12l7.853.48c.08.005.144.064.155.143s-.034.154-.108.18l-8.93 3.167c-.01.002-.022.003-.033.003zm1.176-3.63l-.93 3.217 7.848-2.795-6.917-.422zm-9.568 7.906v-.162c.002-.057-.01-.1-.036-.16a.32.32 0 0 0-.086-.134c-.04-.038-.082-.07-.134-.086-.05-.026-.103-.038-.16-.036l-.1.015a.43.43 0 0 0-.184.107l-.065.084a.4.4 0 0 0-.057.2v.162c-.002.057.01.1.036.16a.32.32 0 0 0 .086.134c.04.038.082.07.134.086.05.026.103.038.16.036l.1-.015a.43.43 0 0 0 .184-.107l.065-.084a.4.4 0 0 0 .057-.2h0zm3.767 4.995l.038-.032-.084.065c.047-.036.1-.066.154-.1l-.1.042a.75.75 0 0 1 .182-.049l-.1.015a.73.73 0 0 1 .178 0l-.1-.015a.73.73 0 0 1 .097.02.43.43 0 0 0 .321-.042.42.42 0 0 0 .192-.25c.024-.107.02-.227-.042-.32a.44.44 0 0 0-.25-.192l-.087-.02-.195-.022a.72.72 0 0 0-.089.004l-.194.03a1.08 1.08 0 0 0-.258.1 1.13 1.13 0 0 0-.23.166c-.077.07-.122.194-.122.295s.045.224.122.295a.42.42 0 0 0 .295.122.45.45 0 0 0 .295-.122h0zm3.733 2.435l.65-.65a.43.43 0 0 0 .122-.295c0-.102-.045-.225-.122-.295a.42.42 0 0 0-.295-.122c-.1.005-.215.042-.295.122l-.65.65a.43.43 0 0 0-.122.295c0 .102.045.224.122.295a.42.42 0 0 0 .295.122c.1-.005.215-.042.295-.122h0z"/><use xlink:href="#F"/><use xlink:href="#G"/><path d="M126.286 202.543l-.324.162c-.05.026-.088.062-.117.107-.037.04-.062.088-.075.142s-.02.1-.007.166a.31.31 0 0 0 .049.155l.065.084c.052.052.113.087.184.107l.1.015c.075 0 .145-.02.2-.057l.324-.162c.05-.026.088-.062.117-.107.037-.04.062-.088.075-.142s.02-.1.007-.166a.31.31 0 0 0-.049-.155l-.065-.084c-.052-.052-.113-.087-.184-.107l-.1-.015c-.075 0-.145.02-.2.057h0zm24.698-3.44h.65a.43.43 0 0 0 .295-.122c.072-.072.127-.2.122-.295s-.04-.22-.122-.295-.182-.122-.295-.122h-.65a.43.43 0 0 0-.295.122c-.072.072-.127.2-.122.295s.04.22.122.295.182.122.295.122h0z"/><use xlink:href="#F" x="32.597" y="4.865"/><use xlink:href="#F" x="41.678" y="-4.055"/><use xlink:href="#G" x="57.247" y="6.974"/><use xlink:href="#F" x="71.356" y="6.811"/><use xlink:href="#G" x="56.598" y="9.568"/><use xlink:href="#G" x="75.085" y="-12.001"/><use xlink:href="#G" x="68.112" y="-8.92"/><use xlink:href="#G" x="-51.571" y="-4.379"/><use xlink:href="#G" x="-45.895" y="-3.396"/><use xlink:href="#F" x="-14.687" y="13.615"/><use xlink:href="#G" x="-30.983" y="16.074"/><use xlink:href="#F" x="45.776" y="11.115"/><path d="M43.374 196.66c.537 0 .538-.834 0-.834s-.538.834 0 .834h0zm16.98 13.335c.537 0 .538-.834 0-.834s-.538.834 0 .834h0zm9.227-1.465c-3.462 0-6.4-.233-9.1-.714-1.64-.292-3.933-.9-4.895-2.7-.72-1.353-.498-3.18.55-4.546 1.116-1.454 2.8-2.098 4.016-2.383 1.535-.36 3.124-.362 4.662-.364l5.2-.007c1.734-.002 3.525-.005 5.258.38 1.614.36 3.786 1.087 4.966 2.512.06.07.05.176-.022.235s-.176.05-.235-.022c-1.12-1.353-3.218-2.052-4.78-2.4-1.696-.377-3.47-.375-5.185-.372l-5.2.007c-1.518.002-3.088.005-4.586.355-1.163.272-2.77.886-3.827 2.262-.97 1.264-1.18 2.946-.52 4.186.894 1.68 3.087 2.25 4.66 2.53 3.346.597 7.068.8 11.712.666.903-.028 1.784-.07 2.628-.263l.047-.01c1.614-.37 4.053-.932 5.45-1.842.077-.05.18-.028.23.05s.028.18-.05.23c-1.447.942-3.92 1.5-5.558 1.887l-.047.01c-.873.2-1.772.243-2.693.27l-2.682.043z"/><path d="M75.368 208.082a.17.17 0 0 1-.15-.092l-.01-.02a12.72 12.72 0 0 1-1.143-7.725.17.17 0 0 1 .192-.137c.1.013.152.1.137.192-.43 2.54-.035 5.212 1.113 7.52l.01.02c.04.082.008.183-.075.224-.024.012-.05.018-.074.018zm-6.068-.452c-1.3 0-2.625-.086-4.283-.23-.092-.008-.16-.1-.152-.18s.088-.162.18-.152c3.128.27 5.025.335 7.995 0 .1-.01.174.055.184.147s-.055.174-.147.184a32.86 32.86 0 0 1-3.78.23z"/><path d="M67.094 204.146c-3.603 0-7.526-.082-11.732-.246-.092-.004-.164-.08-.16-.173s.08-.168.173-.16c7.097.276 13.384.32 18.688.13.1-.005.17.068.173.16s-.07.17-.16.173c-2.167.078-4.498.117-6.98.117zm6.842-1.768l-18.38-.114c-.092-.001-.166-.076-.166-.168s.075-.166.167-.166l18.38.114c.092.001.166.076.166.168s-.075.166-.167.166zm29.91 2.974a8.83 8.83 0 0 1-.184-.002l-5.577-.108c-.5-.01-1.1-.02-1.62-.213-.227-.083-.44-.196-.644-.306-.235-.126-.458-.245-.697-.32-.428-.132-.9-.1-1.337-.093a343.75 343.75 0 0 0-11.087.654c-.093.006-.172-.062-.18-.154s.062-.172.154-.18c3.94-.292 7.466-.5 11.097-.655.453-.02.967-.04 1.45.107.27.083.518.215.757.343.204.1.396.212.6.286.477.173 1.003.183 1.513.193l5.577.108c.383.008.722 0 .975-.172.173-.117.307-.3.436-.623a4.12 4.12 0 0 0 .044-2.984c-.063-.167-.156-.37-.316-.457-.127-.07-.302-.068-.456-.067l-6.313.046c-.732.005-1.55.056-1.977.595a2.52 2.52 0 0 0-.216.346c-.126.228-.257.464-.493.62-.284.188-.63.196-.908.202l-11.754.084c-.094.002-.168-.07-.17-.163s.07-.168.163-.17a280.83 280.83 0 0 1 5.88-.042l5.873-.042c.3-.006.543-.02.73-.146.168-.1.273-.302.385-.504.073-.132.15-.268.247-.392.52-.655 1.426-.716 2.236-.722l6.313-.046c.185-.002.415-.003.618.108.257.14.385.4.468.632a4.46 4.46 0 0 1-.048 3.228c-.096.235-.26.57-.558.773s-.672.232-.984.232z"/><path d="M81.26 208.413h0a1.39 1.39 0 0 1-1.389-1.389v-6.887a1.39 1.39 0 0 1 1.389-1.389h0a1.39 1.39 0 0 1 1.389 1.389v6.887a1.39 1.39 0 0 1-1.389 1.389zm140.38-21.18c-1.784 0-3.55-.863-4.6-2.316-.054-.074-.038-.18.037-.233s.18-.038.233.037a5.41 5.41 0 0 0 5.281 2.092c.826-.156 1.617-.5 2.315-.824 1.384-.62 3.262-1.658 3.997-2.54.67-.803.363-1.602-.418-2.7a14.43 14.43 0 0 1-6.482 1.823c-.486.02-1.1-.015-1.44-.44-.542-.653-.07-1.593.64-2.235 1.307-1.18 2.88-2.06 4.567-2.56a10.56 10.56 0 0 0-2.908-1.075c-.316-.067-.58-.103-.835-.07-.33.044-.638.2-.936.37l-4.097 2.202c-.56.3-1.193.64-1.608 1.16-.354.444-.584 1.175-.25 1.733.047.08.022.18-.058.23s-.18.022-.23-.058c-.417-.697-.16-1.563.277-2.112.458-.573 1.124-.93 1.7-1.247l4.097-2.202c.3-.167.66-.355 1.05-.408.322-.043.646.01.95.073a10.9 10.9 0 0 1 3.355 1.313c.058.035.1.1.08.167s-.058.12-.124.138c-1.784.46-3.448 1.355-4.815 2.6-.4.372-1.068 1.22-.608 1.774.26.312.763.334 1.172.32 2.262-.085 4.495-.726 6.458-1.853.074-.042.167-.023.218.046.72.98 1.412 2.117.493 3.22-.772.928-2.7 1.998-4.117 2.632-.715.32-1.525.684-2.4.847-.332.063-.668.094-1.004.094z"/><path d="M204.215 190.867c-.545 0-1.02-.096-1.434-.3-.742-.345-1.42-1.18-1.283-2.1.14-.958 1.036-1.562 1.893-2.027 3.626-1.967 7.468-3.568 11.42-4.757.088-.026.18.024.208.112s-.024.18-.112.208a60.36 60.36 0 0 0-11.357 4.731c-.785.425-1.602.97-1.722 1.782-.113.767.465 1.465 1.094 1.758.598.28 1.347.33 2.288.16 1.353-.245 2.6-.805 4-1.458a197.4 197.4 0 0 0 7.87-3.923c.08-.043.182-.012.225.07s.012.182-.07.225a196.89 196.89 0 0 1-7.883 3.929c-1.4.663-2.7 1.233-4.082 1.485a5.99 5.99 0 0 1-1.054.103zm21.977-13.464l-.18.974s-3.982 1.44-4.517 2.3-.3 1.573-.3 1.573-1.714-.34.114-2.227 3.935-2.4 3.935-2.4l.95-.238z"/><path d="M201.92 189.687s.4 1.64 2.643 1.606 8.532-3.212 8.532-3.212l4.65-2.6-.435-.502-6.692 3.413s-4.718 2.342-6.123 2.208-1.907-.3-2.576-.904z"/><circle cx="204.815" cy="188.198" r=".887"/><use xlink:href="#H"/><use xlink:href="#H" x="1.157"/><path d="M46.752 145.783c1.403.13 2.97-1.664 2.97-1.664s.88 1.374.217 1.795-1.715.752-2.196.45l-1-.583z"/></g><g fill="#fdfefe"><path d="M48.233 146.646c-.22 0-.422-.04-.58-.14l-.982-.578c-.07-.038-.102-.12-.08-.195s.096-.125.175-.117c1.3.125 2.813-1.6 2.828-1.608.035-.04.084-.06.138-.056s.1.032.128.076c.025.04.607.958.468 1.586-.042.19-.144.34-.302.44-.464.295-1.204.592-1.795.592zm-.918-.734l.516.31c.396.247 1.363-.034 2.018-.45.082-.052.133-.127.156-.23.072-.327-.147-.836-.314-1.146-.372.385-1.348 1.304-2.376 1.515z"/><path d="M35.26 149.926c.01-1.106.02-2.223.285-3.297s.817-2.114 1.716-2.758c.61-.438 1.345-.67 2.075-.85a20.1 20.1 0 0 1 7.044-.48c.187.753.153 1.548.35 2.298s.73 1.505 1.5 1.6c.684.076 1.31-.39 1.99-.487.106-.015.222-.02.313.037.105.065.15.192.185.31a5.89 5.89 0 0 1-.292 4.047c-.084.185-.183.37-.343.496-.165.13-.377.18-.583.222a24.11 24.11 0 0 1-6.362.484c-.668-.038-1.368-.116-1.913-.505-.61-.435-.907-1.17-1.3-1.814s-.993-1.275-1.74-1.232c-.913.053-1.47 1.16-1.263 2.05l-1.605-.016"/></g><path d="M44.5 151.746a24.23 24.23 0 0 1-1.379-.039c-.657-.037-1.408-.113-2-.535-.505-.36-.804-.905-1.093-1.432l-.244-.433c-.215-.36-.802-1.194-1.587-1.15-.31.018-.6.186-.816.474a1.73 1.73 0 0 0-.294 1.373c.012.05 0 .102-.032.142s-.084.065-.132.063l-1.597-.016-.004-.115c-.022.01-.048.017-.074.017-.092-.001-.166-.076-.166-.168.01-1.1.018-2.237.3-3.336.307-1.237.94-2.25 1.78-2.853.65-.466 1.443-.705 2.132-.877 2.328-.582 4.718-.745 7.103-.484.07.008.127.058.144.126.095.38.134.77.173 1.15s.08.777.176 1.147c.177.675.666 1.4 1.358 1.466.364.04.72-.094 1.097-.235.273-.103.555-.21.852-.25.124-.017.283-.026.424.06.15.092.212.25.257.406.396 1.358.286 2.875-.3 4.163-.093.203-.204.412-.392.558s-.415.204-.65.254c-1.653.35-3.34.527-5.027.527zm-6.238-3.925c.9 0 1.512.818 1.81 1.316l.25.443c.283.517.55 1.004.994 1.32.52.37 1.215.44 1.825.474 2.118.12 4.243-.04 6.318-.48.203-.043.382-.087.515-.19s.22-.27.294-.434c.554-1.216.657-2.65.283-3.93-.027-.092-.06-.182-.113-.215s-.14-.023-.202-.014c-.26.037-.514.132-.782.233-.397.15-.807.304-1.25.255-.908-.1-1.453-.986-1.644-1.713-.104-.396-.145-.804-.185-1.198l-.138-.99c-2.307-.24-4.617-.074-6.868.488-.692.173-1.415.393-2.02.825-.777.557-1.364 1.502-1.65 2.662-.257 1.037-.27 2.13-.28 3.19l1.3.013c-.057-.5.084-1.035.388-1.442.275-.368.653-.583 1.064-.607l.084-.002z" class="Lv"/><path d="M50.075 150.737s-.685-6.554-.223-6.857c1.267-.832 3.156-.036 4.095 1.155s1 2.99.168 4.25-2.532 1.886-3.99 1.475" class="Lx"/></svg>