<svg xmlns="http://www.w3.org/2000/svg" viewBox="0 0 344.34 380"  xmlns:v="https://vecta.io/nano"><style><![CDATA[.b{stroke:#212323}.c{stroke-miterlimit:10}.d{stroke-linejoin:round}.e{stroke-linecap:round}.f{stroke-width:.516}.g{fill:none}.h{stroke:#e9e9e9}.i{stroke:#fcfcfc}.j{fill:#e9e9e9}.k{stroke:#fff}.l{fill:#212323}.m{fill:#fcfcfc}.n{fill:#b0a8d3}.o{stroke-width:.258}]]></style><ellipse cx="157.92" cy="248.62" rx="95.55" ry="94.64" class="m"/><g class="f c"><g class="d"><path d="M230.03 113.17s.74 9.15 7.3 13.34c6.55 4.2 21.5 1.1 21.5 1.1l-28.8-14.45z" class="g h"/><g class="k l"><path d="M187.73 166.38c-1.86-.18-3.63-1.45-4.5-3.07s-1.16-3.5-1.18-5.35c-.02-1.07.05-2.17.4-3.18 1.16-3.3 5.27-4.9 8.7-4.13s6.1 3.3 8.12 6.3c-.46 1.7-1.04 3.12-1.67 4.27-.42.76-2.55-2.26-2.67-1.54-.37 2.3-.04 4.87-.08 4.92-2.24 2.88-5.95 1.88-7.1 1.77z"/><g class="e"><path d="M194.97 159.2c.73.52 1.02 1.5 1.85 1.9.87.42 1.83-.15 2.3-.9.62-1.02.3-2.26.1-3.35m-9.72 10.85c-1.3-.34-1.53-.8-2.1-2-1.6-3.32-2.25-7.12-1.8-10.78m6.54 14.44c-2.3.4-3.24-2.93-3.6-4.88a25.39 25.39 0 0 1 .26-10.38"/><path d="M195.83 157.2c.38-1.26-.6 1.38-.72 1.86-.3 1.22-.36 2.3-.43 3.57-.1 1.68.68 4.93 0 6.43-1.74 3.83-3.5-1.5-3.72-3.58-.34-3.2.02-6.63.57-9.7"/></g></g></g><g class="g"><path d="M196.2 153.14c6.7-19.65 15.7-43.03 23.98-62.06" class="i"/><path d="M198.15 155.48c3.3 1.38 6.5 4.74 6.7 8.3" class="h"/><g class="i"><path d="M222.34 143.5c1.14 8.1 2.84 16.47 4.9 24.38m.01-.01c12.04 3.53 25.16 4.34 37.5 2.15 3.57-.63 7.8-1.5 10.55-3.88"/><path d="M249.25 82.5c4.16-.93 8.25-2.42 11.73-4.9 3.47-2.47 6.3-6 7.4-10.12m11.2-10.46c.44 1.87-.35 3.87-1.6 5.33s-2.93 2.48-4.57 3.48c-1.2.74-2.5 1.5-3.9 1.58-1.8.1-3.45-.9-5.08-1.64a21.09 21.09 0 0 0-8.49-1.92c-1.53-.02-3.14.16-4.4 1.03m2.74-18.08c-1.82 4.64-6.4 8.06-11.35 8.5-.9.08-1.8.07-2.64.37s-1.62 1-1.68 1.9c-.02.34.06.67.04 1-.08 1.1-1.18 1.8-1.86 2.66-1.72 2.2-.44 5.74 2 7.06s5.53.84 8.05-.35c4-1.9 7-5.4 9.86-8.8" class="d e"/></g></g></g><path d="M240.75 60.5c-.12.35-.44.6-.7.86s-.47.67-.3 1c.25.48.97.33 1.44.06.45-.26.86-.58 1.23-.95.17-.17.34-.37.34-.6 0-.34-.37-.58-.7-.58-.34.01-.97.06-1.26.23" class="j"/><path d="M257.68 50.33c-.17 1.78 1.34 3.45 3.1 3.8 1.76.34 3.6-.48 4.83-1.78" class="c d e f g i"/><path d="M254.4 38.5c-.74 1.72-1.5 3.52-1.44 5.4.07 1.88 1.22 3.86 3.06 4.24 1.6.33 3.2-.6 4.28-1.82.98-1.1 1.76-2.5 3.13-3.04 1.82-.7 3.92.45 5.8-.06 1.2-.33 2.17-1.33 2.68-2.48s.64-2.43.64-3.7c0-1.13-.1-2.28-.52-3.34-1.2-3.07-5.14-4.6-8.24-3.46s-5.07 4.55-4.88 7.85c.05.8.2 1.62.04 2.4-.17.8-.78 1.57-1.6 1.58-.55.01-1.05-.34-1.44-.74a5.25 5.25 0 0 1-1.46-3.16" class="j"/><path d="M266.32 29.5a16.12 16.12 0 0 1 1.7-5.14 17.44 17.44 0 0 1 1.31 6.3m3 7c2.17-3.3 6.52-7.8 8.7-11.1a97.81 97.81 0 0 1-.14 12.58c-.1 1.48-.28 3.03-1.1 4.26-.83 1.24-2.52 2.02-3.85 1.34m4.25-1.6c5.68 3.9 8.72 10.6 10.57 17.25.53 1.9 1 3.86 1.1 5.84.14 2.56-.33 5.12-1 7.6-2.83 10.3-9.58 19.5-18.58 25.25m9.3-66a28.65 28.65 0 0 1 7.99 5.02l-1.05 2.47c.78-1.06 2.38-1.2 3.6-.67 1.2.52 2.1 1.54 2.97 2.53l4.07 4.68c.52.6 1.05 1.22 1.27 1.98s.02 1.7-.66 2.1c.83-.32 1.8.02 2.47.6.66.6 1.08 1.4 1.5 2.2l3.64 7.1c.52 1.02 1.06 2.07 1.14 3.2s-.4 2.4-1.44 2.9c.68.48 1.28 1.06 1.78 1.73l-2.08 1.34c1.8 1.3 1.76 3.96 1.45 6.17-.47 3.4-1.12 6.77-1.93 10.1l-1.44-.8c1.1 2.38.17 5.16-.86 7.57a87.56 87.56 0 0 1-7.6 14.03M271.3 68.5a15.79 15.79 0 0 0 7.57-4.09m-5.23 5.06a6.36 6.36 0 0 0 2.88-1.51" class="c d e f g i"/><path d="M273.56 38.6l4.4-6.06c.26 2.4.08 4.87-.54 7.2-.18.66-.4 1.34-.87 1.84s-1.25.77-1.86.46c-.44-.22-.7-.7-.88-1.16-.26-.7-.36-1.47-.3-2.2" class="j"/><g class="c f g"><path d="M227.23 167.65c-.96 3.83-2.27 9.06-2.9 12.96m3.1 2.96l3.95-6.76c.23-.4.8-.32.94.12a197.84 197.84 0 0 0 3.81 12.12 1.8 1.8 0 0 0 3.32.18c1.64-3.44 3.4-7.5 5.3-10.93.2-.37.76-.34.92.05h0l4.87 13.17c.6 1.65 3 1.53 3.43-.18 1.1-4.26 2.28-8.48 3.83-12.6.16-.42.74-.45.94-.05a426.59 426.59 0 0 0 7.96 15.3c.68 1.25 2.5 1.25 3.16 0a183.76 183.76 0 0 0 6.75-13.91" class="i"/><path d="M252.92 258l8.78 86.12s11.43 4.06 17.7 2.95 10.32-3.32 10.32-3.32l-4.06-67.45m-25.44 53.46c-6.4 2.12-13.1 2.76-19.72 1.25-6.18-1.4-7.1-3.42-6.6-9.45l1.46-18.28" class="h"/><g class="d e"><g class="i"><path d="M253.68 254c4.26.53 8.22-1.53 8.7-5.8m17.12 96.03c2.7.06 5.4-.82 7.53-2.45"/><path d="M281.57 341.67a8.12 8.12 0 0 0 3.77-1.16"/></g><path d="M267.65 345.84c-6.16 1.37-12.23 3.75-18.07 6.15-1.22.5-2.6 1.2-2.87 2.5-.15.7.06 1.42.4 2.04.9 1.6 2.63 2.6 4.42 3.03s3.66.3 5.5.17a126.44 126.44 0 0 0 17.95-2.7c2.03-.46 4.26-1.13 5.34-2.9 1.16-1.92.7-4.9.05-7.06m-32.24 11.03c3.17 4.56 10.56 4.26 15.54 3.58a107.12 107.12 0 0 0 11.79-2.28c1.65-.4 2.42-.62 3.68-1.77 1.25-1.15 2.24-4.87 1.93-6.8m-41.45-20.03c-4.24 1.22-8.23 3.16-12.23 5.03-1.12.52-2.37 1.27-2.5 2.5-.1.9.52 1.75 1.3 2.2.77.46 1.7.6 2.6.7 5.05.55 10.14.07 15.2-.4l7.18-.68c2.28-.22 4.9-.64 6.06-2.63.42-.73.58-1.57.66-2.4a17.55 17.55 0 0 0-.12-4.58m-32.45 6.76c.65 1.57 3.38 1.85 5.07 1.7l20.66-1.88c2.38-.22 5.54-.5 6.82-2.52" class="h"/></g><path d="M204.82 163.68l.06 2.28" class="h"/><path d="M264.83 151.84c.1-.07.2.01.18.1-.5 1.5-3.66 7.2-17.04 7.8-15.45.7-15.6 9.13-15.6 9.13l-4.97-1.1-3.72-17c-.9-4.8-.52-3.88-.52-3.88s8.23 6.27 17.54 8.13 12.9 1.32 14 1.03c1.1-.3 6.3-.9 10.1-4.22zm-58.18-17.8l11.6 9.48 3.03 2.25-1.95 4.9c-.01 0-7.23-2.8-12.7-16.62z" class="d h"/><path d="M229.97 111.33c0 4.04-.8 8.03-1.7 11.96-3.66 15.78-9.7 32.03-17.27 46.35" class="h"/><g class="d e i"><path d="M165.6 100.5c-.7 1.6-1.32 4.1-1.53 5.84-.06.48-.04 1.08.4 1.3.5.26 1.05-.27 1.4-.73l1.3-1.8c.3-.4.6-.84 1.03-1.1.95-.6 2.18-.3 3.26.01l3.7 1.08m-4-11.72l-.82-2.44c-.12-.35-.25-.72-.53-.97-.4-.37-1.03-.37-1.58-.35l-5.04.2c-.32.01-.66.01-.9-.2-.3-.23-.33-.7-.17-1.03.15-.34.45-.6.75-.8 1.73-1.26 3.84-1.86 5.9-2.44.87-.24 1.83-.48 2.63-.06.46.24.8.66 1.1 1.06l5.5 6.9.77.94c5.23 5.36 12.5 7.7 18.92 11.73"/><path d="M175.1 99.45l-1.45-2.75-.58-1.26c-.18-.42-.28-.87-.52-1.26-.54-.86-2-.58-2.83-.43-1.45.26-2.86.65-4.23 1.18-.44.17-.88.36-1.23.66-.44.38-.72.92-.97 1.45-1.03 2.14-1.88 4.37-2.54 6.65-.05.18-.1.36-.06.54.08.36.5.56.86.5s.68-.28.96-.5c1.4-1.2 2.38-2.76 3.48-4.23.2-.27.42-.54.72-.67.36-.15.76-.08 1.14.01a30.17 30.17 0 0 1 5.57 1.8m-6.35 4.08c-.12.3-.46 1.8-.5 2.14-.07.87 1.02 1.3 1.58.64l.47-.57c.37-.44.76-.9 1.3-1.13 1.23-.5 2.53.46 3.6 1.27a19.86 19.86 0 0 0 3.39 2.05c.68.32 1.44.6 2.18.46.5-.1.95-.4 1.38-.68l3.97-2.67m-.74.57c2.58 2.74 5.04 5.07 7.9 7.53"/></g></g><path d="M335.4 251.98c-.8-1.87-2.63-3.8-3.43-5.08-2.15-3.44-4.14-6.97-6-10.58-3.8-7.43-6.96-15.2-9.54-23.13-5.1-15.74-7.94-32.18-8.97-48.68-.72-11.48-.6-23.02-2-34.44-1.26-10.2-4.4-21.23-13-26.86-4.76-3.12-10.57-4.13-16.22-4.87-4.13-.54-8.5-.85-12.48-2.07-2.8-.85-5.47-2.32-7.32-4.58-3.03-3.72-3.66-8.6-8.8-10.1-4.73-1.4-8.55.2-13.34-.47-1.2-.14-3.63.23-4.84.33-2.67.23-5.1 1.8-6.8 3.88s-2.7 5.26-3.38 7.85c1.2-4.66 7.02-.08 7.44 2.74.26 1.68.01 3.4-.05 5.1-.28 8.27 4.23 16.34 10.95 21.18 4.48 3.23 9.84 5.07 15.3 5.68 5.03.55 9.56-.86 14.55-.66 6.85.27 13.76 1.4 20.46 2.84-3.43 12-10.9 22.54-12.83 35-2.07 13.32-.7 27.03.3 40.4 1.15 15.6 2.66 31.2 4.6 46.72 2.07 16.7 3.23 35.03 13.77 48.17.27.34.65.04.65.04 12.77-6.2 24.32-14.9 33.82-25.44 1.43-1.58 3.63-5.98-.1-6.52-1.25-.18-2.5.3-3.76.33s-2.77-.64-2.84-1.9c-.03-.48.16-.94.38-1.37 2-3.9 6.4-5.78 10.28-7.82 1.32-.7 2.7-1.5 3.36-2.85.4-.87.26-1.84-.16-2.82z" class="n"/><g class="c d f"><path d="M266.07 150.9l-2.9 1.63-.22.13c-6.9 4.48-15.1 3.84-23.07 1.8-7.97-2.04-15.13-6.45-21.74-11.35a146.13 146.13 0 0 1-27.53-26.73l8.7-12.44c7.4 7.96 15.3 15.44 23.67 22.4 4.17 3.46 8.55 6.85 13.64 8.72 10.1 3.7 22.37.43 29.27-7.83 3.38-4.05 5.52-9.08 9.2-12.86l2.46-1.48c3.36-2.2 8-.53 10.5 2.6s2.9 7.6 1.78 11.45-3.56 7.2-6.23 10.2c-1.2 1.33-2.43 2.6-3.73 3.83-1.3 1.23-2.66 2.4-4.06 3.52a67.87 67.87 0 0 1-4.34 3.17c-1.5 1-3.03 1.9-4.6 2.8-.27.17-.55.32-.83.47z" class="k l"/><path d="M254.3 153.23c.63-2.9 4.8-4.28 7.04-2.3" class="e g i"/></g><g class="n"><ellipse cx="163.4" cy="88.8" rx="1.23" ry=".94" stroke="#b0a8d3" class="o"/><path d="M161.53 105a1.37 1.37 0 0 0 .64-.5c.1-.15.17-.34.23-.52l.07-.22c.01-.03.02-.07.04-.1.04-.12-.07.15-.01.02.02-.03.03-.06.05-.1.08-.12-.1.1-.02.02l.03-.03c.05-.05-.13.1-.07.05.02-.01.03-.02.05-.03.1-.06-.05.01-.06.02.04-.05.2-.06.25-.08.12-.04.25-.08.36-.14a1.08 1.08 0 0 0 .54-.74l.03-.17c.01-.03.04-.1-.01-.01-.06.13.05-.05-.04.05-.1.1.07-.04-.05.04-.06.05-.12.07-.2.08-.02 0-.04.01-.06.01a.35.35 0 0 1-.33-.15c-.1-.1-.1-.12-.07-.06l-.04-.1c.02.07-.01-.16-.01-.08v.07c0 .08.03-.14.01-.06-.01.02-.01.05-.02.07-.01.03-.02.05-.03.07-.03.08.06-.12.02-.05-.03.06-.06.1-.1.17-.03.05-.07.1-.1.14-.06.1.02-.03.03-.04a.55.55 0 0 0-.07.09c-.08.1-.17.2-.25.28l-.28.26-.15.13c.01-.01.12-.1.04-.03-.03.02-.06.05-.1.07-.14.1-.25.2-.3.38-.04.15-.02.36.06.5.18.27.6.44.88.23.5-.35.9-.76 1.26-1.24.2-.28.34-.6.37-.93.04-.42-.17-.9-.6-1-.5-.13-.96.2-1.1.65-.03.1-.05.22-.07.33-.02.12.06-.1.02-.03s.12-.12.04-.05c-.07.06.06-.05.06-.05 0 .01-.06.03-.07.04.13-.1.12-.05.06-.03-.02.01-.05.02-.07.02-.04.01-.1.03-.13.04-.14.04-.28.1-.4.17-.2.14-.4.33-.5.56-.1.22-.17.44-.25.67-.01.02-.01.03-.02.05-.04.1.08-.16.02-.05-.02.04-.04.08-.07.12-.04.06-.03-.02.06-.07l-.05.05c-.06.07.13-.08.07-.05-.05.02-.15.06.06-.02-.16.06-.3.14-.38.3-.08.14-.12.34-.06.5.1.32.46.6.8.47h0zm2.74-15.54l.37-.3.18-.14c.03-.03.06-.05.1-.08-.03.02-.05.04-.08.06l.06-.03-.15.06c.02-.01.04-.01.06-.02-.06.01-.1.02-.17.02h.03c-.06-.01-.1-.02-.17-.02.01 0 .02.01.02.01l-.15-.06c.06.03.03.01-.07-.06l-.06-.08c.01.03.03.05.04.08.02.05.04.1.07.14.13.2.33.35.57.42.26.07.52.01.78.04-.06-.01-.1-.02-.17-.02l.13.03-.15-.06s.06.03.05.03a.36.36 0 0 0-.1-.07c.04.04.02.02-.06-.08l.23-.88a.67.67 0 0 1-.17.07l.15-.06a2.66 2.66 0 0 1-.67.18c.06-.01.1-.02.17-.02a2.97 2.97 0 0 1-.73 0c.06.01.1.02.17.02l-.3-.06c-.33-.08-.7.1-.8.45-.07.33.1.7.45.8.8.2 1.62.1 2.35-.26.3-.14.43-.62.23-.88-.1-.14-.2-.26-.36-.34-.17-.1-.33-.1-.5-.12-.17-.01-.33.02-.5 0 .06.01.1.02.17.02l-.1-.03.15.06c-.08-.04-.05-.07.04.05l-.02-.02c-.03-.04-.01-.01.07.08a2.45 2.45 0 0 0-.08-.17.8.8 0 0 0-.89-.42c-.26.06-.45.25-.65.4l-.46.36c-.12.1-.2.3-.2.46a.66.66 0 0 0 .19.46c.12.1.28.2.46.2.18-.04.32-.1.46-.22h0z"/></g><linearGradient id="A" gradientUnits="userSpaceOnUse" x1="266.066" y1="19.549" x2="279.443" y2="19.549"><stop offset=".001" stop-color="#b1a9d3"/><stop offset=".203" stop-color="#9dd3d9"/><stop offset=".361" stop-color="#bedcce"/><stop offset=".507" stop-color="#ead4c8"/><stop offset=".661" stop-color="#bdc3d2"/><stop offset=".824" stop-color="#d1a5cb"/><stop offset="1" stop-color="#eec5c5"/></linearGradient><path d="M273.85 35.64c-2.9-9.28-4.74-21.44-7.5-31.65a.42.42 0 0 1 .78-.29c4.34 8.8 7.95 17.78 12.06 25.7" stroke="url(#A)" class="c d e f g"/><linearGradient id="B" gradientUnits="userSpaceOnUse" x1="268.791" y1="13.72" x2="271.275" y2="13.72"><stop offset=".001" stop-color="#b1a9d3"/><stop offset=".203" stop-color="#9dd3d9"/><stop offset=".361" stop-color="#bedcce"/><stop offset=".507" stop-color="#ead4c8"/><stop offset=".661" stop-color="#bdc3d2"/><stop offset=".824" stop-color="#d1a5cb"/><stop offset="1" stop-color="#eec5c5"/></linearGradient><path d="M269.05 15.4c.9-.08 2.05-2.6 1.96-3.33" stroke="url(#B)" class="c d e f g"/><linearGradient id="C" gradientUnits="userSpaceOnUse" x1="268.293" y1="10.877" x2="270.15" y2="10.877"><stop offset=".001" stop-color="#b1a9d3"/><stop offset=".203" stop-color="#9dd3d9"/><stop offset=".361" stop-color="#bedcce"/><stop offset=".507" stop-color="#ead4c8"/><stop offset=".661" stop-color="#bdc3d2"/><stop offset=".824" stop-color="#d1a5cb"/><stop offset="1" stop-color="#eec5c5"/></linearGradient><path d="M268.55 12.26c.72-.06 1.4-2.2 1.34-2.77" stroke="url(#C)" class="c d e f g"/><linearGradient id="D" gradientUnits="userSpaceOnUse" x1="267.477" y1="8.567" x2="269.176" y2="8.567"><stop offset=".001" stop-color="#b1a9d3"/><stop offset=".203" stop-color="#9dd3d9"/><stop offset=".361" stop-color="#bedcce"/><stop offset=".507" stop-color="#ead4c8"/><stop offset=".661" stop-color="#bdc3d2"/><stop offset=".824" stop-color="#d1a5cb"/><stop offset="1" stop-color="#eec5c5"/></linearGradient><path d="M267.73 9.6c.64-.07 1.25-1.6 1.18-2.05" stroke="url(#D)" class="c d e f g"/><linearGradient id="E" gradientUnits="userSpaceOnUse" x1="267.002" y1="6.583" x2="268.357" y2="6.583"><stop offset=".001" stop-color="#b1a9d3"/><stop offset=".203" stop-color="#9dd3d9"/><stop offset=".361" stop-color="#bedcce"/><stop offset=".507" stop-color="#ead4c8"/><stop offset=".661" stop-color="#bdc3d2"/><stop offset=".824" stop-color="#d1a5cb"/><stop offset="1" stop-color="#eec5c5"/></linearGradient><path d="M267.26 7.3c.4-.08.7-.8.84-1.4" stroke="url(#E)" class="c d e f g"/><linearGradient id="F" gradientUnits="userSpaceOnUse" x1="266.594" y1="4.847" x2="267.621" y2="4.847"><stop offset=".001" stop-color="#b1a9d3"/><stop offset=".203" stop-color="#9dd3d9"/><stop offset=".361" stop-color="#bedcce"/><stop offset=".507" stop-color="#ead4c8"/><stop offset=".661" stop-color="#bdc3d2"/><stop offset=".824" stop-color="#d1a5cb"/><stop offset="1" stop-color="#eec5c5"/></linearGradient><path d="M266.85 5.3c.25-.1.42-.46.5-.88" stroke="url(#F)" class="c d e f g"/><linearGradient id="G" gradientUnits="userSpaceOnUse" x1="269.433" y1="16.396" x2="272.417" y2="16.396"><stop offset=".001" stop-color="#b1a9d3"/><stop offset=".203" stop-color="#9dd3d9"/><stop offset=".361" stop-color="#bedcce"/><stop offset=".507" stop-color="#ead4c8"/><stop offset=".661" stop-color="#bdc3d2"/><stop offset=".824" stop-color="#d1a5cb"/><stop offset="1" stop-color="#eec5c5"/></linearGradient><path d="M269.7 18.33c.9-.08 2.7-2.73 2.44-3.87" stroke="url(#G)" class="c d e f g"/><linearGradient id="H" gradientUnits="userSpaceOnUse" x1="270.141" y1="19.707" x2="273.789" y2="19.707"><stop offset=".001" stop-color="#b1a9d3"/><stop offset=".203" stop-color="#9dd3d9"/><stop offset=".361" stop-color="#bedcce"/><stop offset=".507" stop-color="#ead4c8"/><stop offset=".661" stop-color="#bdc3d2"/><stop offset=".824" stop-color="#d1a5cb"/><stop offset="1" stop-color="#eec5c5"/></linearGradient><path d="M270.4 21.84c1.23-.08 3.17-2.92 3.13-4.26" stroke="url(#H)" class="c d e f g"/><linearGradient id="I" gradientUnits="userSpaceOnUse" x1="271.204" y1="23.419" x2="275.487" y2="23.419"><stop offset=".001" stop-color="#b1a9d3"/><stop offset=".203" stop-color="#9dd3d9"/><stop offset=".361" stop-color="#bedcce"/><stop offset=".507" stop-color="#ead4c8"/><stop offset=".661" stop-color="#bdc3d2"/><stop offset=".824" stop-color="#d1a5cb"/><stop offset="1" stop-color="#eec5c5"/></linearGradient><path d="M271.46 25.63c1.2-.08 3.83-2.4 3.77-4.42" stroke="url(#I)" class="c d e f g"/><linearGradient id="J" gradientUnits="userSpaceOnUse" x1="272.203" y1="27.927" x2="277.25" y2="27.927"><stop offset=".001" stop-color="#b1a9d3"/><stop offset=".203" stop-color="#9dd3d9"/><stop offset=".361" stop-color="#bedcce"/><stop offset=".507" stop-color="#ead4c8"/><stop offset=".661" stop-color="#bdc3d2"/><stop offset=".824" stop-color="#d1a5cb"/><stop offset="1" stop-color="#eec5c5"/></linearGradient><g class="d f g"><g class="c"><path d="M272.46 30.8c1.2-.08 4.6-3.7 4.53-5.73" stroke="url(#J)" class="e"/><path d="M56.77 140.1L68.82 201l6.35-.55 2.67-.93s-5.9-10.9-9.86-22.27c-3.94-11.37-9.28-30.96-9.28-30.96l-1.93-6.2z" class="b"/><path d="M194.86 161.07c34.13 14.35 58.5 48.1 58.5 87.08 0 39.53-24.46 73.8-59.36 87.8m-50.14-180.98c4.64-.7 9.37-1.08 14.17-1.08 7.64 0 16.8 1.35 23.93 3.03m-92.5 25.74c11.75-11.8 27.02-20.9 43.86-25.48" class="e k"/><path d="M83.6 334.06c2.84 5.2 9.27 6.3 14.6 7.06" class="b e"/></g><circle cx="243.07" cy="221.5" r="1.32" class="b"/><circle cx="184.06" cy="282.61" r="1.32" class="b"/><circle cx="88.98" cy="229.67" r="1.32" class="b"/><circle cx="104.71" cy="240.28" r=".72" class="b"/><circle cx="92.41" cy="298.94" r=".72" class="b"/><circle cx="98.73" cy="296.04" r=".72" class="b"/><circle cx="98.2" cy="305.34" r=".72" class="b"/><circle cx="110.24" cy="291.83" r=".72" class="b"/><circle cx="124.8" cy="309.21" r=".72" class="b"/><circle cx="162.2" cy="290.25" r=".72" class="b"/><circle cx="205.33" cy="319.22" r=".72" class="b"/><circle cx="154.76" cy="299.47" r=".72" class="b"/><circle cx="164.84" cy="301.38" r=".72" class="b"/><circle cx="102.41" cy="261.01" r=".72" class="b"/><circle cx="157.91" cy="238.88" r=".72" class="b"/><circle cx="160.02" cy="245.74" r=".72" class="b"/><circle cx="167.13" cy="249.42" r=".72" class="b"/><circle cx="195.92" cy="275.42" r=".72" class="b"/><circle cx="243.33" cy="234.15" r=".72" class="b"/><circle cx="247.81" cy="242.05" r=".72" class="b"/><circle cx="246.49" cy="252.06" r=".72" class="b"/><circle cx="240.17" cy="245.74" r=".72" class="b"/><circle cx="242.01" cy="270.76" r=".72" class="b"/><circle cx="239.38" cy="258.11" r=".72" class="b"/><circle cx="224.37" cy="266.81" r=".72" class="b"/><circle cx="234.9" cy="267.33" r=".72" class="b"/><circle cx="227.45" cy="289.19" r=".72" class="b"/><circle cx="233.85" cy="292.88" r=".72" class="b"/><circle cx="221.2" cy="303.68" r=".72" class="b"/><circle cx="220.68" cy="310.27" r=".72" class="b"/><circle cx="232.27" cy="299.54" r=".72" class="b"/><circle cx="216.99" cy="319.22" r=".72" class="b"/><circle cx="193.29" cy="330.73" r=".72" class="b"/><circle cx="221.13" cy="283.13" r=".72" class="b"/><circle cx="228.24" cy="284.19" r=".72" class="b"/><circle cx="230.95" cy="257.51" r=".72" class="b"/><circle cx="235.43" cy="283.85" r=".72" class="b"/><circle cx="163.78" cy="315.61" r=".72" class="b"/><circle cx="170.9" cy="315.8" r=".72" class="b"/><circle cx="89.24" cy="237.04" r=".72" class="b"/><circle cx="86.35" cy="223.68" r=".72" class="b"/></g><g class="m b d f"><circle cx="145.68" cy="268.19" r="8.76"/><circle cx="194.01" cy="313.69" r="8.76"/><circle cx="193.48" cy="195.69" r="5.93"/></g><g class="c g b d f"><path d="M94.8 313.9a14.07 14.07 0 0 1-4.22-3.91m49.44-45.6a6.78 6.78 0 0 0 .31 6.38c1.16 1.9 3.32 3.14 5.54 3.2m50.85-85.68c2.76 1.1 4.58 4.2 4.2 7.14m6.04 29.46c-1.14 1.37-.88 3.7.54 4.77m2.38.27l1.6-.5m1.02-3.2c.37-.33.37-1 0-1.3m-2.9-.84c.4-.2.93-.17 1.3.1m12.38 14.12c1.65-1.55 3.67-2.72 5.84-3.36m-3.16 5.24a3.87 3.87 0 0 1 2.35-1.37m-14.08-46.63c-.32.63-.06 1.43.42 1.95.5.5 1.15.8 1.8 1.1.45.2.96.4 1.42.2.5-.2.73-.8.66-1.3s-.38-.98-.72-1.38c-.45-.52-1-1-1.66-1.15-.67-.17-1.46.05-1.8.64M105.3 283.68a13.73 13.73 0 0 0 5.53 2.95" class="e"/><path d="M64.43 288.1c2.44 12.26 12.2 47.1 12.2 47.1s-1.88.43-3.96.6c-2.56.2-5.42.16-5.57.18-.27.03-1.15-.06-1.15-.06l-2.2-47.74c-.02-.43.6-.5.68-.1zm185.7 43.38l4.35-50.13c-.01-.34.5-.36.53-.03l4.96 48.24-2.2.7c-.01 0-.02.01-.03.01l-2.58.58-5.04.64z"/></g><g class="k l c d f"><path d="M97.9 341.05a132.03 132.03 0 0 0 22.48-8.21l29.1-4.15 23.7 15.4c-23.15 9.13-48.23 18.72-71.77 26.8" class="e"/><path d="M102.12 345.4l.2.47c.5 1.38.9 2.84 1.3 4.25.9 3.05 1.7 6.16 1.98 9.34.14 1.6.14 3.2-.07 4.78-.22 1.68-.67 3.38-1.7 4.73s-2.68 2.32-4.36 2.12c-2.42-.3-3.96-2.68-4.95-4.9-2.04-4.65-3.16-9.7-3.28-14.77-.04-1.95.07-3.95.76-5.77.7-1.82 2.06-3.47 3.9-4.12 1.33-.47 2.87.46 3.88 1.25.93.7 1.8 1.57 2.3 2.63z"/><path d="M176.48 325.55c9.75 8.1 22.25 13.48 34.86 14.74 2 .2 4.4.6 5.13 2.45.3.76.23 1.6.1 2.42-.36 2.46-1.14 4.86-2.3 7.06-.58 1.1-1.24 2.16-2 3.15-.6.8-1.44 1.35-2.27 1.86-1 .62-1.73.37-2.8.18a108.35 108.35 0 0 1-6.44-1.37 103.82 103.82 0 0 1-12.55-3.96c-5.32-2.06-10.47-4.56-15.38-7.48-3.45-2.05-6.82-4.32-10.63-5.55-3.27-1.06-6.73-1.3-10.15-1.6-19.6-1.67-39.6-4.65-57.1-13.65" class="e"/></g><path d="M195.72,343.65c3.35-3.5,7.44-6.3,11.92-8.15" class="c d e f g h"/><path d="M205.62 335.74c-.32-1.73 1.7-3.4 3.45-3.6s3.53.33 5.27.05l-1.4 2.2c-.6.97-1.24 1.95-2.1 2.7s-2.04 1.24-3.17 1.03-2.13-1.25-2.03-2.4" class="j"/><g class="c d e f g h"><path d="M149.2 354.24a397.88 397.88 0 0 1 16.34 16.78m-.34-.55c.2-1.92.6-3.86 1.57-5.53s2.58-3.04 4.5-3.36c1.07-.18 2.17-.02 3.25-.14 3.63-.4 6.2-3.8 9.67-4.97 4-1.35 8.42.55 11.75 3.15 2.3 1.8 4.5 4.7 3.33 7.4-.95 2.2-3.68 2.97-6.07 3s-4.87-.43-7.1.4c-2.02.75-3.54 2.44-5.37 3.6-4.07 2.55-9.8 2.05-13.36-1.17"/><path d="M169.8 368.97c1-3.04 3.9-5.37 7.08-5.7 1.4-.15 2.9.06 4.23-.4 1.5-.52 2.6-1.8 3.98-2.6 2.75-1.63 6.6-1.07 8.77 1.27 1.1 1.17 1.74 3.05.8 4.35-.26.36-.6.64-1 .86-3.1 1.74-7.2-.83-10.44.63-2 .9-3.12 3.15-5.02 4.27a5.38 5.38 0 0 1-4.83.27m.06-4.68c-.75.54-.76 1.75-.16 2.45s1.62.92 2.53.76 1.72-.63 2.5-1.14"/></g><path d="M187.77 361.55c-.66-.01-1.34 0-1.92.32-.57.32-.96 1.07-.65 1.65.28.52.95.66 1.54.74l3.05.44c.66.1 1.55.05 1.72-.6.06-.23.01-.48-.08-.7-.6-1.57-2.6-2.45-4.15-1.83" class="j"/><path d="M105.8 362.95l16.92-5.66a.37.37 0 0 1 .36.62c-1.13 1-2.55 1.65-3.92 2.27l-13.73 6.14m25.07-11.85c4.02-1.2 7.92-2.75 11.65-4.67" class="c d e f g h"/><path d="M123.43 345c.93 2.04 2.35 3.9 4.22 5.17 1.3.9 4.1 2.2 4.97.14.4-.9-.05-1.74-.62-2.46-.92-1.15-2.1-2.2-3.5-2.7-1.63-.56-3.48-.42-5.17-.33 0 0 .1.17.1.17z" class="j"/><g class="c d f"><g class="k l"><path d="M175.48 328.32c.82-1.63 1.53-3.9.13-5.05-.87-.72-2.13-.6-3.25-.47-9.16 1.08-18.93.5-27.92-1.58l-5.25-1.1c-5.04-3.32-11.24-5.82-17.12-7.2-5.02-1.17-13.36-2.65-17.58-5.6l-9.72 16.38" class="e"/><path d="M102.3 306.54c-1.28.3-2.35 1.53-3.28 2.4-1.3 1.2-2.5 2.54-3.47 4.03-1.53 2.35-2.5 5.14-2.3 7.94.07 1.12.47 2.4 1.53 2.8.72.26 1.52 0 2.2-.33 3.83-1.84 6.16-5.83 7.63-9.82.44-1.2.83-2.46.77-3.74-.06-1.4-.82-3.27-2.44-3.32-.2-.01-.42.02-.63.06z"/><path d="M139.82 324.32a24.21 24.21 0 0 0-4.19-11.89c-.17-.24-.34-.53-.23-.8.1-.24.37-.35.6-.42.66-.2 1.34-.42 2.03-.37 1.64.13 2.78 1.66 3.56 3.12a29.25 29.25 0 0 1 3.24 10.13" class="e"/></g><path d="M123.16 114.64c-1.3-2.43-4-3.7-6.57-4.75l-9.3-3.43c-1.4-.46-3.22-.77-4.08.43-.66.92-.3 2.2.12 3.26a56.56 56.56 0 0 0 9.83 16.22m-35.53-17.95c-1.8 4.24-1.38 9.76-.03 14.16 2.44 7.93 6.97 15.2 13 20.9.53.5 1.15 1.02 1.88 1 .84-.03 1.47-.8 1.85-1.55 1.46-2.9.88-6.4 1.52-9.58.12-.6.3-1.25.77-1.68 1.25-1.16 3.2.02 4.46 1.17l8.57 7.92c2.5 2.54 5.1 5 7.75 7.42 2.23 2.02 3.5 3.68 6.13 5.12s5.58 2.98 8.56 2.58m-11.4-9.28a3.94 3.94 0 0 1 3.02-2.19m-.02-38.9a15.01 15.01 0 0 1 8.13-1.44c.5.05 1 .14 1.34.5.42.44.4 1.13.33 1.73-.3 2.64-1.2 5.2-2.62 7.47" class="g h e"/></g><path d="M120.1 119.23c-1.23 1.57-2.7 2.97-4.3 4.16-.25.2-.53.38-.85.4-.53.02-.94-.46-1.24-.9a34.55 34.55 0 0 1-3.82-7.24c-.27-.7-.43-1.67.22-2.05.24-.14.52-.14.8-.13 1.56.1 3 .84 4.36 1.57l4.45 2.36c.02.02 1.5.45.4 1.84z" class="j"/><g class="f c"><g class="d e"><path d="M127.32 131.65a2.88 2.88 0 0 0 1.29 2.82c.93.58 2.2.54 3.1-.1" class="g h"/><path d="M57.44 130.72c1.24-2.9 4.6-4.5 7.72-4.27 3.13.25 5.97 2.1 8 4.5 2.03 2.4 3.35 5.3 4.5 8.23 5.93 15.25 7.6 31.87 13.08 47.3.8 2.25 1.73 4.54 3.43 6.2 1.45 1.42 3.36 2.3 5.33 2.83 7.1 1.9 14.6-.4 21.4-3.14 4.55-1.83 9.03-3.86 13.4-6.1 2.56 4.85 3.42 10.57 2.4 15.96l-3.05 1.82c-9.77 5.44-20.17 10.42-31.32 11.2-5.44.38-11.38-.45-15.3-4.24l-2.86-2.33c-2.35-2.2-4.07-5-5.65-7.8-11.03-19.6-16.57-41.7-22-63.54" class="k l"/><path d="M38.4 191.8c1.85-6.27 3.7-12.6 4.04-19.14.34-6.63-.93-13.26-.84-19.9.05-4.03.6-8.04 1.47-11.98.77-3.46 1.8-6.88 3.3-10.1 5.07-10.87 15.6-18.92 27.33-21.43l5.28-1.26c6.53-4.1 13.4-7.64 20.55-10.56 3.5-1.43 7.17-2.73 10.96-2.73s7.77 1.53 9.83 4.7c.84 1.3 1.32 2.8 1.98 4.18 1.9 3.98 5.2 7.06 8.16 10.3s5.76 7 6.23 11.38c.3 2.72-.35 5.46-.22 8.2.34 7.44 6.17 13.62 7.24 21 .2 1.3.2 2.7-.46 3.83-1.07 1.8-3.6 2.27-5.58 1.63s-3.58-2.13-5.1-3.57l-11-10.48m-20.07-12.4c.62 14.68-4.77 32.98-13.12 45.07" class="g h"/></g><path d="M65.74 336.2c9.24.37 18.3-1.57 26.74-5.32l.9-.43c-7.54-43.4-4.72-88.14-16.34-130.65 0 0-13.83 3.46-24.9-1.42-11.06-4.88-13.73-6.86-13.73-6.86-12.27 16.42-9.97 33.38-9.45 50.98 1.03 34.53 3.48 69 7.34 103.34.1.97.25 2 .88 2.73 1 1.14 2.75 1.1 4.26.96a139.56 139.56 0 0 0 20.2-3.56c1.1-.28 2.25-.6 3.07-1.4 1.4-1.37 1.37-3.6 1.22-5.57-3.1-42.64-3.75-85.46-1.92-128.17" class="g i"/><path d="M91.26 349c-2.67.13-5.33.37-7.94.96-1.6.37-3.2.87-4.85.96s-3.4-.3-4.57-1.47c-1.23-1.25-1.55-3.1-1.74-4.84a58.1 58.1 0 0 1-.3-8.34M57 347.23c1.23 3 4.6 4.75 7.8 5.26 3.2.5 6.5.2 9.7.74.52.1 1.04.2 1.47.5.93.65 1.15 2 .75 3.07-.4 1.06-1.3 1.86-2.24 2.5-6.57 4.47-15.48 2.5-23.17 4.5-1.68.44-3.32 1.07-5.06 1.2-1.73.1-3.63-.4-4.62-1.84-.93-1.34-.84-3.1-.7-4.72.3-3.13.52-5.83 1-8.94" class="d e h g"/></g><path d="M38.7 190.5c-2.92-1.2-5.55-3.5-7.5-6-7.23-9.23-11.38-20.72-12.4-32.4s1-23.54 5.22-34.5a66.35 66.35 0 0 0-11.77 28.62c-.85 5.5-.97 11.3 1.1 16.46-2.72-2.75-4.93-6-6.5-9.53-.1 7.08 2.82 14.15 7.87 19.1a32.01 32.01 0 0 1-8.01-3.97c6.37 11.75 18.24 20.7 31.25 23.78m59.9-61.03l-.4 5.77c-.12 1.72-.57 3.53-.57 5.24-.56 3.3-1.68 7.63-4.63 9.63-.5.35-1.15.55-1.76.43-.75-.15-1.32-.74-1.78-1.34-2.13-2.75-3.7-5.9-5.52-8.85-3.04-4.9-5.33-10.2-7.88-15.37-1-2.05-2.44-4.43-4.94-4.73-1.58-.2-8.3 1.58-10 2.2-.97.35-1.8-.78-1.16-1.6 2-2.6 3.9-5.36 6.3-7.64 2.47-2.37 5.42-4.08 8.62-5.27 1.14-.42 2.3-.8 3.48-1.07 0 0-2.43 7.96.8 15.7 1.54 3.7 3.35 7.4 5.54 10.75 2.18 3.33 4.66 6.7 7.8 9.17.62.5 1.32.6 1.95.02.34-.32.56-.75.74-1.18 1.18-2.86 1.1-6.06 1.4-9.13.06-.63.15-1.28.47-1.83s.92-.98 1.55-.9v.03z" class="m"/><g class="h o"><circle cx="90.03" cy="157.58" r="1.5" fill="#fff"/><g class="c g"><path d="M89.92 156.92l.24 1.32"/><path d="M89.4 157.74l1.3-.32"/></g><circle cx="88.09" cy="166.65" r="1.5" fill="#fff"/><g class="c g"><path d="M87.97 166l.25 1.32"/><path d="M87.44 166.8l1.3-.32"/></g></g><g class="d f c"><g class="e"><path d="M55.53 271.6c1.54 2.1 4.55 2.94 6.95 1.96m18.4-5.58a6.1 6.1 0 0 0 5.93 2.1M56.5 135.4c-.1-.98.04-1.98.44-2.88" class="b g"/><path d="M136.5 133.47c.34 7.44 6.17 13.62 7.24 21 .2 1.3.2 2.7-.46 3.83-1.07 1.8-3.6 2.27-5.58 1.63s-3.58-2.13-5.1-3.57l-11-10.48" class="k l"/></g><path d="M142.74 159.1c-2.6-.73-3.9-2.8-4.02-4.7-.1-1.63 2.04-3 3.53-3.65 0 0 .94-.23 1.3 2.55.37 2.8.46 4.1.1 4.57l-.9 1.24z" class="k l"/></g><g class="e g c d"><path d="M127.54 120.88c1.72-1.38 3.67-2.47 5.75-3.2m-3.85 5.1c1.2-1.54 2.87-2.72 4.72-3.33" stroke="#b0a8d3" stroke-width="1.291"/><g class="f h"><path d="M122.07 102.54c1.07-5.54-.37-11.27-2.43-16.52s-4.74-10.27-6.35-15.68c-3.2-10.82-2.15-23.22-8.63-32.45-1.15-1.64-2.52-3.14-3.43-4.92-1.42-2.78-1.6-6-1.76-9.12M96.2 46.47a21.7 21.7 0 0 0 7.06 11.19c1.02.85 2.13 1.62 3 2.64 1.23 1.47 1.85 3.34 2.7 5.05s2.12 3.4 3.97 3.92m6.3 15.73c-.77-3.98 1.5-8 1.08-12.03-.16-1.57-.72-3.06-1-4.6s-.3-3.25.55-4.57M50.72 50.2l9.7 4.9c2.1 1.06 4.2 2.13 6 3.66 2.08 1.78 3.62 4.1 5.1 6.4 2.57 4 5.16 8.16 9.06 10.88 2.9 2.03 6.38 3.13 9.3 5.16 2.75 1.92 4.87 4.57 6.95 7.2l15.9 20"/><path d="M64.65 47.52c2.05 2.58 4.15 5.23 5.18 8.36 1.06 3.24.92 6.8 2.1 10m-.4 11.62c2.4 2.1 5.13 4.3 8.32 4.26 1.46-.02 2.86-.53 4.3-.65 3.5-.28 6.72 1.7 9.67 3.6m8.75-1.76c1.08.9 1.32 2.45 1.18 3.84s-.6 2.75-.58 4.14c.02 1.73.73 3.54.06 5.13"/></g></g><path d="M104.08 96.9l8.56 8.5 1.9 1.82c.27.3 1.3 1.7.87 2.16-.26.26-3.5-1.22-3.5-1.22l-7.85-11.26zm19.07 8.15s.52-4.25.13-5.82l-.9-4.27c-.05-.24-.4-.2-.4.04v7.96l1.18 2.1z" class="j"/><path d="M81.3 113.27l3.38-1.78c.2-.1.43-.22.6-.4.2-.22.3-.5.4-.78.7-1.8 2.05-3.32 3.76-4.2a4.57 4.57 0 0 0-.35 2.8c.85-1.28 2-2.35 3.33-3.1-.14.63-.25 1.27-.3 1.9a43.68 43.68 0 0 1 5.43-3.13" class="c d e f g h"/><path d="M100.07 30.57c.24-.68-.1-1.48-.67-1.92s-1.34-.56-2.06-.48c.01.67.2 1.36.65 1.86.44.5 1.38.7 2.04.57" class="j"/><path d="M69.28 53.87c-.17-.7-.88-1.2-1.6-1.25s-1.43.26-2 .7c.37.56.9 1.03 1.56 1.2s1.55-.15 2.02-.62m40.87-3c.7.16 1.46-.25 1.83-.87s.4-1.4.26-2.1c-.67.08-1.33.35-1.78.85s-.55 1.45-.35 2.1M82.52 77.03c.58-.44.74-1.28.5-1.96s-.8-1.2-1.45-1.55c-.37.56-.58 1.24-.5 1.9s.76 1.36 1.38 1.6m21.35 11c.08-.72-.42-1.42-1.08-1.72s-1.43-.25-2.12-.01c.16.65.5 1.28 1.05 1.67.54.4 1.5.38 2.1.1" class="n"/><g class="b c d e f g"><path d="M135.9 189.5c.2-.94.85-5.1 2.18-5 .45.04.7.54.78 1 .18 1.12-.23 2.24-.64 3.3 1.84-1.35 3.5-2.96 4.9-4.77.5-.63 1.1-1.68 1.92-1.93.13-.04.3-.02.37.1.05.06.06.15.07.23.25 1.7-.22 3.43-1.13 4.9-.9 1.46-2.18 2.64-3.53 3.7m4.35-5.13c.44-.47.96-.88 1.43-1.32.08-.07.46-.38.57-.37a.28.28 0 0 1 .23.2c.03.1.02.22.01.33-.45 3.34-2.7 6.66-5.53 8.5m4.26-4.62c.47-.76 1.3-1.58 1.95-2.2.17-.16.38-.33.6-.27.38.1.34.64.2 1a17.2 17.2 0 0 1-6.1 8.02"/><path d="M146.86 191.06c.25-.6 1.66-1.8 2.3-1.95.93-.24 1.04.5.8 1.22-.86 2.52-2.94 4.72-5 6.34-2.1 1.67-4.72 2.77-7.4 2.82"/></g></svg>