<svg xmlns="http://www.w3.org/2000/svg" xmlns:xlink="http://www.w3.org/1999/xlink" width="344.345" height="380" xmlns:v="https://vecta.io/nano"><path d="M230.026 113.044s.74 9.144 7.3 13.346 21.502 1.112 21.502 1.112l-28.792-14.458zM56.77 139.965l12.053 60.898 6.348-.55 2.667-.928s-5.915-10.9-9.858-22.267-9.278-30.965-9.278-30.965l-1.932-6.2zm7.66 148.023c2.437 12.263 12.196 47.107 12.196 47.107s-1.88.43-3.956.597c-2.558.207-5.423.16-5.57.177-.266.03-1.153-.06-1.153-.06l-2.204-47.738a.35.35 0 0 1 .687-.083zm185.695 43.365l4.353-50.13c-.004-.336.492-.365.527-.03l4.96 48.238-2.223.698-2.58.582-5.037.64zM264.833 151.7c.085-.075.214.007.178.114-.507 1.513-3.663 7.185-17.044 7.794-15.45.702-15.6 9.13-15.6 9.13l-4.974-1.105-3.725-16.995c-.885-4.796-.518-3.876-.518-3.876s8.227 6.27 17.54 8.132 12.898 1.323 14.007 1.028c1.1-.293 6.323-.882 10.126-4.22zm-58.183-17.792l11.605 9.477 3.025 2.25-1.953 4.886s-7.212-2.8-12.676-16.613z" fill="#1b1c1c"/><g fill="#fcfcfc"><path d="M194.102 336.06l-.192-.48c17.286-6.936 32.035-18.772 42.65-34.23a93.79 93.79 0 0 0 16.548-53.322c0-18.78-5.674-36.98-16.4-52.63-10.455-15.242-24.958-27.072-41.94-34.2l.2-.476c17.074 7.178 31.654 19.072 42.166 34.395 10.795 15.737 16.5 34.037 16.5 52.923a94.3 94.3 0 0 1-16.64 53.614c-10.674 15.542-25.503 27.443-42.884 34.417zm-12.2-179.012c-8.036-1.893-16.958-3.023-23.866-3.023a93.84 93.84 0 0 0-14.129 1.076l-.078-.5a94.38 94.38 0 0 1 14.207-1.082c6.946 0 15.912 1.135 23.985 3.037l-.12.502zm-92.248 25.664l-.366-.364c12.127-12.183 27.335-21.018 43.978-25.547l.136.498c-16.556 4.506-31.684 13.294-43.747 25.413zm53.094-23.744c-2.603-.73-3.905-2.794-4.02-4.705-.097-1.63 2.04-3 3.533-3.65 0 0 .944-.233 1.3 2.553s.457 4.1.1 4.568l-.914 1.233zm-20.672-56.298c-.016 0-.032-.001-.05-.005-.14-.027-.232-.162-.205-.302.9-4.672.132-9.876-2.413-16.376-.758-1.937-1.618-3.876-2.45-5.75-1.42-3.207-2.9-6.522-3.908-9.947-1.16-3.9-1.774-8.08-2.366-12.112-1.04-7.08-2.116-14.403-6.23-20.26a46.52 46.52 0 0 0-1.16-1.557c-.817-1.065-1.66-2.167-2.286-3.4-1.47-2.878-1.64-6.252-1.8-9.23-.007-.142.102-.264.245-.27a.26.26 0 0 1 .271.245c.148 2.925.316 6.24 1.735 9.02.603 1.182 1.433 2.265 2.236 3.312l1.173 1.575c4.184 5.96 5.27 13.342 6.317 20.483.6 4.014 1.2 8.164 2.35 12.04 1.007 3.392 2.47 6.693 3.885 9.884l2.458 5.772c2.582 6.595 3.357 11.9 2.44 16.662a.26.26 0 0 1-.254.21z"/><path d="M112.937 69.395c-.023 0-.046-.003-.07-.01-1.62-.448-3-1.812-4.13-4.054l-.685-1.47c-.552-1.23-1.123-2.5-2-3.53-.62-.737-1.4-1.356-2.156-1.955l-.804-.648a21.9 21.9 0 0 1-7.148-11.322c-.035-.138.048-.28.186-.314a.26.26 0 0 1 .314.186 21.38 21.38 0 0 0 6.978 11.053l.794.64c.775.615 1.576 1.25 2.23 2.027.913 1.084 1.5 2.4 2.066 3.65l.675 1.45c1.05 2.105 2.332 3.38 3.806 3.787.137.038.218.18.18.318-.03.114-.135.2-.248.2zm6.306 15.72c-.12 0-.23-.086-.253-.2-.42-2.162.04-4.35.483-6.468.384-1.836.782-3.734.594-5.585-.094-.925-.337-1.852-.57-2.747l-.44-1.84c-.378-1.97-.18-3.57.6-4.762.078-.12.237-.154.357-.076s.154.237.077.357c-.696 1.075-.87 2.55-.518 4.384l.43 1.806c.24.915.487 1.86.586 2.826.196 1.93-.2 3.87-.603 5.743-.453 2.162-.88 4.205-.48 6.264a.26.26 0 0 1-.204.303c-.017.003-.033.005-.05.005zm-6.523 23.444c-.077 0-.153-.034-.203-.1l-1.013-1.293-14.882-18.7c-2.047-2.573-4.163-5.234-6.9-7.143-1.438-1.003-3.05-1.794-4.6-2.56-1.577-.773-3.207-1.573-4.677-2.598-3.8-2.657-6.383-6.672-8.87-10.555l-.256-.4c-1.584-2.47-3.057-4.654-5.047-6.36-1.77-1.515-3.9-2.587-5.943-3.623l-9.713-4.905a.26.26 0 0 1-.114-.347c.064-.127.22-.18.347-.114l9.713 4.905c2.08 1.05 4.23 2.136 6.046 3.692 2.043 1.75 3.54 3.967 5.146 6.472l.256.4c2.46 3.84 5.005 7.8 8.73 10.4 1.437 1.002 3.05 1.793 4.608 2.558 1.578.774 3.2 1.574 4.68 2.6 2.798 1.952 4.938 4.643 7.008 7.245l15.897 20.006c.088.112.068.275-.044.362-.047.037-.103.055-.16.055z"/><path d="M71.94 66c-.105 0-.203-.064-.242-.168-.638-1.706-.902-3.532-1.156-5.298-.226-1.57-.46-3.2-.957-4.706-1.026-3.126-3.114-5.748-5.134-8.282-.1-.1-.07-.274.04-.363a.26.26 0 0 1 .363.04c1.953 2.45 4.165 5.23 5.22 8.443.5 1.557.748 3.202.978 4.793.25 1.74.5 3.536 1.13 5.2.05.134-.018.282-.15.332-.03.01-.06.017-.1.017zm21.898 18.836c-.048 0-.096-.013-.14-.04-2.513-1.62-5.953-3.838-9.5-3.556-.634.05-1.278.182-1.9.308-.787.16-1.6.326-2.428.34-3.2.052-5.84-2.016-8.492-4.325-.107-.094-.12-.257-.025-.364a.26.26 0 0 1 .364-.025c2.54 2.213 5.068 4.198 8.035 4.198l.1-.001c.78-.013 1.57-.174 2.334-.33.638-.13 1.297-.264 1.962-.317 3.732-.3 7.255 1.976 9.83 3.636.12.077.154.237.077.357a.26.26 0 0 1-.217.118zm9.397 11.357c-.034 0-.068-.007-.1-.02a.26.26 0 0 1-.138-.338c.42-.993.264-2.084.1-3.24l-.175-1.793c-.008-.867.156-1.72.315-2.547l.265-1.626c.08-.756.13-2.622-1.083-3.616-.1-.1-.126-.253-.036-.363s.253-.127.363-.036c1 .812 1.454 2.295 1.27 4.07-.06.564-.167 1.126-.272 1.67-.154.8-.314 1.63-.306 2.445.005.564.1 1.154.17 1.725.167 1.174.34 2.387-.135 3.512-.042.1-.137.158-.238.158zm-1.117 249.082a5.03 5.03 0 0 1 .201.474l1.313 4.253c.9 3.048 1.707 6.16 1.98 9.337.136 1.6.137 3.194-.075 4.777-.224 1.68-.673 3.377-1.687 4.734s-2.684 2.315-4.366 2.116c-2.42-.286-3.965-2.68-4.945-4.9a39.12 39.12 0 0 1-3.277-14.773c-.045-1.954.066-3.95.765-5.774s2.064-3.473 3.907-4.123c1.332-.47 2.87.465 3.882 1.246.92.7 1.787 1.588 2.3 2.646z"/><path d="M97.895 341.188c-.114 0-.22-.076-.25-.192-.037-.138.046-.28.183-.316a132.04 132.04 0 0 0 22.44-8.196c.13-.06.283-.006.344.123s.006.283-.123.344a132.58 132.58 0 0 1-22.527 8.228.26.26 0 0 1-.067.01zm3.518 29.832c-.107 0-.207-.067-.244-.174-.046-.135.025-.282.16-.328 20.694-7.1 42.973-15.407 70.113-26.115.134-.052.283.013.335.145a.26.26 0 0 1-.145.335c-27.147 10.7-49.433 19-70.134 26.123-.028.01-.056.014-.084.014zm.887-64.6c-1.28.295-2.354 1.53-3.277 2.387-1.303 1.2-2.502 2.54-3.475 4.03-1.533 2.35-2.5 5.143-2.3 7.942.073 1.12.473 2.407 1.53 2.786.72.257 1.516.002 2.205-.328 3.834-1.838 6.165-5.826 7.627-9.818.44-1.205.83-2.462.773-3.744-.062-1.413-.816-3.268-2.438-3.32a2.47 2.47 0 0 0-.637.064zm37.515 18.033c-.134 0-.247-.104-.257-.24a23.74 23.74 0 0 0-4.15-11.76c-.14-.2-.43-.62-.264-1.04.148-.374.557-.504.778-.575.647-.206 1.38-.44 2.13-.38 1.42.1 2.65 1.174 3.764 3.25 1.7 3.2 2.8 6.63 3.272 10.22.018.14-.082.27-.223.3a.26.26 0 0 1-.289-.223 28.97 28.97 0 0 0-3.215-10.042c-1.023-1.9-2.12-2.884-3.35-2.98-.65-.052-1.303.156-1.934.358-.206.065-.403.144-.453.272-.057.144.066.353.208.557 2.458 3.553 3.924 7.708 4.24 12.017.01.142-.096.266-.238.276z"/><path d="M175.48 328.453c-.04 0-.078-.01-.116-.027-.127-.064-.18-.22-.115-.347.65-1.29 1.538-3.624.192-4.74-.756-.626-1.88-.553-3.06-.414-9.152 1.08-18.836.532-28.008-1.58-.14-.032-.226-.17-.194-.3a.26.26 0 0 1 .31-.194c9.115 2.1 18.74 2.644 27.832 1.572 1.04-.122 2.463-.3 3.45.53 1.54 1.276.817 3.624-.06 5.37-.045.1-.136.142-.23.142z"/><path d="M208.698 357.76c-.384 0-.76-.073-1.164-.15l-.35-.066-6.456-1.375a104.05 104.05 0 0 1-12.583-3.971 103.45 103.45 0 0 1-15.421-7.493l-1.76-1.06c-2.796-1.697-5.687-3.45-8.822-4.465-3.08-.996-6.4-1.276-9.594-1.546l-.504-.043c-11.94-1.016-20.997-2.276-29.37-4.083-10.615-2.292-19.715-5.432-27.82-9.6-.127-.065-.177-.22-.112-.348s.22-.177.348-.112c18.022 9.267 38.925 12.1 56.997 13.627l.504.043c3.23.273 6.573.556 9.7 1.57 3.192 1.032 6.1 2.803 8.93 4.515l1.755 1.057a102.94 102.94 0 0 0 15.343 7.456 103.35 103.35 0 0 0 12.52 3.95 102.83 102.83 0 0 0 6.423 1.368l.356.067c.877.168 1.456.28 2.26-.216s1.627-1.038 2.204-1.8c.74-.976 1.402-2.023 1.97-3.112 1.15-2.203 1.9-4.552 2.266-6.98.113-.772.18-1.584-.097-2.284-.647-1.642-2.747-2.07-4.92-2.3-12.6-1.268-25.04-6.524-35-14.802-.1-.1-.125-.254-.034-.363s.254-.125.363-.034c9.883 8.212 22.214 13.428 34.722 14.685 2.336.235 4.6.714 5.35 2.614.32.813.25 1.705.128 2.548-.363 2.486-1.143 4.9-2.32 7.145a22.6 22.6 0 0 1-2.017 3.184c-.63.832-1.504 1.408-2.344 1.927a2.66 2.66 0 0 1-1.464.434zm-69.518-37.505c-.05 0-.098-.014-.142-.042-4.833-3.178-10.883-5.723-17.035-7.165l-2.513-.566c-4.87-1.077-11.54-2.553-15.153-5.088-.117-.082-.145-.243-.063-.36s.243-.145.36-.063c3.527 2.476 10.14 3.938 14.968 5.006l2.52.568c6.2 1.455 12.318 4.025 17.2 7.236a.26.26 0 0 1 .074.358.26.26 0 0 1-.216.116z"/><path d="M195.72 343.785c-.064 0-.128-.024-.18-.072-.103-.1-.107-.262-.008-.365a35.51 35.51 0 0 1 12.005-8.207c.13-.054.283.008.337.14s-.008.283-.14.337a34.99 34.99 0 0 0-11.829 8.087c-.05.053-.118.08-.186.08z"/><path d="M205.615 335.616c-.317-1.732 1.698-3.402 3.45-3.588s3.533.327 5.272.05l-1.404 2.213c-.615.97-1.244 1.955-2.115 2.703s-2.038 1.238-3.168 1.033-2.13-1.25-2.03-2.394m-40.08 35.523c-.07 0-.14-.028-.2-.084a394.97 394.97 0 0 0-16.331-16.772c-.102-.1-.105-.263-.006-.365a.26.26 0 0 1 .365-.006c5.592 5.4 11.094 11.062 16.352 16.794.096.105.1.268-.016.365a.26.26 0 0 1-.174.068z"/><path d="M174.888 375.754c-2.806 0-5.622-.972-7.705-2.852a.26.26 0 0 1-.02-.365.26.26 0 0 1 .364-.02c3.475 3.136 9.086 3.626 13.052 1.14.667-.418 1.306-.92 1.925-1.408 1.07-.842 2.178-1.714 3.5-2.2 1.687-.626 3.5-.546 5.27-.47a36.39 36.39 0 0 0 1.924.05c1.085-.01 4.713-.24 5.832-2.835 1.08-2.505-.975-5.303-3.258-7.086-1.88-1.468-6.764-4.7-11.515-3.1-1.467.493-2.804 1.42-4.097 2.316-1.723 1.194-3.505 2.43-5.628 2.666-.505.057-1.016.053-1.5.05-.597-.003-1.162-.008-1.723.084-1.68.276-3.3 1.485-4.306 3.232-.8 1.392-1.296 3.116-1.533 5.425-.014.142-.14.244-.283.23s-.245-.14-.23-.283c.244-2.385.753-4.174 1.6-5.632 1.092-1.88 2.837-3.18 4.67-3.482.604-.1 1.216-.096 1.8-.1.48.003.975.007 1.45-.047 1.994-.223 3.644-1.366 5.392-2.577 1.323-.917 2.7-1.864 4.227-2.38 3.513-1.18 7.886-.017 11.997 3.194 2.435 1.902 4.6 4.923 3.414 7.698-.84 1.944-3.194 3.12-6.3 3.147-.647.006-1.3-.023-1.95-.05-1.7-.075-3.48-.152-5.07.437-1.235.458-2.263 1.266-3.35 2.122-.63.495-1.28 1.007-1.97 1.44-1.778 1.114-3.87 1.657-5.968 1.657zm.632-3.258a5.53 5.53 0 0 1-2.243-.468c-.13-.058-.2-.2-.13-.34a.26.26 0 0 1 .341-.131 5.11 5.11 0 0 0 4.591-.258c.85-.498 1.555-1.252 2.24-1.98.825-.88 1.68-1.8 2.8-2.3 1.63-.736 3.463-.5 5.236-.254 1.884.25 3.663.5 5.183-.366.393-.22.7-.485.9-.784.84-1.185.238-2.924-.8-4.03-2.093-2.248-5.803-2.785-8.448-1.22-.514.304-1.003.686-1.477 1.056-.778.608-1.583 1.236-2.548 1.568-.917.316-1.9.332-2.83.347l-1.46.066c-3.072.32-5.892 2.6-6.857 5.524a.26.26 0 0 1-.326.165c-.135-.045-.2-.2-.165-.326 1.028-3.12 4.027-5.537 7.294-5.877.5-.052 1.012-.06 1.505-.068.94-.016 1.83-.03 2.67-.32.883-.304 1.62-.88 2.398-1.487l1.532-1.093c2.845-1.683 6.837-1.106 9.1 1.313 1.17 1.26 1.834 3.27.834 4.68-.256.362-.62.677-1.08.935-1.67.94-3.62.68-5.504.428-1.7-.228-3.46-.463-4.956.213-1.037.468-1.818 1.3-2.645 2.183-.7.756-1.442 1.537-2.354 2.073a5.58 5.58 0 0 1-2.82.753zm-.3-1.856c-.867 0-1.66-.323-2.155-.903-.367-.43-.544-1.034-.473-1.62.062-.5.304-.94.68-1.2.116-.083.277-.057.36.06s.056.277-.06.36c-.258.185-.425.488-.47.852a1.63 1.63 0 0 0 .353 1.222c.486.567 1.385.833 2.288.677.863-.15 1.662-.618 2.396-1.102a.26.26 0 0 1 .358.073.26.26 0 0 1-.073.358c-.78.515-1.636 1.015-2.592 1.18a3.58 3.58 0 0 1-.614.053zm12.55-9.218c-.655-.004-1.345 0-1.917.32s-.957 1.075-.646 1.652c.28.52.95.66 1.536.745l3.05.437c.66.094 1.545.053 1.724-.6.065-.23.005-.48-.08-.704-.594-1.575-2.586-2.454-4.15-1.83m-81.857 5.008c-.1 0-.193-.057-.236-.153-.058-.13 0-.283.13-.34l13.733-6.135c1.277-.57 2.725-1.217 3.853-2.227.06-.053.04-.1.022-.14-.02-.034-.06-.07-.126-.048l-16.922 5.66a.26.26 0 0 1-.327-.163.26.26 0 0 1 .163-.327l5.633-1.9 11.3-3.77a.61.61 0 0 1 .735.28c.153.264.103.58-.125.782-1.2 1.063-2.74 1.756-3.987 2.313l-13.733 6.135a.26.26 0 0 1-.105.022zm25.078-11.856c-.1 0-.214-.073-.248-.185-.04-.137.038-.28.174-.32a67.7 67.7 0 0 0 11.606-4.649c.126-.066.282-.015.347.112s.015.282-.112.347c-3.736 1.915-7.67 3.5-11.695 4.684-.025.007-.05.01-.073.01zm-7.075-9.727c.935 2.042 2.347 3.895 4.216 5.173 1.305.892 4.093 2.193 4.974.137.387-.902-.052-1.745-.622-2.46-.918-1.152-2.087-2.204-3.5-2.7-1.63-.56-3.477-.42-5.166-.33l.1.17zm-25.233-3.63a.27.27 0 0 1-.037-.002c-4.688-.67-11.774-1.68-14.78-7.2-.068-.125-.022-.282.103-.35s.282-.022.35.103c2.882 5.28 9.813 6.27 14.4 6.925a.26.26 0 0 1 .22.292c-.018.128-.13.22-.255.22z"/><ellipse cx="163.402" cy="88.672" rx="1.225" ry=".937"/><path d="M161.526 104.86a1.29 1.29 0 0 0 .639-.498c.107-.155.17-.344.23-.52l.07-.216.036-.1c.042-.115-.074.155-.008.023l.05-.088c.078-.124-.102.104-.02.022l.035-.035c.047-.053-.135.1-.073.054l.048-.03c.095-.06-.05.01-.06.02.04-.046.2-.06.248-.078.124-.037.248-.082.362-.142.28-.147.48-.433.536-.742l.028-.168c.006-.03.036-.106-.008-.008-.06.134.054-.055-.036.055s.07-.045-.05.044a.4.4 0 0 1-.197.077l-.057.007a.36.36 0 0 1-.328-.147c-.084-.1-.108-.12-.073-.06-.04-.106-.054-.134-.04-.084.022.074-.006-.16-.012-.082-.002.024-.002.05-.002.073 0 .084.03-.138.006-.058l-.02.074-.025.073c-.026.08.06-.12.02-.048l-.096.17-.1.145c-.062.087.02-.028.03-.037-.027.03-.05.063-.075.093l-.254.28-.276.26-.153.127c.01-.01.124-.092.036-.028l-.096.07c-.14.1-.25.214-.297.386a.66.66 0 0 0 .065.497c.175.27.6.442.883.23a5.56 5.56 0 0 0 1.264-1.244c.204-.278.337-.6.374-.934.045-.417-.164-.9-.598-1-.5-.135-.954.186-1.106.65a1.85 1.85 0 0 0-.067.327c-.016.122.058-.102.018-.034-.045.076.118-.124.038-.048-.07.065.063-.053.065-.05s-.065.034-.075.04c.13-.087.123-.046.06-.028l-.072.023-.133.038c-.138.04-.283.1-.405.168a1.34 1.34 0 0 0-.495.559c-.102.216-.165.443-.247.666l-.018.048c-.038.102.08-.163.02-.05l-.066.115c-.035.056-.033-.02.058-.075-.012.007-.04.038-.048.05-.062.073.13-.08.066-.052a.77.77 0 0 0 .056-.018c-.16.062-.296.143-.386.297a.66.66 0 0 0-.065.497c.1.306.456.58.794.45h0zm2.74-15.527l.574-.456a.36.36 0 0 1 .058-.032l-.154.065c.02-.008.04-.013.06-.014l-.172.023h.032l-.172-.023.023.006-.154-.065c.056.028.032.006-.074-.064l-.066-.083c.01.027.028.053.04.08l.07.14a.97.97 0 0 0 .57.416c.263.07.516.012.78.04l-.172-.023c.044.006.085.015.126.03l-.154-.065c.002.001.057.026.055.03l-.098-.075c.043.044.024.017-.058-.08l.232-.883-.167.076.154-.065a2.84 2.84 0 0 1-.67.18l.172-.023c-.243.03-.487.03-.73-.002l.172.023-.287-.057c-.327-.082-.715.105-.794.45-.076.334.1.706.45.794.797.2 1.618.098 2.352-.263.288-.142.43-.618.232-.883-.104-.14-.204-.255-.362-.336-.165-.084-.325-.114-.5-.124-.165-.01-.33.02-.496 0l.172.023a.65.65 0 0 1-.105-.027l.154.065c-.083-.036-.054-.073.042.047a.25.25 0 0 1-.023-.023c-.034-.037-.012-.01.066.084-.018-.054-.053-.114-.08-.165a.81.81 0 0 0-.893-.422c-.258.056-.45.247-.652.406l-.456.362c-.12.096-.2.3-.2.456s.07.347.2.456.284.197.456.2c.182-.008.315-.077.456-.2h0zm29.128 81.23a.95.95 0 0 1-.153-.012c-1.434-.23-2.38-3.73-2.533-5.152-.3-2.783-.112-5.985.573-9.787l.508.1c-.667 3.702-.858 6.945-.568 9.64.168 1.56 1.147 4.545 2.1 4.698.45.072.862-.6 1.126-1.193.4-.906.248-2.585.104-4.067l-.13-2.275c.067-1.297.142-2.387.432-3.62.052-.222.254-.8.425-1.268.393-1.072.415-1.078.56-1.118l.147-.04.108.1c.12.122.086.23-.023.593l-.06-.018-.655 1.86c-.28 1.2-.353 2.258-.42 3.53-.03.578.046 1.365.127 2.198.15 1.546.32 3.298-.148 4.33-.452.997-.965 1.502-1.525 1.502z"/><path d="M191.763 169.53c-1.636 0-2.858-1.796-3.47-5.127a25.89 25.89 0 0 1 .257-10.487l.503.118a25.37 25.37 0 0 0-.252 10.276c.35 1.905 1.242 5.04 3.296 4.673l.092.508c-.145.026-.288.04-.427.04z"/><path d="M189.44 167.834c-1.37-.365-1.67-.885-2.274-2.13a19.86 19.86 0 0 1-1.828-10.929l.513.062a19.34 19.34 0 0 0 1.78 10.641c.558 1.15.746 1.537 1.942 1.856l-.133.5z"/><path d="M187.695 166.506c-1.945-.262-3.793-1.52-4.707-3.205-.785-1.446-1.18-3.236-1.214-5.47-.013-.924.023-2.132.422-3.27.99-2.83 4.712-5.278 8.993-4.3 3.866.882 6.635 3.98 8.276 6.42l-.43.288c-1.59-2.365-4.26-5.36-7.963-6.206-4.004-.915-7.473 1.348-8.39 3.967-.372 1.063-.406 2.212-.393 3.093.03 2.15.407 3.86 1.15 5.23.825 1.52 2.562 2.702 4.322 2.94l-.07.512z"/><path d="M197.437 161.383a1.68 1.68 0 0 1-.734-.17c-.513-.25-.83-.68-1.136-1.095-.233-.316-.453-.615-.75-.823l.298-.422c.364.256.62.603.867.94.282.382.547.743.946.936.736.358 1.558-.15 1.957-.808.506-.834.308-1.856.116-2.844l-.062-.326.508-.094.06.322c.2 1.034.427 2.206-.18 3.2-.393.65-1.12 1.175-1.9 1.175zm23.858-15.808c-3.026 8.293-6.583 16.385-10.522 23.825l.456.242c3.994-7.544 7.516-15.567 10.52-23.798l-.455-.268zm8.42-34.367c0 4.045-.815 8.112-1.695 11.906a179.27 179.27 0 0 1-1.571 6.198 2.25 2.25 0 0 1 .434.373 182.14 182.14 0 0 0 1.64-6.455c.887-3.823 1.708-7.926 1.708-12.022h-.516zm-19.245 3.916l9.956-24.067-.473-.206a782.6 782.6 0 0 0-9.977 24.12 1.2 1.2 0 0 1 .494.154z"/><path d="M203.897 130.788l-7.93 22.147.488.167 7.865-21.97-.423-.342zm.693 32.897c-.203-3.565-3.523-6.828-6.545-8.1l.2-.476c4.288 1.8 6.698 5.65 6.86 8.537l-.515.03zm18.514-17.128l-.566-.272c1.114 7.155 2.622 14.53 4.46 21.536l.5-.13c-1.803-6.873-3.286-14.105-4.393-21.133z"/><path d="M250.72 171.37c-7.903 0-15.865-1.134-23.546-3.384l.145-.495c12.213 3.577 25.143 4.317 37.394 2.142 3.656-.65 7.778-1.534 10.426-3.82l.337.4c-2.747 2.372-6.95 3.276-10.673 3.937a80.7 80.7 0 0 1-14.084 1.23zm-1.467-88.748a.26.26 0 0 1-.252-.202c-.03-.14.056-.277.195-.308 4.732-1.062 8.538-2.65 11.635-4.856 3.688-2.626 6.285-6.17 7.313-9.976.037-.138.18-.22.317-.182a.26.26 0 0 1 .182.317c-1.06 3.92-3.727 7.566-7.512 10.26-3.154 2.246-7.02 3.862-11.822 4.94a.25.25 0 0 1-.057.006z"/><path d="M269.218 67.54c-1.46 0-2.8-.654-4.12-1.287l-.807-.384c-2.6-1.203-5.508-1.858-8.382-1.893-1.2-.014-2.93.072-4.246.985-.117.08-.278.052-.36-.065s-.052-.278.065-.36c1.437-.998 3.28-1.093 4.547-1.077a21.31 21.31 0 0 1 8.592 1.94l.815.39c1.33.645 2.707 1.312 4.142 1.228 1.387-.08 2.663-.856 3.8-1.54 1.61-.977 3.272-1.988 4.513-3.43 1.352-1.57 1.93-3.476 1.55-5.097-.033-.14.053-.278.192-.3s.278.053.3.192c.42 1.78-.2 3.856-1.66 5.552-1.294 1.503-2.993 2.536-4.636 3.534-1.178.716-2.513 1.527-4.028 1.615l-.278.008z"/><path d="M242.145 69.207c-1.268 0-2.452-.274-3.478-.824-1.402-.752-2.485-2.23-2.827-3.855-.283-1.35-.023-2.623.732-3.588.2-.268.456-.518.694-.76.547-.556 1.064-1.08 1.112-1.763.01-.15-.003-.304-.017-.47-.015-.174-.03-.354-.018-.54.072-1.104 1.04-1.832 1.845-2.12.7-.246 1.422-.295 2.13-.343l.578-.043c4.875-.43 9.35-3.78 11.137-8.334.052-.133.202-.198.334-.146a.26.26 0 0 1 .146.335c-1.856 4.734-6.506 8.214-11.572 8.66a27.1 27.1 0 0 1-.59.044c-.702.047-1.366.1-2 .314-.7.254-1.45.868-1.504 1.667-.01.148.003.3.017.463a3.5 3.5 0 0 1 .017.549c-.062.873-.67 1.5-1.26 2.1-.228.23-.464.47-.655.716-.66.844-.885 1.967-.634 3.164.3 1.48 1.294 2.824 2.566 3.506 2.1 1.132 4.956 1 7.812-.36 4.028-1.92 7.077-5.536 9.768-8.728.092-.1.255-.123.364-.03s.123.255.03.364c-2.724 3.232-5.813 6.895-9.94 8.862-1.638.78-3.28 1.173-4.8 1.173zm-1.395-8.823c-.117.354-.44.6-.697.86s-.467.672-.297 1.004c.247.48.974.334 1.44.06a6.32 6.32 0 0 0 1.226-.947c.168-.167.337-.367.336-.603-.001-.34-.37-.584-.712-.577s-.967.057-1.257.235"/><path d="M261.585 54.325a4.56 4.56 0 0 1-.856-.08c-1.963-.374-3.476-2.236-3.304-4.065.013-.142.138-.246.28-.233s.246.14.233.28c-.148 1.576 1.174 3.183 2.887 3.5 1.56.298 3.318-.354 4.6-1.702.098-.104.26-.108.365-.01s.108.26.01.365c-1.166 1.235-2.717 1.934-4.207 1.934zm-7.173-15.955c-.745 1.724-1.504 3.52-1.436 5.397s1.216 3.856 3.055 4.24c1.6.33 3.2-.604 4.28-1.817.978-1.1 1.756-2.508 3.13-3.038 1.822-.703 3.917.45 5.802-.06 1.214-.33 2.165-1.332 2.68-2.48s.64-2.432.64-3.7c0-1.133-.1-2.284-.515-3.338-1.207-3.072-5.145-4.606-8.242-3.465s-5.075 4.553-4.885 7.85c.046.805.204 1.62.04 2.4s-.78 1.566-1.587 1.578c-.556.008-1.054-.344-1.442-.742-.827-.848-1.353-1.983-1.465-3.16"/><path d="M269.32 30.805c-.14 0-.255-.112-.258-.253-.036-1.95-.4-3.855-1.08-5.674a15.69 15.69 0 0 0-1.412 4.546.26.26 0 0 1-.294.217.26.26 0 0 1-.217-.294 16.25 16.25 0 0 1 1.725-5.218c.047-.088.143-.138.24-.137s.188.067.226.16a17.56 17.56 0 0 1 1.327 6.391c.002.142-.1.26-.253.263zm7.656 14.298c-.397 0-.792-.085-1.165-.275-.127-.065-.178-.22-.113-.347s.22-.178.347-.113c1.232.627 2.784-.165 3.515-1.258.783-1.17.95-2.626 1.065-4.14a98.31 98.31 0 0 0 .179-11.776c-1.07 1.522-2.52 3.256-3.925 4.94l-4.326 5.533c-.078.12-.238.153-.358.075s-.152-.238-.075-.357c1.1-1.666 2.754-3.656 4.362-5.58l4.325-5.532c.06-.093.175-.137.283-.108s.185.124.2.236a99.18 99.18 0 0 1-.142 12.61c-.115 1.523-.298 3.116-1.15 4.4-.64.955-1.83 1.705-3.012 1.705z"/><path d="M273.846 35.5c-2.9-9.28-4.737-21.44-7.506-31.65-.132-.5.556-.746.78-.292 4.34 8.813 7.95 17.777 12.065 25.7M272.28 99.18c-.085 0-.168-.042-.217-.12-.077-.12-.042-.28.078-.357 8.937-5.72 15.67-14.87 18.476-25.104.797-2.906 1.113-5.294.995-7.516-.108-2.044-.6-4.07-1.088-5.78-2.304-8.262-5.728-13.856-10.467-17.102a.26.26 0 0 1-.067-.36c.08-.12.24-.148.36-.067 4.843 3.318 8.334 9.006 10.672 17.4.485 1.74.996 3.8 1.107 5.893.12 2.278-.2 4.718-1.013 7.68-2.838 10.355-9.652 19.614-18.695 25.402a.25.25 0 0 1-.14.04z"/><path d="M296.363 107.433a.25.25 0 0 1-.142-.043c-.12-.08-.15-.24-.072-.358 2.93-4.414 5.478-9.12 7.573-13.986 1.017-2.36 1.914-5.08.87-7.354-.047-.102-.023-.222.06-.297s.203-.1.3-.036l1.14.637a102.52 102.52 0 0 0 1.842-9.746c.27-1.933.42-4.65-1.347-5.922-.07-.05-.1-.13-.107-.216a.21.21 0 0 1 .12-.2l1.845-1.183a7.71 7.71 0 0 0-1.548-1.451c-.075-.053-.116-.142-.108-.234s.065-.172.148-.2c.986-.46 1.36-1.688 1.293-2.636-.08-1.107-.627-2.174-1.1-3.115L303.482 54c-.392-.764-.797-1.555-1.433-2.125-.67-.6-1.533-.82-2.2-.564-.125.048-.266-.007-.325-.128s-.015-.266.1-.335c.6-.348.72-1.193.544-1.8-.205-.72-.742-1.338-1.216-1.883l-4.064-4.678c-.798-.918-1.702-1.96-2.877-2.467-1.042-.45-2.544-.397-3.276.6a.26.26 0 0 1-.336.07.26.26 0 0 1-.11-.325l.98-2.3a28.13 28.13 0 0 0-7.784-4.856c-.132-.055-.194-.206-.14-.337a.26.26 0 0 1 .337-.14 28.66 28.66 0 0 1 8.067 5.07c.083.074.1.192.066.294l-.635 1.5c.927-.477 2.13-.42 3.033-.03 1.282.555 2.227 1.643 3.06 2.603l4.064 4.68c.5.586 1.086 1.25 1.322 2.08.162.568.12 1.26-.2 1.795.655.012 1.35.3 1.916.8.707.634 1.154 1.505 1.548 2.273l3.638 7.094c.505.985 1.078 2.102 1.165 3.314.074 1.034-.285 2.278-1.23 2.934a8.22 8.22 0 0 1 1.514 1.544.26.26 0 0 1 .048.2c-.012.07-.054.133-.115.17l-1.78 1.142c1.687 1.498 1.537 4.22 1.265 6.18a102.99 102.99 0 0 1-1.931 10.127c-.02.078-.074.143-.148.176s-.16.028-.23-.01l-.818-.457c.702 2.293-.157 4.854-1.122 7.095a89.39 89.39 0 0 1-7.617 14.068c-.05.075-.13.115-.215.115zm-25.068-38.815a.26.26 0 0 1-.252-.202c-.03-.14.057-.277.196-.308a15.67 15.67 0 0 0 7.447-4.024c.102-.1.266-.097.365.005s.098.265-.005.365a15.97 15.97 0 0 1-7.696 4.158.28.28 0 0 1-.056.006zm2.342.99c-.118 0-.224-.08-.25-.2-.032-.14.055-.277.194-.3a6.1 6.1 0 0 0 2.764-1.451c.104-.096.268-.1.365.016s.1.268-.016.365a6.6 6.6 0 0 1-3 1.574.3.3 0 0 1-.058.006zm-.077-31.14l4.403-6.06c.264 2.4.08 4.868-.536 7.213-.174.663-.397 1.34-.866 1.84s-1.25.767-1.86.458c-.443-.225-.707-.694-.877-1.16-.257-.706-.357-1.468-.3-2.216m-48.946 141.983l-.5-.083c.638-3.92 1.948-9.156 2.905-12.977l.5.125c-.955 3.813-2.262 9.035-2.896 12.935zM268.3 195.08c-.767 0-1.443-.4-1.8-1.074a440.52 440.52 0 0 1-7.962-15.301c-.07-.14-.2-.143-.24-.14s-.172.02-.227.167c-1.688 4.486-2.928 9.07-3.82 12.562a2.02 2.02 0 0 1-1.884 1.544c-.9.048-1.716-.478-2.034-1.34l-4.866-13.166a.25.25 0 0 0-.22-.148c-.102-.006-.188.043-.236.13-1.378 2.477-2.677 5.277-3.933 7.984l-1.37 2.93a2.01 2.01 0 0 1-1.965 1.167c-.85-.046-1.55-.574-1.832-1.377-1.393-3.985-2.676-8.068-3.813-12.135-.043-.153-.175-.18-.214-.186s-.172-.01-.25.125l-1.678 2.85-2.274 3.902-.452-.25c.6-1.07 1.45-2.516 2.282-3.916l1.674-2.843a.76.76 0 0 1 .762-.379.76.76 0 0 1 .647.56c1.134 4.056 2.413 8.13 3.803 12.103a1.52 1.52 0 0 0 1.373 1.032 1.51 1.51 0 0 0 1.472-.874l1.37-2.924c1.26-2.716 2.564-5.524 3.95-8.018.144-.26.413-.414.717-.395.298.017.555.198.67.474l4.87 13.176a1.51 1.51 0 0 0 1.524 1.004 1.51 1.51 0 0 0 1.411-1.156c.895-3.505 2.14-8.107 3.837-12.616a.75.75 0 0 1 .684-.5.75.75 0 0 1 .728.428 440.11 440.11 0 0 0 7.952 15.283c.275.504.782.805 1.357.805a1.51 1.51 0 0 0 1.35-.805 185.3 185.3 0 0 0 6.744-13.887l.473.206a186.15 186.15 0 0 1-6.763 13.926 2.02 2.02 0 0 1-1.8 1.077zm-103.58-87.26a.87.87 0 0 1-.394-.095c-.312-.156-.657-.553-.532-1.556.2-1.668.8-4.235 1.554-5.915.058-.13.2-.2.34-.132s.2.2.132.34c-.722 1.635-1.308 4.14-1.514 5.77-.04.318-.06.875.25 1.03.404.203.915-.45 1.06-.653l1.293-1.808c.293-.4.624-.873 1.1-1.176 1.03-.653 2.33-.354 3.468-.022l3.687 1.076c.137.04.215.183.175.32s-.183.216-.32.175l-3.687-1.076c-1.077-.314-2.2-.576-3.047-.038-.393.25-.68.65-.958 1.04l-1.293 1.808c-.425.595-.888.9-1.318.9zm32.976-1.788c-.047 0-.095-.013-.137-.04-2.204-1.386-4.542-2.587-6.803-3.748-4.282-2.2-8.7-4.475-12.168-8.02l-.784-.96-5.5-6.893c-.283-.363-.604-.775-1.02-1-.696-.36-1.553-.166-2.442.083-2.018.566-4.105 1.152-5.818 2.403-.27.198-.54.42-.67.7-.103.23-.095.565.1.723.17.138.446.14.737.128l5.035-.2c.63-.023 1.287-.01 1.763.413.336.3.483.732.602 1.08l.824 2.438a.26.26 0 0 1-.16.328c-.134.046-.282-.026-.327-.16l-.824-2.438c-.104-.305-.222-.652-.457-.86-.333-.297-.85-.303-1.4-.282l-5.035.2c-.297.01-.748.028-1.082-.244-.405-.33-.43-.92-.244-1.334.18-.4.523-.688.836-.916 1.788-1.305 4.017-1.93 5.983-2.483.954-.267 1.957-.5 2.82-.044.516.267.873.726 1.2 1.13l5.495 6.888.765.937c3.383 3.467 7.578 5.622 12.02 7.904 2.27 1.167 4.62 2.373 6.842 3.77.12.076.157.235.08.356a.26.26 0 0 1-.22.12z"/><path d="M161.435 104.885c-.434 0-.9-.254-1-.723-.053-.25.017-.5.07-.666a43.82 43.82 0 0 1 2.56-6.686c.274-.572.56-1.12 1.032-1.528.4-.34.878-.544 1.304-.7a22.75 22.75 0 0 1 4.279-1.198l.06-.01c.904-.16 2.418-.428 3.037.563.17.273.272.565.37.848l.166.442.578 1.247 1.438 2.733c.07.124.025.282-.1.35s-.282.025-.35-.1l-1.453-2.76-.587-1.267-.18-.476c-.094-.268-.182-.52-.322-.745-.434-.696-1.733-.465-2.5-.328l-.06.01a22.23 22.23 0 0 0-4.182 1.17c-.403.157-.824.334-1.153.62-.398.345-.655.84-.905 1.36a43.38 43.38 0 0 0-2.529 6.607c-.048.166-.083.302-.06.415.047.22.34.34.574.3.298-.04.57-.24.82-.454 1.054-.9 1.893-2.062 2.705-3.185l.733-1c.232-.3.47-.598.83-.75.42-.177.87-.102 1.293-.01 1.924.417 3.814 1.03 5.62 1.82.13.057.2.2.133.34s-.2.2-.34.133a29.35 29.35 0 0 0-5.52-1.788c-.357-.077-.702-.137-.983-.018-.24.1-.43.334-.617.584l-.727.993c-.83 1.147-1.687 2.333-2.788 3.274-.296.253-.656.518-1.1.574-.044.006-.1.01-.136.01zm17.235 5.38c-.65 0-1.283-.25-1.878-.53a19.79 19.79 0 0 1-3.437-2.077c-.997-.75-2.236-1.685-3.34-1.234-.487.2-.86.65-1.2 1.05l-.468.566a1.13 1.13 0 0 1-1.324.331 1.13 1.13 0 0 1-.71-1.16 16.92 16.92 0 0 1 .51-2.208c.052-.133.202-.198.334-.146a.26.26 0 0 1 .146.335 17.34 17.34 0 0 0-.476 2.064c-.03.34.183.552.4.638s.512.083.73-.182l.468-.566c.35-.424.786-.95 1.393-1.2 1.374-.56 2.745.47 3.846 1.3a19.28 19.28 0 0 0 3.347 2.022c.656.3 1.355.58 2.024.446.463-.092.88-.373 1.284-.644l3.97-2.667c.118-.08.28-.048.358.07a.26.26 0 0 1-.07.358l-3.97 2.667c-.425.285-.906.6-1.47.72a2.49 2.49 0 0 1-.468.046z"/><path d="M191.578 114.974c-.06 0-.12-.02-.17-.063-2.968-2.562-5.406-4.9-7.905-7.547a.26.26 0 0 1 .01-.365.26.26 0 0 1 .365.01c2.486 2.644 4.912 4.96 7.866 7.5.108.093.12.256.027.364-.05.06-.123.1-.195.1zM335.4 251.856c-.806-1.872-2.626-3.798-3.43-5.085a141.91 141.91 0 0 1-5.989-10.577c-3.803-7.435-6.965-15.2-9.544-23.132-5.1-15.74-7.94-32.18-8.97-48.68-.717-11.48-.597-23.022-2-34.436-1.263-10.2-4.4-21.23-13.007-26.862-4.764-3.12-10.573-4.13-16.22-4.872-4.127-.542-8.492-.847-12.48-2.068-2.792-.855-5.473-2.316-7.318-4.58-3.03-3.718-3.66-8.597-8.792-10.106-4.726-1.4-8.546.212-13.346-.474-1.205-.137-3.636.23-4.844.333-2.672.226-5.1 1.798-6.798 3.88s-2.7 5.256-3.38 7.85c1.207-4.66 7.018-.08 7.445 2.738.255 1.683.005 3.395-.053 5.095-.28 8.27 4.23 16.345 10.946 21.18 4.48 3.227 9.843 5.075 15.3 5.677 5.03.554 9.562-.86 14.545-.662 6.85.27 13.76 1.4 20.458 2.84-3.425 11.988-10.894 22.538-12.832 34.996-2.072 13.317-.7 27.032.286 40.4 1.153 15.606 2.66 31.196 4.612 46.723 2.067 16.713 3.23 35.028 13.765 48.165.274.34.65.038.65.038a110.89 110.89 0 0 0 33.824-25.439c1.427-1.585 3.635-5.98-.106-6.524-1.25-.182-2.5.3-3.763.332s-2.766-.64-2.84-1.9c-.03-.48.162-.945.383-1.373 2.012-3.893 6.403-5.785 10.283-7.823 1.322-.694 2.7-1.5 3.358-2.847.425-.852.28-1.817-.14-2.798z"/><path d="M250.68 156.156c-3.974 0-7.767-.777-10.85-1.565-6.843-1.75-13.575-5.264-21.828-11.393a146.14 146.14 0 0 1-27.581-26.78l-.12-.15 9-12.86.218.234c7.368 7.926 15.325 15.45 23.65 22.364 4.034 3.35 8.403 6.78 13.56 8.673 9.98 3.665 22.17.403 28.986-7.755 1.5-1.784 2.762-3.8 4-5.747 1.552-2.46 3.157-5.003 5.226-7.124l.052-.04 2.462-1.476c1.616-1.06 3.67-1.318 5.77-.725 1.927.544 3.774 1.78 5.067 3.387 2.364 2.94 3.062 7.418 1.822 11.688-1.255 4.32-4.2 7.944-6.3 10.293a64.3 64.3 0 0 1-3.74 3.847 64.23 64.23 0 0 1-4.072 3.536 64.05 64.05 0 0 1-4.356 3.18 69.96 69.96 0 0 1-4.607 2.8l-1.25.695-2.47 1.395-.22.13c-3.933 2.553-8.27 3.397-12.412 3.397zm-59.734-39.907c7.916 10.002 17.122 18.93 27.364 26.535 8.197 6.087 14.874 9.574 21.65 11.307 12.944 3.312 19.247.576 22.86-1.77l.23-.136c.82-.485 1.666-.952 2.483-1.402l.415-.23.833-.464c1.733-.973 3.228-1.882 4.573-2.78a63.9 63.9 0 0 0 4.32-3.155 63.73 63.73 0 0 0 4.039-3.507 62.97 62.97 0 0 0 3.71-3.816c2.065-2.3 4.952-5.873 6.178-10.093 1.194-4.1.53-8.4-1.728-11.22-3.034-3.773-7.55-4.26-10.162-2.548l-2.44 1.464c-2.02 2.078-3.604 4.588-5.136 7.016-1.238 1.963-2.52 3.992-4.032 5.803-6.95 8.32-19.383 11.647-29.56 7.9-5.235-1.922-9.645-5.382-13.713-8.76a254.39 254.39 0 0 1-23.48-22.176l-8.404 12.022zM276.92 347.4c-2.356 0-5.298-.42-8.786-1.26l-6.522-1.897-.154-.055-.017-.162-8.776-86.124.514-.052 8.76 85.96c1.38.473 11.67 3.895 17.407 2.885 5.5-.97 9.324-2.82 10.098-3.215l-4.045-67.286.515-.03 4.064 67.616-.144.078c-.04.022-4.164 2.245-10.4 3.345-.745.132-1.585.197-2.515.197z"/><path d="M247.94 331.97a33.59 33.59 0 0 1-7.492-.838c-6.387-1.46-7.297-3.707-6.8-9.72l1.464-18.284.514.043-1.464 18.284c-.495 5.864.283 7.78 6.4 9.175 6.22 1.42 12.807 1.004 19.58-1.24l.162.5c-4.204 1.392-8.34 2.1-12.365 2.1zm7.04-77.762a10.77 10.77 0 0 1-1.333-.084.26.26 0 0 1-.224-.288c.018-.14.145-.24.288-.224 2.37.295 4.623-.24 6.184-1.467 1.27-1 2.04-2.417 2.232-4.1.016-.14.14-.246.286-.227s.243.144.227.286c-.207 1.825-1.046 3.363-2.425 4.45-1.37 1.078-3.228 1.657-5.235 1.657zm24.758 90.154c-.084 0-.167-.001-.25-.002-.143-.003-.256-.12-.253-.263a.26.26 0 0 1 .263-.253c2.654.058 5.264-.797 7.372-2.397.113-.086.276-.065.36.05s.064.275-.05.36c-2.133 1.62-4.768 2.505-7.444 2.505zm1.832-2.56a.26.26 0 0 1-.258-.244c-.008-.137.102-.264.244-.272a7.91 7.91 0 0 0 3.651-1.124c.122-.074.28-.034.354.088s.034.28-.088.354a8.43 8.43 0 0 1-3.9 1.197zM254.3 153.366a.26.26 0 0 1-.054-.006c-.14-.03-.228-.167-.198-.306.3-1.437 1.493-2.655 3.1-3.178s3.273-.24 4.372.738c.106.095.116.258.02.364s-.258.116-.365.02c-.962-.856-2.445-1.098-3.868-.633s-2.477 1.537-2.747 2.795a.26.26 0 0 1-.252.204zm.138 206.62c-.996 0-1.982-.077-2.958-.304-2.066-.48-3.738-1.632-4.587-3.158-.3-.54-.62-1.364-.434-2.22.3-1.4 1.696-2.133 3.02-2.677 5.46-2.244 11.815-4.756 18.1-6.16.14-.03.277.057.308.196s-.057.277-.196.308c-6.257 1.397-12.336 3.797-18.027 6.135-1.2.493-2.462 1.154-2.713 2.3-.152.7.123 1.397.38 1.86.778 1.4 2.328 2.46 4.252 2.906 1.75.407 3.56.3 5.416.166 6.1-.476 12.114-1.386 17.9-2.706 2.103-.48 4.185-1.15 5.176-2.796 1.27-2.112.444-5.496.03-6.853-.042-.136.035-.28.17-.322s.28.035.322.17c.435 1.423 1.297 4.98-.08 7.27-1.1 1.813-3.3 2.53-5.504 3.033-5.82 1.325-11.87 2.24-17.984 2.718-.88.07-1.752.126-2.615.126z"/><path d="M258.505 362.197c-5.15 0-8.703-1.364-10.588-4.077a.26.26 0 0 1 .065-.36c.117-.082.278-.053.36.065 2.345 3.374 7.5 4.544 15.296 3.473a110.49 110.49 0 0 0 11.764-2.27c1.605-.4 2.338-.585 3.562-1.7 1.136-1.044 2.158-4.67 1.853-6.574a.26.26 0 0 1 .214-.296c.14-.023.273.073.296.214.3 1.932-.63 5.764-2.013 7.036-1.32 1.214-2.197 1.433-3.787 1.83-3.88.97-7.857 1.738-11.82 2.28-1.884.258-3.62.387-5.202.387zM233.633 341.6a44.72 44.72 0 0 1-4.873-.249c-.866-.095-1.86-.238-2.694-.732-.953-.564-1.5-1.53-1.42-2.457.132-1.37 1.48-2.165 2.64-2.706l1.105-.516c3.585-1.677 7.292-3.412 11.162-4.522.137-.04.28.04.32.177s-.04.28-.177.32c-3.83 1.1-7.52 2.825-11.086 4.494l-1.106.517c-1.035.483-2.237 1.178-2.344 2.288-.08.83.53 1.584 1.17 1.963.746.442 1.638.57 2.488.663 5.04.553 10.18.067 15.147-.403l7.18-.68c2.425-.23 4.813-.7 5.862-2.498.417-.72.553-1.567.63-2.302a17.04 17.04 0 0 0-.123-4.517c-.023-.14.073-.273.214-.296s.273.073.296.214a17.6 17.6 0 0 1 .127 4.653c-.083.8-.232 1.704-.698 2.507-1.166 2-3.697 2.5-6.26 2.753l-7.18.68c-3.406.322-6.892.652-10.38.652z"/><path d="M229.545 339.166c-1.652 0-3.843-.397-4.466-1.895-.055-.132.008-.283.14-.337a.26.26 0 0 1 .338.139c.582 1.4 3.196 1.7 4.8 1.54l20.7-1.887c2.276-.208 5.394-.492 6.6-2.4a.26.26 0 0 1 .356-.08c.12.076.156.236.08.356-1.34 2.122-4.605 2.42-7 2.637h-.027l-20.663 1.885-.867.038zM204.56 163.55l.516-.014.064 2.286-.516.014zm-63.72 27.58c-.077 0-.153-.034-.203-.1-.088-.112-.068-.274.044-.362 1.6-1.26 2.7-2.414 3.464-3.63.93-1.5 1.317-3.177 1.1-4.717-.004-.025-.014-.092-.025-.1-.006-.004-.045-.014-.088 0-.582.187-1.1.898-1.514 1.47l-.28.377a24.8 24.8 0 0 1-4.945 4.82c-.092.068-.218.067-.3-.003s-.125-.2-.084-.298c.374-.974.8-2.078.623-3.156-.058-.356-.256-.752-.552-.778-.642-.053-1.243 1.406-1.817 4.343l-.1.442a.26.26 0 0 1-.307.197c-.14-.03-.227-.168-.197-.307l.087-.43c.496-2.537 1.136-4.868 2.37-4.758.613.054.93.685 1.017 1.2.145.9-.068 1.787-.342 2.6a24.29 24.29 0 0 0 4.139-4.184l.27-.364c.46-.632 1.03-1.418 1.773-1.657.25-.08.515-.01.657.178.092.12.113.262.126.346.244 1.66-.17 3.46-1.162 5.064-.787 1.27-1.926 2.467-3.585 3.765-.047.037-.103.055-.16.055z"/><path d="M141.878 193.382c-.084 0-.167-.04-.217-.118-.078-.12-.044-.28.076-.357 2.856-1.853 4.982-5.118 5.417-8.318.012-.1.02-.17.005-.223a2.54 2.54 0 0 0-.387.279l-.46.41-.957.895c-.098.103-.262.108-.365.01s-.108-.262-.01-.365c.312-.33.657-.633 1-.927l.453-.404c.02-.02.495-.454.76-.44.213.01.4.17.468.393.046.152.033.296.013.44-.454 3.343-2.67 6.75-5.647 8.682-.043.028-.092.042-.14.042z"/><path d="M142.806 195.313c-.08 0-.16-.038-.2-.108-.083-.116-.056-.277.06-.36 2.727-1.946 4.86-4.75 6-7.897.085-.234.102-.49.04-.6-.017-.032-.036-.047-.07-.055-.078-.02-.2.05-.364.204-.698.665-1.472 1.44-1.91 2.144-.075.12-.235.158-.355.083s-.158-.234-.083-.355c.47-.755 1.27-1.558 1.993-2.245.124-.118.452-.43.846-.33a.61.61 0 0 1 .399.314c.16.3.1.73-.01 1.03a17.45 17.45 0 0 1-6.195 8.141c-.045.032-.098.048-.15.048z"/><path d="M137.533 199.62c-.14 0-.256-.113-.258-.254a.26.26 0 0 1 .254-.263c2.478-.043 5.054-1.025 7.252-2.764 1.742-1.38 4.008-3.577 4.9-6.222.128-.375.133-.714.012-.845-.1-.118-.36-.076-.497-.04-.553.142-1.896 1.287-2.113 1.8a.26.26 0 0 1-.338.137c-.13-.056-.193-.207-.137-.338.28-.662 1.75-1.918 2.46-2.1.554-.142.852.024 1.005.2.26.282.296.78.097 1.362-.944 2.764-3.283 5.038-5.08 6.46-2.286 1.8-4.972 2.83-7.563 2.876zm-24.38-73.115c-.072 0-.144-.03-.195-.1a56.43 56.43 0 0 1-9.877-16.298c-.43-1.1-.828-2.472-.085-3.506.753-1.05 2.222-1.225 4.367-.522a140.15 140.15 0 0 1 9.328 3.431c2.527 1.033 5.337 2.347 6.698 4.87.068.126.02.282-.105.35a.26.26 0 0 1-.35-.105c-1.28-2.374-3.995-3.64-6.44-4.638l-9.293-3.418c-1.3-.43-3.03-.72-3.786.332-.597.832-.235 2.05.147 3.016a55.91 55.91 0 0 0 9.787 16.149c.093.108.082.27-.026.364a.26.26 0 0 1-.169.063zm18.002 29.572c-2.8 0-5.5-1.47-7.724-2.678-1.96-1.064-3.16-2.238-4.548-3.597l-1.635-1.558a203.08 203.08 0 0 1-7.755-7.425l-8.57-7.917c-1.304-1.205-3.068-2.147-4.112-1.176-.415.386-.582.995-.7 1.54-.234 1.172-.304 2.412-.37 3.612-.115 2.048-.234 4.166-1.173 6.038-.307.612-.984 1.647-2.07 1.7-.803.035-1.467-.5-2.072-1.06a48.59 48.59 0 0 1-13.077-21.013c-1.595-5.182-1.58-10.542.038-14.337a.26.26 0 0 1 .339-.136.26.26 0 0 1 .136.34c-1.573 3.686-1.58 8.914-.02 13.983 2.438 7.917 6.912 15.106 12.938 20.8.487.46 1.05.946 1.696.92.822-.033 1.374-.895 1.63-1.406.9-1.776 1-3.748 1.118-5.835.068-1.217.14-2.476.38-3.684.125-.626.323-1.33.846-1.817 1.638-1.523 4.098.514 4.813 1.175l8.577 7.924a203.41 203.41 0 0 0 7.744 7.414c.606.55 1.137 1.07 1.65 1.57 1.36 1.332 2.536 2.482 4.434 3.512 2.42 1.314 5.43 2.95 8.404 2.555.142-.018.27.08.3.222s-.08.27-.222.3a7.54 7.54 0 0 1-.995.065zm-10.45-9.35a.27.27 0 0 1-.11-.024c-.13-.06-.184-.214-.124-.343a4.22 4.22 0 0 1 3.219-2.341c.143-.018.27.083.288.224s-.082.27-.224.288a3.69 3.69 0 0 0-2.817 2.048c-.044.094-.137.148-.234.148zm10.17-32.823a.25.25 0 0 1-.136-.04.26.26 0 0 1-.082-.356 17.98 17.98 0 0 0 2.585-7.361c.065-.547.084-1.156-.262-1.523-.273-.3-.73-.374-1.184-.42a14.92 14.92 0 0 0-7.994 1.419c-.128.062-.283.01-.345-.118s-.01-.283.118-.345a15.46 15.46 0 0 1 8.274-1.47c.553.057 1.117.168 1.506.58.494.525.473 1.3.4 1.937-.316 2.672-1.235 5.3-2.66 7.574a.26.26 0 0 1-.22.122zm-10.782 5.204c-1.235 1.575-2.696 2.97-4.306 4.16-.254.188-.532.377-.847.4-.534.02-.937-.46-1.24-.9-1.553-2.25-2.837-4.686-3.816-7.24-.27-.7-.427-1.674.225-2.046.237-.135.525-.144.797-.127 1.556.092 2.987.84 4.363 1.57l4.45 2.365s1.467.432.374 1.827zm7.444 2.293c-.2 0-.377-.083-.504-.242-.223-.278-.177-.684.1-.907 1.784-1.428 3.78-2.54 5.933-3.307.335-.12.705.056.825.4s-.056.705-.392.824a19.16 19.16 0 0 0-5.56 3.1.64.64 0 0 1-.402.141zm1.904 1.888a.64.64 0 0 1-.396-.136c-.28-.22-.332-.624-.112-.906a10.73 10.73 0 0 1 5.025-3.55c.338-.113.703.07.816.4s-.07.704-.4.816a9.44 9.44 0 0 0-4.415 3.12.64.64 0 0 1-.5.25z"/><path d="M130.092 135.014c-.568 0-1.135-.15-1.618-.45a3.15 3.15 0 0 1-1.41-3.08.26.26 0 0 1 .295-.215.26.26 0 0 1 .215.295 2.62 2.62 0 0 0 1.172 2.562 2.62 2.62 0 0 0 2.816-.077.26.26 0 0 1 .36.063c.082.116.054.278-.063.36a3.09 3.09 0 0 1-1.768.542zm-30.126 80.444c-4.347 0-9.52-.896-13.145-4.4l-2.843-2.314c-2.256-2.122-3.914-4.684-5.715-7.88-11.126-19.758-16.665-42.046-22.02-63.6a.26.26 0 0 1 .188-.313c.138-.035.278.05.313.188 5.348 21.52 10.88 43.774 21.97 63.47 1.777 3.156 3.4 5.682 5.605 7.746l2.846 2.316c4.188 4.047 10.536 4.508 15.125 4.186 11.22-.8 21.632-5.837 31.213-11.174l2.945-1.755c.968-5.24.16-10.714-2.275-15.452-4.293 2.178-8.73 4.2-13.192 5.986-6.596 2.653-14.317 5.1-21.563 3.15-2.285-.616-4.115-1.588-5.438-2.9-1.766-1.738-2.727-4.167-3.5-6.308-2.6-7.3-4.37-14.983-6.08-22.413-1.907-8.277-3.878-16.836-7-24.867-1.088-2.798-2.38-5.723-4.444-8.154-2.186-2.575-5.038-4.177-7.825-4.396-3.196-.25-6.334 1.478-7.462 4.1-.056.13-.2.2-.34.136a.26.26 0 0 1-.136-.34c1.212-2.83 4.565-4.7 7.976-4.422 2.923.23 5.904 1.897 8.18 4.576 2.12 2.496 3.48 5.597 4.53 8.3 3.145 8.056 5.12 16.644 7.03 24.94 1.7 7.417 3.475 15.086 6.065 22.356.777 2.182 1.677 4.452 3.365 6.113 1.26 1.24 3.012 2.168 5.2 2.76 7.1 1.913 14.72-.508 21.236-3.13 4.527-1.82 9.028-3.867 13.378-6.083a.26.26 0 0 1 .346.11 24.79 24.79 0 0 1 2.421 16.129c-.014.073-.058.136-.12.174l-3.052 1.82c-9.64 5.37-20.113 10.445-31.434 11.24a33.54 33.54 0 0 1-2.359.085z"/><path d="M38.412 191.922c-.024 0-.05-.003-.073-.01-.137-.04-.215-.184-.174-.32 1.82-6.17 3.704-12.55 4.033-19.085.18-3.583-.1-7.23-.394-10.758-.24-3-.487-6.08-.448-9.13.048-3.8.546-7.838 1.48-12.03.87-3.9 1.958-7.22 3.325-10.152 5.013-10.742 15.553-19 27.507-21.578l5.228-1.246c6.514-4.096 13.428-7.648 20.55-10.556 3.256-1.33 7.062-2.747 11.04-2.747 4.283.004 8.132 1.853 10.06 4.828.57.88.982 1.854 1.38 2.796l.62 1.412c1.535 3.226 4.057 5.912 6.496 8.5l1.62 1.74c2.67 2.93 5.8 6.886 6.3 11.53.163 1.517.04 3.055-.08 4.542-.096 1.205-.196 2.45-.14 3.667.18 3.914 1.943 7.566 3.65 11.098 1.516 3.14 3.084 6.386 3.6 9.863.158 1.1.28 2.7-.498 4-1.18 1.986-3.9 2.38-5.882 1.745-2.088-.674-3.74-2.247-5.195-3.634l-11-10.48a.26.26 0 0 1-.01-.365.26.26 0 0 1 .365-.01l11 10.48c1.416 1.35 3.022 2.88 4.998 3.517 1.782.575 4.238.24 5.28-1.517.528-.9.665-2.054.432-3.663-.493-3.4-2.043-6.6-3.543-9.713-1.73-3.58-3.516-7.28-3.7-11.3-.057-1.25.044-2.5.142-3.732.117-1.463.238-2.976.08-4.445-.483-4.495-3.55-8.366-6.168-11.236l-1.614-1.736c-2.466-2.626-5.016-5.34-6.586-8.64-.225-.472-.43-.96-.63-1.433-.4-.92-.792-1.874-1.338-2.716-1.835-2.83-5.52-4.6-9.614-4.592-3.9 0-7.65 1.398-10.86 2.7a133.02 133.02 0 0 0-20.508 10.538.27.27 0 0 1-.078.033l-5.275 1.257c-11.805 2.536-22.207 10.694-27.153 21.293-1.352 2.897-2.428 6.183-3.3 10.046-.927 4.158-1.42 8.17-1.47 11.925-.038 3.027.208 6.105.447 9.083.284 3.544.578 7.2.395 10.825-.333 6.595-2.224 13.006-4.054 19.205a.26.26 0 0 1-.248.185zm49.973-13.26a.26.26 0 0 1-.213-.406c4.092-5.932 7.5-13.364 9.885-21.493 2.388-8.174 3.5-16.274 3.185-23.423a.26.26 0 0 1 .247-.27.26.26 0 0 1 .269.247c.306 7.204-.802 15.362-3.205 23.6-2.4 8.18-5.833 15.665-9.956 21.64-.05.072-.13.1-.213.1z"/><path d="M40.122 349.74c-1.205 0-2.37-.237-3.14-1.12-.66-.76-.82-1.75-.944-2.87-3.845-34.192-6.315-68.97-7.342-103.364l-.215-5.78c-.648-15.772-1.26-30.67 9.715-45.362a.26.26 0 0 1 .361-.053c.027.02 2.8 2.032 13.682 6.833 10.853 4.788 24.59 1.437 24.728 1.403s.275.047.312.182c6.778 24.795 8.68 50.79 10.52 75.928 1.32 18.015 2.682 36.643 5.825 54.743.02.113-.038.226-.142.276l-.888.43c-8.727 3.875-17.67 5.676-26.6 5.36l.18 2.513c.15 2.042.184 4.342-1.3 5.777-.84.812-1.987 1.153-3.187 1.458a138.9 138.9 0 0 1-20.237 3.571 13.5 13.5 0 0 1-1.336.076zM38.46 191.753c-10.71 14.48-10.105 29.226-9.464 44.832l.216 5.787c1.026 34.38 3.495 69.144 7.34 103.323.116 1.032.258 1.94.82 2.587.898 1.034 2.544 1.02 4.034.87 6.777-.682 13.56-1.88 20.162-3.557 1.174-.298 2.206-.604 2.956-1.33 1.325-1.28 1.286-3.443 1.145-5.37a1114.47 1114.47 0 0 1-1.922-128.202c.006-.142.13-.256.27-.247s.253.126.247.27a1114.05 1114.05 0 0 0 1.705 125.112c8.858.324 17.744-1.462 26.41-5.3l.706-.34c-3.124-18.065-4.483-36.64-5.798-54.602-1.832-25.032-3.727-50.915-10.44-75.59-1.918.43-14.607 3.015-24.815-1.488-9.437-4.163-12.758-6.204-13.57-6.744z"/><path d="M78.016 351.074c-1.2 0-3.008-.252-4.3-1.562-1.26-1.276-1.614-3.156-1.8-4.998a59.69 59.69 0 0 1-.298-8.376.26.26 0 0 1 .267-.25c.144.004.254.125.25.267-.096 2.762.003 5.555.296 8.303.186 1.75.517 3.527 1.664 4.7.973.986 2.564 1.495 4.373 1.396 1.213-.067 2.427-.37 3.6-.664l1.204-.293c2.822-.645 5.62-.85 7.986-.97.145-.014.264.103.27.245s-.103.264-.245.27c-2.343.116-5.114.32-7.896.956l-1.194.3c-1.197.3-2.435.6-3.697.68l-.468.013zm-32.2 14.06c-1.545 0-3.393-.508-4.4-1.96-.97-1.397-.897-3.184-.74-4.894l.06-.668.956-8.3c.023-.14.153-.237.296-.214s.236.155.214.296l-.952 8.255-.06.668c-.148 1.616-.22 3.3.65 4.553.986 1.42 2.92 1.824 4.395 1.725 1.226-.08 2.444-.44 3.62-.786l1.388-.393c2.955-.77 6.117-.96 9.174-1.143 5.093-.305 9.904-.594 13.915-3.32 1.135-.77 1.814-1.527 2.14-2.378.338-.888.224-2.16-.654-2.765-.4-.277-.917-.384-1.37-.462-1.63-.282-3.323-.338-4.96-.392-1.557-.052-3.166-.105-4.737-.35-3-.468-6.667-2.136-8.013-5.4a.26.26 0 0 1 .14-.337.26.26 0 0 1 .337.14c1.264 3.077 4.763 4.65 7.615 5.097 1.54.24 3.133.294 4.674.345 1.655.055 3.365.1 5.03.4.506.088 1.087.2 1.575.546 1.095.756 1.252 2.303.843 3.374-.364.955-1.105 1.788-2.33 2.62-4.128 2.805-9.235 3.1-14.174 3.408-3.032.182-6.168.37-9.075 1.128-.458.12-.922.256-1.372.4-1.204.355-2.45.72-3.733.806a6.79 6.79 0 0 1-.452.015zm-7.128-174.75c-2.923-1.196-5.554-3.507-7.5-5.994-7.23-9.232-11.382-20.718-12.407-32.4s1.006-23.54 5.22-34.485c-6.108 8.433-10.18 18.33-11.773 28.622-.852 5.5-.973 11.297 1.112 16.46-2.715-2.754-4.93-5.998-6.5-9.527-.095 7.08 2.818 14.152 7.873 19.1a32.21 32.21 0 0 1-8.008-3.97c6.368 11.755 18.24 20.713 31.253 23.783M97.872 130.9l-.407 5.77c-.12 1.72-.567 3.53-.567 5.238-.56 3.294-1.675 7.634-4.63 9.625-.513.346-1.15.55-1.757.43-.746-.146-1.316-.74-1.78-1.34-2.133-2.75-3.703-5.9-5.524-8.85-3.035-4.913-5.33-10.2-7.88-15.366-1.013-2.05-2.44-4.426-4.94-4.73-1.58-.2-8.287 1.583-9.988 2.194-.968.35-1.8-.782-1.162-1.598 2.012-2.606 3.912-5.357 6.3-7.643 2.473-2.368 5.416-4.078 8.615-5.265 1.135-.42 2.3-.812 3.484-1.072 0 0-2.43 7.958.8 15.694 1.536 3.686 3.353 7.398 5.542 10.746 2.18 3.332 4.664 6.7 7.812 9.172.624.492 1.32.6 1.95.023.343-.318.558-.75.737-1.182 1.183-2.858 1.087-6.056 1.395-9.134.063-.63.15-1.278.467-1.827s.92-.98 1.548-.9l-.001.02z"/><circle cx="90.033" cy="157.458" r="1.496"/><use xlink:href="#B"/><path d="M89.918 156.792l.243 1.32"/><path d="M89.79 156.807l.254-.047.243 1.32-.254.047z"/><path d="M89.387 157.613l1.304-.32"/><path d="M89.36 157.492l1.305-.32.062.25-1.305.32z"/><circle cx="88.089" cy="166.528" r="1.496"/><use xlink:href="#B" x="-1.945" y="9.071"/><path d="M87.974 165.863l.243 1.32"/><path d="M87.843 165.88l.254-.047.243 1.32-.254.047z"/><path d="M87.443 166.684l1.305-.32"/><path d="M87.416 166.563l1.305-.32.062.25-1.305.32zm-27.07 107.524c-1.934 0-3.87-.898-5.03-2.474-.084-.115-.06-.276.055-.36s.276-.06.36.055c1.454 1.977 4.373 2.8 6.645 1.875.13-.054.283.01.336.142s-.01.283-.142.336a5.9 5.9 0 0 1-2.226.427zm25.23-3.745c-1.87 0-3.73-.855-4.904-2.324-.1-.1-.07-.274.04-.363a.26.26 0 0 1 .363.04 5.8 5.8 0 0 0 5.675 2.002c.14-.03.277.057.308.196s-.057.277-.196.308a5.95 5.95 0 0 1-1.287.14zm-29.088-134.8c-.13 0-.242-.097-.256-.23a5.85 5.85 0 0 1 .459-3.013.26.26 0 0 1 .34-.132c.13.058.2.2.132.34-.38.86-.524 1.8-.42 2.747.016.142-.086.27-.228.286l-.03.002z"/><use xlink:href="#C"/><path d="M184.066 284.06c-.868 0-1.575-.707-1.575-1.575s.707-1.575 1.575-1.575 1.575.707 1.575 1.575-.706 1.575-1.575 1.575zm0-2.634a1.06 1.06 0 0 0-1.059 1.059 1.06 1.06 0 0 0 1.059 1.059 1.06 1.06 0 0 0 1.059-1.059 1.06 1.06 0 0 0-1.059-1.059z"/><use xlink:href="#C" x="-154.086" y="8.165"/><circle cx="104.71" cy="240.152" r=".716"/><circle cx="92.405" cy="298.814" r=".716"/><circle cx="98.726" cy="295.917" r=".716"/><circle cx="98.199" cy="305.21" r=".716"/><circle cx="110.241" cy="291.703" r=".716"/><circle cx="124.802" cy="309.087" r=".716"/><circle cx="162.204" cy="290.122" r=".716"/><circle cx="205.326" cy="319.096" r=".716"/><circle cx="154.754" cy="299.341" r=".716"/><circle cx="164.838" cy="301.26" r=".716"/><circle cx="102.414" cy="260.886" r=".716"/><circle cx="157.915" cy="238.761" r=".716"/><circle cx="160.022" cy="245.609" r=".716"/><circle cx="167.134" cy="249.296" r=".716"/><circle cx="195.918" cy="275.298" r=".716"/><circle cx="243.329" cy="234.02" r=".716"/><circle cx="247.807" cy="241.921" r=".716"/><circle cx="246.49" cy="251.93" r=".716"/><circle cx="240.169" cy="245.609" r=".716"/><circle cx="242.012" cy="270.631" r=".716"/><circle cx="239.378" cy="257.988" r=".716"/><circle cx="224.365" cy="266.68" r=".716"/><circle cx="234.901" cy="267.207" r=".716"/><circle cx="227.451" cy="289.069" r=".716"/><circle cx="233.847" cy="292.756" r=".716"/><circle cx="221.204" cy="303.556" r=".716"/><circle cx="220.677" cy="310.14" r=".716"/><circle cx="232.267" cy="299.416" r=".716"/><circle cx="216.99" cy="319.096" r=".716"/><circle cx="193.285" cy="330.61" r=".716"/><circle cx="221.13" cy="283.011" r=".716"/><circle cx="228.241" cy="284.064" r=".716"/><circle cx="230.95" cy="257.387" r=".716"/><circle cx="235.428" cy="283.726" r=".716"/><circle cx="163.784" cy="315.483" r=".716"/><circle cx="170.896" cy="315.672" r=".716"/><circle cx="89.244" cy="236.917" r=".716"/><circle cx="86.347" cy="223.558" r=".716"/><use xlink:href="#D"/><use xlink:href="#D" x="48.324" y="45.496"/><path d="M193.477 201.754a6.2 6.2 0 0 1-6.19-6.189 6.2 6.2 0 0 1 6.19-6.19 6.2 6.2 0 0 1 6.19 6.19 6.2 6.2 0 0 1-6.19 6.189zm0-11.863a5.68 5.68 0 0 0-5.673 5.673 5.68 5.68 0 0 0 5.673 5.673 5.68 5.68 0 0 0 5.673-5.673 5.68 5.68 0 0 0-5.673-5.673zM94.68 313.987A14.28 14.28 0 0 1 90.386 310l.422-.298a13.72 13.72 0 0 0 4.137 3.841l-.265.443zm51.192-39.877c-2.303-.05-4.56-1.35-5.76-3.3s-1.324-4.563-.32-6.63c.062-.128.216-.182.345-.12s.182.217.12.345a6.55 6.55 0 0 0 .297 6.135c1.1 1.814 3.2 3.016 5.325 3.062.143.003.256.12.253.264s-.118.253-.258.253zm55.054-78.55a.39.39 0 0 1-.033-.002.26.26 0 0 1-.223-.29c.364-2.85-1.375-5.803-4.046-6.866-.132-.053-.197-.203-.144-.335s.202-.197.335-.144c2.883 1.147 4.76 4.333 4.367 7.4-.017.13-.128.225-.256.225zm6.577 34.246a.26.26 0 0 1-.156-.052c-.735-.557-1.222-1.45-1.337-2.45s.158-1.98.748-2.688c.1-.1.254-.124.363-.033s.125.254.033.363c-.5.6-.73 1.44-.632 2.3s.512 1.625 1.136 2.097a.26.26 0 0 1 .05.362c-.05.067-.128.102-.206.102zm2.377.262c-.1 0-.212-.07-.246-.18a.26.26 0 0 1 .17-.323l1.6-.496a.26.26 0 0 1 .323.17c.043.136-.033.28-.17.323l-1.6.496c-.026.008-.05.012-.077.012zm2.63-3.694a.26.26 0 0 1-.193-.087c-.095-.107-.084-.27.022-.364.12-.107.2-.276.2-.464s-.07-.356-.2-.464c-.107-.095-.117-.258-.022-.364a.26.26 0 0 1 .364-.022c.232.205.365.515.365.85a1.13 1.13 0 0 1-.365.851c-.05.043-.1.065-.17.065zm-1.6-2.06c-.05 0-.1-.014-.143-.043-.302-.2-.723-.23-1.048-.068a.26.26 0 0 1-.346-.117.26.26 0 0 1 .117-.346 1.6 1.6 0 0 1 1.563.1c.12.08.15.24.072.358-.05.075-.132.115-.215.115zm12.378 14.142c-.07 0-.137-.027-.188-.08a.26.26 0 0 1 .01-.365 14.84 14.84 0 0 1 5.94-3.419c.137-.04.28.038.32.174s-.038.28-.174.32a14.32 14.32 0 0 0-5.733 3.3c-.05.047-.114.07-.177.07zm2.68 1.89c-.057 0-.114-.02-.16-.057-.1-.1-.13-.252-.04-.363a4.09 4.09 0 0 1 2.512-1.46c.14-.023.273.073.296.214s-.073.273-.214.296a3.57 3.57 0 0 0-2.191 1.274c-.05.063-.126.096-.2.096zm-8.475-44.693c-.38 0-.76-.146-1.126-.303-.637-.274-1.36-.586-1.9-1.147-.5-.53-.86-1.458-.467-2.24l.46.232c-.282.56 0 1.25.382 1.653.457.484 1.127.773 1.72 1.027.422.182.865.348 1.22.206.393-.157.55-.65.502-1.036s-.26-.78-.66-1.243c-.513-.594-1.014-.945-1.532-1.073s-1.226.013-1.527.523L214.1 192c.432-.733 1.38-.938 2.095-.762.625.155 1.214.56 1.8 1.237.296.342.7.872.782 1.515.076.592-.182 1.326-.822 1.582-.162.065-.326.092-.5.092zM110.825 286.9a.38.38 0 0 1-.1-.013 14.18 14.18 0 0 1-5.683-3.03c-.16-.14-.177-.385-.036-.546s.385-.178.546-.036a13.43 13.43 0 0 0 5.372 2.865c.206.055.33.267.274.474-.046.173-.203.287-.374.287zm-6.743-190.108l8.567 8.5 1.9 1.824c.272.314 1.3 1.713.867 2.156-.262.262-3.5-1.222-3.5-1.222l-7.854-11.257zm19.064 8.144s.523-4.254.13-5.824l-.903-4.27c-.048-.243-.406-.208-.406.04v7.96l1.178 2.094zM81.308 113.4a.26.26 0 0 1-.23-.138.26.26 0 0 1 .11-.35l3.384-1.775c.2-.1.385-.202.517-.347.143-.157.226-.376.313-.607l.034-.1a8.33 8.33 0 0 1 3.886-4.35.26.26 0 0 1 .298.043c.08.077.102.195.055.296-.3.62-.427 1.3-.402 1.992a10.04 10.04 0 0 1 3.025-2.628.26.26 0 0 1 .379.283l-.24 1.33c1.598-1.055 3.278-2.008 5-2.837a.26.26 0 0 1 .345.12c.062.128.008.283-.12.344-1.868.898-3.684 1.944-5.398 3.108-.082.056-.2.06-.276.01s-.135-.147-.126-.246l.2-1.36a9.52 9.52 0 0 0-2.743 2.714.26.26 0 0 1-.266.11c-.103-.02-.183-.1-.203-.204-.144-.748-.105-1.53.107-2.26a7.82 7.82 0 0 0-3.028 3.719l-.034.088c-.096.254-.205.543-.415.773-.193.212-.44.34-.66.456l-3.384 1.775a.26.26 0 0 1-.12.03zm18.76-82.955c.236-.683-.094-1.478-.67-1.916s-1.343-.56-2.062-.48c.01.67.2 1.357.652 1.86s1.383.708 2.04.568M69.274 53.743c-.17-.703-.88-1.193-1.6-1.25s-1.432.256-1.994.7c.37.56.9 1.028 1.555 1.213s1.546-.153 2.023-.626m40.867-3.008c.705.162 1.46-.252 1.833-.87s.412-1.395.256-2.102c-.666.08-1.326.354-1.78.848s-.555 1.45-.346 2.1M82.517 76.9c.576-.436.744-1.28.5-1.965s-.805-1.212-1.446-1.546c-.365.563-.58 1.244-.493 1.9s.756 1.358 1.38 1.607M103.8 87.888c.08-.72-.418-1.42-1.076-1.72s-1.433-.25-2.117-.014c.157.653.504 1.277 1.047 1.672s1.505.385 2.115.104"/></g><defs ><path id="B" d="M90.035 159.082c-.63 0-1.228-.367-1.493-.98-.172-.398-.18-.84-.02-1.244s.467-.72.866-.893a1.63 1.63 0 0 1 2.137.846h0c.356.822-.023 1.78-.846 2.137-.21.09-.428.134-.643.134zm-.004-2.992a1.36 1.36 0 0 0-1.269.864c-.134.34-.13.71.017 1.046a1.37 1.37 0 0 0 1.797.712 1.37 1.37 0 0 0 .711-1.797h0a1.37 1.37 0 0 0-1.256-.824z"/><path id="C" d="M243.066 222.952c-.868 0-1.575-.707-1.575-1.575s.707-1.575 1.575-1.575 1.575.707 1.575 1.575-.707 1.575-1.575 1.575zm0-2.634a1.06 1.06 0 0 0-1.059 1.059 1.06 1.06 0 0 0 1.059 1.059 1.06 1.06 0 0 0 1.059-1.059 1.06 1.06 0 0 0-1.059-1.059z"/><path id="D" d="M145.68 277.09c-4.974 0-9.02-4.047-9.02-9.02s4.047-9.02 9.02-9.02 9.02 4.047 9.02 9.02-4.047 9.02-9.02 9.02zm0-17.526c-4.7 0-8.505 3.815-8.505 8.505s3.815 8.505 8.505 8.505 8.505-3.815 8.505-8.505-3.815-8.505-8.505-8.505z"/></defs></svg>