<svg xmlns="http://www.w3.org/2000/svg" xmlns:xlink="http://www.w3.org/1999/xlink" width="281.889" height="240" xmlns:v="https://vecta.io/nano"><style><![CDATA[.DV{clip-path:url(#O)}.DW{clip-path:url(#Q)}.DX{clip-path:url(#S)}.DY{fill:#231f20}.DZ{fill:#ead4c8}.Da{fill:#222323}.Db{fill:#fff}.Dc{fill:#222423}.Dd{fill:#b1a9d3}.De{fill:#9dd3d9}.Df{fill:#bedcce}.Dg{fill:#e9d4c8}.Dh{fill:#bdc3d2}.Di{fill:#d1a5cb}.Dj{fill:#eec5c5}.Dk{fill:#fdfefe}.Dl{fill:#b1aad3}.Dm{fill:#b0abd3}.Dn{fill:#b0acd3}.Do{fill:#afadd4}.Dp{fill:#afaed4}.Dq{fill:#aeafd4}.Dr{fill:#aeb0d4}.Ds{fill:#adb1d4}.Dt{fill:#adb2d4}.Du{fill:#acb3d4}.Dv{fill:#acb4d5}.Dw{fill:#abb5d5}.Dx{fill:#abb6d5}.Dy{fill:#aab7d5}.Dz{fill:#aab8d5}.EA{fill:#a9b9d5}.EB{fill:#a9bad5}.EC{fill:#a8bbd6}.ED{fill:#a8bcd6}.EE{fill:#a7bdd6}.EF{fill:#a7bfd6}.EG{fill:#a6c0d6}.EH{fill:#a6c1d6}.EI{fill:#a5c2d7}.EJ{fill:#a5c3d7}.EK{fill:#a4c4d7}.EL{fill:#a4c5d7}.EM{fill:#a3c6d7}.EN{fill:#a3c7d7}.EO{fill:#a2c8d7}.EP{fill:#a2c9d8}.EQ{fill:#a1cad8}.ER{fill:#a1cbd8}.ES{fill:#a0ccd8}.ET{fill:#a0cdd8}.EU{fill:#9fced8}.EV{fill:#9fcfd8}.EW{fill:#9ed0d9}.EX{fill:#9ed1d9}.EY{fill:#9dd2d9}.EZ{fill:#9ed3d9}.Ea{fill:#9fd4d8}.Eb{fill:#a0d4d8}.Ec{fill:#a1d4d8}.Ed{fill:#a2d4d7}.Ee{fill:#a3d5d7}.Ef{fill:#a4d5d7}.Eg{fill:#a5d5d6}.Eh{fill:#a6d6d6}.Ei{fill:#a7d6d6}.Ej{fill:#a8d6d5}.Ek{fill:#a9d6d5}.El{fill:#aad7d5}.Em{fill:#abd7d4}.En{fill:#acd7d4}.Eo{fill:#aed8d4}.Ep{fill:#afd8d3}.Eq{fill:#b0d8d3}.Er{fill:#b1d8d2}.Es{fill:#b2d9d2}.Et{fill:#b3d9d2}.Eu{fill:#b4d9d1}.Ev{fill:#b5d9d1}.Ew{fill:#b6dad1}.Ex{fill:#b7dad0}.Ey{fill:#b8dad0}.Ez{fill:#b9dbd0}.FA{fill:#badbcf}.FB{fill:#bbdbcf}.FC{fill:#bcdbcf}.FD{fill:#bddcce}.FE{fill:#bfdcce}.FF{fill:#c0dcce}.FG{fill:#c1dbce}.FH{fill:#c2dbcd}.FI{fill:#c3dbcd}.FJ{fill:#c4dbcd}.FK{fill:#c5dbcd}.FL{fill:#c6dbcd}.FM{fill:#c7dacd}.FN{fill:#c8dacd}.FO{fill:#c9dacc}.FP{fill:#cadacc}.FQ{fill:#cbdacc}.FR{fill:#ccd9cc}.FS{fill:#cdd9cc}.FT{fill:#ced9cc}.FU{fill:#cfd9cc}.FV{fill:#d0d9cb}.FW{fill:#d1d8cb}.FX{fill:#d2d8cb}.FY{fill:#d3d8cb}.FZ{fill:#d5d8cb}.Fa{fill:#d6d8cb}.Fb{fill:#d7d8cb}.Fc{fill:#d8d7cb}.Fd{fill:#d9d7ca}.Fe{fill:#dad7ca}.Ff{fill:#dbd7ca}.Fg{fill:#dcd7ca}.Fh{fill:#ddd6ca}.Fi{fill:#ded6ca}.Fj{fill:#dfd6ca}.Fk{fill:#e0d6c9}.Fl{fill:#e1d6c9}.Fm{fill:#e2d5c9}.Fn{fill:#e3d5c9}.Fo{fill:#e4d5c9}.Fp{fill:#e5d5c9}.Fq{fill:#e6d5c9}.Fr{fill:#e7d5c8}.Fs{fill:#e8d4c8}.Ft{fill:#e8d3c8}.Fu{fill:#e7d3c9}.Fv{fill:#e6d2c9}.Fw{fill:#e5d2c9}.Fx{fill:#e4d2c9}.Fy{fill:#e3d1ca}.Fz{fill:#e2d1ca}.GA{fill:#e1d1ca}.GB{fill:#e0d0ca}.GC{fill:#dfd0cb}.GD{fill:#decfcb}.GE{fill:#ddcfcb}.GF{fill:#dccfcb}.GG{fill:#dbcecb}.GH{fill:#dacecc}.GI{fill:#d9cdcc}.GJ{fill:#d8cdcc}.GK{fill:#d7cdcc}.GL{fill:#d6cccd}.GM{fill:#d5cccd}.GN{fill:#d4cccd}.GO{fill:#d2cbcd}.GP{fill:#d1cbcd}.GQ{fill:#d0cace}.GR{fill:#cfcace}.GS{fill:#cecace}.GT{fill:#cdc9ce}.GU{fill:#ccc9cf}.GV{fill:#cbc8cf}.GW{fill:#cac8cf}.GX{fill:#c9c8cf}.GY{fill:#c8c7d0}.GZ{fill:#c7c7d0}.Ga{fill:#c6c6d0}.Gb{fill:#c5c6d0}.Gc{fill:#c4c6d0}.Gd{fill:#c3c5d1}.Ge{fill:#c2c5d1}.Gf{fill:#c1c5d1}.Gg{fill:#c0c4d1}.Gh{fill:#bfc4d2}.Gi{fill:#bec3d2}.Gj{fill:#bec2d2}.Gk{fill:#bec1d2}.Gl{fill:#bfc0d1}.Gm{fill:#c0bfd1}.Gn{fill:#c0bed1}.Go{fill:#c1bdd1}.Gp{fill:#c2bcd0}.Gq{fill:#c3bbd0}.Gr{fill:#c3bad0}.Gs{fill:#c4b9d0}.Gt{fill:#c5b8cf}.Gu{fill:#c5b7cf}.Gv{fill:#c6b6cf}.Gw{fill:#c7b5cf}.Gx{fill:#c7b3ce}.Gy{fill:#c8b2ce}.Gz{fill:#c9b1ce}.HA{fill:#c9b0ce}.HB{fill:#caafcd}.HC{fill:#cbaecd}.HD{fill:#cbadcd}.HE{fill:#ccaccd}.HF{fill:#cdabcc}.HG{fill:#ceaacc}.HH{fill:#cea9cc}.HI{fill:#cfa8cc}.HJ{fill:#d0a7cb}.HK{fill:#d0a6cb}.HL{fill:#d2a6cb}.HM{fill:#d3a7cb}.HN{fill:#d4a8ca}.HO{fill:#d5a9ca}.HP{fill:#d6aaca}.HQ{fill:#d7abca}.HR{fill:#d8acca}.HS{fill:#d8adc9}.HT{fill:#d9aec9}.HU{fill:#daafc9}.HV{fill:#dbb0c9}.HW{fill:#dcb1c9}.HX{fill:#ddb2c8}.HY{fill:#deb3c8}.HZ{fill:#dfb4c8}.Ha{fill:#e0b6c8}.Hb{fill:#e1b7c8}.Hc{fill:#e2b8c8}.Hd{fill:#e3b9c7}.He{fill:#e4bac7}.Hf{fill:#e5bbc7}.Hg{fill:#e6bcc7}.Hh{fill:#e7bdc7}.Hi{fill:#e7bec6}.Hj{fill:#e8bfc6}.Hk{fill:#e9c0c6}.Hl{fill:#eac1c6}.Hm{fill:#ebc2c6}.Hn{fill:#ecc3c5}.Ho{fill:#edc4c5}]]></style><path d="M137.112 132.4a35.72 35.72 0 0 1 2.275-7.168c.353-.806.776-1.645 1.53-2.098 1.4-.834 3.188.008 4.408 1.074 1.748 1.527 3.044 3.5 4.226 5.497 2.144 3.624 4.042 8.13 5.568 12.056-1.803-1.537-4.14-3-5.458-4.634-.37-.462-.657-1.07-.936-1.594-.8-1.516-1.404-2.7-2.7-3.84-.85-.752-1.808-1.413-2.895-1.735-2.18-.644-4.73.298-5.966 2.205M95.5 142.02c-1.515-3.588-3.347-7.02-4.862-10.606-3.3-7.842-6.06-15.867-7.553-24.445.868 4.985 2.968 10.86 5.433 15.205 2.76 4.866 6.983 11.38 11.77 14.533-1.188 2.103-2.94 4.088-4.48 5.965" fill="#eaeaea"/><g class="Dc"><path d="M55.15 187.828c-.1 0-.166-.068-.175-.16-1.65-15.997-2.985-33.02.3-49.8C59.86 114.412 66.48 96.7 76.108 82.15c.054-.082.163-.104.245-.05s.104.163.05.245c-9.602 14.52-16.206 32.182-20.783 55.58-3.276 16.744-1.942 33.737-.295 49.707.01.097-.06.184-.158.194zm-6.764 1.122c-.008 0-.016 0-.025-.002-.097-.013-.164-.103-.15-.2 3.323-23.842-3.5-50.1-19.243-73.937-2.362-3.578-5.03-7.268-8.53-10.014-.077-.06-.1-.17-.03-.248s.17-.1.248-.03c3.54 2.778 6.23 6.494 8.607 10.097 15.78 23.9 22.634 50.253 19.298 74.18-.012.1-.088.152-.175.152z"/><path d="M69.5 94.365c-.104-.004-.18-.085-.177-.183.362-10.305-2.068-21.332-6.665-30.253-.045-.087-.01-.193.076-.238s.193-.01.238.076c4.624 8.974 7.068 20.064 6.704 30.428-.003.095-.082.17-.177.17zm-25.997 94.86c-.07 0-.136-.04-.164-.1a28.82 28.82 0 0 0-10.022-12.56c-.08-.056-.1-.166-.043-.246s.166-.1.246-.043a29.19 29.19 0 0 1 10.147 12.715c.037.1-.007.194-.097.23a.16.16 0 0 1-.067.013zM78.03 84.895c-.827 0-1.85-.26-2.885-.78-2.054-1.034-3.26-2.645-2.744-3.668s2.527-1.014 4.58.02c.96.483 1.773 1.117 2.293 1.785.548.705.708 1.374.452 1.883s-.88.76-1.696.76zm-3.95-4.855c-.668 0-1.173.186-1.364.564-.412.818.773 2.28 2.588 3.193s3.695.994 4.106.177c.2-.375.037-.924-.415-1.507-.488-.628-1.26-1.227-2.172-1.686-.974-.5-1.968-.74-2.743-.74z"/><path d="M79.712 84.157l-.28-.215.613-.747c.363-.427.706-.83 1.004-1.326.113-.188.21-.36.23-.537.027-.226-.067-.463-.173-.685-1.1-2.334-3.692-3.91-6.273-3.827-.17.005-.365.018-.512.104-.166.097-.28.292-.38.483a13.95 13.95 0 0 0-1.23 3.257l-.344-.082a14.3 14.3 0 0 1 1.261-3.34c.125-.237.268-.48.514-.623.218-.127.465-.145.68-.152 2.72-.083 5.434 1.572 6.603 4.03.13.27.243.564.205.88-.03.248-.148.462-.278.678-.313.52-.665.935-1.038 1.373l-.602.733z"/><path d="M80.706 79.617c-.06 0-.117-.03-.15-.084-.052-.083-.026-.192.057-.243l5.158-3.2.256-10.722-10.48 5.16.13 6.044c-.01.097-.096.17-.194.158s-.168-.096-.158-.193c.024-.235-.067-3.784-.133-6.112-.002-.07.037-.133.1-.163l10.844-5.34c.055-.027.12-.024.173.01s.083.09.082.153l-.265 11.11c-.001.06-.033.115-.084.146l-5.24 3.25c-.03.018-.06.027-.093.027z"/><circle cx="81.569" cy="72.192" r="1.18"/><path d="M82.336 71.28c-.033 0-.066-.01-.095-.028-.082-.053-.106-.162-.053-.244l3.874-6.02c.053-.082.162-.106.244-.053s.106.162.053.244l-3.874 6.02c-.034.052-.1.08-.15.08zm-63.448 36.74c-.277 0-.522-.073-.724-.22-.926-.674-.6-2.658.762-4.517.632-.868 1.4-1.57 2.133-1.973.785-.426 1.47-.476 1.93-.14.926.674.6 2.658-.762 4.517-.632.868-1.4 1.57-2.133 1.973-.44.24-.85.36-1.207.36zm3.378-6.715c-.297 0-.653.106-1.038.315-.698.38-1.415 1.044-2.016 1.87-1.195 1.642-1.58 3.484-.84 4.023.34.248.907.187 1.554-.165.698-.38 1.415-1.044 2.016-1.87 1.195-1.642 1.58-3.484.84-4.023a.86.86 0 0 0-.517-.15z"/><path d="M18.188 107.812l-.87-.377c-.532-.22-1.034-.427-1.55-.746-.214-.132-.418-.268-.557-.475-.177-.263-.2-.576-.22-.875-.085-2.72 1.572-5.434 4.028-6.603.193-.092.42-.2.674-.176.285.015.523.166.742.32a14.3 14.3 0 0 1 2.649 2.393l-.268.23a13.95 13.95 0 0 0-2.584-2.334c-.177-.124-.367-.246-.56-.256-.17-.01-.35.068-.503.142a6.9 6.9 0 0 0-3.827 6.273c.008.246.032.5.16.69.1.15.263.257.45.372.492.304.98.506 1.5.72l.888.384-.15.32z"/><path d="M15.147 104.25l-6.16-.494c-.06-.005-.112-.04-.14-.09l-5.318-9.757c-.03-.054-.03-.12.002-.173s.088-.087.15-.088l12.085-.213c.066 0 .133.038.162.1l2.678 5.496c.053.082.03.19-.052.244s-.19.03-.244-.052c-.174-.268-2.235-4.566-2.65-5.433l-11.68.206 5.133 9.417 6.05.485c.097.008.17.093.162.2-.008.092-.085.162-.176.162z"/><circle cx="11.063" cy="98.023" r="1.18"/><path d="M9.882 97.582c-.03 0-.06-.008-.088-.024l-6.2-3.582c-.084-.05-.113-.157-.064-.24s.157-.114.24-.064l6.2 3.582c.085.05.113.157.065.24-.033.056-.092.088-.153.088zm21.835 81.084a.88.88 0 0 1-.543-.165h0c-.684-.5-.45-1.948.534-3.3.456-.626 1.004-1.132 1.54-1.425.578-.314 1.088-.35 1.434-.097.684.498.45 1.948-.534 3.3-.763 1.05-1.722 1.686-2.433 1.686zm-.335-.45c.45.33 1.557-.173 2.482-1.444s1.063-2.476.612-2.805c-.227-.165-.612-.12-1.057.12-.493.268-1 .737-1.425 1.322-.925 1.27-1.063 2.477-.612 2.805h0z"/><path d="M31.2 178.515l-.62-.268c-.366-.15-.743-.306-1.116-.537-.158-.098-.308-.198-.414-.354-.134-.198-.16-.43-.166-.652-.06-1.963 1.135-3.923 2.908-4.767.154-.073.323-.14.506-.13.217.012.394.124.557.237.703.49 1.343 1.07 1.903 1.72l-.268.23a9.92 9.92 0 0 0-1.837-1.66c-.126-.088-.25-.167-.373-.174-.1-.006-.205.035-.335.096a4.88 4.88 0 0 0-2.707 4.436c.005.17.022.34.105.466.066.098.178.172.307.252.348.215.696.36 1.064.51l.637.276-.15.32z"/><path d="M29.047 175.974l-4.407-.353c-.06-.005-.112-.04-.14-.092l-3.8-6.975c-.03-.054-.03-.12.002-.173s.088-.087.15-.088l8.638-.152c.068-.005.133.038.163.1l1.91 3.923c.053.082.03.19-.053.244s-.19.03-.244-.052c-.124-.19-1.557-3.178-1.884-3.86l-8.233.145 3.616 6.635 4.298.345c.097.008.17.093.162.2-.008.092-.085.162-.176.162z"/><circle cx="26.128" cy="171.472" r=".843"/><path d="M25.284 171.207c-.03 0-.06-.008-.088-.024l-4.43-2.56c-.084-.05-.113-.157-.064-.24s.157-.114.24-.065l4.43 2.56c.084.05.113.157.064.24-.033.057-.092.088-.153.088zM60.56 67.983c-.502 0-.9-.15-1.2-.446-.94-.992-.102-3.257 1.905-5.156s4.314-2.6 5.253-1.618.102 3.257-1.905 5.156c-.94.9-1.992 1.554-2.962 1.868-.402.13-.773.196-1.103.196zm4.786-7.3c-1.024 0-2.523.732-3.827 1.965-1.8 1.704-2.667 3.837-1.9 4.656.365.386 1.05.442 1.926.157.92-.3 1.925-.934 2.828-1.8 1.8-1.704 2.667-3.837 1.9-4.657-.215-.227-.536-.333-.927-.333z"/><path d="M59.505 67.627l-.813-.51c-.66-.4-1.094-.662-1.815-1.455-.214-.236-.428-.493-.49-.823-.054-.293.026-.576.105-.818 1.018-3.117 4.008-5.518 7.272-5.837.355-.035.73-.044 1.065.124.263.132.456.352.645.586.41.505.513.753.63 1.04a4.62 4.62 0 0 0 .441.85l-.297.19c-.275-.428-.38-.682-.47-.907-.112-.272-.2-.487-.578-.952-.17-.2-.328-.392-.53-.493-.255-.128-.57-.118-.872-.088-3.13.306-5.995 2.607-6.97 5.595-.066.2-.132.433-.093.644.044.24.223.452.403.65.687.755 1.104 1.008 1.737 1.39l.824.516-.194.295z"/><path d="M56.9 63.562c-.026 0-.052-.006-.076-.017l-7.736-3.32c-.06-.025-.1-.08-.106-.143l-1.62-14.546c-.007-.06.02-.122.068-.16s.114-.047.172-.025l12.543 4.87c.047.018.085.056.102.104l2.92 7.99c.016.045.014.094-.007.137s-.058.076-.103.09c-.033.01-3.342 1.133-4.004 2.06l-2.008 2.88c-.034.05-.09.077-.146.077zm-7.578-3.62l7.517 3.223 1.928-2.762c.642-.9 3.296-1.88 4.007-2.13l-2.832-7.747-12.196-4.737 1.577 14.153z"/><circle cx="55.28" cy="55.345" r="1.429"/><path d="M54.335 54.385c-.053 0-.104-.023-.14-.068l-6.808-8.7c-.06-.077-.047-.188.03-.248s.188-.047.248.03l6.808 8.7c.06.077.047.188-.03.248-.032.025-.07.038-.1.038zm-5.353 131.357c-.115-.01-.186-.097-.176-.195l2.016-19.812c.01-.097.097-.166.194-.158s.168.097.158.194l-2.016 19.812c-.01.1-.086.16-.176.16zm3.326-42.107c-.02 0-.04-.004-.062-.01-.1-.034-.138-.136-.104-.227l10.005-26.83c.034-.1.136-.138.227-.104s.138.136.104.227l-10.005 26.83c-.027.07-.094.115-.166.115z"/><circle cx="51.148" cy="165.245" r=".644"/><circle cx="52.244" cy="143.329" r=".644"/><circle cx="62.457" cy="116.368" r=".644"/><path d="M39.072 137.55c-.074 0-.142-.046-.167-.12l-9.216-27.11c-.03-.092.018-.193.1-.224s.193.018.224.1l9.217 27.11c.03.093-.018.193-.1.224-.02.007-.038.01-.057.01z"/><circle cx="38.94" cy="137.314" r=".644"/><circle cx="29.802" cy="109.97" r=".644"/><circle cx="69.876" cy="74.811" r=".644"/><path d="M69.78 75.085c-.057 0-.114-.028-.148-.08l-6.25-9.472c-.054-.082-.03-.19.05-.245s.19-.03.245.05l6.25 9.472c.054.082.03.19-.05.245-.03.02-.064.03-.097.03z"/></g><path d="M56.432 128.86h1.696v1.696h-1.696z" class="Dk"/><path d="M58.305 130.732h-2.05v-2.05h2.05v2.05zm-1.696-.353h1.342v-1.342H56.61v1.342z" class="Dc"/><path d="M33.597 122.588h1.696v1.696h-1.696z" class="Dk"/><path d="M35.47 124.46h-2.05v-2.05h2.05v2.05zm-1.696-.353h1.342v-1.342h-1.342v1.342z" class="Dc"/><g class="Da"><path d="M131.725 167.048v5.443a2.58 2.58 0 0 1-2.58 2.58h-.5a2.58 2.58 0 0 1-2.58-2.58v-2.58h-13.842a2.58 2.58 0 0 0-2.58 2.58v46.46a2.58 2.58 0 0 0 2.58 2.58h.848a2.58 2.58 0 0 1 2.58 2.58v.5a2.58 2.58 0 0 1-2.58 2.58h-13.046a2.58 2.58 0 0 1-2.58-2.58v-.5a2.58 2.58 0 0 1 2.58-2.58h1.05a2.58 2.58 0 0 0 2.58-2.58v-46.46a2.58 2.58 0 0 0-2.58-2.58h-11.3a2.58 2.58 0 0 0-2.58 2.58h0a2.58 2.58 0 0 1-2.58 2.58h-.5a2.58 2.58 0 0 1-2.58-2.58v-5.443a2.58 2.58 0 0 1 2.58-2.58h45.02a2.58 2.58 0 0 1 2.58 2.58zm24.503-77.435l.114-.155.125-.187-1.395-.008c-4.014.007-8.044-.102-11.46-.2l-.778-.03c-2.618-.112-4.877-.2-5.25 3.1l-.144 1.287c-.3 2.775-.628 5.643-1.1 8.44-5.393 3.772-10.76 8.2-16.083 13.23a1.35 1.35 0 0 1 .337.168c5.3-5 10.642-9.4 16-13.15l.06-.042.013-.073c.492-2.83.814-5.73 1.126-8.535l.144-1.286c.335-2.972 2.34-2.886 4.882-2.776l.782.03 11.47.2 1.148.007zm48.478-22.07c-.7-1.55-2.688-5.007-3.82-6.93a1.9 1.9 0 0 0-2.686-.639c-3.85 2.483-13.74 8.618-22.405 11.966-5.06 1.955-13.405 3.163-22.324 3.23-8.65.066-15.907-.976-18.93-2.72-6.45-3.72-13.728-4.012-13.8-4.014l-.208-.007.026.206c.001.01.14 1.174-.344 3.354-.397 1.786.18 6.45.46 8.45-.73-1.146-2.45-3.454-6.058-6.72-5.207-4.7-12.74-7.092-12.817-7.116l-.08-.025-.07.045c-1.072.696-2.243 1.406-3.484 2.157-4.752 2.877-10.14 6.138-12.695 10.37-2.187 3.622-3.406 8.097-3.724 13.68-.958 16.798 6.1 34.154 13.892 50.408l.122.254.88-1.1c4.837-6.457 9.746-12.396 14.708-17.798l-.25-.125c-.026-.013-.04-.04-.064-.054-4.95 5.395-9.848 11.32-14.673 17.762l-.524.655c-7.713-16.137-14.685-33.35-13.737-49.98.315-5.524 1.517-9.945 3.674-13.517 2.5-4.16 7.858-7.396 12.576-10.252l3.423-2.117c.813.266 7.74 2.613 12.606 7.015 5.14 4.65 6.43 7.398 6.443 7.425l.53 1.162-.196-1.263c-.01-.07-1.085-7.054-.6-9.24.385-1.735.388-2.832.366-3.266 1.203.075 7.657.62 13.44 3.957 3.074 1.773 10.393 2.832 19.1 2.767 8.96-.068 17.352-1.285 22.45-3.254 8.696-3.36 18.6-9.5 22.47-12 .36-.233.8-.306 1.206-.207a1.55 1.55 0 0 1 .984.728c1.127 1.917 3.12 5.362 3.8 6.895.97 2.185.983 3.902.984 3.905-.064.203-.9.77-2.52 1.683l-.46.267a126.04 126.04 0 0 1-8.345 4.994c-4.6 2.52-11.595 5.9-24.984 9.77-1.6.458-3.27.695-4.982.828-.002.008.001.02-.002.028-.016.04-.038.078-.055.117-.015.032-.028.067-.046.098l-.022.046c-.005.027-.016.05-.023.077 1.795-.13 3.557-.373 5.228-.855 7.05-2.033 16.27-4.985 25.055-9.8 2.897-1.588 5.713-3.272 8.37-5.008a13.24 13.24 0 0 1 .441-.256c2.016-1.146 2.696-1.644 2.696-1.976 0-.073-.01-1.8-1.013-4.063z"/><path d="M102.08 66.433c-.126-.016-.252-.022-.38-.013-1.435.102-2.702 2.65-3.56 3.74-1.464 1.855-2.78 3.93-3.348 6.35-.118.505-.14 1.177.282 1.405.38.207.81-.125 1.136-.425 2.027-1.866 4.358-3.533 6.894-4.376 2.856-.95 5.26.117 7.658 1.898 3.92 2.912 7.28 6.674 11.02 9.854.637-1.163.637-2.62.5-3.974-.33-3.284-.176-6.552-.08-9.857.01-.315.022-.645.16-.92.235-.465.75-.636 1.216-.765l2.64-.734c.117-.032.242-.07.32-.173.143-.19.035-.5-.156-.627-1.164-.767-3.802-1.23-5.12-.984-.897.167-1.35 1.322-1.35 1.322l-.588 5.796-.336 1.31c-2.526-2.067-5.245-3.837-8.085-5.3-2.666-1.383-5.872-3.132-8.824-3.515z"/></g><path d="M134.39 88.81l7.913.416" class="Db"/><path d="M142.303 89.404l-7.923-.417c-.097-.005-.172-.088-.167-.186s.1-.173.186-.167l7.913.416c.097.005.172.088.167.186s-.083.167-.176.167z" class="DY"/><path d="M134.4 91.95c-.063 0-.124-.034-.156-.093-.67-1.248-.6-2.883.177-4.068.054-.082.163-.104.245-.05s.105.163.05.245a3.73 3.73 0 0 0-.161 3.707c.046.086.014.193-.072.24-.027.014-.055.02-.083.02z" class="Da"/><path d="M104.9 93.3c.147 1.98 1.938 4.628 2.477 6.538" class="Dk"/><path d="M107.377 100.014c-.077 0-.148-.05-.17-.13-.214-.758-.63-1.633-1.067-2.56-.652-1.377-1.326-2.802-1.416-4.013-.007-.097.066-.182.163-.19s.182.066.19.163c.085 1.146.745 2.54 1.383 3.888l1.088 2.615c.026.094-.028.192-.122.218-.016.004-.032.007-.048.007z" class="DY"/><g class="Da"><path d="M128.64 47.68c-.02 0-.04-.003-.058-.01a.18.18 0 0 1-.11-.225c.845-2.42 1.1-5.277.7-7.453-.04-.2-.147-.42-.257-.4-.053.008-.12.07-.168.116-1.17 1.1-2.534 2.6-3.74 4.143-.06.077-.17.1-.248.03s-.1-.17-.03-.248c1.218-1.548 2.595-3.072 3.777-4.182.078-.073.195-.183.357-.208.312-.047.568.22.657.683.43 2.234.162 5.16-.702 7.636-.026.073-.094.12-.167.12zm-9.68 28.656c-.026 0-.053-.006-.077-.018l-10.53-5.123-5.333-3c-.075-.042-.1-.132-.08-.213 1.34-3.814 2.478-7.746 3.387-11.686l.22-.965c.443-1.96.9-3.987 1.68-5.88.995-2.415 2.7-4.552 4.565-5.717.083-.052.192-.026.243.056s.026.192-.056.243c-1.803 1.127-3.457 3.202-4.425 5.55-.768 1.864-1.222 3.876-1.662 5.822l-.22.967a110.53 110.53 0 0 1-3.349 11.584l5.194 2.922L118.82 75.9l.788-5.406c-.072-1.955 1.24-3.538 2.03-4.3.76-.743 1.493-1.2 2.237-1.397.584-.155 1.18-.16 1.892-.118 2.48.144 5.17.698 8.47 1.743 1.275.404 2.72.862 3.96.37.718-.285 1.367-.912 1.828-1.765.42-.78.658-1.655.887-2.503l.022-.194-.067-.04-13.032-8.8c-.08-.055-.102-.164-.047-.245s.165-.102.245-.047l13.18 8.893c.06.035.095.103.087.173l-.037.322a.19.19 0 0 1-.005.026c-.235.872-.478 1.773-.92 2.592-.354.654-1 1.52-2.008 1.925-1.355.538-2.864.06-4.196-.362-3.272-1.036-5.936-1.585-8.385-1.728-.68-.04-1.243-.036-1.78.107-.684.18-1.365.6-2.08 1.308-.75.732-2 2.233-1.925 4.058 0 .01 0 .022-.002.033l-.825 5.662c-.008.056-.042.104-.092.13-.026.014-.054.02-.083.02z"/><path d="M129.553 54.518c-.097 0-.176-.078-.177-.175l-.001-.123c-.016-1.754-.035-3.937-.587-5.58-.608-1.8-1.83-3.374-3.438-4.404-1.67-1.07-3.725-1.5-5.94-1.275-.097.01-.184-.06-.194-.157s.06-.184.157-.194c2.296-.244 4.43.215 6.17 1.328a8.79 8.79 0 0 1 3.582 4.589c.57 1.696.6 3.91.606 5.7v.123c.001.098-.077.178-.175.178z"/></g><path d="M107.47 61.013c-.023 0-.047-.005-.07-.014-.1-.038-.13-.142-.093-.232a6.77 6.77 0 0 0 .174-4.822c-.025-.07-.001-.15.058-.197s.142-.05.205-.01l.902.584a14.33 14.33 0 0 1-.207-2.246c-.001-.068.037-.13.098-.16s.133-.023.187.02l.473.367a15.75 15.75 0 0 1 1.596-5.06c.045-.087.15-.12.238-.077s.12.15.076.238a15.41 15.41 0 0 0-1.599 5.248c-.007.063-.048.118-.107.142s-.126.016-.177-.023l-.423-.328a14.23 14.23 0 0 0 .266 2.217c.014.07-.015.14-.074.18s-.136.04-.195.002l-.84-.545c.404 1.514.3 3.167-.326 4.607-.03.067-.094.107-.163.107zm13.444-7.355c-.436 0-.85-.124-1.175-.365-.117-.088-.14-.254-.054-.37s.254-.142.37-.054c.413.308 1.046.348 1.613.1.475-.207.92-.598 1.362-1.196.087-.118.253-.142.37-.055s.142.253.055.37c-.5.674-1.014 1.12-1.576 1.366a2.42 2.42 0 0 1-.966.204z" class="DY"/><path d="M128.19 51.95a3.64 3.64 0 0 0 1.136.895" class="Db"/><path d="M129.327 53.11c-.04 0-.08-.01-.12-.028a3.93 3.93 0 0 1-1.219-.96c-.095-.112-.08-.28.03-.374s.28-.08.374.03c.29.34.653.628 1.053.83.13.066.183.225.118.356-.047.092-.14.146-.237.146z" class="DY"/><path d="M124.162 60.847l1.936-1.338" class="Db"/><g class="DY"><path d="M124.162 61.023c-.056 0-.11-.027-.145-.076-.056-.08-.035-.2.045-.246l1.936-1.338c.08-.056.2-.036.246.045s.035.2-.045.246l-1.936 1.338c-.03.02-.066.03-.1.03z"/><path d="M130.487 65.705c-.03 0-.062-.008-.1-.025-2.4-1.42-4.076-3.506-5.4-5.36-.057-.08-.038-.2.04-.246s.2-.038.246.04c1.303 1.823 2.95 3.874 5.294 5.26.084.05.112.158.062.242-.033.056-.092.087-.152.087zm-6.027-20.827c-.06 0-.123-.02-.173-.065-.1-.096-.123-.263-.027-.374 1.655-1.917 2.057-4.432 2.482-7.095l.73-3.667a15.45 15.45 0 0 1 3.117-5.835l1.3-1.397c.877-.905 1.783-1.84 2.392-2.94.816-1.477 1.068-3.133 1.334-4.887l.454-2.524c.576-2.432 1.75-4.7 3.4-6.6.096-.1.264-.12.374-.025s.12.264.025.374c-1.6 1.815-2.726 4.015-3.282 6.363-.192.8-.32 1.66-.445 2.482-.26 1.723-.53 3.505-1.394 5.064-.643 1.163-1.574 2.124-2.475 3.054l-1.277 1.373c-1.4 1.626-2.432 3.574-3 5.634-.325 1.158-.523 2.403-.716 3.607-.418 2.618-.85 5.326-2.604 7.358-.052.06-.126.092-.2.092z"/><path d="M133.4 25.478c-.113 0-.218-.073-.253-.186-.043-.14.035-.288.174-.332 1.1-.342 2.006-1.054 2.965-1.808l1.362-1.015a10.93 10.93 0 0 1 5.374-1.82.26.26 0 0 1 .281.248c.01.146-.102.272-.248.28a10.4 10.4 0 0 0-5.113 1.731c-.454.303-.9.653-1.33 1-.955.75-1.942 1.526-3.135 1.897-.026.008-.053.012-.08.012zm.673-.928c-.03 0-.063-.006-.094-.017-.137-.052-.206-.205-.153-.342.727-1.9.4-3.946.052-6.1-.3-1.92-.63-3.903-.134-5.796.037-.142.18-.227.323-.2s.226.182.2.323c-.467 1.785-.156 3.713.144 5.578.343 2.13.698 4.33-.08 6.374-.04.106-.14.17-.248.17zm-15.087 19.828c-.145 0-.264-.117-.265-.263-.017-1.9.275-3.8.585-5.797.797-5.146 1.62-10.467-2.727-16.974-1.303-1.95-2.936-3.7-4.516-5.412l-2.257-2.5c-2.913-3.37-4.42-6.326-4.74-9.307-.016-.146.1-.276.235-.292a.28.28 0 0 1 .292.235c.3 2.87 1.775 5.734 4.615 9.017.727.84 1.498 1.67 2.244 2.475 1.593 1.716 3.24 3.5 4.568 5.478 4.46 6.68 3.584 12.348 2.8 17.35-.306 1.976-.595 3.843-.578 5.7.001.146-.116.266-.263.267z"/><path d="M112.48 16.226c-.1 0-.177-.046-.227-.128-1.068-1.772-1.738-4.7-1.63-7.096l.014-.3c.06-1.2.12-2.442-.557-3.328-.1-.116-.067-.283.05-.372s.283-.067.37.05c.795 1.04.726 2.44.665 3.676l-.014.288c-.105 2.312.534 5.108 1.553 6.8a.26.26 0 0 1-.1.364.29.29 0 0 1-.137.038zm7.56 16.888c-.114 0-.22-.075-.254-.2-.642-2.16-1.443-4.4-3.52-5.966-.555-.418-1.17-.778-1.765-1.126l-1.4-.856c-.727-.494-1.292-1.1-1.838-1.704l-.74-.78c-.104-.103-.104-.27-.001-.375s.27-.104.375-.001l.756.798c.55.6 1.07 1.165 1.746 1.624l1.36.837 1.817 1.16c2.206 1.663 3.043 3.994 3.7 6.24.042.14-.038.288-.18.33-.025.007-.05.01-.076.01z"/></g><path d="M111.66 23.507c-.264-.42-.83-.582-1.3-.462s-.873.48-1.14.896c.363.282.815.468 1.274.448s.97-.436 1.176-.847m22.025-9.608c.162-.468-.064-1.012-.458-1.312s-.92-.383-1.4-.33c.007.46.144.93.447 1.274s.947.485 1.397.4m-6.453 23.212c.424.255 1.003.147 1.378-.176s.565-.82.614-1.313c-.45-.1-.938-.052-1.34.173s-.67.826-.67 1.286M110.997 8.203c.424.255 1.003.147 1.378-.177s.565-.82.614-1.313c-.45-.1-.938-.052-1.34.173s-.67.826-.67 1.286" class="DZ"/><path d="M124.28 44.715c.226.26.582.425.927.527.1.033.23-.026.27-.134a27.94 27.94 0 0 0 1.496-5.54c.096-.593.172-1.206.023-1.788-.45 2.42-1 4.63-2.552 6.548m-9.924 5.598c-.065 0-.128-.036-.16-.1-2.293-4.675-2.036-10.577.654-15.036a.18.18 0 0 1 .136-.085c.056-.005.1.017.148.06 3.36 3.816 5.1 9.117 4.622 14.18-.01.097-.095.168-.192.16s-.17-.095-.16-.192c.45-4.887-1.183-10-4.375-13.73-2.513 4.333-2.72 10-.515 14.488.043.088.007.194-.08.236-.025.012-.052.018-.078.018z" class="DY"/><path d="M115.34 48.74a4.32 4.32 0 0 1-.197-.529c-.542-1.72-.774-3.503-.783-5.304-.007-1.36.145-2.782.875-3.93 1.217.968 1.86 2.473 2.388 3.935.607 1.677 1.135 3.427 1.055 5.208-.01.213-.03.43-.12.623-.225.47-.8.644-1.312.732-.458.08-1.017.153-1.425-.124-.217-.147-.366-.37-.48-.6zm23.256 12a2.11 2.11 0 0 0-.724 1.67c.028.626.36 1.235.874 1.598.25.177.535.295.817.413.163.068.498.3.668.23.182-.063.394-.566.477-.73.183-.358.65-1.32.462-1.725-.096-.208-.602-.427-.786-.55l-1.523-1.033-.267.126z" class="Da"/><path d="M141.405 125.73c-.805 2.07-2.113 3.994-3.813 5.606" class="Db"/><path d="M137.592 131.514c-.047 0-.093-.018-.128-.055-.067-.07-.064-.183.007-.25 1.674-1.588 2.978-3.504 3.77-5.542.035-.09.138-.136.23-.1s.136.138.1.23c-.81 2.086-2.144 4.047-3.856 5.67-.034.033-.078.05-.12.05z" class="DY"/><path d="M173.457 76.938l-10.37-9.105-13.524 19.356 3.872 2.956c.05-.028.102-.058.157-.078.072-.025.153-.036.23-.03.047.003.08.01.117.018.01-.001.02-.01.03-.01a.38.38 0 0 1 .199.009c.065.016.122.045.17.1.054.035.097.082.13.14.032.044.06.09.08.14.04.09.08.178.1.273a1.97 1.97 0 0 1 .03.211.61.61 0 0 1 .003.087c-.002.04-.01.078-.015.117l.565.445 1.118-2.043.638-1.187c.154-.336.316-.683.57-.956.02-.02.04-.028.062-.044.335-.475.713-.92.962-1.45.26-.555 1-.126.914.385-.194 1.15-.646 2.228-1.062 3.312-.25.65-.424 1.327-.617 1.996.342-.63.745-1.228 1.146-1.817a.51.51 0 0 1 .493-.222l.634-1.003.638-1.04.287-.54c.052-.106.235-.37.235-.453 0-.644 1-.643 1 0 0 .543-.2 1.14-.374 1.65-.192.562-.434 1.11-.698 1.642l-.84 1.56c-.185.42-.383.837-.626 1.23-.005.008-.012.012-.018.02l-.125.325-.214.7c1.532-1.504 2.693-3.36 3.863-5.15.298-.456 1.103-.172.914.385-.014.042-.038.077-.053.118s-.035.07-.046.1c0 .01.004.017.003.028-.107 1.157-.75 2.195-1.296 3.193-.44.802-.97 1.524-1.522 2.236.004.01.013.014.016.023.08.057.145.138.183.23l1.3-1.198.313-.43c.29-.354.84-.042.853.354.026.835-.64 1.46-1.06 2.1l-.06.1 8.115-1.374 12-19.728-9.407 2.344z" class="DZ"/><g class="Da"><path d="M173.493 76.825c-.2.004-.405-.228-.604-.315-.3-.13-.632.168-.816.438l-7.94 11.624a.44.44 0 0 1-.005.27c-.014.042-.038.077-.053.118s-.035.07-.046.1c0 .01.004.017.003.028-.107 1.157-.75 2.195-1.296 3.193-.44.802-.97 1.524-1.522 2.236.004.01.013.014.016.023.08.057.145.138.183.23l1.3-1.198.313-.43c.224-.273.6-.15.767.102 3.12-4.353 8.195-12.445 10.174-15.627.223-.36-.05-.803-.474-.793zm-66.886 87.922a12.09 12.09 0 0 1-.347-.005c-4.718-.14-9.227-3.397-11.222-8.107-1.782-4.208-1.58-8.906.584-13.587.04-.1.146-.127.234-.086s.127.146.086.234c-2.12 4.588-2.32 9.187-.58 13.3 1.942 4.585 6.325 7.756 10.907 7.892 1.688.05 3.5-.275 5.673-1.022a30.14 30.14 0 0 0 9.24-5.105c2.1-1.7 3.93-3.652 5.302-5.174 5.443-6.04 8.115-13.795 10.7-21.296.875-2.54 1.78-5.166 2.78-7.686.036-.1.138-.135.23-.1s.135.14.1.23c-.996 2.512-1.9 5.135-2.774 7.67-2.596 7.534-5.28 15.324-10.77 21.417-1.38 1.53-3.234 3.507-5.342 5.212a30.55 30.55 0 0 1-9.349 5.164c-2.077.7-3.82 1.046-5.45 1.046z"/><path d="M166.6 224.262c-.553 0-1.126-.214-1.545-.556-.78-.637-1.172-1.597-1.517-2.443L139.935 163.4l-1.144-2.93c-1.907-4.988-4.068-10.642-8-13.537l.2-.284c4.005 2.956 6.186 8.66 8.1 13.695l1.14 2.922 23.603 57.853c.33.807.703 1.722 1.413 2.303.65.53 1.74.688 2.322.075l1.085-1 .238.26-1.076.98c-.334.352-.785.503-1.248.503zm-.896-46.235c-2.828-6.597-5.286-13.102-7.662-19.394s-4.83-12.8-7.656-19.38c-.7-1.6-2.543-5.568-4.824-7.513-1.992-1.7-4.327-2.883-7.896-.073l-.22-.278c3.78-2.975 6.34-1.628 8.344.082 2.338 1.994 4.22 6 4.92 7.643 2.828 6.597 5.286 13.102 7.662 19.394l7.656 19.38-.325.14z"/><path d="M200.095 176.618l-.085-.058c-19.133-13.136-36.176-26.41-50.656-39.45l.236-.263c14.447 13.012 31.45 26.256 50.534 39.363.634-.324 4.4-2.32 6.273-4.94 1.87-2.616 2.11-6.003 2.138-6.56-8.492-7.75-16.745-16.018-24.727-24.014l-16.25-16.06c-2.45-2.357-5.017-4.675-7.5-6.916l-8.73-8.112-1.444-1.46c-3.684-3.77-7.86-8.046-13.33-6.035l-.122-.332c5.687-2.09 10.133 2.463 13.706 6.12l1.44 1.455c2.828 2.782 5.823 5.486 8.72 8.1l7.508 6.924 16.256 16.065c7.998 8.013 16.27 16.298 24.776 24.058l.06.054-.002.08c-.004.158-.1 3.902-2.208 6.838-2.09 2.928-6.318 5.012-6.497 5.1l-.093.045z"/><path d="M211.4 177.226c-.683 0-1.484-.2-2.4-.63-1.552-.713-3.042-1.58-4.428-2.577-.08-.057-.097-.167-.04-.247s.167-.097.247-.04c1.367.984 2.837 1.84 4.37 2.543 1.62.744 2.83.794 3.6.15.35-.292.577-.713.796-1.12l3.658-6.79c1.637-3.04 3.33-6.18 4.162-9.59.074-.303.27-1.315-.313-1.597-.39-.19-.9.088-1.282.35l-2.59 1.7c-2.82 1.832-6.018 3.908-8.362 5.956-.073.064-.185.057-.25-.017s-.057-.185.017-.25c2.363-2.064 5.57-4.148 8.402-5.986l2.587-1.696c.47-.315 1.08-.642 1.632-.374.563.273.746 1 .502 2-.843 3.452-2.547 6.615-4.195 9.673l-3.658 6.79c-.224.416-.478.887-.88 1.224-.422.353-.95.53-1.574.53z"/><path d="M212.954 177.744c-1.158 0-2.42-.52-3.422-.93l-.646-.26c-.1-.035-.137-.137-.1-.228s.138-.136.228-.1l.654.263c1.43.588 3.212 1.32 4.5.628.76-.4 1.187-1.287 1.6-2.135l.435-.843 2.296-4.18c1.278-2.5 2.855-5.786 3.702-9.192.28-1.123.358-3.126-1.12-3.5-.094-.024-.15-.12-.127-.215s.12-.152.215-.127c1.746.452 1.686 2.687 1.375 3.937-.857 3.44-2.444 6.76-3.73 9.268l-2.305 4.195-.423.82c-.417.856-.9 1.827-1.75 2.3-.42.227-.886.318-1.37.318zM150.33 144.34h-.046c-.83-.012-1.582-.35-2.062-.93-.062-.075-.052-.187.023-.25s.187-.052.25.023c.415.5 1.07.792 1.795.803.734.013 1.4-.262 1.818-.75.065-.073.176-.08.25-.016s.08.176.016.25c-.488.554-1.23.87-2.042.87zm24.74 60.568c-.048 0-.095-.02-.13-.057-1.058-1.142-.935-2.876-.767-3.808.087-.483.2-.965.332-1.432.196-.76.398-1.543.435-2.33.052-1.12-.22-2.33-.832-3.698-1.282-2.863-3.552-5.492-7.144-8.272-1.182-.915-2.426-1.792-3.63-2.64-1.78-1.256-3.623-2.556-5.305-4.005-3.335-2.872-5.46-5.93-6.313-9.1-.176-.654.025-.94.226-1.062s.446-.097.607-.078c1.14.133 2.347.304 3.432.8 1.22.546 2.128 1.457 2.487 2.5.105.306.167.626.226.935.092.476.178.927.4 1.315.325.54.905.896 1.472 1.215 1.505.845 3.098 1.593 4.64 2.315 1.747.82 3.553 1.667 5.247 2.663 1.946 1.145 3.94 2.596 6.274 4.567 6.385 5.4 10.1 10.43 11.693 15.86.028.094-.026.192-.12.22s-.192-.026-.22-.12c-1.572-5.362-5.252-10.347-11.582-15.7-2.318-1.957-4.296-3.397-6.225-4.532-1.68-.988-3.478-1.832-5.218-2.648-1.546-.726-3.145-1.476-4.662-2.327-.608-.342-1.233-.726-1.602-1.34-.265-.442-.362-.944-.455-1.43-.057-.297-.116-.605-.214-.887-.328-.95-1.165-1.786-2.297-2.292-1.04-.465-2.215-.63-3.33-.76-.148-.017-.3-.03-.38.028-.194.12-.114.508-.07.67.835 3.1 2.922 6.1 6.202 8.914 1.67 1.438 3.504 2.732 5.278 3.984 1.206.85 2.454 1.73 3.642 2.65 3.64 2.817 5.943 5.488 7.25 8.407.635 1.418.917 2.68.862 3.858-.038.822-.245 1.624-.445 2.4-.12.46-.24.935-.326 1.406-.156.867-.276 2.475.678 3.505.066.072.062.183-.01.25-.034.032-.077.047-.12.047z"/><path d="M178.3 186.413a.17.17 0 0 1-.176-.16l-.057-.55c-.208-1.982-.468-4.448.577-5.97.378-.552.887-1.026 1.38-1.485.827-.772 1.608-1.5 1.756-2.53.048-.337-.002-.77-.3-.978-.126-.1-.302-.142-.54-.156-.92-.055-1.803.415-2.55.88-1.497.935-2.516 1.864-3.208 2.92-.725 1.107-1.268 2.876-.848 4.33.027.094-.027.192-.12.22s-.2-.027-.22-.12c-.45-1.56.123-3.445.892-4.62.72-1.1 1.774-2.063 3.316-3.026.794-.496 1.743-.997 2.757-.934.306.018.543.1.726.222.352.255.514.746.432 1.314-.166 1.154-1.03 1.96-1.865 2.74-.478.446-.972.907-1.328 1.426-.97 1.414-.708 3.9-.516 5.732l.057.553c.01.097-.06.184-.16.193zm45.493 20.437c-.953 0-1.758-.18-2.622-.468-1.76-.587-3.226-1.743-4.427-2.797l-2.93-2.748-3.146-2.935c-1.193-1.03-2.465-1.996-3.78-2.87-1.348-.894-2.496-1.525-3.613-1.987-2.573-1.063-5.667-1.274-8.713-.595-2.996.668-5.756 2.146-7.77 4.163-.07.07-.18.07-.25 0s-.07-.18 0-.25c4.35-4.353 11.443-5.886 16.868-3.644 1.14.47 2.307 1.112 3.674 2.02a38.02 38.02 0 0 1 3.816 2.896c1.092.943 2.144 1.963 3.16 2.95.942.913 1.916 1.858 2.917 2.736 1.174 1.03 2.604 2.16 4.306 2.727 1.673.557 3.12.695 5.984-.17.093-.028.192.024.22.118s-.024.192-.118.22c-1.487.45-2.608.636-3.575.636z"/><path d="M220.458 206.026c-.09 0-.168-.07-.176-.16-.226-2.636-.396-5.397.2-7.644.854-3.164 2.973-4.774 4.672-5.226 1.117-.297 2.312-.226 3.468-.156 1.563.093 3.04.18 4.3-.58 1.706-1.04 2.202-3.18 2.682-5.246l.178-.756c.74-3.042 2.123-5.975 3.997-8.483.36-.482.794-1.02 1.394-1.323.554-.28 1.397-.343 1.938.174.678.648.474 1.76.058 2.587-.434.86-1.025 1.636-1.597 2.384l-1.21 1.697c-1.003 1.63-1.227 3.316-.6 4.508.245.465.602.85.98 1.255.334.358.68.728.94 1.16.854 1.413.69 3.42-.41 4.992-.85 1.217-2.202 2.208-4.133 3.032-2.43 1.036-5.108 1.585-7.748 1.588h0c-.097 0-.177-.08-.177-.177s.08-.177.177-.177a19.63 19.63 0 0 0 7.61-1.56c1.868-.797 3.17-1.748 3.982-2.91.85-1.215 1.302-3.11.398-4.607-.242-.4-.574-.756-.895-1.1-.378-.405-.768-.825-1.035-1.33-.33-.626-.93-2.353.612-4.858.37-.604.807-1.174 1.23-1.726.562-.736 1.143-1.497 1.563-2.33.36-.713.552-1.66.013-2.173-.418-.4-1.09-.34-1.536-.114-.532.267-.934.77-1.27 1.22a23.29 23.29 0 0 0-3.937 8.355l-.178.753c-.474 2.04-1 4.35-2.843 5.468-1.345.82-2.946.725-4.495.632-1.127-.067-2.294-.137-3.356.145-1.603.426-3.607 1.957-4.42 4.976-.592 2.192-.423 4.918-.2 7.522.008.097-.064.183-.16.19z"/><path d="M259.058 230.355c-.116 0-.247-.018-.364-.094-.33-.214-.28-.666-.138-.988.6-1.328 1.934-2.05 3.377-2.73 2.86-1.35 6.1-2.88 8.72-5.133 1.317-1.133 2.153-2.188 2.632-3.322.596-1.4.56-2.922-.097-4.043-.574-.98-1.68-1.736-3.038-2.076-1.247-.3-2.584-.275-3.847-.2-7.808.4-15.426 2-23.973 5.067-.092.033-.193-.015-.226-.107s.015-.193.107-.226c8.58-3.07 16.23-4.687 24.075-5.087 1.3-.066 2.657-.103 3.95.22 1.45.362 2.636 1.178 3.258 2.24.712 1.216.756 2.846.117 4.36-.5 1.186-1.367 2.284-2.727 3.453-2.657 2.286-5.92 3.826-8.8 5.185-1.38.65-2.664 1.337-3.205 2.554-.076.17-.136.456.006.548.064.04.165.04.246.034.646-.045 1.236-.415 1.807-.773l.297-.185c1.47-.894 3.12-1.456 4.717-1.998 1.1-.37 2.215-.753 3.27-1.237 3.374-1.55 5.847-4.14 6.786-7.107 1.06-3.347-.122-7.192-2.748-8.943-2.145-1.43-4.946-1.47-7.144-1.347-4.554.257-9.096 1.266-13.488 2.242-3.8.844-7.727 1.717-11.662 2.105a.18.18 0 0 1-.155-.066c-.037-.046-.048-.1-.03-.167l.105-.313c.712-1.735.865-3.768.448-5.9-.34-1.735-1.065-3.56-2.213-5.578l-.236-.427c-.447-.817-.908-1.662-1.75-2.148-.084-.05-.114-.157-.065-.24s.156-.114.24-.065c.93.535 1.415 1.424 1.885 2.284l.233.422c1.167 2.053 1.903 3.912 2.252 5.685.43 2.2.27 4.294-.464 6.082l-.014.042c3.823-.4 7.647-1.248 11.348-2.07 4.406-.98 8.963-1.992 13.545-2.25 2.255-.128 5.128-.082 7.36 1.406 2.752 1.835 3.994 5.852 2.9 9.343-.97 3.06-3.5 5.73-6.975 7.32-1.07.492-2.206.878-3.303 1.25-1.58.536-3.2 1.1-4.647 1.965l-.293.182c-.608.38-1.236.775-1.97.826a1.33 1.33 0 0 1-.099.004zm-29.245-19.1c-.046 0-.093-.018-.127-.054-.068-.07-.066-.182.005-.25 1.483-1.43 3.734-2.038 5.736-1.552.095.023.153.12.13.214s-.118.153-.214.13c-1.887-.458-4 .116-5.407 1.463-.034.033-.078.05-.123.05z"/><path d="M223.714 216.85a23.7 23.7 0 0 1-4.529-.439c-.096-.02-.158-.112-.14-.207s.112-.16.207-.14c3.818.745 7.92.5 11.252-.675.1-.032.193.016.225.108s-.016.193-.108.225c-2.124.748-4.486 1.128-6.908 1.128zm-5.718 7.075a9.41 9.41 0 0 1-1.676-.15c-1.988-.363-4.58-2.16-5.122-4.16-.025-.094.03-.2.124-.217s.2.03.217.124c.492 1.82 2.964 3.56 4.844 3.904a9.18 9.18 0 0 0 5.359-.652c.6-.264 1.16-.597 1.7-.92l1.37-.76a11.94 11.94 0 0 1 7.714-.997c.715.15 1.422.365 2.106.575l2.5.646c1.658.272 3.127-.018 4.1-.798a4.48 4.48 0 0 1-3.397-2.822c-.32-.878-.224-1.697.255-2.2.216-.222.515-.383.888-.48 1.345-.345 2.87.4 3.476 1.696.576 1.233.264 2.848-.74 3.84-1.03 1.016-2.716 1.418-4.628 1.104-.87-.143-1.722-.404-2.546-.656l-2.074-.566c-2.522-.524-5.18-.18-7.485.967l-1.35.748-1.744.937c-1.215.546-2.555.827-3.9.827zm21.645-8.624a2.29 2.29 0 0 0-.574.071c-.3.08-.553.2-.723.383-.45.463-.386 1.245-.176 1.822a4.11 4.11 0 0 0 3.309 2.621c.027.003.053.013.074.026.835-.895 1.082-2.284.584-3.35-.442-.947-1.482-1.574-2.494-1.574zm-75.158 18.122c-.02 0-.04-.003-.058-.01-.066-.023-.112-.083-.118-.153a8.51 8.51 0 0 1 3.678-7.64l1.226-.808c-.9-2.458-.954-5.38-.185-8.462.718-2.878 2.027-5.525 3.306-7.988.95-1.83 2.132-3.842 4.13-4.54.092-.032.193.017.225.108s-.016.193-.1.225c-1.875.656-3.013 2.6-3.933 4.37-1.27 2.445-2.568 5.07-3.277 7.9-.765 3.068-.688 5.967.222 8.385.03.077.001.165-.068.2l-1.342.884c-2.226 1.497-3.617 4.24-3.543 6.926a6.73 6.73 0 0 1 1.727-1.187c.638-.305 1.33-.512 1.998-.712 1.065-.32 2.07-.62 2.9-1.284 1.494-1.215 1.88-3.6.84-5.233-.053-.082-.03-.2.054-.244s.2-.03.244.054c1.13 1.766.712 4.375-.915 5.698-.872.7-1.96 1.035-3 1.35-.655.196-1.333.4-1.946.692a6.38 6.38 0 0 0-1.906 1.395c-.034.036-.08.056-.13.056z"/><path d="M179.193 231.596c-1.1 0-2.186-.274-3.133-.807-1.675-.943-3-2.575-3.373-4.158-.023-.095.036-.2.13-.213s.2.036.213.13c.347 1.47 1.635 3.05 3.203 3.932a6.09 6.09 0 0 0 4.783.479c.736-.238 1.433-.624 2.107-.997l1.56-.796c2.504-1.068 5.235-.905 8.3-.6.456.045.972.097 1.395-.102.4-.193.593-.563.673-.84a2 2 0 0 0-.224-1.584c-.55-.862-1.596-1.294-2.446-1.574-1.083-.357-2.24-.622-3.358-.88-2.575-.6-5.238-1.2-7.22-2.983l-.18-.16c-.6-.53-1.28-1.13-.803-1.913l.136-.3c.032-.07.106-.113.184-.102a13.2 13.2 0 0 0 5.612-.487c.933-.292 1.85-.695 2.736-1.085 1.12-.494 2.28-1.004 3.497-1.3a10.86 10.86 0 0 1 6.559.463c.865.346 1.686.807 2.48 1.252l1.74.925a14.82 14.82 0 0 0 9.896.958 14.83 14.83 0 0 0 8.214-5.602c.057-.08.167-.097.247-.04s.097.168.04.247a15.19 15.19 0 0 1-18.549 4.757l-1.76-.936-2.44-1.232a10.5 10.5 0 0 0-6.344-.448c-1.186.3-2.33.793-3.438 1.28l-2.772 1.1c-1.808.566-3.752.744-5.634.517l-.087.192-.01.02c-.3.5.07.9.73 1.47l.184.163c1.913 1.722 4.53 2.32 7.062 2.9l3.4.888c.905.298 2.023.764 2.633 1.72a2.36 2.36 0 0 1 .265 1.872c-.142.5-.447.866-.862 1.06-.5.24-1.104.18-1.58.134-3.004-.298-5.688-.46-8.115.575-.523.223-1.034.506-1.53.78-.7.38-1.4.775-2.17 1.024a6.28 6.28 0 0 1-1.932.3zm.525-3.662c-.027 0-.054-.006-.08-.02-.087-.044-.123-.15-.08-.237a1.53 1.53 0 0 0-.228-1.659 1.53 1.53 0 0 0-1.63-.383c-.1.036-.193-.01-.23-.1s.01-.193.1-.23a1.87 1.87 0 0 1 2.019.475 1.87 1.87 0 0 1 .283 2.055c-.03.062-.093.097-.158.097z"/><path d="M179.368 234.804a10.28 10.28 0 0 1-2.47-.302c-.483-.12-1.038-.292-1.48-.668-.496-.42-.82-1.08-.906-1.854-.078-.683.028-1.375.153-2.02.018-.096.1-.16.207-.14s.158.1.14.207c-.12.618-.22 1.278-.15 1.913.078.685.356 1.262.784 1.624.388.33.894.485 1.337.595a9.9 9.9 0 0 0 3.193.258c-.46-.404-.757-.8-.922-1.252-.265-.713-.105-1.516.4-1.952.073-.064.185-.058.25.015s.058.185-.015.25c-.387.342-.507.985-.292 1.564.177.477.54.9 1.14 1.366.057.043.083.117.064.187s-.078.12-.15.13a10.47 10.47 0 0 1-1.272.08zm5.806-10.23c-.06 0-.12-.03-.153-.088-.05-.084-.02-.193.064-.242 1.306-.762 2.77-.788 4.188-.814l.333-.006c.1 0 .178.077.18.173s-.075.178-.173.18l-.334.006c-1.435.026-2.8.05-4.016.766-.028.016-.06.024-.1.024zm7.43 4.017s.18-1.2.953-1.3 1.668.357 1.668.357-.18 1.668-2.62.953z"/><use xlink:href="#B"/><use xlink:href="#B" x="0.357" y="1.548"/><use xlink:href="#B" x="1.668" y="0.535"/><path d="M166.76 229.7c-.412-.147-.528-.642-.3-.986.316-.703.776-1.332 1.382-1.817.308-.246.635-.465.96-.688l.947-.714a1.58 1.58 0 0 0 .165-.163c.1-.085.202-.1.322-.122a1.91 1.91 0 0 1 .424.01c.15.02.338.043.463.137a.4.4 0 0 1 .11.16c1.126 2.472-2.193 5-4.464 4.183zm4.32-17.737c2.14.7 4.385 1.07 6.197 2.408 1.33.982 2.586 3.018 3.65 4.283 1.16-.167.862-.188 2.032-.224-.086-2.068-1.304-3.96-2.872-5.3s-3.47-2.246-5.348-3.115c-.82-.38-1.663-.763-2.563-.846-.278-.026-.43.524-.527.733-.305.666-.427 1.42-.8 2.05"/></g><path d="M162.95 93.03l-1.366 1.237 1.733-2.898c.492-.894.968-1.855.91-2.9-.006-.106-.023-.427-.357-.5-.19-.04-.396.037-.526.2l-3.023 3.747c.577-1.077 1.126-2.182 1.573-3.324.277-.708.578-1.635.446-2.52-.028-.19-.167-.34-.355-.383a.47.47 0 0 0-.496.189l-3.537 5.252 1.584-4.565a4.41 4.41 0 0 0 .184-.649c.04-.217-.068-.426-.268-.52s-.436-.045-.58.126c-1.56 1.847-2.903 3.866-4.005 6.013l.037-.888c-.006-.58-.427-.9-.84-.96s-.916.13-1.087.688a19.13 19.13 0 0 0-.823 4.724c-.001.03.005.06.02.088l.02.04c.164.04.324.09.482.15l-.166-.306c.076-1.552.347-3.096.805-4.59a.61.61 0 0 1 .699-.442c.246.035.534.218.538.615.007.62-.07 1.263-.157 1.864-.012.086.04.17.124.194s.173-.015.21-.094a31.56 31.56 0 0 1 4.413-6.865c.06-.073.138-.045.16-.034s.087.05.07.137c-.038.207-.108.416-.17.596l-2.064 5.95c-.03.085.01.178.1.217s.178.012.226-.064l4.325-6.472c.042-.06.106-.05.126-.047s.076.025.086.09c.12.803-.164 1.673-.425 2.34-.685 1.752-1.62 3.424-2.522 5.042-.045.08-.02.18.055.233s.18.036.237-.035l4.285-5.31c.047-.058.115-.088.177-.075.04.01.07.015.08.173.052.952-.4 1.86-.868 2.71-.764 1.4-1.61 2.757-2.515 4.063-.05.074-.04.174.03.233s.168.06.235-.002l2.43-2.202c.148-.134.32-.095.42-.022s.188.218.105.407c-1.114 2.515-2.904 6.54-5.414 6.8.013.12.001.24-.022.36 2.74-.22 4.603-4.405 5.765-7.03.13-.3.04-.63-.228-.823s-.62-.176-.865.046z" class="DY"/><g class="Da"><path d="M201.277 61.748c-.05 0-.102-.022-.137-.065-.062-.075-.05-.187.025-.25l4.785-3.582.242-.178c.62-.98.948-2.133 1.266-3.248l.658-2.044c.182-.46.43-.972.873-1.3.258-.2.65-.327.976-.138.247.144.352.4.428.678.3 1 .473 2.534.435 3.623-.003.098-.084.177-.183.17s-.174-.085-.17-.183c.036-1.057-.142-2.535-.422-3.514-.056-.196-.127-.4-.266-.47-.178-.104-.428-.002-.588.116-.373.276-.6.735-.755 1.148-.258.65-.455 1.34-.646 2-.328 1.15-.667 2.338-1.325 3.37-.012.018-.027.034-.044.047l-.276.203c-1.482.982-2.95 2.08-4.764 3.566-.033.027-.072.04-.112.04zm9.11 1.867a5.03 5.03 0 0 1-1.566-.248c-.666-.218-1.12-.552-1.353-.992-.046-.086-.012-.193.074-.24s.193-.013.24.074c.188.356.575.632 1.15.82 1.18.387 2.493.284 3.6-.282.087-.044.193-.01.238.077s.01.193-.077.238a5.07 5.07 0 0 1-2.304.551z"/><path d="M204.96 68.723c-.05 0-.097-.02-.132-.06-.065-.073-.058-.185.014-.25l1.322-1.182 4.408-3.878c.075-.063.186-.054.25.02s.054.186-.02.25l-4.4 3.87-1.322 1.182c-.034.03-.076.045-.118.045z"/></g><path d="M120.46 129.904c-2.896 0-5.484-1.97-7.8-3.724l-1.774-1.31c-4.36-3.018-7.576-5.76-10.122-8.633-4.233-4.775-8.966-10.515-11.974-16.89-1.71-3.626-3.483-9.15-2.204-14.867.022-.095.116-.154.21-.134s.155.116.134.21c-1.257 5.62.49 11.063 2.18 14.64 2.99 6.333 7.703 12.05 11.92 16.805 2.527 2.85 5.724 5.576 10.06 8.577.58.402 1.167.848 1.787 1.32 2.46 1.872 5.25 3.993 8.323 3.605 3.332-.42 10.17-3.582 12.697-5.345a100.99 100.99 0 0 0 9.685-7.681c4.448-3.994 9.612-8.795 14.195-14.12.305-.355.416-.76.34-1.235-.327-2.013-3.977-4.674-5.862-5.8-.974-.582-1.45-.162-2.24.533l-.456.392a63.78 63.78 0 0 0-3.518 3.149c-1.72 1.646-3.397 3.394-5.018 5.084l-1.615 1.677c-2.205 2.278-4.798 4.9-7.667 7.184-3.004 2.392-5.703 3.394-8.25 3.062-3.647-.475-6.63-3.58-10-8.094l-4.65-6.163-6.36-8.485c-.058-.08-.04-.19.04-.247s.19-.04.247.04l6.357 8.48 4.652 6.166c3.305 4.443 6.228 7.496 9.752 7.955 2.45.318 5.06-.66 7.985-2.988 2.853-2.272 5.436-4.884 7.634-7.153l1.613-1.676 5.03-5.094c1.262-1.21 2.42-2.245 3.537-3.167.16-.132.308-.262.448-.385.816-.718 1.46-1.285 2.656-.57.228.136 5.595 3.37 6.03 6.046.094.578-.048 1.1-.42 1.522-4.596 5.34-9.77 10.15-14.227 14.152a101.31 101.31 0 0 1-9.719 7.708c-2.616 1.824-9.416 4.97-12.855 5.405a6.31 6.31 0 0 1-.791.049z" class="DY"/><path d="M123.966 126.12c.825.564 1.105 1.792.607 2.658" class="Db"/><path d="M124.572 128.955c-.03 0-.06-.008-.088-.024-.085-.05-.114-.157-.065-.24.45-.782.19-1.915-.553-2.424-.08-.055-.1-.165-.046-.246s.165-.1.246-.046c.904.618 1.206 1.943.66 2.892-.033.057-.092.09-.153.09z" class="DY"/><path d="M75.205 197.987s-.45-.466-.577-.39-.178.918-.178.918l.755-.528z" class="DZ"/><ellipse cx="53.029" cy="188.593" rx="22.353" ry="3.138" class="Da"/><path d="M55.632 228.306c-2.308 0-4.598-.206-6.594-.386l-.242-.022c-5.554-.5-9.317-3.544-11.504-9.308-2.595-6.84-3.94-14.607-5.243-22.12l-1.413-7.79.347-.07c.5 2.53.945 5.09 1.414 7.8 1.3 7.496 2.643 15.248 5.226 22.055 2.134 5.625 5.8 8.596 11.205 9.082l.242.022c4.934.444 11.692 1.053 15.915-1.73 1.814-1.195 3.3-3.214 4.417-6 4.003-9.983 4.97-20.93 5.618-31.286l.353.022c-.65 10.385-1.62 21.363-5.643 31.395-1.145 2.855-2.676 4.93-4.55 6.164-2.594 1.71-6.09 2.172-9.546 2.172z" class="Dc"/><path d="M32.978 205.56c13.89 3.82 27.782 2.443 41.217-.576l1.007-7.003c-9.727 2.756-20.56 2.87-30.293 2.626-3.778-.095-9.17-.462-13.27-2.506l1.337 7.46z" class="DZ"/><path d="M251.16 102.264h-44.545c-.897 0-1.624-.727-1.624-1.624s.727-1.624 1.624-1.624h44.545c.897 0 1.624.727 1.624 1.624s-.727 1.624-1.624 1.624" class="Dc"/><g class="Da"><path d="M215.052 96.443c-1.002-1.22-1.777-2.63-2.354-4.097-.326-.827-.558-1.675-.65-2.56a10.19 10.19 0 0 1-.049-1.379c.014-.44.042-.9.135-1.322.057-.265.17-.518.386-.682.226-.17.507-.257.77-.354.907-.336 1.814-.638 2.757-.856 1.94-.447 3.93-.6 5.917-.644-.016-.052-.04-.1-.05-.153-.013-.07.002-.135.016-.2-1.548.027-3.094.135-4.62.4a20.52 20.52 0 0 0-2.991.719l-1.265.457c-.28.104-.565.2-.798.404-.243.2-.384.492-.454.795-.103.45-.135.928-.153 1.388a10.09 10.09 0 0 0 .29 2.83c.208.82.54 1.615.902 2.38a15.81 15.81 0 0 0 1.208 2.126c.914 1.344 2.06 2.542 3.445 3.405a9.59 9.59 0 0 0 1.032.558c.087.04.2.024.242-.063.045-.076.024-.2-.063-.242-1.43-.663-2.654-1.684-3.65-2.898zm18.115-8.455l-.12-.675c-.04-.195-.08-.398-.15-.585-.233-.618-.802-1.028-1.372-1.312-.584-.3-1.2-.485-1.84-.65-1-.26-2.012-.382-3.032-.45l-2.157-.082c.002.008.005.016.005.025s.005.012.008.02l.02.05c.038.088.062.17.077.26l.5.007 2.967.217a12.55 12.55 0 0 1 2.324.535c.6.197 1.228.447 1.704.874.206.184.385.407.47.674.128.404.198.84.254 1.258.118.9.118 1.795.01 2.686a10.72 10.72 0 0 1-1.814 4.799 10.88 10.88 0 0 1-3.531 3.242 10.74 10.74 0 0 1-1.045.525c-.088.038-.107.166-.063.242.053.1.154.102.242.063 1.528-.668 2.9-1.692 3.982-2.96 1.135-1.326 1.945-2.907 2.35-4.606a11.24 11.24 0 0 0 .309-2.756 10.92 10.92 0 0 0-.11-1.397z"/><path d="M233.235 89.612c.825-.62 1.917-1.02 2.94-.694.426.136.815.392 1.097.74.304.376.432.85.395 1.33-.04.53-.277 1.034-.56 1.477-.276.432-.616.823-.972 1.2-.697.718-1.498 1.33-2.38 1.807-.983.53-2.067.883-3.18 1-.095.01-.177.074-.177.177 0 .088.08.187.177.177 2.143-.224 4.137-1.253 5.66-2.76.774-.765 1.577-1.712 1.754-2.82.086-.537.01-1.1-.278-1.558-.258-.422-.655-.757-1.103-.963-1.2-.548-2.55-.16-3.554.596-.076.057-.115.153-.063.242.044.075.165.12.242.063h0zm-.067 1.344c.5-.568 1.106-1.186 1.898-1.25.334-.027.675.035.955.227.304.208.458.575.476.934.04.804-.498 1.563-1 2.135s-1.124 1.038-1.787 1.42c-.764.438-1.587.76-2.43 1.006-.218.063-.125.404.094.34 1.6-.467 3.2-1.23 4.35-2.5.57-.63 1.15-1.455 1.14-2.34-.005-.43-.155-.87-.475-1.167-.285-.264-.662-.395-1.045-.42-1.003-.062-1.802.645-2.414 1.355-.148.17.1.422.25.25h0zM213.68 88l-.025.012c-.48.22.03.483.313.55a34.83 34.83 0 0 0 15.718.109c.445-.1.945-.36 1.3-.628.1-.065.182-.148.188-.258.01-.173-.188-.273-.353-.325-2.637-.827-5.408-1.22-8.17-1.2-2.693.028-5.617.373-8.145 1.356l-.835.373z"/><path d="M232.1 86.98c-.307.344-.688.622-1.084.855s-.82.43-1.275.497c-.095.014-.147.134-.123.217.028.102.123.137.217.123.48-.07.944-.288 1.36-.532s.83-.545 1.156-.9c.15-.17-.098-.42-.25-.25h0zm-19.67.86c.268.277.626.472.976.623.356.154.745.3 1.137.3.227-.001.228-.354 0-.353-.336.001-.68-.12-.986-.253-.313-.138-.638-.308-.878-.556-.158-.164-.408.086-.25.25h0zm.743-.675a9.08 9.08 0 0 1 3.38-1.268c.094-.015.147-.133.123-.217-.028-.1-.123-.14-.217-.123-1.227.197-2.4.644-3.464 1.303-.192.12-.015.426.178.305h0z"/><path d="M213.512 87.473c1.027-.612 2.167-1 3.352-1.177.095-.013.146-.134.123-.217-.028-.102-.123-.137-.217-.123-1.212.17-2.385.586-3.436 1.212-.195.116-.018.422.178.305h0z"/></g><path d="M223.076 86.75c-.082 0-.165-.014-.246-.043-.182-.066-.327-.2-.408-.374l-1.04-2.25a.59.59 0 0 0-.761-.294.74.74 0 0 1-.985-.41l-7.102-17.72 4.842-1.782 7.343 17.486a.74.74 0 0 1-.398.98.39.39 0 0 0-.21.52l.995 2.287c.155.356.002.767-.35.934l-1.38.6a.7.7 0 0 1-.301.068zm-2.23-3.362a.95.95 0 0 1 .859.545l1.04 2.25a.36.36 0 0 0 .488.176l1.382-.6c.172-.082.25-.29.17-.472l-.995-2.287a.74.74 0 0 1 .395-.986.39.39 0 0 0 .211-.517l-7.212-17.176-4.184 1.54 6.967 17.382a.39.39 0 0 0 .519.216c.117-.05.24-.073.36-.073z" class="Dc"/><path d="M217.27 62.776c-.537-1.936-1.358-4.133-2.22-5.95-.523-1.102-1.164-2.246-2.516-2.516-.346-.07-.706-.065-1.05.012-1.638.365-2.33 2.023-2.252 3.528.06 1.2.525 2.317.982 3.417l.51 1.224.87 2.41-1.23.532c-.178.077-.262.282-.19.46l1.088 2.685c.073.18.275.268.457.2l8.383-3.16c.184-.07.277-.275.208-.46l-1.032-2.758c-.07-.185-.275-.278-.46-.21l-1.55.582z" class="Da"/><g class="Dc"><use xlink:href="#C"/><use xlink:href="#C" x="0.28" y="2.421"/><use xlink:href="#D"/><use xlink:href="#D" x="-2.421" y="0.28"/><use xlink:href="#C" x="-23.271" y="-4.772"/><use xlink:href="#C" x="-22.991" y="-2.35"/><use xlink:href="#D" x="-23.27" y="-4.76"/><use xlink:href="#D" x="-25.69" y="-4.49"/></g><path d="M31.64 198.1s.45-.466.577-.39.178.918.178.918l-.755-.53z" class="DZ"/><defs><path id="A" d="M226.413 87.06c-.015 0-.03-.002-.044-.006-.094-.024-.15-.12-.127-.215 1.048-4.063 1.31-8.693.74-13.036-.36-2.744-1.05-5.36-1.714-7.9-.62-2.36-1.262-4.798-1.642-7.348-1.066-7.163-.046-14.725.854-21.397.013-.097.1-.164.2-.15s.164.102.15.2c-.897 6.65-1.913 14.185-.855 21.298.376 2.53 1.016 4.96 1.634 7.3.668 2.54 1.36 5.167 1.723 7.933.577 4.387.31 9.065-.748 13.17-.02.08-.092.133-.17.133z"/><path id="B" d="M239.55 217c.57 0 .57-.883 0-.883s-.57.883 0 .883h0z"/><path id="C" d="M235.684 81.622l.412-.048.13 1.133-.412.048z"/><path id="D" d="M237.837 82.96l.048.412-1.133.13-.048-.412z"/><path id="E" d="M223.175 37.003h.02l-.02 50.056z"/><path id="F" d="M224.78 37.003h.015l-.015 50.056z"/><path id="G" d="M226.118 37.003h.024l-.024 50.056z"/><path id="H" d="M225.707 55.144h.016l-.016 32.466z"/><path id="I" d="M226.943 55.144h.01l-.01 32.466z"/><path id="J" d="M227.446 55.144h.012l-.012 32.466z"/><path id="K" d="M227.976 55.144h.02l-.02 32.466z"/><path id="L" d="M228.958 78.93h.007v8.867h-.007z"/><path id="M" d="M229.473 78.93h.005l-.005 8.867z"/><path id="N" d="M229.904 78.93h.008v8.867h-.008z"/></defs><clipPath id="O"><use xlink:href="#A"/></clipPath><g class="DV Dd"><path d="M222.56 37.003h.615V87.06h-.615z"/></g><g class="DV Dd"><use xlink:href="#E"/></g><g class="DV Dl"><path d="M223.196 37.003h.02l-.02 50.056z"/></g><g class="DV Dm"><path d="M223.218 37.003h.02l-.02 50.056z"/></g><g class="DV Dn"><path d="M223.24 37.003h.02l-.02 50.056z"/></g><g class="DV Do"><path d="M223.26 37.003h.02l-.02 50.056z"/></g><g class="DV Dp"><path d="M223.282 37.003h.02l-.02 50.056z"/></g><g class="DV Dq"><path d="M223.303 37.003h.02l-.02 50.056z"/></g><g class="DV Dr"><path d="M223.325 37.003h.02l-.02 50.056z"/></g><g class="DV Ds"><path d="M223.346 37.003h.02l-.02 50.056z"/></g><g class="DV Dt"><path d="M223.368 37.003h.02l-.02 50.056z"/></g><g class="DV Du"><path d="M223.39 37.003h.02l-.02 50.056z"/></g><g class="DV Dv"><path d="M223.41 37.003h.02l-.02 50.056z"/></g><g class="DV Dw"><path d="M223.432 37.003h.02l-.02 50.056z"/></g><g class="DV Dx"><path d="M223.453 37.003h.02l-.02 50.056z"/></g><g class="DV Dy"><path d="M223.475 37.003h.02l-.02 50.056z"/></g><g class="DV Dz"><path d="M223.496 37.003h.02l-.02 50.056z"/></g><g class="DV EA"><path d="M223.518 37.003h.02l-.02 50.056z"/></g><g class="DV EB"><path d="M223.54 37.003h.02l-.02 50.056z"/></g><g class="DV EC"><path d="M223.56 37.003h.02l-.02 50.056z"/></g><g class="DV ED"><path d="M223.582 37.003h.02l-.02 50.056z"/></g><g class="DV EE"><path d="M223.604 37.003h.02l-.02 50.056z"/></g><g class="DV EF"><path d="M223.625 37.003h.02l-.02 50.056z"/></g><g class="DV EG"><path d="M223.646 37.003h.02l-.02 50.056z"/></g><g class="DV EH"><path d="M223.668 37.003h.02l-.02 50.056z"/></g><g class="DV EI"><path d="M223.69 37.003h.02l-.02 50.056z"/></g><g class="DV EJ"><path d="M223.71 37.003h.02l-.02 50.056z"/></g><g class="DV EK"><path d="M223.732 37.003h.02l-.02 50.056z"/></g><g class="DV EL"><path d="M223.754 37.003h.02l-.02 50.056z"/></g><g class="DV EM"><path d="M223.775 37.003h.02l-.02 50.056z"/></g><g class="DV EN"><path d="M223.796 37.003h.02l-.02 50.056z"/></g><g class="DV EO"><path d="M223.818 37.003h.02l-.02 50.056z"/></g><g class="DV EP"><path d="M223.84 37.003h.02l-.02 50.056z"/></g><g class="DV EQ"><path d="M223.86 37.003h.02l-.02 50.056z"/></g><g class="DV ER"><path d="M223.882 37.003h.02l-.02 50.056z"/></g><g class="DV ES"><path d="M223.904 37.003h.02l-.02 50.056z"/></g><g class="DV ET"><path d="M223.925 37.003h.02l-.02 50.056z"/></g><g class="DV EU"><path d="M223.947 37.003h.02l-.02 50.056z"/></g><g class="DV EV"><path d="M223.968 37.003h.02l-.02 50.056z"/></g><g class="DV EW"><path d="M224 37.003h.02L224 87.06z"/></g><g class="DV EX"><path d="M224.01 37.003h.02l-.02 50.056z"/></g><g class="DV EY"><path d="M224.032 37.003h.02l-.02 50.056z"/></g><g class="DV De"><path d="M224.054 37.003h.02l-.02 50.056z"/></g><g class="DV De"><path d="M224.075 37.003h.02l-.02 50.056z"/></g><g class="DV EZ"><path d="M224.096 37.003h.02l-.02 50.056z"/></g><g class="DV Ea"><path d="M224.118 37.003h.02l-.02 50.056z"/></g><g class="DV Eb"><path d="M224.14 37.003h.02l-.02 50.056z"/></g><g class="DV Ec"><path d="M224.16 37.003h.02l-.02 50.056z"/></g><g class="DV Ed"><path d="M224.182 37.003h.02l-.02 50.056z"/></g><g class="DV Ee"><path d="M224.203 37.003h.02l-.02 50.056z"/></g><g class="DV Ef"><path d="M224.224 37.003h.02l-.02 50.056z"/></g><g class="DV Eg"><path d="M224.246 37.003h.02l-.02 50.056z"/></g><g class="DV Eh"><path d="M224.267 37.003h.02l-.02 50.056z"/></g><g class="DV Ei"><path d="M224.288 37.003h.02l-.02 50.056z"/></g><g class="DV Ej"><path d="M224.3 37.003h.02l-.02 50.056z"/></g><g class="DV Ek"><path d="M224.33 37.003h.02l-.02 50.056z"/></g><g class="DV El"><path d="M224.352 37.003h.02l-.02 50.056z"/></g><g class="DV Em"><path d="M224.374 37.003h.02l-.02 50.056z"/></g><g class="DV En"><path d="M224.395 37.003h.02l-.02 50.056z"/></g><g class="DV Eo"><path d="M224.416 37.003h.02l-.02 50.056z"/></g><g class="DV Ep"><path d="M224.438 37.003h.02l-.02 50.056z"/></g><g class="DV Eq"><path d="M224.46 37.003h.02l-.02 50.056z"/></g><g class="DV Er"><path d="M224.48 37.003h.02l-.02 50.056z"/></g><g class="DV Es"><path d="M224.5 37.003h.02l-.02 50.056z"/></g><g class="DV Et"><path d="M224.523 37.003h.02l-.02 50.056z"/></g><g class="DV Eu"><path d="M224.544 37.003h.02l-.02 50.056z"/></g><g class="DV Ev"><path d="M224.565 37.003h.02l-.02 50.056z"/></g><g class="DV Ew"><path d="M224.587 37.003h.02l-.02 50.056z"/></g><g class="DV Ex"><path d="M224.608 37.003h.02l-.02 50.056z"/></g><g class="DV Ey"><path d="M224.63 37.003h.02l-.02 50.056z"/></g><g class="DV Ez"><path d="M224.65 37.003h.02l-.02 50.056z"/></g><g class="DV FA"><path d="M224.672 37.003h.02l-.02 50.056z"/></g><g class="DV FB"><path d="M224.693 37.003h.02l-.02 50.056z"/></g><g class="DV FC"><path d="M224.714 37.003h.02l-.02 50.056z"/></g><g class="DV FD"><path d="M224.736 37.003h.02l-.02 50.056z"/></g><g class="DV Df"><path d="M224.757 37.003h.02l-.02 50.056z"/></g><g class="DV Df"><use xlink:href="#F"/></g><g class="DV FE"><path d="M224.793 37.003h.015l-.015 50.056z"/></g><g class="DV FF"><path d="M224.808 37.003h.015l-.015 50.056z"/></g><g class="DV FG"><path d="M224.823 37.003h.015l-.015 50.056z"/></g><g class="DV FH"><path d="M224.838 37.003h.015l-.015 50.056z"/></g><g class="DV FI"><path d="M224.853 37.003h.015l-.015 50.056z"/></g><g class="DV FJ"><path d="M224.867 37.003h.015l-.015 50.056z"/></g><g class="DV FK"><path d="M224.882 37.003h.015l-.015 50.056z"/></g><g class="DV FL"><path d="M224.897 37.003h.015l-.015 50.056z"/></g><g class="DV FM"><path d="M224.912 37.003h.015l-.015 50.056z"/></g><g class="DV FN"><path d="M224.927 37.003h.015l-.015 50.056z"/></g><g class="DV FO"><path d="M224.942 37.003h.015l-.015 50.056z"/></g><g class="DV FP"><path d="M224.956 37.003h.015l-.015 50.056z"/></g><g class="DV FQ"><path d="M224.97 37.003h.015l-.015 50.056z"/></g><g class="DV FR"><path d="M224.986 37.003H225l-.015 50.056z"/></g><g class="DV FS"><path d="M225 37.003h.015L225 87.06z"/></g><g class="DV FT"><path d="M225.016 37.003h.015l-.015 50.056z"/></g><g class="DV FU"><path d="M225.03 37.003h.015l-.015 50.056z"/></g><g class="DV FV"><path d="M225.046 37.003h.015l-.015 50.056z"/></g><g class="DV FW"><path d="M225.06 37.003h.015l-.015 50.056z"/></g><g class="DV FX"><path d="M225.075 37.003h.015l-.015 50.056z"/></g><g class="DV FY"><path d="M225.1 37.003h.015L225.1 87.06z"/></g><g class="DV FZ"><path d="M225.105 37.003h.015l-.015 50.056z"/></g><g class="DV Fa"><path d="M225.12 37.003h.015l-.015 50.056z"/></g><g class="DV Fb"><path d="M225.135 37.003h.015l-.015 50.056z"/></g><g class="DV Fc"><path d="M225.15 37.003h.015l-.015 50.056z"/></g><g class="DV Fd"><path d="M225.164 37.003h.015l-.015 50.056z"/></g><g class="DV Fe"><path d="M225.18 37.003h.015l-.015 50.056z"/></g><g class="DV Ff"><path d="M225.194 37.003h.015l-.015 50.056z"/></g><g class="DV Fg"><path d="M225.21 37.003h.015l-.015 50.056z"/></g><g class="DV Fh"><path d="M225.223 37.003h.015l-.015 50.056z"/></g><g class="DV Fi"><path d="M225.238 37.003h.015l-.015 50.056z"/></g><g class="DV Fj"><path d="M225.253 37.003h.015l-.015 50.056z"/></g><g class="DV Fk"><path d="M225.268 37.003h.015l-.015 50.056z"/></g><g class="DV Fl"><path d="M225.283 37.003h.015l-.015 50.056z"/></g><g class="DV Fm"><path d="M225.298 37.003h.015l-.015 50.056z"/></g><g class="DV Fn"><path d="M225.313 37.003h.015l-.015 50.056z"/></g><g class="DV Fo"><path d="M225.327 37.003h.015l-.015 50.056z"/></g><g class="DV Fp"><path d="M225.342 37.003h.015l-.015 50.056z"/></g><g class="DV Fq"><path d="M225.357 37.003h.015l-.015 50.056z"/></g><g class="DV Fr"><path d="M225.372 37.003h.015l-.015 50.056z"/></g><g class="DV Fs"><path d="M225.387 37.003h.015l-.015 50.056z"/></g><g class="DV Dg"><path d="M225.402 37.003h.015l-.015 50.056z"/></g><g class="DV DZ"><path d="M225.416 37.003h.015l-.015 50.056z"/></g><g class="DV DZ"><path d="M225.43 37.003h.015l-.015 50.056z"/></g><g class="DV Dg"><path d="M225.447 37.003h.015l-.015 50.056z"/></g><g class="DV Ft"><path d="M225.462 37.003h.015l-.015 50.056z"/></g><g class="DV Fu"><path d="M225.477 37.003h.015l-.015 50.056z"/></g><g class="DV Fv"><path d="M225.492 37.003h.015l-.015 50.056z"/></g><g class="DV Fw"><path d="M225.508 37.003h.015l-.015 50.056z"/></g><g class="DV Fx"><path d="M225.523 37.003h.015l-.015 50.056z"/></g><g class="DV Fy"><path d="M225.538 37.003h.015l-.015 50.056z"/></g><g class="DV Fz"><path d="M225.553 37.003h.015l-.015 50.056z"/></g><g class="DV GA"><path d="M225.57 37.003h.015l-.015 50.056z"/></g><g class="DV GB"><path d="M225.584 37.003h.015l-.015 50.056z"/></g><g class="DV GC"><path d="M225.6 37.003h.015L225.6 87.06z"/></g><g class="DV GD"><path d="M225.614 37.003h.015l-.015 50.056z"/></g><g class="DV GE"><path d="M225.63 37.003h.015l-.015 50.056z"/></g><g class="DV GF"><path d="M225.645 37.003h.015l-.015 50.056z"/></g><g class="DV GG"><path d="M225.66 37.003h.015l-.015 50.056z"/></g><g class="DV GH"><path d="M225.676 37.003h.015l-.015 50.056z"/></g><g class="DV GI"><path d="M225.69 37.003h.015l-.015 50.056z"/></g><g class="DV GJ"><path d="M225.706 37.003h.015l-.015 50.056z"/></g><g class="DV GK"><path d="M225.72 37.003h.015l-.015 50.056z"/></g><g class="DV GL"><path d="M225.737 37.003h.015l-.015 50.056z"/></g><g class="DV GM"><path d="M225.752 37.003h.015l-.015 50.056z"/></g><g class="DV GN"><path d="M225.767 37.003h.015l-.015 50.056z"/></g><g class="DV GO"><path d="M225.782 37.003h.015l-.015 50.056z"/></g><g class="DV GP"><path d="M225.798 37.003h.015l-.015 50.056z"/></g><g class="DV GQ"><path d="M225.813 37.003h.015l-.015 50.056z"/></g><g class="DV GR"><path d="M225.828 37.003h.015l-.015 50.056z"/></g><g class="DV GS"><path d="M225.844 37.003h.015l-.015 50.056z"/></g><g class="DV GT"><path d="M225.86 37.003h.015l-.015 50.056z"/></g><g class="DV GU"><path d="M225.874 37.003h.015l-.015 50.056z"/></g><g class="DV GV"><path d="M225.89 37.003h.015l-.015 50.056z"/></g><g class="DV GW"><path d="M225.904 37.003h.015l-.015 50.056z"/></g><g class="DV GX"><path d="M225.92 37.003h.015l-.015 50.056z"/></g><g class="DV GY"><path d="M225.935 37.003h.015l-.015 50.056z"/></g><g class="DV GZ"><path d="M225.95 37.003h.015l-.015 50.056z"/></g><g class="DV Ga"><path d="M225.966 37.003h.015l-.015 50.056z"/></g><g class="DV Gb"><path d="M225.98 37.003h.015l-.015 50.056z"/></g><g class="DV Gc"><path d="M225.996 37.003h.015l-.015 50.056z"/></g><g class="DV Gd"><path d="M226.01 37.003h.015l-.015 50.056z"/></g><g class="DV Ge"><path d="M226.027 37.003h.015l-.015 50.056z"/></g><g class="DV Gf"><path d="M226.042 37.003h.015l-.015 50.056z"/></g><g class="DV Gg"><path d="M226.057 37.003h.015l-.015 50.056z"/></g><g class="DV Gh"><path d="M226.072 37.003h.015l-.015 50.056z"/></g><g class="DV Gi"><path d="M226.088 37.003h.015l-.015 50.056z"/></g><g class="DV Dh"><path d="M226.103 37.003h.015l-.015 50.056z"/></g><g class="DV Dh"><use xlink:href="#G"/></g><g class="DV Gj"><path d="M226.143 37.003h.024l-.024 50.056z"/></g><g class="DV Gk"><path d="M226.167 37.003h.024l-.024 50.056z"/></g><g class="DV Gl"><path d="M226.19 37.003h.024l-.024 50.056z"/></g><g class="DV Gm"><path d="M226.215 37.003h.024l-.024 50.056z"/></g><g class="DV Gn"><path d="M226.24 37.003h.024l-.024 50.056z"/></g><g class="DV Go"><path d="M226.263 37.003h.024l-.024 50.056z"/></g><g class="DV Gp"><path d="M226.288 37.003h.024l-.024 50.056z"/></g><g class="DV Gq"><path d="M226.312 37.003h.024l-.024 50.056z"/></g><g class="DV Gr"><path d="M226.336 37.003h.024l-.024 50.056z"/></g><g class="DV Gs"><path d="M226.36 37.003h.024l-.024 50.056z"/></g><g class="DV Gt"><path d="M226.384 37.003h.024l-.024 50.056z"/></g><g class="DV Gu"><path d="M226.408 37.003h.024l-.024 50.056z"/></g><g class="DV Gv"><path d="M226.432 37.003h.024l-.024 50.056z"/></g><g class="DV Gw"><path d="M226.457 37.003h.024l-.024 50.056z"/></g><g class="DV Gx"><path d="M226.48 37.003h.024l-.024 50.056z"/></g><g class="DV Gy"><path d="M226.505 37.003h.024l-.024 50.056z"/></g><g class="DV Gz"><path d="M226.53 37.003h.024l-.024 50.056z"/></g><g class="DV HA"><path d="M226.553 37.003h.024l-.024 50.056z"/></g><g class="DV HB"><path d="M226.578 37.003h.024l-.024 50.056z"/></g><g class="DV HC"><path d="M226.602 37.003h.024l-.024 50.056z"/></g><g class="DV HD"><path d="M226.626 37.003h.024l-.024 50.056z"/></g><g class="DV HE"><path d="M226.65 37.003h.024l-.024 50.056z"/></g><g class="DV HF"><path d="M226.674 37.003h.024l-.024 50.056z"/></g><g class="DV HG"><path d="M226.698 37.003h.024l-.024 50.056z"/></g><g class="DV HH"><path d="M226.723 37.003h.024l-.024 50.056z"/></g><g class="DV HI"><path d="M226.747 37.003h.024l-.024 50.056z"/></g><g class="DV HJ"><path d="M226.77 37.003h.024l-.024 50.056z"/></g><g class="DV HK"><path d="M226.795 37.003h.024l-.024 50.056z"/></g><g class="DV Di"><path d="M226.82 37.003h.024l-.024 50.056z"/></g><g class="DV Di"><path d="M226.844 37.003h.024l-.024 50.056z"/></g><g class="DV HL"><path d="M226.868 37.003h.024l-.024 50.056z"/></g><g class="DV HM"><path d="M226.893 37.003h.024l-.024 50.056z"/></g><g class="DV HN"><path d="M226.917 37.003h.024l-.024 50.056z"/></g><g class="DV HO"><path d="M226.94 37.003h.024l-.024 50.056z"/></g><g class="DV HP"><path d="M226.966 37.003h.024l-.024 50.056z"/></g><g class="DV HQ"><path d="M227 37.003h.024L227 87.06z"/></g><g class="DV HR"><path d="M227.015 37.003h.024l-.024 50.056z"/></g><g class="DV HS"><path d="M227.04 37.003h.024l-.024 50.056z"/></g><g class="DV HT"><path d="M227.064 37.003h.024l-.024 50.056z"/></g><g class="DV HU"><path d="M227.09 37.003h.024l-.024 50.056z"/></g><g class="DV HV"><path d="M227.113 37.003h.024l-.024 50.056z"/></g><g class="DV HW"><path d="M227.138 37.003h.024l-.024 50.056z"/></g><g class="DV HX"><path d="M227.162 37.003h.024l-.024 50.056z"/></g><g class="DV HY"><path d="M227.187 37.003h.024l-.024 50.056z"/></g><g class="DV HZ"><path d="M227.21 37.003h.024l-.024 50.056z"/></g><g class="DV Ha"><path d="M227.236 37.003h.024l-.024 50.056z"/></g><g class="DV Hb"><path d="M227.26 37.003h.024l-.024 50.056z"/></g><g class="DV Hc"><path d="M227.285 37.003h.024l-.024 50.056z"/></g><g class="DV Hd"><path d="M227.31 37.003h.024l-.024 50.056z"/></g><g class="DV He"><path d="M227.334 37.003h.024l-.024 50.056z"/></g><g class="DV Hf"><path d="M227.358 37.003h.024l-.024 50.056z"/></g><g class="DV Hg"><path d="M227.383 37.003h.024l-.024 50.056z"/></g><g class="DV Hh"><path d="M227.407 37.003h.024l-.024 50.056z"/></g><g class="DV Hi"><path d="M227.432 37.003h.024l-.024 50.056z"/></g><g class="DV Hj"><path d="M227.456 37.003h.024l-.024 50.056z"/></g><g class="DV Hk"><path d="M227.48 37.003h.024l-.024 50.056z"/></g><g class="DV Hl"><path d="M227.505 37.003h.024l-.024 50.056z"/></g><g class="DV Hm"><path d="M227.53 37.003h.024l-.024 50.056z"/></g><g class="DV Hn"><path d="M227.554 37.003h.024l-.024 50.056z"/></g><g class="DV Ho"><path d="M227.58 37.003h.024l-.024 50.056z"/></g><g class="DV Dj"><path d="M227.603 37.003h.024l-.024 50.056z"/></g><g class="DV Dj"><path d="M227.628 37.003h.28V87.06h-.28z"/></g><defs><path id="P" d="M227.778 87.6c-.015 0-.03-.002-.045-.006-.094-.025-.15-.122-.126-.216 1.43-5.41 1.552-11.956.325-17.515-.242-1.094-.537-2.174-.823-3.218-.336-1.227-.684-2.496-.948-3.803-.407-2.016-.75-4.965-.074-7.558.025-.095.122-.15.215-.126s.15.12.126.216c-.66 2.528-.32 5.42.08 7.4.26 1.295.607 2.558.942 3.78.287 1.048.584 2.132.827 3.235 1.257 5.695 1.138 12.14-.328 17.68-.02.08-.092.132-.17.132z"/></defs><clipPath id="Q"><use xlink:href="#P"/></clipPath><g class="DW Dd"><path d="M225.41 55.144h.296V87.6h-.296z"/></g><g class="DW Dd"><use xlink:href="#H"/></g><g class="DW Dl"><path d="M225.723 55.144h.016l-.016 32.466z"/></g><g class="DW Dm"><path d="M225.74 55.144h.016L225.74 87.6z"/></g><g class="DW Dn"><path d="M225.756 55.144h.016l-.016 32.466z"/></g><g class="DW Do"><path d="M225.773 55.144h.016l-.016 32.466z"/></g><g class="DW Dp"><path d="M225.8 55.144h.016L225.8 87.6z"/></g><g class="DW Dq"><path d="M225.806 55.144h.016l-.016 32.466z"/></g><g class="DW Dr"><path d="M225.822 55.144h.016l-.016 32.466z"/></g><g class="DW Ds"><path d="M225.84 55.144h.016L225.84 87.6z"/></g><g class="DW Dt"><path d="M225.856 55.144h.016l-.016 32.466z"/></g><g class="DW Du"><path d="M225.872 55.144h.016l-.016 32.466z"/></g><g class="DW Dv"><path d="M225.89 55.144h.016L225.89 87.6z"/></g><g class="DW Dw"><path d="M225.905 55.144h.016l-.016 32.466z"/></g><g class="DW Dx"><path d="M225.922 55.144h.016l-.016 32.466z"/></g><g class="DW Dy"><path d="M225.938 55.144h.016l-.016 32.466z"/></g><g class="DW Dz"><path d="M225.955 55.144h.016l-.016 32.466z"/></g><g class="DW EA"><path d="M225.97 55.144h.016L225.97 87.6z"/></g><g class="DW EB"><path d="M225.988 55.144h.016l-.016 32.466z"/></g><g class="DW EC"><path d="M226.004 55.144h.016l-.016 32.466z"/></g><g class="DW ED"><path d="M226.02 55.144h.016L226.02 87.6z"/></g><g class="DW EE"><path d="M226.037 55.144h.016l-.016 32.466z"/></g><g class="DW EF"><path d="M226.054 55.144h.016l-.016 32.466z"/></g><g class="DW EG"><path d="M226.07 55.144h.016L226.07 87.6z"/></g><g class="DW EH"><path d="M226.087 55.144h.016l-.016 32.466z"/></g><g class="DW EI"><path d="M226.104 55.144h.016l-.016 32.466z"/></g><g class="DW EJ"><path d="M226.12 55.144h.016L226.12 87.6z"/></g><g class="DW EK"><path d="M226.137 55.144h.016l-.016 32.466z"/></g><g class="DW EL"><path d="M226.153 55.144h.016l-.016 32.466z"/></g><g class="DW EM"><path d="M226.17 55.144h.016L226.17 87.6z"/></g><g class="DW EN"><path d="M226.186 55.144h.016l-.016 32.466z"/></g><g class="DW EO"><path d="M226.203 55.144h.016l-.016 32.466z"/></g><g class="DW EP"><path d="M226.22 55.144h.016L226.22 87.6z"/></g><g class="DW EQ"><path d="M226.236 55.144h.016l-.016 32.466z"/></g><g class="DW ER"><path d="M226.252 55.144h.016l-.016 32.466z"/></g><g class="DW ES"><path d="M226.27 55.144h.016L226.27 87.6z"/></g><g class="DW ET"><path d="M226.285 55.144h.016l-.016 32.466z"/></g><g class="DW EU"><path d="M226.302 55.144h.016l-.016 32.466z"/></g><g class="DW EV"><path d="M226.318 55.144h.016l-.016 32.466z"/></g><g class="DW EW"><path d="M226.335 55.144h.016l-.016 32.466z"/></g><g class="DW EX"><path d="M226.35 55.144h.016L226.35 87.6z"/></g><g class="DW EY"><path d="M226.368 55.144h.016l-.016 32.466z"/></g><g class="DW De"><path d="M226.384 55.144h.016l-.016 32.466z"/></g><g class="DW De"><path d="M226.4 55.144h.016L226.4 87.6z"/></g><g class="DW EZ"><path d="M226.417 55.144h.016l-.016 32.466z"/></g><g class="DW Ea"><path d="M226.434 55.144h.016l-.016 32.466z"/></g><g class="DW Eb"><path d="M226.45 55.144h.016L226.45 87.6z"/></g><g class="DW Ec"><path d="M226.467 55.144h.016l-.016 32.466z"/></g><g class="DW Ed"><path d="M226.483 55.144h.016l-.016 32.466z"/></g><g class="DW Ee"><path d="M226.5 55.144h.016L226.5 87.6z"/></g><g class="DW Ef"><path d="M226.516 55.144h.016l-.016 32.466z"/></g><g class="DW Eg"><path d="M226.532 55.144h.016l-.016 32.466z"/></g><g class="DW Eh"><path d="M226.55 55.144h.016L226.55 87.6z"/></g><g class="DW Ei"><path d="M226.565 55.144h.016l-.016 32.466z"/></g><g class="DW Ej"><path d="M226.582 55.144h.016l-.016 32.466z"/></g><g class="DW Ek"><path d="M226.598 55.144h.016l-.016 32.466z"/></g><g class="DW El"><path d="M226.615 55.144h.016l-.016 32.466z"/></g><g class="DW Em"><path d="M226.63 55.144h.016L226.63 87.6z"/></g><g class="DW En"><path d="M226.647 55.144h.016l-.016 32.466z"/></g><g class="DW Eo"><path d="M226.664 55.144h.016l-.016 32.466z"/></g><g class="DW Ep"><path d="M226.68 55.144h.016L226.68 87.6z"/></g><g class="DW Eq"><path d="M226.697 55.144h.016l-.016 32.466z"/></g><g class="DW Er"><path d="M226.713 55.144h.016l-.016 32.466z"/></g><g class="DW Es"><path d="M226.73 55.144h.016L226.73 87.6z"/></g><g class="DW Et"><path d="M226.746 55.144h.016l-.016 32.466z"/></g><g class="DW Eu"><path d="M226.762 55.144h.016l-.016 32.466z"/></g><g class="DW Ev"><path d="M226.78 55.144h.016L226.78 87.6z"/></g><g class="DW Ew"><path d="M226.795 55.144h.016l-.016 32.466z"/></g><g class="DW Ex"><path d="M226.812 55.144h.016l-.016 32.466z"/></g><g class="DW Ey"><path d="M226.828 55.144h.016l-.016 32.466z"/></g><g class="DW Ez"><path d="M226.844 55.144h.016l-.016 32.466z"/></g><g class="DW FA"><path d="M226.86 55.144h.016L226.86 87.6z"/></g><g class="DW FB"><path d="M226.877 55.144h.016l-.016 32.466z"/></g><g class="DW FC"><path d="M226.894 55.144h.016l-.016 32.466z"/></g><g class="DW FD"><path d="M226.9 55.144h.016L226.9 87.6z"/></g><g class="DW Df"><path d="M226.927 55.144h.016l-.016 32.466z"/></g><g class="DW Df"><use xlink:href="#I"/></g><g class="DW FE"><path d="M226.954 55.144h.01l-.01 32.466z"/></g><g class="DW FF"><path d="M226.966 55.144h.01l-.01 32.466z"/></g><g class="DW FG"><path d="M226.977 55.144h.01l-.01 32.466z"/></g><g class="DW FH"><path d="M226.99 55.144h.01l-.01 32.466z"/></g><g class="DW FI"><path d="M227 55.144h.01L227 87.6z"/></g><g class="DW FJ"><path d="M227.012 55.144h.01l-.01 32.466z"/></g><g class="DW FK"><path d="M227.023 55.144h.01l-.01 32.466z"/></g><g class="DW FL"><path d="M227.035 55.144h.01l-.01 32.466z"/></g><g class="DW FM"><path d="M227.046 55.144h.01l-.01 32.466z"/></g><g class="DW FN"><path d="M227.057 55.144h.01l-.01 32.466z"/></g><g class="DW FO"><path d="M227.07 55.144h.01l-.01 32.466z"/></g><g class="DW FP"><path d="M227.08 55.144h.01l-.01 32.466z"/></g><g class="DW FQ"><path d="M227.092 55.144h.01l-.01 32.466z"/></g><g class="DW FR"><path d="M227.103 55.144h.01l-.01 32.466z"/></g><g class="DW FS"><path d="M227.115 55.144h.01l-.01 32.466z"/></g><g class="DW FT"><path d="M227.126 55.144h.01l-.01 32.466z"/></g><g class="DW FU"><path d="M227.137 55.144h.01l-.01 32.466z"/></g><g class="DW FV"><path d="M227.15 55.144h.01l-.01 32.466z"/></g><g class="DW FW"><path d="M227.16 55.144h.01l-.01 32.466z"/></g><g class="DW FX"><path d="M227.172 55.144h.01l-.01 32.466z"/></g><g class="DW FY"><path d="M227.183 55.144h.01l-.01 32.466z"/></g><g class="DW FZ"><path d="M227.195 55.144h.01l-.01 32.466z"/></g><g class="DW Fa"><path d="M227.206 55.144h.01l-.01 32.466z"/></g><g class="DW Fb"><path d="M227.217 55.144h.01l-.01 32.466z"/></g><g class="DW Fc"><path d="M227.23 55.144h.01l-.01 32.466z"/></g><g class="DW Fd"><path d="M227.24 55.144h.01l-.01 32.466z"/></g><g class="DW Fe"><path d="M227.252 55.144h.01l-.01 32.466z"/></g><g class="DW Ff"><path d="M227.263 55.144h.01l-.01 32.466z"/></g><g class="DW Fg"><path d="M227.275 55.144h.01l-.01 32.466z"/></g><g class="DW Fh"><path d="M227.286 55.144h.01l-.01 32.466z"/></g><g class="DW Fi"><path d="M227.298 55.144h.01l-.01 32.466z"/></g><g class="DW Fj"><path d="M227.31 55.144h.01l-.01 32.466z"/></g><g class="DW Fk"><path d="M227.32 55.144h.01l-.01 32.466z"/></g><g class="DW Fl"><path d="M227.332 55.144h.01l-.01 32.466z"/></g><g class="DW Fm"><path d="M227.343 55.144h.01l-.01 32.466z"/></g><g class="DW Fn"><path d="M227.355 55.144h.01l-.01 32.466z"/></g><g class="DW Fo"><path d="M227.366 55.144h.01l-.01 32.466z"/></g><g class="DW Fp"><path d="M227.378 55.144h.01l-.01 32.466z"/></g><g class="DW Fq"><path d="M227.39 55.144h.01l-.01 32.466z"/></g><g class="DW Fr"><path d="M227.4 55.144h.01L227.4 87.6z"/></g><g class="DW Fs"><path d="M227.412 55.144h.01l-.01 32.466z"/></g><g class="DW Dg"><path d="M227.423 55.144h.01l-.01 32.466z"/></g><g class="DW DZ"><path d="M227.435 55.144h.01l-.01 32.466z"/></g><g class="DW DZ"><use xlink:href="#J"/></g><g class="DW Dg"><path d="M227.458 55.144h.012l-.012 32.466z"/></g><g class="DW Ft"><path d="M227.47 55.144h.012L227.47 87.6z"/></g><g class="DW Fu"><path d="M227.482 55.144h.012l-.012 32.466z"/></g><g class="DW Fv"><path d="M227.493 55.144h.012l-.012 32.466z"/></g><g class="DW Fw"><path d="M227.505 55.144h.012l-.012 32.466z"/></g><g class="DW Fx"><path d="M227.517 55.144h.012l-.012 32.466z"/></g><g class="DW Fy"><path d="M227.53 55.144h.012L227.53 87.6z"/></g><g class="DW Fz"><path d="M227.54 55.144h.012L227.54 87.6z"/></g><g class="DW GA"><path d="M227.552 55.144h.012l-.012 32.466z"/></g><g class="DW GB"><path d="M227.564 55.144h.012l-.012 32.466z"/></g><g class="DW GC"><path d="M227.576 55.144h.012l-.012 32.466z"/></g><g class="DW GD"><path d="M227.587 55.144h.012l-.012 32.466z"/></g><g class="DW GE"><path d="M227.6 55.144h.012L227.6 87.6z"/></g><g class="DW GF"><path d="M227.61 55.144h.012L227.61 87.6z"/></g><g class="DW GG"><path d="M227.623 55.144h.012l-.012 32.466z"/></g><g class="DW GH"><path d="M227.635 55.144h.012l-.012 32.466z"/></g><g class="DW GI"><path d="M227.646 55.144h.012l-.012 32.466z"/></g><g class="DW GJ"><path d="M227.658 55.144h.012l-.012 32.466z"/></g><g class="DW GK"><path d="M227.67 55.144h.012L227.67 87.6z"/></g><g class="DW GL"><path d="M227.682 55.144h.012l-.012 32.466z"/></g><g class="DW GM"><path d="M227.693 55.144h.012l-.012 32.466z"/></g><g class="DW GN"><path d="M227.705 55.144h.012l-.012 32.466z"/></g><g class="DW GO"><path d="M227.717 55.144h.012l-.012 32.466z"/></g><g class="DW GP"><path d="M227.73 55.144h.012L227.73 87.6z"/></g><g class="DW GQ"><path d="M227.74 55.144h.012L227.74 87.6z"/></g><g class="DW GR"><path d="M227.752 55.144h.012l-.012 32.466z"/></g><g class="DW GS"><path d="M227.764 55.144h.012l-.012 32.466z"/></g><g class="DW GT"><path d="M227.776 55.144h.012l-.012 32.466z"/></g><g class="DW GU"><path d="M227.788 55.144h.012l-.012 32.466z"/></g><g class="DW GV"><path d="M227.8 55.144h.012L227.8 87.6z"/></g><g class="DW GW"><path d="M227.81 55.144h.012L227.81 87.6z"/></g><g class="DW GX"><path d="M227.823 55.144h.012l-.012 32.466z"/></g><g class="DW GY"><path d="M227.835 55.144h.012l-.012 32.466z"/></g><g class="DW GZ"><path d="M227.846 55.144h.012l-.012 32.466z"/></g><g class="DW Ga"><path d="M227.858 55.144h.012l-.012 32.466z"/></g><g class="DW Gb"><path d="M227.87 55.144h.012L227.87 87.6z"/></g><g class="DW Gc"><path d="M227.882 55.144h.012l-.012 32.466z"/></g><g class="DW Gd"><path d="M227.893 55.144h.012l-.012 32.466z"/></g><g class="DW Ge"><path d="M227.905 55.144h.012l-.012 32.466z"/></g><g class="DW Gf"><path d="M227.917 55.144h.012l-.012 32.466z"/></g><g class="DW Gg"><path d="M227.93 55.144h.012L227.93 87.6z"/></g><g class="DW Gh"><path d="M227.94 55.144h.012L227.94 87.6z"/></g><g class="DW Gi"><path d="M227.952 55.144h.012l-.012 32.466z"/></g><g class="DW Dh"><path d="M227.964 55.144h.012l-.012 32.466z"/></g><g class="DW Dh"><use xlink:href="#K"/></g><g class="DW Gj"><path d="M227.994 55.144h.02l-.02 32.466z"/></g><g class="DW Gk"><path d="M228.013 55.144h.02l-.02 32.466z"/></g><g class="DW Gl"><path d="M228.032 55.144h.02l-.02 32.466z"/></g><g class="DW Gm"><path d="M228.05 55.144h.02l-.02 32.466z"/></g><g class="DW Gn"><path d="M228.07 55.144h.02l-.02 32.466z"/></g><g class="DW Go"><path d="M228.088 55.144h.02l-.02 32.466z"/></g><g class="DW Gp"><path d="M228.106 55.144h.02l-.02 32.466z"/></g><g class="DW Gq"><path d="M228.125 55.144h.02l-.02 32.466z"/></g><g class="DW Gr"><path d="M228.143 55.144h.02l-.02 32.466z"/></g><g class="DW Gs"><path d="M228.162 55.144h.02l-.02 32.466z"/></g><g class="DW Gt"><path d="M228.18 55.144h.02l-.02 32.466z"/></g><g class="DW Gu"><path d="M228.2 55.144h.02L228.2 87.6z"/></g><g class="DW Gv"><path d="M228.218 55.144h.02l-.02 32.466z"/></g><g class="DW Gw"><path d="M228.237 55.144h.02l-.02 32.466z"/></g><g class="DW Gx"><path d="M228.255 55.144h.02l-.02 32.466z"/></g><g class="DW Gy"><path d="M228.274 55.144h.02l-.02 32.466z"/></g><g class="DW Gz"><path d="M228.292 55.144h.02l-.02 32.466z"/></g><g class="DW HA"><path d="M228.31 55.144h.02l-.02 32.466z"/></g><g class="DW HB"><path d="M228.33 55.144h.02l-.02 32.466z"/></g><g class="DW HC"><path d="M228.348 55.144h.02l-.02 32.466z"/></g><g class="DW HD"><path d="M228.367 55.144h.02l-.02 32.466z"/></g><g class="DW HE"><path d="M228.386 55.144h.02l-.02 32.466z"/></g><g class="DW HF"><path d="M228.404 55.144h.02l-.02 32.466z"/></g><g class="DW HG"><path d="M228.423 55.144h.02l-.02 32.466z"/></g><g class="DW HH"><path d="M228.442 55.144h.02l-.02 32.466z"/></g><g class="DW HI"><path d="M228.46 55.144h.02l-.02 32.466z"/></g><g class="DW HJ"><path d="M228.48 55.144h.02l-.02 32.466z"/></g><g class="DW HK"><path d="M228.497 55.144h.02l-.02 32.466z"/></g><g class="DW Di"><path d="M228.516 55.144h.02l-.02 32.466z"/></g><g class="DW Di"><path d="M228.535 55.144h.02l-.02 32.466z"/></g><g class="DW HL"><path d="M228.554 55.144h.02l-.02 32.466z"/></g><g class="DW HM"><path d="M228.572 55.144h.02l-.02 32.466z"/></g><g class="DW HN"><path d="M228.59 55.144h.02l-.02 32.466z"/></g><g class="DW HO"><path d="M228.6 55.144h.02L228.6 87.6z"/></g><g class="DW HP"><path d="M228.63 55.144h.02l-.02 32.466z"/></g><g class="DW HQ"><path d="M228.648 55.144h.02l-.02 32.466z"/></g><g class="DW HR"><path d="M228.667 55.144h.02l-.02 32.466z"/></g><g class="DW HS"><path d="M228.686 55.144h.02l-.02 32.466z"/></g><g class="DW HT"><path d="M228.705 55.144h.02l-.02 32.466z"/></g><g class="DW HU"><path d="M228.724 55.144h.02l-.02 32.466z"/></g><g class="DW HV"><path d="M228.742 55.144h.02l-.02 32.466z"/></g><g class="DW HW"><path d="M228.76 55.144h.02l-.02 32.466z"/></g><g class="DW HX"><path d="M228.78 55.144h.02l-.02 32.466z"/></g><g class="DW HY"><path d="M228.8 55.144h.02L228.8 87.6z"/></g><g class="DW HZ"><path d="M228.818 55.144h.02l-.02 32.466z"/></g><g class="DW Ha"><path d="M228.837 55.144h.02l-.02 32.466z"/></g><g class="DW Hb"><path d="M228.856 55.144h.02l-.02 32.466z"/></g><g class="DW Hc"><path d="M228.875 55.144h.02l-.02 32.466z"/></g><g class="DW Hd"><path d="M228.894 55.144h.02l-.02 32.466z"/></g><g class="DW He"><path d="M228.913 55.144h.02l-.02 32.466z"/></g><g class="DW Hf"><path d="M228.93 55.144h.02l-.02 32.466z"/></g><g class="DW Hg"><path d="M228.95 55.144h.02l-.02 32.466z"/></g><g class="DW Hh"><path d="M228.97 55.144h.02l-.02 32.466z"/></g><g class="DW Hi"><path d="M228.988 55.144h.02l-.02 32.466z"/></g><g class="DW Hj"><path d="M229.007 55.144h.02l-.02 32.466z"/></g><g class="DW Hk"><path d="M229.026 55.144h.02l-.02 32.466z"/></g><g class="DW Hl"><path d="M229.045 55.144h.02l-.02 32.466z"/></g><g class="DW Hm"><path d="M229.064 55.144h.02l-.02 32.466z"/></g><g class="DW Hn"><path d="M229.083 55.144h.02l-.02 32.466z"/></g><g class="DW Ho"><path d="M229.102 55.144h.02l-.02 32.466z"/></g><g class="DW Dj"><path d="M229.12 55.144h.02l-.02 32.466z"/></g><g class="DW Dj"><path d="M229.14 55.144h.395V87.6h-.395z"/></g><defs><path id="R" d="M229.134 87.798c-.013 0-.026-.001-.04-.004-.095-.02-.155-.116-.134-.21.605-2.717.967-5.57 1.075-8.478.004-.098.087-.174.183-.17s.174.086.17.183a47.45 47.45 0 0 1-1.083 8.541c-.018.082-.09.138-.172.138z"/></defs><clipPath id="S"><use xlink:href="#R"/></clipPath><g class="DX Dd"><path d="M228.94 78.93h.018v8.867h-.018z"/></g><g class="DX Dd"><use xlink:href="#L"/></g><g class="DX Dl"><path d="M228.965 78.93h.007v8.867h-.007z"/></g><g class="DX Dm"><path d="M228.972 78.93h.007v8.867h-.007z"/></g><g class="DX Dn"><path d="M228.98 78.93h.007v8.867h-.007z"/></g><g class="DX Do"><path d="M228.986 78.93h.007v8.867h-.007z"/></g><g class="DX Dp"><path d="M228.993 78.93H229v8.867h-.007z"/></g><g class="DX Dq"><path d="M229 78.93h.007v8.867H229z"/></g><g class="DX Dr"><path d="M229.006 78.93h.007v8.867h-.007z"/></g><g class="DX Ds"><path d="M229.013 78.93h.007v8.867h-.007z"/></g><g class="DX Dt"><path d="M229.02 78.93h.007v8.867h-.007z"/></g><g class="DX Du"><path d="M229.027 78.93h.007v8.867h-.007z"/></g><g class="DX Dv"><path d="M229.034 78.93h.007v8.867h-.007z"/></g><g class="DX Dw"><path d="M229.04 78.93h.007v8.867h-.007z"/></g><g class="DX Dx"><path d="M229.048 78.93h.007v8.867h-.007z"/></g><g class="DX Dy"><path d="M229.055 78.93h.007v8.867h-.007z"/></g><g class="DX Dz"><path d="M229.06 78.93h.007v8.867h-.007z"/></g><g class="DX EA"><path d="M229.068 78.93h.007v8.867h-.007z"/></g><g class="DX EB"><path d="M229.075 78.93h.007v8.867h-.007z"/></g><g class="DX EC"><path d="M229.082 78.93h.007v8.867h-.007z"/></g><g class="DX ED"><path d="M229.09 78.93h.007v8.867h-.007z"/></g><g class="DX EE"><path d="M229.096 78.93h.007v8.867h-.007z"/></g><g class="DX EF"><path d="M229.103 78.93h.007v8.867h-.007z"/></g><g class="DX EG"><path d="M229.1 78.93h.007v8.867h-.007z"/></g><g class="DX EH"><path d="M229.117 78.93h.007v8.867h-.007z"/></g><g class="DX EI"><path d="M229.124 78.93h.007v8.867h-.007z"/></g><g class="DX EJ"><path d="M229.13 78.93h.007v8.867h-.007z"/></g><g class="DX EK"><path d="M229.137 78.93h.007v8.867h-.007z"/></g><g class="DX EL"><path d="M229.144 78.93h.007v8.867h-.007z"/></g><g class="DX EM"><path d="M229.15 78.93h.007v8.867h-.007z"/></g><g class="DX EN"><path d="M229.158 78.93h.007v8.867h-.007z"/></g><g class="DX EO"><path d="M229.165 78.93h.007v8.867h-.007z"/></g><g class="DX EP"><path d="M229.172 78.93h.007v8.867h-.007z"/></g><g class="DX EQ"><path d="M229.18 78.93h.007v8.867h-.007z"/></g><g class="DX ER"><path d="M229.186 78.93h.007v8.867h-.007z"/></g><g class="DX ES"><path d="M229.192 78.93h.007v8.867h-.007z"/></g><g class="DX ET"><path d="M229.2 78.93h.007v8.867h-.007z"/></g><g class="DX EU"><path d="M229.206 78.93h.007v8.867h-.007z"/></g><g class="DX EV"><path d="M229.213 78.93h.007v8.867h-.007z"/></g><g class="DX EW"><path d="M229.22 78.93h.007v8.867h-.007z"/></g><g class="DX EX"><path d="M229.227 78.93h.007v8.867h-.007z"/></g><g class="DX EY"><path d="M229.234 78.93h.007v8.867h-.007z"/></g><g class="DX De"><path d="M229.24 78.93h.007v8.867h-.007z"/></g><g class="DX De"><path d="M229.247 78.93h.007v8.867h-.007z"/></g><g class="DX EZ"><path d="M229.254 78.93h.007v8.867h-.007z"/></g><g class="DX Ea"><path d="M229.26 78.93h.007v8.867h-.007z"/></g><g class="DX Eb"><path d="M229.268 78.93h.007v8.867h-.007z"/></g><g class="DX Ec"><path d="M229.275 78.93h.007v8.867h-.007z"/></g><g class="DX Ed"><path d="M229.282 78.93h.007v8.867h-.007z"/></g><g class="DX Ee"><path d="M229.29 78.93h.007v8.867h-.007z"/></g><g class="DX Ef"><path d="M229.295 78.93h.007v8.867h-.007z"/></g><g class="DX Eg"><path d="M229.302 78.93h.007v8.867h-.007z"/></g><g class="DX Eh"><path d="M229.31 78.93h.007v8.867h-.007z"/></g><g class="DX Ei"><path d="M229.316 78.93h.007v8.867h-.007z"/></g><g class="DX Ej"><path d="M229.323 78.93h.007v8.867h-.007z"/></g><g class="DX Ek"><path d="M229.33 78.93h.007v8.867h-.007z"/></g><g class="DX El"><path d="M229.337 78.93h.007v8.867h-.007z"/></g><g class="DX Em"><path d="M229.343 78.93h.007v8.867h-.007z"/></g><g class="DX En"><path d="M229.35 78.93h.007v8.867h-.007z"/></g><g class="DX Eo"><path d="M229.357 78.93h.007v8.867h-.007z"/></g><g class="DX Ep"><path d="M229.364 78.93h.007v8.867h-.007z"/></g><g class="DX Eq"><path d="M229.37 78.93h.007v8.867h-.007z"/></g><g class="DX Er"><path d="M229.378 78.93h.007v8.867h-.007z"/></g><g class="DX Es"><path d="M229.384 78.93h.007v8.867h-.007z"/></g><g class="DX Et"><path d="M229.39 78.93h.007v8.867h-.007z"/></g><g class="DX Eu"><path d="M229.398 78.93h.007v8.867h-.007z"/></g><g class="DX Ev"><path d="M229.405 78.93h.007v8.867h-.007z"/></g><g class="DX Ew"><path d="M229.412 78.93h.007v8.867h-.007z"/></g><g class="DX Ex"><path d="M229.42 78.93h.007v8.867h-.007z"/></g><g class="DX Ey"><path d="M229.426 78.93h.007v8.867h-.007z"/></g><g class="DX Ez"><path d="M229.432 78.93h.007v8.867h-.007z"/></g><g class="DX FA"><path d="M229.44 78.93h.007v8.867h-.007z"/></g><g class="DX FB"><path d="M229.446 78.93h.007v8.867h-.007z"/></g><g class="DX FC"><path d="M229.453 78.93h.007v8.867h-.007z"/></g><g class="DX FD"><path d="M229.46 78.93h.007v8.867h-.007z"/></g><g class="DX Df"><path d="M229.467 78.93h.007v8.867h-.007z"/></g><g class="DX Df"><use xlink:href="#M"/></g><g class="DX FE"><path d="M229.478 78.93h.005l-.005 8.867z"/></g><g class="DX FF"><path d="M229.483 78.93h.005l-.005 8.867z"/></g><g class="DX FG"><path d="M229.488 78.93h.005l-.005 8.867z"/></g><g class="DX FH"><path d="M229.492 78.93h.005l-.005 8.867z"/></g><g class="DX FI"><path d="M229.497 78.93h.005l-.005 8.867z"/></g><g class="DX FJ"><path d="M229.502 78.93h.005l-.005 8.867z"/></g><g class="DX FK"><path d="M229.507 78.93h.005l-.005 8.867z"/></g><g class="DX FL"><path d="M229.512 78.93h.005l-.005 8.867z"/></g><g class="DX FM"><path d="M229.516 78.93h.005l-.005 8.867z"/></g><g class="DX FN"><path d="M229.52 78.93h.005l-.005 8.867z"/></g><g class="DX FO"><path d="M229.526 78.93h.005l-.005 8.867z"/></g><g class="DX FP"><path d="M229.53 78.93h.005l-.005 8.867z"/></g><g class="DX FQ"><path d="M229.535 78.93h.005l-.005 8.867z"/></g><g class="DX FR"><path d="M229.54 78.93h.005l-.005 8.867z"/></g><g class="DX FS"><path d="M229.545 78.93h.005l-.005 8.867z"/></g><g class="DX FT"><path d="M229.55 78.93h.005l-.005 8.867z"/></g><g class="DX FU"><path d="M229.554 78.93h.005l-.005 8.867z"/></g><g class="DX FV"><path d="M229.56 78.93h.005l-.005 8.867z"/></g><g class="DX FW"><path d="M229.564 78.93h.005l-.005 8.867z"/></g><g class="DX FX"><path d="M229.57 78.93h.005l-.005 8.867z"/></g><g class="DX FY"><path d="M229.574 78.93h.005l-.005 8.867z"/></g><g class="DX FZ"><path d="M229.578 78.93h.005l-.005 8.867z"/></g><g class="DX Fa"><path d="M229.583 78.93h.005l-.005 8.867z"/></g><g class="DX Fb"><path d="M229.588 78.93h.005l-.005 8.867z"/></g><g class="DX Fc"><path d="M229.592 78.93h.005l-.005 8.867z"/></g><g class="DX Fd"><path d="M229.597 78.93h.005l-.005 8.867z"/></g><g class="DX Fe"><path d="M229.602 78.93h.005l-.005 8.867z"/></g><g class="DX Ff"><path d="M229.607 78.93h.005l-.005 8.867z"/></g><g class="DX Fg"><path d="M229.612 78.93h.005l-.005 8.867z"/></g><g class="DX Fh"><path d="M229.616 78.93h.005l-.005 8.867z"/></g><g class="DX Fi"><path d="M229.62 78.93h.005l-.005 8.867z"/></g><g class="DX Fj"><path d="M229.626 78.93h.005l-.005 8.867z"/></g><g class="DX Fk"><path d="M229.63 78.93h.005l-.005 8.867z"/></g><g class="DX Fl"><path d="M229.635 78.93h.005l-.005 8.867z"/></g><g class="DX Fm"><path d="M229.64 78.93h.005l-.005 8.867z"/></g><g class="DX Fn"><path d="M229.645 78.93h.005l-.005 8.867z"/></g><g class="DX Fo"><path d="M229.65 78.93h.005l-.005 8.867z"/></g><g class="DX Fp"><path d="M229.654 78.93h.005l-.005 8.867z"/></g><g class="DX Fq"><path d="M229.66 78.93h.005l-.005 8.867z"/></g><g class="DX Fr"><path d="M229.664 78.93h.005l-.005 8.867z"/></g><g class="DX Fs"><path d="M229.67 78.93h.005l-.005 8.867z"/></g><g class="DX Dg"><path d="M229.673 78.93h.005l-.005 8.867z"/></g><g class="DX DZ"><path d="M229.678 78.93h.005l-.005 8.867z"/></g><g class="DX DZ"><path d="M229.683 78.93h.005l-.005 8.867z"/></g><g class="DX Dg"><path d="M229.688 78.93h.005l-.005 8.867z"/></g><g class="DX Ft"><path d="M229.693 78.93h.005l-.005 8.867z"/></g><g class="DX Fu"><path d="M229.698 78.93h.005l-.005 8.867z"/></g><g class="DX Fv"><path d="M229.703 78.93h.005l-.005 8.867z"/></g><g class="DX Fw"><path d="M229.708 78.93h.005l-.005 8.867z"/></g><g class="DX Fx"><path d="M229.712 78.93h.005l-.005 8.867z"/></g><g class="DX Fy"><path d="M229.717 78.93h.005l-.005 8.867z"/></g><g class="DX Fz"><path d="M229.722 78.93h.005l-.005 8.867z"/></g><g class="DX GA"><path d="M229.727 78.93h.005l-.005 8.867z"/></g><g class="DX GB"><path d="M229.732 78.93h.005l-.005 8.867z"/></g><g class="DX GC"><path d="M229.737 78.93h.005l-.005 8.867z"/></g><g class="DX GD"><path d="M229.742 78.93h.005l-.005 8.867z"/></g><g class="DX GE"><path d="M229.747 78.93h.005l-.005 8.867z"/></g><g class="DX GF"><path d="M229.752 78.93h.005l-.005 8.867z"/></g><g class="DX GG"><path d="M229.757 78.93h.005l-.005 8.867z"/></g><g class="DX GH"><path d="M229.762 78.93h.005l-.005 8.867z"/></g><g class="DX GI"><path d="M229.766 78.93h.005l-.005 8.867z"/></g><g class="DX GJ"><path d="M229.77 78.93h.005l-.005 8.867z"/></g><g class="DX GK"><path d="M229.776 78.93h.005l-.005 8.867z"/></g><g class="DX GL"><path d="M229.78 78.93h.005l-.005 8.867z"/></g><g class="DX GM"><path d="M229.786 78.93h.005l-.005 8.867z"/></g><g class="DX GN"><path d="M229.79 78.93h.005l-.005 8.867z"/></g><g class="DX GO"><path d="M229.796 78.93h.005l-.005 8.867z"/></g><g class="DX GP"><path d="M229.8 78.93h.005l-.005 8.867z"/></g><g class="DX GQ"><path d="M229.806 78.93h.005l-.005 8.867z"/></g><g class="DX GR"><path d="M229.81 78.93h.005l-.005 8.867z"/></g><g class="DX GS"><path d="M229.816 78.93h.005l-.005 8.867z"/></g><g class="DX GT"><path d="M229.82 78.93h.005l-.005 8.867z"/></g><g class="DX GU"><path d="M229.825 78.93h.005l-.005 8.867z"/></g><g class="DX GV"><path d="M229.83 78.93h.005l-.005 8.867z"/></g><g class="DX GW"><path d="M229.835 78.93h.005l-.005 8.867z"/></g><g class="DX GX"><path d="M229.84 78.93h.005l-.005 8.867z"/></g><g class="DX GY"><path d="M229.845 78.93h.005l-.005 8.867z"/></g><g class="DX GZ"><path d="M229.85 78.93h.005l-.005 8.867z"/></g><g class="DX Ga"><path d="M229.855 78.93h.005l-.005 8.867z"/></g><g class="DX Gb"><path d="M229.86 78.93h.005l-.005 8.867z"/></g><g class="DX Gc"><path d="M229.865 78.93h.005l-.005 8.867z"/></g><g class="DX Gd"><path d="M229.87 78.93h.005l-.005 8.867z"/></g><g class="DX Ge"><path d="M229.874 78.93h.005l-.005 8.867z"/></g><g class="DX Gf"><path d="M229.88 78.93h.005l-.005 8.867z"/></g><g class="DX Gg"><path d="M229.884 78.93h.005l-.005 8.867z"/></g><g class="DX Gh"><path d="M229.89 78.93h.005l-.005 8.867z"/></g><g class="DX Gi"><path d="M229.894 78.93h.005l-.005 8.867z"/></g><g class="DX Dh"><path d="M229.9 78.93h.005l-.005 8.867z"/></g><g class="DX Dh"><use xlink:href="#N"/></g><g class="DX Gj"><path d="M229.91 78.93h.008v8.867h-.008z"/></g><g class="DX Gk"><path d="M229.92 78.93h.008v8.867h-.008z"/></g><g class="DX Gl"><path d="M229.927 78.93h.008v8.867h-.008z"/></g><g class="DX Gm"><path d="M229.935 78.93h.008v8.867h-.008z"/></g><g class="DX Gn"><path d="M229.943 78.93h.008v8.867h-.008z"/></g><g class="DX Go"><path d="M229.95 78.93h.008v8.867h-.008z"/></g><g class="DX Gp"><path d="M229.958 78.93h.008v8.867h-.008z"/></g><g class="DX Gq"><path d="M229.966 78.93h.008v8.867h-.008z"/></g><g class="DX Gr"><path d="M229.974 78.93h.008v8.867h-.008z"/></g><g class="DX Gs"><path d="M229.98 78.93h.008v8.867h-.008z"/></g><g class="DX Gt"><path d="M229.99 78.93h.008v8.867h-.008z"/></g><g class="DX Gu"><path d="M229.997 78.93h.008v8.867h-.008z"/></g><g class="DX Gv"><path d="M230.005 78.93h.008v8.867h-.008z"/></g><g class="DX Gw"><path d="M230.012 78.93h.008v8.867h-.008z"/></g><g class="DX Gx"><path d="M230.02 78.93h.008v8.867h-.008z"/></g><g class="DX Gy"><path d="M230.028 78.93h.008v8.867h-.008z"/></g><g class="DX Gz"><path d="M230.036 78.93h.008v8.867h-.008z"/></g><g class="DX HA"><path d="M230.044 78.93h.008v8.867h-.008z"/></g><g class="DX HB"><path d="M230.05 78.93h.008v8.867h-.008z"/></g><g class="DX HC"><path d="M230.06 78.93h.008v8.867h-.008z"/></g><g class="DX HD"><path d="M230.067 78.93h.008v8.867h-.008z"/></g><g class="DX HE"><path d="M230.075 78.93h.008v8.867h-.008z"/></g><g class="DX HF"><path d="M230.082 78.93h.008v8.867h-.008z"/></g><g class="DX HG"><path d="M230.1 78.93h.008v8.867h-.008z"/></g><g class="DX HH"><path d="M230.098 78.93h.008v8.867h-.008z"/></g><g class="DX HI"><path d="M230.106 78.93h.008v8.867h-.008z"/></g><g class="DX HJ"><path d="M230.113 78.93h.008v8.867h-.008z"/></g><g class="DX HK"><path d="M230.12 78.93h.008v8.867h-.008z"/></g><g class="DX Di"><path d="M230.13 78.93h.008v8.867h-.008z"/></g><g class="DX Di"><path d="M230.137 78.93h.008v8.867h-.008z"/></g><g class="DX HL"><path d="M230.145 78.93h.008v8.867h-.008z"/></g><g class="DX HM"><path d="M230.152 78.93h.008v8.867h-.008z"/></g><g class="DX HN"><path d="M230.16 78.93h.008v8.867h-.008z"/></g><g class="DX HO"><path d="M230.168 78.93h.008v8.867h-.008z"/></g><g class="DX HP"><path d="M230.176 78.93h.008v8.867h-.008z"/></g><g class="DX HQ"><path d="M230.184 78.93h.008v8.867h-.008z"/></g><g class="DX HR"><path d="M230.192 78.93h.008v8.867h-.008z"/></g><g class="DX HS"><path d="M230.2 78.93h.008v8.867h-.008z"/></g><g class="DX HT"><path d="M230.208 78.93h.008v8.867h-.008z"/></g><g class="DX HU"><path d="M230.215 78.93h.008v8.867h-.008z"/></g><g class="DX HV"><path d="M230.223 78.93h.008v8.867h-.008z"/></g><g class="DX HW"><path d="M230.23 78.93h.008v8.867h-.008z"/></g><g class="DX HX"><path d="M230.24 78.93h.008v8.867h-.008z"/></g><g class="DX HY"><path d="M230.247 78.93h.008v8.867h-.008z"/></g><g class="DX HZ"><path d="M230.255 78.93h.008v8.867h-.008z"/></g><g class="DX Ha"><path d="M230.263 78.93h.008v8.867h-.008z"/></g><g class="DX Hb"><path d="M230.27 78.93h.008v8.867h-.008z"/></g><g class="DX Hc"><path d="M230.278 78.93h.008v8.867h-.008z"/></g><g class="DX Hd"><path d="M230.286 78.93h.008v8.867h-.008z"/></g><g class="DX He"><path d="M230.294 78.93h.008v8.867h-.008z"/></g><g class="DX Hf"><path d="M230.302 78.93h.008v8.867h-.008z"/></g><g class="DX Hg"><path d="M230.3 78.93h.008v8.867h-.008z"/></g><g class="DX Hh"><path d="M230.318 78.93h.008v8.867h-.008z"/></g><g class="DX Hi"><path d="M230.326 78.93h.008v8.867h-.008z"/></g><g class="DX Hj"><path d="M230.333 78.93h.008v8.867h-.008z"/></g><g class="DX Hk"><path d="M230.34 78.93h.008v8.867h-.008z"/></g><g class="DX Hl"><path d="M230.35 78.93h.008v8.867h-.008z"/></g><g class="DX Hm"><path d="M230.357 78.93h.008v8.867h-.008z"/></g><g class="DX Hn"><path d="M230.365 78.93h.008v8.867h-.008z"/></g><g class="DX Ho"><path d="M230.373 78.93h.008v8.867h-.008z"/></g><g class="DX Dj"><path d="M230.38 78.93h.008v8.867h-.008z"/></g><g class="DX Dj"><path d="M230.39 78.93h.004l-.004 8.867z"/></g><path d="M217.515 58.575c-.13.084-.25.178-.37.277l-.365.28-.985.826c-.355.317-.722.7-.735 1.175-.001.058.004.12.036.17.05.074.146.096.234.106.544.06 1.077-.164 1.563-.415.714-.37 1.4-.8 2.014-1.315.225-.182.45-.38.573-.64s.124-.6-.073-.813c-.238-.255-.593-.215-.894-.113-.154.052-.298.128-.45.183-.184.067-.36.157-.523.263l-.028.018z" class="Db"/><path d="M215.508 61.593c-.065 0-.13-.003-.197-.01s-.258-.028-.362-.183c-.063-.094-.068-.2-.066-.272.014-.533.4-.94.794-1.302l.994-.834.154-.116.207-.16c.13-.1.257-.205.386-.29l.02-.012c.194-.124.382-.22.568-.286l.196-.08.258-.103c.585-.198.9-.022 1.08.16.267.286.244.713.103 1.01s-.396.52-.622.702c-.633.51-1.32.96-2.044 1.334-.432.223-.937.444-1.466.444zm-.265-.4s.017.02.106.03c.507.054 1.024-.17 1.463-.396a11.73 11.73 0 0 0 1.984-1.295c.205-.166.415-.347.525-.58.087-.182.1-.452-.042-.616-.054-.057-.216-.232-.708-.066-.078.027-.154.06-.23.093l-.216.09a2.51 2.51 0 0 0-.488.246l-.026.017a3.56 3.56 0 0 0-.351.264l-.225.174-.145.11-.977.82c-.345.31-.666.65-.676 1.048-.002.05.005.064.006.066h0z" class="DY"/><path d="M216.317 57.428c-.148.097-.29.204-.424.318l-.42.32-1.13.95c-.407.364-.83.803-.844 1.35a.33.33 0 0 0 .041.194c.057.084.168.11.27.122.625.068 1.237-.188 1.796-.477a13.67 13.67 0 0 0 2.314-1.51c.258-.21.516-.436.66-.735s.143-.69-.083-.933c-.273-.293-.68-.247-1.027-.13-.177.06-.342.147-.516.2a3.07 3.07 0 0 0-.601.302l-.032.02z" class="Db"/><path d="M214.012 60.868c-.074 0-.148-.004-.223-.012s-.284-.03-.397-.2c-.068-.1-.073-.218-.07-.297.016-.602.443-1.066.903-1.477l1.14-.956.176-.133.24-.184c.15-.126.294-.234.44-.33h0l.032-.02c.2-.135.424-.242.636-.32l.226-.093.294-.118c.658-.223 1.023-.027 1.213.177.298.32.272.798.114 1.13-.16.338-.45.59-.707.797-.726.587-1.514 1.1-2.344 1.53-.494.255-1.07.507-1.673.507zm2.4-3.292c-.135.088-.268.188-.406.305l-.257.2-.167.126-1.123.942c-.4.358-.773.755-.785 1.223-.002.064.007.084.01.1s.03.032.14.044c.6.065 1.188-.196 1.696-.458a13.51 13.51 0 0 0 2.284-1.49c.238-.192.48-.402.6-.674.103-.217.13-.54-.053-.737-.175-.188-.45-.215-.84-.083-.09.03-.175.068-.266.107l-.246.102c-.187.068-.378.164-.566.285l-.03.02z" class="DY"/><path d="M215.32 55.865c-.154.1-.302.213-.443.332l-.44.335-1.182.99c-.425.38-.867.84-.882 1.4-.002.07.004.144.043.202.06.088.175.116.28.127.653.07 1.292-.197 1.875-.498a14.28 14.28 0 0 0 2.417-1.577c.27-.218.54-.455.688-.768s.15-.72-.087-.975c-.286-.306-.71-.258-1.072-.136-.185.063-.357.153-.54.22a3.2 3.2 0 0 0-.628.315l-.033.02z" class="Db"/><path d="M212.912 59.45c-.077 0-.154-.004-.232-.012-.072-.008-.293-.032-.41-.205-.07-.105-.075-.224-.073-.305.017-.626.462-1.108.94-1.537l1.2-1 .184-.138.25-.193c.153-.13.308-.245.46-.344h0l.036-.023c.218-.14.44-.252.662-.332l.237-.098.306-.123c.55-.186.972-.124 1.258.182.31.33.28.827.117 1.172-.168.352-.468.613-.736.83-.758.612-1.58 1.15-2.446 1.596-.515.266-1.116.53-1.743.53zm4.112-4.06c-.13 0-.28.03-.448.086-.093.03-.183.07-.278.112l-.257.106c-.196.07-.396.172-.593.298l-.03.02c-.14.092-.283.2-.426.32l-.268.207-.175.132-1.173.984c-.42.376-.8.79-.823 1.283-.002.066.008.09.013.1s.036.037.153.05c.616.066 1.244-.205 1.775-.48a14.13 14.13 0 0 0 2.387-1.557c.25-.2.504-.42.64-.706.11-.23.137-.57-.057-.778a.57.57 0 0 0-.438-.175z" class="DY"/><path d="M214.578 54.207c-.78.536-1.52 1.278-1.876 1.597-.33.295-.748.782-.825 1.233-.017.103.001.217.072.293.086.092.225.107.35.108.58.002 1.118-.218 1.626-.48a13.26 13.26 0 0 0 2.244-1.464c.25-.202.5-.422.64-.713s.138-.67-.08-.905c-.513-.55-1.352-.216-2.15.333z" class="Db"/><path d="M212.31 57.614c-.15-.001-.352-.018-.488-.164-.103-.1-.146-.272-.117-.443.1-.597.7-1.173.88-1.335l.27-.25c.397-.37.997-.93 1.623-1.36 1.077-.74 1.877-.845 2.378-.308.29.312.265.778.112 1.102-.157.33-.437.572-.687.775a13.43 13.43 0 0 1-2.273 1.484c-.48.248-1.056.5-1.698.5zm3.75-3.843c-.356 0-.817.194-1.38.58h0c-.604.416-1.193.965-1.582 1.328l-.276.255c-.33.294-.703.746-.768 1.13-.01.06 0 .115.027.143.048.05.18.052.222.052.574 0 1.102-.233 1.544-.46.783-.405 1.528-.89 2.214-1.444.23-.186.465-.39.6-.652.1-.21.126-.52-.05-.71-.14-.15-.32-.223-.54-.223z" class="DY"/></svg>