<svg xmlns="http://www.w3.org/2000/svg" xmlns:xlink="http://www.w3.org/1999/xlink" width="348.208" height="320" xmlns:v="https://vecta.io/nano"><style><![CDATA[.DT{clip-path:url(#U)}.DU{clip-path:url(#W)}.DV{clip-path:url(#Y)}.DW{fill:#222423}.DX{fill:#9dd3d9}.DY{fill:#b1a9d3}.DZ{fill:#bedcce}.Da{fill:#e9d4c8}.Db{fill:#ead4c8}.Dc{fill:#bdc3d2}.Dd{fill:#d1a5cb}.De{fill:#eec5c5}.Df{fill:#fdfefe}.Dg{fill:#e8e8e8}.Dh{fill:#b1aad3}.Di{fill:#b0abd3}.Dj{fill:#b0acd3}.Dk{fill:#afadd4}.Dl{fill:#afaed4}.Dm{fill:#aeafd4}.Dn{fill:#aeb0d4}.Do{fill:#adb1d4}.Dp{fill:#adb2d4}.Dq{fill:#acb3d4}.Dr{fill:#acb4d5}.Ds{fill:#abb5d5}.Dt{fill:#abb6d5}.Du{fill:#aab7d5}.Dv{fill:#aab8d5}.Dw{fill:#a9b9d5}.Dx{fill:#a9bad5}.Dy{fill:#a8bbd6}.Dz{fill:#a8bcd6}.EA{fill:#a7bdd6}.EB{fill:#a7bfd6}.EC{fill:#a6c0d6}.ED{fill:#a6c1d6}.EE{fill:#a5c2d7}.EF{fill:#a5c3d7}.EG{fill:#a4c4d7}.EH{fill:#a4c5d7}.EI{fill:#a3c6d7}.EJ{fill:#a3c7d7}.EK{fill:#a2c8d7}.EL{fill:#a2c9d8}.EM{fill:#a1cad8}.EN{fill:#a1cbd8}.EO{fill:#a0ccd8}.EP{fill:#a0cdd8}.EQ{fill:#9fced8}.ER{fill:#9fcfd8}.ES{fill:#9ed0d9}.ET{fill:#9ed1d9}.EU{fill:#9dd2d9}.EV{fill:#9ed3d9}.EW{fill:#9fd4d8}.EX{fill:#a0d4d8}.EY{fill:#a1d4d8}.EZ{fill:#a2d4d7}.Ea{fill:#a3d5d7}.Eb{fill:#a4d5d7}.Ec{fill:#a5d5d6}.Ed{fill:#a6d6d6}.Ee{fill:#a7d6d6}.Ef{fill:#a8d6d5}.Eg{fill:#a9d6d5}.Eh{fill:#aad7d5}.Ei{fill:#abd7d4}.Ej{fill:#acd7d4}.Ek{fill:#aed8d4}.El{fill:#afd8d3}.Em{fill:#b0d8d3}.En{fill:#b1d8d2}.Eo{fill:#b2d9d2}.Ep{fill:#b3d9d2}.Eq{fill:#b4d9d1}.Er{fill:#b5d9d1}.Es{fill:#b6dad1}.Et{fill:#b7dad0}.Eu{fill:#b8dad0}.Ev{fill:#b9dbd0}.Ew{fill:#badbcf}.Ex{fill:#bbdbcf}.Ey{fill:#bcdbcf}.Ez{fill:#bddcce}.FA{fill:#bfdcce}.FB{fill:#c0dcce}.FC{fill:#c1dbce}.FD{fill:#c2dbcd}.FE{fill:#c3dbcd}.FF{fill:#c4dbcd}.FG{fill:#c5dbcd}.FH{fill:#c6dbcd}.FI{fill:#c7dacd}.FJ{fill:#c8dacd}.FK{fill:#c9dacc}.FL{fill:#cadacc}.FM{fill:#cbdacc}.FN{fill:#ccd9cc}.FO{fill:#cdd9cc}.FP{fill:#ced9cc}.FQ{fill:#cfd9cc}.FR{fill:#d0d9cb}.FS{fill:#d1d8cb}.FT{fill:#d2d8cb}.FU{fill:#d3d8cb}.FV{fill:#d5d8cb}.FW{fill:#d6d8cb}.FX{fill:#d7d8cb}.FY{fill:#d8d7cb}.FZ{fill:#d9d7ca}.Fa{fill:#dad7ca}.Fb{fill:#dbd7ca}.Fc{fill:#dcd7ca}.Fd{fill:#ddd6ca}.Fe{fill:#ded6ca}.Ff{fill:#dfd6ca}.Fg{fill:#e0d6c9}.Fh{fill:#e1d6c9}.Fi{fill:#e2d5c9}.Fj{fill:#e3d5c9}.Fk{fill:#e4d5c9}.Fl{fill:#e5d5c9}.Fm{fill:#e6d5c9}.Fn{fill:#e7d5c8}.Fo{fill:#e8d4c8}.Fp{fill:#e8d3c8}.Fq{fill:#e7d3c9}.Fr{fill:#e6d2c9}.Fs{fill:#e5d2c9}.Ft{fill:#e4d2c9}.Fu{fill:#e3d1ca}.Fv{fill:#e2d1ca}.Fw{fill:#e1d1ca}.Fx{fill:#e0d0ca}.Fy{fill:#dfd0cb}.Fz{fill:#decfcb}.GA{fill:#ddcfcb}.GB{fill:#dccfcb}.GC{fill:#dbcecb}.GD{fill:#dacecc}.GE{fill:#d9cdcc}.GF{fill:#d8cdcc}.GG{fill:#d7cdcc}.GH{fill:#d6cccd}.GI{fill:#d5cccd}.GJ{fill:#d4cccd}.GK{fill:#d2cbcd}.GL{fill:#d1cbcd}.GM{fill:#d0cace}.GN{fill:#cfcace}.GO{fill:#cecace}.GP{fill:#cdc9ce}.GQ{fill:#ccc9cf}.GR{fill:#cbc8cf}.GS{fill:#cac8cf}.GT{fill:#c9c8cf}.GU{fill:#c8c7d0}.GV{fill:#c7c7d0}.GW{fill:#c6c6d0}.GX{fill:#c5c6d0}.GY{fill:#c4c6d0}.GZ{fill:#c3c5d1}.Ga{fill:#c2c5d1}.Gb{fill:#c1c5d1}.Gc{fill:#c0c4d1}.Gd{fill:#bfc4d2}.Ge{fill:#bec3d2}.Gf{fill:#bec2d2}.Gg{fill:#bec1d2}.Gh{fill:#bfc0d1}.Gi{fill:#c0bfd1}.Gj{fill:#c0bed1}.Gk{fill:#c1bdd1}.Gl{fill:#c2bcd0}.Gm{fill:#c3bbd0}.Gn{fill:#c3bad0}.Go{fill:#c4b9d0}.Gp{fill:#c5b8cf}.Gq{fill:#c5b7cf}.Gr{fill:#c6b6cf}.Gs{fill:#c7b5cf}.Gt{fill:#c7b3ce}.Gu{fill:#c8b2ce}.Gv{fill:#c9b1ce}.Gw{fill:#c9b0ce}.Gx{fill:#caafcd}.Gy{fill:#cbaecd}.Gz{fill:#cbadcd}.HA{fill:#ccaccd}.HB{fill:#cdabcc}.HC{fill:#ceaacc}.HD{fill:#cea9cc}.HE{fill:#cfa8cc}.HF{fill:#d0a7cb}.HG{fill:#d0a6cb}.HH{fill:#d2a6cb}.HI{fill:#d3a7cb}.HJ{fill:#d4a8ca}.HK{fill:#d5a9ca}.HL{fill:#d6aaca}.HM{fill:#d7abca}.HN{fill:#d8acca}.HO{fill:#d8adc9}.HP{fill:#d9aec9}.HQ{fill:#daafc9}.HR{fill:#dbb0c9}.HS{fill:#dcb1c9}.HT{fill:#ddb2c8}.HU{fill:#deb3c8}.HV{fill:#dfb4c8}.HW{fill:#e0b6c8}.HX{fill:#e1b7c8}.HY{fill:#e2b8c8}.HZ{fill:#e3b9c7}.Ha{fill:#e4bac7}.Hb{fill:#e5bbc7}.Hc{fill:#e6bcc7}.Hd{fill:#e7bdc7}.He{fill:#e7bec6}.Hf{fill:#e8bfc6}.Hg{fill:#e9c0c6}.Hh{fill:#eac1c6}.Hi{fill:#ebc2c6}.Hj{fill:#ecc3c5}.Hk{fill:#edc4c5}]]></style><path d="M62.988 207.427s-7.93 4.12-7.68 13.51 7.685 13.002 8.467 13.413 4.576 2.374 8.9 2.792c0 0 22.908.727 26.47.2 0 0-48.004-5.772-36.156-29.906m1.92-36.676l-3 14.943-1.043-12.765z" class="Dg"/><path d="M332.895 158.846c-4.49 8.388-14.23 14.71-25.148 14.497-16.95-.334-27.425-14.927-27.205-28.017l.008-.796h3.475c1.697 12.613 13.063 22.484 26.784 22.484 8.483 0 17.137-2.25 22.086-8.168" fill="#eaeaea"/><path d="M263.65 149.348l3.877 32.15-7.428-22.036 3.198-9.1" class="Dg"/><defs><path id="A" d="M54.3 256.123a6.84 6.84 0 0 1-.722-.038c-4.478-.248-8.248-3.123-11.276-5.434a32 32 0 0 0-1.458-.977c-1.358-.843-2.872-1.542-4.744-.957-1.507.402-2.908 1.16-4.264 1.894-1.84.996-3.74 2.025-5.92 2.18-.804.05-1.513.05-2.138.05h-2.926v-.442h2.926c.62 0 1.32 0 2.1-.05 2.08-.15 3.857-1.1 5.738-2.128 1.378-.746 2.803-1.517 4.352-1.93 2.03-.636 3.652.107 5.1 1.005.52.324 1.04.684 1.485.997 2.987 2.278 6.697 5.108 11.05 5.35 1.617.17 3.05-.305 4.12-.738a33.736 33.736 0 0 0 1.985-.902c1.153-.553 2.3-1.212 3.515-1.91 3.96-2.274 8.056-4.625 12.507-3.327 1.172.36 2.252 1.027 3.297 1.67 1.757 1.083 3.576 2.204 5.92 1.962h4.005v.44H85c-2.49.25-4.368-.906-6.184-2.026-1.07-.66-2.078-1.28-3.193-1.624-4.268-1.245-8.28 1.06-12.16 3.286-1.222.702-2.376 1.364-3.543 1.925-.64.3-1.324.635-2.012.913-.955.387-2.192.806-3.597.806z"/><path id="B" d="M20.928 247.47h.328v8.652h-.328z"/><path id="C" d="M34.68 247.47h.326v8.652h-.326z"/><path id="D" d="M45.422 247.47h.227v8.652h-.227z"/><path id="E" d="M55.39 247.47h.233v8.652h-.233z"/><path id="F" d="M65.884 247.47h.37v8.652h-.37z"/><path id="G" d="M76.96 247.47h.374v8.652h-.374z"/><path id="H" d="M19.34 251.245h.338v9.28h-.338z"/><path id="I" d="M33.543 251.245h.336v9.28h-.336z"/><path id="J" d="M44.634 251.245h.234v9.28h-.234z"/><path id="K" d="M54.93 251.245h.24v9.28h-.24z"/><path id="L" d="M65.765 251.245h.38v9.28h-.38z"/><path id="M" d="M77.588 251.245h.387v9.28h-.387z"/><path id="N" d="M18.32 252.887h.347v10.558h-.347z"/><path id="O" d="M32.904 252.887h.345v10.558h-.345z"/><path id="P" d="M44.292 252.887h.24v10.558h-.24z"/><path id="Q" d="M54.863 252.887h.247v10.558h-.247z"/><path id="R" d="M65.99 252.887h.39v10.558h-.39z"/><path id="S" d="M77.732 252.887h.397v10.558h-.397z"/><path id="T" d="M248.735 130.827h-1.545a.27.27 0 110-.54h1.545a.27.27 0 110 .54"/></defs><clipPath id="U"><use xlink:href="#A"/></clipPath><g class="DT DY"><path d="M20.862 247.47h.067v8.652h-.067z"/></g><g class="DT DY"><use xlink:href="#B"/></g><g class="DT Dh"><path d="M21.256 247.47h.328v8.652h-.328z"/></g><g class="DT Di"><path d="M21.583 247.47h.328v8.652h-.328z"/></g><g class="DT Dj"><path d="M21.91 247.47h.328v8.652h-.328z"/></g><g class="DT Dk"><path d="M22.238 247.47h.328v8.652h-.328z"/></g><g class="DT Dl"><path d="M22.566 247.47h.328v8.652h-.328z"/></g><g class="DT Dm"><path d="M22.893 247.47h.328v8.652h-.328z"/></g><g class="DT Dn"><path d="M23.22 247.47h.328v8.652h-.328z"/></g><g class="DT Do"><path d="M23.548 247.47h.328v8.652h-.328z"/></g><g class="DT Dp"><path d="M23.875 247.47h.328v8.652h-.328z"/></g><g class="DT Dq"><path d="M24.203 247.47h.328v8.652h-.328z"/></g><g class="DT Dr"><path d="M24.53 247.47h.328v8.652h-.328z"/></g><g class="DT Ds"><path d="M24.858 247.47h.328v8.652h-.328z"/></g><g class="DT Dt"><path d="M25.185 247.47h.328v8.652h-.328z"/></g><g class="DT Du"><path d="M25.513 247.47h.328v8.652h-.328z"/></g><g class="DT Dv"><path d="M25.84 247.47h.328v8.652h-.328z"/></g><g class="DT Dw"><path d="M26.168 247.47h.328v8.652h-.328z"/></g><g class="DT Dx"><path d="M26.495 247.47h.328v8.652h-.328z"/></g><g class="DT Dy"><path d="M26.822 247.47h.328v8.652h-.328z"/></g><g class="DT Dz"><path d="M27.15 247.47h.328v8.652h-.328z"/></g><g class="DT EA"><path d="M27.477 247.47h.328v8.652h-.328z"/></g><g class="DT EB"><path d="M27.805 247.47h.328v8.652h-.328z"/></g><g class="DT EC"><path d="M28.132 247.47h.328v8.652h-.328z"/></g><g class="DT ED"><path d="M28.46 247.47h.328v8.652h-.328z"/></g><g class="DT EE"><path d="M28.787 247.47h.328v8.652h-.328z"/></g><g class="DT EF"><path d="M29.115 247.47h.328v8.652h-.328z"/></g><g class="DT EG"><path d="M29.442 247.47h.328v8.652h-.328z"/></g><g class="DT EH"><path d="M29.77 247.47h.328v8.652h-.328z"/></g><g class="DT EI"><path d="M30.097 247.47h.328v8.652h-.328z"/></g><g class="DT EJ"><path d="M30.424 247.47h.328v8.652h-.328z"/></g><g class="DT EK"><path d="M30.752 247.47h.328v8.652h-.328z"/></g><g class="DT EL"><path d="M31.08 247.47h.328v8.652h-.328z"/></g><g class="DT EM"><path d="M31.407 247.47h.328v8.652h-.328z"/></g><g class="DT EN"><path d="M31.734 247.47h.328v8.652h-.328z"/></g><g class="DT EO"><path d="M32.062 247.47h.328v8.652h-.328z"/></g><g class="DT EP"><path d="M32.39 247.47h.328v8.652h-.328z"/></g><g class="DT EQ"><path d="M32.717 247.47h.328v8.652h-.328z"/></g><g class="DT ER"><path d="M33.044 247.47h.328v8.652h-.328z"/></g><g class="DT ES"><path d="M33.37 247.47h.328v8.652h-.328z"/></g><g class="DT ET"><path d="M33.7 247.47h.328v8.652H33.7z"/></g><g class="DT EU"><path d="M34.026 247.47h.328v8.652h-.328z"/></g><g class="DT DX"><path d="M34.354 247.47h.328v8.652h-.328z"/></g><g class="DT DX"><use xlink:href="#C"/></g><g class="DT EV"><path d="M35.007 247.47h.326v8.652h-.326z"/></g><g class="DT EW"><path d="M35.332 247.47h.326v8.652h-.326z"/></g><g class="DT EX"><path d="M35.658 247.47h.326v8.652h-.326z"/></g><g class="DT EY"><path d="M35.983 247.47h.326v8.652h-.326z"/></g><g class="DT EZ"><path d="M36.31 247.47h.326v8.652h-.326z"/></g><g class="DT Ea"><path d="M36.634 247.47h.326v8.652h-.326z"/></g><g class="DT Eb"><path d="M36.96 247.47h.326v8.652h-.326z"/></g><g class="DT Ec"><path d="M37.285 247.47h.326v8.652h-.326z"/></g><g class="DT Ed"><path d="M37.61 247.47h.326v8.652h-.326z"/></g><g class="DT Ee"><path d="M37.936 247.47h.326v8.652h-.326z"/></g><g class="DT Ef"><path d="M38.26 247.47h.326v8.652h-.326z"/></g><g class="DT Eg"><path d="M38.587 247.47h.326v8.652h-.326z"/></g><g class="DT Eh"><path d="M38.912 247.47h.326v8.652h-.326z"/></g><g class="DT Ei"><path d="M39.238 247.47h.326v8.652h-.326z"/></g><g class="DT Ej"><path d="M39.563 247.47h.326v8.652h-.326z"/></g><g class="DT Ek"><path d="M39.89 247.47h.326v8.652h-.326z"/></g><g class="DT El"><path d="M40.214 247.47h.326v8.652h-.326z"/></g><g class="DT Em"><path d="M40.54 247.47h.326v8.652h-.326z"/></g><g class="DT En"><path d="M40.865 247.47h.326v8.652h-.326z"/></g><g class="DT Eo"><path d="M41.19 247.47h.326v8.652h-.326z"/></g><g class="DT Ep"><path d="M41.516 247.47h.326v8.652h-.326z"/></g><g class="DT Eq"><path d="M41.842 247.47h.326v8.652h-.326z"/></g><g class="DT Er"><path d="M42.167 247.47h.326v8.652h-.326z"/></g><g class="DT Es"><path d="M42.492 247.47h.326v8.652h-.326z"/></g><g class="DT Et"><path d="M42.818 247.47h.326v8.652h-.326z"/></g><g class="DT Eu"><path d="M43.143 247.47h.326v8.652h-.326z"/></g><g class="DT Ev"><path d="M43.47 247.47h.326v8.652h-.326z"/></g><g class="DT Ew"><path d="M43.794 247.47h.326v8.652h-.326z"/></g><g class="DT Ex"><path d="M44.12 247.47h.326v8.652h-.326z"/></g><g class="DT Ey"><path d="M44.445 247.47h.326v8.652h-.326z"/></g><g class="DT Ez"><path d="M44.77 247.47h.326v8.652h-.326z"/></g><g class="DT DZ"><path d="M45.096 247.47h.326v8.652h-.326z"/></g><g class="DT DZ"><use xlink:href="#D"/></g><g class="DT FA"><path d="M45.648 247.47h.227v8.652h-.227z"/></g><g class="DT FB"><path d="M45.875 247.47h.227v8.652h-.227z"/></g><g class="DT FC"><path d="M46.1 247.47h.227v8.652H46.1z"/></g><g class="DT FD"><path d="M46.328 247.47h.227v8.652h-.227z"/></g><g class="DT FE"><path d="M46.554 247.47h.227v8.652h-.227z"/></g><g class="DT FF"><path d="M46.78 247.47h.227v8.652h-.227z"/></g><g class="DT FG"><path d="M47.008 247.47h.227v8.652h-.227z"/></g><g class="DT FH"><path d="M47.234 247.47h.227v8.652h-.227z"/></g><g class="DT FI"><path d="M47.46 247.47h.227v8.652h-.227z"/></g><g class="DT FJ"><path d="M47.687 247.47h.227v8.652h-.227z"/></g><g class="DT FK"><path d="M47.914 247.47h.227v8.652h-.227z"/></g><g class="DT FL"><path d="M48.14 247.47h.227v8.652h-.227z"/></g><g class="DT FM"><path d="M48.367 247.47h.227v8.652h-.227z"/></g><g class="DT FN"><path d="M48.593 247.47h.227v8.652h-.227z"/></g><g class="DT FO"><path d="M48.82 247.47h.227v8.652h-.227z"/></g><g class="DT FP"><path d="M49.047 247.47h.227v8.652h-.227z"/></g><g class="DT FQ"><path d="M49.273 247.47h.227v8.652h-.227z"/></g><g class="DT FR"><path d="M49.5 247.47h.227v8.652H49.5z"/></g><g class="DT FS"><path d="M49.726 247.47h.227v8.652h-.227z"/></g><g class="DT FT"><path d="M49.953 247.47h.227v8.652h-.227z"/></g><g class="DT FU"><path d="M50.18 247.47h.227v8.652h-.227z"/></g><g class="DT FV"><path d="M50.406 247.47h.227v8.652h-.227z"/></g><g class="DT FW"><path d="M50.633 247.47h.227v8.652h-.227z"/></g><g class="DT FX"><path d="M50.86 247.47h.227v8.652h-.227z"/></g><g class="DT FY"><path d="M51.086 247.47h.227v8.652h-.227z"/></g><g class="DT FZ"><path d="M51.312 247.47h.227v8.652h-.227z"/></g><g class="DT Fa"><path d="M51.54 247.47h.227v8.652h-.227z"/></g><g class="DT Fb"><path d="M51.766 247.47h.227v8.652h-.227z"/></g><g class="DT Fc"><path d="M51.992 247.47h.227v8.652h-.227z"/></g><g class="DT Fd"><path d="M52.22 247.47h.227v8.652h-.227z"/></g><g class="DT Fe"><path d="M52.445 247.47h.227v8.652h-.227z"/></g><g class="DT Ff"><path d="M52.672 247.47h.227v8.652h-.227z"/></g><g class="DT Fg"><path d="M52.898 247.47h.227v8.652h-.227z"/></g><g class="DT Fh"><path d="M53.125 247.47h.227v8.652h-.227z"/></g><g class="DT Fi"><path d="M53.352 247.47h.227v8.652h-.227z"/></g><g class="DT Fj"><path d="M53.578 247.47h.227v8.652h-.227z"/></g><g class="DT Fk"><path d="M53.805 247.47h.227v8.652h-.227z"/></g><g class="DT Fl"><path d="M54.03 247.47h.227v8.652h-.227z"/></g><g class="DT Fm"><path d="M54.258 247.47h.227v8.652h-.227z"/></g><g class="DT Fn"><path d="M54.484 247.47h.227v8.652h-.227z"/></g><g class="DT Fo"><path d="M54.71 247.47h.227v8.652h-.227z"/></g><g class="DT Da"><path d="M54.938 247.47h.227v8.652h-.227z"/></g><g class="DT Db"><path d="M55.164 247.47h.227v8.652h-.227z"/></g><g class="DT Db"><use xlink:href="#E"/></g><g class="DT Da"><path d="M55.624 247.47h.233v8.652h-.233z"/></g><g class="DT Fp"><path d="M55.857 247.47h.233v8.652h-.233z"/></g><g class="DT Fq"><path d="M56.1 247.47h.233v8.652H56.1z"/></g><g class="DT Fr"><path d="M56.323 247.47h.233v8.652h-.233z"/></g><g class="DT Fs"><path d="M56.556 247.47h.233v8.652h-.233z"/></g><g class="DT Ft"><path d="M56.8 247.47h.233v8.652H56.8z"/></g><g class="DT Fu"><path d="M57.023 247.47h.233v8.652h-.233z"/></g><g class="DT Fv"><path d="M57.256 247.47h.233v8.652h-.233z"/></g><g class="DT Fw"><path d="M57.49 247.47h.233v8.652h-.233z"/></g><g class="DT Fx"><path d="M57.722 247.47h.233v8.652h-.233z"/></g><g class="DT Fy"><path d="M57.956 247.47h.233v8.652h-.233z"/></g><g class="DT Fz"><path d="M58.19 247.47h.233v8.652h-.233z"/></g><g class="DT GA"><path d="M58.422 247.47h.233v8.652h-.233z"/></g><g class="DT GB"><path d="M58.655 247.47h.233v8.652h-.233z"/></g><g class="DT GC"><path d="M58.888 247.47h.233v8.652h-.233z"/></g><g class="DT GD"><path d="M59.12 247.47h.233v8.652h-.233z"/></g><g class="DT GE"><path d="M59.355 247.47h.233v8.652h-.233z"/></g><g class="DT GF"><path d="M59.588 247.47h.233v8.652h-.233z"/></g><g class="DT GG"><path d="M59.82 247.47h.233v8.652h-.233z"/></g><g class="DT GH"><path d="M60.054 247.47h.233v8.652h-.233z"/></g><g class="DT GI"><path d="M60.287 247.47h.233v8.652h-.233z"/></g><g class="DT GJ"><path d="M60.52 247.47h.233v8.652h-.233z"/></g><g class="DT GK"><path d="M60.754 247.47h.233v8.652h-.233z"/></g><g class="DT GL"><path d="M60.987 247.47h.233v8.652h-.233z"/></g><g class="DT GM"><path d="M61.22 247.47h.233v8.652h-.233z"/></g><g class="DT GN"><path d="M61.453 247.47h.233v8.652h-.233z"/></g><g class="DT GO"><path d="M61.687 247.47h.233v8.652h-.233z"/></g><g class="DT GP"><path d="M61.92 247.47h.233v8.652h-.233z"/></g><g class="DT GQ"><path d="M62.153 247.47h.233v8.652h-.233z"/></g><g class="DT GR"><path d="M62.386 247.47h.233v8.652h-.233z"/></g><g class="DT GS"><path d="M62.62 247.47h.233v8.652h-.233z"/></g><g class="DT GT"><path d="M62.852 247.47h.233v8.652h-.233z"/></g><g class="DT GU"><path d="M63.086 247.47h.233v8.652h-.233z"/></g><g class="DT GV"><path d="M63.32 247.47h.233v8.652h-.233z"/></g><g class="DT GW"><path d="M63.552 247.47h.233v8.652h-.233z"/></g><g class="DT GX"><path d="M63.785 247.47h.233v8.652h-.233z"/></g><g class="DT GY"><path d="M64.018 247.47h.233v8.652h-.233z"/></g><g class="DT GZ"><path d="M64.25 247.47h.233v8.652h-.233z"/></g><g class="DT Ga"><path d="M64.485 247.47h.233v8.652h-.233z"/></g><g class="DT Gb"><path d="M64.718 247.47h.233v8.652h-.233z"/></g><g class="DT Gc"><path d="M64.95 247.47h.233v8.652h-.233z"/></g><g class="DT Gd"><path d="M65.184 247.47h.233v8.652h-.233z"/></g><g class="DT Ge"><path d="M65.417 247.47h.233v8.652h-.233z"/></g><g class="DT Dc"><path d="M65.65 247.47h.233v8.652h-.233z"/></g><g class="DT Dc"><use xlink:href="#F"/></g><g class="DT Gf"><path d="M66.253 247.47h.37v8.652h-.37z"/></g><g class="DT Gg"><path d="M66.622 247.47h.37v8.652h-.37z"/></g><g class="DT Gh"><path d="M66.99 247.47h.37v8.652h-.37z"/></g><g class="DT Gi"><path d="M67.36 247.47h.37v8.652h-.37z"/></g><g class="DT Gj"><path d="M67.73 247.47h.37v8.652h-.37z"/></g><g class="DT Gk"><path d="M68.1 247.47h.37v8.652h-.37z"/></g><g class="DT Gl"><path d="M68.468 247.47h.37v8.652h-.37z"/></g><g class="DT Gm"><path d="M68.837 247.47h.37v8.652h-.37z"/></g><g class="DT Gn"><path d="M69.206 247.47h.37v8.652h-.37z"/></g><g class="DT Go"><path d="M69.575 247.47h.37v8.652h-.37z"/></g><g class="DT Gp"><path d="M69.945 247.47h.37v8.652h-.37z"/></g><g class="DT Gq"><path d="M70.314 247.47h.37v8.652h-.37z"/></g><g class="DT Gr"><path d="M70.683 247.47h.37v8.652h-.37z"/></g><g class="DT Gs"><path d="M71.052 247.47h.37v8.652h-.37z"/></g><g class="DT Gt"><path d="M71.42 247.47h.37v8.652h-.37z"/></g><g class="DT Gu"><path d="M71.8 247.47h.37v8.652h-.37z"/></g><g class="DT Gv"><path d="M72.16 247.47h.37v8.652h-.37z"/></g><g class="DT Gw"><path d="M72.53 247.47h.37v8.652h-.37z"/></g><g class="DT Gx"><path d="M72.898 247.47h.37v8.652h-.37z"/></g><g class="DT Gy"><path d="M73.267 247.47h.37v8.652h-.37z"/></g><g class="DT Gz"><path d="M73.636 247.47h.37v8.652h-.37z"/></g><g class="DT HA"><path d="M74.005 247.47h.37v8.652h-.37z"/></g><g class="DT HB"><path d="M74.374 247.47h.37v8.652h-.37z"/></g><g class="DT HC"><path d="M74.744 247.47h.37v8.652h-.37z"/></g><g class="DT HD"><path d="M75.113 247.47h.37v8.652h-.37z"/></g><g class="DT HE"><path d="M75.482 247.47h.37v8.652h-.37z"/></g><g class="DT HF"><path d="M75.85 247.47h.37v8.652h-.37z"/></g><g class="DT HG"><path d="M76.22 247.47h.37v8.652h-.37z"/></g><g class="DT Dd"><path d="M76.6 247.47h.37v8.652h-.37z"/></g><g class="DT Dd"><use xlink:href="#G"/></g><g class="DT HH"><path d="M77.333 247.47h.374v8.652h-.374z"/></g><g class="DT HI"><path d="M77.707 247.47h.374v8.652h-.374z"/></g><g class="DT HJ"><path d="M78.082 247.47h.374v8.652h-.374z"/></g><g class="DT HK"><path d="M78.456 247.47h.374v8.652h-.374z"/></g><g class="DT HL"><path d="M78.83 247.47h.374v8.652h-.374z"/></g><g class="DT HM"><path d="M79.204 247.47h.374v8.652h-.374z"/></g><g class="DT HN"><path d="M79.58 247.47h.374v8.652h-.374z"/></g><g class="DT HO"><path d="M79.953 247.47h.374v8.652h-.374z"/></g><g class="DT HP"><path d="M80.327 247.47h.374v8.652h-.374z"/></g><g class="DT HQ"><path d="M80.702 247.47h.374v8.652h-.374z"/></g><g class="DT HR"><path d="M81.076 247.47h.374v8.652h-.374z"/></g><g class="DT HS"><path d="M81.45 247.47h.374v8.652h-.374z"/></g><g class="DT HT"><path d="M81.825 247.47h.374v8.652h-.374z"/></g><g class="DT HU"><path d="M82.2 247.47h.374v8.652H82.2z"/></g><g class="DT HV"><path d="M82.573 247.47h.374v8.652h-.374z"/></g><g class="DT HW"><path d="M82.948 247.47h.374v8.652h-.374z"/></g><g class="DT HX"><path d="M83.322 247.47h.374v8.652h-.374z"/></g><g class="DT HY"><path d="M83.696 247.47h.374v8.652h-.374z"/></g><g class="DT HZ"><path d="M84.07 247.47h.374v8.652h-.374z"/></g><g class="DT Ha"><path d="M84.445 247.47h.374v8.652h-.374z"/></g><g class="DT Hb"><path d="M84.82 247.47h.374v8.652h-.374z"/></g><g class="DT Hc"><path d="M85.193 247.47h.374v8.652h-.374z"/></g><g class="DT Hd"><path d="M85.568 247.47h.374v8.652h-.374z"/></g><g class="DT He"><path d="M85.942 247.47h.374v8.652h-.374z"/></g><g class="DT Hf"><path d="M86.316 247.47h.374v8.652h-.374z"/></g><g class="DT Hg"><path d="M86.69 247.47h.374v8.652h-.374z"/></g><g class="DT Hh"><path d="M87.065 247.47h.374v8.652h-.374z"/></g><g class="DT Hi"><path d="M87.44 247.47h.374v8.652h-.374z"/></g><g class="DT Hj"><path d="M87.813 247.47h.374v8.652h-.374z"/></g><g class="DT Hk"><path d="M88.188 247.47h.374v8.652h-.374z"/></g><g class="DT De"><path d="M88.562 247.47h.374v8.652h-.374z"/></g><g class="DT De"><path d="M88.936 247.47h.036v8.652h-.036z"/></g><defs><path id="V" d="M53.737 260.056c-2.786 0-5.2-1.8-7.53-3.554-1.177-.88-2.393-1.793-3.618-2.43a21.44 21.44 0 0 0-1.79-.998c-1.437-.707-2.6-1.022-3.805-1.022-1.906 0-3.622.92-5.438 1.894-1.703.912-3.463 1.856-5.458 2.042a40.83 40.83 0 0 1-2.344.053h-4.482v-.442h4.482l2.31-.052c1.898-.177 3.618-1.1 5.282-1.99 1.784-.957 3.63-1.946 5.647-1.946 1.265 0 2.5.33 4 1.067.575.282 1.168.613 1.814 1 1.242.648 2.473 1.57 3.663 2.462 2.874 2.152 5.845 4.377 9.438 3.07a17.811 17.811 0 0 0 1.628-.684l1.626-.8 3.333-2.055c3.36-2.175 6.83-4.424 10.838-4.06 1.853.117 3.375 1.1 4.846 2.07 1.624 1.06 3.158 2.062 5.073 1.92l6.354-.001v.442H83.27c-2.046.156-3.717-.936-5.332-2-1.423-.93-2.895-1.9-4.638-2-3.856-.352-7.267 1.857-10.564 4-1.096.7-2.23 1.444-3.366 2.074l-.056.03-1.59.8c-.627.296-1.156.518-1.666.7a6.734 6.734 0 0 1-2.322.422z"/></defs><clipPath id="W"><use xlink:href="#V"/></clipPath><g class="DU DY"><path d="M19.272 251.245h.07v9.28h-.07z"/></g><g class="DU DY"><use xlink:href="#H"/></g><g class="DU Dh"><path d="M19.68 251.245h.338v9.28h-.338z"/></g><g class="DU Di"><path d="M20.017 251.245h.338v9.28h-.338z"/></g><g class="DU Dj"><path d="M20.355 251.245h.338v9.28h-.338z"/></g><g class="DU Dk"><path d="M20.693 251.245h.338v9.28h-.338z"/></g><g class="DU Dl"><path d="M21.03 251.245h.338v9.28h-.338z"/></g><g class="DU Dm"><path d="M21.37 251.245h.338v9.28h-.338z"/></g><g class="DU Dn"><path d="M21.708 251.245h.338v9.28h-.338z"/></g><g class="DU Do"><path d="M22.046 251.245h.338v9.28h-.338z"/></g><g class="DU Dp"><path d="M22.384 251.245h.338v9.28h-.338z"/></g><g class="DU Dq"><path d="M22.722 251.245h.338v9.28h-.338z"/></g><g class="DU Dr"><path d="M23.06 251.245h.338v9.28h-.338z"/></g><g class="DU Ds"><path d="M23.398 251.245h.338v9.28h-.338z"/></g><g class="DU Dt"><path d="M23.736 251.245h.338v9.28h-.338z"/></g><g class="DU Du"><path d="M24.075 251.245h.338v9.28h-.338z"/></g><g class="DU Dv"><path d="M24.413 251.245h.338v9.28h-.338z"/></g><g class="DU Dw"><path d="M24.75 251.245h.338v9.28h-.338z"/></g><g class="DU Dx"><path d="M25.09 251.245h.338v9.28h-.338z"/></g><g class="DU Dy"><path d="M25.427 251.245h.338v9.28h-.338z"/></g><g class="DU Dz"><path d="M25.765 251.245h.338v9.28h-.338z"/></g><g class="DU EA"><path d="M26.104 251.245h.338v9.28h-.338z"/></g><g class="DU EB"><path d="M26.442 251.245h.338v9.28h-.338z"/></g><g class="DU EC"><path d="M26.78 251.245h.338v9.28h-.338z"/></g><g class="DU ED"><path d="M27.118 251.245h.338v9.28h-.338z"/></g><g class="DU EE"><path d="M27.456 251.245h.338v9.28h-.338z"/></g><g class="DU EF"><path d="M27.794 251.245h.338v9.28h-.338z"/></g><g class="DU EG"><path d="M28.133 251.245h.338v9.28h-.338z"/></g><g class="DU EH"><path d="M28.47 251.245h.338v9.28h-.338z"/></g><g class="DU EI"><path d="M28.81 251.245h.338v9.28h-.338z"/></g><g class="DU EJ"><path d="M29.147 251.245h.338v9.28h-.338z"/></g><g class="DU EK"><path d="M29.485 251.245h.338v9.28h-.338z"/></g><g class="DU EL"><path d="M29.823 251.245h.338v9.28h-.338z"/></g><g class="DU EM"><path d="M30.16 251.245h.338v9.28h-.338z"/></g><g class="DU EN"><path d="M30.5 251.245h.338v9.28H30.5z"/></g><g class="DU EO"><path d="M30.838 251.245h.338v9.28h-.338z"/></g><g class="DU EP"><path d="M31.176 251.245h.338v9.28h-.338z"/></g><g class="DU EQ"><path d="M31.514 251.245h.338v9.28h-.338z"/></g><g class="DU ER"><path d="M31.852 251.245h.338v9.28h-.338z"/></g><g class="DU ES"><path d="M32.2 251.245h.338v9.28H32.2z"/></g><g class="DU ET"><path d="M32.528 251.245h.338v9.28h-.338z"/></g><g class="DU EU"><path d="M32.867 251.245h.338v9.28h-.338z"/></g><g class="DU DX"><path d="M33.205 251.245h.338v9.28h-.338z"/></g><g class="DU DX"><use xlink:href="#I"/></g><g class="DU EV"><path d="M33.88 251.245h.336v9.28h-.336z"/></g><g class="DU EW"><path d="M34.215 251.245h.336v9.28h-.336z"/></g><g class="DU EX"><path d="M34.55 251.245h.336v9.28h-.336z"/></g><g class="DU EY"><path d="M34.887 251.245h.336v9.28h-.336z"/></g><g class="DU EZ"><path d="M35.223 251.245h.336v9.28h-.336z"/></g><g class="DU Ea"><path d="M35.56 251.245h.336v9.28h-.336z"/></g><g class="DU Eb"><path d="M35.895 251.245h.336v9.28h-.336z"/></g><g class="DU Ec"><path d="M36.232 251.245h.336v9.28h-.336z"/></g><g class="DU Ed"><path d="M36.568 251.245h.336v9.28h-.336z"/></g><g class="DU Ee"><path d="M36.904 251.245h.336v9.28h-.336z"/></g><g class="DU Ef"><path d="M37.24 251.245h.336v9.28h-.336z"/></g><g class="DU Eg"><path d="M37.576 251.245h.336v9.28h-.336z"/></g><g class="DU Eh"><path d="M37.912 251.245h.336v9.28h-.336z"/></g><g class="DU Ei"><path d="M38.248 251.245h.336v9.28h-.336z"/></g><g class="DU Ej"><path d="M38.584 251.245h.336v9.28h-.336z"/></g><g class="DU Ek"><path d="M38.92 251.245h.336v9.28h-.336z"/></g><g class="DU El"><path d="M39.257 251.245h.336v9.28h-.336z"/></g><g class="DU Em"><path d="M39.593 251.245h.336v9.28h-.336z"/></g><g class="DU En"><path d="M39.93 251.245h.336v9.28h-.336z"/></g><g class="DU Eo"><path d="M40.265 251.245h.336v9.28h-.336z"/></g><g class="DU Ep"><path d="M40.6 251.245h.336v9.28H40.6z"/></g><g class="DU Eq"><path d="M40.937 251.245h.336v9.28h-.336z"/></g><g class="DU Er"><path d="M41.273 251.245h.336v9.28h-.336z"/></g><g class="DU Es"><path d="M41.61 251.245h.336v9.28h-.336z"/></g><g class="DU Et"><path d="M41.945 251.245h.336v9.28h-.336z"/></g><g class="DU Eu"><path d="M42.28 251.245h.336v9.28h-.336z"/></g><g class="DU Ev"><path d="M42.617 251.245h.336v9.28h-.336z"/></g><g class="DU Ew"><path d="M42.953 251.245h.336v9.28h-.336z"/></g><g class="DU Ex"><path d="M43.3 251.245h.336v9.28H43.3z"/></g><g class="DU Ey"><path d="M43.626 251.245h.336v9.28h-.336z"/></g><g class="DU Ez"><path d="M43.962 251.245h.336v9.28h-.336z"/></g><g class="DU DZ"><path d="M44.298 251.245h.336v9.28h-.336z"/></g><g class="DU DZ"><use xlink:href="#J"/></g><g class="DU FA"><path d="M44.868 251.245h.234v9.28h-.234z"/></g><g class="DU FB"><path d="M45.102 251.245h.234v9.28h-.234z"/></g><g class="DU FC"><path d="M45.336 251.245h.234v9.28h-.234z"/></g><g class="DU FD"><path d="M45.57 251.245h.234v9.28h-.234z"/></g><g class="DU FE"><path d="M45.804 251.245h.234v9.28h-.234z"/></g><g class="DU FF"><path d="M46.038 251.245h.234v9.28h-.234z"/></g><g class="DU FG"><path d="M46.272 251.245h.234v9.28h-.234z"/></g><g class="DU FH"><path d="M46.506 251.245h.234v9.28h-.234z"/></g><g class="DU FI"><path d="M46.74 251.245h.234v9.28h-.234z"/></g><g class="DU FJ"><path d="M46.974 251.245h.234v9.28h-.234z"/></g><g class="DU FK"><path d="M47.208 251.245h.234v9.28h-.234z"/></g><g class="DU FL"><path d="M47.442 251.245h.234v9.28h-.234z"/></g><g class="DU FM"><path d="M47.676 251.245h.234v9.28h-.234z"/></g><g class="DU FN"><path d="M47.9 251.245h.234v9.28H47.9z"/></g><g class="DU FO"><path d="M48.144 251.245h.234v9.28h-.234z"/></g><g class="DU FP"><path d="M48.377 251.245h.234v9.28h-.234z"/></g><g class="DU FQ"><path d="M48.61 251.245h.234v9.28h-.234z"/></g><g class="DU FR"><path d="M48.845 251.245h.234v9.28h-.234z"/></g><g class="DU FS"><path d="M49.08 251.245h.234v9.28h-.234z"/></g><g class="DU FT"><path d="M49.313 251.245h.234v9.28h-.234z"/></g><g class="DU FU"><path d="M49.547 251.245h.234v9.28h-.234z"/></g><g class="DU FV"><path d="M49.78 251.245h.234v9.28h-.234z"/></g><g class="DU FW"><path d="M50.015 251.245h.234v9.28h-.234z"/></g><g class="DU FX"><path d="M50.25 251.245h.234v9.28h-.234z"/></g><g class="DU FY"><path d="M50.483 251.245h.234v9.28h-.234z"/></g><g class="DU FZ"><path d="M50.717 251.245h.234v9.28h-.234z"/></g><g class="DU Fa"><path d="M50.95 251.245h.234v9.28h-.234z"/></g><g class="DU Fb"><path d="M51.185 251.245h.234v9.28h-.234z"/></g><g class="DU Fc"><path d="M51.42 251.245h.234v9.28h-.234z"/></g><g class="DU Fd"><path d="M51.653 251.245h.234v9.28h-.234z"/></g><g class="DU Fe"><path d="M51.887 251.245h.234v9.28h-.234z"/></g><g class="DU Ff"><path d="M52.12 251.245h.234v9.28h-.234z"/></g><g class="DU Fg"><path d="M52.355 251.245h.234v9.28h-.234z"/></g><g class="DU Fh"><path d="M52.59 251.245h.234v9.28h-.234z"/></g><g class="DU Fi"><path d="M52.823 251.245h.234v9.28h-.234z"/></g><g class="DU Fj"><path d="M53.057 251.245h.234v9.28h-.234z"/></g><g class="DU Fk"><path d="M53.29 251.245h.234v9.28h-.234z"/></g><g class="DU Fl"><path d="M53.525 251.245h.234v9.28h-.234z"/></g><g class="DU Fm"><path d="M53.76 251.245h.234v9.28h-.234z"/></g><g class="DU Fn"><path d="M53.993 251.245h.234v9.28h-.234z"/></g><g class="DU Fo"><path d="M54.227 251.245h.234v9.28h-.234z"/></g><g class="DU Da"><path d="M54.46 251.245h.234v9.28h-.234z"/></g><g class="DU Db"><path d="M54.695 251.245h.234v9.28h-.234z"/></g><g class="DU Db"><use xlink:href="#K"/></g><g class="DU Da"><path d="M55.17 251.245h.24v9.28h-.24z"/></g><g class="DU Fp"><path d="M55.4 251.245h.24v9.28h-.24z"/></g><g class="DU Fq"><path d="M55.65 251.245h.24v9.28h-.24z"/></g><g class="DU Fr"><path d="M55.892 251.245h.24v9.28h-.24z"/></g><g class="DU Fs"><path d="M56.133 251.245h.24v9.28h-.24z"/></g><g class="DU Ft"><path d="M56.373 251.245h.24v9.28h-.24z"/></g><g class="DU Fu"><path d="M56.614 251.245h.24v9.28h-.24z"/></g><g class="DU Fv"><path d="M56.855 251.245h.24v9.28h-.24z"/></g><g class="DU Fw"><path d="M57.096 251.245h.24v9.28h-.24z"/></g><g class="DU Fx"><path d="M57.337 251.245h.24v9.28h-.24z"/></g><g class="DU Fy"><path d="M57.578 251.245h.24v9.28h-.24z"/></g><g class="DU Fz"><path d="M57.818 251.245h.24v9.28h-.24z"/></g><g class="DU GA"><path d="M58.06 251.245h.24v9.28h-.24z"/></g><g class="DU GB"><path d="M58.3 251.245h.24v9.28h-.24z"/></g><g class="DU GC"><path d="M58.54 251.245h.24v9.28h-.24z"/></g><g class="DU GD"><path d="M58.782 251.245h.24v9.28h-.24z"/></g><g class="DU GE"><path d="M59.022 251.245h.24v9.28h-.24z"/></g><g class="DU GF"><path d="M59.263 251.245h.24v9.28h-.24z"/></g><g class="DU GG"><path d="M59.504 251.245h.24v9.28h-.24z"/></g><g class="DU GH"><path d="M59.745 251.245h.24v9.28h-.24z"/></g><g class="DU GI"><path d="M59.986 251.245h.24v9.28h-.24z"/></g><g class="DU GJ"><path d="M60.226 251.245h.24v9.28h-.24z"/></g><g class="DU GK"><path d="M60.467 251.245h.24v9.28h-.24z"/></g><g class="DU GL"><path d="M60.708 251.245h.24v9.28h-.24z"/></g><g class="DU GM"><path d="M60.95 251.245h.24v9.28h-.24z"/></g><g class="DU GN"><path d="M61.2 251.245h.24v9.28h-.24z"/></g><g class="DU GO"><path d="M61.43 251.245h.24v9.28h-.24z"/></g><g class="DU GP"><path d="M61.67 251.245h.24v9.28h-.24z"/></g><g class="DU GQ"><path d="M61.912 251.245h.24v9.28h-.24z"/></g><g class="DU GR"><path d="M62.153 251.245h.24v9.28h-.24z"/></g><g class="DU GS"><path d="M62.393 251.245h.24v9.28h-.24z"/></g><g class="DU GT"><path d="M62.634 251.245h.24v9.28h-.24z"/></g><g class="DU GU"><path d="M62.875 251.245h.24v9.28h-.24z"/></g><g class="DU GV"><path d="M63.116 251.245h.24v9.28h-.24z"/></g><g class="DU GW"><path d="M63.357 251.245h.24v9.28h-.24z"/></g><g class="DU GX"><path d="M63.597 251.245h.24v9.28h-.24z"/></g><g class="DU GY"><path d="M63.838 251.245h.24v9.28h-.24z"/></g><g class="DU GZ"><path d="M64.08 251.245h.24v9.28h-.24z"/></g><g class="DU Ga"><path d="M64.32 251.245h.24v9.28h-.24z"/></g><g class="DU Gb"><path d="M64.56 251.245h.24v9.28h-.24z"/></g><g class="DU Gc"><path d="M64.8 251.245h.24v9.28h-.24z"/></g><g class="DU Gd"><path d="M65.042 251.245h.24v9.28h-.24z"/></g><g class="DU Ge"><path d="M65.283 251.245h.24v9.28h-.24z"/></g><g class="DU Dc"><path d="M65.524 251.245h.24v9.28h-.24z"/></g><g class="DU Dc"><use xlink:href="#L"/></g><g class="DU Gf"><path d="M66.146 251.245h.38v9.28h-.38z"/></g><g class="DU Gg"><path d="M66.527 251.245h.38v9.28h-.38z"/></g><g class="DU Gh"><path d="M66.908 251.245h.38v9.28h-.38z"/></g><g class="DU Gi"><path d="M67.3 251.245h.38v9.28h-.38z"/></g><g class="DU Gj"><path d="M67.67 251.245h.38v9.28h-.38z"/></g><g class="DU Gk"><path d="M68.052 251.245h.38v9.28h-.38z"/></g><g class="DU Gl"><path d="M68.433 251.245h.38v9.28h-.38z"/></g><g class="DU Gm"><path d="M68.814 251.245h.38v9.28h-.38z"/></g><g class="DU Gn"><path d="M69.196 251.245h.38v9.28h-.38z"/></g><g class="DU Go"><path d="M69.577 251.245h.38v9.28h-.38z"/></g><g class="DU Gp"><path d="M69.958 251.245h.38v9.28h-.38z"/></g><g class="DU Gq"><path d="M70.34 251.245h.38v9.28h-.38z"/></g><g class="DU Gr"><path d="M70.72 251.245h.38v9.28h-.38z"/></g><g class="DU Gs"><path d="M71.102 251.245h.38v9.28h-.38z"/></g><g class="DU Gt"><path d="M71.483 251.245h.38v9.28h-.38z"/></g><g class="DU Gu"><path d="M71.864 251.245h.38v9.28h-.38z"/></g><g class="DU Gv"><path d="M72.246 251.245h.38v9.28h-.38z"/></g><g class="DU Gw"><path d="M72.627 251.245h.38v9.28h-.38z"/></g><g class="DU Gx"><path d="M73.008 251.245h.38v9.28h-.38z"/></g><g class="DU Gy"><path d="M73.39 251.245h.38v9.28h-.38z"/></g><g class="DU Gz"><path d="M73.77 251.245h.38v9.28h-.38z"/></g><g class="DU HA"><path d="M74.152 251.245h.38v9.28h-.38z"/></g><g class="DU HB"><path d="M74.533 251.245h.38v9.28h-.38z"/></g><g class="DU HC"><path d="M74.914 251.245h.38v9.28h-.38z"/></g><g class="DU HD"><path d="M75.295 251.245h.38v9.28h-.38z"/></g><g class="DU HE"><path d="M75.677 251.245h.38v9.28h-.38z"/></g><g class="DU HF"><path d="M76.058 251.245h.38v9.28h-.38z"/></g><g class="DU HG"><path d="M76.44 251.245h.38v9.28h-.38z"/></g><g class="DU Dd"><path d="M76.82 251.245h.38v9.28h-.38z"/></g><g class="DU Dd"><path d="M77.2 251.245h.387v9.28H77.2z"/></g><g class="DU HH"><use xlink:href="#M"/></g><g class="DU HI"><path d="M77.975 251.245h.387v9.28h-.387z"/></g><g class="DU HJ"><path d="M78.36 251.245h.387v9.28h-.387z"/></g><g class="DU HK"><path d="M78.748 251.245h.387v9.28h-.387z"/></g><g class="DU HL"><path d="M79.134 251.245h.387v9.28h-.387z"/></g><g class="DU HM"><path d="M79.52 251.245h.387v9.28h-.387z"/></g><g class="DU HN"><path d="M79.907 251.245h.387v9.28h-.387z"/></g><g class="DU HO"><path d="M80.294 251.245h.387v9.28h-.387z"/></g><g class="DU HP"><path d="M80.68 251.245h.387v9.28h-.387z"/></g><g class="DU HQ"><path d="M81.067 251.245h.387v9.28h-.387z"/></g><g class="DU HR"><path d="M81.453 251.245h.387v9.28h-.387z"/></g><g class="DU HS"><path d="M81.84 251.245h.387v9.28h-.387z"/></g><g class="DU HT"><path d="M82.226 251.245h.387v9.28h-.387z"/></g><g class="DU HU"><path d="M82.613 251.245H83v9.28h-.387z"/></g><g class="DU HV"><path d="M83 251.245h.387v9.28H83z"/></g><g class="DU HW"><path d="M83.386 251.245h.387v9.28h-.387z"/></g><g class="DU HX"><path d="M83.772 251.245h.387v9.28h-.387z"/></g><g class="DU HY"><path d="M84.16 251.245h.387v9.28h-.387z"/></g><g class="DU HZ"><path d="M84.545 251.245h.387v9.28h-.387z"/></g><g class="DU Ha"><path d="M84.932 251.245h.387v9.28h-.387z"/></g><g class="DU Hb"><path d="M85.32 251.245h.387v9.28h-.387z"/></g><g class="DU Hc"><path d="M85.705 251.245h.387v9.28h-.387z"/></g><g class="DU Hd"><path d="M86.092 251.245h.387v9.28h-.387z"/></g><g class="DU He"><path d="M86.478 251.245h.387v9.28h-.387z"/></g><g class="DU Hf"><path d="M86.865 251.245h.387v9.28h-.387z"/></g><g class="DU Hg"><path d="M87.25 251.245h.387v9.28h-.387z"/></g><g class="DU Hh"><path d="M87.638 251.245h.387v9.28h-.387z"/></g><g class="DU Hi"><path d="M88.024 251.245h.387v9.28h-.387z"/></g><g class="DU Hj"><path d="M88.41 251.245h.387v9.28h-.387z"/></g><g class="DU Hk"><path d="M88.797 251.245h.387v9.28h-.387z"/></g><g class="DU De"><path d="M89.184 251.245h.387v9.28h-.387z"/></g><g class="DU De"><path d="M89.57 251.245h.037v9.28h-.037z"/></g><defs><path id="X" d="M54.572 263.445c-3.14 0-5.593-1.666-8.2-3.43-1.372-.93-2.8-1.894-4.313-2.583l-.83-.35-1.14-.476a40.686 40.686 0 0 0-1.99-.77 5.585 5.585 0 0 0-2.722.006c-1 .358-2.022.824-3 1.274-2.235 1.02-4.547 2.073-7.137 2.113l-2.386.006H18.25v-.442h4.602l2.38-.007c2.497-.038 4.766-1.072 6.96-2.072l3.065-1.295a6.036 6.036 0 0 1 2.976-.006l2.032.784 1.98.828c1.563.707 2.998 1.68 4.385 2.624 2.54 1.724 4.94 3.353 7.93 3.353a6.856 6.856 0 0 0 1.957-.418c.563-.204 1.15-.48 1.846-.87 1.43-.728 2.823-1.75 4.298-2.834 4-2.947 8.157-5.993 13.14-2.967 2.047 1.28 3.618 2.146 5.585 2.788.897.08 1.757.092 2.554.092h6.53v.442h-6.53c-.813 0-1.694-.01-2.618-.096l-.048-.01c-2.022-.657-3.622-1.54-5.704-2.84-4.73-2.87-8.754.087-12.647 2.947-1.5 1.095-2.896 2.128-4.352 2.868-.7.398-1.317.684-1.904.896a7.29 7.29 0 0 1-2.094.444h-.001z"/></defs><clipPath id="Y"><use xlink:href="#X"/></clipPath><g class="DV DY"><path d="M18.25 252.887h.07v10.558h-.07z"/></g><g class="DV DY"><use xlink:href="#N"/></g><g class="DV Dh"><path d="M18.67 252.887h.347v10.558h-.347z"/></g><g class="DV Di"><path d="M19.016 252.887h.347v10.558h-.347z"/></g><g class="DV Dj"><path d="M19.363 252.887h.347v10.558h-.347z"/></g><g class="DV Dk"><path d="M19.7 252.887h.347v10.558H19.7z"/></g><g class="DV Dl"><path d="M20.057 252.887h.347v10.558h-.347z"/></g><g class="DV Dm"><path d="M20.404 252.887h.347v10.558h-.347z"/></g><g class="DV Dn"><path d="M20.752 252.887h.347v10.558h-.347z"/></g><g class="DV Do"><path d="M21.1 252.887h.347v10.558H21.1z"/></g><g class="DV Dp"><path d="M21.446 252.887h.347v10.558h-.347z"/></g><g class="DV Dq"><path d="M21.793 252.887h.347v10.558h-.347z"/></g><g class="DV Dr"><path d="M22.14 252.887h.347v10.558h-.347z"/></g><g class="DV Ds"><path d="M22.488 252.887h.347v10.558h-.347z"/></g><g class="DV Dt"><path d="M22.835 252.887h.347v10.558h-.347z"/></g><g class="DV Du"><path d="M23.182 252.887h.347v10.558h-.347z"/></g><g class="DV Dv"><path d="M23.53 252.887h.347v10.558h-.347z"/></g><g class="DV Dw"><path d="M23.877 252.887h.347v10.558h-.347z"/></g><g class="DV Dx"><path d="M24.224 252.887h.347v10.558h-.347z"/></g><g class="DV Dy"><path d="M24.57 252.887h.347v10.558h-.347z"/></g><g class="DV Dz"><path d="M24.918 252.887h.347v10.558h-.347z"/></g><g class="DV EA"><path d="M25.265 252.887h.347v10.558h-.347z"/></g><g class="DV EB"><path d="M25.613 252.887h.347v10.558h-.347z"/></g><g class="DV EC"><path d="M25.96 252.887h.347v10.558h-.347z"/></g><g class="DV ED"><path d="M26.307 252.887h.347v10.558h-.347z"/></g><g class="DV EE"><path d="M26.654 252.887H27v10.558h-.347z"/></g><g class="DV EF"><path d="M27.002 252.887h.347v10.558h-.347z"/></g><g class="DV EG"><path d="M27.35 252.887h.347v10.558h-.347z"/></g><g class="DV EH"><path d="M27.696 252.887h.347v10.558h-.347z"/></g><g class="DV EI"><path d="M28.043 252.887h.347v10.558h-.347z"/></g><g class="DV EJ"><path d="M28.4 252.887h.347v10.558H28.4z"/></g><g class="DV EK"><path d="M28.738 252.887h.347v10.558h-.347z"/></g><g class="DV EL"><path d="M29.085 252.887h.347v10.558h-.347z"/></g><g class="DV EM"><path d="M29.432 252.887h.347v10.558h-.347z"/></g><g class="DV EN"><path d="M29.78 252.887h.347v10.558h-.347z"/></g><g class="DV EO"><path d="M30.126 252.887h.347v10.558h-.347z"/></g><g class="DV EP"><path d="M30.474 252.887h.347v10.558h-.347z"/></g><g class="DV EQ"><path d="M30.82 252.887h.347v10.558h-.347z"/></g><g class="DV ER"><path d="M31.168 252.887h.347v10.558h-.347z"/></g><g class="DV ES"><path d="M31.515 252.887h.347v10.558h-.347z"/></g><g class="DV ET"><path d="M31.862 252.887h.347v10.558h-.347z"/></g><g class="DV EU"><path d="M32.2 252.887h.347v10.558H32.2z"/></g><g class="DV DX"><path d="M32.557 252.887h.347v10.558h-.347z"/></g><g class="DV DX"><use xlink:href="#O"/></g><g class="DV EV"><path d="M33.25 252.887h.345v10.558h-.345z"/></g><g class="DV EW"><path d="M33.594 252.887h.345v10.558h-.345z"/></g><g class="DV EX"><path d="M33.94 252.887h.345v10.558h-.345z"/></g><g class="DV EY"><path d="M34.284 252.887h.345v10.558h-.345z"/></g><g class="DV EZ"><path d="M34.63 252.887h.345v10.558h-.345z"/></g><g class="DV Ea"><path d="M34.975 252.887h.345v10.558h-.345z"/></g><g class="DV Eb"><path d="M35.32 252.887h.345v10.558h-.345z"/></g><g class="DV Ec"><path d="M35.665 252.887H36v10.558h-.345z"/></g><g class="DV Ed"><path d="M36 252.887h.345v10.558H36z"/></g><g class="DV Ee"><path d="M36.355 252.887h.345v10.558h-.345z"/></g><g class="DV Ef"><path d="M36.7 252.887h.345v10.558H36.7z"/></g><g class="DV Eg"><path d="M37.045 252.887h.345v10.558h-.345z"/></g><g class="DV Eh"><path d="M37.4 252.887h.345v10.558H37.4z"/></g><g class="DV Ei"><path d="M37.735 252.887h.345v10.558h-.345z"/></g><g class="DV Ej"><path d="M38.08 252.887h.345v10.558h-.345z"/></g><g class="DV Ek"><path d="M38.426 252.887h.345v10.558h-.345z"/></g><g class="DV El"><path d="M38.77 252.887h.345v10.558h-.345z"/></g><g class="DV Em"><path d="M39.116 252.887h.345v10.558h-.345z"/></g><g class="DV En"><path d="M39.46 252.887h.345v10.558h-.345z"/></g><g class="DV Eo"><path d="M39.806 252.887h.345v10.558h-.345z"/></g><g class="DV Ep"><path d="M40.15 252.887h.345v10.558h-.345z"/></g><g class="DV Eq"><path d="M40.496 252.887h.345v10.558h-.345z"/></g><g class="DV Er"><path d="M40.84 252.887h.345v10.558h-.345z"/></g><g class="DV Es"><path d="M41.186 252.887h.345v10.558h-.345z"/></g><g class="DV Et"><path d="M41.53 252.887h.345v10.558h-.345z"/></g><g class="DV Eu"><path d="M41.877 252.887h.345v10.558h-.345z"/></g><g class="DV Ev"><path d="M42.222 252.887h.345v10.558h-.345z"/></g><g class="DV Ew"><path d="M42.567 252.887h.345v10.558h-.345z"/></g><g class="DV Ex"><path d="M42.912 252.887h.345v10.558h-.345z"/></g><g class="DV Ey"><path d="M43.257 252.887h.345v10.558h-.345z"/></g><g class="DV Ez"><path d="M43.602 252.887h.345v10.558h-.345z"/></g><g class="DV DZ"><path d="M43.947 252.887h.345v10.558h-.345z"/></g><g class="DV DZ"><use xlink:href="#P"/></g><g class="DV FA"><path d="M44.532 252.887h.24v10.558h-.24z"/></g><g class="DV FB"><path d="M44.773 252.887h.24v10.558h-.24z"/></g><g class="DV FC"><path d="M45.013 252.887h.24v10.558h-.24z"/></g><g class="DV FD"><path d="M45.253 252.887h.24v10.558h-.24z"/></g><g class="DV FE"><path d="M45.493 252.887h.24v10.558h-.24z"/></g><g class="DV FF"><path d="M45.734 252.887h.24v10.558h-.24z"/></g><g class="DV FG"><path d="M45.974 252.887h.24v10.558h-.24z"/></g><g class="DV FH"><path d="M46.214 252.887h.24v10.558h-.24z"/></g><g class="DV FI"><path d="M46.454 252.887h.24v10.558h-.24z"/></g><g class="DV FJ"><path d="M46.695 252.887h.24v10.558h-.24z"/></g><g class="DV FK"><path d="M46.935 252.887h.24v10.558h-.24z"/></g><g class="DV FL"><path d="M47.175 252.887h.24v10.558h-.24z"/></g><g class="DV FM"><path d="M47.415 252.887h.24v10.558h-.24z"/></g><g class="DV FN"><path d="M47.656 252.887h.24v10.558h-.24z"/></g><g class="DV FO"><path d="M47.896 252.887h.24v10.558h-.24z"/></g><g class="DV FP"><path d="M48.136 252.887h.24v10.558h-.24z"/></g><g class="DV FQ"><path d="M48.376 252.887h.24v10.558h-.24z"/></g><g class="DV FR"><path d="M48.617 252.887h.24v10.558h-.24z"/></g><g class="DV FS"><path d="M48.857 252.887h.24v10.558h-.24z"/></g><g class="DV FT"><path d="M49.097 252.887h.24v10.558h-.24z"/></g><g class="DV FU"><path d="M49.337 252.887h.24v10.558h-.24z"/></g><g class="DV FV"><path d="M49.577 252.887h.24v10.558h-.24z"/></g><g class="DV FW"><path d="M49.818 252.887h.24v10.558h-.24z"/></g><g class="DV FX"><path d="M50.058 252.887h.24v10.558h-.24z"/></g><g class="DV FY"><path d="M50.298 252.887h.24v10.558h-.24z"/></g><g class="DV FZ"><path d="M50.538 252.887h.24v10.558h-.24z"/></g><g class="DV Fa"><path d="M50.78 252.887h.24v10.558h-.24z"/></g><g class="DV Fb"><path d="M51.02 252.887h.24v10.558h-.24z"/></g><g class="DV Fc"><path d="M51.26 252.887h.24v10.558h-.24z"/></g><g class="DV Fd"><path d="M51.5 252.887h.24v10.558h-.24z"/></g><g class="DV Fe"><path d="M51.74 252.887h.24v10.558h-.24z"/></g><g class="DV Ff"><path d="M51.98 252.887h.24v10.558h-.24z"/></g><g class="DV Fg"><path d="M52.22 252.887h.24v10.558h-.24z"/></g><g class="DV Fh"><path d="M52.46 252.887h.24v10.558h-.24z"/></g><g class="DV Fi"><path d="M52.7 252.887h.24v10.558h-.24z"/></g><g class="DV Fj"><path d="M52.94 252.887h.24v10.558h-.24z"/></g><g class="DV Fk"><path d="M53.18 252.887h.24v10.558h-.24z"/></g><g class="DV Fl"><path d="M53.42 252.887h.24v10.558h-.24z"/></g><g class="DV Fm"><path d="M53.66 252.887h.24v10.558h-.24z"/></g><g class="DV Fn"><path d="M53.902 252.887h.24v10.558h-.24z"/></g><g class="DV Fo"><path d="M54.142 252.887h.24v10.558h-.24z"/></g><g class="DV Da"><path d="M54.382 252.887h.24v10.558h-.24z"/></g><g class="DV Db"><path d="M54.622 252.887h.24v10.558h-.24z"/></g><g class="DV Db"><use xlink:href="#Q"/></g><g class="DV Da"><path d="M55.1 252.887h.247v10.558H55.1z"/></g><g class="DV Fp"><path d="M55.357 252.887h.247v10.558h-.247z"/></g><g class="DV Fq"><path d="M55.604 252.887h.247v10.558h-.247z"/></g><g class="DV Fr"><path d="M55.852 252.887h.247v10.558h-.247z"/></g><g class="DV Fs"><path d="M56.1 252.887h.247v10.558H56.1z"/></g><g class="DV Ft"><path d="M56.346 252.887h.247v10.558h-.247z"/></g><g class="DV Fu"><path d="M56.593 252.887h.247v10.558h-.247z"/></g><g class="DV Fv"><path d="M56.84 252.887h.247v10.558h-.247z"/></g><g class="DV Fw"><path d="M57.088 252.887h.247v10.558h-.247z"/></g><g class="DV Fx"><path d="M57.335 252.887h.247v10.558h-.247z"/></g><g class="DV Fy"><path d="M57.582 252.887h.247v10.558h-.247z"/></g><g class="DV Fz"><path d="M57.83 252.887h.247v10.558h-.247z"/></g><g class="DV GA"><path d="M58.077 252.887h.247v10.558h-.247z"/></g><g class="DV GB"><path d="M58.324 252.887h.247v10.558h-.247z"/></g><g class="DV GC"><path d="M58.57 252.887h.247v10.558h-.247z"/></g><g class="DV GD"><path d="M58.82 252.887h.247v10.558h-.247z"/></g><g class="DV GE"><path d="M59.066 252.887h.247v10.558h-.247z"/></g><g class="DV GF"><path d="M59.313 252.887h.247v10.558h-.247z"/></g><g class="DV GG"><path d="M59.56 252.887h.247v10.558h-.247z"/></g><g class="DV GH"><path d="M59.808 252.887h.247v10.558h-.247z"/></g><g class="DV GI"><path d="M60.055 252.887h.247v10.558h-.247z"/></g><g class="DV GJ"><path d="M60.302 252.887h.247v10.558h-.247z"/></g><g class="DV GK"><path d="M60.55 252.887h.247v10.558h-.247z"/></g><g class="DV GL"><path d="M60.797 252.887h.247v10.558h-.247z"/></g><g class="DV GM"><path d="M61.044 252.887h.247v10.558h-.247z"/></g><g class="DV GN"><path d="M61.29 252.887h.247v10.558h-.247z"/></g><g class="DV GO"><path d="M61.538 252.887h.247v10.558h-.247z"/></g><g class="DV GP"><path d="M61.786 252.887h.247v10.558h-.247z"/></g><g class="DV GQ"><path d="M62.033 252.887h.247v10.558h-.247z"/></g><g class="DV GR"><path d="M62.28 252.887h.247v10.558h-.247z"/></g><g class="DV GS"><path d="M62.527 252.887h.247v10.558h-.247z"/></g><g class="DV GT"><path d="M62.775 252.887h.247v10.558h-.247z"/></g><g class="DV GU"><path d="M63.022 252.887h.247v10.558h-.247z"/></g><g class="DV GV"><path d="M63.27 252.887h.247v10.558h-.247z"/></g><g class="DV GW"><path d="M63.516 252.887h.247v10.558h-.247z"/></g><g class="DV GX"><path d="M63.764 252.887h.247v10.558h-.247z"/></g><g class="DV GY"><path d="M64.01 252.887h.247v10.558h-.247z"/></g><g class="DV GZ"><path d="M64.258 252.887h.247v10.558h-.247z"/></g><g class="DV Ga"><path d="M64.505 252.887h.247v10.558h-.247z"/></g><g class="DV Gb"><path d="M64.753 252.887H65v10.558h-.247z"/></g><g class="DV Gc"><path d="M65 252.887h.247v10.558H65z"/></g><g class="DV Gd"><path d="M65.247 252.887h.247v10.558h-.247z"/></g><g class="DV Ge"><path d="M65.494 252.887h.247v10.558h-.247z"/></g><g class="DV Dc"><path d="M65.742 252.887h.247v10.558h-.247z"/></g><g class="DV Dc"><use xlink:href="#R"/></g><g class="DV Gf"><path d="M66.38 252.887h.39v10.558h-.39z"/></g><g class="DV Gg"><path d="M66.772 252.887h.39v10.558h-.39z"/></g><g class="DV Gh"><path d="M67.163 252.887h.39v10.558h-.39z"/></g><g class="DV Gi"><path d="M67.555 252.887h.39v10.558h-.39z"/></g><g class="DV Gj"><path d="M67.946 252.887h.39v10.558h-.39z"/></g><g class="DV Gk"><path d="M68.337 252.887h.39v10.558h-.39z"/></g><g class="DV Gl"><path d="M68.73 252.887h.39v10.558h-.39z"/></g><g class="DV Gm"><path d="M69.12 252.887h.39v10.558h-.39z"/></g><g class="DV Gn"><path d="M69.512 252.887h.39v10.558h-.39z"/></g><g class="DV Go"><path d="M69.903 252.887h.39v10.558h-.39z"/></g><g class="DV Gp"><path d="M70.295 252.887h.39v10.558h-.39z"/></g><g class="DV Gq"><path d="M70.686 252.887h.39v10.558h-.39z"/></g><g class="DV Gr"><path d="M71.078 252.887h.39v10.558h-.39z"/></g><g class="DV Gs"><path d="M71.47 252.887h.39v10.558h-.39z"/></g><g class="DV Gt"><path d="M71.86 252.887h.39v10.558h-.39z"/></g><g class="DV Gu"><path d="M72.252 252.887h.39v10.558h-.39z"/></g><g class="DV Gv"><path d="M72.643 252.887h.39v10.558h-.39z"/></g><g class="DV Gw"><path d="M73.035 252.887h.39v10.558h-.39z"/></g><g class="DV Gx"><path d="M73.426 252.887h.39v10.558h-.39z"/></g><g class="DV Gy"><path d="M73.817 252.887h.39v10.558h-.39z"/></g><g class="DV Gz"><path d="M74.21 252.887h.39v10.558h-.39z"/></g><g class="DV HA"><path d="M74.6 252.887h.39v10.558h-.39z"/></g><g class="DV HB"><path d="M74.992 252.887h.39v10.558h-.39z"/></g><g class="DV HC"><path d="M75.383 252.887h.39v10.558h-.39z"/></g><g class="DV HD"><path d="M75.775 252.887h.39v10.558h-.39z"/></g><g class="DV HE"><path d="M76.166 252.887h.39v10.558h-.39z"/></g><g class="DV HF"><path d="M76.558 252.887h.39v10.558h-.39z"/></g><g class="DV HG"><path d="M76.95 252.887h.39v10.558h-.39z"/></g><g class="DV Dd"><path d="M77.34 252.887h.39v10.558h-.39z"/></g><g class="DV Dd"><use xlink:href="#S"/></g><g class="DV HH"><path d="M78.13 252.887h.397v10.558h-.397z"/></g><g class="DV HI"><path d="M78.526 252.887h.397v10.558h-.397z"/></g><g class="DV HJ"><path d="M78.922 252.887h.397v10.558h-.397z"/></g><g class="DV HK"><path d="M79.32 252.887h.397v10.558h-.397z"/></g><g class="DV HL"><path d="M79.716 252.887h.397v10.558h-.397z"/></g><g class="DV HM"><path d="M80.113 252.887h.397v10.558h-.397z"/></g><g class="DV HN"><path d="M80.5 252.887h.397v10.558H80.5z"/></g><g class="DV HO"><path d="M80.907 252.887h.397v10.558h-.397z"/></g><g class="DV HP"><path d="M81.304 252.887h.397v10.558h-.397z"/></g><g class="DV HQ"><path d="M81.7 252.887h.397v10.558H81.7z"/></g><g class="DV HR"><path d="M82.098 252.887h.397v10.558h-.397z"/></g><g class="DV HS"><path d="M82.495 252.887h.397v10.558h-.397z"/></g><g class="DV HT"><path d="M82.89 252.887h.397v10.558h-.397z"/></g><g class="DV HU"><path d="M83.288 252.887h.397v10.558h-.397z"/></g><g class="DV HV"><path d="M83.685 252.887h.397v10.558h-.397z"/></g><g class="DV HW"><path d="M84.082 252.887h.397v10.558h-.397z"/></g><g class="DV HX"><path d="M84.48 252.887h.397v10.558h-.397z"/></g><g class="DV HY"><path d="M84.876 252.887h.397v10.558h-.397z"/></g><g class="DV HZ"><path d="M85.273 252.887h.397v10.558h-.397z"/></g><g class="DV Ha"><path d="M85.67 252.887h.397v10.558h-.397z"/></g><g class="DV Hb"><path d="M86.066 252.887h.397v10.558h-.397z"/></g><g class="DV Hc"><path d="M86.463 252.887h.397v10.558h-.397z"/></g><g class="DV Hd"><path d="M86.86 252.887h.397v10.558h-.397z"/></g><g class="DV He"><path d="M87.257 252.887h.397v10.558h-.397z"/></g><g class="DV Hf"><path d="M87.654 252.887h.397v10.558h-.397z"/></g><g class="DV Hg"><path d="M88.05 252.887h.397v10.558h-.397z"/></g><g class="DV Hh"><path d="M88.448 252.887h.397v10.558h-.397z"/></g><g class="DV Hi"><path d="M88.845 252.887h.397v10.558h-.397z"/></g><g class="DV Hj"><path d="M89.24 252.887h.397v10.558h-.397z"/></g><g class="DV Hk"><path d="M89.638 252.887h.397v10.558h-.397z"/></g><g class="DV De"><path d="M90.035 252.887h.397v10.558h-.397z"/></g><g class="DV De"><path d="M90.432 252.887h.038v10.558h-.038z"/></g><g class="DW"><path d="M60.602 113.832H4.855a2.032 2.032 0 0 1 0-4.065h55.747a2.032 2.032 0 1 1 0 4.065M47.215 93.85c-.704 0-1.468-.42-2.196-1.222-.83-.912-1.53-2.25-1.926-3.667-.398-1.43-.475-2.877-.215-4.076.27-1.252.875-2.068 1.7-2.297s1.75.16 2.612 1.1c.82.9 1.492 2.17 1.89 3.607.396 1.42.487 2.926.252 4.132-.252 1.295-.843 2.134-1.663 2.362a1.7 1.7 0 0 1-.455.062zm-2.167-10.883a1.3 1.3 0 0 0-.352.047c-.65.18-1.154.897-1.385 1.964-.242 1.114-.166 2.522.208 3.864.377 1.354 1.043 2.626 1.827 3.488.76.835 1.563 1.212 2.205 1.032s1.132-.915 1.348-2.02c.223-1.142.134-2.574-.244-3.93-.38-1.37-1.017-2.586-1.8-3.426-.615-.668-1.247-1.02-1.817-1.02zm-23.816 16.76c-.185 0-.37-.037-.548-.11a1.407 1.407 0 0 1-.778-.804 1.427 1.427 0 0 1 .792-1.82l6.02-2.445.167.4-6.02 2.445a.983.983 0 0 0-.546 1.253.968.968 0 0 0 .536.553.967.967 0 0 0 .77-.007l5.998-2.636.178.405-6 2.636a1.42 1.42 0 0 1-.57.12zm12.403-3.896h.442v13.935h-.442z"/><path d="M28.366 109.635l5.312-6.967.35.268-5.312 6.967z"/><path d="M33.573 102.936l.352-.268 5.31 6.968-.352.268z"/></g><path d="M36.422 89.168l-9.072 4.108a1.505 1.505 0 00-.789 1.9l.558 1.486a1.505 1.505 0 001.899.894l9.742-3.354s-3.139-3.43-2.338-5.034" class="DX"/><path d="M47.266 93.628c-2.213.5-4.677.887-6.934 1.12a4.67 4.67 0 0 1-1.573-.273c-.22-.103-.393-.282-.554-.464-.9-1-1.052-2-1.514-3.272-.183-.504-.33-1.038-.27-1.57.07-.604.4-1.15.8-1.604.727-.825 1.688-1.4 2.633-1.963l4.35-2.592s-1.322.624-1.248 3.73c.016.675.27 2.036.563 2.84.485 1.335.838 1.86 1.374 2.515 1.233 1.507 2.372 1.534 2.372 1.534z" class="DW"/><path d="M232.7 32.124c-6.894-15.98-24.027-26.773-42.08-28.903S153.993 6.88 138.984 16.9c-3.76 2.5-7.34 5.29-10.517 8.45-11.766 11.7-17.54 28.076-29.896 39.21-8.185 7.375-19.025 12.018-30.2 12.93-8.258.675-18.8.678-24.473 6.44-.737.748-.65 4.908.477 6.678 3.03 4.76 3.8 2.223 5.816 2.995a87.344 87.344 0 0 0 24.717 5.506c8.48.628 17.305-.668 24.722-4.742 3-1.653 5.744-3.732 8.7-5.473 13.214-7.784 29.9-8.2 44.934-4.942 2.675.578 6.376 1.57 7.98 1.924.827.184 6.106 1.423 13.31 2.16-.102-2.742-.22-5.484-.096-8.22a.938.938 0 0 1-.038-.251v-1.666a.96.96 0 0 1 .076-.371v-.008a.958.958 0 0 1 .063-.403c.023-.242.055-.483.097-.722a6.21 6.21 0 0 1 .498-2.175c.295-.86.76-1.637 1.564-2.282 1.546-1.243 3.813-1.936 5.77-1.506.06.014.117.032.17.053 1.076-.045 2.164-.015 3.238.01a44.98 44.98 0 0 1 1.325.021h.005l11.712.128 3.977.092 8.05-.25c2.683-.036 5.363.098 8.045.05 3.045-.054 6.248-.39 9.365-.25 6.348-7.068 9.593-25.926 4.313-38.163z" class="Dg"/><defs><path id="Z" d="M232.7 32.124c-6.894-15.98-24.027-26.773-42.08-28.903S153.993 6.88 138.984 16.9c-3.76 2.5-7.34 5.29-10.517 8.45-11.766 11.7-17.54 28.076-29.896 39.21-8.185 7.375-19.025 12.018-30.2 12.93-8.258.675-18.8.678-24.473 6.44-.737.748-.65 4.908.477 6.68 3.03 4.76 3.8 2.222 5.816 2.994a87.34 87.34 0 0 0 24.717 5.507c8.48.627 17.305-.67 24.722-4.743 3-1.653 5.744-3.732 8.7-5.473 13.214-7.784 29.9-8.2 44.934-4.942 2.675.578 6.375 1.57 7.98 1.924s19.9 4.677 36.58 1.612c20.896-3.84 25.546-11.827 30.39-17.02 6.456-6.923 9.802-26.002 4.477-38.345"/></defs><clipPath id="a"><use xlink:href="#Z"/></clipPath><g clip-path="url(#a)" class="DW"><path d="M146.297 62.027l4.648 7.597a1.574 1.574 0 1 0 2.693-1.63l-4.636-7.715"/><path d="M143.084 63c-5.073 0-9.2-4.128-9.2-9.2s4.127-9.2 9.2-9.2 9.2 4.126 9.2 9.2-4.127 9.2-9.2 9.2zm0-17.96a8.77 8.77 0 0 0-8.758 8.758 8.77 8.77 0 0 0 8.758 8.758 8.77 8.77 0 0 0 8.758-8.758 8.77 8.77 0 0 0-8.758-8.758zm51.92 16.817a2.629 2.629 0 1 1-4.137-3.245 2.629 2.629 0 0 1 4.137 3.245"/><path d="M197.605 64.345c-.445 0-1.124-.265-1.695-.532-1.16-.543-2.49-1.382-3.74-2.364-2.218-1.74-4.482-4.428-3.965-5.088.39-.5 2.248.613 3.737 1.633l3.254 2.648c.55.5 3.272 2.968 2.808 3.558-.08.102-.22.145-.4.145zm-9.076-7.804c-.037 0-.062.006-.077.017-.18.26 1.107 2.442 3.913 4.642 2.828 2.218 5.16 3.047 5.4 2.804.047-.223-.883-1.444-2.767-3.124l-3.235-2.633c-1.942-1.33-2.933-1.706-3.224-1.706zm23.5-3.452a88.78 88.78 0 0 0 2.183-2 18.73 18.73 0 0 1-.638 2.598c-.32-.877-.986-1.576-1.634-2.247l3.128 1.048c-1.027-.027-1.986.682-3.007.567M192.977 21.97c.335-.315.878-.016.787.435a49.618 49.618 0 0 1-1.049 4.237.473.473 0 0 1-.873.086c-.653-1.26-1.56-2.387-2.534-3.454-.33-.36.036-.92.498-.766l4.524 1.515c.45.15.418.794-.044.906-1.586.386-3.14 1.1-4.73 1.257-.438.043-.68-.492-.355-.788l3.776-3.428zm28.74 42.027a88.789 88.789 0 0 0 2.182-2 18.57 18.57 0 0 1-.638 2.597c-.32-.876-.985-1.575-1.633-2.246l3.127 1.047c-1.026-.026-1.985.682-3.006.568m-91.7 13.267a.468.468 0 1 1-.936 0 .468.468 0 0 1 .936 0m28.068-42.584a.468.468 0 1 1-.937 0 .468.468 0 0 1 .937 0m52.304 33.514a.468.468 0 1 1-.937 0 .468.468 0 0 1 .937 0m-24.03-29.708a.468.468 0 1 1-.937 0 .468.468 0 0 1 .937 0M58.152 84.174a.468.468 0 1 1-.937 0 .468.468 0 0 1 .937 0m68.56-46.19a.468.468 0 1 1-.936 0 .468.468 0 0 1 .936 0M107.1 66.47a.25.25 0 0 1 .415.228 26.1 26.1 0 0 1-.552 2.23.249.249 0 0 1-.46.046c-.343-.664-.82-1.257-1.333-1.818a.25.25 0 0 1 .262-.403l2.38.797a.25.25 0 0 1-.023.477c-.835.203-1.652.58-2.5.662a.24.24 0 0 1-.186-.415l1.987-1.805z"/><path d="M134.685 31.951a1.711 1.711 0 11-2.801 1.967 1.711 1.711 0 012.8-1.967"/><path d="M130.317 35.32c-.182 0-.313-.043-.377-.134-.08-.112-.317-.45 1.732-2.096l2.268-1.533c2.172-1.33 2.7-1.237 2.82-1.065.336.478-1.22 2.067-2.826 3.195-1.385.973-2.9 1.633-3.617 1.633zm-.106-.3c.222.08 1.7-.295 3.54-1.582 1.776-1.246 2.692-2.435 2.74-2.733-.24.002-1.14.37-2.384 1.13l-2.25 1.52c-1.154.927-1.614 1.498-1.648 1.665zM81.226 95.303a1.82 1.82 0 1 1-3.556.773 1.82 1.82 0 0 1 3.556-.773"/><path d="M77.07 96.99c-1.015 0-1.75-.163-1.82-.475-.03-.14-.122-.564 2.556-1.33l2.855-.567c.92-.14 3.078-.4 3.19.112.127.583-2.05 1.512-4.08 1.954-.947.206-1.9.305-2.702.305zm-1.503-.534c.167.178 1.776.433 4.138-.08 2.297-.5 3.683-1.3 3.826-1.564-.218-.103-1.257-.118-2.82.12l-2.83.56c-1.542.44-2.226.817-2.314.963z"/></g><g class="DW"><path d="M205.004 155.64l-18.357.007-.003-.015-41.4.015c-1.198 0-2.173-.975-2.173-2.173a2.18 2.18 0 0 1 2.174-2.174l58.97-.02.105-.443-59.076.02a2.62 2.62 0 0 0-2.615 2.617 2.62 2.62 0 0 0 2.615 2.615l60.012-.006a9.191 9.191 0 0 1-.253-.443zm9.753-.003l.2.442 31.814-.01.086-.443-32.1.01zm33.062-4.8l-.003-.015-40.7.014c.1.143.187.3.262.443h40.486l.126-.443h-.18zm23.654 73.113l19.603 69h24.903l-26.802-69.36z"/><path d="M292.35 294.034c-1.04-1.752-2.468-3.8-4.798-3.47-.978.142-1.8.794-2.023 1.78-.256 1.128.193 2.315.783 3.264.695 1.118 1.667 2.028 2.664 2.87.3.245.712-.172.42-.42-.776-.655-1.54-1.345-2.16-2.154-.605-.79-1.142-1.76-1.185-2.776-.038-.928.442-1.704 1.36-1.936.827-.2 1.695.03 2.372.526.905.66 1.493 1.668 2.055 2.615.195.328.708.03.512-.3"/><path d="M286.92 295.167a2.832 2.832 0 0 0-.88-.613c-.262-.116-.796-.355-1.048-.138-.48.412-.594 1.205-.518 1.79.192 1.478 1.46 2.36 2.62 3.105.322.207.62-.306.3-.512-.757-.486-1.577-1-2.04-1.8-.374-.647-.476-1.573.058-2.164l-.2.087c.498.064.95.308 1.3.664.267.273.687-.147.42-.42"/><path d="M285.416 296.994c-.568-.21-1.173-.384-1.754-.122a1.1 1.1 0 0 0-.628 1.307c.142.537.566 1.02.95 1.404.4.402.866.742 1.368 1.004.34.176.64-.336.3-.512-.772-.403-1.528-1.026-1.944-1.805-.09-.17-.173-.385-.096-.575a.592.592 0 0 1 .32-.298c.428-.185.92.02 1.326.17.15.055.325-.063.365-.208.045-.165-.056-.3-.207-.365"/><path d="M284.41 299.335c-.66-.592-1.918-1.088-2.516-.132-.245.394-.205.894-.034 1.306.2.456.513.784.91 1.066.458.325.973.57 1.348 1 .253.287.67-.134.42-.42-.283-.322-.644-.56-1.003-.786-.32-.202-.67-.402-.91-.703-.196-.248-.355-.6-.31-.924.043-.294.3-.485.58-.487.404-.002.8.24 1.09.5.284.254.705-.164.42-.42"/><path d="M283.354 301.434c-.7-.83-2.06-.305-2.37.622-.38 1.137.46 2.285 1.393 2.846 1.972 1.188 4.472.48 6.536 1.395 2.014.892 3.02 3.082 4.447 4.628.73.792 1.612 1.467 2.664 1.76 1.04.3 2.17.2 3.183-.14 1.056-.368 2.027-1.018 2.732-1.9.824-1.02 1.205-2.247 1.13-3.554-.084-1.437-.58-2.8-1-4.172a29.066 29.066 0 0 1-.273-.936c-.016-.056-.022-.137-.014-.065a6.953 6.953 0 0 1-.034-.432c-.156-2.766-.062-5.558-.033-8.326a874.47 874.47 0 0 1 .106-7.344c.008-.382-.586-.382-.593 0a873.442 873.442 0 0 0-.087 5.63l-.026 8.833.043 1.282c.03.48.15.896.3 1.36.405 1.33.918 2.672 1.02 4.07.092 1.266-.257 2.46-1.104 3.417-1.366 1.547-3.746 2.366-5.706 1.512-1.9-.83-2.93-2.87-4.23-4.376-.676-.783-1.465-1.47-2.434-1.86-1-.405-2.1-.48-3.164-.572-1.016-.087-2.1-.157-3.022-.655-.474-.26-.9-.637-1.138-1.128-.23-.473-.295-1.16.172-1.517.326-.25.813-.298 1.094.034.247.292.665-.13.42-.42m6.976-14.306l.43-.1 3.653 15.675-.43.1zM240.13 151.24h-29.115l-.05-.152c-.353-1.073.432-2.314 1.357-2.757.864-.414 1.83-.424 2.766-.433l.157-.002c1.522-.018 3.1-.156 4.244-1.038 1.398-1.068 1.862-2.922 2.25-4.888.124-.634.155-1.505-.135-2.052l-.172-.324h8.097l-.172.324c-.262.496-.105 1.28.02 1.9l.03.143c.388 1.967.852 3.82 2.25 4.888 1.155.882 2.722 1.02 4.244 1.038l.157.002c.935.01 1.9.02 2.765.433.925.443 1.7 1.684 1.358 2.757l-.05.152zm-28.784-.442H239.8c.15-.8-.47-1.735-1.168-2.068-.775-.372-1.692-.38-2.58-.4l-.158-.002c-1.597-.02-3.25-.17-4.506-1.13-1.52-1.16-2-3.1-2.416-5.154l-.028-.14c-.118-.586-.26-1.3-.104-1.878h-6.7c.25.777.1 1.72.042 2.02-.405 2.052-.895 3.992-2.416 5.153-1.257.96-2.9 1.1-4.507 1.13h-.158c-.886.01-1.803.02-2.58.4-.697.334-1.316 1.278-1.167 2.07z"/><path d="M266.405 70.264h-86.012c-3.234 0-5.865 2.7-5.865 6.016v57.736c0 3.317 2.63 6.016 5.864 6.016h70.37l.174-.442h-70.544c-3 0-5.422-2.5-5.422-5.574V76.28c0-3.073 2.433-5.574 5.422-5.574h86.012c3 0 5.423 2.5 5.423 5.574V126l.442-.037V76.28c0-3.317-2.63-6.016-5.864-6.016zm1.902 55.542V80.618a5.643 5.643 0 0 0-5.642-5.644h-78.53a5.643 5.643 0 0 0-5.642 5.644v46.818a5.643 5.643 0 0 0 5.642 5.644h70.63c3.122-4.025 8.555-6.528 13.542-7.274z"/></g><g fill="#fff"><path d="M223.177 103.35l-7.908 5.72a.38.38 0 0 0 .3.675l11.203-2.38s.264-1.707-.65-3.356a2.018 2.018 0 0 0-2.946-.657m5.243-3.395c.144.825.912 1.478 1.746 1.504s1.63-.6 1.824-1.4c.09-.37-.483-.53-.573-.157a1.28 1.28 0 0 1-1.251.974c-.59-.018-1.075-.507-1.173-1.07-.028-.157-.22-.246-.365-.207-.167.046-.235.207-.207.366"/><path d="M223.332 107.99a97.312 97.312 0 0 1 3.327 14.385l.543-.23c-1.5-2.848-4.294-5.304-7.703-4.978l.15.552a8.691 8.691 0 0 1 5.635-1.702c.382.02.38-.573 0-.593a9.203 9.203 0 0 0-5.935 1.783c-.208.154-.177.584.15.553 3.213-.307 5.8 2.007 7.2 4.685.168.32.6.08.542-.23a97.357 97.357 0 0 0-3.327-14.385c-.114-.363-.687-.208-.572.158m10.702 2.09l-4.643 12.294c-.126.334.362.487.543.23 1.92-2.75 4.926-4.652 8.222-5.247.31-.056.25-.484 0-.572a18.384 18.384 0 0 0-5.59-1.015c-.382-.01-.382.584 0 .593a17.84 17.84 0 0 1 5.432.994v-.572c-3.45.623-6.572 2.647-8.577 5.52l.542.228 4.643-12.294c.135-.358-.44-.513-.572-.158"/><path d="M221.945 117.537c-1.96 1.474-4.37 2.03-6.622 2.896-2.012.772-4.07 1.87-5.2 3.778-.72 1.208-.96 2.614-1.183 3.982-.06.374.51.535.572.158.193-1.188.383-2.418.937-3.5.5-.958 1.247-1.742 2.125-2.355 1.856-1.296 4.063-1.856 6.157-2.636 1.242-.462 2.46-1 3.524-1.8.3-.226.006-.742-.3-.512m13.355 1.023a83.465 83.465 0 0 1 6.746 1.715c.5.148.978.3 1.4.6.422.274.763.664 1.047 1.077a9.568 9.568 0 0 1 1.31 2.84 10.1 10.1 0 0 1 .338 3.486c-.028.38.565.38.594 0a10.567 10.567 0 0 0-1.516-6.297c-.558-.907-1.26-1.612-2.26-2-1.094-.434-2.276-.7-3.41-1a87.092 87.092 0 0 0-4.1-.974c-.373-.08-.532.493-.158.573m-13.384-14.277c-.643-2.25-1.1-4.88.196-6.992 1.194-1.946 3.508-3.075 5.717-3.36 2.235-.287 4.62.227 6.435 1.592.84.632 1.573 1.475 1.953 2.465.475 1.236.355 2.578.118 3.852-.523 2.8-1.4 5.53-2.3 8.238-.12.363.452.52.572.158l2.237-7.906c.27-1.35.467-2.777.073-4.123-.313-1.072-.977-2.015-1.806-2.754-1.792-1.596-4.28-2.317-6.654-2.173s-4.858 1.15-6.38 3.04c-1.882 2.34-1.504 5.422-.733 8.12.105.366.678.2.573-.158m-20.892 11.336c-.647-.818-.942-1.88-1.186-2.874-.124-.503-.283-1.028-.34-1.543-.026-.253-.012-.557.196-.735.237-.203.5-.017.683.165.414.4.74.92 1.04 1.415.253.42.582.846 1.122.845.5-.002.723-.4.83-.836.044-.17.07-.4.275-.453.188-.04.418.123.537.25.34.36.45 1 .528 1.47.09.525.114 1.1-.017 1.61-.093.37.48.528.572.157.264-1.045.08-2.343-.41-3.298-.222-.434-.688-.793-1.192-.78-.59.014-.76.52-.9.997-.08.3-.28.378-.528.17-.254-.2-.395-.576-.574-.847-.338-.5-.754-1.183-1.328-1.45-.52-.243-1.074.013-1.314.514-.28.586-.045 1.274.1 1.87.297 1.317.635 2.696 1.488 3.776.237.3.654-.123.42-.42"/><path d="M205.364 114.388a7.292 7.292 0 0 1-3.128 1.337c-.565.095-1.122.1-1.692.075-.468-.012-.973.1-1.16.582-.197.506.057 1.095.196 1.583a441.152 441.152 0 0 0 1.691 5.773l1.313 4.303c.113.363.686.208.572-.158a477.028 477.028 0 0 1-2.175-7.214l-1.023-3.553c-.05-.198-.122-.506.078-.646.19-.134.514-.076.73-.067a7.739 7.739 0 0 0 1.578-.098 7.68 7.68 0 0 0 3.319-1.405c.304-.225.008-.74-.3-.512"/><path d="M205.42 114.755l3.936 11.56c.123.36.696.204.573-.16l-3.937-11.56c-.123-.36-.696-.205-.573.158m23.167 10.207c.136-.1.137-.1.236-.236a.155.155 0 0 0 .01-.015l.004-.008.063-.147c.022-.058.026-.152.03-.193a.19.19 0 0 0 .001-.039 1.536 1.536 0 0 0-.023-.174l-.005-.018a.802.802 0 0 0-.075-.173.681.681 0 0 0-.246-.25.44.44 0 0 0-.24-.08.449.449 0 0 0-.236.01l-.142.06a.598.598 0 0 0-.213.213c-.042.075-.073.153-.106.233a.365.365 0 0 0-.015.048.99.99 0 0 0-.029.229c.002.03.008.062.012.087l.012.088a1.025 1.025 0 0 0 .072.18.71.71 0 0 0 .249.252c.047.032.132.06.165.072h.03l.085.01.084.012h.013a.666.666 0 0 0 .653-.494l.02-.157a.448.448 0 0 0-.05-.229.448.448 0 0 0-.124-.191l-.006-.008-.163-.206a.59.59 0 0 0-.261-.153.447.447 0 0 0-.237-.01.442.442 0 0 0-.22.07.595.595 0 0 0-.214.213 1.39 1.39 0 0 0-.097.22c-.012.037-.015.077-.02.115l-.012.098h0l.001.01.02.157c.001.007.002.013.005.02v.005l.03.07.03.074a.636.636 0 0 0 .119.152 2.313 2.313 0 0 0 .129.099l.012.007a1.317 1.317 0 0 0 .166.068l.168.022c.028 0 .076-.01.1-.01.024-.003.063-.005.092-.014l.07-.03.074-.03.005-.004a.672.672 0 0 0 .128-.098c.036-.035.107-.14.1-.128l.003-.004.002-.004.06-.142c.008-.028.008-.05.012-.087s.012-.056.01-.087a.627.627 0 0 0-.086-.313 2.93 2.93 0 0 0-.104-.134.688.688 0 0 0-.137-.103.635.635 0 0 0-.64-.002l-.12.092-.002.001a48.519 48.519 0 0 1-.095.122l-.002.004-.002.003-.06.142a.926.926 0 0 0-.023.168.447.447 0 0 0 .051.23.444.444 0 0 0 .123.19.445.445 0 0 0 .191.123.44.44 0 0 0 .229.05l.158-.02a.592.592 0 0 0 .261-.153l.094-.12a.592.592 0 0 0 .08-.3v-.004l-.02.158.001-.007a28.485 28.485 0 0 1-.056.136l-.093.12.004-.003-.12.092a.021.021 0 0 1 .004-.002l-.14.06.007-.002-.158.02h.01l-.158-.02a.07.07 0 0 1 .016.004l-.142-.06a.086.086 0 0 1 .018.011 32.346 32.346 0 0 0-.109-.082l-.092-.12a.1.1 0 0 1 .006.011l-.06-.142a.035.035 0 0 1 .002.008l-.02-.158v.008l.02-.158a50.699 50.699 0 0 0 .058-.134l-.004.01.092-.12a.068.068 0 0 1-.01.01l.12-.093a.053.053 0 0 1-.012.007l.142-.06a.058.058 0 0 1-.014.004l.158-.02a.07.07 0 0 1-.017 0l.158.02a.108.108 0 0 1-.023-.005l.142.06a.118.118 0 0 1-.024-.014l.12.092a.12.12 0 0 1-.018-.017l.093.12a.1.1 0 0 1-.011-.019l.06.142a.11.11 0 0 1-.007-.026l.02.158a.148.148 0 0 1 0-.037l-.02.158a.26.26 0 0 1 .016-.054l-.06.14.03-.06-.932.12.17.215-.153-.578a.114.114 0 0 1-.005.015l.06-.14a.078.078 0 0 1-.008.014l.092-.12a.058.058 0 0 1-.011.012l.12-.093a.084.084 0 0 1-.016.01l.14-.06a.121.121 0 0 1-.024.006l.158-.02a.14.14 0 0 1-.034 0l.158.02a.17.17 0 0 1-.038-.01l.142.06a.132.132 0 0 1-.029-.017l.12.093a.106.106 0 0 1-.019-.019l.093.12a.095.095 0 0 1-.013-.02l.06.14a.157.157 0 0 1-.01-.041l.02.158a.229.229 0 0 1 0-.05l-.02.157a.328.328 0 0 1 .023-.082l-.06.142a.83.83 0 0 1 .045-.086l-.812.212a.12.12 0 0 1 .023.015l-.12-.093a.14.14 0 0 1 .021.021l-.093-.12c.007.01.014.02.018.03l-.06-.142a.167.167 0 0 1 .011.042l-.02-.158a.172.172 0 0 1 0 .043l.02-.158a.153.153 0 0 1-.01.035l.06-.14a.144.144 0 0 1-.016.028l.093-.12a.11.11 0 0 1-.022.021l.12-.092a.45.45 0 0 0-.286.593.441.441 0 0 0 .07.22l.094.12a.59.59 0 0 0 .262.153l.157.02a.594.594 0 0 0 .3-.081m-.31 2.162h.006a2.92 2.92 0 0 0 .16-.021l.01-.003c.004 0 .14-.058.143-.06l.004-.002c.022-.013.064-.05.064-.05-.02.017.046-.032.063-.048a11.864 11.864 0 0 0 .098-.126l.003-.004a.043.043 0 0 0 .003-.006l.002-.003a12.48 12.48 0 0 0 .064-.156v-.003a7.23 7.23 0 0 0 .022-.16v-.02a3.06 3.06 0 0 0-.021-.16v-.003l-.002-.006-.002-.007-.001-.003a4.9 4.9 0 0 0-.067-.155 8.225 8.225 0 0 0-.096-.123l-.005-.005a11.213 11.213 0 0 0-.121-.093l-.003-.002-.004-.003a.566.566 0 0 0-.154-.063 7.948 7.948 0 0 0-.159-.021h-.007l-.08.01a.293.293 0 0 0-.15.04l-.07.03-.125.097a3.667 3.667 0 0 0-.125.157l-.008.01a.189.189 0 0 0-.018.032l-.06.145-.003.007a.153.153 0 0 0-.007.023.8.8 0 0 0-.012.088l-.012.1v.01l.001.006a3.493 3.493 0 0 0 .024.17l.002.006a2.792 2.792 0 0 0 .072.163l.093.12.003.002.002.003h.003l.12.093.005.003.002.001a9.653 9.653 0 0 0 .157.064l.16.022h.01c.028-.002.07-.01.084-.01l.087-.012.013-.005a5.66 5.66 0 0 0 .143-.06l.003-.002a.123.123 0 0 0 .016-.01 6.42 6.42 0 0 0 .132-.103l.004-.004a2.822 2.822 0 0 0 .095-.125l.003-.004v-.003l.06-.142.001-.002.002-.005v-.003l.02-.158v-.006l-.02-.158v-.004l-.002-.002a6.232 6.232 0 0 0-.06-.143l-.003-.005c0-.002-.092-.12-.093-.12l-.005-.005a2.888 2.888 0 0 0-.122-.094l-.005-.004-.07-.03a.295.295 0 0 0-.15-.04c.05.007-.058-.012-.083-.01s-.06.007-.084.01c.01 0-.06.006-.084.013s-.1.037-.076.03l-.075.032a.582.582 0 0 0-.129.1c-.017.016-.07.1-.05.063l-.05.064-.002.005c-.01.022-.06.14-.03.073a.53.53 0 0 0-.032.074.102.102 0 0 0-.003.011v.004l-.022.16v.022l.023.167a.08.08 0 0 0 .004.012c.008.024.03.07.03.073a.84.84 0 0 0 .031.073l.004.006.05.067c-.044-.058.032.044.048.062l.006.006a3.93 3.93 0 0 0 .122.094c.024.016.055.025.08.035a.62.62 0 0 0 .075.031l.003.001a3.87 3.87 0 0 0 .16.021c.03.002.063-.007.1-.01l.085-.012.07-.03a.294.294 0 0 0 .131-.076.3.3 0 0 0 .107-.107.204.204 0 0 0 .047-.061 1.609 1.609 0 0 0 .074-.182l.002-.01a3.124 3.124 0 0 0 .024-.189l-.001-.022a3.797 3.797 0 0 0-.03-.2l-.004-.01a3.117 3.117 0 0 0-.063-.149.223.223 0 0 0-.024-.04 3.009 3.009 0 0 0-.097-.125l-.007-.01a3.976 3.976 0 0 0-.14-.11l-.07-.03a.296.296 0 0 0-.15-.04l-.08-.01h-.002l-.158.02-.008.002a9.866 9.866 0 0 0-.149.064c-.01.006-.113.087-.122.094l-.004.005c-.016.015-.118.152-.048.06.042-.054-.035.042-.047.062a.091.091 0 0 0-.005.008l-.03.072a.674.674 0 0 0-.032.073l-.002.014c-.003.012-.02.146-.023.16v.004c0 .03.01.074.01.093s.005.064.014.093l.06.143.006.01v.001l.047.06c-.05-.066.032.045.048.062l.006.006.12.093a9.506 9.506 0 0 0 .156.066h.003c.025.007.136.02.16.022a.444.444 0 0 0 .23-.05.446.446 0 0 0 .19-.123.443.443 0 0 0 .123-.191.446.446 0 0 0 .051-.23l-.02-.157a.596.596 0 0 0-.153-.262l-.12-.092a.594.594 0 0 0-.3-.082h-.002l.158.02.133.058a.038.038 0 0 1-.009-.005l.12.092a21.349 21.349 0 0 1 .08.101l.06.142a.09.09 0 0 1-.005-.015l.022.158v-.018l-.022.158a.096.096 0 0 1 .005-.018l-.06.142a.056.056 0 0 1 .007-.01l-.093.12a.07.07 0 0 1 .007-.008l-.12.093a.028.028 0 0 1 .008-.004l-.142.06.008-.003-.158.022h.003l-.42-.175c.012.01.022.02.03.032l-.093-.12a.19.19 0 0 1 .024.041l-.06-.142a.218.218 0 0 1 .015.053l-.02-.158a.217.217 0 0 1 0 .051l.02-.157a.202.202 0 0 1-.012.046l.06-.142-.006.012.355-.272h-.007l.158-.02h-.01l.157.02a17.117 17.117 0 0 1 .124.052l.12.094a.068.068 0 0 1-.008-.009l.092.12a.08.08 0 0 1-.008-.014l.06.14a.098.098 0 0 1-.007-.023l.022.158a.11.11 0 0 1 0-.025l-.022.158a.102.102 0 0 1 .005-.018l-.06.14a.063.063 0 0 1 .007-.01l-.093.12a.057.057 0 0 1 .008-.008l-.12.093a.026.026 0 0 1 .007-.005l-.142.06a.049.049 0 0 1 .011-.003l-.157.02h.008l-.3-.08a.094.094 0 0 1 .006.004l-.12-.093a.048.048 0 0 1 .007.007l-.093-.12.003.006-.06-.142.002.006-.02-.157v.006l.02-.158a.04.04 0 0 1-.003.01l.06-.142a.06.06 0 0 1-.007.012l.093-.12a.095.095 0 0 1-.015.014l.12-.093a.103.103 0 0 1-.02.012l.14-.06a.082.082 0 0 1-.02.007l.157-.02h-.017l.158.02a.053.053 0 0 1-.014-.003l.142.06-.01-.006.12.093-.007-.008.093.12a.087.087 0 0 1-.011-.02l.06.142a.092.092 0 0 1-.006-.02l.02.158a.117.117 0 0 1 0-.028l-.02.158a.146.146 0 0 1 .01-.039l-.06.142a.227.227 0 0 1 .03-.05l-.093.12a.294.294 0 0 1 .034-.037l-.42.174h.01l-.158-.02.01.003-.142-.06a21.349 21.349 0 0 0-.102-.079l-.093-.12a.062.062 0 0 1 .007.012l-.06-.142a.095.095 0 0 1 .005.02l-.02-.157v.023l.02-.157a.087.087 0 0 1-.004.018l.06-.142a32.346 32.346 0 0 0 .077-.098l.12-.093-.01.005.142-.06a35.404 35.404 0 0 0 .148-.019h-.008a.448.448 0 0 0-.229.052.446.446 0 0 0-.191.122.441.441 0 0 0-.123.192.445.445 0 0 0-.05.228l.02.158a.6.6 0 0 0 .153.262l.12.093a.6.6 0 0 0 .3.08m-38.83 5.096h-3.3a.633.633 0 0 1-.632-.633v-1.233c0-.35.284-.633.632-.633h3.3c.35 0 .632.284.632.633v1.233a.633.633 0 0 1-.632.633zm-3.3-2.056a.19.19 0 0 0-.19.19v1.233a.19.19 0 0 0 .19.19h3.3a.19.19 0 0 0 .19-.19v-1.233a.19.19 0 0 0-.19-.19h-3.3z"/><path d="M191.035 132.1l-1.267-.552.177-.406.647.282v-.794l-.613.41-.245-.368 1.3-.867zm29.368-1.65a.772.772 0 1 1-1.543 0 .772.772 0 0 1 1.543 0"/><path d="M220.78 132.183h-2.296a1.147 1.147 0 0 1 2.295 0m10.064.084a.33.33 0 0 1-.234-.097l-1.8-1.8-1.802 1.8a.332.332 0 1 1-.469-.468l2.036-2.036a.332.332 0 0 1 .469 0l2.036 2.036a.332.332 0 0 1-.235.566zm8.1-1.363a1.237 1.237 0 1 1-2.473 0 1.237 1.237 0 0 1 2.473 0m7.152-.077h-1.545a.27.27 0 0 1 0-.54h1.545a.27.27 0 0 1 0 .54m.033 1.008h-1.545a.27.27 0 0 1 0-.539h1.545a.27.27 0 0 1 0 .54M221.612 96.83a17.119 17.119 0 0 1-1.914-2.097c-.454-.593-1.3-1.53-1.004-2.345.125-.343.44-.6.815-.47.436.16.825.597 1.18.887.396.325 1.512 1.508 1.92.568.13-.298.026-.645-.11-.92-.186-.38-.41-.747-.627-1.112l-1.275-2.27c-.345-.73-.674-1.596-.645-2.416.01-.263.098-.744.46-.678.392.072.7.642.902.945.986 1.55 1.522 3.606 3.34 4.423.157.07.4.03.436-.178.132-.75-.098-1.665.3-2.35.144-.253.406-.533.724-.515s.514.305.646.56c.352.688.533 1.508.723 2.252a22.23 22.23 0 0 1 .499 2.584c.05.373.643.378.593 0a23.557 23.557 0 0 0-.606-3.07 20.734 20.734 0 0 0-.466-1.51c-.127-.36-.277-.726-.54-1.008-.57-.607-1.424-.46-1.915.16-.64.806-.356 1.802-.52 2.738l.436-.178c-1.758-.788-2.227-2.86-3.2-4.336-.394-.6-1.195-1.573-1.966-.9-.602.518-.433 1.508-.276 2.18.428 1.832 1.643 3.3 2.462 4.942.03.06.18.36.106.415s-.513-.368-.598-.44l-1.254-1.024c-.325-.247-.712-.442-1.132-.358-.37.074-.678.346-.852.673-.508.954.134 1.938.688 2.704a17.797 17.797 0 0 0 2.27 2.571c.28.26.7-.158.42-.42"/></g><g class="DW"><path d="M96.083 282.93a53.38 53.38 0 0 0-1.699-7.996c-1.122-5.58-4.026-18.26-5.98-23.756-1.602-4.505-3.735-9.64-7.403-13.576l-.004-.005-.5.058.165.22a.26.26 0 0 0 .016.02c3.62 3.878 5.73 8.966 7.32 13.43 1.948 5.478 4.847 18.143 5.966 23.707a.205.205 0 0 0 .005.021c.046.15 4.538 14.865-.3 18.608a.222.222 0 0 0-.034.033c-.05.06-5.2 6.015-16.966 7.86-6.765 1.062-36.71-.418-46.396-3.836-6.155-2.173-12.203-4.944-14.76-10.47-2.306-4.98 2.04-27.693 4.47-32.53 1.24-2.468 2.778-4.83 4.265-7.114 1.52-2.335 3.1-4.75 4.354-7.288 1.254-2.518 2.228-5.202 3.17-7.8.677-1.868 1.378-3.8 2.177-5.65 2.322-5.38 5.15-9.02 8.65-11.13 2.147-1.293 4.367-1.84 6.422-1.84 2.743 0 5.2.977 6.768 2.46a.211.211 0 0 0 .027.022 17.53 17.53 0 0 1 .322.22l.082-.48-.14-.097c-1.708-1.598-4-2.477-6.63-2.543a13.295 13.295 0 0 0-7.079 1.88c-3.58 2.16-6.468 5.866-8.828 11.334-.804 1.863-1.507 3.8-2.187 5.674-.938 2.585-1.907 5.258-3.15 7.754-1.253 2.515-2.817 4.918-4.33 7.243-1.493 2.294-3.037 4.667-4.29 7.157-2.607 5.184-6.85 27.8-4.478 32.915 2.626 5.673 8.77 8.496 15.015 10.7 7.77 2.742 27.488 4.216 39.122 4.216 3.298 0 5.948-.118 7.5-.36 11.6-1.82 16.887-7.617 17.22-7.994 2.128-1.667 2.844-5.4 2.127-11.068z"/><path d="M77.773 237.246l-8.177-.58c-3.248-.467-6.607-.95-9.706-2.173-3.42-1.35-6.076-3.524-7.48-6.12l-.4.2c1.454 2.7 4.2 4.934 7.708 6.322 3.147 1.242 6.53 1.73 9.805 2.2 1.215.175 5.657.496 8.772.602a.86.86 0 0 1-.532-.461zm1.5.488l.768.01a16.26 16.26 0 0 0 .79-.016l-.006-.1a23.56 23.56 0 0 1-1.552.117zM126.7 306.7h-.06l.012-.442c.94.025 1.87-.636 2.16-1.533.058-.18.106-.43.007-.615a.41.41 0 0 0-.275-.198c-.1-.01-.175.026-.262.116l-.32-.306c.235-.244.478-.27.64-.248.297.04.5.254.604.425.14.258.15.582.026.962-.34 1.058-1.423 1.84-2.533 1.84zm3.582-68.673l-.745-.115a.803.803 0 0 1 .004.11v.002l.74.003zm17.486-14.673c-6.595-7.427-23.413-9.536-36.416-11.235-.034.145.743.24.706.384 12.94 1.7 28.885 3.83 35.38 11.145 5.65 6.363 9.853 18.354-2.2 39.347-3.78 6.58-15.688 20.383-27.138 31.463l-7.765-2.107a1.034 1.034 0 0 1-.463.332l8.354 2.268.1-.088c11.504-11.12 23.498-25.02 27.306-31.648 4.123-7.176 6.645-13.897 7.497-19.978 1.113-7.948-.684-14.638-5.342-19.883z"/><path d="M128.737 301.315c-.405-.496-1.125-.725-1.923-.612-.46.065-.894.224-1.314.378l-.52.184c-1.868.606-3.95.35-5.436-.67-1.562-1.07-2.948-4.393-2.602-6.238l.038-.2-6.654-1.806a1.065 1.065 0 0 1-.274.243c-1.044 1.985-1.418 6.4-1.384 8.38.103.02.204.05.298.096l.16.08-.015-.108c-.054-2.262.382-6.394 1.3-8.206l6.054 1.643c-.25 2.04 1.167 5.35 2.818 6.482 1.596 1.095 3.827 1.373 5.822.726l.536-.2c.417-.152.8-.296 1.224-.355.497-.07 1.157.01 1.518.454.38.468.285 1.173-.006 1.628s-.793.814-1.496 1.075l.155.415c.794-.295 1.37-.716 1.713-1.252.44-.687.43-1.6-.023-2.146zm-.042 4.44l-.366.247a1.23 1.23 0 0 1 .184 1.05c-.136.497-.573.986-1.115 1.244-1.435.683-3.147.336-4.33-.075-.633-.22-1.26-.496-1.87-.763l-2.428-.946c-1.66-.487-3.03-.64-4.308.2l-.04.007a1.77 1.77 0 0 1-.23.475c.24-.02.4-.055.4-.06l.038-.01.033-.022c1.146-.768 2.417-.622 3.974-.165.8.238 1.606.587 2.374.926l1.902.776c.932.324 1.813.486 2.618.486.756 0 1.445-.143 2.047-.43.663-.316 1.18-.9 1.352-1.527.133-.5.05-.98-.245-1.413zM81.627 171.66l-.387-.215c.493-.888 1.586-1.724 2.542-1.946l.1.43c-.833.193-1.824.953-2.255 1.73z"/><path d="M107.087 295.25l-12.06-2.68.183-.27 35.33-52.085c.28-.462.287-1.03.012-1.507a1.478 1.478 0 0 0-1.317-.742c-4.145.085-10.765-.02-17.167-.12l-14.298-.102c-4.442.126-22.54.272-27.225-.704-5.215-1.086-9.548-3.55-12.2-6.94-2.723-3.478-3.835-8.14-2.976-12.472s3.666-8.218 7.5-10.394l.055-.03.063.003 29.547 1.327 2.508.468c10.4 1.926 37.988 7.044 42.9 10.252 6.404 4.182 9.433 9.497 9.262 16.248-.162 6.395-3.27 13.2-5.96 18.414-8.037 15.577-22.478 29.812-34.08 41.25l-.086.084zm-11.328-2.97l11.19 2.486c11.566-11.4 25.928-25.576 33.913-41.053 2.668-5.172 5.752-11.917 5.912-18.222.167-6.586-2.797-11.776-9.06-15.867-4.84-3.16-33.365-8.45-42.74-10.187l-2.494-.466-29.436-1.32c-3.704 2.12-6.408 5.876-7.238 10.063a15.13 15.13 0 0 0 2.89 12.114c2.588 3.306 6.83 5.714 11.943 6.78 4.646.967 22.7.82 27.122.693 2.8-.08 8.4.01 14.316.102l17.152.12a1.908 1.908 0 0 1 1.71.965c.356.62.348 1.354-.023 1.965L95.76 292.28z"/><path d="M134.167 239.9a.221.221 0 0 1-.205-.304c.613-1.5.647-2.7.098-3.47-.495-.687-1.466-1.005-2.807-.917a.221.221 0 0 1-.029-.442c1.502-.097 2.606.284 3.195 1.1.642.9.626 2.238-.047 3.896a.221.221 0 0 1-.205.138zm-22.563 68.54a5.563 5.563 0 0 1-2.6-.642c-.44-.234-.845-.526-1.237-.8l-1.13-.747c-2.103-1.152-4.75-.776-6.878-.473-2 .284-4.022.36-5.263-.996-1.198-1.308-1-3.268-.6-5.2.143-.702.585-2.06 1.054-3.497L96 292.62l.044-.22 6.873 1.45v.18l-.006.597c-.02 1.15-.037 2.06.764 3.03.96 1.162 2.292 1.995 3.24 2.5 1.768.923 3.747 1.065 5.293.38l.252-.115c.582-.27 1.24-.577 1.873-.288.333.153.572.454.67.848a1.736 1.736 0 0 1-.284 1.44c-.208.275-.367.448-.538.576.1.03.193.072.275.122.234.14.376.34.4.58.038.265-.06.548-.3.843-.046.067-.28.382-.873.74.378.05.72.2.926.563.192.33.213.698.06 1.068-.245.592-.934 1.14-1.676 1.337-.453.12-.92.178-1.4.178zm-8.513-3.424c1.3 0 2.592.2 3.76.838.416.227.802.507 1.176.776l1.185.777a5.124 5.124 0 0 0 3.67.427c.608-.16 1.188-.613 1.38-1.078a.727.727 0 0 0-.032-.675c-.24-.4-.876-.47-1.9-.18a9.31 9.31 0 0 1-.354.109l-.13-.422.4-.126c1.498-.512 1.933-1.152 1.938-1.16.17-.216.238-.388.218-.53-.015-.104-.083-.193-.2-.263-.25-.15-.677-.184-.973-.077l-1.15.416-.15-.416 1.15-.415.027-.01c.697-.253.823-.298 1.234-.842a1.3 1.3 0 0 0 .208-1.065c-.047-.185-.16-.43-.427-.554-.447-.204-.983.045-1.502.287l-.26.118c-1.668.74-3.8.592-5.677-.392-.984-.512-2.368-1.38-3.376-2.6-.905-1.095-.887-2.125-.866-3.318l.006-.4-6.1-1.286c-.178.743-.58 1.977-1.004 3.277l-1.04 3.448c-.368 1.808-.562 3.642.502 4.804 1.103 1.205 2.995 1.124 4.875.856l3.394-.315zm186.124-181.45l-.967.164.606.12 3.844 2.87a59.86 59.86 0 0 1-13.2-.457l1.712-3.9.305.06a13.57 13.57 0 0 1-.459-.275 1.103 1.103 0 0 1-.174-.136l-2.02 4.608.283.045c3.336.532 6.512.68 9.008.68l5.153-.228.555-.063-4.656-3.477z"/><path d="M287.167 123.984c-6.67 0-12.096-5.426-12.096-12.096a12.07 12.07 0 019.989-11.913l.076.435a11.629 11.629 0 00-9.623 11.478c0 6.426 5.228 11.654 11.654 11.654s11.654-5.228 11.654-11.654c0-1.775-.388-3.478-1.154-5.064l.398-.192a11.982 11.982 0 011.198 5.256c0 6.67-5.426 12.096-12.096 12.096z"/><path d="M298.076 106.95c-1.863 0-7.015-2.707-7.27-2.84-.295-.157-7.232-3.836-6.6-5.05.36-.682 2.04.073 7.63 3.023l4.96 2.724c1.596.967 2.107 1.48 1.888 1.896-.1.172-.3.246-.617.246zm-13.465-7.675c.04.414 2.157 2.202 6.403 4.443s6.913 2.98 7.28 2.78c-.143-.585-4.055-2.65-6.655-4.022-2.737-1.446-6.474-3.42-7.026-3.2zm30.502 208.105c-.998 0-1.822-.907-1.842-2.023l-10.697-81.985h5.47l.02.197 8.9 81.77c-.01 1.126-.837 2.04-1.84 2.04zm-12.036-83.566l10.636 81.524c.01.882.64 1.6 1.4 1.6s1.384-.712 1.4-1.6l-8.866-81.533h-4.57zm-3.717-19.542a19.462 19.462 0 0 0-7.095-1.782l.024-.442c2.5.138 5 .77 7.257 1.823l-.187.4zm10.34 14.398l-.44-.025c.142-2.493-.66-5.446-2.044-7.525l.368-.245c1.433 2.153 2.264 5.213 2.117 7.795zm-113.698-67.555h-10.377l-.027-.2a2.371 2.371 0 0 1-.024-.338c0-2.013 2.35-3.65 5.24-3.65s5.24 1.637 5.24 3.65a2.34 2.34 0 0 1-.025.339l-.027.2zm-9.984-.442h9.6l.003-.086c0-1.77-2.152-3.208-4.798-3.208s-4.796 1.44-4.796 3.208l.001.086z"/><path d="M190.592 147.158h.442v1.183h-.442z"/></g><g fill="#fff"><use xlink:href="#T"/><use xlink:href="#T" y="1.041"/></g><g class="DW"><path d="M95.72 201.743l-3.052 6.505c-.097.196-.19.363-.326.433-.113.058-.263.056-.448.046l-28.697-1.51-.67-10.955a7.521 7.521 0 0 1-.453-.154l.706 11.53 29.092 1.532.183.005c.155 0 .33-.017.5-.1.277-.142.418-.423.522-.633l3.054-6.51a1.068 1.068 0 0 1-.4-.188zm-34.24-15.735c.1-.233.3.073.458.115l-.87-13.458a1.12 1.12 0 0 1-.438.055l.022.223.827 13.065z"/><path d="M120.3 183.153c-1.687-3.9-4.274-9.2-7.013-12.237l-1.22-1.377c-3.982-4.526-8.496-9.657-18.537-12.525l-.15-.043-.1.128c-.035.05-3.484 4.842-7.9 2.83a5.167 5.167 0 0 1-1.731-1.276c-1.07-1.205-1.406-2.727-1-4.524l.057-.247-.252-.023c-6.485-.577-14.84 1.48-21.802 5.366-6.898 3.85-12.9 9.12-18.006 13.754-3.196 2.907-7.278 7.318-5.842 12.042 1.165 3.83 5.344 5.638 9.278 6.9 14.064 4.5 26.17 7.318 37 8.583l3.342.363.073-.063c2.986-2.588 4.257-6.886 3.092-10.454-.1-.34-.252-.688-.526-.94-.46-.42-1.125-.43-1.6-.438a118.085 118.085 0 0 1-26.223-3.376l-1.278-.304c-1.557-.366-3.32-.78-4.6-1.24-1.97-.7-3-1.522-3.152-2.48-.22-1.403 1.325-3.295 5.008-6.135 2.647-2.042 5.18-3.507 7.748-4.48l-.157-.414c-2.608.988-5.18 2.474-7.862 4.542-3.878 3-5.425 4.95-5.174 6.555.18 1.147 1.273 2.045 3.44 2.826 1.303.47 3.08.887 4.65 1.255l1.274.303a118.545 118.545 0 0 0 26.32 3.389c.52.008 1 .04 1.32.323.188.173.298.425.405.75 1.102 3.375-.086 7.44-2.9 9.92l-3.147-.343c-6.013-.7-12.42-1.88-19.336-3.563-.097.006-.57-.12-.666-.148-.65-.2-.687-.152-1.388-.364-4.9-1.246-10.073-2.737-15.536-4.5-3.825-1.226-7.884-2.97-9-6.606-1.362-4.485 2.6-8.76 5.716-11.587 5.077-4.62 11.068-9.867 17.925-13.695 6.8-3.797 14.933-5.83 21.3-5.332-.855 4.453 3 6.046 3.04 6.057 4.305 1.966 7.72-2.074 8.328-2.855 9.815 2.84 14.258 7.9 18.182 12.35l1.222 1.38c2.84 3.163 5.565 8.95 6.934 12.113l1.25 3.048c-1.4 2.328-4.13 1.32-4.77 1.042.213-4.962-8.966-9.548-9.36-9.742l-.196.396c.095.047 9.497 4.74 9.105 9.466l-.012.15.135.067c.038.018.952.464 2.088.542 1.538.108 2.73-.514 3.45-1.796l.052-.093-1.333-3.25zm-68.105 1.43c-1.173-.106-1.984-.537-2.344-1.245-.392-.772-.22-1.814.5-3.013l.38.228c-.638 1.062-.805 1.956-.486 2.585.288.565.976.913 2 1.004l-.04.44zM175 16.322a.469.469 0 1 1-.937 0 .469.469 0 0 1 .937 0m123.307 155.082l-.002.006-2.38 8.6c-.582.4-5.24 3.578-11.593 4.724-5.888 1.063-16.432-3.496-17.522-3.977l-6.692-22.005-.226.622a206.96 206.96 0 0 0-.968 2.734c-1.424 4.084-2.77 7.942-5.413 11.586-1.04 1.434-3.42 4.145-7.66 6.174-5.114 2.447-11.317 3.168-18.437 2.142-8.503-1.224-13.696-7.215-16.556-12.025-3.1-5.232-4.213-10.24-4.224-10.3l-.047-.212c.233-.242.796-.73 2.155-1.676 2.9-2.03 5.22-2.192 5.75-2.2l4.97 8.3c3.344 5.606 9.475 7.02 11.956 7.37.423.06.858.088 1.302.088 3.938 0 8.56-2.263 11.026-5.534 1.953-2.592 2.53-6.023 3.086-9.34l.454-2.533.14-.688c.857-4.222 1.743-8.6 3.337-12.664 3.845-9.832 11.135-14.873 21.1-14.592 2.212.064 4.457.305 6.627.54 2.295.246 4.667.5 7.017.55 1.197.024 2.42.001 3.605-.02 4.038-.075 8.214-.15 12 1.615 3.045 1.417 5.14 3.915 5.903 7.035.643 2.632-.304 7.98-.35 8.225l-.1.358a1.01 1.01 0 0 1 .43.11l.107-.35-.008-.003c.215-.7.966-5.962.36-8.445-.795-3.253-2.978-5.857-6.147-7.33-3.888-1.8-8.116-1.732-12.204-1.657l-3.588.02c-2.33-.047-4.693-.3-6.98-.546-2.18-.234-4.432-.476-6.662-.54-5.116-.148-9.582 1.103-13.272 3.718-3.57 2.53-6.347 6.283-8.253 11.154-1.607 4.1-2.497 8.496-3.358 12.738l-.14.687a77.69 77.69 0 0 0-.456 2.547c-.55 3.266-1.115 6.642-3.004 9.148-2.655 3.523-7.888 5.84-11.913 5.274-2.418-.34-8.392-1.716-11.638-7.158a3278.73 3278.73 0 0 0-5.034-8.417l-.06-.1-.118-.007c-.108-.006-2.696-.12-6.14 2.28-2.686 1.873-2.567 2.145-2.48 2.345a.305.305 0 0 0 .234.175c.226.942 1.415 5.5 4.228 10.236 2.9 4.898 8.2 10.998 16.88 12.248 7.208 1.038 13.496.304 18.7-2.18 4.33-2.072 6.764-4.846 7.83-6.314 2.68-3.697 4.036-7.584 5.472-11.7l.74-2.102 6.363 20.926.1.04a65.766 65.766 0 0 0 6.526 2.454c3.722 1.175 6.828 1.766 9.272 1.766.757 0 1.45-.057 2.078-.17 6.868-1.238 11.8-4.8 11.838-4.846l.062-.045 2.4-8.65a1.049 1.049 0 0 1-.393-.236z"/><path d="M206.894 159.243l-.145-.176c-.736-.9-1.374-1.988-2-3.458-.618-1.43-1.342-3.543-.495-5.362.33-.7 1.042-1.304 1.765-1.067.38.124.628.436.84.755a9.75 9.75 0 0 1 .944 1.8l.085.217c.208.545.424 1.1.872 1.4.497.322 1.302.396 1.758.16.217-.1.327-.273.337-.495.004-.088-.002-.177-.007-.266-.008-.14-.017-.287.004-.44.054-.393.297-.727.687-.937.475-.258 1.084-.28 1.552-.06.677.322 1.2 1.038 1.482 2.07.163.575.106.948.04 1.38l-.074.64-.012.2-.2.007c-3.4.1-7.213 3.435-7.25 3.47l-.172.15zm-1.2-9.673c-.414 0-.828.413-1.038.864-.772 1.657-.084 3.647.5 5 .577 1.334 1.153 2.35 1.803 3.176.8-.66 4.035-3.216 7.155-3.42l.063-.48c.063-.413.108-.7-.028-1.193-.18-.632-.54-1.456-1.247-1.8-.34-.16-.802-.142-1.15.047-.152.083-.414.27-.46.6-.015.1-.008.228 0 .353l.007.3c-.016.38-.22.688-.576.87-.6.3-1.566.23-2.2-.182-.57-.37-.822-1.03-1.045-1.613l-.083-.214a9.15 9.15 0 0 0-.9-1.725c-.17-.253-.36-.498-.6-.58a.598.598 0 0 0-.189-.03zm53.98 10.442l3.77-10.725.417.147-3.77 10.725zm-14.157 58.866l-.003-.04h-.2l.18-.296c-.063-1.227-.1-9.35 9.055-14.13a24.056 24.056 0 0 1 2.408-1.089c5-1.935 13.87-1.935 21.004-1.935 7.173 0 15.303 0 20.294 1.935a24.29 24.29 0 0 1 2.385 1.076l.057.015.02.025c9.106 4.78 9.065 12.868 9.003 14.1l.192.3h-.216l-.004.038h-.202l-31.527-.02-32.444.02zm32.443-17.048c-7.098 0-15.93 0-20.844 1.906a23.62 23.62 0 0 0-2.363 1.068c-8.743 4.558-8.877 12.206-8.822 13.63l32.03-.02 31.32.02c.054-1.424-.08-9.07-8.816-13.628l-.007-.003c-.75-.4-1.544-.75-2.363-1.068-4.913-1.906-13-1.906-20.134-1.906z"/><path d="M309.628 223.814h-64.143v-.064a2.72 2.72 0 0 1-2.137-2.645 2.72 2.72 0 0 1 2.137-2.645v-.063h64.143v.063a2.72 2.72 0 0 1 2.136 2.645 2.72 2.72 0 0 1-2.136 2.645v.064zm-63.7-.442l63.46-.026a2.274 2.274 0 0 0 1.946-2.24c0-1.12-.837-2.084-1.947-2.24l-.18-.026h-63.28l-.18.025a2.274 2.274 0 0 0-1.946 2.241c0 1.12.837 2.084 1.946 2.24l.18.026zm-21.522 69.243c-.83-1.846-2.04-4.077-4.393-3.962-1.006.05-1.867.622-2.197 1.592-.36 1.064-.042 2.263.412 3.246.56 1.214 1.45 2.248 2.36 3.214.262.278.682-.142.42-.42-1.317-1.398-2.9-3.23-2.74-5.3.067-.917.667-1.625 1.592-1.736.856-.103 1.694.245 2.306.83.8.77 1.276 1.823 1.727 2.826.157.347.668.046.513-.3"/><path d="M218.865 293.13a2.784 2.784 0 0 0-.81-.702c-.233-.133-.702-.4-.964-.26s-.464.506-.575.772c-.12.288-.176.597-.18.908-.016 1.5 1.15 2.545 2.222 3.418.293.24.716-.18.42-.42-.712-.58-1.503-1.202-1.87-2.073-.295-.705-.262-1.608.34-2.14l-.288.077a2.3 2.3 0 0 1 1.284.84c.234.3.652-.122.42-.42"/><path d="M217.224 294.82c-.522-.262-1.1-.528-1.697-.36-.567.158-.925.652-.84 1.244.08.564.455 1.09.8 1.528a5.55 5.55 0 0 0 1.256 1.152c.317.214.615-.3.3-.513-.703-.474-1.38-1.18-1.696-1.98-.143-.363-.097-.728.314-.852.437-.132.88.104 1.262.295.34.172.642-.34.3-.512"/><path d="M215.9 296.988c-.604-.677-1.847-1.274-2.508-.326-.247.355-.252.83-.138 1.232.13.46.415.83.77 1.146.4.364.9.667 1.22 1.124.09.13.26.192.406.106.13-.076.198-.273.107-.406-.323-.462-.768-.782-1.193-1.14-.363-.306-.673-.637-.768-1.117-.072-.36.05-.784.464-.844.47-.068.934.323 1.22.645.255.286.673-.135.42-.42"/><path d="M214.66 299.015c-.598-.893-1.996-.63-2.435.282-.538 1.12.194 2.377 1.093 3.05 1.77 1.326 4.207 1 6.117 2 2.003 1.058 2.768 3.408 4.033 5.143.64.88 1.424 1.657 2.442 2.08 1.026.428 2.174.475 3.252.233a6.1 6.1 0 0 0 2.921-1.585c.907-.893 1.404-2.045 1.494-3.3.096-1.357-.2-2.714-.463-4.038a41.669 41.669 0 0 1-.179-.983l-.04-.242-.004-.07.007-.38.315-3.342a395.1 395.1 0 0 1 .585-4.924l.95-7.406c.05-.378-.543-.374-.593 0a859.37 859.37 0 0 0-.734 5.672L232.396 300a25.14 25.14 0 0 0-.095 1.253c-.022.534.103 1.053.203 1.577.243 1.282.546 2.578.5 3.892-.053 1.236-.538 2.343-1.447 3.186-1.514 1.405-3.977 1.954-5.834.9-1.886-1.06-2.654-3.305-3.847-4.986-.585-.824-1.3-1.572-2.2-2.035-.942-.48-2-.676-3.017-.883-.978-.198-2.012-.392-2.857-.956-.416-.277-.783-.666-.987-1.127-.22-.5-.28-1.244.224-1.602.32-.228.873-.28 1.117.084.2.316.725.02.512-.3m8.498-13.46l.44-.05 1.86 15.987-.44.05z"/><path d="M222.204 288.54l4.092-81.02s.877-17.802 13.736-21.758 26.595-4.832 26.595-4.832 11.7 5.605 18.8 3.825 10.68-4.598 10.68-4.598 7.417 5.637 4.003 14.096c-1.6 3.99-3.343 7.337-7.787 8.574-2.72.757-5.596.643-8.418.546-8.648-.296-33.447-2.4-36.897 9.27-1.93 6.527-.43 75.425-.43 75.425l-24.386.473z"/></g><path d="M289.88 203.75a.221.221 0 01-.044-.437c4.138-.851 2.637-9.294 2.622-9.379a.221.221 0 01.435-.08c.004.022.404 2.236.256 4.533-.202 3.114-1.317 4.967-3.224 5.36a.219.219 0 01-.045.004z" fill="#f9f9fa"/><path d="M124.766 173.856h-22.934l-9.788 28.413h23.348l6.875-20.838z" class="DW"/><path d="M104.788 174.102c.398-1.14 1.2-2.7 2.394-2.6.656.05 1.204.575 1.455 1.183s.255 1.29.213 1.945a15.07 15.07 0 0 1-2.786 7.77c5.633-.126 11.26-.5 16.858-1.148.388-.044.79-.094 1.12-.3.515-.323.743-.948.903-1.534.718-2.63.775-5.44.163-8.097-.048-.2-.114-.44-.293-.56-.16-.1-.373-.102-.568-.1-5.28.337-11.813.197-17.064.834" class="Df"/><path d="M105.625 182.632l.26-.36a14.942 14.942 0 0 0 2.745-7.656c.038-.586.044-1.263-.197-1.847-.2-.488-.67-1-1.266-1.046-1.156-.1-1.902 1.686-2.17 2.452l-.417-.146c.37-1.066 1.203-2.84 2.597-2.748 3.23-.4 6.945-.49 10.537-.584l6.52-.248c.19-.012.474-.03.707.127.265.18.342.515.384.694a16.89 16.89 0 0 1-.166 8.205c-.17.62-.42 1.3-1 1.663-.38.24-.84.292-1.2.334a186.538 186.538 0 0 1-16.88 1.15l-.443.01zm2.465-11.008c.318.232.584.57.75.977.276.667.27 1.407.23 2.043a15.407 15.407 0 0 1-2.577 7.525c5.46-.136 10.976-.518 16.403-1.137.342-.04.73-.083 1.027-.27.45-.282.66-.868.807-1.405a16.44 16.44 0 0 0 .162-7.989c-.04-.166-.1-.35-.202-.427-.1-.067-.26-.063-.43-.052-2.04.13-4.224.188-6.535.25-3.267.086-6.635.175-9.636.484z" class="DW"/><path d="M117.223 193.447a16.74 16.74 0 0 1-3.484-2.661c-.643-.64-1.277-1.482-1.087-2.37.013-.06.048-.11.078-.165.06-.1.238-.275.327-.264.33.036.678.177 1.007.214 0 0 1.78 2.48 4.245 3.175a11.66 11.66 0 0 1-2.973-1.769c-1.014-.83-1.95-2.038-1.706-3.325.017-.095.05-.2.132-.25.118-.07.268.004.385.078 1.158.733 2.342 1.5 3.692 1.74s2.93-.24 3.548-1.462l-.197 5.564c-.175 1.04-.43 2.103-1.055 2.954s-1.7 1.446-2.73 1.228c-.39-.083-.746-.27-1.092-.465-1.576-.882-3.105-1.96-4.076-3.484-.248-.39-.326-.843-.294-1.305.05-.706 1.14-1.086 1.298-.65" class="Df"/><path d="M117.843 196.402a2.34 2.34 0 0 1-.485-.05c-.418-.1-.8-.3-1.154-.49-1.258-.704-3.06-1.84-4.154-3.558-.257-.403-.367-.888-.328-1.44.037-.533.523-.927.993-1.02-.29-.516-.38-1.004-.28-1.476.018-.08.054-.143.083-.194l.018-.03c.06-.11.304-.406.547-.378.18.02.36.067.534.113l.025.007c-.228-.5-.34-1.055-.23-1.646.023-.123.073-.3.235-.397.252-.152.528.022.618.08l.14.1c1.1.7 2.22 1.404 3.47 1.62 1.205.206 2.73-.19 3.314-1.345a.221.221 0 0 1 .418.108l-.197 5.564c0 .01-.002.02-.003.03-.168.998-.43 2.14-1.095 3.048-.53.72-1.46 1.364-2.47 1.364zm-4.933-6.135a.499.499 0 0 0-.07.005c-.26.037-.653.28-.677.625-.032.455.056.85.26 1.17 1.042 1.635 2.78 2.73 3.997 3.4.34.2.672.366 1.03.44.997.212 1.978-.42 2.507-1.142.606-.826.846-1.855 1.012-2.845l.17-4.8c-.847.895-2.24 1.138-3.337.95-1.34-.23-2.505-.97-3.632-1.683l-.14-.1c-.103-.065-.146-.07-.158-.072.002.004-.01.03-.024.098-.118.627.073 1.22.383 1.733.005.005.01.01.013.016.01.013.527.724 1.375 1.478a11.408 11.408 0 0 0 2.775 1.621.221.221 0 0 1-.144.418c-1.2-.34-2.233-1.074-2.992-1.76l-.06-.05c-.385-.316-.887-.8-1.267-1.373-.143-.024-.286-.062-.424-.098l-.438-.097a.527.527 0 0 0-.143.146l-.023.04c-.014.024-.03.052-.033.064-.097.455.048.95.442 1.494a.465.465 0 0 1 .123.162 6.1 6.1 0 0 0 .462.512 16.508 16.508 0 0 0 3.438 2.626.221.221 0 0 1-.22.383 16.948 16.948 0 0 1-3.53-2.696 6.372 6.372 0 0 1-.583-.662.273.273 0 0 0-.09-.013zm.123-2.06h0zm.05-.004z" class="DW"/><path d="M88.972 197.083c3.258.338 6.964.665 9.996-.574.425-.174.856-.392 1.12-.766s.304-.946-.028-1.262c-.275-.26-.695-.275-1.073-.256a13.22 13.22 0 0 0-2.853.452c.62-.324 1.327-.432 1.992-.65s1.336-.597 1.616-1.238c.142-.324.142-.76-.14-.973-.155-.12-.362-.143-.558-.15-1.23-.053-2.433.347-3.6.742a16.936 16.936 0 0 0 3.281-2.143c.214-.18.432-.375.523-.638s-.002-.6-.262-.708c-.13-.05-.273-.03-.41-.01-2.953.46-6.306 1.647-8.794 3.302 0 0 .122 2.822-.8 4.87z" class="Df"/><path d="M93.6 197.613c-1.66 0-3.275-.168-4.65-.3a.222.222 0 0 1-.18-.312c.9-1.976.793-4.742.792-4.77a.221.221 0 0 1 .098-.193c2.403-1.598 5.724-2.845 8.883-3.336.14-.022.33-.052.52.02.388.145.517.627.394.986-.108.316-.35.537-.6.737a17.18 17.18 0 0 1-1.634 1.204c.593-.136 1.205-.22 1.82-.195.223.01.478.04.683.196.386.294.378.848.208 1.238-.206.472-.608.854-1.198 1.14l.23-.013c.425-.02.904.001 1.235.316.432.41.368 1.11.058 1.55-.303.43-.786.667-1.218.844-1.688.7-3.597.9-5.452.9zm-4.307-.72c2.837.294 6.602.633 9.59-.59.374-.152.787-.354 1.024-.69.198-.28.254-.732-.001-.974-.2-.2-.56-.213-.9-.196a13.02 13.02 0 0 0-2.805.446.221.221 0 0 1-.161-.41c.434-.227.903-.352 1.357-.473l.668-.192c.53-.174 1.218-.508 1.484-1.116.103-.238.114-.567-.07-.708-.107-.08-.272-.1-.434-.106-1.208-.05-2.436.365-3.52.732a.221.221 0 0 1-.17-.407 16.734 16.734 0 0 0 3.239-2.116c.2-.166.383-.332.454-.54.054-.156.008-.378-.13-.43-.075-.028-.18-.015-.297.004-3.055.475-6.26 1.668-8.604 3.2.012.552.01 2.76-.714 4.564z" class="DW"/><path d="M303.948 173.164l-.706.12c2.75 10.6 2.66 22.765-4.356 31.395-1.204 1.482-2.598 2.84-3.55 4.483s-1.408 3.688-.596 5.397c1.45 3.05 6.266 3.313 9.047 1.275s3.967-5.463 4.8-8.717c2.805-10.93 3.324-22.547.287-33.405-1.664.012-3.363-.036-4.927-.548z" class="DX"/><path d="M308.456 173.78c-15.647 0-28.377-12.732-28.377-28.38 0-.396.007-.76.023-1.114l.01-.21h56.69l.01.2c.016.357.024.72.024 1.114 0 15.65-12.732 28.38-28.38 28.38zm-27.92-29.263a24.71 24.71 0 0 0-.015.882c0 15.405 12.532 27.938 27.935 27.938s27.938-12.533 27.938-27.938a24.79 24.79 0 0 0-.015-.882h-55.844z" class="DW"/><path d="M226.68 214.625c-.867 0-1.86-.423-2.92-1.25a.221.221 0 1 1 .272-.349c1.285 1.002 2.43 1.364 3.313 1.044.795-.29 1.366-1.136 1.65-2.45a.221.221 0 1 1 .432.093c-.318 1.47-.986 2.43-1.932 2.773-.256.092-.53.14-.815.14z" class="Df"/><path d="M245.364 166.6a8.24 8.24 0 0 1-5.182 4.983c-.27.086-.154.513.118.426a8.705 8.705 0 0 0 5.49-5.292c.097-.268-.33-.383-.426-.117z" class="DW"/><path d="M260.928 128.328h-82.436v.443h81.597l.84-.442z" fill="#fff"/><g class="DW"><path d="M286.717 107.735a3.919 3.919 0 0 1 2.993.186c.1.053.165.215.112.325l-.82 1.683c-.57-.603-1.23-1.14-2.017-1.522-.306-.15-.633-.255-.96-.36a3.65 3.65 0 0 1 .692-.312m-3.135 6.86c.81.394 1.637.58 2.443.648l-.82 1.683a.262.262 0 0 1-.325.113c-.94-.458-1.633-1.255-1.992-2.24a5.21 5.21 0 0 1-.17-.705 3.51 3.51 0 0 0 .864.502"/><path d="M294.82 113.078c-1.357-.824-2.853-.416-3.59.766-.405-1.278-1.568-4.278-4.104-5.512-.93-.454-1.786-.6-2.736-.6a9.962 9.962 0 0 0-.474 0l-.653.105-.63.074v.001c-1.65.246-2.915.814-3.006.86-.096.032-.16.16-.15.3.043.126.434 1.832 1.564 3.537a13.1 13.1 0 0 0 .405.554c.257.285.884.972 1.342 1.296h.005c.32.254.67.482 1.054.67 2.536 1.234 5.604.32 6.87-.172-.53 1.42.226 2.814 1.6 3.29a.258.258 0 0 0 .292-.1c.653-1.063.532-2.203-.13-3.012 1.034.044 2.017-.587 2.45-1.755.032-.12.01-.24-.1-.293zm-12.93-3.865a.491.491 0 0 1 .902.447.491.491 0 0 1-.674.227.506.506 0 0 1-.228-.674z"/></g><path d="M281.578 113.332l-.262-.357c.04-.028.1-.06.197-.112.405-.214 1.48-.784 2.004-1.752.478-.884.517-1.514.413-3.377l.44-.025c.102 1.8.088 2.6-.465 3.612-.588 1.087-1.75 1.7-2.186 1.933l-.142.078z" class="Df"/><path d="M98.978 136.33a.221.221 0 0 1-.198-.319c.905-1.848 2.537-3.237 4.72-4.017l1.146-.35 1.08-.326c2.553-.9 4.558-3.086 5.233-5.706a.221.221 0 0 1 .428.11c-.71 2.76-2.824 5.065-5.513 6.013l-1.1.336-1.115.34c-2.073.74-3.62 2.053-4.472 3.795a.221.221 0 0 1-.199.124z" class="DW"/><path d="M108.82 129.195c-1.563-3.05-.9-7.133 1.608-9.484.692-.647 1.493-1.164 2.204-1.8 2.5-2.2 3.7-5.55 6.03-7.93l.772 8.465c.06 2.834-.463 5.818-2.252 8.017a8.28 8.28 0 0 1-6.367 3.009 6.915 6.915 0 0 1-1.94-.274l-.056-.013z" class="DX"/><path d="M108.942 129.482c-1.796-.474-3.692-1.005-4.962-2.36-.774-.826-1.242-1.884-1.695-2.92l-2.884-6.595c3.58.07 6.913 2.27 8.737 5.353 1.23 2.077 1.327 5.47.804 6.523z" class="Df"/><g class="DW"><path d="M108.942 129.703a.224.224 0 0 1-.057-.007c-1.654-.437-3.714-.98-5.067-2.423-.808-.863-1.3-2-1.736-2.984l-2.884-6.594a.221.221 0 0 1 .203-.31h.004c3.5.07 7 2.213 8.923 5.46 1.247 2.108 1.384 5.583.812 6.734a.221.221 0 0 1-.198.123zm-9.197-11.862l2.742 6.27c.44 1 .897 2.052 1.654 2.86 1.217 1.298 3.105 1.833 4.67 2.248.386-1.103.306-4.17-.864-6.148-1.78-3-4.97-5.033-8.202-5.23zM97.4 151.08l-.235-.374c2.955-1.864 5.23-3.354 7.618-5.553.293-.27.607-.6.615-.948.005-.206-.1-.418-.2-.637-2.53-5.133-7.582-9.048-13.184-10.218-.2-.043-.4-.077-.568-.01-.13.057-.237.2-.35.344-1.75 2.366-3.07 5.48-3.917 9.255l-.432-.097c.862-3.835 2.205-7.005 3.993-9.422.148-.2.3-.386.53-.486.275-.12.563-.074.834-.017 5.733 1.197 10.902 5.203 13.5 10.456.128.258.252.536.245.842-.012.532-.397.93-.757 1.263-2.415 2.225-4.707 3.725-7.682 5.602z"/><path d="M97.11 149.7a25.344 25.344 0 0 0-8.46-6.965c-.816-.413-1.47-.4-1.842.01-.26.293-.432.853.22 1.854l1.06 1.486 1.048 1.465.02.033.16.12a.816.816 0 0 1 .166-.135c.073-.042.14-.1.2-.136l-.207-.155-2.087-2.918c-.276-.424-.545-.997-.26-1.32.317-.356 1.022-.055 1.3.092a24.9 24.9 0 0 1 8.312 6.842c.212.27.338.596.307.8a.228.228 0 0 1-.105.166c-.085.057-.22.063-.35.065-.78.01-1.795-.213-3.036-.664l-.114-.086-.113.466.045.024c1.275.466 2.34.702 3.166.702h.057c.188-.002.405-.016.6-.14a.671.671 0 0 0 .296-.462c.062-.383-.163-.837-.394-1.133z"/><path d="M87.34 160.797a5.49 5.49 0 0 1-.34-.011c-1.568-.103-3.077-.963-4.037-2.3-1.4-1.936-.75-4.36-.723-4.464l.015-.057.043-.042 4.65-4.515a496.688 496.688 0 0 0 4.644-4.508l.135-.134 2.84 2.104-.063.158c-1.106 2.814-1.42 6.707-.818 10.16l.016.093-.056.076a9.3 9.3 0 0 1-2.394 2.178c-1.373.838-2.687 1.262-3.913 1.262zm-4.687-6.604c-.083.362-.487 2.424.67 4.034.884 1.232 2.27 2.023 3.707 2.117 1.227.08 2.572-.32 3.994-1.186 1.156-.706 1.993-1.713 2.212-2-.6-3.492-.294-7.26.797-10.144l-2.263-1.677-9.116 8.846z"/><path d="M87.102 142.337s.762-3.62 2.084-5.905l1.742-2.88s.268-.728 1.857-.253 4.905 1.537 7.032 3.42 3.75 3.547 4.556 4.925 1.268 2.022 1.245 2.407-.213.847-.675 1.265-7.65 5.577-7.65 5.577-.45-1.902-3.103-4.036-4.777-3.474-5.2-3.7-1.878-.82-1.878-.82m5.585 48.6l-13.246-22.1.063-.112a5.804 5.804 0 0 1 2.028-2.103c.1-.067.443-.27.75-.113.163.083.248.23.3.34l4.243 7.84c2.6 4.94 5.286 10.05 8.547 14.68l-.36.256c-3.278-4.655-5.972-9.777-8.577-14.73l-4.235-7.828c-.036-.063-.082-.142-.127-.165s-.128-.02-.32.096a5.364 5.364 0 0 0-1.809 1.832l13.113 21.9-.38.227z"/><path d="M81.525 171.817l2.83-1.384.194.397-2.83 1.384z"/></g></svg>