<svg width="45" height="40" viewBox="0 0 45 40" fill="none" xmlns="http://www.w3.org/2000/svg">
<path d="M34.5214 7.2557C34.0425 2.67996 29.7655 2.90836 29.7655 2.90836C29.7655 2.90836 29.9198 7.1865 34.5214 7.2557Z" fill="#C16F1D"/>
<path d="M38.1511 4.13356C38.1511 4.13356 34.7271 6.70352 37.3041 10.5161C40.7858 7.51133 38.1511 4.13356 38.1511 4.13356Z" fill="#C16F1D"/>
<path d="M39.344 15.5792C43.2439 13.1395 41.1533 9.4003 41.1533 9.4003C41.1533 9.4003 37.3778 11.419 39.344 15.5792Z" fill="#C16F1D"/>
<path d="M39.5659 20.7342C44.0079 19.5337 43.0942 15.3497 43.0942 15.3497C43.0942 15.3497 38.8937 16.183 39.5659 20.7342Z" fill="#C16F1D"/>
<path d="M38.5301 26.2056C43.1329 26.2358 43.3712 21.961 43.3712 21.961C43.3712 21.961 39.0996 21.6418 38.5301 26.2056Z" fill="#C16F1D"/>
<path d="M35.598 30.6988C39.9297 32.2583 41.5776 28.3073 41.5776 28.3073C41.5776 28.3073 37.6549 26.5859 35.598 30.6988Z" fill="#C16F1D"/>
<path d="M32.0978 34.7075C36.0397 37.0849 38.4311 33.5344 38.4311 33.5344C38.4311 33.5344 34.9212 31.0777 32.0978 34.7075Z" fill="#C16F1D"/>
<path d="M28.3871 37.018C31.5498 40.3626 34.805 37.5817 34.805 37.5817C34.805 37.5817 32.0799 34.2765 28.3871 37.018Z" fill="#C16F1D"/>
<path d="M36.2954 10.9355C34.6236 6.6484 30.5597 7.99861 30.5597 7.99861C30.5597 7.99861 31.8403 12.0851 36.2954 10.9355Z" fill="#C16F1D"/>
<path d="M32.9124 12.0704C32.9124 12.0704 33.4499 16.3173 38.0386 15.9745C37.1516 11.46 32.9124 12.0704 32.9124 12.0704Z" fill="#C16F1D"/>
<path d="M38.2463 20.9019C38.2929 16.3022 34.0175 16.0406 34.0175 16.0406C34.0175 16.0406 33.6821 20.3076 38.2463 20.9019Z" fill="#C16F1D"/>
<path d="M37.1743 25.923C38.2989 21.4633 34.2039 20.2069 34.2039 20.2069C34.2039 20.2069 32.876 24.2753 37.1743 25.923Z" fill="#C16F1D"/>
<path d="M33.2253 23.8377C33.2253 23.8377 31.0578 27.5277 34.9056 30.0551C36.9575 25.9391 33.2253 23.8377 33.2253 23.8377Z" fill="#C16F1D"/>
<path d="M30.9172 26.8463C30.9172 26.8463 28.1064 30.0736 31.4229 33.2652C34.1987 29.5988 30.9172 26.8463 30.9172 26.8463Z" fill="#C16F1D"/>
<path d="M28.5327 29.7481C28.5327 29.7481 25.1198 32.3305 27.7122 36.1337C31.1815 33.1147 28.5327 29.7481 28.5327 29.7481Z" fill="#C16F1D"/>
<path d="M9.68955 7.2557C10.1684 2.67996 14.4454 2.90836 14.4454 2.90836C14.4454 2.90836 14.2911 7.1865 9.68955 7.2557Z" fill="#C16F1D"/>
<path d="M6.0598 4.13356C6.0598 4.13356 9.48389 6.70352 6.90683 10.5161C3.42516 7.51133 6.0598 4.13356 6.0598 4.13356Z" fill="#C16F1D"/>
<path d="M4.86692 15.5792C0.967065 13.1395 3.05763 9.4003 3.05763 9.4003C3.05763 9.4003 6.83314 11.419 4.86692 15.5792Z" fill="#C16F1D"/>
<path d="M4.64501 20.7342C0.203042 19.5337 1.11678 15.3497 1.11678 15.3497C1.11678 15.3497 5.3172 16.183 4.64501 20.7342Z" fill="#C16F1D"/>
<path d="M5.68086 26.2056C1.07806 26.2358 0.839725 21.961 0.839725 21.961C0.839725 21.961 5.1113 21.6418 5.68086 26.2056Z" fill="#C16F1D"/>
<path d="M8.61297 30.6988C4.28125 32.2583 2.63335 28.3073 2.63335 28.3073C2.63335 28.3073 6.55607 26.5859 8.61297 30.6988Z" fill="#C16F1D"/>
<path d="M12.1131 34.7075C8.17121 37.0849 5.77979 33.5344 5.77979 33.5344C5.77979 33.5344 9.28976 31.0777 12.1131 34.7075Z" fill="#C16F1D"/>
<path d="M15.8239 37.018C12.6611 40.3626 9.40594 37.5817 9.40594 37.5817C9.40594 37.5817 12.131 34.2765 15.8239 37.018Z" fill="#C16F1D"/>
<path d="M7.91558 10.9355C9.58737 6.6484 13.6512 7.99861 13.6512 7.99861C13.6512 7.99861 12.3706 12.0851 7.91558 10.9355Z" fill="#C16F1D"/>
<path d="M11.2986 12.0704C11.2986 12.0704 10.761 16.3173 6.17233 15.9745C7.05934 11.46 11.2986 12.0704 11.2986 12.0704Z" fill="#C16F1D"/>
<path d="M5.96461 20.9019C5.91802 16.3022 10.1934 16.0406 10.1934 16.0406C10.1934 16.0406 10.5288 20.3076 5.96461 20.9019Z" fill="#C16F1D"/>
<path d="M7.03662 25.923C5.91203 21.4633 10.007 20.2069 10.007 20.2069C10.007 20.2069 11.3349 24.2753 7.03662 25.923Z" fill="#C16F1D"/>
<path d="M10.9856 23.8377C10.9856 23.8377 13.1531 27.5277 9.30536 30.0551C7.25347 25.9391 10.9856 23.8377 10.9856 23.8377Z" fill="#C16F1D"/>
<path d="M13.2938 26.8463C13.2938 26.8463 16.1045 30.0736 12.7881 33.2652C10.0122 29.5988 13.2938 26.8463 13.2938 26.8463Z" fill="#C16F1D"/>
<path d="M15.6782 29.7481C15.6782 29.7481 19.0911 32.3305 16.4987 36.1337C13.0294 33.1147 15.6782 29.7481 15.6782 29.7481Z" fill="#C16F1D"/>
</svg>
