<?xml version="1.0" encoding="UTF-8"?>
<svg width="68px" height="50px" viewBox="0 0 68 50" version="1.1" xmlns="http://www.w3.org/2000/svg" xmlns:xlink="http://www.w3.org/1999/xlink">
    <title>9A705873-CD4C-41CD-B750-9E83435A904F</title>
    <g id="Home-Page" stroke="none" stroke-width="1" fill="none" fill-rule="evenodd">
        <g id="1.1" transform="translate(-113.000000, -595.000000)" fill="#F0CA67" fill-rule="nonzero">
            <g id="Group-6" transform="translate(113.000000, 595.000000)">
                <g id="noun_Laurel-Wreath_957942" transform="translate(19.956720, 24.124920) rotate(20.000000) translate(-19.956720, -24.124920) translate(6.756720, 3.603180)">
                    <g id="Group" transform="translate(0.000000, -0.000000)">
                        <path d="M10.3828421,0.384695652 C10.3828421,0.384695652 5.57439474,1.84921739 6.88562368,7.09495652 C11.9323658,5.17208696 10.3828421,0.384695652 10.3828421,0.384695652 Z" id="Path"></path>
                        <path d="M5.12941579,11.8123478 C6.43882105,6.5666087 1.62976579,5.10330435 1.62976579,5.10330435 C1.62976579,5.10330435 0.0820657895,9.89130435 5.12941579,11.8123478 Z" id="Path"></path>
                        <path d="M4.91361316,18.2237391 C5.40965526,12.8398261 0.434644737,12.1258261 0.434644737,12.1258261 C0.434644737,12.1258261 -0.367776316,17.094 4.91361316,18.2237391 Z" id="Path"></path>
                        <path d="M6.74155263,24.0057391 C5.65342105,18.7094783 0.686313158,19.4752174 0.686313158,19.4752174 C0.686313158,19.4752174 1.36046842,24.4622609 6.74155263,24.0057391 Z" id="Path"></path>
                        <path d="M10.0855816,29.6325217 C7.623,24.8207826 3.04068947,26.887913 3.04068947,26.887913 C3.04068947,26.887913 5.02121053,31.5133913 10.0855816,29.6325217 Z" id="Path"></path>
                        <path d="M7.56585789,33.1763478 C7.56585789,33.1763478 10.9712842,36.8784348 15.1213816,33.4173913 C11.1992447,29.7006957 7.56585789,33.1763478 7.56585789,33.1763478 Z" id="Path"></path>
                        <path d="M20.5930421,36.442 C16.0204579,33.5665217 13.1372132,37.6886087 13.1372132,37.6886087 C13.1372132,37.6886087 17.2015974,40.649913 20.5930421,36.442 Z" id="Path"></path>
                        <path d="M18.7638868,40.7016522 C18.7638868,40.7016522 23.4714237,42.4668696 25.6148605,37.5029565 C20.4410684,35.9574783 18.7638868,40.7016522 18.7638868,40.7016522 Z" id="Path"></path>
                        <path d="M11.5560789,6.32495652 C11.5560789,6.32495652 6.53182895,6.46495652 6.41146579,11.8707826 C11.7858632,11.3521739 11.5560789,6.32495652 11.5560789,6.32495652 Z" id="Path"></path>
                        <path d="M10.5992526,11.7654783 C10.5992526,11.7654783 5.67895263,12.7929565 6.51541579,18.1348696 C11.7141316,16.6715652 10.5992526,11.7654783 10.5992526,11.7654783 Z" id="Path"></path>
                        <path d="M10.9731079,16.5948696 C10.9731079,16.5948696 6.36344211,18.599913 8.26372105,23.6612174 C13.0587947,21.1728696 10.9731079,16.5948696 10.9731079,16.5948696 Z" id="Path"></path>
                        <path d="M11.4673263,28.776087 C15.5450842,25.2310435 12.4454289,21.2708696 12.4454289,21.2708696 C12.4454289,21.2708696 8.43453947,24.3021739 11.4673263,28.776087 Z" id="Path"></path>
                        <path d="M14.9821737,24.8871304 C14.9821737,24.8871304 11.7110921,28.7066957 15.6283658,32.4282609 C18.8556789,28.0925217 14.9821737,24.8871304 14.9821737,24.8871304 Z" id="Path"></path>
                        <path d="M20.7583895,34.5763478 C23.1328263,29.7195652 18.7359237,27.2841739 18.7359237,27.2841739 C18.7359237,27.2841739 16.2234947,31.6412174 20.7583895,34.5763478 Z" id="Path"></path>
                        <path d="M22.53405,29.5314783 C22.53405,29.5314783 20.9662895,34.3121739 26.0057368,36.2545217 C27.3358105,31.0136522 22.53405,29.5314783 22.53405,29.5314783 Z" id="Path"></path>
                    </g>
                </g>
                <g id="Group-22" transform="translate(27.600000, 0.000000)">
                    <g id="Group-21" transform="translate(19.922617, 24.104513) rotate(-20.000000) translate(-19.922617, -24.104513) translate(6.722617, 3.582774)">
                        <path d="M19.3179806,6.69812658 C20.6268385,1.46187342 15.8270863,-7.24213938e-13 15.8270863,-7.24213938e-13 C15.8270863,-7.24213938e-13 14.2803646,4.77812658 19.3179806,6.69812658 Z" id="Path"></path>
                        <path d="M24.5643343,4.70946835 C24.5643343,4.70946835 19.7639753,6.17073418 21.0710127,11.4063797 C26.1092355,9.48881013 24.5643343,4.70946835 24.5643343,4.70946835 Z" id="Path"></path>
                        <path d="M21.2864251,17.8061772 C26.5582642,16.6790886 25.7572942,11.7192911 25.7572942,11.7192911 C25.7572942,11.7192911 20.79128,12.432 21.2864251,17.8061772 Z" id="Path"></path>
                        <path d="M19.4617912,23.5777215 C24.8331447,24.0340253 25.5060808,19.0553924 25.5060808,19.0553924 C25.5060808,19.0553924 20.547955,18.291038 19.4617912,23.5777215 Z" id="Path"></path>
                        <path d="M16.1238093,29.1943291 C21.1784155,31.0717975 23.155962,26.4546835 23.155962,26.4546835 C23.155962,26.4546835 18.5819377,24.3912911 16.1238093,29.1943291 Z" id="Path"></path>
                        <path d="M11.0971156,32.9723544 C15.2397083,36.4271392 18.6389765,32.7317468 18.6389765,32.7317468 C18.6389765,32.7317468 15.0115532,29.2623797 11.0971156,32.9723544 Z" id="Path"></path>
                        <path d="M5.63534959,35.9914937 C9.02066151,40.1917975 13.077696,37.2358481 13.077696,37.2358481 C13.077696,37.2358481 10.1996651,33.1212152 5.63534959,35.9914937 Z" id="Path"></path>
                        <path d="M0.622005415,37.0505316 C2.76156624,42.0048608 7.46059036,40.243443 7.46059036,40.243443 C7.46059036,40.243443 5.78704845,35.5078481 0.622005415,37.0505316 Z" id="Path"></path>
                        <path d="M19.7918879,11.4647089 C19.6717424,6.06865823 14.6565778,5.92891139 14.6565778,5.92891139 C14.6565778,5.92891139 14.4266024,10.947038 19.7918879,11.4647089 Z" id="Path"></path>
                        <path d="M15.6110671,11.3595949 C15.6110671,11.3595949 14.498811,16.2568101 19.6875191,17.7174684 C20.5224696,12.3852152 15.6110671,11.3595949 15.6110671,11.3595949 Z" id="Path"></path>
                        <path d="M17.9417685,23.2338228 C19.8386111,18.1816709 15.2372811,16.1802532 15.2372811,16.1802532 C15.2372811,16.1802532 13.1559726,20.7499747 17.9417685,23.2338228 Z" id="Path"></path>
                        <path d="M14.7445632,28.339443 C17.7718658,23.8736203 13.7682293,20.8477975 13.7682293,20.8477975 C13.7682293,20.8477975 10.6741792,24.8008101 14.7445632,28.339443 Z" id="Path"></path>
                        <path d="M11.2360718,24.457519 C11.2360718,24.457519 7.36957104,27.6571139 10.5910482,31.9850127 C14.5012382,28.2695696 11.2360718,24.457519 11.2360718,24.457519 Z" id="Path"></path>
                        <path d="M7.48910975,26.8502278 C7.48910975,26.8502278 3.10015811,29.2818228 5.47030122,34.1292152 C9.99699542,31.1993924 7.48910975,26.8502278 7.48910975,26.8502278 Z" id="Path"></path>
                        <path d="M3.69785165,29.0934684 C3.69785165,29.0934684 -1.09522576,30.572962 0.232442724,35.8043544 C5.26277717,33.8661266 3.69785165,29.0934684 3.69785165,29.0934684 Z" id="Path"></path>
                    </g>
                </g>
            </g>
        </g>
    </g>
</svg>