<svg id="Layer_1" data-name="Layer 1" xmlns="http://www.w3.org/2000/svg" viewBox="0 0 50 50"><defs><style>.cls-1,.cls-3{fill:#1a1a1a;}.cls-2{fill:none;}.cls-2,.cls-3{stroke:#1a1a1a;stroke-linecap:round;stroke-linejoin:round;stroke-width:1.2px;}</style></defs><path class="cls-1" d="M4,25.44H5.13a0,0,0,0,1,0,0V38.68a0,0,0,0,1,0,0H4a2.39,2.39,0,0,1-2.39-2.39V27.83A2.39,2.39,0,0,1,4,25.44Z" transform="translate(-11.85 3.65) rotate(-22.18)"/><path class="cls-2" d="M27.45,22.25,22.12,9.18a.29.29,0,0,0-.53,0h0A18.9,18.9,0,0,1,11.35,19.24L2.8,22.72a1.19,1.19,0,0,0-.65,1.54L8,38.54a1.18,1.18,0,0,0,1.54.64l8.59-3.5a18.9,18.9,0,0,1,14.29,0h0a.28.28,0,0,0,.37-.36Z"/><path class="cls-1" d="M14.37,37h3.42a0,0,0,0,1,0,0V47.56a1.27,1.27,0,0,1-1.27,1.27h-.89a1.27,1.27,0,0,1-1.27-1.27V37a0,0,0,0,1,0,0Z" transform="translate(-15.01 9.24) rotate(-22.18)"/><path class="cls-2" d="M31.49,14.87a11.2,11.2,0,0,0,4.7,6.83c4,2.56,1.64,10.4-6.06,7.12"/><ellipse class="cls-2" cx="37.76" cy="19.47" rx="2.87" ry="1.47" transform="translate(6.16 47.86) rotate(-69.22)"/><ellipse class="cls-3" cx="33.39" cy="12.83" rx="2.87" ry="1.47" transform="translate(5.98 35.82) rotate(-61.01)"/><ellipse class="cls-2" cx="29.14" cy="13.71" rx="1.47" ry="2.87" transform="translate(1.88 30.85) rotate(-57.37)"/><ellipse class="cls-2" cx="35.06" cy="26.15" rx="1.47" ry="2.87" transform="matrix(0.83, -0.55, 0.55, 0.83, -8.61, 23.7)"/><line class="cls-2" x1="43.1" y1="14.37" x2="48.14" y2="12.69"/><line class="cls-2" x1="44.15" y1="21.06" x2="49.41" y2="21.84"/><line class="cls-2" x1="39.81" y1="8.7" x2="43.1" y2="4.85"/><line class="cls-2" x1="34.26" y1="6.39" x2="34.78" y2="1.35"/><line class="cls-2" x1="41.87" y1="28.07" x2="46.43" y2="30.82"/><line class="cls-2" x1="37.22" y1="32.76" x2="39.46" y2="37.52"/><line class="cls-2" x1="24.48" y1="2.86" x2="26.71" y2="7.62"/></svg>