<svg id="Layer_1" data-name="Layer 1" xmlns="http://www.w3.org/2000/svg" viewBox="0 0 50 50"><defs><style>.cls-1{fill:none;stroke:#1a1a1a;stroke-linecap:round;stroke-linejoin:round;stroke-width:1.2px;}.cls-2{fill:#1a1a1a;}</style></defs><path class="cls-1" d="M2.93,28.09a34.92,34.92,0,0,0,44.14,0,38.11,38.11,0,0,0-44.14,0Z"/><path class="cls-1" d="M25,15.2a6.64,6.64,0,0,0-7.4-3.15c-7.76,1.57-14.67,16-14.67,16"/><path class="cls-1" d="M47.07,28.09s-6.91-14.47-14.67-16A6.64,6.64,0,0,0,25,15.2"/><path class="cls-1" d="M47.07,28.09a22.86,22.86,0,0,1-44.14,0"/><line class="cls-1" x1="34.16" y1="12.04" x2="36.81" y2="6.92"/><line class="cls-1" x1="9.73" y1="17.13" x2="4.74" y2="14.82"/><line class="cls-1" x1="15.84" y1="12.04" x2="13.19" y2="6.92"/><line class="cls-1" x1="40.27" y1="17.13" x2="45.26" y2="14.82"/><line class="cls-1" x1="25" y1="11.27" x2="25" y2="5"/><circle class="cls-2" cx="24.78" cy="27.58" r="6.54"/></svg>