<svg id="Layer_1" data-name="Layer 1" xmlns="http://www.w3.org/2000/svg" viewBox="0 0 50 50"><defs><style>.cls-1{fill:none;}.cls-1,.cls-2{stroke:#000;stroke-width:1.2px;}.cls-1,.cls-2,.cls-3{stroke-linecap:round;stroke-linejoin:round;}.cls-3{fill:#fcfcfc;stroke:#1a1a1a;stroke-width:1.35px;}</style></defs><path class="cls-1" d="M19.79,15.53a13.58,13.58,0,0,1,6.08,2.33V32.5S13.08,25.33,2.74,35.21L7.39,24.28"/><path class="cls-1" d="M25.87,17.86V32.5S38.65,25.33,49,35.21L41.91,17.86S33.89,12.39,25.87,17.86Z"/><path class="cls-1" d="M28.89,26.18s7.61-3.83,13.37.71"/><path class="cls-1" d="M22.85,26.63s-7.62-4.28-13.37.26"/><path class="cls-1" d="M28.89,21.61a10.81,10.81,0,0,1,11.39-.13"/><path class="cls-2" d="M49,35.21C38.65,25.33,25.87,32.5,25.87,32.5S13.08,25.33,2.74,35.21l.36,5c14.65-11.51,21-2.4,21-2.4h3.49s6.38-9.11,21,2.4Z"/><ellipse class="cls-3" cx="9.52" cy="15.08" rx="5.33" ry="2.72" transform="translate(-5.63 24.5) rotate(-89.63)"/><ellipse class="cls-3" cx="5.05" cy="18.37" rx="2.72" ry="5.33" transform="translate(-11.45 8.84) rotate(-44.63)"/><ellipse class="cls-3" cx="13.87" cy="18.43" rx="5.33" ry="2.72" transform="translate(-8.95 15.06) rotate(-44.63)"/></svg>