<svg id="Layer_1" data-name="Layer 1" xmlns="http://www.w3.org/2000/svg" viewBox="0 0 50 50"><defs><style>.cls-1{fill:none;stroke:#1a1a1a;}.cls-1,.cls-2{stroke-linecap:round;stroke-linejoin:round;stroke-width:1.2px;}.cls-2{stroke:#000;}.cls-3{fill:#1a1a1a;}</style></defs><path class="cls-1" d="M34.56,10.27V6.08A2.08,2.08,0,0,0,32.48,4H7.65A2.08,2.08,0,0,0,5.57,6.08V36.36H14a1.25,1.25,0,0,1,1.24,1.25V46H32.48a2.08,2.08,0,0,0,2.08-2.08V40.38"/><rect class="cls-1" x="28.5" y="10.44" width="15.93" height="29.83" rx="2.59"/><line class="cls-1" x1="10.39" y1="30.38" x2="24.34" y2="30.38"/><line class="cls-1" x1="10.39" y1="25.81" x2="24.34" y2="25.81"/><path class="cls-2" d="M5.57,36.36H14a1.25,1.25,0,0,1,1.24,1.25V46Z"/><path class="cls-3" d="M15.61,9.76,19,13.1a2.71,2.71,0,0,1,.2,3.7,2.62,2.62,0,0,1-3.8.1l-.28-.28-.11.11a2.71,2.71,0,0,1-3.7.2,2.61,2.61,0,0,1-.1-3.79l3.37-3.38A.76.76,0,0,1,15.61,9.76Z"/><path class="cls-3" d="M36.92,16.68l2.92,2.92A2.38,2.38,0,0,1,40,22.84a2.29,2.29,0,0,1-3.32.09l-.25-.25-.1.1a2.38,2.38,0,0,1-3.24.17A2.28,2.28,0,0,1,33,19.63L36,16.68A.66.66,0,0,1,36.92,16.68Z"/><circle class="cls-3" cx="36.46" cy="37.17" r="1.29"/></svg>