<svg id="Layer_1" data-name="Layer 1" xmlns="http://www.w3.org/2000/svg" viewBox="0 0 50 50"><defs><style>.cls-1{fill:#1a1a1a;}.cls-2{fill:none;stroke:#1a1a1a;stroke-linecap:round;stroke-linejoin:round;stroke-width:1.2px;}</style></defs><path class="cls-1" d="M33.71,48.61H11.64A2.63,2.63,0,0,1,9.23,47L7.14,42.21a.75.75,0,0,1,.69-1.05H37.52a.76.76,0,0,1,.7,1.05L36.12,47A2.63,2.63,0,0,1,33.71,48.61Z"/><path class="cls-2" d="M12.89,44.88a13.81,13.81,0,0,1-1.1-5.42C11.79,32.55,16.79,27,23,27S34.1,32.55,34.1,39.46A13.81,13.81,0,0,1,33,44.88"/><ellipse class="cls-2" cx="37.77" cy="12.8" rx="12.15" ry="10.42" transform="translate(2.99 32.3) rotate(-47.99)"/><polyline class="cls-2" points="27.95 19.77 24.29 20.19 27.17 24.8 29.22 21.41"/><path class="cls-2" d="M25.72,22.48S24,24.62,16.13,21,2.42,23.22,3.29,27.77s4.92,4.32,6.11,3.69a3.22,3.22,0,0,0,0-5.43c-2.68-2.05-12.14-.36-6.7,11"/><line class="cls-2" x1="10.3" y1="36.08" x2="13.85" y2="37.06"/><line class="cls-2" x1="12.08" y1="32.09" x2="14.91" y2="33.91"/><line class="cls-2" x1="14.99" y1="27.84" x2="17.12" y2="31.19"/><line class="cls-2" x1="18.89" y1="25.99" x2="20.08" y2="29.77"/><line class="cls-2" x1="23.42" y1="29.51" x2="24.09" y2="25.4"/><line class="cls-2" x1="26.93" y1="30.12" x2="28.82" y2="26.95"/><line class="cls-2" x1="29.61" y1="32.33" x2="32.09" y2="29.93"/><line class="cls-2" x1="31.35" y1="34.38" x2="34.66" y2="33.55"/><line class="cls-2" x1="32.21" y1="37.3" x2="35.37" y2="37.34"/><line class="cls-2" x1="13.1" y1="39.66" x2="10.3" y2="39.78"/><line class="cls-2" x1="32.25" y1="39.72" x2="35.88" y2="40.06"/><line class="cls-2" x1="18.5" y1="39.89" x2="16.37" y2="37.85"/><line class="cls-2" x1="19.48" y1="36.57" x2="19.84" y2="33"/><line class="cls-2" x1="23.98" y1="34.78" x2="22.01" y2="31.86"/><line class="cls-2" x1="25.72" y1="37.93" x2="26.76" y2="35.17"/><line class="cls-2" x1="22.12" y1="40.25" x2="22.95" y2="37.57"/><line class="cls-2" x1="27.48" y1="40.25" x2="29.41" y2="38.05"/><line class="cls-2" x1="26.24" y1="33.51" x2="27.88" y2="31.86"/><path class="cls-2" d="M29.22,14.32s.71-6.74,6.2-8.57"/><circle class="cls-1" cx="37.52" cy="5.14" r="0.61"/></svg>