<svg id="Layer_1" data-name="Layer 1" xmlns="http://www.w3.org/2000/svg" viewBox="0 0 50 50"><defs><style>.cls-1,.cls-2{fill:none;}.cls-1,.cls-3{stroke:#1a1a1a;stroke-linecap:round;}.cls-1,.cls-2,.cls-3{stroke-linejoin:round;stroke-width:1.2px;}.cls-2{stroke:#000;}.cls-3{fill:#1a1a1a;}</style></defs><circle class="cls-1" cx="20.62" cy="25" r="19.52"/><path class="cls-1" d="M29.49,33.64c.2-.21.4-.43.59-.65l.13-.15q.33-.41.63-.84l.14-.21c.16-.25.31-.49.45-.75l.12-.21c.17-.31.32-.63.46-.95,0-.07.05-.14.08-.2.11-.28.21-.56.31-.84a2,2,0,0,1,.08-.26c.1-.35.2-.7.27-1l0-.15c.06-.31.1-.63.14-1l0-.29A10.55,10.55,0,0,0,33,25a12.32,12.32,0,0,0-1.49-5.89h0l0,0c-.17-.3-.35-.59-.54-.88L30.81,18c-.18-.26-.37-.52-.57-.76l-.08-.1c-.22-.27-.46-.53-.7-.78l-.2-.19c-.21-.2-.42-.4-.65-.59l-.15-.13q-.41-.33-.84-.63l-.21-.14c-.24-.15-.49-.31-.74-.45l-.22-.12c-.31-.16-.63-.32-.95-.46l-.2-.08q-.4-.16-.84-.3l-.26-.09q-.51-.15-1.05-.27l-.14,0-1-.15-.3,0c-.37,0-.75-.06-1.13-.06A12.39,12.39,0,1,0,26.51,35.9h0c.3-.17.6-.35.88-.54l.24-.16c.26-.18.51-.37.76-.57l.09-.07a10.41,10.41,0,0,0,.78-.71Z"/><line class="cls-1" x1="14.99" y1="21.91" x2="26.25" y2="28.09"/><line class="cls-1" x1="23.72" y1="19.37" x2="17.53" y2="30.63"/><path class="cls-1" d="M33,25a12.39,12.39,0,1,1-1.49-5.89"/><path class="cls-1" d="M32.88,23.19A13.41,13.41,0,0,1,33,25"/><line class="cls-1" x1="38.19" y1="16.25" x2="41.89" y2="14.41"/><line class="cls-2" x1="20.62" y1="25" x2="38.19" y2="16.25"/><ellipse class="cls-3" cx="43.36" cy="10.83" rx="3.58" ry="1.83" transform="translate(12.5 43.17) rotate(-60.37)"/><ellipse class="cls-3" cx="45.44" cy="15.29" rx="1.83" ry="3.58" transform="translate(26.29 59.25) rotate(-85.07)"/></svg>