<svg id="Layer_1" data-name="Layer 1" xmlns="http://www.w3.org/2000/svg" viewBox="0 0 50 50"><defs><style>.cls-1{fill:none;stroke:#1a1a1a;stroke-linecap:round;stroke-linejoin:round;stroke-width:1.2px;}.cls-2{fill:#1a1a1a;}</style></defs><ellipse class="cls-1" cx="25" cy="25" rx="13.22" ry="21.99"/><ellipse class="cls-1" cx="25" cy="25" rx="13.22" ry="22.65" transform="translate(-9.85 30.94) rotate(-54.67)"/><ellipse class="cls-1" cx="25" cy="25" rx="22.65" ry="13.22" transform="translate(-9.85 19.06) rotate(-35.33)"/><path class="cls-2" d="M24.34,29.9l-4.26-4.26a3.45,3.45,0,0,1-.25-4.71,3.32,3.32,0,0,1,4.83-.13l.36.36.14-.14a3.46,3.46,0,0,1,4.72-.26A3.34,3.34,0,0,1,30,25.6l-4.3,4.3A1,1,0,0,1,24.34,29.9Z"/></svg>