<svg id="Layer_1" data-name="Layer 1" xmlns="http://www.w3.org/2000/svg" viewBox="0 0 50 50"><defs><style>.cls-1,.cls-3{fill:none;}.cls-1,.cls-2,.cls-3,.cls-5{stroke:#1a1a1a;}.cls-1,.cls-2,.cls-3,.cls-4,.cls-5{stroke-linecap:round;stroke-linejoin:round;}.cls-1{stroke-width:3.63px;}.cls-2,.cls-5{fill:#fcfcfc;}.cls-2{stroke-width:1.35px;}.cls-3,.cls-4,.cls-5{stroke-width:1.2px;}.cls-4{stroke:#000;}.cls-6{fill:#1a1a1a;}</style></defs><line class="cls-1" x1="34.79" y1="28.38" x2="38.45" y2="37.53"/><circle class="cls-2" cx="28.95" cy="14.94" r="13.94"/><path class="cls-3" d="M11.7,49A11,11,0,0,0,9.38,37.46C4.33,32,5.05,27.27,6.07,24c1.16-3.77,8.7-6.44,12.06-.24"/><ellipse class="cls-4" cx="3.43" cy="33.95" rx="3.56" ry="1.82" transform="translate(-26.31 17.23) rotate(-54.89)"/><ellipse class="cls-2" cx="15.88" cy="26.47" rx="3.56" ry="1.82" transform="translate(-14.91 24.33) rotate(-55.06)"/><ellipse class="cls-2" cx="21.04" cy="26" rx="1.82" ry="3.56" transform="translate(-12.38 24.71) rotate(-48.81)"/><ellipse class="cls-4" cx="12.15" cy="36.17" rx="3.56" ry="1.82" transform="translate(-0.72 0.25) rotate(-1.15)"/><line class="cls-3" x1="4.74" y1="49" x2="18.88" y2="49"/><rect class="cls-3" x="43.66" y="32.1" width="4.47" height="10.54" rx="2.06" transform="translate(-8.48 14) rotate(-15.89)"/><path class="cls-5" d="M42.13,31s-4.93,3.44-10,4,.75,10.84,2.78,12.7,7.13.11,8.7-1.86a2,2,0,0,0,0-2.38s2.89-2,.38-3.73c0,0,1.88-2.12,0-3.8,0,0,1.66-1.54.82-3.31S43.35,30.52,42.13,31Z"/><path class="cls-3" d="M41.44,37.38A10.43,10.43,0,0,0,44,35.9"/><path class="cls-3" d="M41.75,40.68a5.74,5.74,0,0,0,2.27-1"/><path class="cls-3" d="M42,44.46a5.34,5.34,0,0,0,1.68-1"/><ellipse class="cls-3" cx="28.7" cy="15.38" rx="10.11" ry="5.16" transform="translate(-3.86 14.87) rotate(-27.29)"/><circle class="cls-6" cx="28.7" cy="15.38" r="3.6"/></svg>