<svg id="Layer_1" data-name="Layer 1" xmlns="http://www.w3.org/2000/svg" viewBox="0 0 50 50"><defs><style>.cls-1,.cls-2{fill:none;stroke:#000;stroke-linecap:round;stroke-linejoin:round;}.cls-1{stroke-width:2.51px;}.cls-2{stroke-width:1.2px;}</style></defs><line class="cls-1" x1="3.11" y1="16.84" x2="11.42" y2="45.57"/><path class="cls-1" d="M9.57,38.35S3.31,44.05,3.37,49H14.81"/><line class="cls-1" x1="46.89" y1="16.84" x2="38.58" y2="45.57"/><path class="cls-1" d="M41.43,38.35s6.26,5.7,6.2,10.65H36.19"/><path class="cls-2" d="M7.6,30.57l5-1a6.69,6.69,0,0,0,4.84-4.05L20.86,17a7.84,7.84,0,0,1,2.75-3.48h0a.88.88,0,0,1,1.39.72V31.49a9.2,9.2,0,0,1-7,8.94l-7.19,1.74"/><path class="cls-2" d="M25,22s-1.73-.48-2.53,1.76-1.64,5.51-2.82,6.65"/><path class="cls-2" d="M42.4,30.57l-5-1a6.69,6.69,0,0,1-4.84-4.05L29.14,17a7.84,7.84,0,0,0-2.75-3.48h0a.88.88,0,0,0-1.39.72V31.49a9.2,9.2,0,0,0,7,8.94l7.19,1.74"/><path class="cls-2" d="M25,22s1.73-.48,2.53,1.76,1.64,5.51,2.82,6.65"/><line class="cls-2" x1="10.21" y1="9.26" x2="14.99" y2="11.92"/><line class="cls-2" x1="16.73" y1="3.38" x2="19.2" y2="7.62"/><line class="cls-2" x1="25.05" y1="1" x2="25.02" y2="6.06"/><line class="cls-2" x1="33.4" y1="3.38" x2="30.81" y2="7.69"/><line class="cls-2" x1="39.56" y1="9.56" x2="34.97" y2="12.04"/></svg>