<svg xmlns="http://www.w3.org/2000/svg" width="18" height="14"><path d="M1.714.215C.763.215 0 1.015 0 1.976v8.9c0 .96.763 1.768 1.714 1.768h14.57c.95 0 1.714-.807 1.714-1.768v-8.9c0-.96-.763-1.76-1.714-1.76H1.714zm0 .857h14.57a.85.85 0 0 1 .355.08L9.556 7.708c-.327.303-.764.303-1.092 0L1.366 1.152c.106-.048.225-.08.348-.08zm-.844.8L5.9 6.51.964 11.31c-.065-.13-.107-.274-.107-.435v-8.9c0-.04.01-.076.013-.114h0zm16.26.007c.004.036.013.07.013.107v8.9a.96.96 0 0 1-.1.429l-4.922-4.8 5.01-4.634zm-5.632 5.2l4.815 4.708H1.694l4.835-4.7 1.353 1.252c.636.587 1.62.588 2.257 0l1.36-1.26z"/></svg>