<svg xmlns="http://www.w3.org/2000/svg" viewBox="0 0 50 50"  xmlns:v="https://vecta.io/nano"><style><![CDATA[.B{stroke-linejoin:round}.C{stroke-width:1.2}.D{stroke-linecap:round}]]></style><g fill="none" stroke="#000" class="B C"><path d="M37 7.74s5.38 2.8 2.3 7.84c-1.7 2.77-4.8 4-6.66 6M36.3 49s-5-.73-6.7-6.85" class="D"/><ellipse cx="41.7" cy="15.35" rx="2.69" ry="1.38" transform="matrix(.95533 -.295541 .295541 .95533 -2.67 13.01)"/><ellipse cx="35.96" cy="15.57" rx="1.38" ry="2.69" transform="matrix(.95 -.31 .31 .95 -3.07 12.03)"/></g><path d="M39.06 10.8L34.27 8a3.21 3.21 0 0 1-1.33-4.2 3.08 3.08 0 0 1 4.3-1.23l.4.24.1-.16a3.19 3.19 0 0 1 4.16-1.32 3.07 3.07 0 0 1 1.24 4.29l-2.85 4.85a.9.9 0 0 1-1.23.32z"/><g fill="none" stroke="#000" class="B C"><path d="M14.2 23.6s7.43-.26 9.28-5.43a15.08 15.08 0 0 0 1.07-6.32 1.12 1.12 0 0 1 1.36-1.2 4.39 4.39 0 0 1 3.7 4.69 11.05 11.05 0 0 1-1.71 6.19l9.25.28A2.94 2.94 0 0 1 39.34 26s2.67 2.52.27 5a3.12 3.12 0 0 1-.74 5s1.06 3.35-1.8 4.35a31.6 31.6 0 0 1-22-.32 2 2 0 0 0-.75-.14L8.8 40a1.77 1.77 0 0 1-1.62-1c-1-1.9-2.6-6.6-.2-14.1a1.84 1.84 0 0 1 1.74-1.26z"/><path d="M35.64 26a6.58 6.58 0 0 0 3.7 0m-4 5s1.4.72 4.26 0M35 36.24a9.29 9.29 0 0 0 3.87-.24" class="D"/></g><path d="M12.52 23.62L9 23.65l-1.5.47-.9 2-.72 3.94v3.32l.64 3 .9 2.62 1.2.84h5c-3.8-4.76-1.1-16.22-1.1-16.22z"/></svg>