<svg xmlns="http://www.w3.org/2000/svg" viewBox="0 0 50 50"  xmlns:v="https://vecta.io/nano"><style><![CDATA[.H{stroke:#000}.I{stroke-linejoin:round}.J{stroke-width:1.2}.K{stroke-miterlimit:10}.L{stroke-linecap:round}]]></style><g fill="none" class="H"><path d="M13.28 16.15H6.34s-11.48 3.8-.77 22.6a1.36 1.36 0 0 0 1.18.68h6.12a1.36 1.36 0 0 0 1.18-.68c10.7-18.8-.77-22.6-.77-22.6z" class="I J"/><path d="M1.55,29.24a9,9,0,0,0,8.26-6.3,9,9,0,0,0,8.26,6.3" stroke-width=".35" class="K"/></g><path d="M1.63 29.15l1.66-.24 1.82-.6 1.55-.93 1.1-.98.7-.85.5-.78.46-.92.42-1.02.23.6.47 1 .7 1.14.8.98 1.43 1.15 1.16.64 1.2.54 2.27.3-2.94-4.7-5-2.5-1.88.4-4.08 5.1-2.54 1.7z"/><path d="M18.07 29.15l.2-1.13.32-1.93-.04-2.55-.57-2.46-1.15-2.15-1-1.13-.95-.78-.84-.53-.88-.34h-6.4L6 16.3l-1.35.8-2.3 2.53-.93 2.2-.4 2.85.1 2.15.52 2.32.84-.28 3.2-1.33 1.55-1.45.87-1.56 1.06-1.6.63-.55.43.37 2.03 2.85 1.33 1 1.14 1.1 2.14.75 1.2.7z"/><circle cx="9.81" cy="16.61" r="6.04" fill="#fff" class="H I J"/><path d="M9.8 10.58a6 6 0 0 1-6 6 6 6 0 0 1 6-6zm6.05 6.04a6 6 0 0 1-6-6 6 6 0 0 1 6 6z"/><circle cx="8.52" cy="17.25" r=".54"/><circle cx="11.1" cy="17.25" r=".54"/><g fill="none" class="H"><g class="I"><path d="M8.52,19.46a1.72,1.72,0,0,0,2.58,0" stroke-width=".57" class="L"/><path d="M31.17 21.1H25.7s-9 3-.6 17.78a1.07 1.07 0 0 0 .94.54h4.8a1.06 1.06 0 0 0 .93-.54c8.43-14.8-.6-17.78-.6-17.78z" class="J"/></g><path d="M21.94,31.4a7,7,0,0,0,6.5-4.95,7,7,0,0,0,6.5,4.95" stroke-width=".27" class="K"/></g><path d="M22 31.34l1.3-.2 1.43-.47 1.22-.74.86-.77.54-.66.4-.62.36-.72.33-.8.2.47.36.8.55.9.63.77 1.13.9.92.5.94.43 1.78.23-2.3-3.7-3.93-1.97-1.5.3L24 30l-2 1.35z"/><path d="M34.94 31.34l.15-.9.26-1.5-.04-2-.45-1.94-.9-1.7-.77-.9-.75-.62-.67-.4-.7-.27h-5.03l-.62.1-1.06.63-1.8 2-.74 1.74-.32 2.25.08 1.7.4 1.83.67-.22 2.52-1.05 1.22-1.14.7-1.23.83-1.25.5-.44.33.3 1.6 2.25 1.04.78.9.87 1.68.6.95.54z"/><circle cx="28.44" cy="21.46" r="4.75" fill="#fff" class="H I J"/><path d="M28.44 16.7a4.76 4.76 0 0 1-4.75 4.76 4.76 4.76 0 0 1 4.75-4.76z"/><path d="M33.2 21.47a4.76 4.76 0 0 1-4.76-4.76 4.76 4.76 0 0 1 4.76 4.76z"/><circle cx="27.43" cy="21.97" r=".42"/><circle cx="29.46" cy="21.97" r=".42"/><g fill="none" class="H"><g class="I"><path d="M27.43,23.7a1.35,1.35,0,0,0,2,0" stroke-width=".57" class="L"/><path d="M45.7 25h-4.3s-7.12 2.34-.48 14a.84.84 0 0 0 .73.42h3.8a.85.85 0 0 0 .74-.42c6.64-11.66-.48-14-.48-14z" class="J"/></g><path d="M38.42 33.1a5.55 5.55 0 0 0 5.12-3.9 5.55 5.55 0 0 0 5.12 3.9" stroke-width=".21" class="K"/></g><path d="M38.47 33.06l1.03-.16 1.13-.37.95-.58.68-.6.43-.53.3-.48.3-.57.26-.64.14.37.3.62.44.7.5.6.9.72.72.4.74.34 1.4.18-1.82-2.93-3.1-1.55-1.17.25L40.04 32l-1.57 1.06z"/><path d="M48.66 33.06l.12-.7.2-1.2-.03-1.58-.36-1.53-.7-1.33-.62-.7-.6-.48-.52-.33-.54-.2h-3.97l-.48.1-.83.5-1.43 1.57-.58 1.37-.25 1.77.07 1.33.32 1.44.52-.18 2-.83.96-.9.54-.97.65-.98.4-.35.26.23 1.26 1.77.83.62.7.68 1.33.47.75.43z"/><circle cx="43.54" cy="25.28" r="3.74" fill="#fff" class="H I J"/><path d="M43.54 21.54a3.75 3.75 0 0 1-3.74 3.75 3.74 3.74 0 0 1 3.74-3.75z"/><path d="M47.28 25.3a3.74 3.74 0 0 1-3.74-3.75 3.74 3.74 0 0 1 3.74 3.75z"/><circle cx="42.74" cy="25.68" r=".33"/><circle cx="44.34" cy="25.68" r=".33"/><path d="M42.74,27.05a1.07,1.07,0,0,0,1.6,0" fill="none" stroke-width=".45" class="H I L"/></svg>