<svg xmlns="http://www.w3.org/2000/svg" viewBox="0 0 50 50"  xmlns:v="https://vecta.io/nano"><g fill="none" stroke="#000" stroke-linecap="round" stroke-linejoin="round" stroke-width="1.2"><path d="M5.32 7.2h39.36"/><path d="M5.32 26.9a19.68 19.68 0 0 1 39.36 0"/></g><circle cx="5.32" cy="26.89" r="2.82"/><circle cx="44.68" cy="26.89" r="2.82"/><circle cx="25" cy="7.21" r="2.82"/><g stroke="#000" stroke-linejoin="round" stroke-width="1.2"><path d="M19.9 45.38a5.73 5.73 0 0 0 9 .14l6.25-7.58a2.63 2.63 0 0 0 .69-3L24.93 10 13.3 34.55a2.63 2.63 0 0 0 .59 3.05z" fill="#fcfcfc"/><g fill="none"><path d="M24.93 9.98l-.26 20.67" stroke-linecap="round"/><circle cx="24.6" cy="34.64" r="4"/></g><g fill="#fcfcfc"><circle cx="5.32" cy="7.21" r="2.82"/><circle cx="44.68" cy="7.21" r="2.82"/></g></g></svg>