<svg xmlns="http://www.w3.org/2000/svg" viewBox="0 0 50 50"  stroke-width="1.2" stroke-linejoin="round" stroke="#000" xmlns:v="https://vecta.io/nano"><rect x="26.83" y="11.22" width="19.79" height="28.3" rx="3.7" transform="matrix(.961406 .275134 -.275134 .961406 8.4 -9.12)"/><g fill="#fff"><circle cx="36.72" cy="25.04" r="4.49"/><rect x="15.65" y="9.39" width="19.3" height="27.61" rx="3.7" transform="matrix(.99957 -.029317 .029317 .99957 -.67 .75)"/><ellipse cx="25.29" cy="21.84" rx="2.06" ry="4.04" transform="matrix(.99957 -.029317 .029317 .99957 -.63 .75)"/><ellipse cx="21.99" cy="24.46" rx="2.06" ry="4.04" transform="matrix(.686072 -.727533 .727533 .686072 -10.89 23.68)"/><ellipse cx="28.68" cy="24.26" rx="4.04" ry="2.06" transform="matrix(.686072 -.727533 .727533 .686072 -8.65 28.48)"/><rect x="4.81" y="11.58" width="19.3" height="27.61" rx="3.7" transform="matrix(.88188 -.471474 .471474 .88188 -10.26 9.82)"/><ellipse cx="13.85" cy="24.19" rx="2.06" ry="4.04" transform="matrix(.88188 -.471474 .471474 .88188 -9.77 9.39)"/><ellipse cx="12.06" cy="28" rx="2.06" ry="4.04" transform="matrix(.290201 -.956966 .956966 .290201 -18.23 31.41)"/><ellipse cx="17.96" cy="24.84" rx="4.04" ry="2.06" transform="matrix(.290201 -.956966 .956966 .290201 -11.02 34.82)"/></g></svg>