<svg xmlns="http://www.w3.org/2000/svg" viewBox="0 0 50 50"  stroke="#000" stroke-width="1.2" xmlns:v="https://vecta.io/nano"><g stroke-linejoin="round"><path d="M39.05 49a7.32 7.32 0 0 0 7.09-5.09c3.1-9.75 3.2-17 2.5-17.46-1.86-1.26-2.2.75-2.2.75a18.93 18.93 0 0 1-1.24 5.55c.5-5.95-.52-9.7-2.5-9.92a1.25 1.25 0 0 0-1.53 1.62 16.42 16.42 0 0 1 .63 7.22c.3-3.6-2.63-7.3-4.17-7.77A1.55 1.55 0 0 0 36 26.49c1.3 1.2 2.4 5.33 2.4 5.33a3.62 3.62 0 0 0-1.59-1.66 3.8 3.8 0 0 0-2.17-.43 6.71 6.71 0 0 0-5.17 3 1.39 1.39 0 0 0 .55 2l1.1.57a1.26 1.26 0 0 0 1.18 0l.22-.13a2.8 2.8 0 0 1 2.68-.09c1.07.54 1.92 1.55 1.2 3.6s-2.4 1.54-3.56 1.02a2.23 2.23 0 0 1-1.29-1.85v-.4a1.89 1.89 0 0 0-1.16-1.58l-1.48-.6a.37.37 0 0 0-.52.32L28.12 40a3.23 3.23 0 0 0 1.94 3.13l1.46.64s3.17 1 3.46 3.84A1.59 1.59 0 0 0 36.57 49z" fill="#fcfcfc"/><g stroke-linecap="round"><path d="M28,40.58s-.85,7-8.42,4.18" fill="none"/><path d="M20.87 23.5A5.73 5.73 0 0 1 22.24 21a8.19 8.19 0 1 0-10 2.16 5.61 5.61 0 0 1 2.28 1.73" fill="#fcfcfc"/></g></g><g stroke-miterlimit="10"><rect x="14.23" y="24.15" width="7.38" height="1.89" rx=".79" transform="matrix(.977268 -.212007 .212007 .977268 -4.91 4.37)"/><rect x="14.63" y="25.99" width="7.38" height="1.89" rx=".79" transform="matrix(.977268 -.212007 .212007 .977268 -5.29 4.49)"/><rect x="15.03" y="27.84" width="7.38" height="1.89" rx=".79" transform="matrix(.977268 -.212007 .212007 .977268 -5.67 4.62)"/></g><g stroke-linejoin="round" stroke-linecap="round" fill="none"><path d="M12.17 17.93s3.7-.65 3-3.48-3.6-.57-2.22 1a3.34 3.34 0 0 0 4.13 1c1.2-.6 1.6-1.58 1.15-2.36a.9.9 0 0 0-1.62.56c-.1.92 1.7 2.54 3.4 2.14m-9 .2s2.92 1.5 5.08 7.78"/><path d="M20.83 14.9s-2 2.58-1.4 9.2m-.7 5.64s-.74 2.84 1.35 4a3.89 3.89 0 0 0 4.56-.32c.47-.58 1.26-1.74.6-4.47-1.15-4.86 8.1-5.5 5.24 2.6M17.24 4.63l.22-3.87m6.36 6.9l2.45-3m1.08 9.32L31.1 13M7.88 24.7l-2.5 2.97m-.96-9.33l-3.76.93m4.72-8.1L1.8 9.7m8.58-3.77l-2.03-3.3"/></g></svg>