<svg xmlns="http://www.w3.org/2000/svg" viewBox="0 0 50 50"  xmlns:v="https://vecta.io/nano"><style><![CDATA[.G{stroke:#000}.H{stroke-linejoin:round}.I{stroke-linecap:round}]]></style><g fill="none" class="G H I"><path d="M36.67,14.17h6.58a1.52,1.52,0,0,1,1.51,1.51V39.86a1.51,1.51,0,0,1-1.51,1.51H6.75a1.51,1.51,0,0,1-1.51-1.51V15.68a1.52,1.52,0,0,1,1.51-1.51h6" stroke-width="1.78"/><path d="M17.8 49h14.5" stroke-width="2.22"/></g><g stroke-width="1.2" class="G H"><path d="M17.34 40.3V29.48a8 8 0 0 1 8-8h0a8 8 0 0 1 8 8V40.3z" fill="#fff"/><path d="M21.2 41.37h7.63V49H21.2z" fill="none"/><g fill="#fff"><path d="M28.4 23.48L24.9 14.7l-3.55 8.88a3.76 3.76 0 0 0-.28 1.42 3.84 3.84 0 0 0 7.67 0 3.92 3.92 0 0 0-.32-1.52z"/><path d="M21.38 6.36l3.5 8.78 3.56-8.87a3.83 3.83 0 1 0-7.39-1.44 3.68 3.68 0 0 0 .32 1.53z"/><path d="M33.67 11.2l-8.78 3.5 8.88 3.56a3.76 3.76 0 0 0 1.43.28 3.84 3.84 0 0 0 0-7.67 3.74 3.74 0 0 0-1.53.32z"/><path d="M16.12 18.22l8.77-3.52-8.9-3.56a3.83 3.83 0 1 0-1.43 7.39 3.92 3.92 0 0 0 1.55-.31z"/><path d="M21.17 23.46l3.72-8.7-8.8 3.76a3.84 3.84 0 1 0 4.22 6.24 3.79 3.79 0 0 0 .85-1.31z"/><path d="M28.3 6.4l-3.72 8.7 8.8-3.76a3.87 3.87 0 0 0 1.21-.82 3.83 3.83 0 0 0-5.42-5.42 3.73 3.73 0 0 0-.86 1.31z"/><path d="M33.6 18.5l-8.7-3.72 3.76 8.8a3.84 3.84 0 1 0 6.24-4.22 3.75 3.75 0 0 0-1.3-.85z"/><path d="M16.2 11.05l8.7 3.72L21.13 6a3.9 3.9 0 0 0-.81-1.21 3.84 3.84 0 0 0-5.43 5.42 4 4 0 0 0 1.31.84z"/><circle cx="25.06" cy="14.82" r="5.62"/></g></g><path d="M5.72 35.24h38.7v4.93l-1 .67H6.58l-.86-.8v-4.8z"/><circle cx="25" cy="38.65" r="1.55" fill="#fff"/><circle cx="23.32" cy="13.38" r=".66"/><circle cx="26.46" cy="13.38" r=".66"/><path d="M23.32,16.07a2.1,2.1,0,0,0,3.14,0" fill="none" stroke-width=".87" class="G H I"/></svg>