<svg xmlns="http://www.w3.org/2000/svg" viewBox="0 0 50 50"  xmlns:v="https://vecta.io/nano"><ellipse cx="23.36" cy="45.69" rx="19.09" ry="3.31" fill="#1a1a1a"/><path d="M8.36 25.26l.07 12.2c.05 3.93 1.88 6.4 5.9 7.14a46.62 46.62 0 0 0 9 .82 46.62 46.62 0 0 0 9-.82c4-.75 5.84-3.2 5.9-7.14l.07-12.2" fill="#fcfcfc" stroke="#1a1a1a" stroke-linecap="round" stroke-linejoin="round" stroke-width="1.2"/><path d="M40.54 27.25h.33a3.27 3.27 0 0 1 2.78 1.55 5.54 5.54 0 0 1 .88 3.06v.27a5.47 5.47 0 0 1-.88 3.07 3.26 3.26 0 0 1-2.77 1.54h-.34c-1.17 0-1.47-.5-1.56-1.2v-7.07c.1-.7.4-1.16 1.56-1.2h0m0-1.2h0a2.45 2.45 0 0 0-2.71 2.29v7.3a2.45 2.45 0 0 0 2.71 2.28h.38a4.44 4.44 0 0 0 3.77-2.08 6.67 6.67 0 0 0 1.08-3.71.41.41 0 0 0 0-.11h0a.37.37 0 0 0 0-.11 6.73 6.73 0 0 0-1.08-3.72 4.46 4.46 0 0 0-3.77-2.07h-.33z" fill="#1a1a1a"/><g stroke="#1a1a1a" stroke-linejoin="round" stroke-width="1.2"><g fill="none"><ellipse cx="23.34" cy="25.12" rx="14.97" ry="1.63"/><path d="M19.22 11c-.15-4.48 3.1-5.4 5-5.18 4.46.53 7.1 7 1.27 11.9-2.18 1.85-2.94 4.16-2.75 8.83" stroke-linecap="round"/></g><g fill="#1a1a1a"><ellipse cx="20.87" cy="18.66" rx="1.43" ry="2.8" transform="matrix(.780758 -.624834 .624834 .780758 -7.08 17.13)"/><ellipse cx="21.53" cy="3.29" rx="1.43" ry="2.8" transform="matrix(.780758 -.624834 .624834 .780758 2.66 14.18)"/><ellipse cx="30.87" cy="11.16" rx="2.8" ry="1.43" transform="matrix(.624834 -.780758 .780758 .624834 2.87 28.29)"/></g></g></svg>