<svg xmlns="http://www.w3.org/2000/svg" viewBox="0 0 50 50"  xmlns:v="https://vecta.io/nano"><style><![CDATA[.D{stroke:#1a1a1a}.E{stroke-linejoin:round}.F{stroke-width:1.35}.G{fill:#fcfcfc}.H{stroke-linecap:round}]]></style><g class="D E F G"><path d="M8.27 49V23.44c0-4.1 14-16.6 16-16.6s16 11.62 16 17v25.2z"/><path d="M29.58 49c0-5.45-14.7-23.78-21.3-23.78m15.98 13.4c4.88-6.57 11.93-13.4 16-13.4" class="H"/></g><path d="M43.1 14.53c1.1-.1 2.76-7.7-2.9-8.3-7.73-.8-16 5-15.1 31.2" fill="none" class="D E F H"/><ellipse cx="11.2" cy="9.08" rx="2.4" ry="4.7" transform="matrix(.707107 -.707107 .707107 .707107 -3.14 10.58)" class="D E F G"/><path d="M23.87,37.67s.86-15.78-8.33-24.1" fill="none" class="D E F H"/><g class="G D E F"><ellipse cx="10.49" cy="13.92" rx="4.7" ry="2.4"/><ellipse cx="16.09" cy="8.52" rx="2.4" ry="4.7"/></g><g stroke-width="1.08" fill="#1a1a1a" class="D E"><ellipse cx="34.51" cy="3.94" rx="2.95" ry="1.51" transform="matrix(.098278 -.995159 .995159 .098278 27.2 37.9)"/><ellipse cx="19.76" cy="25.22" rx="1.51" ry="2.95" transform="matrix(.449943 -.893057 .893057 .449943 -11.66 31.51)"/><ellipse cx="29.39" cy="18.01" rx="2.95" ry="1.51" transform="matrix(.893057 -.449943 .449943 .893057 -4.96 15.15)"/></g><ellipse cx="27.35" cy="34.29" rx="2.95" ry="1.51" transform="matrix(.75276 -.658295 .658295 .75276 -15.81 26.48)" class="D E F G"/></svg>