<svg xmlns="http://www.w3.org/2000/svg" viewBox="0 0 50 50"  xmlns:v="https://vecta.io/nano"><style><![CDATA[.D{stroke:#000}.E{stroke-linejoin:round}.F{stroke-width:1.2}.G{stroke-linecap:round}]]></style><g fill="none" class="D E F G"><path d="M34.88 42.56l-1.95-23.4"/><path d="M32.93 19.16l-.7-8a2.11 2.11 0 0 0-2.1-1.93H4.4a2.1 2.1 0 0 0-2.1 2.29L5.05 44a5.5 5.5 0 0 0 5.47 5h24.9"/></g><path d="M35.43,49a6.45,6.45,0,0,0,6.32-5.2,1,1,0,0,0-1-1.24H17.42a1.12,1.12,0,0,0-1.1,1A6.44,6.44,0,0,1,10,49Z" class="D E F"/><g fill="none" class="D E F"><path d="M15.7 21.4H7.02l-.77-8.66h8.67l.77 8.66z"/><path d="M8.03 27.88h11.33M8.66 32h19.27M9.25 36.4h19" class="G"/><path d="M27.4 30.1c.65-2.67 2.78-7.56 9.87-10.06 10-3.55 6.4-13.12 2.1-13.47"/><ellipse cx="36.83" cy="4.73" rx="1.63" ry="3.18" transform="matrix(.547563 -.836764 .836764 .547563 12.7 32.96)"/><ellipse cx="39.1" cy="15.52" rx="1.63" ry="3.18" transform="matrix(.953138 -.302536 .302536 .953138 -2.86 12.55)"/><ellipse cx="41.58" cy="3.82" rx="3.18" ry="1.63" transform="matrix(.491208 -.871042 .871042 .491208 17.82 38.16)"/><ellipse cx="45.72" cy="9.47" rx="3.18" ry="1.63" transform="matrix(.491208 -.871042 .871042 .491208 15.01 44.64)"/></g><path d="M26.78 29.94l.22 1.2a.09.09 0 0 0 .16 0l.86-.94z"/></svg>