<svg xmlns="http://www.w3.org/2000/svg" width="18" height="18"><path d="M12.817 17.753C7.467 17.754 1.957 10.625.62 6.946a5.62 5.62 0 0 1 .976-5.609C2.343.5 3.247.11 4.013.29 5.8.72 6.715 4.884 6.88 5.715a.43.43 0 0 1-.101.369l-1.53 1.71c.304 2.102 3.65 4.467 5.262 5.41l1.62-1.653c.73-.744 2.3-.376 4.806 1.128.658.394.973 1.52.704 2.507-.208.763-1.09 2.542-4.776 2.568h-.044zm-9.2-16.65a2.07 2.07 0 0 0-1.391.804 4.75 4.75 0 0 0-.811 4.746c1.117 3.072 6.333 10.243 11.4 10.243h.04c2.988-.022 3.76-1.223 3.955-1.937a1.53 1.53 0 0 0-.318-1.546c-3.054-1.832-3.7-1.326-3.753-1.263h0l-1.85 1.89c-.135.138-.345.17-.513.075-.237-.13-5.798-3.235-6.004-6.44a.43.43 0 0 1 .109-.313l1.514-1.7c-.39-1.83-1.284-4.333-2.18-4.547a.81.81 0 0 0-.188-.021z"/></svg>