<svg xmlns="http://www.w3.org/2000/svg" viewBox="0 0 50 50"  stroke="#000" stroke-linejoin="round" xmlns:v="https://vecta.io/nano"><g stroke-width="1.2"><path d="M34.3 49H15.7a3.09 3.09 0 0 1-2.81-1.81l-1.75-3.86A.92.92 0 0 1 12 42h26a.92.92 0 0 1 .84 1.3l-1.74 3.9A3.09 3.09 0 0 1 34.29 49z"/><g fill="none"><path d="M28.26 9.5L23.13 7.6v34.27h5.13V9.5z"/><path d="M18.85 41.86a7.72 7.72 0 0 1-4.54-7.35c.16-4.27 3-5.9 5.57-7.24 3-1.56 10.16-1.84 12.1-5.63s-.43-7.13-3.73-7.9m-5.12-.86s-8.5-1.08-6.55-7.94" stroke-linecap="round"/></g></g><ellipse cx="19.46" cy="3.84" rx="3.24" ry="1.66" transform="matrix(.893057 -.449943 .449943 .893057 .35 9.17)" stroke-width="1.3"/><g fill="none" stroke-width="1.2"><ellipse cx="13.98" cy="3.39" rx="1.66" ry="3.24" transform="matrix(.678929 -.734204 .734204 .678929 2 11.35)"/><ellipse cx="16.29" cy="12.67" rx="3.24" ry="1.66" transform="matrix(.982774 -.184809 .184809 .982774 -2.06 3.23)"/></g><ellipse cx="33.83" cy="13.75" rx="3.24" ry="1.66" transform="matrix(.403545 -.91496 .91496 .403545 7.6 39.16)" stroke-width="1.3"/><ellipse cx="17.44" cy="35.68" rx="3.24" ry="1.66" transform="matrix(.755396 -.655268 .655268 .755396 -19.11 20.16)" stroke-width="1.2" fill="none"/><ellipse cx="17.03" cy="25.13" rx="1.66" ry="3.24" transform="matrix(.97 -.26 .26 .97 -5.85 5.19)" stroke-width="1.3"/><ellipse cx="34.58" cy="22.26" rx="3.24" ry="1.66" transform="matrix(.971301 -.237855 .237855 .971301 -4.3 8.86)" stroke-width="1.2" fill="none"/></svg>