<svg xmlns="http://www.w3.org/2000/svg" viewBox="0 0 50 50"  xmlns:v="https://vecta.io/nano"><g stroke-width="1.2" stroke-linejoin="round" stroke="#000" fill="none"><ellipse cx="26.84" cy="12.78" rx="4.26" ry="2.18" transform="matrix(.793778 -.608207 .608207 .793778 -2.24 18.96)"/><ellipse cx="19.82" cy="12.31" rx="2.18" ry="4.26" transform="matrix(.759385 -.650642 .650642 .759385 -3.24 15.86)"/><path d="M23.36 15.16c-5.6 6.55-1.47 11-1.47 11m8.36 5.48c-2-1.08-5.86.47-7.85 1.4a6.6 6.6 0 0 1-3.18.61c-5.73-.35-4.7-3.5-4.7-3.5l15.55-6.87a4.85 4.85 0 0 1 3.65-.11l13.65 3a2.06 2.06 0 0 1 1.51 2.7l-2.34 6.67a3.51 3.51 0 0 1-4.15 2.31 12.05 12.05 0 0 0-8 .65C29.2 41 24.12 41 21.1 41.1a4.38 4.38 0 0 1-2.37-.59C16 39 8.57 35 1.6 33.8a.71.71 0 0 1-.45-1.13c1.15-1.5 4-4.1 9.5-2.27l3.92 1.34" stroke-linecap="round"/></g><path d="M9.9 30l8.77-6.85a3 3 0 0 1 3.65 0l2.9 2.16-4.36 2.37L14.4 30l-.05 1.43z"/></svg>