<svg xmlns="http://www.w3.org/2000/svg" viewBox="0 0 50 50"  xmlns:v="https://vecta.io/nano"><style><![CDATA[.C{stroke-linejoin:round}.D{stroke-width:1.2}.E{fill:none}.F{stroke-linecap:round}]]></style><ellipse cx="25.8" cy="45.82" rx="16.2" ry="3.18"/><g stroke="#000" class="C D"><g class="F"><path d="M38.63 15.37a16.35 16.35 0 0 1 7 13.06c0 9.6-9.23 17.4-20.62 17.4S4.38 38 4.38 28.43a16.34 16.34 0 0 1 7-13" fill="#fcfcfc"/><path d="M35.78 7.6c2.3.9 3.7 2.12 3.7 3.44a2.48 2.48 0 0 1-.83 1.73m-27.3-.02a2.46 2.46 0 0 1-.83-1.75C10.53 8.18 17 5.88 25 5.88c1.12 0 2.2 0 3.25.13m7.25 5.86A30.21 30.21 0 0 1 25 13.65a30.15 30.15 0 0 1-10.5-1.78" class="E"/></g><ellipse cx="24.99" cy="22.74" rx="16.16" ry="5.75" class="E"/><g class="F E"><path d="M40.8 21.54a13.13 13.13 0 0 1 2 6.89c0 8.28-8 15-17.78 15s-17.78-6.7-17.78-15a13.11 13.11 0 0 1 2.15-7.15m1.97-8.53s1.76 1.45 0 2.63"/><path d="M38.63 12.75s-1.77 1.45 0 2.63M19.5 34.68S22.2 31 26 33.5a7.65 7.65 0 0 0 4.65 1.38 2.63 2.63 0 0 1 2.2-3s.7 1.8-.22 2.8c0 0 2.2-.14 2.84 1.24a3.83 3.83 0 0 1-4.14.49s-7.9 5.35-11.86-1.73m4.33 1.4s-.44 1.4-2.4.85m.44-11.84c.46-2.65.05-4.3-1.32-6"/><path d="M20.52 19.1s-5 .15-5.28 5m4.26-.67s1.43.57 2.22-1.43m2.48 10.6a2.92 2.92 0 0 1 3.74-.46L26.9 34m-.32-24.6s0-3.1 4.33-5.35a7.74 7.74 0 0 1 5.54-.56s1.4-2.56 3.93-2.12a4.33 4.33 0 0 1-1.55 2.55s2.23.65 2.4 2.16a2.69 2.69 0 0 1-3.86-.79s-3.83 7.8-10.8 4.1"/><path d="M30.92 8.2s.4 1.4-1.53 2m.9-5.82s.07-3.06 2.76-3.38l.16 2.15M13.34 22.93s.78 1.8 3.9 1.84"/></g></g><circle cx="22.6" cy="34.72" r=".47"/><circle cx="18.43" cy="21.63" r=".52"/><circle cx="29.18" cy="7.74" r=".47"/></svg>