<svg xmlns="http://www.w3.org/2000/svg" viewBox="0 0 50 50"  stroke="#000" stroke-linejoin="round" stroke-width="1.3" xmlns:v="https://vecta.io/nano"><path d="M14.5 23.4H5.7v1.22A8.27 8.27 0 0 0 14 32.88h1.82l5.84 7.54a2.07 2.07 0 0 0 2.8.46l8.3-3.88a1.46 1.46 0 0 0 .38-2.07l-6-8.33a3 3 0 0 0-2.46-1.26H18.4a4.8 4.8 0 0 1-2.29-.57C13.2 23.17 14 21 14 21h15.55a4.25 4.25 0 0 1 3.15 1.41l2.15 2.4a1.59 1.59 0 0 0 1.2.54h8a9.28 9.28 0 0 1-9.48 9.28H32.9" fill="none" stroke-linecap="round"/><path d="M15 33.55l5.12 7.23a.61.61 0 0 0 1 0l1.18-1.63a1.52 1.52 0 0 0 0-1.76l-4.35-6.2a1.3 1.3 0 0 0-2.11 0L15 32.32a1.05 1.05 0 0 0 0 1.23z" fill="#fff"/><g fill="none"><path d="M16.2 35.28l2.3-3.26m-.82 5.33l2.34-3.2m1.36 1.95l-2.28 3.26M38.32 16a10.29 10.29 0 0 1 5.77 9.36" stroke-linecap="round"/><ellipse cx="38.85" cy="12.84" rx="3.13" ry="1.6" transform="matrix(.077415 -.996999 .996999 .077415 23.04 50.58)"/><ellipse cx="39.96" cy="20.37" rx="1.53" ry="2.99" transform="matrix(.183437 -.983032 .983032 .183437 12.6 55.92)"/></g><ellipse cx="46.55" cy="21.65" rx="2.99" ry="1.53" transform="matrix(.786827 -.617173 .617173 .786827 -3.44 33.35)"/><ellipse cx="14.6" cy="13.98" rx="2.99" ry="1.53" transform="matrix(.99096 -.134159 .134159 .99096 -1.74 2.09)"/><ellipse cx="9.9" cy="11.57" rx="1.53" ry="2.99" transform="matrix(.929133 -.369747 .369747 .929133 -3.58 4.48)"/><g fill="none"><ellipse cx="9.53" cy="18.88" rx="2.99" ry="1.53" transform="matrix(.9666 -.256289 .256289 .9666 -4.52 3.07)"/><ellipse cx="3.36" cy="24.38" rx="1.53" ry="2.99" transform="matrix(.672496 -.740101 .740101 .672496 -16.95 10.47)"/></g><ellipse cx="35.29" cy="15.54" rx="1.53" ry="2.99" transform="matrix(.25 -.97 .97 .25 11.31 45.73)"/><path d="M5.7 23.4a9.63 9.63 0 0 1 5.94-9M30.7 37.9l-2.23-2.98m-.5 4.28l-1.6-2.4m-.98 3.63l-1.33-1.94" fill="none" stroke-linecap="round"/></svg>