<svg xmlns="http://www.w3.org/2000/svg" viewBox="0 0 50 50"  xmlns:v="https://vecta.io/nano"><style><![CDATA[.C{stroke-linejoin:round}.D{stroke-width:1.2}.E{stroke-linecap:round}]]></style><g fill="none" stroke="#000" class="C"><path d="M17.06 9.24h17.08M1 33.7v-22a2.48 2.48 0 0 1 2.48-2.45h10.65M1 18.2h48" class="D E"/><path d="M1 33.7l10 10v-7.53a2.47 2.47 0 0 0-2.47-2.47z" class="D"/><g class="E"><path d="M11.2 9.24a2.93 2.93 0 1 1 2.93 2.93M31.2 9.24a2.93 2.93 0 1 1 2.93 2.93" class="D"/><path d="M37.06 9.24h9.46A2.48 2.48 0 0 1 49 11.72V41.2a2.48 2.48 0 0 1-2.47 2.48L11 43.7" stroke-width="1.3"/></g></g><path d="M10.72 29.16L7.67 26.1a2.49 2.49 0 0 1-.19-3.39 2.39 2.39 0 0 1 3.52-.09l.26.26.1-.1a2.48 2.48 0 0 1 3.38-.19 2.4 2.4 0 0 1 .1 3.48l-3.1 3.08a.69.69 0 0 1-1.03 0zm13.86 0l-3-3.05a2.49 2.49 0 0 1-.19-3.39 2.39 2.39 0 0 1 3.48-.09l.26.26.1-.1a2.49 2.49 0 0 1 3.39-.19 2.41 2.41 0 0 1 .09 3.48l-3.1 3.08a.69.69 0 0 1-1.04 0zm13.87 10.4L35.4 36.5a2.47 2.47 0 0 1-.18-3.38 2.39 2.39 0 0 1 3.47-.1l.26.26.1-.1a2.49 2.49 0 0 1 3.39-.19 2.39 2.39 0 0 1 .09 3.47l-3.1 3.1a.69.69 0 0 1-.98.01zm-13.95 0l-3.06-3.06a2.48 2.48 0 0 1-.18-3.38 2.39 2.39 0 0 1 3.47-.1l.26.26.1-.1a2.48 2.48 0 0 1 3.38-.19 2.39 2.39 0 0 1 .1 3.47l-3.1 3.1a.71.71 0 0 1-.99.01z"/><path d="M38.45 29.16L35.4 26.1a2.48 2.48 0 0 1-.18-3.39 2.38 2.38 0 0 1 3.47-.09l.26.26.1-.1a2.49 2.49 0 0 1 3.39-.19 2.4 2.4 0 0 1 .09 3.48l-3.1 3.08a.68.68 0 0 1-.98 0z"/></svg>