<svg xmlns="http://www.w3.org/2000/svg" viewBox="0 0 50 50"  xmlns:v="https://vecta.io/nano"><style><![CDATA[.E{stroke:#000}.F{stroke-linejoin:round}.G{stroke-width:1.2}.H{fill:#fff}.I{stroke-dasharray:4.57 4.57}.J{stroke-linecap:round}]]></style><circle cx="14.16" cy="13.77" r="4.26"/><g class="H"><ellipse cx="10.46" cy="18.73" rx="6.91" ry="5.24" transform="matrix(.597345 -.801984 .801984 .597345 -10.81 15.94)" class="E F G"/><path d="M5,17.5a10.82,10.82,0,0,0,8.28,6.16"/></g><path d="M7.87 22.16a12.29 12.29 0 0 1-4-5 2 2 0 0 1 3.75-1.46 8.79 8.79 0 0 0 6.73 4.91 2 2 0 0 1-.67 4 13.17 13.17 0 0 1-5.81-2.45z"/><path d="M8.4 18.05h0l.17-.13 6.05-4.67-7.08-2.75-.24-.1a4.28 4.28 0 0 0-2-.19 4.35 4.35 0 1 0 3.1 7.84zm3.42 2.55h0a1.8 1.8 0 0 1 .08-.21l2.74-7.13 4.65 6a1.56 1.56 0 0 1 .16.2h0a4.23 4.23 0 0 1 .76 1.88 4.35 4.35 0 1 1-8.6 1.26 4.27 4.27 0 0 1 .21-2z" class="E F G H"/><g fill="none" class="J E F G"><path d="M5.22 26.8a14.51 14.51 0 0 0-.54 2.81"/><path d="M4.8 34.16c.6 4 2.78 8.87 9 12.6" class="I"/><path d="M15.8 47.85L18.42 49m16.65-12.6a14.62 14.62 0 0 0 2.72-.89"/><path d="M41.73 33.23c3.22-2.46 6.44-6.7 6.7-13.94" class="I"/><path d="M48.43 17c0-.9-.13-1.87-.27-2.86M32 7.4a14.85 14.85 0 0 0-2-2.07"/><path d="M26.27 2.78C22.66 1 17.42-.1 10.8 2.8" class="I"/><path d="M8.74 3.8L6.27 5.3"/></g><circle cx="34.48" cy="22.61" r="4.26"/><g class="H"><ellipse cx="33.59" cy="16.49" rx="5.24" ry="6.91" transform="matrix(.99 -.14 .14 .99 -2.03 5.03)" class="E F G"/><path d="M38.36,13.46A10.84,10.84,0,0,0,28.15,15"/></g><path d="M33,12.23a12.49,12.49,0,0,1,6.37.69,2,2,0,0,1-1.63,3.7,8.82,8.82,0,0,0-8.23,1.28,2,2,0,0,1-2.34-3.28A13.26,13.26,0,0,1,33,12.23Z"/><path d="M35.53 15.5h0a1.64 1.64 0 0 0 0 .22l-1 7.58 7-3.1.24-.1a4.22 4.22 0 0 0 1.56-1.3 4.357 4.357 0 1 0-7-5.19 4.24 4.24 0 0 0-.8 1.89zm-4.23.63h0l.1.2 3.1 7-7.55-1h-.26a4.26 4.26 0 0 1-1.86-.8 4.357 4.357 0 1 1 5.19-7 4.19 4.19 0 0 1 1.29 1.59z" class="E F G H"/><circle cx="19.36" cy="37.18" r="4.26"/><g class="H"><ellipse cx="25.54" cy="36.98" rx="6.91" ry="5.24" transform="matrix(.99945 -.033155 .033155 .99945 -1.21 .87)" class="E F G"/><path d="M28,42.06a10.85,10.85,0,0,0-.34-10.31"/></g><path d="M29.84 36.87a12.38 12.38 0 0 1-1.4 6.25 2 2 0 0 1-3.49-2 8.83 8.83 0 0 0-.36-8.33 2 2 0 0 1 3.53-2 13.33 13.33 0 0 1 1.72 6.08z"/><path d="M26.3 39h0-.22l-7.42-1.82 2.3 7.26a1.83 1.83 0 0 0 .08.25h0a4.34 4.34 0 1 0 7-4.65A4.15 4.15 0 0 0 26.3 39zm-.14-4.24h0l-.22.07-7.28 2.3 1.87-7.65a4.28 4.28 0 0 1 1-1.76 4.344 4.344 0 1 1 6.34 5.94 4.44 4.44 0 0 1-1.71 1.1z" class="E F G H"/><g class="J E F G"><path d="M5.9 14.43l8.48-.96m1.57 8.45l-1.5-8.4" fill="none"/><path d="M39.86 16.3l-5.32 6.68m-7.1-4.88l7.02 4.9m-9.44 20.24L19 37.2m5.6-6.5L19 37.13" class="H"/></g></svg>