<svg xmlns="http://www.w3.org/2000/svg" viewBox="0 0 50 50"  xmlns:v="https://vecta.io/nano"><g fill="none" stroke="#000" stroke-linejoin="round"><path d="M27.24 13l-19-1.6a1.4 1.4 0 0 0-1.51 1.44l.92 27.58a1.5 1.5 0 0 0 1.69 1.43L42 37.37a1.45 1.45 0 0 0 1.25-1.44V15.3a1.09 1.09 0 0 0-1-1.08l-5-.43" stroke-linecap="round" stroke-width="1.79"/><g stroke-width="1.2"><path d="M22 40.08v3.76s-.23 3.06 2.17 4l2.62 1a1.94 1.94 0 0 0 1.26.05l6-1.8a.38.38 0 0 0 0-.71L30.6 45a2.51 2.51 0 0 1-1.68-2.81V39z"/><path d="M32.2 5.4s-3.32 2.67-1 8.78-3.26 8.8-6.2 9M22.46 26a4.35 4.35 0 0 1-1.23-3.09 4.42 4.42 0 0 1 .77-2.56m2.1-1.5a3.15 3.15 0 0 1 .87-.12 3.67 3.67 0 0 1 3.09 1.79m-8.84.42a6.39 6.39 0 0 1 4-4.42M28.9 28a5.61 5.61 0 0 1-8.24-.4" stroke-linecap="round"/><ellipse cx="34.23" cy="5.91" rx="1.19" ry="2.32" transform="matrix(.034551 -.999403 .999403 .034551 27.14 39.91)"/><ellipse cx="33.3" cy="13.45" rx="2.32" ry="1.19" transform="matrix(.758476 -.651701 .651701 .758476 -.72 24.95)"/><ellipse cx="28.41" cy="7.88" rx="1.19" ry="2.32" transform="matrix(.66952 -.742794 .742794 .66952 3.53 23.71)"/><ellipse cx="29.63" cy="17.4" rx="1.19" ry="2.32" transform="matrix(.66952 -.742794 .742794 .66952 -3.13 27.75)"/><ellipse cx="31.46" cy="3.3" rx="1.19" ry="2.32" transform="matrix(.987386 -.15833 .15833 .987386 -.12 5.02)"/></g></g><path d="M7.87 35.37l.34 5.55 1 .4L39 37.5l3.9-1.1v-3.6zm18.07 3a1.3 1.3 0 1 1 1.16-1.29 1.23 1.23 0 0 1-1.16 1.27z"/></svg>