<?xml version="1.0" encoding="UTF-8"?>
<svg width="14px" height="10px" viewBox="0 0 14 10" version="1.1" xmlns="http://www.w3.org/2000/svg" xmlns:xlink="http://www.w3.org/1999/xlink">
    <title>3A2724B5-4A4A-46ED-8EA7-B02336B460A8</title>
    <g id="FOR-PREVIEW-TO-ILLUSTRATORS" stroke="none" stroke-width="1" fill="none" fill-rule="evenodd" opacity="0.299892">
        <g id="3.1" transform="translate(-120.000000, -3796.000000)" fill="#1A1A1A" fill-rule="nonzero">
            <g id="Group-19" transform="translate(0.000000, 3226.000000)">
                <g id="Group-15" transform="translate(120.000000, 0.000000)">
                    <g id="Group-4" transform="translate(0.000000, 142.000000)">
                        <g id="Services/Challenges/Default-Copy-5" transform="translate(0.000000, 410.000000)">
                            <g id="Services/Challenges/Default-Copy-7">
                                <g id="Group-4-Copy-21">
                                    <g id="Group" transform="translate(0.000000, 17.000000)">
                                        <g id="“-2" transform="translate(0.000000, 1.000000)">
                                            <path d="M10.247093,10 C10.9156977,10 11.5552326,9.77207977 12.1656977,9.31623932 C12.6889535,8.83190883 12.9505814,8.23361823 12.9505814,7.52136752 C12.9505814,6.32478632 12.3546512,5.56980057 11.1627907,5.25641026 C10.4360465,5.05698006 10.0726744,4.75783476 10.0726744,4.35897436 C10.0726744,3.61823362 11.0901163,2.45014245 13.125,0.854700855 L13.125,0.854700855 L12.4273256,0 C10.5668605,0.997150997 9.25872093,2.12250712 8.50290698,3.37606838 C7.83430233,4.43019943 7.5,5.58404558 7.5,6.83760684 C7.5,7.89173789 7.81976744,8.73219373 8.45930233,9.35897436 C9.09883721,9.78632479 9.69476744,10 10.247093,10 Z M2.74709302,10 C3.44476744,10 4.09883721,9.77207977 4.70930233,9.31623932 C5.20348837,8.83190883 5.4505814,8.23361823 5.4505814,7.52136752 C5.4505814,6.32478632 4.85465116,5.56980057 3.6627907,5.25641026 C2.93604651,5.05698006 2.57267442,4.75783476 2.57267442,4.35897436 C2.57267442,3.61823362 3.59011628,2.45014245 5.625,0.854700855 L5.625,0.854700855 L4.97093023,0 C3.08139535,0.997150997 1.75872093,2.12250712 1.00290698,3.37606838 C0.334302326,4.43019943 0,5.58404558 0,6.83760684 C0,7.89173789 0.319767442,8.73219373 0.959302326,9.35897436 C1.59883721,9.78632479 2.19476744,10 2.74709302,10 Z" id="“"></path>
                                        </g>
                                    </g>
                                </g>
                            </g>
                        </g>
                    </g>
                </g>
            </g>
        </g>
    </g>
</svg>