<?xml version="1.0" encoding="UTF-8"?>
<svg width="105px" height="24px" viewBox="0 0 105 24" version="1.1" xmlns="http://www.w3.org/2000/svg" xmlns:xlink="http://www.w3.org/1999/xlink">
    <title>BlueJeans</title>
    <g id="Home-Page" stroke="none" stroke-width="1" fill="none" fill-rule="evenodd">
        <g id="1.1" transform="translate(-352.000000, -4481.000000)" fill="#616161">
            <g id="BlueJeans" transform="translate(352.000000, 4481.000000)">
                <path d="M102.765427,11.1887764 C102.105328,10.8297783 100.755125,10.6502792 98.6848145,10.5904461 C97.3646163,10.5605296 96.7345217,10.1416984 96.7345217,9.36386904 C96.7345217,8.46637361 97.4246253,8.0475424 98.8648415,8.0475424 C100.395071,8.0475424 101.715269,8.46637361 102.765427,9.2741195 L102.825436,9.33395253 L104.685715,7.0004644 L104.625706,6.94063137 C102.975459,5.7738873 101.085175,5.20547352 98.9848596,5.20547352 C97.4546298,5.20547352 96.2244452,5.53455518 95.3543145,6.1927185 C94.2441479,7.0004644 93.6740623,8.10737543 93.6740623,9.39378556 C93.6740623,10.8896113 94.3641659,12.0264388 95.7143686,12.7743517 C96.2244452,13.0735168 96.8545397,13.2530159 97.6346569,13.3427655 C98.0847244,13.4025985 98.774828,13.432515 99.6449586,13.4624315 C100.515089,13.492348 101.115179,13.5820976 101.475233,13.7915132 C101.805283,13.9710123 101.98531,14.3000939 101.98531,14.7488417 C101.98531,15.7660031 101.025166,16.2446674 99.1048776,16.2446674 C97.4846343,16.2446674 96.1044271,15.7360866 94.964256,14.6890086 L94.904247,14.6291756 L92.7439227,16.6634986 L92.8039317,16.7233316 C94.3941704,18.2789904 96.5244902,19.0867363 99.1048776,19.0867363 C100.875143,19.0867363 102.285355,18.6978216 103.365517,17.9199922 C104.445679,17.1122463 104.98576,16.0651683 104.98576,14.7787582 C105.015765,13.1632664 104.265652,11.9666058 102.765427,11.1887764 Z M86.8630398,5.20547352 C85.5428416,5.20547352 84.4026705,5.59438821 83.5025354,6.40213411 L83.2024903,6.67138274 L83.2024903,5.38497261 L80.1720354,5.38497261 L80.1720354,18.9371537 L83.2024903,18.9371537 L83.2024903,10.5605296 C83.2024903,9.9023663 83.4725308,9.30403601 84.0426164,8.79545527 C84.612702,8.256958 85.2427966,8.01762589 85.9629047,8.01762589 C86.7130173,8.01762589 87.3131074,8.256958 87.8531885,8.79545527 C88.3932695,9.30403601 88.6633101,9.9023663 88.6633101,10.5904461 L88.6633101,18.9371537 L91.6637605,18.9371537 L91.6637605,9.84253327 C91.6637605,8.55612315 91.1836884,7.44921211 90.2535488,6.55171668 C89.3534137,5.65422124 88.2132425,5.20547352 86.8630398,5.20547352 Z M74.9212471,14.2103444 C74.9212471,15.1975894 74.7712246,15.4967545 74.6512066,15.6463371 C74.3211571,16.1549178 73.4810309,16.39425 72.0708192,16.39425 C70.21054,16.39425 69.2804003,15.8258362 69.2804003,14.7189251 C69.2804003,14.0906783 69.5504409,13.6120141 70.0905219,13.3427655 C70.330558,13.2230994 70.750621,13.1632664 71.3207066,13.1632664 L74.9212471,13.1632664 L74.9212471,14.2103444 Z M76.4514769,6.34230108 C75.5213372,5.59438821 74.1111255,5.20547352 72.2508463,5.20547352 C69.8204814,5.20547352 68.1702337,5.86363684 67.2700985,7.12013045 L67.2100895,7.17996348 L69.5804454,8.97495435 L69.6404544,8.88520481 C69.8804904,8.46637361 70.2405445,8.22704149 70.750621,8.10737543 C71.0206616,8.0475424 71.5007336,7.98770937 72.2208418,7.98770937 C73.3610129,7.98770937 74.1111255,8.16720846 74.5311886,8.49629012 C74.7712246,8.70570572 74.9212471,9.15445344 74.9212471,9.81261676 L74.9212471,10.7400287 L71.2606976,10.7400287 C70.270549,10.7400287 69.4904319,10.8596948 68.9203463,11.1289434 C68.1702337,11.4580251 67.5701436,11.9965223 67.0900715,12.6546856 C66.6099995,13.3427655 66.3999679,14.0607618 66.3999679,14.8685077 C66.3999679,16.0950848 66.88004,17.1122463 67.8701886,17.9199922 C68.8303328,18.6978216 70.0905219,19.0867363 71.6207517,19.0867363 C72.9109453,19.0867363 73.9310985,18.7576546 74.5911976,18.1294078 L74.8912426,17.8302426 L74.8912426,18.9072372 L77.9216976,18.9072372 L77.9216976,9.51345161 C77.9517021,8.22704149 77.4416255,7.15004697 76.4514769,6.34230108 Z M56.708513,10.6502792 L56.7385176,10.4408636 C56.8585356,9.72286722 57.1585806,9.15445344 57.6086482,8.70570572 C58.1487293,8.19712498 58.8088283,7.95779286 59.6489545,7.95779286 C60.4590761,7.95779286 61.1491797,8.19712498 61.6892608,8.73562224 C62.1993373,9.18436995 62.4693779,9.75278373 62.5293869,10.4408636 L62.5593914,10.6203627 L56.708513,10.6502792 Z M59.6489545,5.20547352 C58.0287112,5.20547352 56.6184995,5.74397079 55.4483239,6.82096531 C54.2781482,7.89795983 53.7080626,9.21428647 53.7080626,10.7400287 L53.7080626,13.1034334 C53.7080626,14.4496765 54.0381122,15.5865041 54.6982113,16.513916 C55.8983914,18.2191573 57.6986617,19.0867363 59.979004,19.0867363 C62.1393283,19.0867363 63.8795896,18.3388234 65.2297923,16.8429977 L65.2898013,16.7831646 L62.9794544,14.9283407 L62.9194454,14.9881738 C62.0793193,15.8557527 61.1491797,16.2446674 60.0090085,16.2446674 C59.0488644,16.2446674 58.2687473,15.9754187 57.6686572,15.4369215 C57.0385626,14.8984242 56.7385176,14.2701774 56.7385176,13.432515 L56.7385176,13.1632664 L65.5598418,13.1632664 L65.5598418,11.0391939 C65.5598418,9.36386904 64.9897562,7.95779286 63.8795896,6.85088182 C62.7694229,5.74397079 61.3592112,5.20547352 59.6489545,5.20547352 Z M45.456824,20.7620611 L45.3668104,20.7620611 L45.3668104,20.8518106 C45.3668104,22.7664675 45.3668104,23.663963 45.456824,23.8135456 L45.4868285,23.8135456 C47.6471528,23.8135456 49.387414,22.9459666 50.7076122,21.2407253 C51.5177338,20.1637308 51.9077924,18.8174876 51.9077924,17.1720793 L51.9077924,0 L48.7273149,0 L48.7273149,16.7831646 C48.7273149,17.8302426 48.6373014,18.548239 48.4572744,18.9371537 C47.8871888,20.1637308 46.9270447,20.7620611 45.456824,20.7620611 Z M38.1357249,10.4408636 C38.2557429,9.72286722 38.555788,9.15445344 39.0058555,8.70570572 C39.5459366,8.19712498 40.2060357,7.95779286 41.0161573,7.95779286 C41.8262789,7.95779286 42.5163825,8.19712498 43.0564636,8.73562224 C43.5665402,9.18436995 43.8365807,9.75278373 43.8965897,10.4408636 L43.9265942,10.6203627 L38.1057204,10.6203627 L38.1357249,10.4408636 Z M44.2866483,14.9881738 C43.4465222,15.8557527 42.5163825,16.2446674 41.3762114,16.2446674 C40.4160672,16.2446674 39.6359501,15.9754187 39.03586,15.4369215 C38.4057655,14.8984242 38.1057204,14.2701774 38.1057204,13.432515 L38.1057204,13.1632664 L46.9270447,13.1632664 L46.9270447,11.0391939 C46.9270447,9.36386904 46.3569591,7.95779286 45.2467924,6.85088182 C44.1366258,5.74397079 42.6964096,5.17555701 41.0161573,5.17555701 C39.3959141,5.17555701 37.9857024,5.71405427 36.8155267,6.79104879 C35.6453511,7.86804332 35.0752655,9.18436995 35.0752655,10.7101122 L35.0752655,13.0735168 C35.0752655,14.41976 35.405315,15.5565875 36.0654141,16.4839995 C37.2655943,18.1892408 39.03586,19.0568197 41.3462069,19.0568197 C43.5065312,19.0568197 45.2467924,18.3089069 46.5969951,16.8130812 L46.6570041,16.7532481 L44.3466573,14.8984242 L44.2866483,14.9881738 Z M27.6641529,16.2147509 C26.6139953,16.2147509 25.8338782,15.7959197 25.2637926,14.9582573 C25.0237566,14.5693426 24.9037385,13.9710123 24.9037385,13.1632664 L24.9037385,5.3550561 L21.9032881,5.3550561 L21.9032881,14.0607618 C21.9032881,15.0480068 22.0233061,15.7660031 22.2633422,16.3045004 C22.6534007,17.1122463 23.2834953,17.8003261 24.1236214,18.3089069 C24.933743,18.8174876 25.8338782,19.0867363 26.7640178,19.0867363 C28.0542115,19.0867363 29.1943826,18.6679051 30.0945178,17.8302426 L30.3945628,17.560994 L30.3945628,18.9072372 L33.3950132,18.9072372 L33.3950132,5.3550561 L30.3945628,5.3550561 L30.3945628,12.9837673 C30.3945628,13.8214297 30.3045493,14.4496765 30.0945178,14.8086747 C29.6144457,15.7660031 28.8043241,16.2147509 27.6641529,16.2147509 Z M16.7725179,18.9072372 L19.7729683,18.9072372 L19.7729683,0 L16.7725179,0 L16.7725179,18.9072372 Z M11.1316711,15.2873389 C10.5615855,15.7959197 9.78146839,16.0352518 8.79131975,16.0352518 L3.15047295,16.0352518 L3.15047295,10.5306131 L8.82132425,10.5306131 C9.51142785,10.5306131 10.0515089,10.6203627 10.471572,10.8297783 C11.4917251,11.3084425 12.0018017,12.1161884 12.0018017,13.2530159 C12.0018017,14.1205948 11.7017567,14.7787582 11.1316711,15.2873389 Z M3.15047295,2.63265328 L8.73131074,2.63265328 C9.60144136,2.63265328 10.291545,2.87198539 10.831626,3.38056614 C11.4017116,3.85923037 11.6717522,4.48747718 11.6717522,5.26530655 C11.6717522,6.01321942 11.4017116,6.64146622 10.8616305,7.12013045 C10.3215495,7.6287112 9.63144587,7.86804332 8.76131524,7.86804332 L3.15047295,7.86804332 L3.15047295,2.63265328 Z M12.4818738,9.21428647 L12.6619008,9.0647039 C14.0121035,7.98770937 14.6722026,6.67138274 14.6722026,5.17555701 C14.6722026,4.21822855 14.4321665,3.32073311 13.92209,2.51298722 C13.4120134,1.67532481 12.7519143,1.04707801 11.9117882,0.628246805 C11.0716621,0.209415602 10.0215044,0 8.70130624,0 L0,0 L0,18.9371537 L8.85132876,18.9371537 C10.231536,18.9371537 11.3717071,18.6978216 12.2118332,18.2490739 C13.0819639,17.8003261 13.7720675,17.1421628 14.282144,16.3045004 C14.7922206,15.466838 15.0322566,14.5693426 15.0322566,13.6419306 C15.0322566,11.7871067 14.2521395,10.351114 12.6919053,9.33395253 L12.4818738,9.21428647 L12.4818738,9.21428647 Z" id="Fill-1"></path>
            </g>
        </g>
    </g>
</svg>