<?xml version="1.0" encoding="UTF-8"?>
<svg width="96px" height="22px" viewBox="0 0 96 22" version="1.1" xmlns="http://www.w3.org/2000/svg" xmlns:xlink="http://www.w3.org/1999/xlink">
    <title>DMartReady</title>
    <g id="Assets" stroke="none" stroke-width="1" fill="none" fill-rule="evenodd" opacity="0.6">
        <g id="Artboard" transform="translate(-972.000000, -92.000000)" fill="#000000" fill-rule="nonzero">
            <g id="DMartReady" transform="translate(972.000000, 92.000000)">
                <path d="M16.7228267,5.46679162 C15.361468,3.82451119 13.4004291,2.81706213 10.9477105,2.55208918 C10.4588719,2.49964644 9.96719071,2.44444444 9.31351158,2.44444444 L8.27899273,2.44444444 L5.71827454,2.55208918 L1.46935764,2.55208918 L0,2.49964644 L0.161998649,3.71686645 L0.161998649,5.46679162 L0.272840137,8.16896386 L0.272840137,17.0731587 L0.161998649,20.517807 L0,22 L1.52335743,21.8951145 L3.15755635,21.8951145 L5.5022761,22 L8.98667165,21.8951145 L9.31351158,21.8951145 C10.6208706,21.8426718 11.8742298,21.5776988 12.9627484,21.0477529 C14.1621085,20.517807 15.1966267,19.7228882 16.1231467,18.7154391 C17.8653444,16.7529837 18.7378646,14.3682272 18.7378646,11.5611695 C18.7918644,9.17641292 18.0841848,7.1615148 16.7228267,5.46679162 Z M9.36751137,20.0927466 C8.65983245,20.2528341 7.89815301,20.3577196 7.07963259,20.3577196 L4.52175704,20.3577196 L4.52175704,16.5432128 L4.46491461,12.3560883 L4.52175704,8.16896386 L4.52175704,4.08948414 L6.86363488,4.08948414 C7.67931266,4.08948414 8.55183286,4.14192688 9.36751137,4.35445709 C12.039071,4.98928846 14.2161076,6.89654185 14.2161076,11.7184977 C14.2161076,16.6480983 12.41991,19.2978278 9.36751137,20.0927466 Z" id="Shape"></path>
                <path d="M57.0980912,2.44444444 C56.3579423,2.60307123 55.4576122,2.60307123 54.6649899,2.55019563 C52.4417815,7.03904003 50.3235192,11.5278844 48.1527835,15.9610712 L41.8007597,2.49732004 C41.0081373,2.55019563 40.2127534,2.55019563 39.420131,2.49732004 C39.2599499,3.51308444 39.155003,4.52884885 38.9948219,5.54183122 L38.6772205,8.26908884 L37.8321247,14.6809288 L37.249396,18.8998312 L36.9317946,20.6113244 L36.6666667,21.8942488 C37.4620506,21.7857156 38.3071457,21.8385912 39.155003,21.8942488 C39.5250779,17.5640312 39.9476254,13.2894712 40.3729345,8.96203562 L46.5123045,21.9471244 L47.5700548,21.9471244 L48.4703849,19.9684712 L51.0636681,14.6809288 L53.7646591,8.96203562 L55.0350647,22 C56.5181241,21.8385912 57.998422,21.8385912 59.4814815,21.9471244 C58.6336241,15.4267512 57.8934752,8.96203562 57.0980912,2.44444444 Z" id="Path"></path>
                <path d="M85.5555556,7.33333333 C82.1051344,7.385855 81.8263125,8.87027867 80.6558412,11.0485376 L80.6006583,7.65122673 C79.2646359,7.75627007 77.928615,7.75627007 76.5925926,7.65122673 C77.2054201,10.4625091 76.7610479,18.1057677 76.5925926,21.1851852 L80.9346631,21.1851852 C80.7691128,18.9544046 80.7110249,16.7263874 80.7110249,14.5508918 L80.7110249,14.07267 C80.7110249,13.9123416 80.7110249,13.702255 80.7110249,13.4894049 C81.1583021,10.2524224 85.1663663,11.366431 85.1111833,11.4189527 L85.4451882,11.1535809 C85.3319173,9.87924394 85.387101,8.60490693 85.5555556,7.33333333 Z" id="Path"></path>
                <path d="M74.005174,20.3957904 C73.047385,20.0741813 73.3139003,19.1065584 73.3139003,18.2480024 L73.3139003,12.3947209 C73.3139003,10.1937974 72.4616066,8.26134732 70.1740175,7.61533349 C69.3744718,7.39999555 68.5249548,7.29372443 67.7781571,7.34685999 C66.0763457,7.50906238 64.4800303,8.26134732 62.9364636,9.22617449 L63.2557261,10.9992179 L63.5222413,10.9460823 C64.9603135,9.494648 66.5566289,9.27931005 67.7254091,9.65685038 C69.802007,10.3000685 70.6515239,12.6631944 67.7254091,13.6839529 C67.3533979,13.790224 66.8758914,13.8992908 66.3428609,14.0055619 C64.1607678,14.327171 61.9259259,15.4542006 61.9259259,18.0326644 C61.9259259,19.7497766 62.7782196,21.2543464 64.6937982,21.7381579 C65.7570832,22.0066314 66.8203674,21.9534958 67.7254091,21.5228199 C68.4166828,21.2012109 69.0024613,20.7173994 69.5354917,19.9651145 C69.693735,19.7497766 70.5460287,23.5643368 74.8574677,21.2543464 L74.962963,20.5551971 C74.6437005,20.5551971 74.2716892,20.5020615 74.005174,20.3957904 Z M67.7254091,19.9119789 C67.6726611,19.9119789 67.6199131,19.9119789 67.5671651,19.9119789 C66.4483569,19.9119789 65.8098305,19.1065584 65.8625784,17.548853 C65.9181024,16.0470788 66.8203674,15.3479294 67.7781571,14.9172536 C68.4722068,14.5956445 69.2162285,14.4362378 69.693735,14.1677643 C69.4827437,17.0650416 69.8547542,19.7497766 67.7254091,19.9119789 Z" id="Shape"></path>
                <path d="M89.095118,7.8621463 L88.990206,4.28420642 L92.9096024,2.44444444 L92.8584913,3.58159767 L92.7535801,4.98963599 L92.7535801,7.91575915 C93.5283132,7.91575915 94.3541574,7.96937201 95.1262,7.69848691 C95.0239786,8.2402571 95.0239786,8.72841443 95.1262,9.27018461 L92.6002469,9.21657176 L92.6002469,17.6676225 C92.6002469,18.69755 92.651358,19.4537716 92.9096024,19.8347032 C93.4260911,20.5937456 94.4563788,20.5937456 95.3333333,20.1592012 L95.2284221,21.3499673 L94.6635121,21.5672395 C92.3931136,22.4335076 89.3506718,22.1626225 89.041317,19.2393202 C88.990206,18.9120014 88.990206,18.4802778 88.990206,18.0993461 L88.990206,9.21657176 C88.3714958,9.27018461 87.803896,9.27018461 87.1851852,9.27018461 C87.2900971,8.78202728 87.2900971,8.29386995 87.1851852,7.75209977 L89.095118,7.8621463 Z" id="Path"></path>
                <path d="M18.2539437,20.3998544 L34.7090192,20.3998544 L35.037037,21.1851852 L17.9259259,21.1851852 L18.2539437,20.3998544 Z M19.1296084,18.4610694 L33.8904011,18.4610694 L34.2184189,19.1427798 L18.8015906,19.1427798 L19.1296084,18.4610694 Z M19.9510786,16.5768206 L33.0689309,16.5768206 L33.3427543,17.2039949 L19.6772552,17.2039949 L19.9510786,16.5768206 Z M20.7155016,14.7961922 L32.1961191,14.7961922 L32.412896,15.3715562 L20.4958726,15.3715562 L20.7155016,14.7961922 Z M21.479926,13.0155637 L31.4288433,13.0155637 L31.6484723,13.4873074 L21.2631484,13.4873074 L21.479926,13.0155637 Z M22.2472018,11.3412817 L30.7186133,11.3412817 L30.9382423,11.7612152 L22.0817665,11.7612152 L22.2472018,11.3412817 Z M22.9574311,9.71880982 L30.008384,9.71880982 L30.1738193,10.0842072 L22.7919958,10.0842072 L22.9574311,9.71880982 Z M23.6676604,8.14814815 L29.2981547,8.14814815 L29.4607372,8.46173529 L23.5022258,8.46173529 L23.6676604,8.14814815 Z" id="Shape"></path>
                <path d="M24.6488316,1.43278543 C24.8565593,1.26912003 25.1708835,1.32367516 25.3813449,1.54476609 C25.5371405,1.76585702 25.4852084,2.09605821 25.2774808,2.31714913 C25.06702,2.48081453 24.7526951,2.4262594 24.5422343,2.20516847 C24.3864388,1.98407755 24.4383708,1.65387636 24.6488316,1.43278543 Z M28.2621993,1.43278543 C28.0517385,1.26912003 27.7374136,1.32367516 27.5296859,1.54476609 C27.3711573,1.76585702 27.4230887,2.09605821 27.6335501,2.31714913 C27.8440109,2.48081453 28.1583358,2.4262594 28.3660635,2.20516847 C28.5245921,1.98407755 28.47266,1.65387636 28.2621993,1.43278543 Z M26.4801146,0 C25.7995333,3.91359996 26.2723869,3.14408731 22.8148148,2.81101573 C26.2204548,4.52231761 25.9061306,3.69537943 24.2279094,7.33333333 C25.6956692,6.0642133 26.4281832,5.0161842 26.4801146,3.85904483 C26.5347798,5.0161842 27.2672931,6.00965817 28.7350529,7.33333333 C27.0568324,3.6379539 26.7425074,4.46489208 30.1481481,2.81101573 C26.690576,3.14408731 27.1634296,3.85904483 26.4801146,0 Z" id="Shape"></path>
            </g>
        </g>
    </g>
</svg>