<?xml version="1.0" encoding="UTF-8"?>
<svg width="82px" height="40px" viewBox="0 0 82 40" version="1.1" xmlns="http://www.w3.org/2000/svg" xmlns:xlink="http://www.w3.org/1999/xlink">
    <title>exotel</title>
    <g id="Assets" stroke="none" stroke-width="1" fill="none" fill-rule="evenodd" opacity="0.6">
        <g id="Artboard" transform="translate(-1659.000000, -461.000000)" fill="#000000">
            <g id="exotel-logo-vector-copy-2" transform="translate(1659.000000, 461.000000)">
                <path d="M63.1545779,11.9942686 C64.1372736,11.5702748 65.1854824,11.3651166 66.272999,11.3651166 C67.3343103,11.3651166 68.3432113,11.5839521 69.3128044,12.021623 C70.2430897,12.4456168 71.0816567,13.0474144 71.8023002,13.8133385 C72.5229437,14.6066172 73.0732533,15.4956363 73.4663316,16.4940732 C73.8856151,17.5608962 74.0952569,18.6687508 74.0952569,19.8039599 L60.2457986,19.8039599 C60.2589012,20.5698841 60.4292351,21.322131 60.7436977,22.0333464 C61.0450578,22.7308845 61.4512387,23.3600365 61.9884457,23.9344796 C62.5911657,24.5226 63.2593988,24.9739482 63.9931449,25.2885242 C64.7137884,25.6031002 65.4606372,25.7535496 66.2205885,25.7535496 C66.9805399,25.7535496 67.7404912,25.5757457 68.48734,25.2338153 C69.2603939,24.9055621 69.9810375,24.399505 70.6492705,23.7156441 L71.9726341,25.1791064 C71.1602723,26.0270939 70.2430897,26.6836004 69.2210861,27.1349485 C68.251493,27.5589423 67.2425921,27.7641006 66.2074859,27.7641006 C65.1723798,27.7641006 64.1765814,27.5726195 63.2462962,27.1896574 C62.2636005,26.7793409 61.372623,26.1912205 60.599569,25.3979419 C59.8789255,24.6046633 59.3286159,23.7293213 58.9355376,22.7719161 C58.4900489,21.7187704 58.2804072,20.6382702 58.2804072,19.5167383 C58.2804072,18.3952065 58.4769463,17.3283835 58.8831272,16.3162694 C59.3024107,15.3451869 59.8789255,14.4835222 60.599569,13.717598 C61.3595204,12.9790283 62.1980874,12.4045851 63.1545779,11.9942686 L63.1545779,11.9942686 Z M66.272999,13.3756676 C65.5654581,13.3756676 64.8841224,13.4714081 64.2420945,13.6765664 C63.6393745,13.8954018 63.0890649,14.1963006 62.5780631,14.59294 C62.0670613,15.0032565 61.6346752,15.4682819 61.2809047,16.0016934 C60.9271343,16.5487821 60.6650821,17.1505797 60.4816456,17.7934089 L71.841608,17.7934089 C71.6450689,17.1505797 71.3699141,16.5487821 71.0292462,16.0016934 C70.6754758,15.4682819 70.2692949,15.0032565 69.7844983,14.6202944 C69.2865992,14.2099779 68.7493922,13.9090791 68.1466721,13.6765664 C67.5570547,13.4850853 66.9281294,13.3756676 66.272999,13.3756676 L66.272999,13.3756676 Z M51.7946154,4.44444444 L53.720699,4.44444444 L53.720699,11.3377621 L56.5508627,11.3377621 C56.8129149,11.3377621 57.0487619,11.4335027 57.2321984,11.6113065 C57.4287375,11.830142 57.5204558,12.0763319 57.5204558,12.3498763 C57.5204558,12.6097434 57.4287375,12.8422561 57.2321984,13.0337371 C57.0356593,13.211541 56.8129149,13.3072815 56.5508627,13.3072815 L54.2448034,13.3072815 C53.891033,13.3072815 53.720699,13.4714081 53.720699,13.7996613 L53.720699,21.1169728 C53.720699,21.6093526 53.8124173,22.0880552 54.0089565,22.5530806 C54.2185982,23.018106 54.5068556,23.4147453 54.8606261,23.7429986 C55.2143965,24.0986062 55.6205774,24.3447961 56.0791688,24.5089228 C56.5377601,24.714081 57.0225566,24.8098215 57.5335584,24.8098215 L57.5335584,26.8203725 C56.7736071,26.8203725 56.0398609,26.6562459 55.3454226,26.3553471 C54.6640869,26.0818028 54.0482643,25.6714863 53.5241599,25.1380748 C52.9738503,24.6046633 52.5676694,24.0028657 52.279412,23.3190048 C51.9649494,22.6077895 51.8077181,21.8692197 51.8077181,21.1169728 L51.8077181,13.7996613 C51.8077181,13.4714081 51.6635893,13.3072815 51.3622293,13.3072815 L50.4450467,13.3072815 C50.1436866,13.3072815 49.8947371,13.211541 49.6981979,13.0337371 C49.5016588,12.8559333 49.4099405,12.6234206 49.4099405,12.3498763 C49.4099405,11.6660154 49.7506084,11.3240849 50.4450467,11.3240849 L51.7946154,11.3240849 L51.7946154,4.44444444 Z M75.9165196,4.44444444 L79.3231981,4.44444444 L79.3231981,24.4131822 C79.3231981,24.6867266 79.4673268,24.8234988 79.7424816,24.8234988 L80.7513825,24.8234988 C81.0003321,24.8234988 81.2230764,24.9329165 81.406513,25.151752 C81.6161547,25.3705875 81.7209756,25.6167774 81.7209756,25.8629673 C81.7209756,26.5057965 81.3934104,26.8340498 80.7382799,26.8340498 L75.903417,26.8340498 C75.3006969,26.8340498 74.9993369,26.5057965 74.9993369,25.8629673 C74.9993369,25.6031002 75.0910552,25.3705875 75.2875943,25.151752 C75.4579282,24.9329165 75.66757,24.8234988 75.8903144,24.8234988 L76.8468049,24.8234988 C77.2005753,24.8234988 77.3709092,24.6867266 77.3709092,24.4131822 L77.3709092,6.89266641 C77.3709092,6.61912205 77.2005753,6.48234988 76.8468049,6.48234988 L75.8903144,6.48234988 C75.66757,6.48234988 75.4579282,6.37293213 75.2875943,6.15409665 C75.0910552,5.94893839 74.9993369,5.71642569 74.9993369,5.44288133 L74.9993369,5.38817246 C75.0124395,5.15565976 75.1172604,4.92314706 75.2875943,4.73166602 C75.4841335,4.52650775 75.6937752,4.44444444 75.9165196,4.44444444 L75.9165196,4.44444444 Z M15.199027,16.4940732 C15.6183106,17.5608962 15.8279523,18.6687508 15.8279523,19.8039599 L1.97849404,19.8039599 C1.99159665,20.5698841 2.16193057,21.322131 2.4763932,22.0333464 C2.77775322,22.7308845 3.18393411,23.3600365 3.7211411,23.9344796 C4.32386114,24.5226 4.99209423,24.9739482 5.72584036,25.2885242 C5.76514819,25.3022014 5.80445602,25.3295558 5.85686646,25.343233 C6.53820215,25.6167774 7.24574307,25.7535496 7.94018137,25.7535496 C8.60841446,25.7535496 9.28975015,25.6167774 9.97108585,25.343233 C10.0365989,25.3022014 10.1152146,25.2748469 10.2069328,25.2338153 C10.9799868,24.9055621 11.7006303,24.399505 12.3688634,23.7156441 L13.692227,25.1791064 C13.6398165,25.2338153 13.5874061,25.2885242 13.5349956,25.343233 C12.7619417,26.1091572 11.8971694,26.7109548 10.940679,27.1349485 C10.167625,27.4632018 9.38146842,27.66836 8.58220924,27.7367461 C8.35946488,27.7504233 8.13672051,27.7641006 7.92707876,27.7641006 C7.7043344,27.7641006 7.48159004,27.7504233 7.27194829,27.7367461 C6.45958649,27.66836 5.69963514,27.476879 4.96588901,27.1896574 C3.98319329,26.7793409 3.09221585,26.1912205 2.31916189,25.3979419 C2.30605928,25.3842647 2.27985406,25.3569103 2.26675145,25.343233 C1.55921053,24.5773088 1.02200354,23.7156441 0.655130476,22.7719161 C0.209641752,21.7187704 1.42932297e-13,20.6382702 1.42932297e-13,19.5167383 C1.42932297e-13,18.3952065 0.209641752,17.3283835 0.602720038,16.3162694 C1.02200354,15.3451869 1.59851836,14.4835222 2.31916189,13.717598 C3.05290802,12.965351 3.90457764,12.3909079 4.86106813,11.9805914 C5.84376385,11.5565976 6.89197261,11.3514394 7.9794892,11.3514394 C9.04080057,11.3514394 10.0497015,11.5702748 11.0192946,12.0079458 C11.9495799,12.4319396 12.7881469,13.0337371 13.5087904,13.7996613 C14.2556392,14.6066172 14.8059488,15.4956363 15.199027,16.4940732 L15.199027,16.4940732 Z M13.5874061,17.7934089 C13.3908669,17.1505797 13.1157121,16.5487821 12.7619417,16.0016934 C12.4081712,15.4682819 12.0019903,15.0032565 11.5171938,14.6202944 C11.0192946,14.2099779 10.4820876,13.9090791 9.87936758,13.6765664 C9.27664754,13.4714081 8.66082489,13.3756676 8.00569442,13.3756676 C7.2981535,13.3756676 6.61681781,13.4714081 5.97478994,13.6765664 C5.3720699,13.8954018 4.8217603,14.1963006 4.31075853,14.59294 C3.79975676,15.0032565 3.36737065,15.4682819 3.01360019,16.0016934 C2.65982973,16.5487821 2.39777754,17.1505797 2.21434101,17.7934089 L13.5874061,17.7934089 Z M46.9728551,19.5714472 C46.9728551,18.7234597 46.8025212,17.9028266 46.474956,17.1232252 C46.173596,16.357301 45.7412098,15.6871174 45.1777976,15.0853198 C44.627488,14.5108766 43.9854602,14.0595285 43.2386114,13.7312752 C42.4917627,13.403022 41.7056061,13.2388954 40.8932443,13.2388954 C40.0677799,13.2388954 39.2816233,13.403022 38.5478772,13.7312752 C37.8141311,14.0595285 37.1721032,14.5108766 36.6217936,15.0853198 C36.0583814,15.6734401 35.6259953,16.357301 35.3246353,17.1232252 C35.0232753,17.9028266 34.8791465,18.7234597 34.8791465,19.5714472 C34.8791465,20.4331119 35.0232753,21.2674222 35.3246353,22.0470236 C35.6259953,22.7992705 36.0583814,23.455777 36.6217936,24.0302201 C37.1721032,24.6183405 37.8141311,25.0696887 38.5478772,25.3842647 C38.6264929,25.4252963 38.7182111,25.4526508 38.7968268,25.4936824 C39.4650599,25.7535496 40.1594982,25.8903217 40.8932443,25.8903217 C41.6269905,25.8903217 42.3214288,25.7672268 42.9896618,25.4936824 C43.0682775,25.466328 43.1599958,25.4252963 43.2386114,25.3842647 C43.9854602,25.0696887 44.6405906,24.6183405 45.1777976,24.0302201 C45.7412098,23.455777 46.173596,22.7992705 46.474956,22.0470236 C46.8025212,21.2674222 46.9728551,20.4467891 46.9728551,19.5714472 L46.9728551,19.5714472 Z M48.1651926,16.3983327 C48.5844761,17.4104468 48.7941179,18.4635925 48.7941179,19.5714472 C48.7941179,20.6793018 48.5844761,21.7461248 48.1651926,22.7719161 C47.7721143,23.7429986 47.1955995,24.6183405 46.474956,25.3705875 L46.3701351,25.4800052 C45.6494916,26.1775433 44.863335,26.724632 43.9723576,27.1212713 C43.186201,27.4632018 42.3738392,27.6820373 41.5221696,27.7504233 C41.3125278,27.7641006 41.0897835,27.7777778 40.8801417,27.7777778 C40.6573973,27.7777778 40.4608582,27.7641006 40.2512165,27.7504233 C39.3995468,27.6820373 38.6002877,27.476879 37.8272337,27.1212713 C36.9231536,26.724632 36.1369971,26.1775433 35.4294561,25.4800052 C35.3901483,25.4526508 35.3639431,25.4116191 35.3246353,25.3705875 C34.5908891,24.6046633 34.0274769,23.7429986 33.6343986,22.7719161 C33.2151151,21.7461248 33.0054734,20.6793018 33.0054734,19.5714472 C33.0054734,18.4772698 33.2151151,17.424124 33.6343986,16.3983327 C34.0274769,15.4272502 34.6039918,14.5655855 35.3246353,13.7996613 C36.0452788,13.0337371 36.8707432,12.4456168 37.8141311,12.0353002 C38.7837242,11.5976293 39.7926251,11.3787938 40.8539365,11.3787938 C41.9283505,11.3787938 42.9634566,11.5976293 43.9461523,12.0353002 C44.8764376,12.459294 45.7150046,13.0474144 46.4356481,13.7996613 C47.2087021,14.5655855 47.7721143,15.4272502 48.1651926,16.3983327 L48.1651926,16.3983327 Z" id="Shape"></path>
                <path d="M33.1123167,14.7876492 C33.1261886,14.8008494 33.1261886,14.8008494 33.1400605,14.8140496 C33.3620116,15.0384527 33.4591151,15.3552571 33.4174993,15.7644628 C33.3203957,16.2924702 32.9735973,16.5564738 32.3771039,16.5564738 L31.8083545,16.5564738 C31.4338121,16.569674 31.1008856,16.6356749 30.8234469,16.7676768 C30.5876239,16.8732782 30.3934168,17.0184803 30.2408254,17.2032828 L25.9543965,23.7373737 C25.8018052,24.0013774 25.8018052,24.2917815 25.9682685,24.5821855 L30.0743622,30.9578742 C30.4627765,31.5386823 31.1008856,31.8422865 31.9748177,31.8554867 L32.4325917,31.8554867 C32.7100305,31.8554867 32.9735973,31.9610882 33.2232922,32.1458907 L33.2510361,32.1722911 C33.4729871,32.3966942 33.5839626,32.6474977 33.5839626,32.9247016 C33.5839626,33.241506 33.4591151,33.4923095 33.2232922,33.7035124 L33.2510361,33.7035124 C32.9874692,33.9015152 32.7239024,33.9939164 32.4325917,33.9939164 L29.5472285,33.9939164 L24.6781782,26.5226125 C24.5255869,26.3114096 24.3591236,26.3114096 24.1649165,26.5226125 L19.8368717,33.2547062 C18.421934,35.4987374 17.0069963,37.7559688 15.5781867,40 L12.2211776,40 C11.5275807,40 11.1946542,39.643595 11.1946542,38.9307851 C11.1946542,38.6403811 11.3056297,38.3763774 11.5275807,38.1519743 C11.7079159,37.9539715 11.9437389,37.8615702 12.2211776,37.8615702 L12.8731587,37.8615702 C13.0118781,37.8615702 13.1367256,37.8615702 13.261573,37.8483701 C13.8025786,37.769169 14.2187367,37.557966 14.5239194,37.2279614 L22.8193385,24.5689853 C22.9996737,24.2785813 22.9996737,23.9881772 22.8332104,23.7241736 L22.8193385,23.6977732 L18.5883973,17.1900826 C18.435806,17.0052801 18.2415988,16.8600781 18.0057759,16.7544766 C17.7283371,16.6356749 17.4092825,16.5564738 17.0208683,16.5432736 L16.4521188,16.5432736 C15.8556255,16.5432736 15.4949551,16.27927 15.3978515,15.7512626 C15.3562357,15.3420569 15.4533392,15.0384527 15.6752903,14.8008494 C15.6891622,14.7876492 15.6891622,14.7876492 15.7030341,14.7876492 L15.7030341,14.7876492 C15.7723938,14.7348485 15.8417535,14.6820478 15.9249851,14.629247 C16.1469362,14.5236455 16.4521188,14.4576446 16.8127892,14.4444444 L19.4207136,14.4444444 L21.3072972,17.3484848 C22.1257416,18.5365014 22.9996737,19.8961203 23.9568374,21.4273416 C24.275892,21.8497475 24.5672027,21.8497475 24.8446415,21.4405418 L27.5774133,17.2428834 L27.5774133,17.2428834 L29.3946372,14.4576446 L31.9886897,14.4576446 C32.363232,14.4708448 32.6545427,14.5236455 32.8764937,14.6424472 C32.9735973,14.6688476 33.042957,14.7216483 33.1123167,14.7876492" id="Shape"></path>
                <path d="M33.7711287,7.98021623 L32.6216461,9.27723245 C30.4586411,6.95786227 27.7023548,5.72188211 24.3404271,5.58455098 C21.2875001,5.46247887 18.3952535,6.79001311 15.6636873,9.58241274 L14.4647645,8.22436046 C17.3693712,5.12678055 20.6571387,3.5856201 24.3157071,3.60087911 C28.0607956,3.89080039 31.2126029,5.35566576 33.7711287,7.98021623 M35.8228934,5.40144281 L34.747571,6.63742297 C31.719364,3.55510207 28.221476,1.95290556 24.2291869,1.83083345 C20.5953386,1.75453838 17.0232904,3.478807 13.5377624,7.00363931 L12.3141196,5.55403295 C12.4748,5.38618379 12.6478404,5.21833464 12.8085207,5.06574449 C16.6524895,1.37306302 20.7189388,-0.305428559 25.0202287,0.0455287709 C29.3585986,0.381227087 32.9553668,2.16653177 35.8228934,5.40144281 M31.7564441,10.6505437 L30.5080812,11.978078 C28.6169969,10.1775143 26.453992,9.23145541 24.0314264,9.17041935 C21.8066213,9.18567837 19.7177766,10.2080323 17.7772521,12.2222222 L16.5783294,10.7420978 C19.0997751,8.31591455 21.7077411,7.21726552 24.3775072,7.4156327 C27.1214335,7.32407862 29.5810791,8.40746863 31.7564441,10.6505437" id="Shape"></path>
            </g>
        </g>
    </g>
</svg>