<?xml version="1.0" encoding="UTF-8"?>
<svg width="176px" height="29px" viewBox="0 0 176 29" version="1.1" xmlns="http://www.w3.org/2000/svg" xmlns:xlink="http://www.w3.org/1999/xlink">
    <title>kaleidescape</title>
    <g id="Assets" stroke="none" stroke-width="1" fill="none" fill-rule="evenodd" opacity="0.6">
        <g id="Artboard" transform="translate(-1358.000000, -89.000000)" fill-rule="nonzero">
            <g id="Group-18" transform="translate(1358.000000, 89.000000)">
                <g id="Group-7">
                    <path d="M12.4203262,22.4067628 L12.4203262,27.9425513 L7.47030814,25.1746571 L12.4203262,22.4067628 Z M13.5890805,22.4067628 L18.5390985,25.1746571 L13.5890805,27.9425513 L13.5890805,22.4067628 Z M5.68280162,18.7162372 L5.68280162,24.1861234 L0.732783553,21.4182292 L5.68280162,18.7162372 Z M20.3266051,18.7162372 L25.2766231,21.4182292 L20.3266051,24.1861234 L20.3266051,18.7162372 Z M0.114031294,14.9598093 L5.06404936,17.7277035 L0.114031294,20.4296955 L0.114031294,14.9598093 Z M12.4203262,14.9598093 L12.4203262,20.4296955 L7.47030814,17.7277035 L12.4203262,14.9598093 Z M13.5890805,14.9598093 L18.5390985,17.7277035 L13.5890805,20.4296955 L13.5890805,14.9598093 Z M0.114031294,7.51285577 L5.06404936,10.28075 L0.114031294,12.982742 L0.114031294,7.51285577 Z M12.4203262,7.51285577 L12.4203262,12.982742 L7.47030814,10.28075 L12.4203262,7.51285577 Z M13.5890805,7.51285577 L18.5390985,10.28075 L13.5890805,12.982742 L13.5890805,7.51285577 Z M19.1578508,3.75642789 L19.1578508,9.29221635 L14.2078327,6.52432212 L19.1578508,3.75642789 Z" id="Combined-Shape" fill="#505050"></path>
                    <path d="M19.1578508,18.7162372 L19.1578508,24.1861234 L14.2078327,21.4182292 L19.1578508,18.7162372 Z M25.8953754,14.9598093 L25.8953754,20.4296955 L20.9453573,17.7277035 L25.8953754,14.9598093 Z M5.68280162,11.2033814 L5.68280162,16.7391699 L0.732783553,13.9712756 L5.68280162,11.2033814 Z M6.85155589,11.2033814 L11.801574,13.9712756 L6.85155589,16.7391699 L6.85155589,11.2033814 Z M25.8953754,7.51285577 L25.8953754,12.982742 L20.9453573,10.28075 L25.8953754,7.51285577 Z M5.68280162,3.75642789 L5.68280162,9.29221635 L0.732783553,6.52432212 L5.68280162,3.75642789 Z M6.85155589,3.75642789 L11.801574,6.52432212 L6.85155589,9.29221635 L6.85155589,3.75642789 Z M20.3266051,3.75642789 L25.2766231,6.52432212 L20.3266051,9.29221635 L20.3266051,3.75642789 Z M13.5890805,0.0659022436 L18.5390985,2.76789423 L13.5890805,5.53578846 L13.5890805,0.0659022436 Z" id="Combined-Shape" fill="#000000"></path>
                </g>
                <g id="Shape" transform="translate(38.620690, 6.758621)" fill="#000000">
                    <polygon points="1.7137931 0 1.7137931 9.43607427 2.40747126 9.43607427 6.52873563 4.90185676 8.60977011 4.90185676 3.75402299 10.130504 9.50747126 16.2986737 7.26321839 16.2986737 2.40747126 10.8249337 1.7137931 10.8249337 1.7137931 16.2986737 0 16.2986737 0 0"></polygon>
                    <path d="M15.7097701,15.0732095 C17.4235632,15.0732095 19.1781609,15.0323607 19.1781609,12.9490716 C19.1781609,10.7840849 17.9132184,10.8249337 15.7097701,10.8249337 C13.6695402,10.8249337 12.8534483,10.9474801 12.8534483,12.7856764 C12.8126437,14.9506631 13.7103448,15.0732095 15.7097701,15.0732095 L15.7097701,15.0732095 Z M20.891954,16.2986737 L19.1781609,16.2986737 L19.1781609,15.1140584 L19.1373563,15.1140584 C18.4844828,16.4212202 16.8114943,16.462069 15.3833333,16.462069 C12.8126437,16.462069 11.0172414,15.9718833 11.0172414,12.9899204 C11.0172414,9.84456233 12.6494253,9.39522546 15.4649425,9.39522546 C16.6074713,9.39522546 18.8109195,9.51777188 19.0557471,10.538992 L19.1781609,10.538992 L19.1781609,8.41485411 C19.1781609,6.33156499 18.0764368,6.12732095 16.1178161,6.12732095 C14.7712644,6.12732095 13.1390805,6.12732095 13.1390805,7.6795756 L13.1390805,8.08806366 L11.3436782,8.08806366 L11.3436782,7.84297082 C11.3436782,4.90185676 13.383908,4.69761273 15.9137931,4.73846154 C18.7701149,4.69761273 20.891954,5.02440318 20.8511494,8.49655172 L20.8511494,16.2986737 L20.891954,16.2986737 Z"></path>
                    <polygon points="26.4413793 0 26.4413793 16.2986737 24.7275862 16.2986737 24.7275862 0"></polygon>
                    <path d="M38.1114943,12.867374 L39.866092,12.867374 L39.866092,13.2758621 C39.866092,16.2986737 37.5402299,16.462069 35.0103448,16.462069 C30.5626437,16.462069 29.8689655,14.9915119 29.8689655,10.6206897 C29.8689655,5.88222812 30.9298851,4.77931034 35.0103448,4.77931034 C38.7235632,4.77931034 39.866092,5.63713528 39.866092,9.84456233 L39.866092,10.9883289 L31.6643678,10.9883289 C31.6643678,14.5830239 31.9091954,15.0732095 35.0103448,15.0732095 C37.3770115,15.0732095 38.1114943,14.9098143 38.1114943,13.3167109 L38.1114943,12.867374 L38.1114943,12.867374 Z M31.6643678,9.5994695 L38.1114943,9.5994695 C38.0298851,6.37241379 37.6218391,6.16816976 35.0103448,6.16816976 C31.9091954,6.16816976 31.7867816,6.94429708 31.6643678,9.5994695 L31.6643678,9.5994695 Z"></path>
                    <path d="M45.0890805,4.90185676 L45.0890805,16.3395225 L43.3752874,16.3395225 L43.3752874,4.90185676 L45.0890805,4.90185676 L45.0890805,4.90185676 Z M45.0890805,0 L45.0890805,1.87904509 L43.3752874,1.87904509 L43.3752874,0 L45.0890805,0 L45.0890805,0 Z"></path>
                    <path d="M53.5356322,15.0732095 C56.2287356,15.0732095 56.7183908,14.1745358 56.7183908,10.6206897 C56.7183908,7.47533156 56.3511494,6.16816976 53.5356322,6.16816976 C50.9241379,6.16816976 50.312069,6.61750663 50.312069,10.6206897 C50.2712644,14.5830239 51.0873563,15.0732095 53.5356322,15.0732095 L53.5356322,15.0732095 Z M56.7183908,16.2986737 L56.7183908,14.8689655 L56.6775862,14.8281167 C55.983908,16.2169761 54.5557471,16.4212202 53.0051724,16.4212202 C48.9247126,16.4212202 48.5166667,14.0519894 48.5166667,10.5798408 C48.5166667,7.14854111 48.9247126,4.73846154 53.0051724,4.73846154 C54.2701149,4.73846154 56.187931,4.90185676 56.6775862,6.29071618 L56.7183908,6.29071618 L56.7183908,0 L58.4321839,0 L58.4321839,16.2986737 L56.7183908,16.2986737 L56.7183908,16.2986737 Z"></path>
                    <path d="M70.1431034,12.867374 L71.8977011,12.867374 L71.8977011,13.2758621 C71.8977011,16.2986737 69.5718391,16.462069 67.041954,16.462069 C62.5942529,16.462069 61.9005747,14.9915119 61.9005747,10.6206897 C61.9005747,5.88222812 62.9614943,4.77931034 67.041954,4.77931034 C70.7551724,4.77931034 71.8977011,5.63713528 71.8977011,9.84456233 L71.8977011,10.9883289 L63.695977,10.9883289 C63.695977,14.5830239 63.9408046,15.0732095 67.041954,15.0732095 C69.4086207,15.0732095 70.1431034,14.9098143 70.1431034,13.3167109 L70.1431034,12.867374 L70.1431034,12.867374 Z M63.695977,9.5994695 L70.1431034,9.5994695 C70.0614943,6.37241379 69.6534483,6.16816976 67.041954,6.16816976 C63.9408046,6.16816976 63.8183908,6.94429708 63.695977,9.5994695 L63.695977,9.5994695 Z"></path>
                    <path d="M84.4655172,7.43448276 L84.4655172,7.88381963 L82.6701149,7.88381963 L82.6701149,7.43448276 C82.6701149,6.29071618 81.8132184,6.29071618 79.9770115,6.29071618 C77.8143678,6.29071618 76.7942529,6.24986737 76.7942529,7.6795756 C76.7942529,9.72201592 77.3655172,9.55862069 79.1609195,9.6403183 C82.0988506,9.80371353 84.7511494,9.35437666 84.7511494,13.071618 C84.7511494,16.2986737 82.5477011,16.4212202 79.9770115,16.4212202 C77.487931,16.4212202 74.9172414,16.2986737 74.9172414,13.7251989 L74.9172414,12.66313 L76.7126437,12.66313 L76.7126437,13.5618037 C76.7126437,14.6647215 77.4063218,14.8689655 79.9770115,14.8689655 C81.1603448,14.8689655 82.9557471,15.1140584 82.9557471,13.1124668 C82.9557471,10.9883289 82.058046,11.3559682 79.9770115,11.2334218 C77.487931,11.0700265 74.9988506,11.3151194 74.9988506,8.08806366 C74.9988506,4.77931034 76.8758621,4.69761273 79.9770115,4.69761273 C81.9764368,4.77931034 84.4655172,4.86100796 84.4655172,7.43448276 L84.4655172,7.43448276 Z"></path>
                    <path d="M95.7275862,12.1729443 L97.4413793,12.1729443 L97.4413793,12.7856764 C97.4413793,16.0127321 95.3195402,16.4212202 92.5856322,16.4212202 C87.8522989,16.4212202 87.5258621,14.5830239 87.5258621,10.334748 C87.5258621,6.61750663 88.1787356,4.73846154 92.3,4.73846154 C95.0747126,4.73846154 97.2373563,5.02440318 97.2373563,8.29230769 L97.2373563,8.57824934 L95.5235632,8.57824934 L95.5235632,8.21061008 C95.5235632,6.12732095 94.3810345,6.08647215 92.4224138,6.08647215 C89.362069,6.08647215 89.3212644,7.14854111 89.3212644,10.7840849 C89.3212644,14.0111406 89.4436782,14.9915119 92.7896552,14.9915119 C94.9522989,14.9915119 95.7275862,14.7464191 95.7275862,12.7039788 L95.7275862,12.1729443 L95.7275862,12.1729443 Z"></path>
                    <path d="M104.908621,15.0732095 C106.622414,15.0732095 108.377011,15.0323607 108.377011,12.9490716 C108.377011,10.7840849 107.112069,10.8249337 104.908621,10.8249337 C102.868391,10.8249337 102.052299,10.9474801 102.052299,12.7856764 C102.052299,14.9506631 102.95,15.0732095 104.908621,15.0732095 L104.908621,15.0732095 Z M110.131609,16.2986737 L108.417816,16.2986737 L108.417816,15.1140584 L108.377011,15.0732095 C107.724138,16.3803714 106.051149,16.4212202 104.622989,16.4212202 C102.052299,16.4212202 100.256897,15.9310345 100.256897,12.9490716 C100.256897,9.80371353 101.88908,9.35437666 104.704598,9.35437666 C105.847126,9.35437666 108.050575,9.47692308 108.295402,10.4981432 L108.417816,10.4981432 L108.417816,8.37400531 C108.417816,6.29071618 107.316092,6.08647215 105.357471,6.08647215 C104.01092,6.08647215 102.378736,6.08647215 102.378736,7.63872679 L102.378736,8.04721485 L100.583333,8.04721485 L100.583333,7.80212202 C100.583333,4.86100796 102.623563,4.65676393 105.153448,4.69761273 C108.00977,4.65676393 110.131609,4.98355438 110.090805,8.45570292 L110.090805,16.2986737 L110.131609,16.2986737 Z"></path>
                    <path d="M118.863793,6.16816976 C115.64023,6.16816976 115.64023,7.59787798 115.64023,10.6206897 C115.64023,13.3167109 115.803448,15.0732095 118.863793,15.0732095 C121.516092,15.0732095 122.005747,14.337931 122.005747,10.6206897 C122.005747,7.18938992 121.76092,6.16816976 118.863793,6.16816976 L118.863793,6.16816976 Z M115.599425,4.90185676 L115.599425,6.29071618 L115.64023,6.33156499 C116.333908,5.02440318 117.884483,4.77931034 119.312644,4.77931034 C123.474713,4.77931034 123.760345,7.23023873 123.760345,10.6206897 C123.760345,15.1549072 122.658621,16.462069 119.312644,16.462069 C118.006897,16.462069 116.293103,16.2986737 115.64023,14.9915119 L115.599425,14.9915119 L115.599425,21.2413793 L113.885632,21.2413793 L113.885632,4.90185676 L115.599425,4.90185676 L115.599425,4.90185676 Z"></path>
                    <path d="M135.144828,12.867374 L136.899425,12.867374 L136.899425,13.2758621 C136.899425,16.2986737 134.573563,16.462069 132.043678,16.462069 C127.595977,16.462069 126.902299,14.9915119 126.902299,10.6206897 C126.902299,5.88222812 127.963218,4.77931034 132.043678,4.77931034 C135.756897,4.77931034 136.899425,5.63713528 136.899425,9.84456233 L136.899425,10.9883289 L128.697701,10.9883289 C128.697701,14.5830239 128.942529,15.0732095 132.043678,15.0732095 C134.410345,15.0732095 135.144828,14.9098143 135.144828,13.3167109 L135.144828,12.867374 L135.144828,12.867374 Z M128.697701,9.5994695 L135.144828,9.5994695 C135.063218,6.37241379 134.655172,6.16816976 132.043678,6.16816976 C128.942529,6.16816976 128.820115,6.94429708 128.697701,9.5994695 L128.697701,9.5994695 Z"></path>
                </g>
            </g>
        </g>
    </g>
</svg>