<?xml version="1.0" encoding="UTF-8"?>
<svg width="86px" height="35px" viewBox="0 0 86 35" version="1.1" xmlns="http://www.w3.org/2000/svg" xmlns:xlink="http://www.w3.org/1999/xlink">
    <title>Mapro</title>
    <g id="Assets" stroke="none" stroke-width="1" fill="none" fill-rule="evenodd" opacity="0.6">
        <g id="Artboard" transform="translate(-739.000000, -86.000000)">
            <g id="Mapro" transform="translate(739.000000, 86.000000)">
                <path d="M82.3373253,7.59551006 C83.8664802,6.34265795 84.2532056,3.99371428 83.1110225,2.36325654 C81.8675366,0.548679072 79.4079239,-0.0315321952 77.3170436,0.00519315691 C76.4141915,0.00519315691 75.5024661,0.216918509 74.6457056,0.530193157 C74.2220084,0.68695372 73.8165507,0.880193157 73.4298253,1.11040442 C71.5321845,0.216918509 69.7360929,0.68695372 68.8056352,1.11040442 C66.7145084,2.05934809 66.1342971,3.68068611 65.9592971,4.67547485 C65.2038394,4.4450171 64.4301422,4.34371428 63.6379591,4.37131992 C62.735107,4.38980583 61.8231352,4.60177766 60.9666211,4.93329175 C60.2111633,4.56480583 59.3176774,4.33459457 58.470283,4.33459457 C55.6791563,4.29786921 53.9565154,5.73484104 53.9565154,5.73484104 L53.0815154,5.22808048 C52.5750014,4.93329175 52.0497549,4.68459457 51.4971492,4.47286921 C48.8995084,3.46871428 46.0531704,3.45022837 43.3448605,3.94762273 C42.6263746,4.08589738 41.9078887,4.26089738 41.2078887,4.50959457 C40.2774309,4.82262273 39.4300366,5.22808048 38.573276,5.70698893 L37.5047901,6.39811569 C37.4495788,6.41635513 36.4730295,5.78093259 36.3441211,5.70698893 L35.0084521,5.0622002 C34.1149661,4.67547485 33.166269,4.38980583 32.1805999,4.23329175 C31.0936281,4.07677766 29.9881704,4.15959457 28.9288042,4.40829175 C28.3853183,4.56480583 27.8696845,4.7215664 27.3814098,4.95177766 C27.2248957,5.02547485 25.944438,5.53198893 25.9905295,5.70698893 C25.8889802,4.87808048 25.6035577,3.477834 24.2217971,2.26195372 C22.6007056,0.824981889 20.0213042,0.207798791 18.3356352,0.207798791 C16.5486633,0.207798791 14.9642971,0.824981889 13.8773253,1.96716499 C12.136445,0.364559354 9.67683234,-0.298715294 6.92267741,0.124981889 C5.2370084,0.373679072 4.0948253,1.11040442 3.35785347,1.61716499 L2.91567037,1.9856509 L2.79588164,2.04998189 L2.69457882,2.15153119 C1.70890981,2.92522837 1.14693798,4.10413682 1.14693798,5.34786921 C1.14693798,5.9465664 1.26672671,6.52702414 1.53390981,7.07051006 L1.74563516,7.53093259 C1.84693798,7.83508752 1.92088164,8.07441851 1.95760699,8.38769316 C1.95760699,8.56269316 1.97609291,8.73769316 1.97609291,8.89445372 C1.95760699,9.06920724 1.93912108,9.24420724 1.93912108,9.41920724 L1.92088164,9.50227062 C1.92088164,9.76945372 1.90239572,10.0457565 1.84693798,10.3314256 L1.70890981,11.2801227 L1.43260699,12.6340312 L1.35890981,12.9290664 L1.34042389,12.9842777 L1.34042389,13.021003 L1.22063516,13.5462495 L1.08260699,14.1264608 L1.02714924,14.3936439 L0.990423892,14.5131861 L0.916726709,14.8449467 L0.833909808,15.2501579 L0.741726709,15.6186439 L0.640423892,16.0793129 L0.585212624,16.2727988 L0.585212624,16.3095241 C0.318029526,17.3504044 0.0232407934,18.5941368 0.00475487792,19.9480453 C-0.0322169531,21.053503 0.143029526,22.214172 0.64954361,23.4115664 C1.82869854,26.2579044 4.23285347,28.0172706 7.42007178,28.275334 L7.50288868,28.2938199 C8.35052953,28.3490312 9.20704361,28.3120594 10.0177126,28.1370594 C11.0033816,28.0172706 12.0442619,27.4922706 12.7812338,26.9029396 C13.3432056,26.4237847 14.0432056,25.6407213 14.3840859,25.0881157 C14.8629943,25.8066016 16.1986633,27.2805453 18.3173957,28.0542425 C20.5465507,28.8464256 23.2361281,28.3672706 24.8574661,27.6120594 L25.4376774,27.3448763 C25.8431352,27.5198763 26.6905295,27.9068481 27.2525014,28.0451227 C29.3433816,28.5055453 31.3516915,28.275334 33.1201774,27.3448763 C33.9766915,27.8516368 34.8610577,28.0636086 35.4415154,28.1555453 C35.8100014,28.2292425 36.1967267,28.2477284 36.6021845,28.2568481 C36.6206704,28.7451227 36.6667619,29.1873058 36.7586985,29.611003 C37.0719732,31.121672 37.9745788,32.5862495 39.0985225,33.3693129 C40.1024309,34.0877988 41.4198605,34.5484678 42.6263746,34.6680101 C43.9805295,34.861496 45.3531704,34.7234678 46.6703535,34.4377988 C47.4073253,34.2812847 48.1440507,34.0693129 48.8534168,33.8206157 C49.977114,33.3969185 51.5065154,32.6784326 51.5065154,31.2875523 C51.5065154,30.5873058 50.981269,30.1636086 50.5208464,29.6847002 L50.1338746,29.2240312 C49.7653887,28.7451227 49.4797197,28.2201227 49.277114,27.7133622 L49.2586281,27.6120594 C50.5299661,27.3818481 51.7734521,26.8750875 52.8604239,26.1198763 C53.2104239,26.5620594 53.5973957,26.9487847 54.002607,27.2435734 C56.4252478,28.9477284 59.8520436,29.2977284 62.9470788,28.1740312 C64.5129591,27.5935734 65.6369028,26.8568481 66.7053887,25.6961791 L66.9355999,25.428996 L67.2488746,25.7422706 C69.1280295,27.5292425 71.5230647,28.450334 74.138945,28.450334 C80.5870788,28.450334 84.8060577,23.264172 84.9440859,15.7936439 C84.9901774,11.7038199 83.3229943,8.93117907 82.3373253,7.59551006" id="Fill-59" fill="#221F1F"></path>
                <path d="M76.4510894,18.3636544 C76.3589063,18.7506263 76.239364,19.1006263 76.0826035,19.4691122 C75.3458781,21.1178094 74.093026,21.1547812 73.4667232,20.9245699 C72.1310542,20.4178094 71.4492936,18.4834432 71.3940823,16.6227741 L71.3940823,15.7660136 C71.4308077,14.9001333 71.6427795,13.9884079 72.0297514,13.2511896 C72.4901739,12.3577037 73.1904204,11.7222812 74.2586598,11.7222812 C75.7880612,11.7222812 76.5247866,13.2881615 76.6630612,14.8725277 L76.7182725,16.0331967 C76.7091528,16.8162601 76.6445753,17.6084432 76.4510894,18.3636544 M76.414364,8.36918259 C75.7971809,8.36918259 74.9404204,8.66397133 74.553695,9.14287978 L74.1667232,8.03742203 C73.8352091,7.26372485 73.2732373,6.24133048 72.3703852,5.20956992 C71.7901739,4.57414738 71.3203852,4.39914738 70.5097161,4.74914738 C70.2795049,4.86893611 70.1042584,4.99784457 69.9847161,5.1176333 C69.8464415,5.27414738 69.7912302,5.43066147 69.8279556,5.59654175 C69.8464415,5.86372485 70.0584133,6.10305583 70.3899274,6.35199949 C71.246688,7.00590795 72.0388711,7.68766851 72.4625683,8.19418259 C72.8862654,8.71006288 73.3375683,9.49312626 73.568026,10.1470347 C72.4810542,8.90354879 70.9334133,8.95876006 69.6347161,9.97203471 C68.2990471,11.0037953 67.5251035,13.398584 67.5435894,16.3831967 C67.5620753,19.2665065 68.5292584,21.5693586 69.9662302,22.9511192 C71.1545049,24.0933023 72.582357,24.5722108 74.0560542,24.5722108 C78.293519,24.5722108 80.5411598,20.4086896 80.6424626,15.7475277 C80.7343992,10.3496403 78.1919697,8.41527414 76.414364,8.36918259" id="Fill-61" fill="#FFFFFF"></path>
                <path d="M74.3785225,6.27825302 C74.4152478,6.64673893 74.6089802,6.94128119 74.9035225,7.13501358 C75.5024661,7.57719668 76.2576774,7.42955583 77.0128887,6.88606992 C77.2985577,6.71106992 77.5196492,6.42564738 77.7131352,6.14934457 L78.3118323,5.3754009 C78.7172901,4.95170372 79.260776,4.63867555 79.6844732,4.63867555 C79.6844732,4.63867555 79.8042619,4.63867555 79.8225014,4.57409809 L79.785776,4.5004009 C79.785776,4.5004009 78.1553183,3.45015442 76.0089802,4.2332178 C74.9404943,4.63867555 74.4430999,5.3019502 74.3785225,5.91888682 L74.3785225,6.27825302 Z" id="Fill-63" fill="#FFFFFF"></path>
                <path d="M62.2654415,15.6923657 C62.4771668,15.4254291 62.6521668,15.2043375 62.7813218,14.8816967 C62.9011105,14.568422 62.9930471,14.2186685 63.030019,13.7027882 C63.0667443,13.2236333 62.9287161,12.6340558 62.6982584,12.2931756 C62.4498077,11.943422 62.0995612,11.7314502 61.611533,11.6944784 C60.9297725,11.6301474 60.4138922,11.8512389 60.2019204,12.0814502 C60.1375894,13.6106051 60.0454063,14.983246 59.9256176,16.2264854 C59.8058288,17.5069432 59.6954063,18.7415558 59.7138922,19.8834925 C59.7138922,20.7957108 59.8612866,21.6061333 60.0269204,22.2878939 C60.2019204,23.0063798 60.515195,23.605077 60.800864,24.0105347 C59.8888922,24.3602882 58.0282232,24.7011685 56.8305823,24.1670488 C56.0016739,23.8352882 55.6053359,23.080077 55.4949133,22.0391967 C55.458188,21.7904995 55.458188,21.5324361 55.4766739,21.265253 C55.4766739,20.7587389 55.5133992,20.2428586 55.5594908,19.6993727 L55.5594908,19.6256756 L55.6699133,18.4374009 C55.7620964,17.4150065 55.7897021,16.383246 55.7712161,15.1121544 C55.7712161,14.1449713 55.7068852,13.1775417 55.5594908,12.4408164 C55.4212161,11.6668727 55.1079415,10.8379643 54.7027302,9.92599245 C55.5594908,9.38250654 57.0425542,8.34162626 58.5899485,8.32314034 C59.465195,8.32314034 60.1191035,9.06011217 60.2297725,9.87078119 C60.2849838,10.1194784 60.2664978,10.3866615 60.2664978,10.6259925 C60.5797725,9.93535865 61.1784697,9.3549009 61.7956528,8.95880935 C62.3391387,8.57183752 63.0761105,8.32314034 63.7485049,8.31402062 C64.7524133,8.27729527 65.6091739,8.68250654 66.2815683,9.38250654 C66.7607232,9.89838682 66.9818147,10.5799009 67.037026,11.2983868 L67.037026,12.0353586 C66.9818147,12.5236333 66.862026,13.0025417 66.7055119,13.4079995 C65.7289626,15.4160629 64.2367795,15.6738798 62.2654415,15.6923657" id="Fill-65" fill="#FFFFFF"></path>
                <path d="M49.1942232,19.063753 C48.420526,20.5007248 47.3335542,20.6666051 46.6702795,20.4822389 C45.0213359,20.0033305 44.5609133,18.2163586 44.5424274,16.5122037 L44.5424274,16.0515347 C44.6161246,14.3106544 45.3346105,11.8328023 47.4624626,11.7314995 C49.1298922,11.6486826 49.7470753,13.5921685 49.8851035,14.9187178 C49.9403147,15.2687178 49.9588007,15.6187178 49.9588007,15.9687178 C49.931195,17.0463234 49.7192232,18.1150558 49.1942232,19.063753 M53.3762302,11.8604079 C53.2564415,11.3445277 53.0632021,10.856253 52.8327443,10.4234361 C52.1512302,9.0877671 50.9535894,8.17579527 49.2127091,8.08361217 C48.770526,8.120584 48.3929204,8.16667555 47.9783429,8.27709809 L47.9137654,8.31406992 C47.5637654,8.43385865 47.2137654,8.58100654 46.8731316,8.80209809 C46.0807021,9.36406992 45.3807021,10.1747389 44.938519,11.0221333 C44.9015471,9.79688682 44.874188,9.31797837 44.6252443,8.80209809 C44.3767936,8.31406992 43.9252443,8.08361217 43.2895753,8.08361217 C42.0921809,8.08361217 40.4065119,9.170584 39.8999978,9.50234457 C40.2315119,9.98125302 40.4434838,10.3497389 40.5999978,11.1049502 C41.1619697,12.8645629 41.1619697,14.7804432 41.1619697,16.6043868 C41.1619697,18.5572389 41.023695,20.5192108 40.8763007,22.4720629 C40.7749978,23.7064291 40.6643288,24.9316756 40.5999978,26.2118868 L40.5078147,27.4092812 C40.4893288,27.8793164 40.4893288,28.3949502 40.5999978,28.8649854 C40.7565119,29.6017108 41.1802091,30.1451967 41.8619697,30.4491051 C42.0369697,30.5045629 42.248695,30.5873798 42.423695,30.6058657 C42.7921809,30.6980488 43.1791528,30.7254079 43.5661246,30.6980488 L44.4226387,30.6058657 L45.2702795,30.3756544 C45.5187302,30.311077 45.749188,30.2373798 45.9887654,30.1084713 C45.5096105,29.3714995 45.1411246,28.0543164 45.0030964,27.2251615 C44.8833077,26.4329784 44.8463359,25.4290699 44.8648218,24.4340347 C44.8648218,23.7801263 44.9015471,23.1353375 44.9570049,22.5733657 L45.2517936,22.9048798 L45.6202795,23.2090347 C45.8689767,23.3840347 46.1452795,23.5220629 46.449188,23.6418516 C46.799188,23.7616403 47.1494345,23.8353375 47.5361598,23.8353375 C48.6046457,23.8905488 49.7192232,23.4853375 50.5759838,22.8681544 C52.1051387,21.7811826 53.0908077,20.0403023 53.477533,17.3689643 C53.5697161,16.6965699 53.6249274,15.9595981 53.652533,15.1859009 L53.652533,14.0252319 C53.6251739,13.2882601 53.5329908,12.5421685 53.3762302,11.8604079" id="Fill-67" fill="#FFFFFF"></path>
                <path d="M32.7517408,18.4190382 C32.6319521,18.7229467 32.4845577,18.9810101 32.3095577,19.2479467 C31.4160718,20.638827 30.2369168,20.6849185 29.5645225,20.4731932 C28.3025507,20.0677354 27.8421281,18.4375241 27.8603676,16.8713974 C27.8603676,16.6781579 27.8603676,16.4844256 27.8788535,16.2911861 C27.9986422,14.5870312 28.9840647,11.6209044 31.2686774,11.7589326 C32.3923746,11.8235101 33.0095577,13.002665 33.2030436,13.988334 C33.2767408,14.2552706 33.2952267,14.5318199 33.3043464,14.8172425 L33.3413183,15.2042143 C33.3689239,16.2727002 33.1663183,17.4333692 32.7517408,18.4190382 M38.4629028,22.3156227 C38.2142056,21.7903763 38.0392056,21.2468903 37.9009309,20.6666791 C37.707445,19.8375241 37.5970225,18.9810101 37.532445,18.1151298 L37.5509309,16.2542143 C37.643114,14.7068199 37.882445,13.177665 38.3615999,11.6854819 C38.4535366,11.3722072 38.5733253,11.0498129 38.7115999,10.7365382 C38.2694168,10.4050241 37.532445,9.9995664 36.7126563,9.84305231 C36.0678676,9.72326358 35.3769873,10.0547777 35.0454732,10.6352354 C34.8704732,10.9024185 34.7321985,11.3537213 34.6215295,12.0261157 C34.5295929,11.4274185 34.5848042,10.7274185 34.1150154,9.84305231 C32.8621633,7.47586921 29.7027971,7.8073833 27.8421281,9.26284104 C25.8246985,10.8287213 24.6916352,13.4263622 24.3968464,15.9042143 C24.3416352,16.5398833 24.2955436,17.1661861 24.3046633,17.8018551 C24.3968464,20.3718903 25.253607,23.5497425 28.099945,24.2130171 C29.8777971,24.5999889 31.471283,24.1760453 32.6319521,22.7390734 C33.2767408,21.910165 33.5806492,21.0534044 33.8756845,19.874496 L34.1241352,22.1218903 C34.2991352,23.5406227 34.8795929,24.1025946 36.0032901,24.2682284 C37.0720225,24.4432284 38.3063887,24.1578058 39.2365999,23.6234396 C38.8865999,23.2182284 38.5087478,22.4536509 38.4629028,22.3156227" id="Fill-69" fill="#FFFFFF"></path>
                <path d="M3.94730769,19.7546826 C4.00251896,18.8427108 4.24209643,17.8940136 4.45406826,16.9820417 L5.19079361,13.8224291 C5.63297671,11.8326051 5.98297671,9.79693611 5.85406826,8.14823893 C5.83582882,7.60475302 5.73427953,7.08887273 5.58688516,6.63756992 C5.35667389,5.96492907 5.16318798,5.55059809 5.08037108,5.40295724 C5.04339924,5.32950654 5.04339924,5.3019009 5.09885699,5.25580935 L5.39364572,5.02535161 L5.64209643,4.85035161 C6.22255417,4.42665442 6.784526,4.15035161 7.4938922,4.03992907 C8.61758938,3.84644316 10.1282584,3.90165442 11.1691387,4.86883752 C11.8876246,5.54123189 11.8324133,6.82168964 11.9798077,7.69693611 C12.2928359,9.57584457 12.735019,11.2247882 13.3154767,13.0211263 C13.4352654,13.3711263 13.6285049,13.9146122 13.7576598,14.1448234 C13.7576598,14.1448234 13.8219908,14.2000347 13.8495964,14.1448234 C14.0248429,13.8961263 14.2180823,13.3711263 14.3748429,12.9841544 C15.167026,11.0130629 16.3092091,7.60475302 16.392026,5.49514034 C16.4105119,5.39383752 16.4105119,5.24644316 16.4657232,5.16362626 C16.5394204,4.97014034 16.6222373,4.81362626 16.742026,4.67535161 C17.1289978,4.27014034 17.7461809,4.15035161 18.3263922,4.15035161 C19.2938218,4.15035161 20.8597021,4.57404879 21.5964274,5.23732344 C21.928188,5.54123189 22.0203711,5.79929527 22.0386105,6.34253471 C22.0570964,6.69278119 22.0570964,7.04278119 22.0570964,7.4019009 C22.0203711,8.12038682 21.9651598,8.83887273 22.0018852,9.52999949 C22.0755823,12.7815488 22.0570964,15.4896122 22.563857,18.7414079 C22.7755823,19.9572882 23.1810401,22.6562319 24.1758288,23.5405981 L24.1943147,23.5773234 L24.1573429,23.5958094 C23.0151598,24.2314784 21.1912161,24.7379925 19.8370612,24.0012671 C18.8698781,23.3010206 18.713364,22.7208094 18.4000894,21.6062319 C18.2803007,21.127077 18.188364,20.1507741 18.1698781,19.6072882 C17.9211809,17.2859502 17.9396668,14.2646122 17.902695,12.0536967 L16.6039978,15.7567953 C16.1248429,17.1846474 15.342026,19.5888023 15.1852654,19.9203164 L14.992026,20.3442601 C14.9183288,20.4822882 14.8352654,20.6114432 14.7154767,20.6757741 C14.5407232,20.7955629 14.0800542,20.7955629 13.6469908,20.712746 C12.9561105,20.5744713 12.6061105,20.4179572 12.2745964,19.708591 C11.7954415,18.6677108 11.6204415,18.0690136 11.2337161,17.0557389 L10.3217443,14.3844009 L9.5110753,12.0263375 C9.2438922,13.5367601 9.00456122,15.590915 8.84780065,16.9820417 L8.77410347,17.8940136 C8.70040629,18.8057389 8.63582882,19.7179572 8.67280065,20.6205629 C8.67280065,21.0809854 8.70977248,21.5325347 8.76498375,21.9932037 C8.76498375,22.1682037 8.9767091,23.4760206 9.28998375,24.1853868 C9.30846967,24.2405981 9.28998375,24.259084 9.22565277,24.2775699 C8.76498375,24.3788727 8.25822319,24.3971122 7.77019502,24.3788727 C6.10276544,24.2221122 4.92361051,23.3932037 4.30667389,21.9192601 C4.13167389,21.5140488 4.03949079,21.1088375 3.99339924,20.6848939 C3.92882178,20.3809854 3.91058234,20.0679572 3.94730769,19.7546826" id="Fill-71" fill="#FFFFFF"></path>
            </g>
        </g>
    </g>
</svg>