<?xml version="1.0" encoding="UTF-8"?>
<svg width="81px" height="24px" viewBox="0 0 81 24" version="1.1" xmlns="http://www.w3.org/2000/svg" xmlns:xlink="http://www.w3.org/1999/xlink">
    <title>SanaLogo</title>
    <defs>
        <rect id="path-1" x="0" y="0" width="80.1372777" height="23.9549296"></rect>
        <rect id="path-3" x="0" y="0" width="80.1372777" height="23.9549296"></rect>
        <rect id="path-5" x="0" y="0" width="80.1372777" height="23.9549296"></rect>
        <rect id="path-7" x="0" y="0" width="80.1372777" height="23.9549296"></rect>
    </defs>
    <g id="Assets" stroke="none" stroke-width="1" fill="none" fill-rule="evenodd" opacity="0.6">
        <g id="Artboard" transform="translate(-1405.000000, -469.000000)">
            <g id="SanaLogo" transform="translate(1405.000000, 469.000000)">
                <g id="Clipped">
                    <mask id="mask-2" fill="white">
                        <use xlink:href="#path-1"></use>
                    </mask>
                    <g id="SVGID_1_"></g>
                    <path d="M76.0148997,9.51070423 C76.0209496,9.46016901 76.0293177,9.42388732 76.0291481,9.38766197 C76.0246813,8.60377465 76.0409653,7.81904225 76.0096413,7.03622535 C75.9430921,5.37042254 74.9984547,4.14338028 73.4108283,3.61943662 C72.6289736,3.36146479 71.8252939,3.3143662 71.0107583,3.38140845 C70.3866542,3.43278873 69.7855059,3.57442254 69.2166427,3.84073239 C68.0146853,4.40326761 67.3062214,5.36952113 66.9328219,6.61025352 C66.9195912,6.65442254 66.9064736,6.69859155 66.8892285,6.75639437 C65.811436,6.3656338 64.7434818,5.9783662 63.6643323,5.58709859 C63.6786373,5.53290141 63.6890975,5.4844507 63.704194,5.43740845 C64.3398892,3.4503662 65.6402286,2.0588169 67.5347052,1.20360563 C68.4696175,0.781577465 69.4551909,0.552338028 70.475198,0.461126761 C71.8735238,0.336 73.2500245,0.440676056 74.5934485,0.863098592 C75.9862897,1.30101408 77.186777,2.03769014 78.1164875,3.17504225 C78.9015651,4.1355493 79.3611902,5.24264789 79.5662659,6.45960563 C79.6601247,7.01678873 79.6875473,7.57774648 79.6866991,8.14208451 C79.6826847,10.860338 79.7062059,13.5788732 79.6761259,16.2967887 C79.6417487,19.4169577 77.865896,21.8674366 74.925799,22.9412958 C74.0630335,23.2564507 73.1738632,23.4427606 72.258797,23.5133521 C70.8424911,23.6225352 69.4459747,23.5158873 68.0819696,23.1077183 C66.9187996,22.7596056 65.8548598,22.2218028 64.9468047,21.4039437 C63.793586,20.3651831 63.0947341,19.0838873 62.9193992,17.540507 C62.6911415,15.5318873 63.1949255,13.7320563 64.5472265,12.2027606 C65.4389977,11.1941972 66.5591397,10.5197183 67.8250454,10.0748169 C68.7049429,9.76552113 69.6113018,9.56230986 70.5420865,9.54490141 C72.3035212,9.51188732 74.0657475,9.51971831 75.8276911,9.51070423 C75.887738,9.51047887 75.9478981,9.51070423 76.0148997,9.51070423 M73.3572836,12.4495775 C72.7024774,12.4495775 72.0476713,12.4503662 71.3929217,12.4493521 C70.6775032,12.448169 69.9746934,12.5286197 69.2974969,12.7721127 C68.0901681,13.2061408 67.2027506,13.9709296 66.7685125,15.2033803 C66.57254,15.7596056 66.5025983,16.3326761 66.5309821,16.9202817 C66.5980967,18.3105352 67.2287031,19.3482254 68.4708614,20.0018592 C69.1560868,20.3624225 69.8950266,20.5301972 70.6625198,20.5892394 C71.5192353,20.6551549 72.3652079,20.6013521 73.1917303,20.3532394 C73.9747724,20.1181408 74.6618071,19.7282254 75.1862287,19.088338 C75.805753,18.3324507 76.0230982,17.4429859 76.0281304,16.4907606 C76.0349153,15.2 76.0277346,13.9092394 76.0329412,12.6184789 C76.0334453,12.4811268 75.9936966,12.4457465 75.8586758,12.4466854 C75.0249177,12.452507 74.1910998,12.4495775 73.3572836,12.4495775" id="Shape" fill="#1A1A1A" fill-rule="nonzero" mask="url(#mask-2)"></path>
                </g>
                <g id="Clipped">
                    <mask id="mask-4" fill="white">
                        <use xlink:href="#path-3"></use>
                    </mask>
                    <g id="SVGID_1_"></g>
                    <path d="M24.8944498,6.75216901 C23.8309623,6.36653521 22.7634039,5.97938028 21.6835759,5.58783099 C21.6978809,5.53402817 21.7084542,5.48569014 21.7234942,5.43870423 C22.3583412,3.4515493 23.6586806,2.06039437 25.5525353,1.20490141 C26.4872214,0.782704225 27.4725121,0.553295775 28.4924062,0.461971831 C29.8905623,0.336732394 31.2669499,0.440507042 32.6100912,0.863211268 C34.0606047,1.31966197 35.2995967,2.09583099 36.2385234,3.30597183 C37.0046596,4.29346479 37.450319,5.41870423 37.6081826,6.65177465 C37.6716786,7.14805634 37.6989882,7.652 37.7006844,8.15256338 C37.7094483,10.7765634 37.7041334,13.4006197 37.7050381,16.0246197 C37.7054339,17.2576901 37.4800033,18.4421408 36.9134583,19.5456901 C36.0703692,21.187831 34.7268887,22.2635493 33.0172459,22.9144225 C32.1411367,23.2479437 31.2333078,23.4380282 30.2992436,23.512169 C28.912,23.6223099 27.5427931,23.523662 26.2031574,23.1384789 C24.9899482,22.7896338 23.8814538,22.2375211 22.9407743,21.3820282 C21.8003905,20.3450704 21.1120553,19.0690704 20.9374554,17.5363944 C20.7203929,15.6308732 21.1674094,13.9012394 22.3941884,12.403662 C23.2862989,11.3145352 24.436634,10.5868169 25.7540489,10.107831 C26.6622171,9.7776338 27.5996738,9.56461972 28.563818,9.54580282 C30.3108346,9.51166197 32.0587559,9.52090141 33.8062814,9.51092958 C34.0731569,9.50940845 34.050201,9.55430986 34.0487875,9.27414085 C34.0449992,8.52326761 34.060322,7.77143662 34.0278672,7.02169014 C33.9560596,5.36304225 33.0138535,4.14388732 31.4293934,3.62011268 C30.647878,3.36174648 29.8441983,3.31577465 29.0297192,3.38180282 C28.4678106,3.42732394 27.9226949,3.54698592 27.4029096,3.76602817 C26.1141046,4.30923944 25.345311,5.29971831 24.9520089,6.61025352 C24.9412661,6.64614085 24.9314844,6.68230986 24.91995,6.71791549 C24.9172925,6.72619718 24.9092636,6.73273239 24.8944498,6.75216901 M34.0494095,12.4584789 C33.9789589,12.4549859 33.932708,12.4505352 33.8865137,12.4505352 C32.3837559,12.4501971 30.8809982,12.4505352 29.3782405,12.4501971 C28.6432021,12.4500845 27.9234864,12.5427606 27.2316457,12.8027042 C26.2377607,13.176169 25.4491776,13.7911549 24.974569,14.7550986 C24.5891262,15.5379718 24.4770045,16.3712113 24.5758389,17.2347606 C24.7109729,18.4160563 25.2923317,19.3093521 26.3215551,19.9108169 C26.9827504,20.2971268 27.7067632,20.4922817 28.4621,20.5713239 C29.3874568,20.6680563 30.3053501,20.6252958 31.2027754,20.3559437 C32.1587776,20.0689577 32.9555593,19.5603944 33.4854089,18.6936338 C33.8942033,18.0250704 34.0432465,17.2850704 34.0473174,16.5138592 C34.0542155,15.2137465 34.0493529,13.9134648 34.0494095,12.6132958 C34.0494095,12.5669296 34.0494095,12.5207887 34.0494095,12.4584789" id="Shape" fill="#1A1A1A" fill-rule="nonzero" mask="url(#mask-4)"></path>
                </g>
                <g id="Clipped">
                    <mask id="mask-6" fill="white">
                        <use xlink:href="#path-5"></use>
                    </mask>
                    <g id="SVGID_1_"></g>
                    <path d="M45.8929699,23.079831 L42.2351362,23.079831 C42.232818,23.028507 42.228747,22.9793239 42.228747,22.9301408 C42.2285209,17.8975775 42.2208878,12.8650141 42.2330442,7.83250704 C42.2370021,6.16416901 42.6888245,4.62540845 43.7462055,3.30061972 C44.6140597,2.21340845 45.7352194,1.4795493 47.0385555,1.0096338 C48.395606,0.520394366 49.79772,0.365295775 51.23325,0.430084507 C52.4735425,0.486028169 53.6731817,0.723098592 54.8044058,1.23492958 C57.09569,2.2715493 58.5043063,4.01121127 58.9259356,6.50073239 C59.0085992,6.98850704 59.0451249,7.4896338 59.0459731,7.98473239 C59.0545673,12.9421408 59.0512314,17.8996056 59.0512314,22.8570704 L59.0512314,23.0743662 L55.3959986,23.0743662 L55.3959986,22.8736901 C55.3959986,17.7613521 55.3964509,12.6490141 55.3954897,7.53656338 C55.3953766,6.90743662 55.3088117,6.29239437 55.0551104,5.71002817 C54.6039664,4.67425352 53.7953111,4.03774648 52.7463548,3.67673239 C51.8452543,3.36653521 50.9153176,3.30766197 49.9726026,3.38456338 C49.1802313,3.4491831 48.4230286,3.63949296 47.7305659,4.04135211 C46.7103892,4.63329577 46.1330448,5.52709859 45.9564094,6.67994366 C45.9111197,6.97532394 45.8959666,7.27780282 45.8957405,7.57701408 C45.8921218,12.6753239 45.8930265,17.7736338 45.8929699,22.8718873 L45.8929699,23.079831 L45.8929699,23.079831 Z" id="Path" fill="#1A1A1A" fill-rule="nonzero" mask="url(#mask-6)"></path>
                </g>
                <g id="Clipped">
                    <mask id="mask-8" fill="white">
                        <use xlink:href="#path-7"></use>
                    </mask>
                    <g id="SVGID_1_"></g>
                    <path d="M16.6163344,5.55002817 C15.5720144,5.92867606 14.5438654,6.30146479 13.4992062,6.68022535 C13.4790209,6.61385915 13.4638113,6.56191549 13.4474708,6.5103662 C13.0458571,5.24219718 12.2880325,4.28095775 11.0413509,3.74253521 C10.482439,3.50112676 9.89401251,3.37447887 9.28896283,3.3451831 C8.39967946,3.30208451 7.5195558,3.37228169 6.66583699,3.64602817 C6.07989831,3.83385915 5.5464866,4.11290141 5.11903351,4.56687324 C4.65748594,5.05707042 4.43329923,5.64608451 4.39372024,6.30985915 C4.36313134,6.82174648 4.41198312,7.32276056 4.63351238,7.7943662 C4.96150913,8.49267606 5.54626044,8.89938028 6.23821427,9.17678873 C6.98439132,9.47588732 7.76935577,9.62946479 8.55748655,9.76619718 C10.1419466,10.0410141 11.6977402,10.4147606 13.1661773,11.0889014 C13.9137113,11.4320563 14.6152772,11.8500282 15.2377416,12.3912676 C16.4328575,13.4303662 17.0912822,14.7337465 17.1782429,16.3167324 C17.2710839,18.0066479 16.8085186,19.5187042 15.6952182,20.8100282 C14.8242542,21.8204507 13.7218097,22.4940282 12.4724706,22.9428169 C11.4049122,23.3264225 10.3026373,23.5091831 9.16988661,23.5453521 C8.06585895,23.5805634 6.97777597,23.4821972 5.91202685,23.1944225 C4.62989373,22.8482254 3.46836345,22.2694648 2.49590766,21.3510423 C1.41347882,20.3287324 0.770546398,19.0707606 0.499826105,17.6165634 C0.47924503,17.5060282 0.463413434,17.3947042 0.445942137,17.2835493 C0.444528601,17.2746479 0.447864545,17.2650704 0.451030864,17.2392676 C1.50168343,16.8583099 2.55934713,16.4748169 3.63052423,16.0863662 C3.67078172,16.2625915 3.70142716,16.4222535 3.74394631,16.5786479 C4.13442131,18.0140282 4.90502425,19.1742535 6.213958,19.9380282 C6.94277683,20.3632676 7.73379122,20.5864225 8.57750221,20.6102535 C9.64709615,20.6404507 10.6820867,20.4872676 11.6356577,19.9705915 C12.7403639,19.3720563 13.3489756,18.4407324 13.4802083,17.1957746 C13.5394071,16.6342535 13.5083094,16.0795493 13.3492018,15.5372958 C13.099628,14.6866479 12.5408857,14.0905915 11.7715267,13.6749859 C11.1327784,13.3300282 10.4438778,13.1251831 9.73920212,12.9713803 C8.76572858,12.7589296 7.78530045,12.5765634 6.81635023,12.3458028 C5.63158143,12.063493 4.48938832,11.6567324 3.44128011,11.024169 C2.48165923,10.4450141 1.7017835,9.69532394 1.2496218,8.64946479 C0.885664718,7.80749296 0.787961153,6.92614085 0.862765445,6.01887324 C0.946390197,5.00507042 1.26567956,4.0771831 1.86852413,3.25211268 C2.61628433,2.22873239 3.62645325,1.55312676 4.79425962,1.1004507 C6.27558814,0.526309859 7.82001688,0.354816901 9.39808776,0.43171831 C10.5167596,0.486197183 11.5999801,0.707380282 12.632087,1.14850704 C14.0884243,1.7708169 15.2521597,2.73284507 16.0211229,4.12647887 C16.2419171,4.52659155 16.3926,4.9651831 16.5734194,5.38692958 C16.5932655,5.4331831 16.5996546,5.48507042 16.6163344,5.55002817" id="Path" fill="#1A1A1A" fill-rule="nonzero" mask="url(#mask-8)"></path>
                </g>
            </g>
        </g>
    </g>
</svg>