<?xml version="1.0" encoding="UTF-8"?>
<svg width="158px" height="28px" viewBox="0 0 158 28" version="1.1" xmlns="http://www.w3.org/2000/svg" xmlns:xlink="http://www.w3.org/1999/xlink">
    <title>Tedx Logo_ Red Black</title>
    <g id="Assets" stroke="none" stroke-width="1" fill="none" fill-rule="evenodd" opacity="0.6">
        <g id="Artboard" transform="translate(-1786.000000, -89.000000)">
            <g id="Tedx-Logo_-Red-Black" transform="translate(1786.000000, 89.000000)">
                <polygon id="Fill-1" fill="#000000" fill-rule="nonzero" points="1.58151917 23.8366539 0.453002451 22.2124663 1.52842654 22.2124663 2.13242981 23.1074451 2.72987107 22.2124663 3.77203769 22.2124663 2.64367011 23.816696 3.91148043 25.639718 2.83620547 25.639718 2.11915665 24.5593094 1.40225697 25.639718 0.346817185 25.639718"></polygon>
                <path d="M62.1823751,22.1196027 C62.6338116,22.1196027 62.9789137,22.272266 63.2047066,22.669786 L63.2178306,22.669786 L63.2178306,22.2123922 L64.1141416,22.2123922 L64.1141416,25.4210004 C64.1141416,25.9844393 63.9148951,26.9391428 62.3349419,26.9391428 C61.6580108,26.9391428 60.8680342,26.6210076 60.8216527,25.8386273 L61.757634,25.8386273 C61.843835,26.1899761 62.1292825,26.3094257 62.4611114,26.3094257 C62.9856249,26.3094257 63.2245417,25.9513747 63.2178306,25.4607673 L63.2178306,25.0099268 L63.2047066,25.0099268 C62.9987489,25.3679778 62.587281,25.54045 62.1756639,25.54045 C61.1467705,25.54045 60.7087563,24.7580697 60.7087563,23.8167707 C60.7087563,22.9284943 61.2199966,22.1196027 62.1823751,22.1196027 Z M24.8927345,22.1196772 C25.9680095,22.1196772 26.4527035,22.9881446 26.4527035,23.9626572 C26.4527035,24.8774449 25.9481743,25.7326567 24.9458271,25.7326567 C24.5342101,25.7326567 24.1425774,25.5534823 23.9169336,25.2155381 L23.9036605,25.2155381 L23.9036605,26.846279 L22.960968,26.846279 L22.960968,22.2124667 L23.8571299,22.2124667 L23.8571299,22.6500515 L23.870403,22.6500515 C24.0961959,22.2852981 24.4678443,22.1196772 24.8927345,22.1196772 Z M50.1616661,22.2124667 L50.9382204,24.5593097 L50.9516427,24.5593097 L51.7016508,22.2124667 L52.6774516,22.2124667 L51.2436522,26.0707499 C51.0378437,26.6209331 50.7125767,26.846279 50.0620429,26.846279 C49.8695075,26.846279 49.6769721,26.8330233 49.4845859,26.8130654 L49.4845859,26.0375363 C49.6638481,26.0507919 49.8496723,26.0773032 50.0354966,26.0707499 C50.3607635,26.0375363 50.4669488,25.6994432 50.3607635,25.4276282 L49.1526078,22.2124667 L50.1616661,22.2124667 Z M66.1781623,22.1196325 C66.8619536,22.1196325 67.6848895,22.2721468 67.6848895,23.094145 L67.6848895,24.8775492 C67.6848895,25.1889821 67.7181471,25.500564 67.8044973,25.6398226 L66.8486805,25.6398226 C66.8154229,25.5337775 66.7888766,25.4210301 66.7823147,25.3082828 C66.4835941,25.6198646 66.045282,25.732612 65.6272519,25.732612 C64.9765688,25.732612 64.4590648,25.4077745 64.4590648,24.704928 C64.4590648,23.929399 65.0430837,23.7438201 65.6272519,23.6641374 C66.2047086,23.5780502 66.7423465,23.5980081 66.7423465,23.2135947 C66.7423465,22.8090744 66.4636097,22.7494985 66.1316315,22.7494985 C65.7732565,22.7494985 65.5407523,22.8953105 65.5077934,23.2664683 L64.5651009,23.2664683 C64.6183427,22.3847452 65.4081701,22.1196325 66.1781623,22.1196325 Z M18.7066225,20.9064739 L18.7066225,25.6397779 L17.8104606,25.6397779 L17.8104606,25.202193 L17.7971875,25.202193 C17.5781058,25.5734997 17.1931842,25.7325673 16.7550208,25.7325673 C15.7195654,25.7325673 15.2150362,24.8442909 15.2150362,23.8962897 C15.2150362,22.9747997 15.7261274,22.1195878 16.7351857,22.1195878 C17.1399424,22.1195878 17.5382863,22.29206 17.757368,22.6300042 L17.7640791,22.6300042 L17.7640791,20.9064739 L18.7066225,20.9064739 Z M39.8735219,22.1196623 C41.041858,22.1196623 41.606191,23.1007282 41.5396761,24.1549234 L39.0637101,24.1549234 C39.0902564,24.751576 39.3822658,25.0232419 39.9067793,25.0232419 C40.2851389,25.0232419 40.5905706,24.7911939 40.6502253,24.5791038 L41.4800214,24.5791038 C41.2144091,25.3878464 40.6502253,25.7326418 39.8735219,25.7326418 C38.7915357,25.7326418 38.1211667,24.9900284 38.1211667,23.9294287 C38.1211667,22.9018937 38.8313552,22.1196623 39.8735219,22.1196623 Z M78.4310029,22.1196623 C79.5993389,22.1196623 80.1636718,23.1007282 80.0973061,24.1549234 L77.6213401,24.1549234 C77.647737,24.751576 77.9400451,25.0232419 78.4642598,25.0232419 C78.8426199,25.0232419 79.1480511,24.7911939 79.207855,24.5791038 L80.0375022,24.5791038 C79.7720392,25.3878464 79.207855,25.7326418 78.4310029,25.7326418 C77.3491658,25.7326418 76.6786476,24.9900284 76.6786476,23.9294287 C76.6786476,22.9018937 77.3889853,22.1196623 78.4310029,22.1196623 Z M108.930752,22.1196623 C110.099088,22.1196623 110.663421,23.1007282 110.596906,24.1549234 L108.121089,24.1549234 C108.147486,24.751576 108.439794,25.0232419 108.964009,25.0232419 C109.342369,25.0232419 109.647801,24.7911939 109.707604,24.5791038 L110.537251,24.5791038 C110.271788,25.3878464 109.707604,25.7326418 108.930752,25.7326418 C107.848915,25.7326418 107.178396,24.9900284 107.178396,23.9294287 C107.178396,22.9018937 107.888734,22.1196623 108.930752,22.1196623 Z M20.8702517,22.1196623 C22.0385879,22.1196623 22.6029208,23.1007282 22.5364059,24.1549234 L20.0604399,24.1549234 C20.0869863,24.751576 20.3789957,25.0232419 20.9035091,25.0232419 C21.2818687,25.0232419 21.5873005,24.7911939 21.6469551,24.5791038 L22.4767512,24.5791038 C22.211139,25.3878464 21.6469551,25.7326418 20.8702517,25.7326418 C19.7882656,25.7326418 19.1178965,24.9900284 19.1178965,23.9294287 C19.1178965,22.9018937 19.8280851,22.1196623 20.8702517,22.1196623 Z M56.241906,22.1196474 C57.323743,22.1196474 58.0208075,22.8357496 58.0208075,23.9294138 C58.0208075,25.0165248 57.323743,25.7326269 56.241906,25.7326269 C55.1664819,25.7326269 54.4694174,25.0165248 54.4694174,23.9294138 C54.4694174,22.8357496 55.1664819,22.1196474 56.241906,22.1196474 Z M37.7098926,20.9064739 L37.7098926,25.6397779 L36.8137308,25.6397779 L36.8137308,25.202193 L36.8004576,25.202193 C36.581376,25.5734997 36.1964544,25.7325673 35.758291,25.7325673 C34.7228355,25.7325673 34.2183064,24.8442909 34.2183064,23.8962897 C34.2183064,22.9747997 34.7293975,22.1195878 35.7384558,22.1195878 C36.1432125,22.1195878 36.5415564,22.29206 36.7606381,22.6300042 L36.7673493,22.6300042 L36.7673493,20.9064739 L37.7098926,20.9064739 Z M28.4702384,22.1196623 C29.6385746,22.1196623 30.2029076,23.1007282 30.1363926,24.1549234 L27.6604266,24.1549234 C27.686973,24.751576 27.9789824,25.0232419 28.5034958,25.0232419 C28.8818554,25.0232419 29.1872872,24.7911939 29.2469419,24.5791038 L30.0767379,24.5791038 C29.8111257,25.3878464 29.2469419,25.7326418 28.4702384,25.7326418 C27.3882523,25.7326418 26.7178832,24.9900284 26.7178832,23.9294287 C26.7178832,22.9018937 27.4280718,22.1196623 28.4702384,22.1196623 Z M102.200246,22.1196623 C103.368582,22.1196623 103.932915,23.1007282 103.86655,24.1549234 L101.390584,24.1549234 C101.416981,24.751576 101.709139,25.0232419 102.233504,25.0232419 C102.611863,25.0232419 102.917295,24.7911939 102.97695,24.5791038 L103.806746,24.5791038 C103.541283,25.3878464 102.97695,25.7326418 102.200246,25.7326418 C101.11826,25.7326418 100.447891,24.9900284 100.447891,23.9294287 C100.447891,22.9018937 101.158229,22.1196623 102.200246,22.1196623 Z M83.8675241,20.9064739 L83.8675241,25.6397779 L82.9713624,25.6397779 L82.9713624,25.202193 L82.9580892,25.202193 C82.7390076,25.5734997 82.3540856,25.7325673 81.9159222,25.7325673 C80.8803177,25.7325673 80.3757886,24.8442909 80.3757886,23.8962897 C80.3757886,22.9747997 80.887029,22.1195878 81.8960872,22.1195878 C82.3008442,22.1195878 82.6991881,22.29206 82.9182698,22.6300042 L82.9248317,22.6300042 L82.9248317,20.9064739 L83.8675241,20.9064739 Z M116.019766,21.1848869 L116.019766,22.212422 L116.71012,22.212422 L116.71012,22.842288 L116.019766,22.842288 L116.019766,24.5393071 C116.019766,24.8575912 116.099405,24.9371251 116.41811,24.9371251 C116.517733,24.9371251 116.610646,24.9304228 116.71012,24.9106138 L116.71012,25.646376 C116.550991,25.6728872 116.345183,25.6794405 116.159209,25.6794405 C115.581603,25.6794405 115.077223,25.5470332 115.077223,24.8641446 L115.077223,22.842288 L114.506328,22.842288 L114.506328,22.212422 L115.077223,22.212422 L115.077223,21.1848869 L116.019766,21.1848869 Z M46.9625218,21.1848869 L46.9625218,22.212422 L47.6528752,22.212422 L47.6528752,22.842288 L46.9625218,22.842288 L46.9625218,24.5393071 C46.9625218,24.8575912 47.0420116,24.9371251 47.3607165,24.9371251 C47.4603398,24.9371251 47.5532519,24.9304228 47.6528752,24.9106138 L47.6528752,25.646376 C47.4934481,25.6728872 47.2876396,25.6794405 47.1018153,25.6794405 C46.5242093,25.6794405 46.0198293,25.5470332 46.0198293,24.8641446 L46.0198293,22.842288 L45.4490834,22.842288 L45.4490834,22.212422 L46.0198293,22.212422 L46.0198293,21.1848869 L46.9625218,21.1848869 Z M43.9291428,22.1196325 C44.93149,22.1196325 45.18368,22.6830715 45.18368,23.531581 L45.18368,25.6398226 L44.2411366,25.6398226 L44.2411366,23.7040531 C44.2411366,23.1404653 44.0751475,22.862097 43.6371333,22.862097 C43.1260422,22.862097 42.9069605,23.1471676 42.9069605,23.8433118 L42.9069605,25.6398226 L41.964268,25.6398226 L41.964268,22.212422 L42.8604299,22.212422 L42.8604299,22.6896248 L42.8804142,22.6896248 C43.119331,22.3052114 43.5307989,22.1196325 43.9291428,22.1196325 Z M112.986522,22.1196325 C113.988869,22.1196325 114.241208,22.6830715 114.241208,23.531581 L114.241208,25.6398226 L113.298664,25.6398226 L113.298664,23.7040531 C113.298664,23.1404653 113.132527,22.862097 112.694512,22.862097 C112.183272,22.862097 111.964191,23.1471676 111.964191,23.8433118 L111.964191,25.6398226 L111.021647,25.6398226 L111.021647,22.212422 L111.917809,22.212422 L111.917809,22.6896248 L111.937793,22.6896248 C112.17671,22.3052114 112.588327,22.1196325 112.986522,22.1196325 Z M73.0163305,22.212422 L73.0163305,25.6398226 L71.9792934,25.6398226 L71.9792934,22.212422 L73.0163305,22.212422 Z M89.7684123,20.9064441 L89.7684123,21.7814649 L88.347737,21.7814649 L88.347737,25.6397481 L87.3055707,25.6397481 L87.3055707,21.7814649 L85.8851936,21.7814649 L85.8851936,20.9064441 L89.7684123,20.9064441 Z M76.3469677,22.212422 L76.3469677,22.9218218 L74.5613548,24.9304228 L76.4731373,24.9304228 L76.4731373,25.6398226 L73.3200912,25.6398226 L73.3200912,24.9304228 L75.1057034,22.9218218 L73.4529715,22.9218218 L73.4529715,22.212422 L76.3469677,22.212422 Z M11.0415682,22.2124216 L11.0415682,25.6398223 L10.0045312,25.6398223 L10.0045312,22.2124216 L11.0415682,22.2124216 Z M70.2470865,22.1196325 C71.2494334,22.1196325 71.5016239,22.6830715 71.5016239,23.531581 L71.5016239,25.6398226 L70.5590802,25.6398226 L70.5590802,23.7040531 C70.5590802,23.1404653 70.3929417,22.862097 69.9549277,22.862097 C69.4438368,22.862097 69.2247551,23.1471676 69.2247551,23.8433118 L69.2247551,25.6398226 L68.2820626,25.6398226 L68.2820626,22.212422 L69.1783738,22.212422 L69.1783738,22.6896248 L69.1982088,22.6896248 C69.4372749,22.3052114 69.8487425,22.1196325 70.2470865,22.1196325 Z M104.822187,22.2123773 L105.545649,24.552518 L105.558922,24.552518 L106.282533,22.2123773 L107.218514,22.2123773 L106.056889,25.6397779 L105.008012,25.6397779 L103.833113,22.2123773 L104.822187,22.2123773 Z M13.5226041,22.1196325 C14.5249513,22.1196325 14.7771413,22.6830715 14.7771413,23.531581 L14.7771413,25.6398226 L13.8345979,25.6398226 L13.8345979,23.7040531 C13.8345979,23.1404653 13.6686089,22.862097 13.2305946,22.862097 C12.7193544,22.862097 12.5004218,23.1471676 12.5004218,23.8433118 L12.5004218,25.6398226 L11.5577293,25.6398226 L11.5577293,22.212422 L12.4538912,22.212422 L12.4538912,22.6896248 L12.4738755,22.6896248 C12.7127923,22.3052114 13.1242603,22.1196325 13.5226041,22.1196325 Z M48.9402224,20.9063696 L48.9402224,25.6396736 L47.997679,25.6396736 L47.997679,20.9063696 L48.9402224,20.9063696 Z M96.2597924,20.9064888 C97.4877829,20.9064888 98.4104909,21.6756134 98.4104909,23.2467785 C98.4104909,24.6188111 97.7068646,25.6397928 96.2597924,25.6397928 L94.2152785,25.6397928 L94.2152785,20.9064888 L96.2597924,20.9064888 Z M32.5258593,22.1196325 C33.5282065,22.1196325 33.7803965,22.6830715 33.7803965,23.531581 L33.7803965,25.6398226 L32.8378531,25.6398226 L32.8378531,23.7040531 C32.8378531,23.1404653 32.6718641,22.862097 32.2338499,22.862097 C31.7227588,22.862097 31.503677,23.1471676 31.503677,23.8433118 L31.503677,25.6398226 L30.5609846,25.6398226 L30.5609846,22.212422 L31.4571464,22.212422 L31.4571464,22.6896248 L31.4771307,22.6896248 C31.7160476,22.3052114 32.1275155,22.1196325 32.5258593,22.1196325 Z M60.3703354,22.1196325 C60.4367013,22.1196325 60.5164894,22.1328881 60.576144,22.1528461 L60.576144,23.0278669 C60.4897939,23.0079089 60.3505003,22.9948023 60.2376039,22.9948023 C59.5472506,22.9948023 59.3081845,23.491963 59.3081845,24.0953178 L59.3081845,25.6398226 L58.3656412,25.6398226 L58.3656412,22.212422 L59.2619522,22.212422 L59.2619522,22.8486924 L59.2750762,22.8486924 C59.4477764,22.4179587 59.9123369,22.1196325 60.3703354,22.1196325 Z M93.7243358,20.9064441 L93.7243358,21.7814649 L91.2216741,21.7814649 L91.2216741,22.7958933 L93.5185273,22.7958933 L93.5185273,23.604487 L91.2216741,23.604487 L91.2216741,24.7645784 L93.777279,24.7645784 L93.777279,25.6397481 L90.1795077,25.6397481 L90.1795077,20.9064441 L93.7243358,20.9064441 Z M66.7423465,23.9626125 C66.583068,24.1018711 66.2512393,24.1084245 65.9590806,24.161447 C65.6669219,24.2211719 65.4016081,24.3205147 65.4016081,24.66531 C65.4016081,25.0165099 65.6736332,25.102746 65.979065,25.102746 C66.7158002,25.102746 66.7423465,24.5193492 66.7423465,24.3139613 L66.7423465,23.9626125 Z M8.37849474,24.3205143 L8.37849474,25.0299142 L5.02620201,25.0299142 L5.02620201,24.3205143 L8.37849474,24.3205143 Z M24.686926,22.8289281 C24.0696496,22.8289281 23.870403,23.3792603 23.870403,23.9361459 C23.870403,24.4928826 24.0829227,25.0232569 24.693488,25.0232569 C25.3109136,25.0232569 25.510011,24.4928826 25.510011,23.9361459 C25.510011,23.392516 25.2909293,22.8289281 24.686926,22.8289281 Z M16.9873757,22.8289877 C16.3699501,22.8289877 16.1575796,23.359362 16.1575796,23.9228009 C16.1575796,24.4597286 16.4032076,25.0231675 16.9873757,25.0231675 C17.6113632,25.0231675 17.7971875,24.4796865 17.7971875,23.9160986 C17.7971875,23.359362 17.5980901,22.8289877 16.9873757,22.8289877 Z M35.9906458,22.8289877 C35.3732203,22.8289877 35.1608497,23.359362 35.1608497,23.9228009 C35.1608497,24.4597286 35.4064777,25.0231675 35.9906458,25.0231675 C36.6146334,25.0231675 36.8004576,24.4796865 36.8004576,23.9160986 C36.8004576,23.359362 36.6013603,22.8289877 35.9906458,22.8289877 Z M56.241906,22.8290473 C55.6046453,22.8290473 55.4119608,23.3792306 55.4119608,23.9294138 C55.4119608,24.4730438 55.6046453,25.0232271 56.241906,25.0232271 C56.8855797,25.0232271 57.078115,24.4730438 57.078115,23.9294138 C57.078115,23.3792306 56.8855797,22.8290473 56.241906,22.8290473 Z M82.1482771,22.8289877 C81.5308515,22.8289877 81.3186305,23.359362 81.3186305,23.9228009 C81.3186305,24.4597286 81.5641091,25.0231675 82.1482771,25.0231675 C82.7722652,25.0231675 82.9580892,24.4796865 82.9580892,23.9160986 C82.9580892,23.359362 82.758992,22.8289877 82.1482771,22.8289877 Z M62.4147299,22.8290026 C61.8838036,22.8290026 61.6512996,23.2929498 61.6512996,23.8035151 C61.6512996,24.2939736 61.8371239,24.8309012 62.4147299,24.8309012 C62.9525165,24.8309012 63.2178306,24.3736563 63.2178306,23.8830489 C63.2178306,23.3261633 63.0252952,22.8290026 62.4147299,22.8290026 Z M96.0007419,21.7815096 L95.2574448,21.7815096 L95.2574448,24.7646231 L96.1867154,24.7646231 C96.7907184,24.7646231 97.3683245,24.3934653 97.3683245,23.3461212 C97.3683245,22.3914177 97.0364958,21.7815096 96.0007419,21.7815096 Z M8.37849474,22.9018636 L8.37849474,23.6112634 L5.02620201,23.6112634 L5.02620201,22.9018636 L8.37849474,22.9018636 Z M78.4046053,22.8290621 C77.8071642,22.8290621 77.6346132,23.2930094 77.6213401,23.558271 L79.1546136,23.558271 C79.0684122,23.0809192 78.8626037,22.8290621 78.4046053,22.8290621 Z M20.8437054,22.8290621 C20.2462641,22.8290621 20.073713,23.2930094 20.0604399,23.558271 L21.5938625,23.558271 C21.5075124,23.0809192 21.301853,22.8290621 20.8437054,22.8290621 Z M39.8469756,22.8290621 C39.2495343,22.8290621 39.0769832,23.2930094 39.0637101,23.558271 L40.5971327,23.558271 C40.5107826,23.0809192 40.3051232,22.8290621 39.8469756,22.8290621 Z M28.4436921,22.8290621 C27.8462508,22.8290621 27.6736998,23.2930094 27.6604266,23.558271 L29.1938492,23.558271 C29.1074991,23.0809192 28.9018397,22.8290621 28.4436921,22.8290621 Z M102.173849,22.8290621 C101.576408,22.8290621 101.403857,23.2930094 101.390584,23.558271 L102.923857,23.558271 C102.837656,23.0809192 102.631848,22.8290621 102.173849,22.8290621 Z M108.904355,22.8290621 C108.306913,22.8290621 108.134362,23.2930094 108.121089,23.558271 L109.654362,23.558271 C109.568162,23.0809192 109.362353,22.8290621 108.904355,22.8290621 Z M11.0415682,20.9063694 L11.0415682,21.6820473 L10.0045312,21.6820473 L10.0045312,20.9063694 L11.0415682,20.9063694 Z M73.0163305,20.9063696 L73.0163305,21.6820477 L71.9792934,21.6820477 L71.9792934,20.9063696 L73.0163305,20.9063696 Z" id="Combined-Shape" fill="#393939" fill-rule="nonzero"></path>
                <g id="Group-48" transform="translate(0.000000, 0.118258)">
                    <g id="Fill-24-Clipped" transform="translate(47.839435, 20.315377)"></g>
                    <g id="Fill-26-Clipped" transform="translate(49.150105, 21.626046)"></g>
                    <g id="Fill-27-Clipped" transform="translate(54.392782, 21.626046)"></g>
                    <g id="Fill-28-Clipped" transform="translate(58.324791, 21.626046)"></g>
                    <g id="Fill-29-Clipped" transform="translate(60.290795, 21.626046)"></g>
                    <g id="Fill-30-Clipped" transform="translate(64.222803, 21.626046)"></g>
                    <g id="Fill-31-Clipped" transform="translate(68.154812, 21.626046)"></g>
                    <g id="Fill-32-Clipped" transform="translate(71.431485, 20.315377)"></g>
                    <g id="Fill-33-Clipped" transform="translate(72.742155, 21.626046)"></g>
                    <g id="Fill-34-Clipped" transform="translate(76.674163, 21.626046)"></g>
                    <g id="Fill-35-Clipped" transform="translate(79.950837, 20.315377)"></g>
                    <g id="Fill-36-Clipped" transform="translate(85.848849, 20.315377)"></g>
                    <g id="Fill-37-Clipped" transform="translate(89.780858, 20.315377)"></g>
                    <g id="Fill-38-Clipped" transform="translate(93.712866, 20.315377)"></g>
                    <g id="Fill-39-Clipped" transform="translate(100.266213, 21.626046)"></g>
                    <g id="Fill-40-Clipped" transform="translate(103.542887, 21.626046)"></g>
                    <g id="Fill-41-Clipped" transform="translate(106.819561, 21.626046)"></g>
                    <g id="Fill-42-Clipped" transform="translate(110.751569, 21.626046)"></g>
                    <g id="Fill-43-Clipped" transform="translate(114.028243, 20.970711)"></g>
                    <g id="Fill-44-Clipped" transform="translate(0.000000, 0.655335)" fill="#000000" fill-rule="nonzero">
                        <polygon id="Fill-44" points="4.42261632 4.47309145 -2.98273219e-05 4.47309145 -2.98273219e-05 0.433697541 13.7026419 0.433697541 13.7026419 4.47309145 9.28163623 4.47309145 9.28163623 16.193902 4.42261632 16.193902"></polygon>
                    </g>
                    <g id="Fill-45-Clipped" transform="translate(14.417364, 0.655335)" fill="#000000" fill-rule="nonzero">
                        <polygon id="Fill-45" points="0.0404459487 0.433682652 13.3422384 0.433682652 13.3422384 4.47307657 4.9025977 4.47307657 4.9025977 6.43714451 13.3422384 6.43714451 13.3422384 10.1907231 4.9025977 10.1907231 4.9025977 12.1546422 13.3444755 12.1546422 13.3444755 16.1938871 0.0404459487 16.1938871"></polygon>
                    </g>
                    <g id="Fill-46-Clipped" transform="translate(28.179393, 0.655335)" fill="#000000" fill-rule="nonzero">
                        <path d="M5.26034539,12.1546869 L7.16183717,12.1546869 C10.1906525,12.1546869 10.6334391,9.70388386 10.6334391,8.22327418 C10.6334391,7.23178256 10.3223402,4.4731212 6.80778682,4.4731212 L5.26034539,4.4731212 L5.26034539,12.1546869 Z M0.398491878,0.433727333 L8.37730052,0.433727333 C13.6369013,0.433727333 15.4955909,4.31881969 15.4955909,8.29074391 C15.4955909,13.1260716 12.9316343,16.1939318 7.42789685,16.1939318 L0.398491878,16.1939318 L0.398491878,0.433727333 Z" id="Fill-46"></path>
                    </g>
                    <g id="Fill-47-Clipped" transform="translate(43.907427, 0.655335)" fill="#000000" fill-rule="nonzero">
                        <polygon id="Fill-47" points="6.75395134 10.1207214 5.27078782 7.66440774 3.82431184 10.1207214 0.262034739 10.1207214 3.64385651 5.15402893 0.387458663 0.403447887 3.95107795 0.403447887 5.27078782 2.75163137 6.62822923 0.403447887 10.1909537 0.403447887 6.93530146 5.15402893 10.3172724 10.1207214"></polygon>
                    </g>
                    <g id="Combined-Shape-2" transform="translate(57.918692, 0.373658)" fill="#393939" fill-rule="nonzero">
                        <path d="M63.9426601,4.10248941 C64.8412701,4.10248941 65.6257595,4.3232809 66.2961519,4.76487054 C66.6598751,5.01415496 67.0307244,5.37739258 67.4087117,5.85459429 L67.4087117,4.41231284 L69.1845279,4.41231284 L69.1845279,14.8181063 C69.1845279,16.2710786 68.9705762,17.4177699 68.5426662,18.2582146 C67.7439016,19.8109006 66.2355426,20.587232 64.0175439,20.587232 C62.7837373,20.587232 61.7460718,20.3112427 60.9045158,19.7592557 C60.0629599,19.2072687 59.5922664,18.343689 59.4924209,17.1684909 L61.4500984,17.1684909 C61.5428118,17.6813046 61.7282368,18.0765926 62.0063779,18.3543667 C62.4414193,18.7817115 63.1260652,18.9953807 64.0603346,18.9953807 C65.5366229,18.9953807 66.5029716,18.4754523 66.9594083,17.43558 C67.230418,16.8230525 67.3552233,15.7297785 67.3338272,14.1557252 C66.9487086,14.7397631 66.4851471,15.1742237 65.9431277,15.4591203 C65.4011088,15.7440168 64.6843705,15.8864629 63.7928925,15.8864629 C62.5519539,15.8864629 61.4661495,15.4466605 60.5354457,14.5670425 C59.604742,13.6874245 59.1393973,12.2326935 59.1393973,10.2028057 C59.1393973,8.2868766 59.6083076,6.79119226 60.5461434,5.71570789 C61.4839785,4.64022352 62.6161394,4.10248941 63.9426601,4.10248941 Z M17.3317128,4.02770445 C18.6796282,4.02770445 19.7743472,4.28410748 20.6159031,4.79692119 C21.4503271,5.30973497 21.8675328,6.10743324 21.8675328,7.19004005 L21.8675328,13.7818004 C21.8675328,13.981228 21.9085404,14.1414798 21.9905562,14.2625609 C22.0725726,14.3836419 22.2455168,14.4441815 22.5093945,14.4441815 C22.5949766,14.4441815 22.6912545,14.4388397 22.798232,14.4281562 C22.9052095,14.4174725 23.019317,14.4014473 23.1405579,14.3800801 L23.1405579,15.8009944 C22.8410214,15.8864633 22.6128063,15.9398807 22.4559061,15.9612479 C22.2990058,15.9826151 22.0850541,15.9932986 21.8140444,15.9932986 C21.1507847,15.9932986 20.6693935,15.7582624 20.3698564,15.2881832 C20.2129561,15.0388988 20.1024143,14.6863446 20.0382282,14.2305101 C19.6459776,14.7433239 19.0825712,15.188468 18.3479928,15.5659559 C17.613415,15.9434439 16.8039645,16.1321849 15.9196172,16.1321849 C14.8569749,16.1321849 13.9886878,15.8099006 13.3147298,15.1653222 C12.6407724,14.5207438 12.303798,13.7141426 12.303798,12.7454945 C12.303798,11.6842549 12.6354236,10.8616286 13.2986833,10.2775906 C13.9619436,9.69355279 14.8320138,9.33387632 15.9089195,9.19855049 L18.9791568,8.81394207 C19.4213301,8.75696282 19.7172963,8.57178285 19.8670652,8.25839667 C19.9526467,8.08745877 19.9954374,7.84173918 19.9954374,7.52123062 C19.9954374,6.86596857 19.7618735,6.39055462 19.2947385,6.09497454 C18.8276041,5.79939439 18.1590047,5.65160652 17.288922,5.65160652 C16.2833338,5.65160652 15.5701619,5.92225412 15.1493839,6.46355753 C14.9140336,6.76269889 14.7607016,7.207843 14.6893828,7.79900329 L12.8921713,7.79900329 C12.9278306,6.38876555 13.3860433,5.40766786 14.2668243,4.8556808 C15.1476053,4.3036938 16.1692243,4.02770445 17.3317128,4.02770445 Z M76.5766315,4.02770445 C77.9245476,4.02770445 79.0192666,4.28410748 79.8608225,4.79692119 C80.6952465,5.30973497 81.1124522,6.10743324 81.1124522,7.19004005 L81.1124522,13.7818004 C81.1124522,13.981228 81.1534598,14.1414798 81.2354756,14.2625609 C81.3174914,14.3836419 81.4904355,14.4441815 81.7543133,14.4441815 C81.8398954,14.4441815 81.9361739,14.4388397 82.0431514,14.4281562 C82.1501289,14.4174725 82.2642364,14.4014473 82.3854773,14.3800801 L82.3854773,15.8009944 C82.0859402,15.8864633 81.8577251,15.9398807 81.7008249,15.9612479 C81.5439246,15.9826151 81.3299729,15.9932986 81.0589638,15.9932986 C80.3957035,15.9932986 79.9143123,15.7582624 79.6147758,15.2881832 C79.4578756,15.0388988 79.3473337,14.6863446 79.2831469,14.2305101 C78.8908963,14.7433239 78.3274907,15.188468 77.5929122,15.5659559 C76.8583337,15.9434439 76.0488833,16.1321849 75.1645366,16.1321849 C74.1018943,16.1321849 73.2336066,15.8099006 72.5596492,15.1653222 C71.8856912,14.5207438 71.5487174,13.7141426 71.5487174,12.7454945 C71.5487174,11.6842549 71.8803423,10.8616286 72.5436027,10.2775906 C73.2068624,9.69355279 74.0769326,9.33387632 75.1538389,9.19855049 L78.2240756,8.81394207 C78.6662496,8.75696282 78.9622158,8.57178285 79.111984,8.25839667 C79.1975661,8.08745877 79.2403562,7.84173918 79.2403562,7.52123062 C79.2403562,6.86596857 79.0067923,6.39055462 78.5396579,6.09497454 C78.0725228,5.79939439 77.4039241,5.65160652 76.5338408,5.65160652 C75.5282533,5.65160652 74.8150807,5.92225412 74.3943027,6.46355753 C74.1589523,6.76269889 74.0056204,7.207843 73.9343023,7.79900329 L72.13709,7.79900329 C72.1727494,6.38876555 72.6309627,5.40766786 73.5117437,4.8556808 C74.3925241,4.3036938 75.4141438,4.02770445 76.5766315,4.02770445 Z M41.6261665,3.97428662 C42.9170271,3.97428662 43.9671735,4.28766811 44.7766358,4.91444047 C45.5860987,5.54121276 46.0728387,6.62024217 46.2368703,8.15156099 L44.3647749,8.15156099 C44.2506654,7.44644212 43.9903579,6.86063244 43.5838433,6.39411433 C43.1773294,5.92759628 42.5247765,5.69434076 41.6261665,5.69434076 C40.3994919,5.69434076 39.5222897,6.29261451 38.9945342,7.48917991 C38.652207,8.26552291 38.4810454,9.22347313 38.4810454,10.3630592 C38.4810454,11.5097677 38.7235238,12.4748402 39.2084886,13.2583056 C39.6934526,14.0417711 40.4565467,14.4334979 41.4977936,14.4334979 C42.2965588,14.4334979 42.9294988,14.1895589 43.3966339,13.7016736 C43.8637689,13.2137883 44.1864793,12.5460721 44.3647749,11.698505 L46.2368703,11.698505 C46.022916,13.215579 45.4880363,14.3248782 44.632217,15.0264359 C43.7763977,15.7279935 42.6816781,16.0787671 41.348026,16.0787671 C39.8503424,16.0787671 38.6557786,15.5321301 37.7642999,14.4388397 C36.8728219,13.3455493 36.4270887,11.9798471 36.4270887,10.3416921 C36.4270887,8.33317161 36.9156119,6.76982533 37.8926728,5.65160652 C38.8697329,4.53338764 40.1142182,3.97428662 41.6261665,3.97428662 Z M7.07117299,0.0534178278 C8.4690118,0.0534178278 9.59582382,0.44692525 10.4516431,1.23395189 C11.3074624,2.02097854 11.7353659,3.12671658 11.7353659,4.55119918 C11.7353659,5.77625426 11.3538189,6.84281959 10.590713,7.75092728 C9.82760719,8.6590349 8.65443876,9.11308193 7.07117299,9.11308193 L2.12884032,9.11308193 L2.12884032,15.7475766 L1.98951966e-12,15.7475766 L1.98951966e-12,0.0534178278 L7.07117299,0.0534178278 Z M30.5968476,4.04907158 C32.2229048,4.04907158 33.3211901,4.61529491 33.8917363,5.74775861 C34.2055368,6.36740852 34.362435,7.25413565 34.362435,8.4079666 L34.362435,15.7475766 L32.4047575,15.7475766 L32.4047575,8.5361694 C32.4047575,7.83817291 32.3013477,7.2755107 32.0945247,6.84816595 C31.7521969,6.13592464 31.1317371,5.77980932 30.2331264,5.77980932 C29.7766897,5.77980932 29.402274,5.82610427 29.1098689,5.91869566 C28.5821134,6.07538875 28.1185519,6.38877021 27.7191693,6.85884947 C27.3982368,7.23633735 27.1896339,7.62628366 27.0933548,8.02870001 C26.997075,8.4311163 26.9489354,9.00624258 26.9489354,9.75409596 L26.9489354,15.7475766 L25.0233516,15.7475766 L25.0233516,4.30547716 L26.8526562,4.30547716 L26.8526562,5.92937925 C27.3946757,5.25987239 27.9687791,4.77911673 28.5749847,4.48709781 C29.1811903,4.19507886 29.8551378,4.04907158 30.5968476,4.04907158 Z M50.0880392,-1.72528658e-13 L50.0880392,5.85459429 C50.5444759,5.27767881 50.9545503,4.87170734 51.3182735,4.63666774 C51.9387425,4.23069017 52.7125342,4.02770445 53.6396716,4.02770445 C55.3013882,4.02770445 56.4282002,4.60817241 57.0201418,5.76912573 C57.3410743,6.40302053 57.5015382,7.28262535 57.5015382,8.4079666 L57.5015382,15.7475766 L55.5224653,15.7475766 L55.5224653,8.5361694 C55.5224653,7.69572464 55.4154898,7.07964518 55.2015348,6.68791242 C54.852075,6.06114007 54.1959564,5.74775861 53.2331596,5.74775861 C52.4343951,5.74775861 51.7105254,6.02196737 51.0615284,6.57039321 C50.4125321,7.11881899 50.0880392,8.15511454 50.0880392,9.67931099 L50.0880392,15.7475766 L48.1624547,15.7475766 L48.1624547,-1.72528658e-13 L50.0880392,-1.72528658e-13 Z M98.4106166,4.358895 L98.4106166,15.7475766 L96.4529391,15.7475766 L96.4529391,4.358895 L98.4106166,4.358895 Z M89.841767,4.04907158 C91.4678242,4.04907158 92.5661095,4.61529491 93.1366557,5.74775861 C93.4504562,6.36740852 93.6073538,7.25413565 93.6073538,8.4079666 L93.6073538,15.7475766 L91.649677,15.7475766 L91.649677,8.5361694 C91.649677,7.83817291 91.5462665,7.2755107 91.3394435,6.84816595 C90.9971156,6.13592464 90.3766558,5.77980932 89.4780458,5.77980932 C89.0216084,5.77980932 88.6471934,5.82610427 88.3547883,5.91869566 C87.8270328,6.07538875 87.3634707,6.38877021 86.9640887,6.85884947 C86.6431562,7.23633735 86.4345533,7.62628366 86.3382735,8.02870001 C86.2419937,8.4311163 86.1938548,9.00624258 86.1938548,9.75409596 L86.1938548,15.7475766 L84.2682703,15.7475766 L84.2682703,4.30547716 L86.0975756,4.30547716 L86.0975756,5.92937925 C86.6395945,5.25987239 87.2136985,4.77911673 87.8199034,4.48709781 C88.426109,4.19507886 89.1000566,4.04907158 89.841767,4.04907158 Z M79.1868678,9.92503301 C78.9515174,10.0746037 78.6484192,10.199244 78.2775646,10.2989578 C77.9067094,10.3986716 77.5429914,10.4698946 77.1864002,10.5126291 L76.020352,10.6621991 C75.3214322,10.7547904 74.797251,10.9007977 74.4477911,11.1002252 C73.8558495,11.4349787 73.5598833,11.9691516 73.5598833,12.7027602 C73.5598833,13.2583084 73.7631374,13.6963302 74.1696513,14.0168389 C74.5761659,14.3373474 75.0575571,14.4975993 75.6138393,14.4975993 C76.291363,14.4975993 76.9474815,14.3409086 77.5822145,14.0275224 C78.6519888,13.5075862 79.1868678,12.6564706 79.1868678,11.4741501 L79.1868678,9.92503301 Z M19.941949,9.92503301 C19.7065987,10.0746037 19.4035004,10.199244 19.0326452,10.2989578 C18.66179,10.3986716 18.298072,10.4698946 17.9414808,10.5126291 L16.7754326,10.6621991 C16.0765135,10.7547904 15.5523315,10.9007977 15.2028723,11.1002252 C14.6109301,11.4349787 14.3149639,11.9691516 14.3149639,12.7027602 C14.3149639,13.2583084 14.5182179,13.6963302 14.9247326,14.0168389 C15.3312465,14.3373474 15.8126377,14.4975993 16.3689206,14.4975993 C17.0464443,14.4975993 17.7025628,14.3409086 18.3372951,14.0275224 C19.4070694,13.5075862 19.941949,12.6564706 19.941949,11.4741501 L19.941949,9.92503301 Z M64.2956836,5.80117645 C62.9406362,5.80117645 62.0135126,6.43506168 61.5142845,7.7028512 C61.2504067,8.37948044 61.1184695,9.26620757 61.1184695,10.3630592 C61.1184695,11.652216 61.3805608,12.6333137 61.9047499,13.3063817 C62.4289391,13.9794497 63.1331972,14.3159787 64.0175439,14.3159787 C65.4011186,14.3159787 66.3745987,13.6927769 66.9380129,12.4463546 C67.2518134,11.7412357 67.4087117,10.9186093 67.4087117,9.97845085 C67.4087117,8.5610906 67.1163105,7.51055044 66.5315009,6.82679882 C65.9466907,6.14304714 65.2014257,5.80117645 64.2956836,5.80117645 Z M6.36512551,1.88030765 L2.12884032,1.88030765 L2.12884032,7.31824285 L6.36512551,7.31824285 C7.32079058,7.31824285 8.09636553,7.11525712 8.69187279,6.70927955 C9.2873807,6.30330204 9.58513007,5.58751026 9.58513007,4.56188277 C9.58513007,3.40805184 9.15722663,2.62459815 8.30140732,2.2114982 C7.8307066,1.9907034 7.18528584,1.88030765 6.36512551,1.88030765 Z M98.4106166,0.0534178278 L98.4106166,2.23286533 L96.4529391,2.23286533 L96.4529391,0.0534178278 L98.4106166,0.0534178278 Z" id="Combined-Shape"></path>
                    </g>
                </g>
            </g>
        </g>
    </g>
</svg>